<svg width="48" height="48" viewBox="0 0 48 48" fill="none" xmlns="http://www.w3.org/2000/svg">
<path d="M23.2346 2.31703C23.7247 2.11404 24.2753 2.11404 24.7654 2.31703L38.791 8.12663C39.281 8.32961 39.6704 8.71896 39.8734 9.20902L45.683 23.2346C45.886 23.7247 45.886 24.2753 45.683 24.7654L39.8734 38.791C39.6704 39.281 39.281 39.6704 38.791 39.8734L24.7654 45.683C24.2753 45.886 23.7247 45.886 23.2346 45.683L9.20902 39.8734C8.71896 39.6704 8.32961 39.281 8.12663 38.791L2.31703 24.7654C2.11404 24.2753 2.11404 23.7247 2.31703 23.2346L8.12663 9.20902C8.32961 8.71896 8.71896 8.32961 9.20902 8.12663L23.2346 2.31703Z" fill="url(#paint0_linear_1671_488)"/>
<path d="M17 19C17 16.2386 19.2386 14 22 14H26C28.7615 14 31 16.2386 31 19V20.886L28.2045 33H22.9835L22.9835 35H28.2045C29.1358 35 29.9439 34.3572 30.1533 33.4497L30.9494 29.9999H32.8793C33.7402 29.9999 34.5044 29.4491 34.7767 28.6324L36.2974 24.0701C36.3654 23.8662 36.4 23.6526 36.4 23.4376V22.9661C36.4 22.2636 36.0315 21.6126 35.429 21.2511L33 19.7937V19C33 15.134 29.866 12 26 12H22C18.1341 12 15 15.134 15 19V19.7938L12.5711 21.2511C11.9687 21.6126 11.6001 22.2636 11.6001 22.9661V23.4376C11.6001 23.6526 11.6348 23.8662 11.7027 24.0701L13.2235 28.6324C13.4957 29.4491 14.26 29.9999 15.1209 29.9999L19.1033 30L17 20.886V19Z" fill="#211F26"/>
<defs>
<linearGradient id="paint0_linear_1671_488" x1="15.2" y1="8.28572" x2="43.5165" y2="36.269" gradientUnits="userSpaceOnUse">
<stop stop-color="#43F3C2"/>
<stop offset="1" stop-color="#31DEAE"/>
</linearGradient>
</defs>
</svg>
