<svg width="1416" height="480" viewBox="0 0 1416 480" fill="none" xmlns="http://www.w3.org/2000/svg">
<g clip-path="url(#clip0_2266_38832)">
<path d="M0 24C0 10.7452 10.7452 0 24 0H1392C1405.25 0 1416 10.7452 1416 24V456C1416 469.255 1405.25 480 1392 480H24C10.7452 480 0 469.255 0 456V24Z" fill="black"/>
<g clip-path="url(#clip1_2266_38832)">
<rect width="1920" height="1080" transform="translate(-252 -215)" fill="url(#paint0_linear_2266_38832)"/>
<g clip-path="url(#clip2_2266_38832)">
<path d="M338.052 552.909L388.093 581.8L386.757 584.113L336.717 555.222L338.052 552.909ZM568.383 685.89L518.375 657.018L517.039 659.331L567.047 688.204L568.383 685.89ZM-113.51 382.16L-108.135 385.263L-163.227 480.686L-168.602 477.583L-169.938 479.896L-162.282 484.316L-104.519 384.267L-112.175 379.847L-113.51 382.16ZM27.1532 156.242L19.4972 151.822L18.1617 154.135L23.5372 157.239L-31.5552 252.661L-36.9306 249.558L-38.2661 251.871L-30.6101 256.291L27.1532 156.242ZM1018.62 858.978L1013.24 855.875L1068.33 760.452L1073.71 763.555L1075.04 761.242L1067.39 756.822L1009.63 856.871L1017.28 861.291L1018.62 858.978ZM886.952 1087.03L881.576 1083.93L936.669 988.502L942.044 991.606L943.379 989.293L935.723 984.873L877.96 1084.92L885.616 1089.34L886.952 1087.03ZM59.928 696.857L-42.8478 724.396L-42.1593 726.965L60.6165 699.426L59.928 696.857ZM73.6973 748.245L22.3094 762.014L22.9979 764.584L74.3858 750.814L73.6973 748.245ZM831.435 492.886L882.823 479.117L882.134 476.548L830.746 490.317L831.435 492.886ZM845.204 544.274L947.98 516.735L947.291 514.166L844.516 541.705L845.204 544.274ZM420.795 918.235L423.364 917.546L420.266 905.984L520.472 879.134L523.57 890.696L526.14 890.008L523.042 878.445L534.604 875.347L533.916 872.778L522.353 875.876L519.255 864.314L516.686 865.002L519.784 876.565L419.577 903.415L416.479 891.852L413.91 892.541L417.008 904.103L405.446 907.201L406.134 909.771L417.697 906.673L420.795 918.235ZM484.337 322.896L481.768 323.585L484.866 335.147L384.66 361.997L381.562 350.435L378.992 351.123L382.09 362.686L370.528 365.784L371.217 368.353L382.779 365.255L385.877 376.817L388.446 376.129L385.348 364.567L485.555 337.716L488.653 349.279L491.222 348.59L488.124 337.028L499.686 333.93L498.998 331.36L487.436 334.458L484.337 322.896ZM679.809 435.752L677.24 436.44L680.338 448.003L668.776 451.101L669.464 453.67L681.026 450.572L684.124 462.134L686.694 461.446L683.596 449.884L695.158 446.785L694.47 444.216L682.907 447.314L679.809 435.752ZM921.629 618.805L919.059 619.493L922.158 631.055L910.595 634.154L911.284 636.723L922.846 633.625L925.944 645.187L928.514 644.499L925.415 632.936L936.978 629.838L936.289 627.269L924.727 630.367L921.629 618.805ZM-16.4967 622.326L-13.9273 621.638L-17.0254 610.076L-5.46315 606.978L-6.15162 604.408L-17.7139 607.506L-20.812 595.944L-23.3814 596.633L-20.2833 608.195L-31.8456 611.293L-31.1571 613.862L-19.5948 610.764L-16.4967 622.326ZM225.323 805.379L227.892 804.691L224.794 793.129L236.357 790.03L235.668 787.461L224.106 790.559L221.008 778.997L218.438 779.685L221.536 791.248L209.974 794.346L210.663 796.915L222.225 793.817L225.323 805.379ZM289.263 828.178L286.694 828.866L287.382 831.436L289.951 830.747L289.263 828.178ZM308.072 795.599L305.503 796.288L306.191 798.857L308.761 798.168L308.072 795.599ZM275.494 776.79L272.924 777.478L273.613 780.048L276.182 779.359L275.494 776.79ZM326.882 763.02L324.312 763.709L325.001 766.278L327.57 765.59L326.882 763.02ZM301.188 769.905L298.618 770.594L299.307 773.163L301.876 772.475L301.188 769.905ZM282.378 802.484L279.809 803.172L280.497 805.742L283.067 805.053L282.378 802.484ZM291.783 786.194L289.214 786.883L289.902 789.452L292.471 788.764L291.783 786.194ZM317.477 779.31L314.908 779.998L315.596 782.568L318.165 781.879L317.477 779.31ZM298.668 811.888L296.098 812.577L296.787 815.146L299.356 814.458L298.668 811.888ZM615.869 412.953L618.439 412.265L617.75 409.696L615.181 410.384L615.869 412.953ZM597.06 445.532L599.629 444.844L598.941 442.274L596.371 442.963L597.06 445.532ZM629.638 464.341L632.208 463.653L631.519 461.083L628.95 461.772L629.638 464.341ZM578.251 478.111L580.82 477.422L580.132 474.853L577.562 475.541L578.251 478.111ZM603.945 471.226L606.514 470.538L605.825 467.968L603.256 468.657L603.945 471.226ZM622.754 438.647L625.323 437.959L624.635 435.39L622.065 436.078L622.754 438.647ZM613.349 454.937L615.919 454.248L615.23 451.679L612.661 452.367L613.349 454.937ZM587.655 461.821L590.225 461.133L589.536 458.564L586.967 459.252L587.655 461.821ZM606.465 429.243L609.034 428.554L608.345 425.985L605.776 426.673L606.465 429.243ZM243.735 154.664L246.304 153.975L245.616 151.406L243.047 152.094L243.735 154.664ZM226.807 183.984L224.237 184.673L224.926 187.242L227.495 186.554L226.807 183.984ZM257.504 206.051L260.074 205.363L259.385 202.794L256.816 203.482L257.504 206.051ZM207.997 216.563L205.428 217.251L206.116 219.821L208.686 219.132L207.997 216.563ZM233.691 209.678L231.122 210.367L231.81 212.936L234.38 212.248L233.691 209.678ZM250.62 180.357L253.189 179.669L252.501 177.1L249.931 177.788L250.62 180.357ZM241.215 196.647L243.784 195.958L243.096 193.389L240.527 194.077L241.215 196.647ZM215.521 203.531L218.09 202.843L217.402 200.274L214.833 200.962L215.521 203.531ZM264.389 231.745L266.958 231.057L266.27 228.488L263.701 229.176L264.389 231.745ZM214.882 242.257L212.313 242.945L213.001 245.515L215.571 244.826L214.882 242.257ZM240.576 235.372L238.007 236.061L238.695 238.63L241.264 237.942L240.576 235.372ZM248.1 222.341L250.669 221.652L249.981 219.083L247.411 219.771L248.1 222.341ZM222.406 229.225L224.975 228.537L224.287 225.968L221.717 226.656L222.406 229.225ZM189.188 249.142L186.619 249.83L187.307 252.399L189.877 251.711L189.188 249.142ZM198.593 232.852L196.023 233.541L196.712 236.11L199.281 235.422L198.593 232.852ZM234.33 170.953L236.9 170.264L236.211 167.695L233.642 168.383L234.33 170.953ZM255.709 137.686L255.021 135.116L252.451 135.805L253.14 138.374L255.709 137.686ZM269.429 147.779L271.998 147.09L271.31 144.521L268.74 145.209L269.429 147.779ZM283.198 199.167L285.768 198.478L285.079 195.909L282.51 196.597L283.198 199.167ZM276.314 173.473L278.883 172.784L278.195 170.215L275.625 170.903L276.314 173.473ZM262.544 122.085L265.114 121.396L264.425 118.827L261.856 119.516L262.544 122.085ZM219.922 158.29L217.353 158.979L218.041 161.548L220.61 160.86L219.922 158.29ZM201.113 190.869L198.543 191.557L199.232 194.127L201.801 193.438L201.113 190.869ZM182.303 223.448L179.734 224.136L180.423 226.705L182.992 226.017L182.303 223.448ZM191.708 207.158L189.139 207.847L189.827 210.416L192.397 209.728L191.708 207.158ZM163.494 256.026L160.925 256.715L161.613 259.284L164.183 258.596L163.494 256.026ZM172.899 239.737L170.329 240.425L171.018 242.995L173.587 242.306L172.899 239.737ZM208.636 177.838L211.206 177.149L210.517 174.58L207.948 175.268L208.636 177.838ZM230.015 144.57L229.327 142.001L226.757 142.69L227.446 145.259L230.015 144.57ZM236.85 128.97L239.42 128.281L238.731 125.712L236.162 126.4L236.85 128.97ZM248.136 109.422L245.567 110.111L246.255 112.68L248.824 111.992L248.136 109.422ZM257.541 93.1331L254.971 93.8216L255.66 96.391L258.229 95.7025L257.541 93.1331ZM241.251 83.7285L238.682 84.417L239.37 86.9864L241.94 86.2979L241.251 83.7285ZM250.656 67.4392L248.086 68.1277L248.775 70.697L251.344 70.0086L250.656 67.4392ZM194.228 165.175L191.659 165.864L192.347 168.433L194.917 167.744L194.228 165.175ZM175.419 197.754L172.849 198.442L173.538 201.012L176.107 200.323L175.419 197.754ZM156.609 230.332L154.04 231.021L154.729 233.59L157.298 232.902L156.609 230.332ZM166.014 214.043L163.445 214.731L164.133 217.301L166.703 216.612L166.014 214.043ZM137.8 262.911L135.231 263.599L135.919 266.169L138.489 265.48L137.8 262.911ZM147.205 246.622L144.635 247.31L145.324 249.879L147.893 249.191L147.205 246.622ZM184.823 181.464L182.254 182.153L182.942 184.722L185.512 184.034L184.823 181.464ZM204.321 151.455L203.633 148.886L201.063 149.574L201.752 152.144L204.321 151.455ZM213.037 132.596L210.468 133.285L211.156 135.854L213.726 135.166L213.037 132.596ZM222.442 116.307L219.873 116.996L220.561 119.565L223.13 118.877L222.442 116.307ZM231.847 100.018L229.277 100.706L229.966 103.276L232.535 102.587L231.847 100.018ZM266.909 189.762L269.478 189.074L268.79 186.504L266.221 187.193L266.909 189.762ZM290.083 224.861L292.652 224.172L291.964 221.603L289.394 222.291L290.083 224.861ZM273.794 215.456L276.363 214.768L275.675 212.198L273.105 212.887L273.794 215.456ZM260.024 164.068L262.594 163.38L261.905 160.81L259.336 161.499L260.024 164.068ZM659.516 1089.73L662.086 1089.04L661.397 1086.47L658.828 1087.16L659.516 1089.73ZM678.325 1057.15L680.895 1056.46L680.206 1053.89L677.637 1054.58L678.325 1057.15ZM645.747 1038.34L648.316 1037.65L647.628 1035.08L645.058 1035.77L645.747 1038.34ZM697.135 1024.57L699.704 1023.88L699.016 1021.31L696.446 1022L697.135 1024.57ZM671.441 1031.45L674.01 1030.76L673.322 1028.2L670.752 1028.88L671.441 1031.45ZM652.632 1064.03L655.201 1063.34L654.512 1060.77L651.943 1061.46L652.632 1064.03ZM662.036 1047.74L664.606 1047.05L663.917 1044.48L661.348 1045.17L662.036 1047.74ZM687.73 1040.86L690.3 1040.17L689.611 1037.6L687.042 1038.29L687.73 1040.86ZM638.862 1012.64L641.432 1011.96L640.743 1009.39L638.174 1010.07L638.862 1012.64ZM690.25 998.874L692.819 998.186L692.131 995.616L689.562 996.305L690.25 998.874ZM664.556 1005.76L667.126 1005.07L666.437 1002.5L663.868 1003.19L664.556 1005.76ZM655.152 1022.05L657.721 1021.36L657.032 1018.79L654.463 1019.48L655.152 1022.05ZM680.845 1015.16L683.415 1014.48L682.726 1011.91L680.157 1012.59L680.845 1015.16ZM715.944 991.99L718.513 991.301L717.825 988.732L715.256 989.42L715.944 991.99ZM706.539 1008.28L709.109 1007.59L708.42 1005.02L705.851 1005.71L706.539 1008.28ZM668.921 1073.44L671.49 1072.75L670.802 1070.18L668.232 1070.87L668.921 1073.44ZM650.112 1106.01L652.681 1105.33L651.993 1102.76L649.423 1103.45L650.112 1106.01ZM633.822 1096.61L636.392 1095.92L635.703 1093.35L633.134 1094.04L633.822 1096.61ZM620.053 1045.22L622.622 1044.53L621.934 1041.96L619.364 1042.65L620.053 1045.22ZM626.938 1070.92L629.507 1070.23L628.819 1067.66L626.249 1068.35L626.938 1070.92ZM640.707 1122.3L643.276 1121.62L642.588 1119.05L640.018 1119.73L640.707 1122.3ZM685.21 1082.84L687.78 1082.15L687.091 1079.58L684.522 1080.27L685.21 1082.84ZM704.019 1050.26L706.589 1049.57L705.9 1047L703.331 1047.69L704.019 1050.26ZM722.829 1017.68L725.398 1017L724.71 1014.43L722.14 1015.11L722.829 1017.68ZM713.424 1033.97L715.993 1033.28L715.305 1030.71L712.736 1031.4L713.424 1033.97ZM741.638 985.105L744.207 984.416L743.519 981.847L740.95 982.536L741.638 985.105ZM732.233 1001.39L734.803 1000.71L734.114 998.136L731.545 998.825L732.233 1001.39ZM694.615 1066.55L697.184 1065.86L696.496 1063.29L693.926 1063.98L694.615 1066.55ZM675.806 1099.13L678.375 1098.44L677.686 1095.87L675.117 1096.56L675.806 1099.13ZM666.401 1115.42L668.97 1114.73L668.282 1112.16L665.712 1112.85L666.401 1115.42ZM656.996 1131.71L659.566 1131.02L658.877 1128.45L656.308 1129.14L656.996 1131.71ZM647.592 1148L650.161 1147.31L649.473 1144.74L646.903 1145.43L647.592 1148ZM663.881 1157.4L666.45 1156.71L665.762 1154.14L663.192 1154.83L663.881 1157.4ZM654.476 1173.69L657.046 1173L656.357 1170.43L653.788 1171.12L654.476 1173.69ZM710.904 1075.96L713.473 1075.27L712.785 1072.7L710.216 1073.39L710.904 1075.96ZM729.713 1043.38L732.283 1042.69L731.594 1040.12L729.025 1040.81L729.713 1043.38ZM748.523 1010.8L751.092 1010.11L750.404 1007.54L747.834 1008.23L748.523 1010.8ZM739.118 1027.09L741.687 1026.4L740.999 1023.83L738.43 1024.52L739.118 1027.09ZM767.332 978.22L769.901 977.532L769.213 974.962L766.643 975.651L767.332 978.22ZM757.927 994.51L760.497 993.821L759.808 991.252L757.239 991.94L757.927 994.51ZM720.309 1059.67L722.878 1058.98L722.19 1056.41L719.62 1057.1L720.309 1059.67ZM701.499 1092.25L704.069 1091.56L703.38 1088.99L700.811 1089.68L701.499 1092.25ZM692.095 1108.53L694.664 1107.85L693.976 1105.28L691.406 1105.97L692.095 1108.53ZM682.69 1124.82L685.26 1124.14L684.571 1121.57L682.002 1122.25L682.69 1124.82ZM673.286 1141.11L675.855 1140.42L675.166 1137.86L672.597 1138.54L673.286 1141.11ZM636.342 1054.63L638.912 1053.94L638.223 1051.37L635.654 1052.06L636.342 1054.63ZM613.168 1019.53L615.738 1018.84L615.049 1016.27L612.48 1016.96L613.168 1019.53ZM629.458 1028.93L632.027 1028.24L631.338 1025.68L628.769 1026.36L629.458 1028.93ZM643.227 1080.32L645.796 1079.63L645.108 1077.06L642.538 1077.75L643.227 1080.32ZM577.924 420.367L566.362 423.465L563.264 411.903L560.695 412.591L564.481 426.723L578.613 422.936L577.924 420.367ZM327.208 820.764L338.77 817.666L341.868 829.228L344.437 828.54L340.651 814.408L326.519 818.195L327.208 820.764ZM1454.97 353.348L1302.1 394.312L1361.25 615.074C1362.07 618.158 1362.07 622.978 1361.24 626.037L1242.25 1070.15C1241.42 1073.23 1239.02 1077.4 1236.76 1079.66L911.641 1404.76C909.382 1407.02 905.209 1409.43 902.152 1410.25L681.389 1469.41L722.353 1622.29L719.784 1622.97L650.937 1366.03L638.544 1319.79L638.531 1319.73L637.512 1315.93L458.04 1364.02C454.956 1364.85 450.136 1364.84 447.077 1364.01L180.681 1292.63L173.777 1299.55C171.518 1301.81 167.345 1304.22 164.287 1305.04L119.477 1317.04C116.394 1317.87 111.574 1317.87 108.514 1317.04L63.7128 1305.03C62.5267 1304.71 61.1621 1304.14 59.8213 1303.45L21.093 1370.53L18.78 1369.2L57.5082 1302.12C56.2427 1301.3 55.0662 1300.4 54.1998 1299.53L21.3989 1266.74C19.1412 1264.48 16.7288 1260.31 15.9096 1257.25L3.90269 1212.44C3.07653 1209.36 3.07928 1204.54 3.91179 1201.48L6.45015 1192.04L-188.565 997.024C-190.822 994.764 -193.235 990.592 -194.054 987.534L-242.144 808.062L-549.16 890.327L-549.849 887.757L-396.97 846.794L-456.123 626.031C-456.949 622.948 -456.946 618.128 -456.114 615.068L-337.123 170.958C-336.298 167.873 -333.89 163.703 -331.631 161.445L-6.51581 -163.658C-4.25672 -165.916 -0.0839096 -168.328 2.97367 -169.148L223.736 -228.301L182.779 -381.154L185.349 -381.843L267.62 -74.7999L447.067 -122.882C450.15 -123.709 454.97 -123.706 458.03 -122.873L724.426 -51.4933L731.355 -58.4172C733.614 -60.6749 737.787 -63.0873 740.845 -63.9066L785.655 -75.9134C788.738 -76.7396 793.559 -76.7368 796.618 -75.9043L841.419 -63.895C842.605 -63.5795 843.97 -63.0088 845.311 -62.3216L884.039 -129.401L886.352 -128.065L847.624 -60.9861C848.889 -60.1686 850.066 -59.2721 850.932 -58.4027L883.733 -25.6083C885.991 -23.3492 888.403 -19.1764 889.223 -16.1188L901.23 28.6914C902.056 31.7747 902.053 36.5948 901.22 39.6543L898.689 49.1175L1093.7 244.133C1095.96 246.392 1098.37 250.54 1099.19 253.623L1147.28 433.095L1454.33 350.823L1455.01 353.393L1454.97 353.348ZM-0.661259 876.699C0.0340928 879.294 2.24047 883.109 4.12413 885L188.12 1069.01C190.036 1070.92 193.816 1073.1 196.428 1073.8L447.78 1141.15C450.392 1141.85 454.766 1141.83 457.362 1141.14L581.746 1107.81L548.011 981.91L458.056 1006.01C454.973 1006.84 450.153 1006.84 447.094 1006L264.603 957.112C263.417 956.797 262.052 956.226 260.711 955.539L247.488 978.442L279.09 996.687L277.754 999L246.153 980.755L228.002 1012.19L225.689 1010.86L243.84 979.419L212.401 961.268L213.737 958.955L245.175 977.106L258.398 954.203C257.133 953.386 255.956 952.489 255.09 951.62L121.503 818.024C119.245 815.765 116.833 811.592 116.014 808.534L91.9104 718.58L-33.99 752.315L-0.661259 876.699ZM81.7415 362.641L63.44 394.34L118.921 426.372C119.739 425.106 120.635 423.93 121.505 423.064L255.101 289.477C257.36 287.219 261.533 284.807 264.59 283.987L354.545 259.884L266.125 -70.1032C265.874 -69.2924 265.551 -68.5449 265.175 -67.8934L14.579 366.152L61.1339 393.03L79.4353 361.331L81.7484 362.666L81.7415 362.641ZM-69.3758 320.764L-68.0403 318.451L12.2659 364.816L262.862 -69.2288C263.144 -69.7175 263.392 -70.3346 263.607 -70.9706L86.2672 -23.4526C83.6722 -22.7572 79.8572 -20.5509 77.9661 -18.6672L-186.655 245.973C-188.565 247.889 -190.747 251.668 -191.452 254.28L-288.326 615.769C-289.03 618.381 -289.015 622.755 -288.319 625.351L-240.719 802.999L10.9305 367.129L-69.3758 320.764ZM905.768 364.439C905.072 361.844 902.866 358.029 900.982 356.138L716.986 172.131C715.07 170.221 711.291 168.04 708.679 167.335L457.327 99.9929C454.715 99.2884 450.34 99.3039 447.745 99.9993L323.361 133.328L357.095 259.228L447.05 235.125C450.133 234.299 454.953 234.302 458.013 235.134L640.504 284.026C641.69 284.341 643.054 284.912 644.395 285.599L657.618 262.696L626.017 244.451L627.352 242.138L658.954 260.383L677.105 228.945L679.418 230.28L661.267 261.719L692.705 279.87L691.37 282.183L659.931 264.032L646.708 286.935C647.974 287.752 649.15 288.649 650.017 289.518L783.603 423.114C785.861 425.373 788.274 429.546 789.093 432.604L813.196 522.558L939.096 488.823L905.768 364.439ZM823.471 878.276L841.66 846.773L786.178 814.74C785.361 816.006 784.464 817.182 783.595 818.049L649.999 951.636C647.74 953.893 643.592 956.299 640.509 957.125L550.555 981.228L638.981 1311.24C639.232 1310.43 639.555 1309.68 639.931 1309.03L890.528 874.986L843.973 848.108L825.784 879.612L823.471 878.276ZM551.691 978.17L639.846 954.549C642.442 953.853 646.257 951.647 648.148 949.763L781.744 816.176C782.461 815.461 783.193 814.494 783.898 813.424L681.079 754.062L551.691 978.17ZM785.233 811.111C785.807 809.965 786.279 808.848 786.54 807.869L835.432 625.378C836.136 622.766 836.121 618.391 835.425 615.796L811.804 527.64L682.415 751.749L785.233 811.111ZM757.359 519.62L761.834 536.321L810.652 523.24L786.549 433.285C785.854 430.69 783.647 426.875 781.764 424.984L648.177 291.388C647.462 290.671 646.494 289.939 645.424 289.234L585.404 393.192L583.091 391.857L643.111 287.899C641.966 287.324 640.848 286.853 639.869 286.592L457.378 237.7C454.766 236.996 450.392 237.011 447.797 237.706L357.071 262.016L95.6225 714.859L142.617 702.267L138.142 685.566L140.711 684.877L145.186 701.578L194.005 688.498L180.579 638.394L183.149 637.706L196.574 687.809L271.086 667.844L259.892 626.065C259.066 622.982 259.069 618.162 259.901 615.102L282.985 529C283.81 525.915 286.218 521.744 288.477 519.487L351.502 456.444C353.761 454.187 357.934 451.774 360.992 450.955L404.055 439.416L404.743 441.986L361.68 453.524C359.085 454.22 355.27 456.426 353.379 458.31L290.354 521.352C288.444 523.268 286.262 527.048 285.558 529.66L262.474 615.762C261.769 618.375 261.785 622.749 262.48 625.344L273.675 667.122L322.493 654.042L314.989 626.035C314.163 622.952 314.165 618.132 314.998 615.072L330.699 556.504C331.524 553.419 333.932 549.249 336.191 546.991L379.062 504.11C381.321 501.852 385.494 499.439 388.552 498.62L447.108 482.93C450.192 482.104 455.012 482.107 458.071 482.939L516.64 498.64C517.826 498.955 519.19 499.526 520.531 500.213L545.491 456.982L547.804 458.317L522.844 501.549C524.11 502.366 525.286 503.263 526.153 504.132L569.034 547.004C571.292 549.263 573.704 553.436 574.523 556.493L582.028 584.5L707.928 550.765L694.503 500.661L697.072 499.973L710.497 550.076L759.316 536.995L754.841 520.294L757.41 519.606L757.359 519.62ZM475.378 710.839L473.312 703.13C472.459 699.944 473.096 695.23 474.725 692.37L525.83 603.854C527.485 600.987 531.256 598.104 534.442 597.25L579.407 585.202L571.903 557.195C571.207 554.6 569.001 550.785 567.117 548.894L524.236 506.023C523.52 505.306 522.553 504.573 521.483 503.869L510.16 523.481L507.847 522.146L519.17 502.533C518.025 501.959 516.907 501.487 515.928 501.226L457.36 485.526C454.748 484.821 450.373 484.837 447.778 485.532L389.222 501.222C386.626 501.918 382.811 504.124 380.92 506.008L338.049 548.889C336.139 550.805 333.957 554.584 333.253 557.197L317.552 615.765C316.847 618.377 316.863 622.752 317.558 625.347L325.063 653.353L370.027 641.305C372.519 640.637 375.717 638.183 377.015 635.935L428.12 547.419C429.418 545.171 429.944 541.175 429.276 538.682L427.211 530.974L429.78 530.286L431.846 537.994C432.699 541.18 432.062 545.894 430.433 548.754L379.328 637.271C377.673 640.137 373.901 643.021 370.715 643.874L325.751 655.922L333.255 683.929C333.951 686.524 336.157 690.339 338.041 692.23L380.922 735.101C381.637 735.819 382.605 736.551 383.675 737.255L395.017 717.611L397.33 718.946L385.988 738.591C387.133 739.165 388.251 739.637 389.23 739.898L447.798 755.599C450.41 756.303 454.785 756.288 457.38 755.592L515.936 739.902C518.531 739.207 522.346 737 524.238 735.117L567.109 692.235C569.019 690.319 571.201 686.54 571.905 683.928L587.606 625.359C588.311 622.747 588.295 618.373 587.6 615.778L580.095 587.771L535.131 599.819C532.639 600.487 529.441 602.941 528.143 605.189L477.038 693.705C475.74 695.953 475.214 699.95 475.882 702.442L477.947 710.15L475.378 710.839ZM353.416 262.968L265.26 286.589C262.665 287.285 258.85 289.491 256.959 291.375L123.363 424.962C122.646 425.677 121.914 426.644 121.209 427.714L224.027 487.076L353.416 262.968ZM119.873 430.027C119.299 431.173 118.827 432.29 118.566 433.269L69.6748 615.76C68.9703 618.372 68.9858 622.747 69.6812 625.342L93.3025 713.498L222.692 489.389L119.873 430.027ZM94.4541 717.898L118.557 807.853C119.253 810.448 121.459 814.263 123.343 816.154L256.93 949.75C257.645 950.467 258.612 951.199 259.682 951.904L319.703 847.946L322.016 849.281L261.995 953.239C263.141 953.814 264.258 954.285 265.237 954.546L447.728 1003.44C450.34 1004.14 454.715 1004.13 457.31 1003.43L548.035 979.122L809.484 526.279L762.49 538.871L766.965 555.572L764.395 556.261L759.92 539.56L711.102 552.64L724.527 602.744L721.958 603.432L708.532 553.329L634.02 573.294L645.214 615.073C646.041 618.156 646.038 622.976 645.205 626.036L622.122 712.138C621.296 715.224 618.888 719.394 616.629 721.651L553.604 784.694C551.345 786.951 547.198 789.357 544.115 790.183L501.052 801.722L500.363 799.152L543.426 787.614C546.021 786.918 549.836 784.712 551.727 782.828L614.753 719.786C616.662 717.87 618.844 714.09 619.549 711.478L642.633 625.376C643.337 622.763 643.322 618.389 642.626 615.794L631.432 574.016L582.613 587.096L590.118 615.103C590.944 618.186 590.941 623.006 590.108 626.066L574.408 684.634C573.582 687.719 571.175 691.889 568.915 694.147L526.044 737.028C523.785 739.286 519.612 741.699 516.555 742.518L457.998 758.208C454.915 759.034 450.095 759.031 447.035 758.199L388.467 742.498C387.281 742.183 385.916 741.612 384.575 740.925L359.615 784.156L357.302 782.821L382.262 739.589C380.997 738.772 379.82 737.875 378.954 737.006L336.072 694.134C333.815 691.875 331.409 687.728 330.583 684.645L323.079 656.639L197.178 690.373L210.604 740.477L208.034 741.165L194.609 691.062L145.791 704.143L150.266 720.844L147.696 721.532L143.221 704.831L94.4027 717.912L94.4541 717.898ZM641.5 1312.11L818.839 1264.59C821.434 1263.9 825.249 1261.69 827.14 1259.81L1091.76 995.165C1093.67 993.249 1095.85 989.47 1096.56 986.858L1193.43 625.369C1194.14 622.757 1194.12 618.383 1193.43 615.787L1145.83 438.139L894.176 874.009L974.482 920.374L973.147 922.687L892.841 876.322L642.245 1310.37C641.962 1310.86 641.715 1311.47 641.5 1312.11ZM846.256 -58.6919L825.716 -23.116C826.982 -22.2985 828.158 -21.402 829.025 -20.5326L896.478 46.9286L898.608 38.9498C899.313 36.3376 899.297 31.9631 898.602 29.368L886.595 -15.4422C885.9 -18.0373 883.693 -21.8523 881.81 -23.7434L849.009 -56.5379C848.293 -57.255 847.326 -57.9872 846.256 -58.6919ZM695.62 83.7569C696.315 86.352 698.521 90.167 700.405 92.0581L733.206 124.853C735.122 126.763 738.901 128.944 741.514 129.649L786.315 141.658C788.927 142.363 793.302 142.347 795.897 141.652L840.707 129.645C843.302 128.95 847.117 126.743 849.008 124.86L881.802 92.0586C883.712 90.1424 885.894 86.3632 886.599 83.7511L895.676 49.8973L827.133 -18.649C826.418 -19.366 825.451 -20.0982 824.381 -20.8029L811.346 1.77409L825.315 53.9071L773.182 67.8761L754.655 99.966L752.342 98.6305L770.869 66.5406L764.473 42.671L689.96 62.6365L695.62 83.7569ZM822.068 -22.1384C820.922 -22.7127 819.804 -23.1843 818.826 -23.4453L725.192 -48.5316L700.412 -23.7439C698.502 -21.8277 696.32 -18.0486 695.616 -15.4364L683.606 29.3649C682.902 31.9771 682.917 36.3516 683.613 38.9467L689.272 60.0671L763.784 40.1016L756.9 14.4076L809.033 0.438584L822.068 -22.1384ZM797.465 20.4744L807.152 3.69645L760.158 16.2885L772.75 63.2827L782.436 46.5048L784.749 47.8403L775.063 64.6182L822.057 52.0262L809.465 5.03195L799.778 21.8099L797.465 20.4744ZM727.369 -50.6846L819.518 -25.9992C820.704 -25.6836 822.069 -25.113 823.41 -24.4258L843.95 -60.0016C842.804 -60.576 841.687 -61.0475 840.708 -61.3085L795.907 -73.3178C793.294 -74.0223 788.92 -74.0069 786.325 -73.3115L741.515 -61.3046C738.92 -60.6093 735.104 -58.4029 733.213 -56.5192L727.369 -50.6846ZM268.29 -72.1979L322.679 130.784L447.063 97.4555C450.147 96.6294 454.967 96.6322 458.026 97.4647L709.378 164.807C712.463 165.633 716.634 168.04 718.891 170.299L902.887 354.305C905.145 356.564 907.557 360.737 908.377 363.795L941.705 488.179L1003.37 471.656L999.928 458.809L1028.19 451.236L1035.76 479.499L1007.5 487.072L1004.06 474.225L813.924 525.172L838.027 615.127C838.853 618.21 838.851 623.03 838.018 626.089L789.127 808.58C788.811 809.766 788.24 811.131 787.553 812.472L843.034 844.504L860.997 813.391L863.31 814.727L845.347 845.839L891.902 872.718L1144.89 434.535L1096.6 254.318C1095.9 251.723 1093.7 247.908 1091.81 246.017L897.887 52.0861L889.211 84.4556C888.385 87.5409 885.978 91.7109 883.719 93.9686L850.924 126.77C848.665 129.027 844.492 131.44 841.435 132.259L796.625 144.266C793.541 145.092 788.721 145.089 785.662 144.257L740.86 132.247C737.775 131.422 733.605 129.014 731.348 126.755L698.546 93.9606C696.289 91.7015 693.876 87.5287 693.057 84.4711L687.398 63.3506L611.601 83.6604L610.912 81.091L686.709 60.7813L681.05 39.6608C680.224 36.5776 680.227 31.7575 681.059 28.698L693.069 -16.1033C693.894 -19.1886 696.302 -23.3586 698.561 -25.6163L722.256 -49.3146L457.344 -120.294C454.732 -120.998 450.357 -120.983 447.762 -120.287L268.316 -72.2048L268.29 -72.1979ZM1032.47 477.6L1026.28 454.475L1003.15 460.671L1009.35 483.796L1032.47 477.6ZM-242.818 805.544L-290.908 626.072C-291.734 622.988 -291.731 618.168 -290.898 615.109L-194.024 253.62C-193.199 250.535 -190.791 246.365 -188.532 244.107L76.0893 -20.5326C78.3484 -22.7903 82.4955 -25.1958 85.5788 -26.022L264.203 -73.8842C264.359 -75.358 264.328 -76.8093 264.018 -77.9655L251.626 -124.215L224.431 -225.706L3.66902 -166.553C1.07393 -165.857 -2.74101 -163.651 -4.63215 -161.767L-329.747 163.337C-331.657 165.253 -333.839 169.032 -334.544 171.644L-453.534 615.754C-454.239 618.366 -454.223 622.741 -453.528 625.336L-394.375 846.098L-242.781 805.479L-242.818 805.544ZM58.8318 1299.86L79.3715 1264.29C78.106 1263.47 76.9294 1262.57 76.0631 1261.7L8.61008 1194.24L6.4726 1202.2C5.76806 1204.81 5.78362 1209.18 6.47897 1211.78L18.4858 1256.59C19.1812 1259.18 21.3875 1263 23.2712 1264.89L56.0722 1297.68C56.7876 1298.4 57.7548 1299.13 58.8249 1299.84L58.8318 1299.86ZM209.468 1157.41C208.773 1154.82 206.566 1151 204.683 1149.11L171.882 1116.32C169.965 1114.41 166.186 1112.23 163.574 1111.52L118.773 1099.51C116.161 1098.81 111.786 1098.82 109.191 1099.52L64.3808 1111.53C61.7857 1112.22 57.9707 1114.43 56.0795 1116.31L23.2851 1149.11C21.3752 1151.03 19.1933 1154.81 18.4888 1157.42L9.41876 1191.3L77.9612 1259.85C78.6765 1260.56 79.6438 1261.29 80.7138 1262L93.7487 1239.42L79.7797 1187.29L131.913 1173.32L150.44 1141.23L152.753 1142.57L134.226 1174.66L140.622 1198.53L215.134 1178.56L209.475 1157.44L209.468 1157.41ZM83.0201 1263.31C84.1654 1263.88 85.2831 1264.35 86.2618 1264.62L179.896 1289.7L204.701 1264.91C206.611 1262.99 208.793 1259.21 209.498 1256.6L221.507 1211.8C222.211 1209.19 222.196 1204.81 221.501 1202.22L215.841 1181.1L141.329 1201.06L148.214 1226.76L96.0806 1240.73L83.0457 1263.3L83.0201 1263.31ZM107.623 1220.7L97.9358 1237.47L144.93 1224.88L132.338 1177.89L122.651 1194.67L120.338 1193.33L130.025 1176.55L83.0307 1189.14L95.6227 1236.14L105.31 1219.36L107.623 1220.7ZM177.719 1291.86L85.5692 1267.17C84.3831 1266.85 83.0185 1266.28 81.6777 1265.6L61.138 1301.17C62.2833 1301.75 63.401 1302.22 64.3797 1302.48L109.181 1314.49C111.793 1315.19 116.168 1315.18 118.763 1314.48L163.573 1302.48C166.168 1301.78 169.983 1299.57 171.874 1297.69L177.693 1291.86L177.719 1291.86ZM636.823 1313.36L582.434 1110.38L458.05 1143.71C454.967 1144.53 450.147 1144.53 447.087 1143.7L195.735 1076.36C192.65 1075.53 188.48 1073.12 186.222 1070.86L2.22611 886.858C-0.0315287 884.599 -2.44395 880.426 -3.26322 877.369L-36.5919 752.984L-98.2574 769.508L-94.8151 782.355L-123.078 789.928L-130.652 761.664L-102.388 754.091L-98.9459 766.938L91.1893 715.992L67.0861 626.037C66.26 622.954 66.2627 618.134 67.0952 615.074L115.987 432.583C116.302 431.397 116.873 430.033 117.56 428.692L62.0789 396.66L44.2477 427.544L41.9346 426.209L59.7658 395.324L13.211 368.446L-239.774 806.628L-191.485 986.846C-190.789 989.441 -188.583 993.256 -186.699 995.147L7.22625 1189.08L15.8954 1156.68C16.721 1153.6 19.1286 1149.43 21.3877 1147.17L54.1821 1114.37C56.4412 1112.11 60.6141 1109.7 63.6716 1108.88L108.482 1096.87C111.565 1096.05 116.385 1096.05 119.445 1096.88L164.246 1108.89C167.331 1109.72 171.501 1112.12 173.759 1114.38L206.56 1147.18C208.818 1149.44 211.23 1153.61 212.049 1156.67L217.709 1177.79L293.506 1157.48L294.194 1160.05L218.397 1180.36L224.056 1201.48C224.882 1204.56 224.88 1209.38 224.047 1212.44L212.038 1257.24C211.212 1260.33 208.805 1264.5 206.545 1266.75L182.825 1290.46L447.737 1361.44C450.349 1362.14 454.723 1362.13 457.319 1361.43L636.791 1313.34L636.823 1313.36ZM-127.361 763.564L-121.165 786.689L-98.0403 780.493L-104.237 757.368L-127.361 763.564ZM1299.53 395L1147.93 435.62L1196.02 615.092C1196.85 618.175 1196.84 622.995 1196.01 626.055L1099.14 987.544C1098.31 990.629 1095.9 994.799 1093.65 997.057L829.024 1261.7C826.765 1263.95 822.592 1266.37 819.535 1267.19L640.91 1315.05C640.747 1316.5 640.804 1317.94 641.107 1319.07L680.708 1466.86L901.47 1407.71C904.065 1407.01 907.88 1404.81 909.771 1402.92L1234.89 1077.82C1236.8 1075.9 1238.98 1072.12 1239.68 1069.51L1358.67 625.403C1359.38 622.791 1359.36 618.416 1358.67 615.821L1299.51 395.059L1299.53 395Z" fill="url(#paint1_linear_2266_38832)"/>
</g>
<g filter="url(#filter0_di_2266_38832)">
<path fill-rule="evenodd" clip-rule="evenodd" d="M8257.03 -7696.68L2972.71 1456.03L-6180 -3828.29L-5519.46 -4972.38L2489.16 -348.602L7112.94 -8357.22L8257.03 -7696.68Z" fill="url(#paint2_radial_2266_38832)"/>
</g>
</g>
</g>
<defs>
<filter id="filter0_di_2266_38832" x="-6420" y="-8597.22" width="14917" height="10293.2" filterUnits="userSpaceOnUse" color-interpolation-filters="sRGB">
<feFlood flood-opacity="0" result="BackgroundImageFix"/>
<feColorMatrix in="SourceAlpha" type="matrix" values="0 0 0 0 0 0 0 0 0 0 0 0 0 0 0 0 0 0 127 0" result="hardAlpha"/>
<feOffset/>
<feGaussianBlur stdDeviation="120"/>
<feComposite in2="hardAlpha" operator="out"/>
<feColorMatrix type="matrix" values="0 0 0 0 0.298212 0 0 0 0 0.298212 0 0 0 0 0.370833 0 0 0 1 0"/>
<feBlend mode="normal" in2="BackgroundImageFix" result="effect1_dropShadow_2266_38832"/>
<feBlend mode="normal" in="SourceGraphic" in2="effect1_dropShadow_2266_38832" result="shape"/>
<feColorMatrix in="SourceAlpha" type="matrix" values="0 0 0 0 0 0 0 0 0 0 0 0 0 0 0 0 0 0 127 0" result="hardAlpha"/>
<feOffset dy="4"/>
<feGaussianBlur stdDeviation="125"/>
<feComposite in2="hardAlpha" operator="arithmetic" k2="-1" k3="1"/>
<feColorMatrix type="matrix" values="0 0 0 0 0.412782 0 0 0 0 0.409288 0 0 0 0 0.479167 0 0 0 1 0"/>
<feBlend mode="normal" in2="shape" result="effect2_innerShadow_2266_38832"/>
</filter>
<linearGradient id="paint0_linear_2266_38832" x1="232.41" y1="826.5" x2="1799.69" y2="482.565" gradientUnits="userSpaceOnUse">
<stop stop-color="#27262B"/>
<stop offset="1" stop-color="#373341"/>
</linearGradient>
<linearGradient id="paint1_linear_2266_38832" x1="184.077" y1="-381.502" x2="646.307" y2="1346.8" gradientUnits="userSpaceOnUse">
<stop offset="0.0729167"/>
<stop offset="1" stop-color="#727291"/>
</linearGradient>
<radialGradient id="paint2_radial_2266_38832" cx="0" cy="0" r="1" gradientUnits="userSpaceOnUse" gradientTransform="translate(-2627.19 -6178.38) rotate(4.04785) scale(944.444 4113.89)">
<stop stop-color="#57576D"/>
<stop offset="1" stop-color="#3B3943"/>
</radialGradient>
<clipPath id="clip0_2266_38832">
<path d="M0 24C0 10.7452 10.7452 0 24 0H1392C1405.25 0 1416 10.7452 1416 24V456C1416 469.255 1405.25 480 1392 480H24C10.7452 480 0 469.255 0 456V24Z" fill="white"/>
</clipPath>
<clipPath id="clip1_2266_38832">
<rect width="1920" height="1080" fill="white" transform="translate(-252 -215)"/>
</clipPath>
<clipPath id="clip2_2266_38832">
<rect width="2074.83" height="2074.83" fill="white" transform="translate(-818 -112.996) rotate(-15)"/>
</clipPath>
</defs>
</svg>
