<svg width="64" height="64" viewBox="0 0 64 64" fill="none" xmlns="http://www.w3.org/2000/svg">
<g filter="url(#filter0_b_2303_3206)">
<rect width="64" height="64" rx="8" fill="white" fill-opacity="0.06"/>
<g filter="url(#filter1_ddd_2303_3206)">
<path d="M15.3333 16.9999C15.3333 16.0794 16.0794 15.3333 16.9999 15.3333H46.9999C47.9204 15.3333 48.6666 16.0794 48.6666 16.9999V36.9999C48.6666 37.9204 47.9204 38.6666 46.9999 38.6666H16.9999C16.0794 38.6666 15.3333 37.9204 15.3333 36.9999V16.9999Z" fill="url(#paint0_linear_2303_3206)"/>
<path fill-rule="evenodd" clip-rule="evenodd" d="M35.3333 48.6667C33.7801 48.6667 32.475 47.6044 32.1049 46.1667L30.3333 46.1667V47.8333H28.6666V46.1667H26.9999V47.8333H25.3333L25.3333 44.5L32.1049 44.5C32.475 43.0623 33.7801 42 35.3333 42C37.1742 42 38.6666 43.4924 38.6666 45.3333C38.6666 47.1743 37.1742 48.6667 35.3333 48.6667ZM33.6666 45.3333C33.6666 46.2538 34.4128 47 35.3333 47C36.2537 47 36.9999 46.2538 36.9999 45.3333C36.9999 44.4129 36.2537 43.6667 35.3333 43.6667C34.4128 43.6667 33.6666 44.4129 33.6666 45.3333Z" fill="#EDEEF0"/>
<path d="M32.8333 23.6666C32.8333 21.8256 31.3409 20.3333 29.5 20.3333C27.6591 20.3333 26.1667 21.8256 26.1667 23.6666C26.1667 25.5075 27.6591 26.9999 29.5 26.9999C31.3409 26.9999 32.8333 25.5075 32.8333 23.6666Z" fill="#18181A"/>
<path d="M37.8333 23.6666C37.8333 21.8256 36.3409 20.3333 34.5 20.3333V26.9999C36.3409 26.9999 37.8333 25.5075 37.8333 23.6666Z" fill="#18181A"/>
<path d="M24.5 30.3333C24.5 29.4128 25.2462 28.6666 26.1667 28.6666H32.8333C33.7538 28.6666 34.5 29.4128 34.5 30.3333V33.6666H24.5V30.3333Z" fill="#18181A"/>
<path d="M37.8333 28.6666H36.1667V33.6666H39.5V30.3333C39.5 29.4128 38.7538 28.6666 37.8333 28.6666Z" fill="#18181A"/>
</g>
</g>
<defs>
<filter id="filter0_b_2303_3206" x="-20" y="-20" width="104" height="104" filterUnits="userSpaceOnUse" color-interpolation-filters="sRGB">
<feFlood flood-opacity="0" result="BackgroundImageFix"/>
<feGaussianBlur in="BackgroundImageFix" stdDeviation="10"/>
<feComposite in2="SourceAlpha" operator="in" result="effect1_backgroundBlur_2303_3206"/>
<feBlend mode="normal" in="SourceGraphic" in2="effect1_backgroundBlur_2303_3206" result="shape"/>
</filter>
<filter id="filter1_ddd_2303_3206" x="5.33333" y="7.83333" width="53.3333" height="53.3333" filterUnits="userSpaceOnUse" color-interpolation-filters="sRGB">
<feFlood flood-opacity="0" result="BackgroundImageFix"/>
<feColorMatrix in="SourceAlpha" type="matrix" values="0 0 0 0 0 0 0 0 0 0 0 0 0 0 0 0 0 0 127 0" result="hardAlpha"/>
<feOffset dy="0.833333"/>
<feGaussianBlur stdDeviation="1.25"/>
<feColorMatrix type="matrix" values="0 0 0 0 0 0 0 0 0 0 0 0 0 0 0 0 0 0 0.1 0"/>
<feBlend mode="normal" in2="BackgroundImageFix" result="effect1_dropShadow_2303_3206"/>
<feColorMatrix in="SourceAlpha" type="matrix" values="0 0 0 0 0 0 0 0 0 0 0 0 0 0 0 0 0 0 127 0" result="hardAlpha"/>
<feOffset dy="2.5"/>
<feGaussianBlur stdDeviation="3.33333"/>
<feComposite in2="hardAlpha" operator="out"/>
<feColorMatrix type="matrix" values="0 0 0 0 0 0 0 0 0 0 0 0 0 0 0 0 0 0 0.1 0"/>
<feBlend mode="normal" in2="effect1_dropShadow_2303_3206" result="effect2_dropShadow_2303_3206"/>
<feColorMatrix in="SourceAlpha" type="matrix" values="0 0 0 0 0 0 0 0 0 0 0 0 0 0 0 0 0 0 127 0" result="hardAlpha"/>
<feOffset/>
<feGaussianBlur stdDeviation="0.208333"/>
<feComposite in2="hardAlpha" operator="out"/>
<feColorMatrix type="matrix" values="0 0 0 0 0 0 0 0 0 0 0 0 0 0 0 0 0 0 0.18 0"/>
<feBlend mode="normal" in2="effect2_dropShadow_2303_3206" result="effect3_dropShadow_2303_3206"/>
<feBlend mode="normal" in="SourceGraphic" in2="effect3_dropShadow_2303_3206" result="shape"/>
</filter>
<linearGradient id="paint0_linear_2303_3206" x1="25.3333" y1="18.6666" x2="39.4999" y2="38.6666" gradientUnits="userSpaceOnUse">
<stop stop-color="#43F3C2"/>
<stop offset="1" stop-color="#31DEAE"/>
</linearGradient>
</defs>
</svg>
