<svg width="64" height="64" viewBox="0 0 64 64" fill="none" xmlns="http://www.w3.org/2000/svg">
<g filter="url(#filter0_b_2303_3172)">
<rect width="64" height="64" rx="8" fill="white" fill-opacity="0.06"/>
<g filter="url(#filter1_ddd_2303_3172)">
<path d="M15.3333 17C15.3333 16.0795 16.0794 15.3333 16.9999 15.3333H26.3096C26.7516 15.3333 27.1755 15.5089 27.4881 15.8215L31.5118 19.8452C31.8243 20.1577 32.2482 20.3333 32.6903 20.3333H46.9999C47.9204 20.3333 48.6666 21.0795 48.6666 22V47C48.6666 47.9205 47.9204 48.6667 46.9999 48.6667H16.9999C16.0794 48.6667 15.3333 47.9205 15.3333 47V17Z" fill="url(#paint0_linear_2303_3172)"/>
<path d="M27.0507 33.7847C27.3972 31.3624 29.4818 29.5 32 29.5C33.1686 29.5 34.2428 29.9002 35.0944 30.5723L33.6666 32L38.6666 32.8334L37.8333 27.8334L36.279 29.3877C35.1216 28.4181 33.6285 27.8334 32 27.8334C28.6407 27.8334 25.863 30.3172 25.4008 33.5487L27.0507 33.7847Z" fill="#211F26"/>
<path d="M36.9492 35.2154C36.6027 37.6377 34.518 39.5 31.9998 39.5C30.8312 39.5 29.757 39.0999 28.9055 38.4278L30.3333 37L25.3333 36.1667L26.1666 41.1667L27.7209 39.6124C28.8783 40.582 30.3714 41.1667 31.9998 41.1667C35.3591 41.1667 38.1368 38.6829 38.599 35.4514L36.9492 35.2154Z" fill="#211F26"/>
</g>
</g>
<defs>
<filter id="filter0_b_2303_3172" x="-20" y="-20" width="104" height="104" filterUnits="userSpaceOnUse" color-interpolation-filters="sRGB">
<feFlood flood-opacity="0" result="BackgroundImageFix"/>
<feGaussianBlur in="BackgroundImageFix" stdDeviation="10"/>
<feComposite in2="SourceAlpha" operator="in" result="effect1_backgroundBlur_2303_3172"/>
<feBlend mode="normal" in="SourceGraphic" in2="effect1_backgroundBlur_2303_3172" result="shape"/>
</filter>
<filter id="filter1_ddd_2303_3172" x="5.33333" y="7.83333" width="53.3333" height="53.3333" filterUnits="userSpaceOnUse" color-interpolation-filters="sRGB">
<feFlood flood-opacity="0" result="BackgroundImageFix"/>
<feColorMatrix in="SourceAlpha" type="matrix" values="0 0 0 0 0 0 0 0 0 0 0 0 0 0 0 0 0 0 127 0" result="hardAlpha"/>
<feOffset dy="0.833333"/>
<feGaussianBlur stdDeviation="1.25"/>
<feColorMatrix type="matrix" values="0 0 0 0 0 0 0 0 0 0 0 0 0 0 0 0 0 0 0.1 0"/>
<feBlend mode="normal" in2="BackgroundImageFix" result="effect1_dropShadow_2303_3172"/>
<feColorMatrix in="SourceAlpha" type="matrix" values="0 0 0 0 0 0 0 0 0 0 0 0 0 0 0 0 0 0 127 0" result="hardAlpha"/>
<feOffset dy="2.5"/>
<feGaussianBlur stdDeviation="3.33333"/>
<feComposite in2="hardAlpha" operator="out"/>
<feColorMatrix type="matrix" values="0 0 0 0 0 0 0 0 0 0 0 0 0 0 0 0 0 0 0.1 0"/>
<feBlend mode="normal" in2="effect1_dropShadow_2303_3172" result="effect2_dropShadow_2303_3172"/>
<feColorMatrix in="SourceAlpha" type="matrix" values="0 0 0 0 0 0 0 0 0 0 0 0 0 0 0 0 0 0 127 0" result="hardAlpha"/>
<feOffset/>
<feGaussianBlur stdDeviation="0.208333"/>
<feComposite in2="hardAlpha" operator="out"/>
<feColorMatrix type="matrix" values="0 0 0 0 0 0 0 0 0 0 0 0 0 0 0 0 0 0 0.18 0"/>
<feBlend mode="normal" in2="effect2_dropShadow_2303_3172" result="effect3_dropShadow_2303_3172"/>
<feBlend mode="normal" in="SourceGraphic" in2="effect3_dropShadow_2303_3172" result="shape"/>
</filter>
<linearGradient id="paint0_linear_2303_3172" x1="31.9999" y1="15.3333" x2="31.9999" y2="48.6667" gradientUnits="userSpaceOnUse">
<stop stop-color="#A1FFFC"/>
<stop offset="1" stop-color="#8BEEEA"/>
</linearGradient>
</defs>
</svg>
