<svg width="64" height="64" viewBox="0 0 64 64" fill="none" xmlns="http://www.w3.org/2000/svg">
<g filter="url(#filter0_b_2303_3176)">
<rect width="64" height="64" rx="8" fill="white" fill-opacity="0.06"/>
<g filter="url(#filter1_ddd_2303_3176)">
<path d="M31.3623 13.9309C31.7707 13.7617 32.2295 13.7617 32.6379 13.9309L44.3259 18.7722C44.7343 18.9413 45.0587 19.2658 45.2279 19.6742L50.0692 31.3622C50.2384 31.7706 50.2384 32.2294 50.0692 32.6378L45.2279 44.3258C45.0587 44.7342 44.7343 45.0587 44.3259 45.2278L32.6379 50.0691C32.2295 50.2383 31.7707 50.2383 31.3623 50.0691L19.6743 45.2278C19.2659 45.0587 18.9414 44.7342 18.7723 44.3258L13.9309 32.6378C13.7618 32.2294 13.7618 31.7706 13.9309 31.3622L18.7723 19.6742C18.9414 19.2658 19.2659 18.9413 19.6743 18.7722L31.3623 13.9309Z" fill="url(#paint0_linear_2303_3176)"/>
<path d="M26.1667 27.8333C26.1667 25.5321 28.0322 23.6667 30.3334 23.6667H33.6667C35.9679 23.6667 37.8334 25.5321 37.8334 27.8333V29.405L35.5038 39.5H31.1529L31.1529 41.1667H35.5038C36.2799 41.1667 36.9532 40.631 37.1277 39.8748L37.7912 36.9999H39.3994C40.1168 36.9999 40.7537 36.5409 40.9805 35.8603L42.2478 32.0584C42.3045 31.8885 42.3334 31.7105 42.3334 31.5314V31.1384C42.3334 30.553 42.0262 30.0105 41.5242 29.7093L39.5 28.4948V27.8333C39.5 24.6117 36.8884 22 33.6667 22H30.3334C27.1117 22 24.5 24.6117 24.5 27.8333V28.4948L22.4759 29.7093C21.9739 30.0105 21.6667 30.553 21.6667 31.1384V31.5314C21.6667 31.7105 21.6956 31.8885 21.7523 32.0584L23.0196 35.8603C23.2464 36.5409 23.8833 36.9999 24.6007 36.9999L27.9194 37L26.1667 29.405V27.8333Z" fill="#211F26"/>
</g>
</g>
<defs>
<filter id="filter0_b_2303_3176" x="-20" y="-20" width="104" height="104" filterUnits="userSpaceOnUse" color-interpolation-filters="sRGB">
<feFlood flood-opacity="0" result="BackgroundImageFix"/>
<feGaussianBlur in="BackgroundImageFix" stdDeviation="10"/>
<feComposite in2="SourceAlpha" operator="in" result="effect1_backgroundBlur_2303_3176"/>
<feBlend mode="normal" in="SourceGraphic" in2="effect1_backgroundBlur_2303_3176" result="shape"/>
</filter>
<filter id="filter1_ddd_2303_3176" x="5.33333" y="7.83333" width="53.3333" height="53.3333" filterUnits="userSpaceOnUse" color-interpolation-filters="sRGB">
<feFlood flood-opacity="0" result="BackgroundImageFix"/>
<feColorMatrix in="SourceAlpha" type="matrix" values="0 0 0 0 0 0 0 0 0 0 0 0 0 0 0 0 0 0 127 0" result="hardAlpha"/>
<feOffset dy="0.833333"/>
<feGaussianBlur stdDeviation="1.25"/>
<feColorMatrix type="matrix" values="0 0 0 0 0 0 0 0 0 0 0 0 0 0 0 0 0 0 0.1 0"/>
<feBlend mode="normal" in2="BackgroundImageFix" result="effect1_dropShadow_2303_3176"/>
<feColorMatrix in="SourceAlpha" type="matrix" values="0 0 0 0 0 0 0 0 0 0 0 0 0 0 0 0 0 0 127 0" result="hardAlpha"/>
<feOffset dy="2.5"/>
<feGaussianBlur stdDeviation="3.33333"/>
<feComposite in2="hardAlpha" operator="out"/>
<feColorMatrix type="matrix" values="0 0 0 0 0 0 0 0 0 0 0 0 0 0 0 0 0 0 0.1 0"/>
<feBlend mode="normal" in2="effect1_dropShadow_2303_3176" result="effect2_dropShadow_2303_3176"/>
<feColorMatrix in="SourceAlpha" type="matrix" values="0 0 0 0 0 0 0 0 0 0 0 0 0 0 0 0 0 0 127 0" result="hardAlpha"/>
<feOffset/>
<feGaussianBlur stdDeviation="0.208333"/>
<feComposite in2="hardAlpha" operator="out"/>
<feColorMatrix type="matrix" values="0 0 0 0 0 0 0 0 0 0 0 0 0 0 0 0 0 0 0.18 0"/>
<feBlend mode="normal" in2="effect2_dropShadow_2303_3176" result="effect3_dropShadow_2303_3176"/>
<feBlend mode="normal" in="SourceGraphic" in2="effect3_dropShadow_2303_3176" result="shape"/>
</filter>
<linearGradient id="paint0_linear_2303_3176" x1="24.6667" y1="18.9048" x2="48.2638" y2="42.2242" gradientUnits="userSpaceOnUse">
<stop stop-color="#43F3C2"/>
<stop offset="1" stop-color="#31DEAE"/>
</linearGradient>
</defs>
</svg>
