<svg width="109" height="18" viewBox="0 0 109 18" fill="none" xmlns="http://www.w3.org/2000/svg">
<path d="M9.69008 12.9057H12.0992V12.9958C11.8816 15.4268 10.0741 17.8772 6.50598 17.8772C2.93669 17.8772 0.399902 15.2351 0.399902 11.4443C0.399902 7.65351 2.8535 5.01831 6.50598 5.01831C10.1585 5.01831 11.8816 7.4687 12.0935 9.8997V9.98298H9.69122L9.67869 9.9191C9.49293 8.70645 8.55046 7.2896 6.53333 7.2896C4.37375 7.2896 2.86148 9.00191 2.86148 11.4455C2.86148 13.889 4.37375 15.6082 6.53333 15.6082C8.5516 15.6082 9.49293 14.1913 9.67869 12.9787L9.69008 12.9057Z" fill="#1A1523"/>
<path d="M19.4607 5.01624C15.9051 5.01624 13.4253 7.65828 13.4253 11.4422C13.4253 15.2262 15.9051 17.8751 19.4607 17.8751C23.0163 17.8751 25.503 15.2331 25.503 11.4422C25.503 7.65144 23.0175 5.01624 19.4607 5.01624ZM23.0425 11.4434C23.0425 13.8938 21.569 15.6061 19.4607 15.6061C17.3524 15.6061 15.8857 13.8938 15.8857 11.4434C15.8857 8.99299 17.3593 7.28753 19.4607 7.28753C21.5622 7.28753 23.0425 8.99984 23.0425 11.4434Z" fill="#1A1523"/>
<path d="M38.3951 10.2889V17.6834H35.9347V10.7692C35.9347 8.32564 35.0572 7.19056 33.1734 7.19056C31.4309 7.19056 29.5528 8.9736 29.5528 11.8529V17.6834H27.0867V5.20903H29.5528V6.09998C29.5528 6.5426 29.5722 6.97838 29.1881 7.62634L29.4696 7.89556C29.9824 6.73425 31.5392 5.01624 33.75 5.01624C36.7928 5.01624 38.3951 6.83806 38.3951 10.2889Z" fill="#1A1523"/>
<path d="M49.5572 0.206787V6.24835C49.5572 6.67158 49.6404 6.96705 49.9287 7.44731L49.621 7.70399C49.025 6.06811 47.3976 5.01631 45.45 5.01631C42.2591 5.01631 39.9399 7.72338 39.9399 11.4492C39.9399 15.175 42.2591 17.8763 45.45 17.8763C47.3076 17.8763 48.878 16.9272 49.5572 15.4202V17.6847H52.0245V0.207928H49.5572V0.206787ZM45.9366 15.6062C44.3024 15.6062 42.4061 14.5156 42.4061 11.4503C42.4061 8.38503 44.3024 7.2876 45.9366 7.2876C47.9993 7.2876 49.5572 9.07749 49.5572 11.4503C49.5572 13.8231 48.0005 15.6062 45.9366 15.6062Z" fill="#1A1523"/>
<path d="M65.5433 5.20886V17.6833H63.0829V15.1759C62.333 16.4775 60.8526 17.8761 58.88 17.8761C55.8429 17.8761 54.2349 16.0543 54.2349 12.6045V5.21H56.7021V12.1243C56.7021 14.5678 57.574 15.7029 59.4577 15.7029C61.2002 15.7029 63.084 13.9199 63.084 11.0405V5.21H65.5433V5.20886Z" fill="#1A1523"/>
<path d="M78.6849 17.6835H75.6922L75.6729 17.6584L71.348 12.1428L70.1366 13.3554V17.6847H67.6693V0.199951H70.1366V10.4168L75.1657 5.20911H78.3248L78.1903 5.34373L72.9047 10.6096L78.6849 17.6835Z" fill="#1A1523"/>
<path d="M83.6645 7.38321V13.759C83.6645 15.1633 83.9721 15.5101 85.2212 15.5101H87.1312V17.6845H85.0297C82.3129 17.6845 81.2051 16.6201 81.2051 13.9963V7.38321H78.8986V5.20889H81.2051V1.74548H83.6656V5.20889H87.2919V7.38321H83.6645Z" fill="#1A1523"/>
<path d="M94.1085 5.01624C90.5529 5.01624 88.0674 7.65828 88.0674 11.4491C88.0674 15.2399 90.5529 17.8762 94.1085 17.8762C97.6653 17.8762 100.144 15.2342 100.144 11.4491C100.144 7.66512 97.6653 5.01624 94.1085 5.01624ZM97.6835 11.4491C97.6835 13.8926 96.21 15.6049 94.1085 15.6049C92.007 15.6049 90.5267 13.8926 90.5267 11.4491C90.5267 9.00554 92.0014 7.28639 94.1085 7.28639C96.2168 7.28753 97.6835 8.99984 97.6835 11.4491Z" fill="#1A1523"/>
<path d="M108.75 5.01624V7.53736H108.667C106.93 7.40959 105.803 7.65942 105.111 8.30054C104.437 8.93595 104.137 9.98775 104.137 11.7126V17.6834H101.669V5.20903H104.137V6.10682C104.137 6.58138 104.137 6.89624 103.726 7.54991L104.066 7.81229C104.823 5.91403 105.553 5.01624 108.673 5.01624H108.75Z" fill="#1A1523"/>
</svg>
