<svg width="24" height="24" viewBox="0 0 24 24" fill="none" xmlns="http://www.w3.org/2000/svg">
<path d="M17.4413 14.8382C17.7803 14.8382 18.1193 14.9038 18.4255 15.0132C18.9176 14.4445 19.1801 13.832 19.1801 13.1977C19.1801 12.1478 18.4692 11.1417 17.1897 10.3543C15.8118 9.52313 13.9636 9.05287 12.017 9.05287C10.0485 9.05287 8.20033 9.52313 6.84427 10.3543C5.55382 11.1417 4.85391 12.1478 4.85391 13.1977C4.85391 13.832 5.11638 14.4554 5.6085 15.0132C5.91471 14.9038 6.24279 14.8382 6.59274 14.8382C7.36919 14.8382 8.09097 15.1335 8.63777 15.6912C9.02053 16.074 9.27206 16.5442 9.40329 17.0582C10.2235 17.2551 11.1093 17.3535 12.0389 17.3535C12.9684 17.3535 13.8324 17.2551 14.6744 17.0582C14.7947 16.5552 15.0572 16.074 15.44 15.6912C15.9321 15.1444 16.6648 14.8382 17.4413 14.8382ZM12.0061 12.4213C11.1202 12.4213 10.3985 11.6995 10.3985 10.8136H13.6246C13.6137 11.6995 12.8919 12.4213 12.0061 12.4213Z" fill="url(#paint0_linear_627_27073)"/>
<path d="M6.41778 9.60006C6.58182 9.50163 6.73492 9.41414 6.89896 9.32665H6.88802C6.48339 9.02043 6.00221 8.86732 5.52102 8.86732C4.83206 8.86732 4.15402 9.17354 3.71658 9.7641L3.53067 10.0266L4.81018 10.989C5.21482 10.464 5.75068 10.0047 6.41778 9.60006Z" fill="url(#paint1_linear_627_27073)"/>
<path d="M4.8315 15.4075C4.40499 14.8497 4.13159 14.2482 4.05504 13.6249C4.03317 13.4827 4.02223 13.3296 4.02223 13.1874C4.02223 12.4547 4.26282 11.7438 4.72214 11.1095H4.5581C3.30045 11.1095 2.29434 12.1266 2.29434 13.3733V13.6905H3.97849C3.54105 14.0623 3.25671 14.5654 3.18016 15.1341C3.09267 15.7356 3.25671 16.3261 3.6176 16.8073L3.74883 16.9932C3.86913 16.5011 4.13159 16.0637 4.50342 15.6918C4.61278 15.5825 4.72214 15.495 4.8315 15.4075V15.4075Z" fill="url(#paint2_linear_627_27073)"/>
<path d="M19.179 10.988L20.4585 10.0256L20.2726 9.76312C19.8352 9.17256 19.1571 8.86635 18.4682 8.86635C17.987 8.86635 17.5167 9.00852 17.1012 9.32567H17.0902C17.2543 9.41316 17.4183 9.50065 17.5714 9.59908C18.2495 10.0037 18.7853 10.463 19.179 10.988V10.988Z" fill="url(#paint3_linear_627_27073)"/>
<path d="M21.7057 13.3714C21.7057 12.1137 20.6887 11.1076 19.442 11.1076H19.267C19.7372 11.7419 19.9669 12.4637 19.9669 13.1855C19.9669 13.3276 19.956 13.4807 19.9341 13.6229C19.8466 14.2463 19.5732 14.8478 19.1576 15.4055C19.267 15.493 19.3763 15.5805 19.4748 15.6789C19.8466 16.0508 20.0981 16.4882 20.2294 16.9803L20.3606 16.7944C20.7324 16.3132 20.8855 15.7117 20.798 15.1212C20.7215 14.5525 20.4371 14.0385 19.9997 13.6776H21.6948V13.3604H21.7057V13.3714Z" fill="url(#paint4_linear_627_27073)"/>
<path d="M9.27196 8.52776C10.5296 8.52776 11.5357 7.51069 11.5357 6.26395C11.5357 5.00628 10.5187 4.00014 9.27196 4.00014C8.01432 4.00014 7.00821 5.01721 7.00821 6.26395C7.00821 7.51069 8.02526 8.52776 9.27196 8.52776ZM9.27196 5.01721C9.27196 5.01721 9.2829 5.01721 9.27196 5.01721C9.1298 5.18126 9.03137 5.39998 9.03137 5.64058C9.03137 6.12178 9.42507 6.51549 9.90625 6.51549C10.1468 6.51549 10.3765 6.41706 10.5296 6.25301V6.26395C10.5296 6.95294 9.97187 7.51069 9.2829 7.51069C8.59393 7.51069 8.03619 6.95294 8.03619 6.26395C8.02526 5.57496 8.58299 5.01721 9.27196 5.01721V5.01721Z" fill="url(#paint5_linear_627_27073)"/>
<path d="M14.7173 8.52776C15.9749 8.52776 16.981 7.51069 16.981 6.26395C16.981 5.00628 15.964 4.00014 14.7173 4.00014C13.4596 4.00014 12.4535 5.01721 12.4535 6.26395C12.4535 7.51069 13.4815 8.52776 14.7173 8.52776ZM14.7173 5.01721C14.7282 5.01721 14.7282 5.01721 14.7173 5.01721C14.5751 5.18126 14.4767 5.39998 14.4767 5.64058C14.4767 6.12178 14.8704 6.51549 15.3516 6.51549C15.5922 6.51549 15.8218 6.41706 15.9749 6.25301V6.26395C15.9749 6.95294 15.4172 7.51069 14.7282 7.51069C14.0392 7.52162 13.4924 6.96387 13.4924 6.27489C13.4815 5.57496 14.0392 5.01721 14.7173 5.01721V5.01721Z" fill="url(#paint6_linear_627_27073)"/>
<path d="M6.57079 15.4611C5.31315 15.4611 4.30704 16.4672 4.30704 17.7249C4.30704 18.9825 5.31315 19.9887 6.57079 19.9887C6.83326 19.9887 7.08478 19.9449 7.32538 19.8575C7.3035 19.8356 7.28163 19.8246 7.25976 19.7918C6.6036 19.1357 6.37394 18.2936 6.76764 17.9108C7.1504 17.528 7.99247 17.7467 8.64863 18.4029C8.67051 18.4248 8.68144 18.4467 8.71425 18.4685C8.80174 18.2389 8.84548 17.9873 8.84548 17.7139C8.83455 16.4781 7.80656 15.4611 6.57079 15.4611V15.4611Z" fill="url(#paint7_linear_627_27073)"/>
<path d="M17.4399 15.4611C16.1823 15.4611 15.1762 16.4672 15.1762 17.7249C15.1762 17.9873 15.2199 18.2389 15.3074 18.4795C15.3293 18.4576 15.3402 18.4357 15.373 18.4139C16.0292 17.7577 16.8713 17.528 17.254 17.9217C17.6368 18.3045 17.4181 19.1466 16.7619 19.8028C16.74 19.8246 16.7291 19.8356 16.6963 19.8684C16.9259 19.9559 17.1775 19.9996 17.4509 19.9996C18.7085 19.9996 19.7146 18.9935 19.7146 17.7358C19.6927 16.4781 18.6866 15.4611 17.4399 15.4611V15.4611Z" fill="url(#paint8_linear_627_27073)"/>
<defs>
<linearGradient id="paint0_linear_627_27073" x1="4.83334" y1="13.1925" x2="19.1705" y2="13.1925" gradientUnits="userSpaceOnUse">
<stop stop-color="#FD743E"/>
<stop offset="1" stop-color="#FD3254"/>
</linearGradient>
<linearGradient id="paint1_linear_627_27073" x1="6.91188" y1="9.59526" x2="17.7414" y2="7.64599" gradientUnits="userSpaceOnUse">
<stop stop-color="#FD743E"/>
<stop offset="1" stop-color="#FD3254"/>
</linearGradient>
<linearGradient id="paint2_linear_627_27073" x1="7.59808" y1="13.411" x2="18.4276" y2="11.4617" gradientUnits="userSpaceOnUse">
<stop stop-color="#FD743E"/>
<stop offset="1" stop-color="#FD3254"/>
</linearGradient>
<linearGradient id="paint3_linear_627_27073" x1="7.33955" y1="11.9762" x2="18.1691" y2="10.027" gradientUnits="userSpaceOnUse">
<stop stop-color="#FD743E"/>
<stop offset="1" stop-color="#FD3254"/>
</linearGradient>
<linearGradient id="paint4_linear_627_27073" x1="8.09032" y1="16.1442" x2="18.9199" y2="14.1949" gradientUnits="userSpaceOnUse">
<stop stop-color="#FD743E"/>
<stop offset="1" stop-color="#FD3254"/>
</linearGradient>
<linearGradient id="paint5_linear_627_27073" x1="6.40502" y1="6.77943" x2="17.2345" y2="4.83017" gradientUnits="userSpaceOnUse">
<stop stop-color="#FD743E"/>
<stop offset="1" stop-color="#FD3254"/>
</linearGradient>
<linearGradient id="paint6_linear_627_27073" x1="6.57513" y1="7.72917" x2="17.4047" y2="5.7799" gradientUnits="userSpaceOnUse">
<stop stop-color="#FD743E"/>
<stop offset="1" stop-color="#FD3254"/>
</linearGradient>
<linearGradient id="paint7_linear_627_27073" x1="8.3179" y1="17.4064" x2="19.1474" y2="15.4571" gradientUnits="userSpaceOnUse">
<stop stop-color="#FD743E"/>
<stop offset="1" stop-color="#FD3254"/>
</linearGradient>
<linearGradient id="paint8_linear_627_27073" x1="8.65936" y1="19.3102" x2="19.4889" y2="17.3609" gradientUnits="userSpaceOnUse">
<stop stop-color="#FD743E"/>
<stop offset="1" stop-color="#FD3254"/>
</linearGradient>
</defs>
</svg>
