<svg width="24" height="24" viewBox="0 0 24 24" fill="none" xmlns="http://www.w3.org/2000/svg">
<g clip-path="url(#clip0_627_27101)">
<path d="M7.68327 10.3805C7.68327 10.6239 7.70959 10.8213 7.75564 10.966C7.80827 11.1108 7.87406 11.2687 7.96617 11.4397C7.99906 11.4923 8.01222 11.545 8.01222 11.591C8.01222 11.6568 7.97275 11.7226 7.88722 11.7884L7.47274 12.0647C7.41353 12.1042 7.35432 12.1239 7.30169 12.1239C7.2359 12.1239 7.17011 12.091 7.10432 12.0318C7.01221 11.9331 6.93326 11.8279 6.86747 11.7226C6.80168 11.6108 6.73589 11.4858 6.66352 11.3344C6.15036 11.9397 5.50561 12.2423 4.72929 12.2423C4.17665 12.2423 3.73586 12.0845 3.41348 11.7687C3.09111 11.4529 2.92664 11.0318 2.92664 10.5055C2.92664 9.94627 3.12401 9.49232 3.52533 9.15021C3.92665 8.8081 4.45955 8.63704 5.13719 8.63704C5.36087 8.63704 5.59114 8.65678 5.83456 8.68968C6.07799 8.72257 6.32799 8.7752 6.59115 8.83441V8.35414C6.59115 7.85414 6.48589 7.50545 6.28194 7.3015C6.07141 7.09755 5.71614 6.99887 5.20956 6.99887C4.97929 6.99887 4.74245 7.02518 4.49902 7.08439C4.2556 7.1436 4.01875 7.21597 3.78849 7.30808C3.68322 7.35413 3.60428 7.38045 3.55822 7.39361C3.51217 7.40677 3.47927 7.41334 3.45296 7.41334C3.36085 7.41334 3.3148 7.34755 3.3148 7.20939V6.88702C3.3148 6.78176 3.32796 6.70281 3.36085 6.65676C3.39375 6.6107 3.45296 6.56465 3.54506 6.5186C3.77533 6.40017 4.05165 6.30149 4.37402 6.22254C4.69639 6.13701 5.0385 6.09754 5.40035 6.09754C6.18325 6.09754 6.75563 6.27517 7.12405 6.63044C7.4859 6.98571 7.67011 7.52519 7.67011 8.24888V10.3805H7.68327ZM5.01219 11.3805C5.22929 11.3805 5.45298 11.341 5.68983 11.2621C5.92667 11.1831 6.1372 11.0384 6.31483 10.841C6.4201 10.716 6.49905 10.5779 6.53852 10.42C6.57799 10.2621 6.60431 10.0713 6.60431 9.84758V9.57126C6.41352 9.52521 6.20957 9.48574 5.99904 9.45942C5.78851 9.43311 5.58456 9.41995 5.38061 9.41995C4.93982 9.41995 4.61744 9.50547 4.40034 9.68311C4.18323 9.86074 4.07797 10.1107 4.07797 10.4397C4.07797 10.7489 4.15691 10.9792 4.32139 11.1371C4.47929 11.3015 4.70955 11.3805 5.01219 11.3805ZM10.2951 12.091C10.1767 12.091 10.0978 12.0713 10.0451 12.0252C9.99251 11.9858 9.94645 11.8937 9.90698 11.7687L8.36091 6.68307C8.32144 6.55149 8.3017 6.46596 8.3017 6.41991C8.3017 6.31465 8.35433 6.25544 8.4596 6.25544H9.10434C9.22934 6.25544 9.31487 6.27517 9.36092 6.32123C9.41355 6.3607 9.45303 6.45281 9.4925 6.57781L10.5978 10.9331L11.6241 6.57781C11.657 6.44623 11.6965 6.3607 11.7491 6.32123C11.8017 6.28175 11.8938 6.25544 12.0123 6.25544H12.5386C12.6636 6.25544 12.7491 6.27517 12.8018 6.32123C12.8544 6.3607 12.9004 6.45281 12.9268 6.57781L13.9662 10.9858L15.1044 6.57781C15.1439 6.44623 15.1899 6.3607 15.236 6.32123C15.2886 6.28175 15.3741 6.25544 15.4926 6.25544H16.1044C16.2097 6.25544 16.2689 6.30807 16.2689 6.41991C16.2689 6.45281 16.2623 6.4857 16.2557 6.52518C16.2492 6.56465 16.236 6.61728 16.2097 6.68965L14.6241 11.7752C14.5847 11.9068 14.5386 11.9923 14.486 12.0318C14.4333 12.0713 14.3478 12.0976 14.236 12.0976H13.6702C13.5452 12.0976 13.4597 12.0779 13.407 12.0318C13.3544 11.9858 13.3083 11.9002 13.282 11.7687L12.2623 7.52519L11.2491 11.7621C11.2162 11.8937 11.1767 11.9792 11.1241 12.0252C11.0715 12.0713 10.9794 12.091 10.8609 12.091H10.2951ZM18.7492 12.2687C18.4071 12.2687 18.065 12.2292 17.736 12.1502C17.4071 12.0713 17.1505 11.9858 16.9794 11.8871C16.8742 11.8279 16.8018 11.7621 16.7755 11.7029C16.7492 11.6437 16.736 11.5779 16.736 11.5187V11.1831C16.736 11.045 16.7886 10.9792 16.8873 10.9792C16.9268 10.9792 16.9663 10.9858 17.0057 10.9989C17.0452 11.0121 17.1044 11.0384 17.1702 11.0647C17.3939 11.1634 17.6373 11.2423 17.8939 11.295C18.1571 11.3476 18.4137 11.3739 18.6768 11.3739C19.0913 11.3739 19.4137 11.3015 19.6374 11.1568C19.861 11.0121 19.9795 10.8015 19.9795 10.5318C19.9795 10.3476 19.9203 10.1963 19.8018 10.0713C19.6834 9.94627 19.4597 9.83443 19.1374 9.72916L18.1834 9.4331C17.7031 9.28179 17.3479 9.0581 17.1307 8.76204C16.9136 8.47257 16.8018 8.15019 16.8018 7.80809C16.8018 7.53177 16.861 7.28834 16.9794 7.07781C17.0979 6.86729 17.2557 6.68307 17.4531 6.53833C17.6505 6.38702 17.8742 6.27517 18.1373 6.19622C18.4005 6.11728 18.6768 6.08438 18.9663 6.08438C19.111 6.08438 19.2624 6.09096 19.4071 6.1107C19.5584 6.13043 19.6966 6.15675 19.8347 6.18307C19.9663 6.21596 20.0913 6.24886 20.2097 6.28833C20.3282 6.32781 20.4203 6.36728 20.4861 6.40675C20.5782 6.45939 20.6439 6.51202 20.6834 6.57123C20.7229 6.62386 20.7426 6.69623 20.7426 6.78834V7.09755C20.7426 7.23571 20.69 7.30808 20.5913 7.30808C20.5387 7.30808 20.4532 7.28176 20.3413 7.22913C19.9663 7.05808 19.5453 6.97255 19.0781 6.97255C18.7031 6.97255 18.4071 7.03176 18.2031 7.15676C17.9992 7.28176 17.8939 7.47256 17.8939 7.7423C17.8939 7.92651 17.9597 8.0844 18.0913 8.20941C18.2229 8.33441 18.4663 8.45941 18.815 8.57125L19.7492 8.86731C20.2229 9.01863 20.565 9.22916 20.7689 9.4989C20.9729 9.76864 21.0716 10.0778 21.0716 10.42C21.0716 10.7029 21.0124 10.9594 20.9005 11.1831C20.7821 11.4068 20.6242 11.6042 20.4203 11.7621C20.2163 11.9266 19.9729 12.045 19.69 12.1305C19.3939 12.2226 19.0847 12.2687 18.7492 12.2687Z" fill="#252F3E"/>
<path fill-rule="evenodd" clip-rule="evenodd" d="M19.9932 15.4656C17.8287 17.0643 14.6839 17.913 11.9799 17.913C8.19038 17.913 4.77586 16.5117 2.19689 14.1827C1.99294 13.9985 2.17715 13.7485 2.42057 13.8932C5.21008 15.5117 8.65091 16.4919 12.2102 16.4919C14.6115 16.4919 17.2497 15.9919 19.6774 14.9656C20.0392 14.8011 20.3484 15.2025 19.9932 15.4656Z" fill="#FF9900"/>
<path fill-rule="evenodd" clip-rule="evenodd" d="M20.8949 14.4392C20.6186 14.0839 19.0659 14.2681 18.362 14.3537C18.1515 14.38 18.1186 14.1958 18.3094 14.0576C19.5462 13.1892 21.5791 13.4392 21.816 13.7287C22.0528 14.0247 21.7502 16.0576 20.5923 17.0313C20.4146 17.1826 20.2436 17.1037 20.3225 16.9063C20.5857 16.255 21.1712 14.7879 20.8949 14.4392Z" fill="#FF9900"/>
</g>
<defs>
<clipPath id="clip0_627_27101">
<rect width="20.0002" height="11.9738" fill="white" transform="translate(1.99988 6.01309)"/>
</clipPath>
</defs>
</svg>
