<svg width="320" height="649" viewBox="0 0 320 649" fill="none" xmlns="http://www.w3.org/2000/svg">
<g clip-path="url(#clip0_959_41080)">
<path d="M0 10.0793C0 4.55645 4.47715 0.0792847 10 0.0792847H310C315.523 0.0792847 320 4.55644 320 10.0793V638.079C320 643.602 315.523 648.079 310 648.079H10C4.47715 648.079 0 643.602 0 638.079V10.0793Z" fill="url(#paint0_linear_959_41080)"/>
<g clip-path="url(#clip1_959_41080)">
<path d="M77.4858 107.389L113.607 128.243L112.643 129.913L76.5218 109.058L77.4858 107.389ZM243.748 203.38L207.65 182.539L206.686 184.209L242.784 205.05L243.748 203.38ZM-248.47 -15.8651L-244.59 -13.6248L-284.358 55.2552L-288.238 53.015L-289.202 54.6847L-283.676 57.8753L-241.98 -14.3441L-247.506 -17.5348L-248.47 -15.8651ZM-146.934 -178.942L-152.46 -182.132L-153.424 -180.463L-149.544 -178.222L-189.312 -109.342L-193.192 -111.583L-194.156 -109.913L-188.63 -106.722L-146.934 -178.942ZM568.745 328.322L564.865 326.082L604.633 257.202L608.513 259.442L609.477 257.772L603.951 254.582L562.255 326.801L567.781 329.992L568.745 328.322ZM473.704 492.938L469.824 490.698L509.592 421.818L513.472 424.058L514.436 422.389L508.91 419.198L467.214 491.417L472.74 494.608L473.704 492.938ZM-123.276 211.296L-197.463 231.175L-196.966 233.03L-122.779 213.151L-123.276 211.296ZM-113.336 248.39L-150.43 258.329L-149.933 260.184L-112.839 250.245L-113.336 248.39ZM433.63 64.0619L470.724 54.1226L470.227 52.2679L433.133 62.2072L433.63 64.0619ZM443.569 101.156L517.757 81.2772L517.26 79.4225L443.072 99.3011L443.569 101.156ZM137.213 371.096L139.067 370.599L136.831 362.253L209.164 342.871L211.401 351.217L213.255 350.72L211.019 342.374L219.365 340.138L218.868 338.283L210.522 340.52L208.286 332.174L206.431 332.67L208.667 341.017L136.334 360.398L134.098 352.052L132.243 352.549L134.479 360.895L126.133 363.132L126.63 364.986L134.976 362.75L137.213 371.096ZM183.081 -58.6439L181.226 -58.1469L183.462 -49.8008L111.129 -30.4192L108.893 -38.7653L107.038 -38.2684L109.274 -29.9223L100.928 -27.6859L101.425 -25.8312L109.771 -28.0676L112.008 -19.7215L113.862 -20.2184L111.626 -28.5645L183.959 -47.9461L186.196 -39.6L188.05 -40.097L185.814 -48.4431L194.16 -50.6794L193.663 -52.5341L185.317 -50.2978L183.081 -58.6439ZM324.18 22.8199L322.325 23.3169L324.562 31.663L316.216 33.8994L316.713 35.754L325.059 33.5177L327.295 41.8638L329.15 41.3669L326.913 33.0207L335.26 30.7844L334.763 28.9297L326.416 31.166L324.18 22.8199ZM498.735 154.955L496.881 155.452L499.117 163.798L490.771 166.034L491.268 167.889L499.614 165.653L501.85 173.999L503.705 173.502L501.469 165.156L509.815 162.919L509.318 161.065L500.972 163.301L498.735 154.955ZM-178.442 157.497L-176.587 157L-178.824 148.654L-170.478 146.418L-170.975 144.563L-179.321 146.799L-181.557 138.453L-183.412 138.95L-181.175 147.296L-189.521 149.533L-189.025 151.387L-180.678 149.151L-178.442 157.497ZM-3.8867 289.632L-2.03202 289.135L-4.26837 280.789L4.07778 278.553L3.58082 276.698L-4.76533 278.934L-7.00167 270.588L-8.85635 271.085L-6.62001 279.431L-14.9661 281.668L-14.4692 283.522L-6.12305 281.286L-3.8867 289.632ZM42.2678 306.089L40.4131 306.586L40.9101 308.441L42.7648 307.944L42.2678 306.089ZM55.8452 282.572L53.9904 283.069L54.4874 284.924L56.3421 284.427L55.8452 282.572ZM32.3285 268.995L30.4739 269.492L30.9708 271.347L32.8255 270.85L32.3285 268.995ZM69.4224 259.056L67.5677 259.553L68.0647 261.407L69.9194 260.911L69.4224 259.056ZM50.8755 264.025L49.0208 264.522L49.5177 266.377L51.3725 265.88L50.8755 264.025ZM37.2982 287.542L35.4435 288.039L35.9405 289.894L37.7952 289.397L37.2982 287.542ZM44.0868 275.784L42.2321 276.281L42.7291 278.135L44.5838 277.638L44.0868 275.784ZM62.6338 270.814L60.7791 271.311L61.2761 273.166L63.1307 272.669L62.6338 270.814ZM49.0565 294.331L47.2018 294.828L47.6987 296.682L49.5534 296.185L49.0565 294.331ZM278.025 6.3631L279.88 5.86613L279.383 4.01145L277.529 4.50842L278.025 6.3631ZM264.448 29.8797L266.303 29.3827L265.806 27.528L263.951 28.025L264.448 29.8797ZM287.965 43.457L289.82 42.96L289.323 41.1053L287.468 41.6023L287.965 43.457ZM250.871 53.3963L252.726 52.8993L252.229 51.0446L250.374 51.5416L250.871 53.3963ZM269.418 48.4266L271.273 47.9296L270.776 46.075L268.921 46.5719L269.418 48.4266ZM282.995 24.9101L284.85 24.4131L284.353 22.5584L282.498 23.0553L282.995 24.9101ZM276.207 36.6683L278.061 36.1714L277.564 34.3167L275.71 34.8137L276.207 36.6683ZM257.66 41.638L259.514 41.141L259.017 39.2863L257.163 39.7833L257.66 41.638ZM271.237 18.1214L273.092 17.6244L272.595 15.7697L270.74 16.2667L271.237 18.1214ZM9.40386 -180.081L11.2585 -180.578L10.7616 -182.433L8.90689 -181.936L9.40386 -180.081ZM-2.8157 -158.916L-4.67043 -158.419L-4.17347 -156.565L-2.31874 -157.062L-2.8157 -158.916ZM19.3431 -142.987L21.1978 -143.484L20.7008 -145.339L18.8462 -144.842L19.3431 -142.987ZM-16.393 -135.4L-18.2477 -134.903L-17.7507 -133.048L-15.8961 -133.545L-16.393 -135.4ZM2.15394 -140.369L0.299203 -139.872L0.796163 -138.018L2.6509 -138.515L2.15394 -140.369ZM14.3735 -161.534L16.2282 -162.031L15.7312 -163.886L13.8765 -163.389L14.3735 -161.534ZM7.58486 -149.776L9.43954 -150.273L8.94257 -152.128L7.08789 -151.631L7.58486 -149.776ZM-10.9621 -144.806L-9.10743 -145.303L-9.60439 -147.158L-11.4591 -146.661L-10.9621 -144.806ZM24.3128 -124.44L26.1675 -124.937L25.6705 -126.792L23.8158 -126.295L24.3128 -124.44ZM-11.4234 -116.853L-13.2781 -116.356L-12.7811 -114.501L-10.9264 -114.998L-11.4234 -116.853ZM7.12358 -121.822L5.26884 -121.325L5.76581 -119.471L7.62055 -119.968L7.12358 -121.822ZM12.5545 -131.229L14.4092 -131.726L13.9122 -133.581L12.0575 -133.084L12.5545 -131.229ZM-5.99247 -126.259L-4.13779 -126.756L-4.63475 -128.611L-6.48943 -128.114L-5.99247 -126.259ZM-29.9704 -111.883L-31.825 -111.386L-31.3281 -109.531L-29.4734 -110.028L-29.9704 -111.883ZM-23.1817 -123.641L-25.0364 -123.144L-24.5394 -121.29L-22.6847 -121.787L-23.1817 -123.641ZM2.61522 -168.323L4.4699 -168.82L3.97294 -170.675L2.11826 -170.178L2.61522 -168.323ZM18.0472 -192.336L17.5502 -194.191L15.6955 -193.694L16.1925 -191.839L18.0472 -192.336ZM27.9508 -185.051L29.8055 -185.548L29.3085 -187.402L27.4538 -186.905L27.9508 -185.051ZM37.89 -147.957L39.7448 -148.454L39.2478 -150.309L37.3931 -149.812L37.89 -147.957ZM32.9204 -166.504L34.7751 -167.001L34.2782 -168.856L32.4234 -168.359L32.9204 -166.504ZM22.9811 -203.598L24.8359 -204.095L24.3389 -205.949L22.4842 -205.452L22.9811 -203.598ZM-7.78534 -177.463L-9.64008 -176.966L-9.14311 -175.112L-7.28837 -175.608L-7.78534 -177.463ZM-21.3627 -153.947L-23.2173 -153.45L-22.7204 -151.595L-20.8657 -152.092L-21.3627 -153.947ZM-34.94 -130.43L-36.7947 -129.933L-36.2977 -128.078L-34.443 -128.575L-34.94 -130.43ZM-28.1513 -142.188L-30.006 -141.691L-29.5091 -139.837L-27.6543 -140.334L-28.1513 -142.188ZM-48.5173 -106.913L-50.372 -106.416L-49.875 -104.562L-48.0203 -105.059L-48.5173 -106.913ZM-41.7286 -118.672L-43.5833 -118.175L-43.0863 -116.32L-41.2317 -116.817L-41.7286 -118.672ZM-15.9317 -163.353L-14.0771 -163.85L-14.574 -165.705L-16.4287 -165.208L-15.9317 -163.353ZM-0.499741 -187.367L-0.996701 -189.221L-2.85138 -188.725L-2.35442 -186.87L-0.499741 -187.367ZM4.43422 -198.628L6.2889 -199.125L5.79193 -200.98L3.93725 -200.483L4.43422 -198.628ZM12.5806 -212.738L10.7259 -212.241L11.2229 -210.386L13.0775 -210.883L12.5806 -212.738ZM19.3693 -224.496L17.5145 -223.999L18.0115 -222.145L19.8662 -222.642L19.3693 -224.496ZM7.61093 -231.285L5.75625 -230.788L6.25321 -228.933L8.10789 -229.43L7.61093 -231.285ZM14.3996 -243.043L12.5449 -242.546L13.0418 -240.692L14.8966 -241.189L14.3996 -243.043ZM-26.3323 -172.494L-28.187 -171.997L-27.69 -170.142L-25.8353 -170.639L-26.3323 -172.494ZM-39.9096 -148.977L-41.7643 -148.48L-41.2673 -146.625L-39.4127 -147.122L-39.9096 -148.977ZM-53.4869 -125.46L-55.3416 -124.963L-54.8447 -123.109L-52.9899 -123.606L-53.4869 -125.46ZM-46.6983 -137.219L-48.5529 -136.722L-48.056 -134.867L-46.2013 -135.364L-46.6983 -137.219ZM-67.0642 -101.944L-68.9189 -101.447L-68.4219 -99.5921L-66.5673 -100.089L-67.0642 -101.944ZM-60.2756 -113.702L-62.1303 -113.205L-61.6333 -111.35L-59.7786 -111.847L-60.2756 -113.702ZM-33.1209 -160.735L-34.9757 -160.238L-34.4787 -158.384L-32.624 -158.881L-33.1209 -160.735ZM-19.0467 -182.397L-19.5437 -184.252L-21.3983 -183.755L-20.9014 -181.9L-19.0467 -182.397ZM-12.755 -196.01L-14.6097 -195.513L-14.1127 -193.658L-12.258 -194.155L-12.755 -196.01ZM-5.96634 -207.768L-7.82102 -207.271L-7.32406 -205.417L-5.46938 -205.914L-5.96634 -207.768ZM0.822294 -219.527L-1.03239 -219.03L-0.535426 -217.175L1.31925 -217.672L0.822294 -219.527ZM26.1318 -154.746L27.9864 -155.243L27.4895 -157.097L25.6348 -156.6L26.1318 -154.746ZM42.8597 -129.41L44.7144 -129.907L44.2175 -131.762L42.3627 -131.265L42.8597 -129.41ZM31.1014 -136.199L32.9561 -136.696L32.4591 -138.55L30.6044 -138.053L31.1014 -136.199ZM21.1621 -173.292L23.0168 -173.789L22.5198 -175.644L20.6652 -175.147L21.1621 -173.292ZM309.532 494.885L311.386 494.388L310.89 492.533L309.035 493.03L309.532 494.885ZM323.109 471.368L324.964 470.871L324.467 469.017L322.612 469.514L323.109 471.368ZM299.592 457.791L301.447 457.294L300.95 455.439L299.095 455.936L299.592 457.791ZM336.686 447.852L338.541 447.355L338.044 445.5L336.189 445.997L336.686 447.852ZM318.139 452.821L319.994 452.324L319.497 450.47L317.642 450.967L318.139 452.821ZM304.562 476.338L306.417 475.841L305.92 473.986L304.065 474.483L304.562 476.338ZM311.351 464.58L313.205 464.083L312.709 462.228L310.854 462.725L311.351 464.58ZM329.898 459.61L331.752 459.113L331.255 457.258L329.401 457.755L329.898 459.61ZM294.623 439.244L296.478 438.747L295.981 436.892L294.126 437.389L294.623 439.244ZM331.717 429.305L333.571 428.808L333.074 426.953L331.22 427.45L331.717 429.305ZM313.17 434.274L315.024 433.777L314.528 431.923L312.673 432.42L313.17 434.274ZM306.381 446.033L308.236 445.536L307.739 443.681L305.884 444.178L306.381 446.033ZM324.928 441.063L326.783 440.566L326.286 438.711L324.431 439.208L324.928 441.063ZM350.264 424.335L352.118 423.838L351.621 421.983L349.767 422.48L350.264 424.335ZM343.475 436.093L345.33 435.596L344.833 433.742L342.978 434.239L343.475 436.093ZM316.32 483.127L318.175 482.63L317.678 480.775L315.823 481.272L316.32 483.127ZM302.743 506.643L304.598 506.146L304.101 504.291L302.246 504.788L302.743 506.643ZM290.985 499.855L292.84 499.358L292.343 497.503L290.488 498L290.985 499.855ZM281.046 462.761L282.9 462.264L282.403 460.409L280.549 460.906L281.046 462.761ZM286.015 481.308L287.87 480.811L287.373 478.956L285.518 479.453L286.015 481.308ZM295.954 518.401L297.809 517.905L297.312 516.05L295.458 516.547L295.954 518.401ZM328.079 489.915L329.933 489.418L329.436 487.564L327.582 488.061L328.079 489.915ZM341.656 466.399L343.511 465.902L343.014 464.047L341.159 464.544L341.656 466.399ZM355.233 442.882L357.088 442.385L356.591 440.53L354.736 441.027L355.233 442.882ZM348.445 454.64L350.299 454.143L349.802 452.289L347.948 452.786L348.445 454.64ZM368.811 419.366L370.665 418.869L370.168 417.014L368.314 417.511L368.811 419.366ZM362.022 431.124L363.877 430.627L363.38 428.772L361.525 429.269L362.022 431.124ZM334.867 478.157L336.722 477.66L336.225 475.805L334.37 476.302L334.867 478.157ZM321.29 501.674L323.145 501.177L322.648 499.322L320.793 499.819L321.29 501.674ZM314.501 513.432L316.356 512.935L315.859 511.08L314.004 511.577L314.501 513.432ZM307.713 525.19L309.567 524.693L309.07 522.839L307.216 523.335L307.713 525.19ZM300.924 536.948L302.779 536.451L302.282 534.597L300.427 535.094L300.924 536.948ZM312.682 543.737L314.537 543.24L314.04 541.385L312.185 541.882L312.682 543.737ZM305.894 555.495L307.748 554.998L307.251 553.144L305.397 553.641L305.894 555.495ZM346.626 484.946L348.48 484.449L347.983 482.594L346.129 483.091L346.626 484.946ZM360.203 461.429L362.058 460.932L361.561 459.077L359.706 459.574L360.203 461.429ZM373.78 437.912L375.635 437.415L375.138 435.561L373.283 436.058L373.78 437.912ZM366.992 449.671L368.846 449.174L368.349 447.319L366.495 447.816L366.992 449.671ZM387.358 414.396L389.212 413.899L388.715 412.044L386.861 412.541L387.358 414.396ZM380.569 426.154L382.424 425.657L381.927 423.802L380.072 424.299L380.569 426.154ZM353.414 473.187L355.269 472.69L354.772 470.836L352.917 471.333L353.414 473.187ZM339.837 496.704L341.692 496.207L341.195 494.352L339.34 494.849L339.837 496.704ZM333.048 508.462L334.903 507.965L334.406 506.11L332.551 506.607L333.048 508.462ZM326.26 520.22L328.114 519.723L327.617 517.869L325.763 518.366L326.26 520.22ZM319.471 531.979L321.326 531.482L320.829 529.627L318.974 530.124L319.471 531.979ZM292.804 469.549L294.659 469.052L294.162 467.198L292.307 467.695L292.804 469.549ZM276.076 444.214L277.931 443.717L277.434 441.862L275.579 442.359L276.076 444.214ZM287.834 451.002L289.689 450.505L289.192 448.651L287.337 449.148L287.834 451.002ZM297.773 488.096L299.628 487.599L299.131 485.745L297.277 486.242L297.773 488.096ZM250.635 11.7144L242.289 13.9507L240.053 5.60458L238.198 6.10155L240.932 16.3024L251.132 13.5691L250.635 11.7144ZM69.6578 300.738L78.004 298.501L80.2403 306.847L82.095 306.351L79.3617 296.15L69.1609 298.883L69.6578 300.738ZM883.726 -36.6625L773.372 -7.09314L816.071 152.262C816.667 154.488 816.665 157.967 816.064 160.176L730.172 480.753C729.576 482.98 727.838 485.99 726.207 487.619L491.526 722.292C489.895 723.922 486.883 725.664 484.676 726.255L325.321 768.954L354.89 879.308L353.035 879.805L303.339 694.336L294.394 660.951L294.384 660.914L293.648 658.169L164.098 692.882C161.872 693.479 158.393 693.477 156.184 692.876L-36.1114 641.351L-41.0949 646.344C-42.7256 647.973 -45.7377 649.715 -47.9448 650.306L-80.2907 658.973C-82.5163 659.57 -85.9956 659.568 -88.2041 658.967L-120.544 650.298C-121.4 650.07 -122.385 649.658 -123.353 649.162L-151.308 697.583L-152.978 696.619L-125.022 648.198C-125.936 647.608 -126.785 646.961 -127.41 646.333L-151.087 622.661C-152.717 621.03 -154.459 618.018 -155.05 615.811L-163.717 583.465C-164.313 581.239 -164.311 577.76 -163.71 575.552L-161.878 568.739L-302.648 427.969C-304.277 426.338 -306.019 423.326 -306.61 421.119L-341.323 291.569L-562.941 350.951L-563.438 349.096L-453.083 319.527L-495.782 160.171C-496.379 157.946 -496.377 154.466 -495.776 152.258L-409.884 -168.319C-409.288 -170.546 -407.55 -173.556 -405.919 -175.186L-171.237 -409.859C-169.607 -411.489 -166.595 -413.23 -164.388 -413.821L-5.03218 -456.521L-34.5966 -566.856L-32.7419 -567.353L26.6453 -345.717L156.177 -380.425C158.403 -381.022 161.882 -381.02 164.091 -380.419L356.386 -328.894L361.388 -333.892C363.019 -335.521 366.031 -337.263 368.238 -337.854L400.584 -346.521C402.81 -347.117 406.289 -347.115 408.498 -346.514L440.837 -337.846C441.693 -337.618 442.678 -337.206 443.646 -336.71L471.602 -385.131L473.271 -384.167L445.316 -335.746C446.229 -335.156 447.078 -334.509 447.704 -333.881L471.381 -310.209C473.01 -308.578 474.752 -305.566 475.343 -303.359L484.01 -271.013C484.607 -268.787 484.605 -265.308 484.004 -263.1L482.176 -256.269L622.946 -115.498C624.576 -113.868 626.312 -110.874 626.909 -108.648L661.621 20.9021L883.257 -38.4851L883.754 -36.6304L883.726 -36.6625ZM-167.011 341.114C-166.509 342.987 -164.917 345.741 -163.557 347.106L-30.7412 479.929C-29.358 481.308 -26.6301 482.883 -24.7445 483.391L156.692 532.002C158.577 532.51 161.735 532.499 163.608 531.997L253.394 507.939L229.043 417.059L164.11 434.458C161.884 435.054 158.405 435.052 156.196 434.451L24.467 399.159C23.6108 398.931 22.6258 398.52 21.658 398.023L12.1132 414.556L34.9243 427.726L33.9603 429.395L11.1492 416.225L-1.95293 438.919L-3.62258 437.955L9.47952 415.261L-13.214 402.159L-12.25 400.49L10.4435 413.592L19.9883 397.059C19.0748 396.469 18.2255 395.822 17.6002 395.195L-78.8282 298.76C-80.4579 297.129 -82.1993 294.117 -82.7907 291.91L-100.189 226.977L-191.069 251.328L-167.011 341.114ZM-107.53 -29.9546L-120.74 -7.07302L-80.6917 16.0491C-80.1016 15.1356 -79.4545 14.2864 -78.8269 13.661L17.6081 -82.7675C19.2389 -84.3971 22.251 -86.1385 24.4581 -86.7299L89.391 -104.129L25.5659 -342.327C25.3848 -341.742 25.1516 -341.202 24.8801 -340.732L-156.01 -27.4204L-122.405 -8.01844L-109.194 -30.9001L-107.525 -29.9361L-107.53 -29.9546ZM-216.612 -60.1828L-215.648 -61.8525L-157.68 -28.3844L23.2104 -341.696C23.4141 -342.049 23.5929 -342.494 23.7482 -342.953L-104.263 -308.653C-106.136 -308.151 -108.89 -306.558 -110.255 -305.198L-301.27 -114.171C-302.648 -112.787 -304.223 -110.059 -304.732 -108.174L-374.659 152.764C-375.168 154.649 -375.157 157.807 -374.655 159.68L-340.295 287.914L-158.644 -26.7148L-216.612 -60.1828ZM487.286 -28.6568C486.784 -30.53 485.192 -33.2838 483.832 -34.6489L351.016 -167.472C349.633 -168.851 346.905 -170.426 345.019 -170.934L163.583 -219.545C161.697 -220.053 158.54 -220.042 156.667 -219.54L66.8808 -195.482L91.232 -104.602L156.165 -122.001C158.391 -122.597 161.87 -122.595 164.078 -121.994L295.808 -86.7022C296.664 -86.4744 297.649 -86.0625 298.617 -85.5664L308.162 -102.099L285.351 -115.269L286.315 -116.938L309.126 -103.768L322.228 -126.462L323.897 -125.498L310.795 -102.804L333.489 -89.7021L332.525 -88.0325L309.831 -101.135L300.286 -84.6024C301.2 -84.0123 302.049 -83.3652 302.675 -82.7376L399.103 13.6975C400.733 15.3282 402.474 18.3403 403.065 20.5474L420.464 85.4802L511.344 61.129L487.286 -28.6568ZM427.881 342.252L441.01 319.511L400.962 296.389C400.371 297.303 399.724 298.152 399.097 298.778L302.662 395.206C301.031 396.836 298.037 398.572 295.812 399.168L230.879 416.567L294.709 654.784C294.89 654.199 295.123 653.659 295.395 653.189L476.285 339.877L442.68 320.475L429.551 343.216L427.881 342.252ZM231.699 414.36L295.333 397.309C297.207 396.807 299.96 395.214 301.326 393.854L397.761 297.426C398.278 296.91 398.807 296.211 399.315 295.439L325.097 252.589L231.699 414.36ZM400.279 293.769C400.694 292.943 401.034 292.136 401.223 291.429L436.515 159.7C437.023 157.814 437.012 154.657 436.51 152.783L419.459 89.1488L326.061 250.919L400.279 293.769ZM380.159 83.359L383.389 95.4145L418.628 85.9722L401.229 21.0393C400.727 19.1662 399.135 16.4123 397.775 15.0473L301.347 -81.3879C300.83 -81.9054 300.132 -82.434 299.36 -82.9427L256.034 -7.90125L254.365 -8.86525L297.69 -83.9067C296.863 -84.3212 296.056 -84.6616 295.35 -84.85L163.62 -120.142C161.735 -120.651 158.577 -120.639 156.704 -120.137L91.2146 -102.59L-97.5098 224.291L-63.5875 215.201L-66.8177 203.146L-64.963 202.649L-61.7328 214.704L-26.4936 205.262L-36.1844 169.096L-34.3297 168.599L-24.6389 204.765L29.1472 190.353L21.0665 160.196C20.4702 157.97 20.4723 154.491 21.0732 152.282L37.736 90.1301C38.3319 87.903 40.0699 84.8929 41.7005 83.2632L87.1947 37.7567C88.8253 36.127 91.8375 34.3856 94.0446 33.7942L125.129 25.4651L125.626 27.3198L94.5416 35.6489C92.6683 36.1508 89.9145 37.7435 88.5494 39.1032L43.0553 84.6098C41.6766 85.993 40.1016 88.7209 39.5931 90.6065L22.9303 152.759C22.4217 154.644 22.433 157.802 22.9349 159.675L31.0155 189.833L66.2547 180.39L60.8378 160.174C60.2415 157.949 60.2434 154.469 60.8443 152.261L72.1779 109.984C72.7738 107.757 74.5117 104.747 76.1424 103.117L107.089 72.1633C108.719 70.5337 111.731 68.7922 113.939 68.2008L156.207 56.875C158.433 56.2787 161.912 56.2807 164.121 56.8817L206.398 68.2151C207.254 68.4429 208.239 68.8549 209.207 69.3509L227.224 38.1444L228.893 39.1084L210.876 70.3149C211.79 70.905 212.639 71.5521 213.264 72.1797L244.218 103.126C245.848 104.757 247.589 107.769 248.18 109.976L253.597 130.192L344.477 105.841L334.787 69.6743L336.641 69.1774L346.332 105.344L381.571 95.9015L378.341 83.846L380.196 83.3491L380.159 83.359ZM176.613 221.389L175.122 215.825C174.506 213.525 174.966 210.122 176.142 208.057L213.032 144.163C214.226 142.093 216.949 140.012 219.248 139.396L251.706 130.699L246.289 110.483C245.787 108.61 244.194 105.856 242.834 104.491L211.881 73.5444C211.364 73.0267 210.666 72.4982 209.894 71.9895L201.72 86.1465L200.051 85.1826L208.224 71.0255C207.397 70.6109 206.59 70.2705 205.884 70.0821L163.607 58.7487C161.721 58.2401 158.564 58.2514 156.69 58.7533L114.422 70.0791C112.549 70.581 109.795 72.1737 108.43 73.5333L77.4836 104.487C76.1049 105.87 74.5299 108.598 74.0213 110.484L62.6879 152.761C62.1794 154.646 62.1906 157.804 62.6925 159.677L68.1094 179.893L100.567 171.197C102.366 170.714 104.674 168.943 105.611 167.32L142.5 103.426C143.437 101.803 143.817 98.9184 143.335 97.1193L141.844 91.5552L143.699 91.0583L145.19 96.6224C145.806 98.9222 145.346 102.325 144.17 104.39L107.28 168.284C106.086 170.354 103.363 172.435 101.064 173.051L68.6064 181.748L74.0233 201.964C74.5252 203.837 76.1178 206.591 77.4776 207.956L108.431 238.903C108.947 239.42 109.646 239.949 110.418 240.458L118.605 226.277L120.275 227.241L112.088 241.422C112.915 241.836 113.721 242.177 114.428 242.365L156.705 253.698C158.59 254.207 161.748 254.196 163.621 253.694L205.89 242.368C207.763 241.866 210.517 240.273 211.882 238.914L242.828 207.96C244.207 206.577 245.782 203.849 246.291 201.963L257.624 159.686C258.133 157.801 258.121 154.643 257.619 152.77L252.203 132.554L219.745 141.251C217.946 141.733 215.638 143.504 214.701 145.127L177.812 209.021C176.875 210.644 176.495 213.529 176.977 215.328L178.468 220.892L176.613 221.389ZM88.5761 -101.903L24.9415 -84.8517C23.0683 -84.3498 20.3144 -82.7571 18.9493 -81.3974L-77.4857 15.0311C-78.0034 15.5475 -78.5319 16.2457 -79.0406 17.0181L-4.82224 59.8681L88.5761 -101.903ZM-80.0045 18.6878C-80.4191 19.5145 -80.7596 20.3213 -80.948 21.0278L-116.24 152.757C-116.748 154.643 -116.737 157.801 -116.235 159.674L-99.1845 223.308L-5.78622 61.5378L-80.0045 18.6878ZM-98.3532 226.485L-80.9545 291.418C-80.4526 293.291 -78.8599 296.045 -77.5003 297.41L18.9282 393.845C19.4446 394.362 20.1428 394.891 20.9152 395.4L64.2404 320.358L65.9101 321.322L22.5849 396.364C23.4116 396.778 24.2185 397.119 24.925 397.307L156.654 432.599C158.54 433.108 161.698 433.096 163.571 432.594L229.06 415.047L417.785 88.1662L383.862 97.2557L387.093 109.311L385.238 109.808L382.008 97.7526L346.768 107.195L356.459 143.361L354.605 143.858L344.914 107.692L291.128 122.104L299.208 152.261C299.805 154.487 299.803 157.966 299.202 160.175L282.539 222.327C281.943 224.554 280.205 227.564 278.574 229.194L233.08 274.7C231.449 276.33 228.456 278.066 226.23 278.663L195.146 286.992L194.649 285.137L225.733 276.808C227.606 276.306 230.36 274.714 231.725 273.354L277.219 227.847C278.598 226.464 280.173 223.736 280.682 221.851L297.344 159.698C297.853 157.813 297.842 154.655 297.34 152.782L289.259 122.624L254.02 132.067L259.437 152.283C260.033 154.508 260.031 157.988 259.43 160.196L248.097 202.473C247.501 204.7 245.763 207.711 244.132 209.34L213.186 240.294C211.555 241.923 208.543 243.665 206.336 244.256L164.068 255.582C161.842 256.178 158.363 256.176 156.154 255.575L113.877 244.242C113.021 244.014 112.036 243.602 111.068 243.106L93.0511 274.313L91.3814 273.349L109.399 242.142C108.485 241.552 107.636 240.905 107.01 240.277L76.0569 209.331C74.4272 207.7 72.6907 204.707 72.0944 202.481L66.6775 182.265L-24.2026 206.616L-14.5118 242.783L-16.3665 243.28L-26.0572 207.113L-61.2964 216.555L-58.0662 228.611L-59.9209 229.108L-63.1511 217.052L-98.3903 226.495L-98.3532 226.485ZM296.527 655.41L424.538 621.11C426.411 620.608 429.165 619.015 430.53 617.655L621.544 426.628C622.923 425.244 624.498 422.516 625.007 420.631L694.934 159.693C695.443 157.808 695.432 154.65 694.93 152.777L660.569 24.5435L478.919 339.172L536.887 372.64L535.923 374.309L477.955 340.842L297.064 654.153C296.861 654.506 296.682 654.951 296.527 655.41ZM444.328 -334.09L429.502 -308.41C430.415 -307.82 431.264 -307.173 431.89 -306.545L480.58 -257.849L482.118 -263.608C482.627 -265.494 482.615 -268.651 482.114 -270.525L473.446 -302.87C472.945 -304.744 471.352 -307.498 469.992 -308.863L446.315 -332.535C445.799 -333.053 445.1 -333.581 444.328 -334.09ZM335.593 -231.264C336.095 -229.391 337.687 -226.637 339.047 -225.272L362.724 -201.6C364.107 -200.221 366.835 -198.646 368.721 -198.138L401.06 -189.469C402.946 -188.96 406.104 -188.972 407.977 -189.474L440.323 -198.141C442.196 -198.642 444.95 -200.235 446.315 -201.595L469.987 -225.272C471.366 -226.655 472.941 -229.383 473.449 -231.269L480.001 -255.706L430.525 -305.185C430.008 -305.703 429.31 -306.231 428.538 -306.74L419.129 -290.443L429.212 -252.811L391.58 -242.728L378.207 -219.564L376.537 -220.528L389.911 -243.692L385.294 -260.922L331.508 -246.51L335.593 -231.264ZM426.868 -307.704C426.041 -308.119 425.234 -308.459 424.528 -308.647L356.939 -326.756L339.052 -308.863C337.673 -307.48 336.099 -304.752 335.59 -302.866L326.921 -270.527C326.412 -268.641 326.424 -265.484 326.926 -263.61L331.011 -248.365L384.797 -262.777L379.827 -281.324L417.459 -291.407L426.868 -307.704ZM409.109 -276.944L416.101 -289.055L382.179 -279.966L391.268 -246.044L398.261 -258.155L399.93 -257.191L392.938 -245.08L426.86 -254.169L417.771 -288.091L410.779 -275.98L409.109 -276.944ZM358.511 -328.31L425.028 -310.491C425.884 -310.263 426.869 -309.851 427.837 -309.355L442.663 -335.035C441.837 -335.45 441.03 -335.79 440.323 -335.979L407.984 -344.647C406.098 -345.156 402.941 -345.145 401.067 -344.643L368.722 -335.976C366.848 -335.474 364.095 -333.881 362.729 -332.522L358.511 -328.31ZM27.1287 -343.839L66.3888 -197.318L156.175 -221.376C158.4 -221.973 161.88 -221.971 164.088 -221.37L345.524 -172.759C347.751 -172.163 350.761 -170.425 352.391 -168.795L485.207 -35.9715C486.837 -34.3408 488.578 -31.3287 489.169 -29.1216L513.227 60.6641L557.74 48.737L555.255 39.4636L575.657 33.997L581.123 54.3986L560.722 59.8652L558.237 50.5917L420.99 87.3671L438.388 152.3C438.985 154.526 438.983 158.005 438.382 160.213L403.09 291.943C402.862 292.799 402.45 293.784 401.954 294.752L442.003 317.874L454.969 295.416L456.639 296.38L443.672 318.838L477.278 338.24L659.892 21.9419L625.035 -108.146C624.533 -110.02 622.941 -112.773 621.581 -114.139L481.598 -254.126L475.335 -230.76C474.739 -228.533 473.001 -225.523 471.37 -223.893L447.698 -200.216C446.067 -198.587 443.055 -196.845 440.848 -196.254L408.502 -187.587C406.277 -186.99 402.797 -186.992 400.589 -187.593L368.249 -196.262C366.022 -196.858 363.012 -198.596 361.383 -200.227L337.705 -223.899C336.076 -225.53 334.334 -228.542 333.743 -230.749L329.658 -245.995L274.944 -231.334L274.447 -233.189L329.161 -247.849L325.076 -263.095C324.48 -265.32 324.482 -268.8 325.083 -271.008L333.751 -303.348C334.347 -305.575 336.085 -308.585 337.716 -310.215L354.82 -327.321L163.596 -378.557C161.71 -379.065 158.552 -379.054 156.679 -378.552L27.1472 -343.844L27.1287 -343.839ZM578.748 53.0273L574.276 36.3351L557.583 40.8077L562.056 57.5L578.748 53.0273ZM-341.81 289.751L-376.523 160.201C-377.119 157.975 -377.117 154.496 -376.517 152.287L-306.589 -108.65C-305.993 -110.877 -304.255 -113.887 -302.624 -115.517L-111.61 -306.545C-109.979 -308.175 -106.985 -309.911 -104.76 -310.507L24.1786 -345.056C24.2911 -346.12 24.2688 -347.168 24.0452 -348.002L15.0998 -381.387L-4.53024 -454.647L-163.886 -411.948C-165.759 -411.446 -168.513 -409.854 -169.878 -408.494L-404.559 -173.821C-405.938 -172.437 -407.513 -169.71 -408.022 -167.824L-493.914 152.753C-494.422 154.638 -494.411 157.796 -493.909 159.669L-451.21 319.025L-341.783 289.704L-341.81 289.751ZM-124.067 646.57L-109.24 620.89C-110.154 620.3 -111.003 619.653 -111.629 619.025L-160.319 570.329L-161.862 576.07C-162.37 577.956 -162.359 581.113 -161.857 582.987L-153.19 615.332C-152.688 617.206 -151.096 619.96 -149.736 621.325L-126.059 644.997C-125.542 645.515 -124.844 646.043 -124.072 646.552L-124.067 646.57ZM-15.3315 543.745C-15.8334 541.872 -17.4261 539.118 -18.7858 537.753L-42.4629 514.081C-43.8461 512.702 -46.574 511.127 -48.4596 510.618L-80.799 501.95C-82.6846 501.441 -85.8422 501.452 -87.7155 501.954L-120.061 510.621C-121.935 511.123 -124.688 512.716 -126.054 514.075L-149.726 537.752C-151.105 539.136 -152.68 541.864 -153.188 543.749L-159.735 568.205L-110.258 617.684C-109.742 618.202 -109.044 618.73 -108.272 619.239L-98.8624 602.942L-108.946 565.31L-71.3141 555.227L-57.9404 532.063L-56.2707 533.027L-69.6444 556.191L-65.0276 573.421L-11.2414 559.009L-15.3265 543.764L-15.3315 543.745ZM-106.607 620.185C-105.78 620.599 -104.973 620.94 -104.267 621.128L-36.6779 639.236L-18.7723 621.339C-17.3936 619.955 -15.8186 617.227 -15.3101 615.342L-6.64127 583.003C-6.13272 581.117 -6.14394 577.959 -6.64587 576.086L-10.7309 560.84L-64.517 575.252L-59.5474 593.799L-97.1792 603.883L-106.588 620.18L-106.607 620.185ZM-88.8476 589.425L-95.84 601.536L-61.9176 592.447L-71.0071 558.524L-77.9994 570.635L-79.6691 569.671L-72.6767 557.56L-106.599 566.65L-97.5097 600.572L-90.5173 588.461L-88.8476 589.425ZM-38.2493 640.791L-104.767 622.972C-105.623 622.744 -106.608 622.332 -107.576 621.836L-122.402 647.516C-121.575 647.93 -120.769 648.271 -120.062 648.459L-87.7227 657.128C-85.8371 657.637 -82.6794 657.625 -80.8062 657.123L-48.4603 648.456C-46.5871 647.954 -43.8333 646.362 -42.4682 645.002L-38.2679 640.796L-38.2493 640.791ZM293.151 656.315L253.891 509.794L164.105 533.852C161.88 534.448 158.4 534.446 156.192 533.845L-25.2444 485.235C-27.4715 484.639 -30.4816 482.901 -32.1113 481.27L-164.927 348.447C-166.557 346.816 -168.298 343.804 -168.89 341.597L-192.948 251.811L-237.46 263.739L-234.975 273.012L-255.377 278.479L-260.844 258.077L-240.442 252.61L-237.957 261.884L-100.71 225.109L-118.109 160.176C-118.705 157.95 -118.703 154.471 -118.102 152.262L-82.81 20.5328C-82.5822 19.6766 -82.1703 18.6916 -81.6743 17.7238L-121.723 -5.39831L-134.594 16.8953L-136.264 15.9314L-123.393 -6.36236L-156.998 -25.7644L-339.613 290.534L-304.756 420.622C-304.254 422.495 -302.661 425.249 -301.301 426.614L-161.318 566.601L-155.06 543.217C-154.464 540.99 -152.726 537.98 -151.096 536.35L-127.423 512.673C-125.792 511.044 -122.78 509.302 -120.573 508.711L-88.2274 500.044C-86.0018 499.447 -82.5225 499.449 -80.314 500.05L-47.9746 508.719C-45.7475 509.315 -42.7373 511.053 -41.1077 512.684L-17.4306 536.356C-15.801 537.987 -14.0596 540.999 -13.4682 543.206L-9.38315 558.452L45.3304 543.791L45.8273 545.646L-8.88617 560.306L-4.80112 575.552C-4.20475 577.778 -4.2068 581.257 -4.80773 583.465L-13.4765 615.805C-14.0725 618.032 -15.8104 621.042 -17.4411 622.672L-34.5635 639.783L156.661 691.019C158.546 691.527 161.704 691.516 163.577 691.014L293.128 656.301L293.151 656.315ZM-258.469 259.448L-253.996 276.141L-237.304 271.668L-241.776 254.976L-258.469 259.448ZM771.517 -6.59619L662.09 22.7247L696.803 152.275C697.399 154.501 697.397 157.98 696.796 160.188L626.869 421.126C626.273 423.353 624.535 426.363 622.904 427.993L431.89 619.021C430.259 620.65 427.247 622.392 425.04 622.983L296.101 657.532C295.984 658.577 296.025 659.62 296.243 660.436L324.829 767.118L484.184 724.419C486.057 723.917 488.811 722.324 490.176 720.964L724.858 486.291C726.236 484.908 727.811 482.18 728.32 480.295L814.212 159.718C814.721 157.832 814.709 154.674 814.207 152.801L771.508 -6.55412L771.517 -6.59619Z" fill="url(#paint1_linear_959_41080)"/>
</g>
<path d="M176 157.279H166.464C165.696 157.279 164.784 156.895 164.256 156.367L159.728 151.839C159.184 151.295 158.816 150.383 158.816 149.631V140.079H161.216V149.615C161.216 149.743 161.344 150.047 161.424 150.127L165.952 154.655C166.048 154.751 166.336 154.863 166.464 154.863H176V157.263V157.279ZM161.2 162.543C161.2 161.775 160.816 160.863 160.288 160.335L155.76 155.807C155.216 155.263 154.304 154.895 153.552 154.895H144V157.295H153.536C153.664 157.295 153.968 157.423 154.048 157.503L158.576 162.031C158.672 162.127 158.784 162.415 158.784 162.543V172.079H161.184V162.543H161.2Z" fill="white"/>
<path d="M155.494 284.079L144.912 273.487C144.368 272.959 144 272.031 144 271.279V264.879C144 264.111 144.384 263.199 144.912 262.655L155.494 252.079L157.191 253.775L146.609 264.367C146.513 264.463 146.401 264.751 146.401 264.879V271.279C146.401 271.407 146.529 271.695 146.609 271.791L157.207 282.383L155.51 284.079H155.494ZM162.793 253.775L173.391 264.367C173.487 264.463 173.599 264.751 173.599 264.879V271.279C173.599 271.407 173.471 271.695 173.391 271.791L162.809 282.383L164.506 284.079L175.088 273.503C175.632 272.959 176 272.047 176 271.279V264.879C176 264.111 175.616 263.199 175.088 262.671L164.49 252.079L162.793 253.775Z" fill="white"/>
<path d="M146.401 396.079H144V388.879C144 388.111 144.384 387.199 144.912 386.671L159.784 371.807C159.88 371.711 159.992 371.423 159.992 371.295V364.079H162.393V371.279C162.393 372.047 162.025 372.959 161.481 373.487L146.609 388.351C146.513 388.447 146.401 388.735 146.401 388.863V396.063V396.079ZM160.008 388.879C160.008 388.751 160.136 388.463 160.216 388.367L175.088 373.503C175.632 372.959 176 372.047 176 371.295V364.079H173.599V371.279C173.599 371.407 173.471 371.711 173.391 371.791L158.519 386.655C157.975 387.199 157.607 388.111 157.607 388.863V396.063H160.008V388.863V388.879Z" fill="white"/>
<path d="M174.273 492.479L162.087 480.287C161.991 480.191 161.703 480.079 161.575 480.079H158.377C158.249 480.079 157.961 480.207 157.865 480.287L145.679 492.479L143.984 490.783L156.17 478.591C156.714 478.047 157.625 477.679 158.377 477.679H161.575C162.343 477.679 163.254 478.063 163.782 478.591L175.952 490.783L174.257 492.479H174.273ZM175.968 505.183L163.798 492.991C163.254 492.447 162.343 492.079 161.591 492.079H158.393C157.625 492.079 156.714 492.463 156.186 492.991L144 505.183L145.695 506.879L157.881 494.687C157.977 494.591 158.265 494.479 158.393 494.479H161.591C161.719 494.479 162.007 494.607 162.103 494.687L174.289 506.879L175.984 505.183H175.968Z" fill="white"/>
</g>
<defs>
<linearGradient id="paint0_linear_959_41080" x1="85.1376" y1="43.5879" x2="185.764" y2="610.763" gradientUnits="userSpaceOnUse">
<stop stop-color="#18191D"/>
<stop offset="1" stop-color="#140A1E"/>
</linearGradient>
<linearGradient id="paint1_linear_959_41080" x1="-33.6599" y1="-567.107" x2="299.997" y2="680.449" gradientUnits="userSpaceOnUse">
<stop stop-color="#727291"/>
<stop offset="1"/>
</linearGradient>
<clipPath id="clip0_959_41080">
<path d="M0 10.0793C0 4.55645 4.47715 0.0792847 10 0.0792847H310C315.523 0.0792847 320 4.55644 320 10.0793V638.079C320 643.602 315.523 648.079 310 648.079H10C4.47715 648.079 0 643.602 0 638.079V10.0793Z" fill="white"/>
</clipPath>
<clipPath id="clip1_959_41080">
<rect width="1497.69" height="1497.69" fill="white" transform="translate(-757 -373.289) rotate(-15)"/>
</clipPath>
</defs>
</svg>
