<svg width="320" height="648" viewBox="0 0 320 648" fill="none" xmlns="http://www.w3.org/2000/svg">
<g clip-path="url(#clip0_959_41081)">
<path d="M0 10C0 4.47717 4.47715 0 10 0H310C315.523 0 320 4.47715 320 10V638C320 643.523 315.523 648 310 648H10C4.47715 648 0 643.523 0 638V10Z" fill="url(#paint0_linear_959_41081)"/>
<g clip-path="url(#clip1_959_41081)">
<path d="M77.4858 107.309L113.607 128.164L112.643 129.834L76.5218 108.979L77.4858 107.309ZM243.748 203.301L207.65 182.46L206.686 184.129L242.784 204.971L243.748 203.301ZM-248.47 -15.9444L-244.59 -13.7041L-284.358 55.1759L-288.238 52.9357L-289.202 54.6054L-283.676 57.796L-241.98 -14.4234L-247.506 -17.6141L-248.47 -15.9444ZM-146.934 -179.021L-152.46 -182.212L-153.424 -180.542L-149.544 -178.302L-189.312 -109.422L-193.192 -111.662L-194.156 -109.992L-188.63 -106.802L-146.934 -179.021ZM568.745 328.243L564.865 326.003L604.633 257.123L608.513 259.363L609.477 257.693L603.951 254.502L562.255 326.722L567.781 329.912L568.745 328.243ZM473.704 492.859L469.824 490.619L509.592 421.739L513.472 423.979L514.436 422.309L508.91 419.119L467.214 491.338L472.74 494.529L473.704 492.859ZM-123.276 211.217L-197.463 231.096L-196.966 232.95L-122.779 213.072L-123.276 211.217ZM-113.336 248.311L-150.43 258.25L-149.933 260.105L-112.839 250.166L-113.336 248.311ZM433.63 63.9826L470.724 54.0433L470.227 52.1886L433.133 62.1279L433.63 63.9826ZM443.569 101.076L517.757 81.1979L517.26 79.3432L443.072 99.2218L443.569 101.076ZM137.213 371.017L139.067 370.52L136.831 362.174L209.164 342.792L211.401 351.138L213.255 350.641L211.019 342.295L219.365 340.059L218.868 338.204L210.522 340.44L208.286 332.094L206.431 332.591L208.667 340.937L136.334 360.319L134.098 351.973L132.243 352.47L134.479 360.816L126.133 363.052L126.63 364.907L134.976 362.671L137.213 371.017ZM183.081 -58.7232L181.226 -58.2262L183.462 -49.8801L111.129 -30.4985L108.893 -38.8446L107.038 -38.3477L109.274 -30.0016L100.928 -27.7652L101.425 -25.9105L109.771 -28.1468L112.008 -19.8008L113.862 -20.2977L111.626 -28.6438L183.959 -48.0254L186.196 -39.6793L188.05 -40.1763L185.814 -48.5223L194.16 -50.7587L193.663 -52.6134L185.317 -50.3771L183.081 -58.7232ZM324.18 22.7406L322.325 23.2376L324.562 31.5837L316.216 33.8201L316.713 35.6747L325.059 33.4384L327.295 41.7845L329.15 41.2876L326.913 32.9414L335.26 30.7051L334.763 28.8504L326.416 31.0868L324.18 22.7406ZM498.735 154.876L496.881 155.373L499.117 163.719L490.771 165.955L491.268 167.81L499.614 165.573L501.85 173.92L503.705 173.423L501.469 165.076L509.815 162.84L509.318 160.985L500.972 163.222L498.735 154.876ZM-178.442 157.418L-176.587 156.921L-178.824 148.575L-170.478 146.338L-170.975 144.484L-179.321 146.72L-181.557 138.374L-183.412 138.871L-181.175 147.217L-189.521 149.453L-189.025 151.308L-180.678 149.072L-178.442 157.418ZM-3.8867 289.553L-2.03202 289.056L-4.26837 280.71L4.07778 278.473L3.58082 276.619L-4.76533 278.855L-7.00167 270.509L-8.85635 271.006L-6.62001 279.352L-14.9661 281.588L-14.4692 283.443L-6.12305 281.207L-3.8867 289.553ZM42.2678 306.01L40.4131 306.507L40.9101 308.361L42.7648 307.864L42.2678 306.01ZM55.8452 282.493L53.9904 282.99L54.4874 284.845L56.3421 284.348L55.8452 282.493ZM32.3285 268.916L30.4739 269.413L30.9708 271.267L32.8255 270.77L32.3285 268.916ZM69.4224 258.977L67.5677 259.474L68.0647 261.328L69.9194 260.831L69.4224 258.977ZM50.8755 263.946L49.0208 264.443L49.5177 266.298L51.3725 265.801L50.8755 263.946ZM37.2982 287.463L35.4435 287.96L35.9405 289.814L37.7952 289.317L37.2982 287.463ZM44.0868 275.704L42.2321 276.201L42.7291 278.056L44.5838 277.559L44.0868 275.704ZM62.6338 270.735L60.7791 271.232L61.2761 273.086L63.1307 272.589L62.6338 270.735ZM49.0565 294.251L47.2018 294.748L47.6987 296.603L49.5534 296.106L49.0565 294.251ZM278.025 6.28382L279.88 5.78684L279.383 3.93216L277.529 4.42914L278.025 6.28382ZM264.448 29.8004L266.303 29.3035L265.806 27.4487L263.951 27.9457L264.448 29.8004ZM287.965 43.3777L289.82 42.8807L289.323 41.026L287.468 41.523L287.965 43.3777ZM250.871 53.317L252.726 52.82L252.229 50.9653L250.374 51.4623L250.871 53.317ZM269.418 48.3473L271.273 47.8504L270.776 45.9957L268.921 46.4926L269.418 48.3473ZM282.995 24.8308L284.85 24.3338L284.353 22.4791L282.498 22.976L282.995 24.8308ZM276.207 36.5891L278.061 36.0921L277.564 34.2374L275.71 34.7344L276.207 36.5891ZM257.66 41.5587L259.514 41.0617L259.017 39.207L257.163 39.704L257.66 41.5587ZM271.237 18.0421L273.092 17.5451L272.595 15.6904L270.74 16.1874L271.237 18.0421ZM9.40386 -180.16L11.2585 -180.657L10.7616 -182.512L8.90689 -182.015L9.40386 -180.16ZM-2.8157 -158.996L-4.67043 -158.499L-4.17347 -156.644L-2.31874 -157.141L-2.8157 -158.996ZM19.3431 -143.067L21.1978 -143.564L20.7008 -145.418L18.8462 -144.921L19.3431 -143.067ZM-16.393 -135.479L-18.2477 -134.982L-17.7507 -133.127L-15.8961 -133.624L-16.393 -135.479ZM2.15394 -140.449L0.299203 -139.952L0.796163 -138.097L2.6509 -138.594L2.15394 -140.449ZM14.3735 -161.614L16.2282 -162.11L15.7312 -163.965L13.8765 -163.468L14.3735 -161.614ZM7.58486 -149.855L9.43954 -150.352L8.94257 -152.207L7.08789 -151.71L7.58486 -149.855ZM-10.9621 -144.886L-9.10743 -145.383L-9.60439 -147.237L-11.4591 -146.74L-10.9621 -144.886ZM24.3128 -124.52L26.1675 -125.017L25.6705 -126.871L23.8158 -126.374L24.3128 -124.52ZM-11.4234 -116.932L-13.2781 -116.435L-12.7811 -114.58L-10.9264 -115.077L-11.4234 -116.932ZM7.12358 -121.902L5.26884 -121.405L5.76581 -119.55L7.62055 -120.047L7.12358 -121.902ZM12.5545 -131.308L14.4092 -131.805L13.9122 -133.66L12.0575 -133.163L12.5545 -131.308ZM-5.99247 -126.339L-4.13779 -126.836L-4.63475 -128.69L-6.48943 -128.193L-5.99247 -126.339ZM-29.9704 -111.962L-31.825 -111.465L-31.3281 -109.611L-29.4734 -110.108L-29.9704 -111.962ZM-23.1817 -123.721L-25.0364 -123.224L-24.5394 -121.369L-22.6847 -121.866L-23.1817 -123.721ZM2.61522 -168.402L4.4699 -168.899L3.97294 -170.754L2.11826 -170.257L2.61522 -168.402ZM18.0472 -192.416L17.5502 -194.27L15.6955 -193.773L16.1925 -191.919L18.0472 -192.416ZM27.9508 -185.13L29.8055 -185.627L29.3085 -187.482L27.4538 -186.985L27.9508 -185.13ZM37.89 -148.036L39.7448 -148.533L39.2478 -150.388L37.3931 -149.891L37.89 -148.036ZM32.9204 -166.583L34.7751 -167.08L34.2782 -168.935L32.4234 -168.438L32.9204 -166.583ZM22.9811 -203.677L24.8359 -204.174L24.3389 -206.029L22.4842 -205.532L22.9811 -203.677ZM-7.78534 -177.542L-9.64008 -177.046L-9.14311 -175.191L-7.28837 -175.688L-7.78534 -177.542ZM-21.3627 -154.026L-23.2173 -153.529L-22.7204 -151.674L-20.8657 -152.171L-21.3627 -154.026ZM-34.94 -130.509L-36.7947 -130.012L-36.2977 -128.158L-34.443 -128.655L-34.94 -130.509ZM-28.1513 -142.268L-30.006 -141.771L-29.5091 -139.916L-27.6543 -140.413L-28.1513 -142.268ZM-48.5173 -106.993L-50.372 -106.496L-49.875 -104.641L-48.0203 -105.138L-48.5173 -106.993ZM-41.7286 -118.751L-43.5833 -118.254L-43.0863 -116.399L-41.2317 -116.896L-41.7286 -118.751ZM-15.9317 -163.432L-14.0771 -163.929L-14.574 -165.784L-16.4287 -165.287L-15.9317 -163.432ZM-0.499741 -187.446L-0.996701 -189.301L-2.85138 -188.804L-2.35442 -186.949L-0.499741 -187.446ZM4.43422 -198.707L6.2889 -199.204L5.79193 -201.059L3.93725 -200.562L4.43422 -198.707ZM12.5806 -212.817L10.7259 -212.32L11.2229 -210.466L13.0775 -210.963L12.5806 -212.817ZM19.3693 -224.576L17.5145 -224.079L18.0115 -222.224L19.8662 -222.721L19.3693 -224.576ZM7.61093 -231.364L5.75625 -230.867L6.25321 -229.013L8.10789 -229.51L7.61093 -231.364ZM14.3996 -243.123L12.5449 -242.626L13.0418 -240.771L14.8966 -241.268L14.3996 -243.123ZM-26.3323 -172.573L-28.187 -172.076L-27.69 -170.221L-25.8353 -170.718L-26.3323 -172.573ZM-39.9096 -149.056L-41.7643 -148.559L-41.2673 -146.705L-39.4127 -147.202L-39.9096 -149.056ZM-53.4869 -125.54L-55.3416 -125.043L-54.8447 -123.188L-52.9899 -123.685L-53.4869 -125.54ZM-46.6983 -137.298L-48.5529 -136.801L-48.056 -134.946L-46.2013 -135.443L-46.6983 -137.298ZM-67.0642 -102.023L-68.9189 -101.526L-68.4219 -99.6714L-66.5673 -100.168L-67.0642 -102.023ZM-60.2756 -113.781L-62.1303 -113.284L-61.6333 -111.43L-59.7786 -111.927L-60.2756 -113.781ZM-33.1209 -160.815L-34.9757 -160.318L-34.4787 -158.463L-32.624 -158.96L-33.1209 -160.815ZM-19.0467 -182.476L-19.5437 -184.331L-21.3983 -183.834L-20.9014 -181.979L-19.0467 -182.476ZM-12.755 -196.089L-14.6097 -195.592L-14.1127 -193.738L-12.258 -194.235L-12.755 -196.089ZM-5.96634 -207.848L-7.82102 -207.351L-7.32406 -205.496L-5.46938 -205.993L-5.96634 -207.848ZM0.822294 -219.606L-1.03239 -219.109L-0.535426 -217.254L1.31925 -217.751L0.822294 -219.606ZM26.1318 -154.825L27.9864 -155.322L27.4895 -157.177L25.6348 -156.68L26.1318 -154.825ZM42.8597 -129.489L44.7144 -129.986L44.2175 -131.841L42.3627 -131.344L42.8597 -129.489ZM31.1014 -136.278L32.9561 -136.775L32.4591 -138.63L30.6044 -138.133L31.1014 -136.278ZM21.1621 -173.372L23.0168 -173.869L22.5198 -175.723L20.6652 -175.226L21.1621 -173.372ZM309.532 494.806L311.386 494.309L310.89 492.454L309.035 492.951L309.532 494.806ZM323.109 471.289L324.964 470.792L324.467 468.937L322.612 469.434L323.109 471.289ZM299.592 457.712L301.447 457.215L300.95 455.36L299.095 455.857L299.592 457.712ZM336.686 447.772L338.541 447.275L338.044 445.421L336.189 445.918L336.686 447.772ZM318.139 452.742L319.994 452.245L319.497 450.39L317.642 450.887L318.139 452.742ZM304.562 476.259L306.417 475.762L305.92 473.907L304.065 474.404L304.562 476.259ZM311.351 464.5L313.205 464.003L312.709 462.149L310.854 462.646L311.351 464.5ZM329.898 459.531L331.752 459.034L331.255 457.179L329.401 457.676L329.898 459.531ZM294.623 439.165L296.478 438.668L295.981 436.813L294.126 437.31L294.623 439.165ZM331.717 429.226L333.571 428.729L333.074 426.874L331.22 427.371L331.717 429.226ZM313.17 434.195L315.024 433.698L314.528 431.843L312.673 432.34L313.17 434.195ZM306.381 445.953L308.236 445.456L307.739 443.602L305.884 444.099L306.381 445.953ZM324.928 440.984L326.783 440.487L326.286 438.632L324.431 439.129L324.928 440.984ZM350.264 424.256L352.118 423.759L351.621 421.904L349.767 422.401L350.264 424.256ZM343.475 436.014L345.33 435.517L344.833 433.662L342.978 434.159L343.475 436.014ZM316.32 483.047L318.175 482.55L317.678 480.696L315.823 481.193L316.32 483.047ZM302.743 506.564L304.598 506.067L304.101 504.212L302.246 504.709L302.743 506.564ZM290.985 499.775L292.84 499.278L292.343 497.424L290.488 497.921L290.985 499.775ZM281.046 462.681L282.9 462.184L282.403 460.33L280.549 460.827L281.046 462.681ZM286.015 481.228L287.87 480.731L287.373 478.877L285.518 479.374L286.015 481.228ZM295.954 518.322L297.809 517.825L297.312 515.97L295.458 516.467L295.954 518.322ZM328.079 489.836L329.933 489.339L329.436 487.484L327.582 487.981L328.079 489.836ZM341.656 466.319L343.511 465.822L343.014 463.968L341.159 464.465L341.656 466.319ZM355.233 442.803L357.088 442.306L356.591 440.451L354.736 440.948L355.233 442.803ZM348.445 454.561L350.299 454.064L349.802 452.209L347.948 452.706L348.445 454.561ZM368.811 419.286L370.665 418.789L370.168 416.935L368.314 417.432L368.811 419.286ZM362.022 431.045L363.877 430.548L363.38 428.693L361.525 429.19L362.022 431.045ZM334.867 478.078L336.722 477.581L336.225 475.726L334.37 476.223L334.867 478.078ZM321.29 501.594L323.145 501.097L322.648 499.243L320.793 499.74L321.29 501.594ZM314.501 513.353L316.356 512.856L315.859 511.001L314.004 511.498L314.501 513.353ZM307.713 525.111L309.567 524.614L309.07 522.759L307.216 523.256L307.713 525.111ZM300.924 536.869L302.779 536.372L302.282 534.518L300.427 535.014L300.924 536.869ZM312.682 543.658L314.537 543.161L314.04 541.306L312.185 541.803L312.682 543.658ZM305.894 555.416L307.748 554.919L307.251 553.064L305.397 553.561L305.894 555.416ZM346.626 484.866L348.48 484.369L347.983 482.515L346.129 483.012L346.626 484.866ZM360.203 461.35L362.058 460.853L361.561 458.998L359.706 459.495L360.203 461.35ZM373.78 437.833L375.635 437.336L375.138 435.481L373.283 435.978L373.78 437.833ZM366.992 449.591L368.846 449.094L368.349 447.24L366.495 447.737L366.992 449.591ZM387.358 414.317L389.212 413.82L388.715 411.965L386.861 412.462L387.358 414.317ZM380.569 426.075L382.424 425.578L381.927 423.723L380.072 424.22L380.569 426.075ZM353.414 473.108L355.269 472.611L354.772 470.756L352.917 471.253L353.414 473.108ZM339.837 496.625L341.692 496.128L341.195 494.273L339.34 494.77L339.837 496.625ZM333.048 508.383L334.903 507.886L334.406 506.031L332.551 506.528L333.048 508.383ZM326.26 520.141L328.114 519.644L327.617 517.79L325.763 518.287L326.26 520.141ZM319.471 531.899L321.326 531.402L320.829 529.548L318.974 530.045L319.471 531.899ZM292.804 469.47L294.659 468.973L294.162 467.118L292.307 467.615L292.804 469.47ZM276.076 444.134L277.931 443.637L277.434 441.783L275.579 442.28L276.076 444.134ZM287.834 450.923L289.689 450.426L289.192 448.571L287.337 449.068L287.834 450.923ZM297.773 488.017L299.628 487.52L299.131 485.665L297.277 486.162L297.773 488.017ZM250.635 11.6351L242.289 13.8714L240.053 5.52529L238.198 6.02227L240.932 16.2231L251.132 13.4898L250.635 11.6351ZM69.6578 300.658L78.004 298.422L80.2403 306.768L82.095 306.271L79.3617 296.07L69.1609 298.804L69.6578 300.658ZM883.726 -36.7418L773.372 -7.17242L816.071 152.183C816.667 154.409 816.665 157.888 816.064 160.096L730.172 480.673C729.576 482.9 727.838 485.91 726.207 487.54L491.526 722.213C489.895 723.843 486.883 725.584 484.676 726.176L325.321 768.875L354.89 879.229L353.035 879.726L303.339 694.257L294.394 660.872L294.384 660.835L293.648 658.09L164.098 692.803C161.872 693.399 158.393 693.397 156.184 692.796L-36.1114 641.271L-41.0949 646.264C-42.7256 647.894 -45.7377 649.635 -47.9448 650.227L-80.2907 658.894C-82.5163 659.49 -85.9956 659.488 -88.2041 658.887L-120.544 650.219C-121.4 649.991 -122.385 649.579 -123.353 649.083L-151.308 697.503L-152.978 696.539L-125.022 648.119C-125.936 647.529 -126.785 646.882 -127.41 646.254L-151.087 622.582C-152.717 620.951 -154.459 617.939 -155.05 615.732L-163.717 583.386C-164.313 581.16 -164.311 577.681 -163.71 575.472L-161.878 568.66L-302.648 427.89C-304.277 426.259 -306.019 423.247 -306.61 421.04L-341.323 291.489L-562.941 350.871L-563.438 349.017L-453.083 319.447L-495.782 160.092C-496.379 157.866 -496.377 154.387 -495.776 152.179L-409.884 -168.398C-409.288 -170.625 -407.55 -173.635 -405.919 -175.265L-171.237 -409.938C-169.607 -411.568 -166.595 -413.309 -164.388 -413.901L-5.03218 -456.6L-34.5966 -566.936L-32.7419 -567.433L26.6453 -345.797L156.177 -380.505C158.403 -381.101 161.882 -381.099 164.091 -380.498L356.386 -328.973L361.388 -333.971C363.019 -335.601 366.031 -337.342 368.238 -337.933L400.584 -346.6C402.81 -347.197 406.289 -347.195 408.498 -346.594L440.837 -337.925C441.693 -337.697 442.678 -337.285 443.646 -336.789L471.602 -385.21L473.271 -384.246L445.316 -335.825C446.229 -335.235 447.078 -334.588 447.704 -333.96L471.381 -310.288C473.01 -308.657 474.752 -305.645 475.343 -303.438L484.01 -271.092C484.607 -268.867 484.605 -265.387 484.004 -263.179L482.176 -256.348L622.946 -115.578C624.576 -113.947 626.312 -110.953 626.909 -108.728L661.621 20.8228L883.257 -38.5644L883.754 -36.7097L883.726 -36.7418ZM-167.011 341.035C-166.509 342.908 -164.917 345.662 -163.557 347.027L-30.7412 479.85C-29.358 481.229 -26.6301 482.803 -24.7445 483.312L156.692 531.922C158.577 532.431 161.735 532.42 163.608 531.918L253.394 507.86L229.043 416.98L164.11 434.378C161.884 434.975 158.405 434.973 156.196 434.372L24.467 399.08C23.6108 398.852 22.6258 398.44 21.658 397.944L12.1132 414.476L34.9243 427.646L33.9603 429.316L11.1492 416.146L-1.95293 438.839L-3.62258 437.876L9.47952 415.182L-13.214 402.08L-12.25 400.41L10.4435 413.512L19.9883 396.98C19.0748 396.39 18.2255 395.743 17.6002 395.115L-78.8282 298.68C-80.4579 297.05 -82.1993 294.037 -82.7907 291.83L-100.189 226.898L-191.069 251.249L-167.011 341.035ZM-107.53 -30.0339L-120.74 -7.15231L-80.6917 15.9698C-80.1016 15.0563 -79.4545 14.2071 -78.8269 13.5817L17.6081 -82.8467C19.2389 -84.4764 22.251 -86.2178 24.4581 -86.8092L89.391 -104.208L25.5659 -342.406C25.3848 -341.821 25.1516 -341.281 24.8801 -340.811L-156.01 -27.4997L-122.405 -8.09772L-109.194 -30.9794L-107.525 -30.0154L-107.53 -30.0339ZM-216.612 -60.2621L-215.648 -61.9318L-157.68 -28.4637L23.2104 -341.775C23.4141 -342.128 23.5929 -342.573 23.7482 -343.032L-104.263 -308.732C-106.136 -308.23 -108.89 -306.637 -110.255 -305.278L-301.27 -114.25C-302.648 -112.867 -304.223 -110.139 -304.732 -108.253L-374.659 152.684C-375.168 154.57 -375.157 157.728 -374.655 159.601L-340.295 287.834L-158.644 -26.794L-216.612 -60.2621ZM487.286 -28.7361C486.784 -30.6092 485.192 -33.3631 483.832 -34.7282L351.016 -167.551C349.633 -168.93 346.905 -170.505 345.019 -171.014L163.583 -219.624C161.697 -220.133 158.54 -220.121 156.667 -219.619L66.8808 -195.561L91.232 -104.681L156.165 -122.08C158.391 -122.676 161.87 -122.674 164.078 -122.073L295.808 -86.7815C296.664 -86.5537 297.649 -86.1418 298.617 -85.6457L308.162 -102.178L285.351 -115.348L286.315 -117.018L309.126 -103.848L322.228 -126.541L323.897 -125.577L310.795 -102.884L333.489 -89.7814L332.525 -88.1118L309.831 -101.214L300.286 -84.6817C301.2 -84.0916 302.049 -83.4445 302.675 -82.8169L399.103 13.6182C400.733 15.2489 402.474 18.261 403.065 20.4681L420.464 85.4009L511.344 61.0497L487.286 -28.7361ZM427.881 342.173L441.01 319.432L400.962 296.31C400.371 297.224 399.724 298.073 399.097 298.698L302.662 395.127C301.031 396.756 298.037 398.493 295.812 399.089L230.879 416.488L294.709 654.705C294.89 654.12 295.123 653.58 295.395 653.11L476.285 339.798L442.68 320.396L429.551 343.137L427.881 342.173ZM231.699 414.28L295.333 397.229C297.207 396.727 299.96 395.135 301.326 393.775L397.761 297.347C398.278 296.83 398.807 296.132 399.315 295.36L325.097 252.51L231.699 414.28ZM400.279 293.69C400.694 292.863 401.034 292.056 401.223 291.35L436.515 159.621C437.023 157.735 437.012 154.577 436.51 152.704L419.459 89.0695L326.061 250.84L400.279 293.69ZM380.159 83.2797L383.389 95.3352L418.628 85.8929L401.229 20.9601C400.727 19.0869 399.135 16.333 397.775 14.968L301.347 -81.4671C300.83 -81.9847 300.132 -82.5132 299.36 -83.0219L256.034 -7.98053L254.365 -8.94453L297.69 -83.9859C296.863 -84.4005 296.056 -84.7409 295.35 -84.9293L163.62 -120.221C161.735 -120.73 158.577 -120.719 156.704 -120.217L91.2146 -102.669L-97.5098 224.212L-63.5875 215.122L-66.8177 203.067L-64.963 202.57L-61.7328 214.625L-26.4936 205.183L-36.1844 169.016L-34.3297 168.519L-24.6389 204.686L29.1472 190.274L21.0665 160.117C20.4702 157.891 20.4723 154.412 21.0732 152.203L37.736 90.0508C38.3319 87.8237 40.0699 84.8136 41.7005 83.1839L87.1947 37.6774C88.8253 36.0477 91.8375 34.3063 94.0446 33.7149L125.129 25.3858L125.626 27.2405L94.5416 35.5696C92.6683 36.0715 89.9145 37.6642 88.5494 39.0239L43.0553 84.5305C41.6766 85.9137 40.1016 88.6416 39.5931 90.5272L22.9303 152.68C22.4217 154.565 22.433 157.723 22.9349 159.596L31.0155 189.753L66.2547 180.311L60.8378 160.095C60.2415 157.869 60.2434 154.39 60.8443 152.181L72.1779 109.904C72.7738 107.677 74.5117 104.667 76.1424 103.038L107.089 72.084C108.719 70.4544 111.731 68.7129 113.939 68.1215L156.207 56.7957C158.433 56.1994 161.912 56.2015 164.121 56.8024L206.398 68.1358C207.254 68.3636 208.239 68.7756 209.207 69.2716L227.224 38.0651L228.893 39.0291L210.876 70.2356C211.79 70.8257 212.639 71.4728 213.264 72.1004L244.218 103.047C245.848 104.677 247.589 107.69 248.18 109.897L253.597 130.113L344.477 105.762L334.787 69.595L336.641 69.0981L346.332 105.265L381.571 95.8223L378.341 83.7668L380.196 83.2698L380.159 83.2797ZM176.613 221.31L175.122 215.745C174.506 213.446 174.966 210.043 176.142 207.978L213.032 144.083C214.226 142.014 216.949 139.933 219.248 139.317L251.706 130.62L246.289 110.404C245.787 108.53 244.194 105.776 242.834 104.411L211.881 73.4651C211.364 72.9475 210.666 72.4189 209.894 71.9102L201.72 86.0673L200.051 85.1033L208.224 70.9462C207.397 70.5317 206.59 70.1912 205.884 70.0029L163.607 58.6694C161.721 58.1608 158.564 58.1721 156.69 58.674L114.422 69.9998C112.549 70.5018 109.795 72.0944 108.43 73.4541L77.4836 104.408C76.1049 105.791 74.5299 108.519 74.0213 110.404L62.6879 152.681C62.1794 154.567 62.1906 157.725 62.6925 159.598L68.1094 179.814L100.567 171.117C102.366 170.635 104.674 168.864 105.611 167.241L142.5 103.347C143.437 101.724 143.817 98.8391 143.335 97.0401L141.844 91.476L143.699 90.979L145.19 96.5431C145.806 98.8429 145.346 102.246 144.17 104.311L107.28 168.205C106.086 170.275 103.363 172.356 101.064 172.972L68.6064 181.669L74.0233 201.885C74.5252 203.758 76.1178 206.512 77.4776 207.877L108.431 238.823C108.947 239.341 109.646 239.87 110.418 240.378L118.605 226.198L120.275 227.162L112.088 241.342C112.915 241.757 113.721 242.097 114.428 242.286L156.705 253.619C158.59 254.128 161.748 254.117 163.621 253.615L205.89 242.289C207.763 241.787 210.517 240.194 211.882 238.834L242.828 207.881C244.207 206.498 245.782 203.77 246.291 201.884L257.624 159.607C258.133 157.722 258.121 154.564 257.619 152.691L252.203 132.474L219.745 141.171C217.946 141.653 215.638 143.425 214.701 145.047L177.812 208.942C176.875 210.565 176.495 213.449 176.977 215.248L178.468 220.813L176.613 221.31ZM88.5761 -101.982L24.9415 -84.931C23.0683 -84.429 20.3144 -82.8364 18.9493 -81.4767L-77.4857 14.9518C-78.0034 15.4682 -78.5319 16.1664 -79.0406 16.9388L-4.82224 59.7888L88.5761 -101.982ZM-80.0045 18.6085C-80.4191 19.4352 -80.7596 20.242 -80.948 20.9485L-116.24 152.678C-116.748 154.564 -116.737 157.721 -116.235 159.594L-99.1845 223.229L-5.78622 61.4585L-80.0045 18.6085ZM-98.3532 226.406L-80.9545 291.338C-80.4526 293.212 -78.8599 295.965 -77.5003 297.33L18.9282 393.766C19.4446 394.283 20.1428 394.812 20.9152 395.32L64.2404 320.279L65.9101 321.243L22.5849 396.284C23.4116 396.699 24.2185 397.039 24.925 397.228L156.654 432.52C158.54 433.028 161.698 433.017 163.571 432.515L229.06 414.967L417.785 88.0869L383.862 97.1764L387.093 109.232L385.238 109.729L382.008 97.6733L346.768 107.116L356.459 143.282L354.605 143.779L344.914 107.613L291.128 122.025L299.208 152.182C299.805 154.408 299.803 157.887 299.202 160.095L282.539 222.248C281.943 224.475 280.205 227.485 278.574 229.115L233.08 274.621C231.449 276.251 228.456 277.987 226.23 278.584L195.146 286.913L194.649 285.058L225.733 276.729C227.606 276.227 230.36 274.634 231.725 273.275L277.219 227.768C278.598 226.385 280.173 223.657 280.682 221.771L297.344 159.619C297.853 157.733 297.842 154.576 297.34 152.702L289.259 122.545L254.02 131.987L259.437 152.203C260.033 154.429 260.031 157.908 259.43 160.117L248.097 202.394C247.501 204.621 245.763 207.631 244.132 209.261L213.186 240.214C211.555 241.844 208.543 243.586 206.336 244.177L164.068 255.503C161.842 256.099 158.363 256.097 156.154 255.496L113.877 244.163C113.021 243.935 112.036 243.523 111.068 243.027L93.0511 274.233L91.3814 273.269L109.399 242.063C108.485 241.473 107.636 240.826 107.01 240.198L76.0569 209.252C74.4272 207.621 72.6907 204.627 72.0944 202.402L66.6775 182.186L-24.2026 206.537L-14.5118 242.703L-16.3665 243.2L-26.0572 207.034L-61.2964 216.476L-58.0662 228.532L-59.9209 229.029L-63.1511 216.973L-98.3903 226.415L-98.3532 226.406ZM296.527 655.331L424.538 621.031C426.411 620.529 429.165 618.936 430.53 617.576L621.544 426.548C622.923 425.165 624.498 422.437 625.007 420.552L694.934 159.614C695.443 157.729 695.432 154.571 694.93 152.698L660.569 24.4642L478.919 339.092L536.887 372.561L535.923 374.23L477.955 340.762L297.064 654.074C296.861 654.426 296.682 654.872 296.527 655.331ZM444.328 -334.169L429.502 -308.489C430.415 -307.899 431.264 -307.252 431.89 -306.624L480.58 -257.928L482.118 -263.687C482.627 -265.573 482.615 -268.731 482.114 -270.604L473.446 -302.95C472.945 -304.823 471.352 -307.577 469.992 -308.942L446.315 -332.614C445.799 -333.132 445.1 -333.66 444.328 -334.169ZM335.593 -231.344C336.095 -229.471 337.687 -226.717 339.047 -225.352L362.724 -201.679C364.107 -200.301 366.835 -198.726 368.721 -198.217L401.06 -189.548C402.946 -189.04 406.104 -189.051 407.977 -189.553L440.323 -198.22C442.196 -198.722 444.95 -200.314 446.315 -201.674L469.987 -225.351C471.366 -226.734 472.941 -229.462 473.449 -231.348L480.001 -255.785L430.525 -305.265C430.008 -305.782 429.31 -306.311 428.538 -306.819L419.129 -290.522L429.212 -252.891L391.58 -242.807L378.207 -219.643L376.537 -220.607L389.911 -243.771L385.294 -261.001L331.508 -246.589L335.593 -231.344ZM426.868 -307.783C426.041 -308.198 425.234 -308.538 424.528 -308.727L356.939 -326.835L339.052 -308.942C337.673 -307.559 336.099 -304.831 335.59 -302.946L326.921 -270.606C326.412 -268.721 326.424 -265.563 326.926 -263.69L331.011 -248.444L384.797 -262.856L379.827 -281.403L417.459 -291.486L426.868 -307.783ZM409.109 -277.024L416.101 -289.135L382.179 -280.045L391.268 -246.123L398.261 -258.234L399.93 -257.27L392.938 -245.159L426.86 -254.248L417.771 -288.171L410.779 -276.06L409.109 -277.024ZM358.511 -328.389L425.028 -310.57C425.884 -310.342 426.869 -309.93 427.837 -309.434L442.663 -335.115C441.837 -335.529 441.03 -335.87 440.323 -336.058L407.984 -344.727C406.098 -345.235 402.941 -345.224 401.067 -344.722L368.722 -336.055C366.848 -335.553 364.095 -333.961 362.729 -332.601L358.511 -328.389ZM27.1287 -343.918L66.3888 -197.398L156.175 -221.456C158.4 -222.052 161.88 -222.05 164.088 -221.449L345.524 -172.839C347.751 -172.243 350.761 -170.505 352.391 -168.874L485.207 -36.0508C486.837 -34.4201 488.578 -31.408 489.169 -29.2009L513.227 60.5849L557.74 48.6577L555.255 39.3843L575.657 33.9177L581.123 54.3193L560.722 59.7859L558.237 50.5125L420.99 87.2878L438.388 152.221C438.985 154.446 438.983 157.926 438.382 160.134L403.09 291.863C402.862 292.72 402.45 293.705 401.954 294.673L442.003 317.795L454.969 295.336L456.639 296.3L443.672 318.759L477.278 338.161L659.892 21.8626L625.035 -108.226C624.533 -110.099 622.941 -112.853 621.581 -114.218L481.598 -254.205L475.335 -230.839C474.739 -228.612 473.001 -225.602 471.37 -223.973L447.698 -200.296C446.067 -198.666 443.055 -196.924 440.848 -196.333L408.502 -187.666C406.277 -187.07 402.797 -187.072 400.589 -187.673L368.249 -196.341C366.022 -196.937 363.012 -198.675 361.383 -200.306L337.705 -223.978C336.076 -225.609 334.334 -228.621 333.743 -230.828L329.658 -246.074L274.944 -231.413L274.447 -233.268L329.161 -247.929L325.076 -263.174C324.48 -265.4 324.482 -268.879 325.083 -271.088L333.751 -303.427C334.347 -305.654 336.085 -308.664 337.716 -310.294L354.82 -327.4L163.596 -378.636C161.71 -379.144 158.552 -379.133 156.679 -378.631L27.1472 -343.923L27.1287 -343.918ZM578.748 52.9481L574.276 36.2558L557.583 40.7285L562.056 57.4207L578.748 52.9481ZM-341.81 289.672L-376.523 160.121C-377.119 157.896 -377.117 154.416 -376.517 152.208L-306.589 -108.73C-305.993 -110.957 -304.255 -113.967 -302.624 -115.596L-111.61 -306.624C-109.979 -308.254 -106.985 -309.99 -104.76 -310.587L24.1786 -345.136C24.2911 -346.199 24.2688 -347.247 24.0452 -348.082L15.0998 -381.466L-4.53024 -454.727L-163.886 -412.027C-165.759 -411.525 -168.513 -409.933 -169.878 -408.573L-404.559 -173.9C-405.938 -172.517 -407.513 -169.789 -408.022 -167.903L-493.914 152.674C-494.422 154.559 -494.411 157.717 -493.909 159.59L-451.21 318.945L-341.783 289.625L-341.81 289.672ZM-124.067 646.491L-109.24 620.811C-110.154 620.221 -111.003 619.574 -111.629 618.946L-160.319 570.25L-161.862 575.991C-162.37 577.876 -162.359 581.034 -161.857 582.907L-153.19 615.253C-152.688 617.126 -151.096 619.88 -149.736 621.245L-126.059 644.918C-125.542 645.435 -124.844 645.964 -124.072 646.472L-124.067 646.491ZM-15.3315 543.666C-15.8334 541.792 -17.4261 539.039 -18.7858 537.674L-42.4629 514.001C-43.8461 512.623 -46.574 511.048 -48.4596 510.539L-80.799 501.87C-82.6846 501.362 -85.8422 501.373 -87.7155 501.875L-120.061 510.542C-121.935 511.044 -124.688 512.636 -126.054 513.996L-149.726 537.673C-151.105 539.056 -152.68 541.784 -153.188 543.67L-159.735 568.126L-110.258 617.605C-109.742 618.123 -109.044 618.651 -108.272 619.16L-98.8624 602.863L-108.946 565.231L-71.3141 555.148L-57.9404 531.984L-56.2707 532.948L-69.6444 556.112L-65.0276 573.342L-11.2414 558.93L-15.3265 543.684L-15.3315 543.666ZM-106.607 620.105C-105.78 620.52 -104.973 620.86 -104.267 621.049L-36.6779 639.157L-18.7723 621.259C-17.3936 619.876 -15.8186 617.148 -15.3101 615.263L-6.64127 582.923C-6.13272 581.038 -6.14394 577.88 -6.64587 576.007L-10.7309 560.761L-64.517 575.173L-59.5474 593.72L-97.1792 603.803L-106.588 620.1L-106.607 620.105ZM-88.8476 589.346L-95.84 601.457L-61.9176 592.367L-71.0071 558.445L-77.9994 570.556L-79.6691 569.592L-72.6767 557.481L-106.599 566.57L-97.5097 600.493L-90.5173 588.382L-88.8476 589.346ZM-38.2493 640.711L-104.767 622.892C-105.623 622.664 -106.608 622.253 -107.576 621.756L-122.402 647.437C-121.575 647.851 -120.769 648.192 -120.062 648.38L-87.7227 657.049C-85.8371 657.557 -82.6794 657.546 -80.8062 657.044L-48.4603 648.377C-46.5871 647.875 -43.8333 646.282 -42.4682 644.923L-38.2679 640.716L-38.2493 640.711ZM293.151 656.235L253.891 509.715L164.105 533.773C161.88 534.369 158.4 534.367 156.192 533.766L-25.2444 485.156C-27.4715 484.56 -30.4816 482.822 -32.1113 481.191L-164.927 348.368C-166.557 346.737 -168.298 343.725 -168.89 341.518L-192.948 251.732L-237.46 263.659L-234.975 272.933L-255.377 278.399L-260.844 257.998L-240.442 252.531L-237.957 261.805L-100.71 225.029L-118.109 160.096C-118.705 157.871 -118.703 154.391 -118.102 152.183L-82.81 20.4535C-82.5822 19.5973 -82.1703 18.6124 -81.6743 17.6445L-121.723 -5.4776L-134.594 16.8161L-136.264 15.8521L-123.393 -6.44164L-156.998 -25.8436L-339.613 290.454L-304.756 420.543C-304.254 422.416 -302.661 425.17 -301.301 426.535L-161.318 566.522L-155.06 543.138C-154.464 540.911 -152.726 537.901 -151.096 536.271L-127.423 512.594C-125.792 510.964 -122.78 509.223 -120.573 508.631L-88.2274 499.964C-86.0018 499.368 -82.5225 499.37 -80.314 499.971L-47.9746 508.64C-45.7475 509.236 -42.7373 510.974 -41.1077 512.604L-17.4306 536.277C-15.801 537.907 -14.0596 540.92 -13.4682 543.127L-9.38315 558.372L45.3304 543.712L45.8273 545.567L-8.88617 560.227L-4.80112 575.473C-4.20475 577.698 -4.2068 581.178 -4.80773 583.386L-13.4765 615.725C-14.0725 617.953 -15.8104 620.963 -17.4411 622.592L-34.5635 639.704L156.661 690.939C158.546 691.448 161.704 691.437 163.577 690.935L293.128 656.222L293.151 656.235ZM-258.469 259.369L-253.996 276.061L-237.304 271.589L-241.776 254.896L-258.469 259.369ZM771.517 -6.67548L662.09 22.6454L696.803 152.196C697.399 154.421 697.397 157.901 696.796 160.109L626.869 421.046C626.273 423.274 624.535 426.284 622.904 427.914L431.89 618.941C430.259 620.571 427.247 622.312 425.04 622.904L296.101 657.453C295.984 658.498 296.025 659.54 296.243 660.357L324.829 767.039L484.184 724.34C486.057 723.838 488.811 722.245 490.176 720.885L724.858 486.212C726.236 484.829 727.811 482.101 728.32 480.215L814.212 159.638C814.721 157.753 814.709 154.595 814.207 152.722L771.508 -6.6334L771.517 -6.67548Z" fill="white" fill-opacity="0.086"/>
</g>
<path d="M176 157.2H166.464C165.696 157.2 164.784 156.816 164.256 156.288L159.728 151.76C159.184 151.216 158.816 150.304 158.816 149.552V140H161.216V149.536C161.216 149.664 161.344 149.968 161.424 150.048L165.952 154.576C166.048 154.672 166.336 154.784 166.464 154.784H176V157.184V157.2ZM161.2 162.464C161.2 161.696 160.816 160.784 160.288 160.256L155.76 155.728C155.216 155.184 154.304 154.816 153.552 154.816H144V157.216H153.536C153.664 157.216 153.968 157.344 154.048 157.424L158.576 161.952C158.672 162.048 158.784 162.336 158.784 162.464V172H161.184V162.464H161.2Z" fill="white"/>
<path d="M155.494 284L144.912 273.408C144.368 272.88 144 271.952 144 271.2V264.8C144 264.032 144.384 263.12 144.912 262.576L155.494 252L157.191 253.696L146.609 264.288C146.513 264.384 146.401 264.672 146.401 264.8V271.2C146.401 271.328 146.529 271.616 146.609 271.712L157.207 282.304L155.51 284H155.494ZM162.793 253.696L173.391 264.288C173.487 264.384 173.599 264.672 173.599 264.8V271.2C173.599 271.328 173.471 271.616 173.391 271.712L162.809 282.304L164.506 284L175.088 273.424C175.632 272.88 176 271.968 176 271.2V264.8C176 264.032 175.616 263.12 175.088 262.592L164.49 252L162.793 253.696Z" fill="white"/>
<path d="M146.401 396H144V388.8C144 388.032 144.384 387.12 144.912 386.592L159.784 371.728C159.88 371.632 159.992 371.344 159.992 371.216V364H162.393V371.2C162.393 371.968 162.025 372.88 161.481 373.408L146.609 388.272C146.513 388.368 146.401 388.656 146.401 388.784V395.984V396ZM160.008 388.8C160.008 388.672 160.136 388.384 160.216 388.288L175.088 373.424C175.632 372.88 176 371.968 176 371.216V364H173.599V371.2C173.599 371.328 173.471 371.632 173.391 371.712L158.519 386.576C157.975 387.12 157.607 388.032 157.607 388.784V395.984H160.008V388.784V388.8Z" fill="white"/>
<path d="M174.273 492.4L162.087 480.208C161.991 480.112 161.703 480 161.575 480H158.377C158.249 480 157.961 480.128 157.865 480.208L145.679 492.4L143.984 490.704L156.17 478.512C156.714 477.968 157.625 477.6 158.377 477.6H161.575C162.343 477.6 163.254 477.984 163.782 478.512L175.952 490.704L174.257 492.4H174.273ZM175.968 505.104L163.798 492.912C163.254 492.368 162.343 492 161.591 492H158.393C157.625 492 156.714 492.384 156.186 492.912L144 505.104L145.695 506.8L157.881 494.608C157.977 494.512 158.265 494.4 158.393 494.4H161.591C161.719 494.4 162.007 494.528 162.103 494.608L174.289 506.8L175.984 505.104H175.968Z" fill="white"/>
</g>
<defs>
<linearGradient id="paint0_linear_959_41081" x1="85.1376" y1="43.5086" x2="185.764" y2="610.684" gradientUnits="userSpaceOnUse">
<stop stop-color="#8057FF"/>
<stop offset="1"/>
</linearGradient>
<clipPath id="clip0_959_41081">
<path d="M0 10C0 4.47717 4.47715 0 10 0H310C315.523 0 320 4.47715 320 10V638C320 643.523 315.523 648 310 648H10C4.47715 648 0 643.523 0 638V10Z" fill="white"/>
</clipPath>
<clipPath id="clip1_959_41081">
<rect width="1497.69" height="1497.69" fill="white" transform="translate(-757 -373.368) rotate(-15)"/>
</clipPath>
</defs>
</svg>
