<svg width="24" height="24" viewBox="0 0 24 24" fill="none" xmlns="http://www.w3.org/2000/svg">
<path fill-rule="evenodd" clip-rule="evenodd" d="M3 10.5394V8.52776H14.093C14.1035 8.52453 14.1184 8.51909 14.1359 8.51152C14.1544 8.50348 14.1716 8.49488 14.1847 8.4875L14.1893 8.48485L19.6155 2.87634L21 4.30549L15.5682 9.91972C15.2061 10.2935 14.6171 10.5394 14.1133 10.5394H3ZM19.6155 21.1237L14.1808 15.5065C14.1717 15.5012 14.1578 15.4942 14.141 15.4873C14.1242 15.4803 14.1091 15.4753 14.0985 15.4725L3 15.4723V13.4606L14.1133 13.4606C14.628 13.4606 15.2165 13.7172 15.5682 14.0803L21 19.6945L19.6155 21.1237Z" fill="#ECEEEC"/>
</svg>
