<svg width="24" height="24" viewBox="0 0 24 24" fill="none" xmlns="http://www.w3.org/2000/svg">
<path fill-rule="evenodd" clip-rule="evenodd" d="M12 22C6.46512 22 2.00002 17.5349 2.00002 12C2.00002 6.46511 6.46512 2 12 2C17.5349 2 22 6.46511 22 12C22 17.5349 17.5349 22 12 22ZM12 2.93023C7.02326 2.93023 2.93025 7.02325 2.93025 12C2.93025 16.9767 7.02326 21.0697 12 21.0697C16.9767 21.0697 21.0698 16.9767 21.0698 12C21.0698 7.02325 16.9767 2.93023 12 2.93023Z" fill="#008AEE"/>
<path d="M17.8605 12.4651C17.3488 12.5116 16.8372 12.5116 16.3256 12.5581L14.7907 12.6046C14.3721 12.6512 13.907 12.6512 13.4884 12.6512C13.907 12.7907 14.2791 12.9767 14.6977 13.1628L16.093 13.8139C16.5581 14 17.0232 14.2326 17.4884 14.4651L17.3488 14.8372C16.8837 14.6977 16.3721 14.5116 15.907 14.3256L14.4651 13.7674C14.0465 13.6279 13.6744 13.4419 13.2558 13.3023C13.5349 13.5814 13.8605 13.907 14.1395 14.2326L15.2093 15.3488C15.5349 15.7674 15.907 16.1395 16.2325 16.5116L15.9535 16.7907C15.5349 16.4651 15.1628 16.093 14.7907 15.7674L13.6744 14.6977C13.3488 14.4186 13.0698 14.1395 12.7442 13.8139C12.8837 14.2326 13.0698 14.6046 13.2093 15.0232L13.6744 16.5581L13.6744 16.5581C13.8605 17.0233 14.0465 17.4884 14.186 18L13.8139 18.1395C13.5814 17.6744 13.3953 17.2093 13.1628 16.7442L12.5116 15.3488C12.3256 14.9302 12.186 14.5581 12 14.1395C11.9535 14.5581 11.9535 15.0232 11.9535 15.4419L11.907 16.9767C11.8605 17.4884 11.8605 18 11.814 18.5116H11.4419C11.3953 18 11.3953 17.4884 11.3488 16.9767L11.3023 15.4419C11.2558 14.5581 11.2558 13.6279 11.2558 12.7442C10.3721 12.7442 9.48837 12.7442 8.55814 12.6977L7.02326 12.6512C6.51164 12.6046 6.00001 12.6046 5.48838 12.5581V12.1395C6.00001 12.093 6.51164 12.093 7.02326 12.0465L8.55814 12H9.81396C9.44186 11.814 9.02326 11.6744 8.65117 11.4884L7.25582 10.8372C6.7907 10.6046 6.32559 10.4186 5.86047 10.186L6.04652 9.76744C6.51164 9.90698 7.02326 10.093 7.48838 10.2791L8.93024 10.8372C9.34884 10.9767 9.76744 11.1628 10.1395 11.3023C9.86047 10.9767 9.53489 10.6977 9.25582 10.3721L8.18605 9.25581C7.86047 8.83721 7.48838 8.46512 7.1628 8.09303L7.48838 7.76744C7.90698 8.09303 8.27907 8.46512 8.65117 8.7907L9.76744 9.86046C10.093 10.1395 10.3721 10.4651 10.6977 10.7442C10.5581 10.3256 10.3721 9.95349 10.2326 9.53488L9.67442 8.09303C9.48837 7.62791 9.34884 7.16279 9.16279 6.65117L9.53489 6.51163C9.76744 6.97675 9.95349 7.44186 10.186 7.90698L10.8372 9.30233C11.0233 9.67442 11.1628 10.093 11.3488 10.4651V9.2093L11.3953 7.67442C11.4419 7.16279 11.4419 6.65117 11.4884 6.13954H11.907C11.9535 6.65117 11.9535 7.16279 12 7.67442L12.0465 9.2093C12.093 10.093 12.093 11.0233 12.093 11.907C12.9767 11.907 13.907 11.907 14.7907 11.9535L16.3256 12C16.8372 12.0465 17.3488 12.0465 17.8605 12.093V12.4651Z" fill="#008AEE"/>
</svg>
