<svg width="32" height="32" viewBox="0 0 32 32" fill="none" xmlns="http://www.w3.org/2000/svg">
<path d="M14.2255 8.04924H17.3874V5.18152H14.2255V8.04924Z" fill="#066DA5"/>
<path d="M6.84779 11.5207H9.93437V8.65297H6.84779V11.5207Z" fill="#066DA5"/>
<path d="M10.5366 11.5207H13.6985V8.65297H10.5366V11.5207Z" fill="#066DA5"/>
<path d="M14.2255 11.5207H17.3874V8.65297H14.2255V11.5207Z" fill="#066DA5"/>
<path d="M3.08365 14.9921H6.24552V12.1244H3.08365V14.9921Z" fill="#066DA5"/>
<path d="M6.84779 14.9921H9.93437V12.1244H6.84779V14.9921Z" fill="#066DA5"/>
<path d="M10.5366 14.9921H13.6985V12.1244H10.5366V14.9921Z" fill="#066DA5"/>
<path d="M14.2255 14.9921H17.3874V12.1244H14.2255V14.9921Z" fill="#066DA5"/>
<path d="M17.9896 14.9921H21.1515V12.1244H17.9896V14.9921Z" fill="#066DA5"/>
<path d="M27.0988 12.8791C29.8843 12.4263 31.2394 13.7092 31.2394 13.7092C31.2394 13.7092 30.4113 16.9543 26.4966 16.6524C23.8617 22.9916 18.2908 26.463 10.8378 26.463C0.448762 26.463 0.448761 16.9543 0.825175 15.5204H21.5279C22.6571 15.5204 23.41 15.2185 23.8617 14.9921C22.2807 12.0489 24.4639 9.40763 24.4639 9.40763C24.4639 9.40763 26.7977 10.6906 27.0988 12.8791Z" fill="#066DA5"/>
</svg>
