<svg width="24" height="24" viewBox="0 0 24 24" fill="none" xmlns="http://www.w3.org/2000/svg">
<path d="M14.6906 8.38447H15.3006L17.039 6.64598L17.1244 5.90788C16.1285 5.02884 14.925 4.41821 13.6274 4.13366C12.3299 3.84911 10.9812 3.90003 9.70885 4.28162C8.43647 4.66321 7.28237 5.36287 6.35558 6.31451C5.42878 7.26615 4.75989 8.43834 4.41208 9.72037C4.60576 9.64098 4.8203 9.62811 5.02208 9.68377L8.49907 9.11037C8.49907 9.11037 8.67597 8.81757 8.76747 8.83587C9.51248 8.01766 10.5421 7.51516 11.6454 7.43124C12.7488 7.34733 13.8426 7.68834 14.7028 8.38447H14.6906Z" fill="#EA4335"/>
<path d="M19.516 9.7203C19.1164 8.24876 18.296 6.92586 17.1553 5.91391L14.7153 8.3539C15.2239 8.76941 15.6314 9.29497 15.9072 9.89094C16.183 10.4869 16.3198 11.1377 16.3074 11.7943V12.2274C16.5926 12.2274 16.875 12.2836 17.1385 12.3927C17.4019 12.5018 17.6413 12.6618 17.843 12.8634C18.0446 13.0651 18.2046 13.3045 18.3137 13.568C18.4229 13.8314 18.479 14.1138 18.479 14.399C18.479 14.6842 18.4229 14.9665 18.3137 15.23C18.2046 15.4935 18.0446 15.7329 17.843 15.9345C17.6413 16.1362 17.4019 16.2961 17.1385 16.4053C16.875 16.5144 16.5926 16.5706 16.3074 16.5706H11.9642L11.5311 17.0098V19.6145L11.9642 20.0476H16.3074C17.5203 20.057 18.7039 19.6758 19.6833 18.9604C20.6627 18.245 21.3858 17.2333 21.7456 16.0751C22.1055 14.9169 22.083 13.6735 21.6814 12.5291C21.2799 11.3846 20.5207 10.3998 19.516 9.7203Z" fill="#4285F4"/>
<path d="M7.61317 20.0235H11.9564V16.5465H7.61317C7.30374 16.5465 6.99793 16.4799 6.71647 16.3513L6.10647 16.5404L4.35578 18.2789L4.20328 18.8889C5.18503 19.6303 6.38297 20.0289 7.61317 20.0235Z" fill="#34A853"/>
<path d="M7.61484 8.74412C6.43805 8.75115 5.29283 9.12555 4.33915 9.81503C3.38547 10.5045 2.67094 11.4746 2.29537 12.5899C1.91981 13.7052 1.90195 14.9099 2.24431 16.0358C2.58666 17.1618 3.27212 18.1526 4.20495 18.8701L6.72425 16.3508C6.4041 16.2062 6.12382 15.986 5.90746 15.7092C5.6911 15.4324 5.54512 15.1073 5.48204 14.7617C5.41897 14.4161 5.44068 14.0604 5.54531 13.725C5.64995 13.3896 5.83439 13.0847 6.0828 12.8363C6.33121 12.5878 6.63618 12.4034 6.97155 12.2988C7.30691 12.1941 7.66265 12.1724 8.00825 12.2355C8.35385 12.2986 8.67899 12.4446 8.95576 12.6609C9.23254 12.8773 9.4527 13.1576 9.59734 13.4777L12.1166 10.9584C11.5879 10.2671 10.9063 9.70755 10.1254 9.32341C9.34441 8.93928 8.48517 8.74101 7.61484 8.74412Z" fill="#FBBC05"/>
</svg>
