<svg width="24" height="24" viewBox="0 0 24 24" fill="none" xmlns="http://www.w3.org/2000/svg">
<g clip-path="url(#clip0_627_27178)">
<path fill-rule="evenodd" clip-rule="evenodd" d="M9.40002 2.37598C7.87433 2.37598 6.63345 3.61665 6.63345 5.14256C6.63345 6.35823 7.42122 7.38962 8.51106 7.76038V8.60357C7.02672 8.99707 5.9281 10.3486 5.9281 11.9568C5.9281 13.5727 7.03749 14.9293 8.5327 15.3153V16.2317C7.43138 16.5962 6.63345 17.6338 6.63345 18.8575C6.63345 20.3834 7.87433 21.6241 9.40002 21.6241C10.9257 21.6241 12.1666 20.3834 12.1666 18.8575C12.1666 17.6338 11.3687 16.5962 10.2673 16.2317V15.3153C10.8763 15.1583 11.4311 14.8387 11.8723 14.3911L12.5702 14.8851C12.536 15.057 12.5175 15.2351 12.5175 15.418C12.5175 16.9439 13.7584 18.1845 15.284 18.1845C16.8098 18.1845 18.0506 16.9439 18.0506 15.418C18.0506 13.8921 16.8098 12.6514 15.284 12.6514C14.5699 12.6514 13.9204 12.9246 13.4305 13.3687L12.7433 12.8823C12.8258 12.5886 12.8719 12.2787 12.8719 11.9568C12.8719 11.6419 12.8278 11.3385 12.7487 11.0506L13.434 10.5695C13.9234 11.0118 14.5716 11.2838 15.284 11.2838C16.8098 11.2838 18.0506 10.0431 18.0506 8.51722C18.0506 6.99131 16.8098 5.75065 15.284 5.75065C13.7584 5.75065 12.5175 6.99131 12.5175 8.51722C12.5175 8.7021 12.5363 8.88222 12.5713 9.05609L11.8857 9.53729C11.4439 9.08406 10.8792 8.75199 10.2457 8.59304V7.77639C11.3585 7.41835 12.1666 6.3741 12.1666 5.14256C12.1666 3.61665 10.9257 2.37598 9.40002 2.37598ZM8.5756 5.14256C8.5756 4.68838 8.94571 4.31817 9.40002 4.31817C9.85434 4.31817 10.2244 4.68836 10.2244 5.14256C10.2244 5.59674 9.85434 5.96695 9.40002 5.96695C8.94571 5.96695 8.5756 5.59673 8.5756 5.14256ZM14.4597 8.51722C14.4597 8.06301 14.8298 7.69278 15.284 7.69278C15.7383 7.69278 16.1084 8.06301 16.1084 8.51722C16.1084 8.97143 15.7384 9.34162 15.284 9.34162C14.8298 9.34162 14.4597 8.97143 14.4597 8.51722ZM8.11261 11.9568C8.11261 11.2473 8.69039 10.6695 9.39994 10.6695C10.1095 10.6695 10.6872 11.2472 10.6872 11.9568C10.6872 12.6662 10.1095 13.2439 9.39994 13.2439C8.69034 13.2439 8.11261 12.6662 8.11261 11.9568ZM14.4597 15.418C14.4597 14.9638 14.8298 14.5936 15.284 14.5936C15.7384 14.5936 16.1084 14.9638 16.1084 15.418C16.1084 15.8722 15.7383 16.2424 15.284 16.2424C14.8298 16.2424 14.4597 15.8722 14.4597 15.418ZM8.5756 18.8575C8.5756 18.4033 8.94571 18.0331 9.40002 18.0331C9.85434 18.0331 10.2244 18.4033 10.2244 18.8575C10.2244 19.3117 9.85434 19.6819 9.40002 19.6819C8.94571 19.6819 8.5756 19.3117 8.5756 18.8575Z" fill="white"/>
</g>
<defs>
<clipPath id="clip0_627_27178">
<rect width="12.8947" height="20" fill="white" transform="translate(5.55261 2)"/>
</clipPath>
</defs>
</svg>
