<svg width="32" height="32" viewBox="0 0 32 32" fill="none" xmlns="http://www.w3.org/2000/svg">
<path fill-rule="evenodd" clip-rule="evenodd" d="M10.1493 31.1283C9.41884 31.1283 8.71015 30.7948 8.2435 30.1886L1.14785 21.0922C0.914349 20.7949 0.751089 20.4487 0.67028 20.0794C0.589471 19.7102 0.593205 19.3274 0.681203 18.9598L3.22159 7.60669C3.38296 6.85447 3.87141 6.24833 4.54085 5.91474L14.8223 0.856315C15.1494 0.686247 15.5136 0.603394 15.8799 0.603394C16.2463 0.603394 16.6104 0.686247 16.9375 0.854134L27.2147 5.89293C27.8863 6.22653 28.3747 6.83485 28.5361 7.58707L31.0765 18.9402C31.2379 19.6924 31.0765 20.4664 30.6098 21.0726L23.5077 30.1821C23.041 30.7664 22.3301 31.1283 21.5996 31.1283H10.1493ZM26.9792 18.406L27.0468 18.4234C27.1388 18.4358 27.2272 18.467 27.3065 18.5152C27.3858 18.5635 27.4543 18.6276 27.5076 18.7036C27.5608 18.7796 27.5978 18.8659 27.616 18.9569C27.6343 19.0479 27.6335 19.1417 27.6137 19.2323C27.5932 19.3235 27.5538 19.4093 27.4981 19.4842C27.4423 19.5592 27.3715 19.6216 27.2901 19.6674C27.2087 19.7133 27.1186 19.7415 27.0256 19.7503C26.9326 19.7591 26.8387 19.7483 26.7502 19.7186H26.7415L26.7349 19.7164L26.7284 19.7142L26.663 19.6989L26.5539 19.6771C26.3505 19.6116 26.151 19.5345 25.9565 19.446C25.5809 19.2953 25.1917 19.1814 24.7942 19.1059C24.6568 19.1013 24.523 19.1506 24.4213 19.2432C24.3263 19.2252 24.2311 19.2085 24.1357 19.1931C23.489 21.2183 22.1199 22.935 20.2891 24.016C20.3218 24.1076 20.3589 24.197 20.4003 24.2842C20.3326 24.4034 20.3146 24.5444 20.3502 24.6767C20.5115 25.0473 20.7099 25.4006 20.9411 25.732C21.0719 25.902 21.1897 26.0808 21.2987 26.264L21.3598 26.3883L21.3859 26.4428C21.4587 26.5634 21.4915 26.704 21.4794 26.8443C21.4674 26.9847 21.4113 27.1177 21.319 27.2242C21.2268 27.3307 21.1032 27.4053 20.966 27.4372C20.8288 27.4692 20.6849 27.4569 20.5551 27.4021C20.4687 27.3665 20.3906 27.3132 20.326 27.2456C20.2614 27.178 20.2117 27.0976 20.1801 27.0097C20.1729 26.9951 20.1656 26.9806 20.1583 26.9661L20.0972 26.8396C20.0208 26.64 19.956 26.4362 19.9031 26.2291C19.7873 25.8429 19.6339 25.469 19.4452 25.1128C19.3632 25.0019 19.2411 24.9276 19.105 24.9056C19.083 24.8672 19.0612 24.8287 19.0396 24.7901L18.9633 24.6505C16.9781 25.4003 14.7867 25.3948 12.8053 24.6353L12.6548 24.9078C12.5471 24.9244 12.4468 24.973 12.367 25.0473C12.1402 25.418 11.9658 25.8214 11.8502 26.2422C11.7981 26.4492 11.7341 26.6531 11.6583 26.8527L11.6038 26.9617L11.5754 27.0206C11.5435 27.1079 11.4937 27.1898 11.4292 27.2568C11.3648 27.3238 11.287 27.3767 11.201 27.412C11.115 27.4473 11.0225 27.4643 10.9295 27.4619C10.8366 27.4596 10.7451 27.4378 10.661 27.3981C10.5769 27.3584 10.502 27.3017 10.4411 27.2314C10.3801 27.1612 10.3345 27.079 10.3071 26.9901C10.2796 26.9013 10.271 26.8077 10.2818 26.7153C10.2926 26.623 10.3225 26.5338 10.3696 26.4537L10.4001 26.3883L10.4568 26.2749C10.5658 26.0896 10.6836 25.9129 10.8144 25.7429C11.0499 25.4027 11.2505 25.0408 11.4184 24.6614C11.4358 24.5324 11.4146 24.4012 11.3574 24.2842L11.4795 23.9942C9.65539 22.9216 8.28709 21.2184 7.63293 19.2062L7.34073 19.2563C7.22792 19.1764 7.09498 19.1295 6.95695 19.1211C6.55945 19.1967 6.17021 19.3106 5.79469 19.4613C5.59844 19.5485 5.40001 19.6248 5.19721 19.6902L5.08818 19.7142L5.02276 19.7295H5.01622L5.01186 19.7338H5.00096C4.89039 19.7693 4.77252 19.7755 4.65885 19.7518C4.54517 19.7281 4.43958 19.6754 4.35237 19.5987C4.26516 19.5221 4.19932 19.4241 4.16127 19.3144C4.12322 19.2047 4.11426 19.0871 4.13526 18.9729C4.16203 18.8354 4.23141 18.7098 4.33356 18.6139C4.43571 18.518 4.56545 18.4567 4.7044 18.4387L4.71312 18.4365H4.71966L4.73275 18.4321C4.78508 18.4191 4.8505 18.4016 4.89847 18.3929C5.10999 18.3646 5.32369 18.3471 5.53738 18.3428C5.94297 18.3144 6.3442 18.249 6.73453 18.1465C6.85021 18.0724 6.94781 17.9733 7.02019 17.8565L7.2993 17.7759C6.996 15.6764 7.48071 13.5389 8.65999 11.7755L8.44848 11.5858C8.44032 11.4478 8.39346 11.3148 8.31328 11.2021C8.00597 10.9385 7.67367 10.7056 7.32111 10.5066C7.13045 10.4097 6.94552 10.302 6.76724 10.1839C6.72017 10.1492 6.67434 10.1128 6.62986 10.0749L6.62114 10.0661C6.46918 9.95788 6.36638 9.79378 6.33531 9.60982C6.30424 9.42587 6.34744 9.23711 6.45541 9.08497C6.51958 9.00707 6.60117 8.94537 6.6936 8.90484C6.78604 8.86431 6.88671 8.8461 6.98748 8.85167C7.15693 8.85885 7.31966 8.91996 7.45195 9.0261L7.49992 9.06317C7.53481 9.09151 7.57406 9.11986 7.60022 9.14384C7.75505 9.28992 7.90333 9.44691 8.04071 9.60826C8.31328 9.90696 8.6142 10.1795 8.93911 10.4193C9.06122 10.4848 9.20296 10.4978 9.33598 10.4586L9.57584 10.6287C11.0359 9.08025 13.0191 8.12919 15.1407 7.95991L15.156 7.67864C15.2598 7.58766 15.3355 7.46889 15.374 7.33633C15.3888 6.93223 15.3639 6.52767 15.2999 6.12841C15.2573 5.91957 15.2267 5.70845 15.2083 5.49611V5.38055V5.32604V5.31732V5.3086C15.1985 5.2153 15.2085 5.12098 15.2376 5.0318C15.2667 4.94262 15.3143 4.86058 15.3773 4.79104C15.4402 4.72149 15.5172 4.66601 15.603 4.6282C15.6889 4.5904 15.7818 4.57112 15.8756 4.57164C15.969 4.57183 16.0613 4.5915 16.1467 4.6294C16.2321 4.6673 16.3086 4.7226 16.3714 4.79175C16.4342 4.8609 16.4819 4.94239 16.5114 5.03101C16.5409 5.11963 16.5516 5.21343 16.5428 5.30642V5.49611C16.5253 5.70842 16.4954 5.91955 16.4534 6.12841C16.3889 6.52689 16.3633 6.93071 16.3771 7.33415C16.4034 7.46957 16.4817 7.58932 16.5952 7.66774V7.683L16.6104 7.96645C18.7191 8.15614 20.6881 9.10459 22.1491 10.633L22.4021 10.4521C22.5387 10.4757 22.6792 10.4606 22.8077 10.4084C23.1326 10.1686 23.4335 9.89606 23.7061 9.59517C23.8438 9.43197 23.9909 9.27691 24.1466 9.13076L24.2578 9.04354L24.2948 9.01302C24.4138 8.90105 24.5694 8.83626 24.7327 8.83076C24.8959 8.82527 25.0556 8.87945 25.1818 8.98316C25.3079 9.08688 25.392 9.23302 25.4182 9.39423C25.4444 9.55544 25.4109 9.72067 25.3241 9.859C25.2731 9.9374 25.2062 10.0042 25.1278 10.0552C25.1104 10.0661 25.0908 10.0814 25.0733 10.0988L24.9796 10.1708C24.8013 10.2889 24.6164 10.3967 24.4257 10.4935C24.0731 10.6933 23.7408 10.927 23.4335 11.1912C23.3439 11.2948 23.2985 11.4295 23.307 11.5662C23.2709 11.5985 23.2346 11.6304 23.198 11.6621L23.0715 11.7777C24.2534 13.5351 24.7484 15.6653 24.4606 17.7628L24.7288 17.8413C24.7964 17.9634 24.8967 18.0615 25.0166 18.1291C25.4091 18.2337 25.8104 18.2991 26.2159 18.3253C26.4275 18.3319 26.6412 18.3471 26.8527 18.3776L26.9792 18.406ZM20.7099 11.6469L17.8577 13.6637L17.849 13.6594C17.7632 13.7227 17.6617 13.7615 17.5556 13.7716C17.4494 13.7818 17.3424 13.7629 17.2461 13.717C17.1499 13.6711 17.0679 13.5999 17.0089 13.511C16.9499 13.4222 16.9162 13.3189 16.9114 13.2124L16.7129 9.72599C18.2198 9.91262 19.6238 10.586 20.7099 11.6469ZM15.3392 15.469H16.412L17.0793 16.2998L16.8394 17.3376L15.8756 17.7977L14.9096 17.3333L14.6697 16.2976L15.3392 15.469ZM14.3274 9.84809C14.5607 9.79576 14.7984 9.75434 15.0382 9.72599L14.842 13.2146L14.8245 13.2233C14.8213 13.3026 14.802 13.3804 14.7677 13.452C14.7334 13.5236 14.6849 13.5875 14.6251 13.6397C14.5653 13.692 14.4955 13.7315 14.42 13.7558C14.3444 13.7802 14.2647 13.7889 14.1856 13.7815C14.0794 13.7724 13.9777 13.7347 13.8912 13.6724L13.8869 13.6746L11.0172 11.6469C11.9309 10.7529 13.0779 10.1294 14.3274 9.84809ZM9.97925 12.9507L12.5981 15.2859L12.596 15.3012C12.6758 15.3709 12.7352 15.461 12.7679 15.5619C12.8006 15.6628 12.8054 15.7706 12.7817 15.8739C12.758 15.9773 12.7067 16.0723 12.6333 16.1488C12.5599 16.2253 12.4671 16.2805 12.3648 16.3085L12.3626 16.3194L9.00453 17.2853C8.8375 15.7722 9.18055 14.2467 9.97925 12.9507ZM13.4856 19.156L12.1511 22.3699C10.8725 21.5534 9.89899 20.3379 9.38177 18.9118L12.8227 18.3297L12.8293 18.3362C12.9635 18.3102 13.1026 18.3326 13.2218 18.3994C13.3485 18.4702 13.4446 18.5852 13.4916 18.7224C13.5387 18.8596 13.5335 19.0094 13.4769 19.1429L13.4856 19.156ZM17.4238 23.29C16.1765 23.5734 14.8725 23.508 13.6601 23.0981L15.3544 20.0456C15.4047 19.9522 15.4815 19.874 15.5725 19.8195C15.6636 19.765 15.7677 19.7361 15.8738 19.7358C15.98 19.7356 16.0842 19.7641 16.1755 19.8182C16.2668 19.8724 16.3417 19.9502 16.3924 20.0434H16.4055L18.1041 23.1003C17.8806 23.1747 17.6536 23.238 17.4238 23.29ZM19.6131 22.3829L18.2655 19.1364L18.2677 19.1299C18.2262 19.0324 18.2118 18.9255 18.2262 18.8205C18.2406 18.7155 18.2831 18.6164 18.3493 18.5336C18.4155 18.4509 18.5029 18.3876 18.6022 18.3506C18.7014 18.3135 18.8089 18.304 18.9131 18.3231L18.9197 18.3144L22.3934 18.9009C21.8798 20.3385 20.9014 21.5638 19.6131 22.3829ZM22.7575 17.2744L19.3863 16.3041L19.382 16.291C19.3055 16.2699 19.234 16.2335 19.172 16.184C19.1099 16.1345 19.0585 16.073 19.0208 16.0031C18.9831 15.9333 18.9599 15.8565 18.9527 15.7775C18.9454 15.6984 18.9542 15.6187 18.9786 15.5432C19.0119 15.4418 19.0722 15.3513 19.153 15.2815L19.1465 15.2772L21.7523 12.9507C22.5504 14.2459 22.9014 15.7634 22.7553 17.2744H22.7575Z" fill="#326CE5"/>
</svg>
