<svg width="24" height="24" viewBox="0 0 24 24" fill="none" xmlns="http://www.w3.org/2000/svg">
<path d="M22 9.43771H17.1115C15.7902 6.90328 14.3934 4.93607 12.4918 4.93607C10.0164 4.93607 8.85246 7.09672 7.72787 9.19836L7.62951 9.38197H2V10.6311H5.27869C6.43607 10.6311 6.67213 11.0213 6.67213 11.0213C5.76393 12.4312 4.67213 13.8246 2.85246 13.8246H2V15.1361H2.85902C6.38689 15.1361 7.92787 12.2738 9.16393 9.97541C10.2984 7.85738 11.0885 6.57541 12.4918 6.57541C13.9475 6.57541 15.4787 9.74263 16.8262 12.5393C17.023 12.9459 17.223 13.3623 17.4262 13.7754C12.259 13.9393 9.79672 15.1492 7.79344 16.1361C6.32787 16.8574 5.17049 17.7525 3.26557 17.7525H2V19.0639H3.25574C5.55082 19.0639 6.98033 18.3557 8.50164 17.6049C10.6098 16.5689 13 15.3951 18.6328 15.3951H21.8885V14.0836H20.0492C19.8981 14.095 19.7463 14.0714 19.6059 14.0145C19.4654 13.9577 19.3399 13.8691 19.2393 13.7557C18.918 13.1328 18.6033 12.4771 18.2951 11.8213L17.8689 10.9492C17.8689 10.9492 18.1738 10.6213 19.0197 10.6213H22V9.43771Z" fill="#188FFF"/>
</svg>
