<svg width="24" height="24" viewBox="0 0 24 24" fill="none" xmlns="http://www.w3.org/2000/svg">
<g clip-path="url(#clip0_627_27230)">
<path d="M15.3068 13.1452C16.6069 13.1452 18.4893 12.8748 18.4893 11.3252C18.4893 11.2067 18.4788 11.0883 18.4581 10.9716L17.6885 7.60193C17.5117 6.86351 17.3557 6.5203 16.0556 5.87549C15.0468 5.35548 12.8523 4.51306 12.1971 4.51306C11.5834 4.51306 11.4066 5.29308 10.689 5.29308C9.99218 5.29308 9.48256 4.71067 8.82734 4.71067C8.20331 4.71067 7.79769 5.13707 7.48568 6.01069C7.48568 6.01069 6.61204 8.47555 6.49764 8.83955C6.48045 8.90394 6.47344 8.97061 6.47684 9.03716C6.46644 9.99398 10.2418 13.1348 15.3068 13.1452ZM18.6869 11.9596C18.8637 12.8124 18.8637 12.906 18.8637 13.01C18.8637 14.4661 17.2309 15.2773 15.078 15.2773C10.2106 15.2773 5.95682 12.4276 5.95682 10.5452C5.95634 10.2841 6.00944 10.0257 6.11282 9.78597C4.36555 9.86917 2.09826 10.1812 2.09826 12.178C2.09826 15.4541 9.85698 19.4894 15.9932 19.4894C20.7046 19.4894 21.8903 17.3573 21.8903 15.6725C21.8903 14.3517 20.7462 12.854 18.6869 11.9596Z" fill="#EE0000"/>
<path d="M18.6906 11.9571C18.8674 12.8099 18.8674 12.9035 18.8674 13.0075C18.8674 14.4636 17.2345 15.2748 15.0816 15.2748C10.2142 15.2748 5.96044 12.4251 5.96044 10.5427C5.95996 10.2816 6.01306 10.0232 6.11644 9.78346L6.50126 8.83704C6.48407 8.90142 6.47706 8.96809 6.48046 9.03464C6.48046 9.99146 10.2558 13.1323 15.3104 13.1323C16.6105 13.1323 18.493 12.8619 18.493 11.3123C18.4929 11.1937 18.4825 11.0754 18.4618 10.9587L18.6906 11.9571Z" fill="black"/>
</g>
<defs>
<clipPath id="clip0_627_27230">
<rect width="20" height="15.1843" fill="white" transform="translate(1.99998 4.40784)"/>
</clipPath>
</defs>
</svg>
