<svg width="24" height="24" viewBox="0 0 24 24" fill="none" xmlns="http://www.w3.org/2000/svg">
<path d="M14.8313 14.5119C14.614 14.1163 14.4181 13.7093 14.2444 13.2927C14.8899 13.0104 15.4714 12.5996 15.9537 12.0851C16.7082 11.3455 17.0854 10.3007 17.0854 8.95068C17.0854 7.38576 16.5746 6.16966 15.5531 5.30235C14.525 4.43316 13.2158 3.97052 11.8716 4.00139H5.31647V18.9496H8.5067V13.5776H9.7199L10.4604 13.5589C10.7352 14.2293 11.3476 15.7031 11.7039 16.4878L14.8313 14.5119ZM8.5067 6.98404H11.4431C12.9179 6.98404 13.6553 7.58116 13.6553 8.77548C13.6553 10.0585 12.8325 10.6993 11.1869 10.6978H8.5067V6.98404Z" fill="#E2401B"/>
<path d="M18.127 17.8744L17.2911 17.2812L13.8331 19.5281L15.044 19.9999L17.1537 19.9952L18.6836 18.9021L18.127 17.8744Z" fill="#E2401B"/>
<path d="M15.3619 15.3779L12.1553 17.4029L13.0565 18.8183L16.468 16.6625L15.3619 15.3779Z" fill="#E2401B"/>
</svg>
