<svg width="24" height="24" viewBox="0 0 24 24" fill="none" xmlns="http://www.w3.org/2000/svg">
<g clip-path="url(#clip0_627_27214)">
<path d="M12.0054 2.38947L3.67375 7.19972V16.8204L12.0054 21.6306L20.3371 16.8203V7.19972L12.0054 2.38947Z" fill="#3C5982"/>
<mask id="mask0_627_27214" style="mask-type:luminance" maskUnits="userSpaceOnUse" x="4" y="7" width="16" height="14">
<path d="M12.2266 9.27196C11.8835 9.71178 7.83732 10.6935 4.6053 12.1498V16.2825L12.0054 20.555L19.4054 16.2825V15.4241C17.8551 15.1311 16.2904 14.9201 14.7178 14.792C8.20862 14.2295 14.2357 12.9437 16.9679 10.6385C19.7002 8.33329 7.88712 7.63986 7.88712 7.63986C7.88712 7.63986 12.7088 8.65382 12.2266 9.27196Z" fill="white"/>
</mask>
<g mask="url(#mask0_627_27214)">
<path d="M12.2266 9.27196C11.8835 9.71178 7.83732 10.6935 4.6053 12.1498V16.2825L12.0054 20.555L19.4054 16.2825V15.4241C17.8551 15.1311 16.2904 14.9201 14.7178 14.792C8.20862 14.2295 14.2357 12.9437 16.9679 10.6385C19.7002 8.33329 7.88712 7.63986 7.88712 7.63986C7.88712 7.63986 12.7088 8.65382 12.2266 9.27196Z" fill="url(#paint0_linear_627_27214)"/>
</g>
</g>
<defs>
<linearGradient id="paint0_linear_627_27214" x1="7.22538" y1="5.00129" x2="18.0554" y2="28.163" gradientUnits="userSpaceOnUse">
<stop stop-color="white"/>
<stop offset="1" stop-color="#54BAD8"/>
</linearGradient>
<clipPath id="clip0_627_27214">
<rect width="17.4338" height="20" fill="white" transform="translate(3.28308 2)"/>
</clipPath>
</defs>
</svg>
