<svg width="24" height="24" viewBox="0 0 24 24" fill="none" xmlns="http://www.w3.org/2000/svg">
<path d="M4.48895 19.5111C7.80755 22.8296 13.1881 22.8296 16.5067 19.5111C19.8252 16.1925 19.8252 10.812 16.5067 7.49338L15.0044 8.99558C17.4934 11.4845 17.4934 15.5199 15.0044 18.0088C12.5155 20.4978 8.48011 20.4978 5.99115 18.0088L4.48895 19.5111Z" fill="#00C98D"/>
<path d="M7.49339 16.5066C9.15268 18.1659 11.8429 18.1659 13.5022 16.5066C15.1615 14.8474 15.1615 12.1571 13.5022 10.4978L12 12C12.8297 12.8296 12.8297 14.1748 12 15.0044C11.1704 15.8341 9.82524 15.8341 8.9956 15.0044L7.49339 16.5066Z" fill="#00C98D"/>
<path d="M19.511 4.48894C16.1924 1.17036 10.8119 1.17036 7.49333 4.48894C4.17473 7.80754 4.17473 13.188 7.49333 16.5066L8.99551 15.0044C6.50661 12.5155 6.50661 8.48009 8.99551 5.99118C11.4845 3.50221 15.5199 3.50221 18.0088 5.99118L19.511 4.48894Z" fill="#00C98D"/>
<path d="M16.5066 7.49336C14.8473 5.83408 12.157 5.83408 10.4977 7.49336C8.83842 9.15268 8.83842 11.8429 10.4977 13.5022L11.9999 12C11.1703 11.1704 11.1703 9.82524 11.9999 8.99556C12.8296 8.16592 14.1747 8.16592 15.0044 8.99556L16.5066 7.49336Z" fill="#00C98D"/>
<path d="M19.511 4.48894C16.1924 1.17036 10.8119 1.17036 7.49333 4.48894C4.17473 7.80754 4.17473 13.188 7.49333 16.5066L8.99551 15.0044C6.50661 12.5155 6.50661 8.48009 8.99551 5.99118C11.4845 3.50221 15.5199 3.50221 18.0088 5.99118L19.511 4.48894Z" fill="white" fill-opacity="0.4"/>
<path d="M16.5066 7.49336C14.8473 5.83408 12.157 5.83408 10.4977 7.49336C8.83842 9.15268 8.83842 11.8429 10.4977 13.5022L11.9999 12C11.1703 11.1704 11.1703 9.82524 11.9999 8.99556C12.8296 8.16592 14.1747 8.16592 15.0044 8.99556L16.5066 7.49336Z" fill="white" fill-opacity="0.4"/>
</svg>
