<svg width="182" height="82" viewBox="0 0 182 82" fill="none" xmlns="http://www.w3.org/2000/svg">
<rect x="0.75" y="0.763672" width="180.5" height="80.5" rx="2.25" fill="#F9F8F9"/>
<circle cx="8" cy="8.01367" r="2" fill="#DCDBDD"/>
<rect x="13" y="6.01367" width="16" height="4" rx="2" fill="#DCDBDD"/>
<circle cx="8" cy="16.0137" r="2" fill="#DCDBDD"/>
<rect x="13" y="14.0137" width="16" height="4" rx="2" fill="#DCDBDD"/>
<circle cx="8" cy="24.0137" r="2" fill="#DCDBDD"/>
<rect x="13" y="22.0137" width="16" height="4" rx="2" fill="#DCDBDD"/>
<circle cx="8" cy="32.0137" r="2" fill="#DCDBDD"/>
<rect x="13" y="30.0137" width="16" height="4" rx="2" fill="#DCDBDD"/>
<rect x="0.75" y="0.763672" width="180.5" height="80.5" rx="2.25" stroke="#EEEDEF" stroke-width="0.5"/>
<rect x="34.6266" y="1.01367" width="146.374" height="80" rx="2" fill="white"/>
<path d="M53.1165 23.8525C53.0697 23.7091 53.0079 23.5805 52.9312 23.4669C52.8559 23.3518 52.7657 23.2538 52.6606 23.1729C52.5569 23.0919 52.439 23.0301 52.3069 22.9875C52.1748 22.9449 52.0299 22.9236 51.8722 22.9236C51.6137 22.9236 51.3786 22.9903 51.167 23.1238C50.9553 23.2574 50.787 23.4541 50.662 23.714C50.537 23.974 50.4745 24.2929 50.4745 24.6707C50.4745 25.0486 50.5377 25.3675 50.6641 25.6274C50.7905 25.8873 50.9617 26.0841 51.1776 26.2176C51.3935 26.3511 51.6364 26.4179 51.9063 26.4179C52.1563 26.4179 52.3765 26.3646 52.5668 26.2581C52.7586 26.1501 52.9077 25.9981 53.0143 25.8021C53.1222 25.6047 53.1762 25.3724 53.1762 25.1054L53.3381 25.1395H52.0256V24.6707H53.6876V25.1395C53.6876 25.4988 53.6108 25.8113 53.4574 26.077C53.3054 26.3426 53.0952 26.5486 52.8268 26.6949C52.5597 26.8398 52.2529 26.9122 51.9063 26.9122C51.5199 26.9122 51.1804 26.8213 50.8878 26.6395C50.5966 26.4577 50.3694 26.1991 50.206 25.8639C50.0441 25.5287 49.9631 25.1309 49.9631 24.6707C49.9631 24.3256 50.0093 24.0152 50.1016 23.7396C50.1954 23.4626 50.3275 23.2268 50.4979 23.0322C50.6684 22.8376 50.8701 22.6885 51.103 22.5848C51.336 22.4811 51.5924 22.4292 51.8722 22.4292C52.1023 22.4292 52.3168 22.464 52.5157 22.5336C52.716 22.6018 52.8942 22.6991 53.0505 22.8256C53.2081 22.9506 53.3395 23.1004 53.4447 23.2751C53.5498 23.4484 53.6222 23.6409 53.662 23.8525H53.1165ZM55.8965 26.9207C55.5812 26.9207 55.3092 26.8511 55.0805 26.7119C54.8532 26.5713 54.6778 26.3753 54.5542 26.1238C54.432 25.871 54.371 25.577 54.371 25.2417C54.371 24.9065 54.432 24.6111 54.5542 24.3554C54.6778 24.0983 54.8497 23.898 55.0698 23.7545C55.2914 23.6096 55.5499 23.5372 55.8454 23.5372C56.0159 23.5372 56.1842 23.5656 56.3504 23.6224C56.5166 23.6792 56.6678 23.7716 56.8042 23.8994C56.9406 24.0258 57.0492 24.1934 57.1302 24.4023C57.2112 24.6111 57.2516 24.8682 57.2516 25.1736V25.3866H54.7289V24.952H56.7403C56.7403 24.7673 56.7034 24.6025 56.6295 24.4577C56.557 24.3128 56.4534 24.1984 56.3184 24.1146C56.1849 24.0308 56.0272 23.9889 55.8454 23.9889C55.6451 23.9889 55.4718 24.0386 55.3255 24.1381C55.1806 24.2361 55.0691 24.3639 54.991 24.5216C54.9129 24.6792 54.8738 24.8483 54.8738 25.0287V25.3184C54.8738 25.5656 54.9164 25.7751 55.0016 25.947C55.0883 26.1175 55.2083 26.2474 55.3617 26.3369C55.5151 26.425 55.6934 26.469 55.8965 26.469C56.0286 26.469 56.148 26.4506 56.2545 26.4136C56.3624 26.3753 56.4555 26.3184 56.5336 26.2432C56.6117 26.1665 56.6721 26.0713 56.7147 25.9577L57.2005 26.094C57.1494 26.2588 57.0634 26.4037 56.9427 26.5287C56.822 26.6523 56.6728 26.7488 56.4953 26.8184C56.3177 26.8866 56.1181 26.9207 55.8965 26.9207ZM59.4399 23.5798V24.0059H57.7438V23.5798H59.4399ZM58.2382 22.7957H58.741V25.915C58.741 26.0571 58.7616 26.1636 58.8028 26.2346C58.8454 26.3042 58.8994 26.3511 58.9647 26.3753C59.0315 26.398 59.1018 26.4094 59.1757 26.4094C59.2311 26.4094 59.2765 26.4065 59.312 26.4008C59.3475 26.3937 59.3759 26.3881 59.3972 26.3838L59.4995 26.8355C59.4654 26.8483 59.4178 26.8611 59.3568 26.8738C59.2957 26.8881 59.2183 26.8952 59.1245 26.8952C58.9825 26.8952 58.8433 26.8646 58.7069 26.8035C58.572 26.7425 58.4597 26.6494 58.3703 26.5244C58.2822 26.3994 58.2382 26.2417 58.2382 26.0514V22.7957ZM64.3383 23.5798C64.3127 23.3639 64.209 23.1963 64.0272 23.077C63.8454 22.9577 63.6224 22.898 63.3582 22.898C63.165 22.898 62.996 22.9292 62.8511 22.9917C62.7076 23.0542 62.5954 23.1402 62.5144 23.2496C62.4349 23.3589 62.3951 23.4832 62.3951 23.6224C62.3951 23.7389 62.4228 23.839 62.4782 23.9229C62.535 24.0052 62.6075 24.0741 62.6955 24.1295C62.7836 24.1835 62.8759 24.2282 62.9725 24.2638C63.0691 24.2979 63.1579 24.3256 63.2389 24.3469L63.682 24.4662C63.7957 24.496 63.9221 24.5372 64.0613 24.5898C64.2019 24.6423 64.3362 24.714 64.464 24.805C64.5933 24.8944 64.6998 25.0095 64.7836 25.1501C64.8674 25.2907 64.9093 25.4633 64.9093 25.6679C64.9093 25.9037 64.8475 26.1167 64.7239 26.3071C64.6018 26.4974 64.4228 26.6487 64.187 26.7609C63.9526 26.8731 63.6678 26.9292 63.3326 26.9292C63.0201 26.9292 62.7495 26.8788 62.5208 26.778C62.2936 26.6771 62.1146 26.5365 61.9839 26.3561C61.8546 26.1757 61.7815 25.9662 61.7644 25.7275H62.3099C62.3241 25.8923 62.3795 26.0287 62.4761 26.1366C62.5741 26.2432 62.6977 26.3227 62.8468 26.3753C62.9974 26.4264 63.1593 26.452 63.3326 26.452C63.5343 26.452 63.7154 26.4193 63.8759 26.354C64.0364 26.2872 64.1636 26.1949 64.2573 26.077C64.3511 25.9577 64.398 25.8184 64.398 25.6594C64.398 25.5145 64.3575 25.3966 64.2765 25.3057C64.1955 25.2148 64.089 25.1409 63.9569 25.0841C63.8248 25.0273 63.682 24.9775 63.5286 24.9349L62.9917 24.7815C62.6508 24.6835 62.3809 24.5436 62.182 24.3618C61.9832 24.18 61.8838 23.942 61.8838 23.648C61.8838 23.4037 61.9498 23.1906 62.0819 23.0088C62.2154 22.8256 62.3944 22.6835 62.6188 22.5827C62.8447 22.4804 63.0968 22.4292 63.3752 22.4292C63.6565 22.4292 63.9065 22.4797 64.1252 22.5805C64.344 22.68 64.5173 22.8163 64.6451 22.9896C64.7744 23.1629 64.8426 23.3596 64.8497 23.5798H64.3383ZM67.1332 23.5798V24.0059H65.4372V23.5798H67.1332ZM65.9315 22.7957H66.4344V25.915C66.4344 26.0571 66.455 26.1636 66.4961 26.2346C66.5388 26.3042 66.5927 26.3511 66.6581 26.3753C66.7248 26.398 66.7951 26.4094 66.869 26.4094C66.9244 26.4094 66.9699 26.4065 67.0054 26.4008C67.0409 26.3937 67.0693 26.3881 67.0906 26.3838L67.1929 26.8355C67.1588 26.8483 67.1112 26.8611 67.0501 26.8738C66.989 26.8881 66.9116 26.8952 66.8179 26.8952C66.6758 26.8952 66.5366 26.8646 66.4003 26.8035C66.2653 26.7425 66.1531 26.6494 66.0636 26.5244C65.9755 26.3994 65.9315 26.2417 65.9315 26.0514V22.7957ZM68.8527 26.9292C68.6453 26.9292 68.4571 26.8902 68.288 26.8121C68.119 26.7325 67.9848 26.6182 67.8853 26.469C67.7859 26.3184 67.7362 26.1366 67.7362 25.9236C67.7362 25.7361 67.7731 25.5841 67.847 25.4676C67.9209 25.3497 68.0196 25.2574 68.1432 25.1906C68.2667 25.1238 68.4031 25.0741 68.5523 25.0415C68.7028 25.0074 68.8541 24.9804 69.0061 24.9605C69.205 24.9349 69.3662 24.9157 69.4898 24.903C69.6148 24.8888 69.7057 24.8653 69.7625 24.8327C69.8207 24.8 69.8498 24.7432 69.8498 24.6622V24.6452C69.8498 24.4349 69.7923 24.2716 69.6773 24.1551C69.5636 24.0386 69.391 23.9804 69.1595 23.9804C68.9194 23.9804 68.7312 24.0329 68.5949 24.1381C68.4585 24.2432 68.3626 24.3554 68.3072 24.4747L67.83 24.3042C67.9152 24.1054 68.0288 23.9506 68.1709 23.8398C68.3143 23.7275 68.4706 23.6494 68.6396 23.6054C68.8101 23.5599 68.9777 23.5372 69.1425 23.5372C69.2476 23.5372 69.3683 23.55 69.5047 23.5756C69.6425 23.5997 69.7753 23.6501 69.9031 23.7268C70.0324 23.8035 70.1396 23.9193 70.2248 24.0741C70.3101 24.229 70.3527 24.4363 70.3527 24.6963V26.8525H69.8498V26.4094H69.8243C69.7902 26.4804 69.7334 26.5564 69.6538 26.6373C69.5743 26.7183 69.4684 26.7872 69.3363 26.844C69.2042 26.9008 69.043 26.9292 68.8527 26.9292ZM68.9294 26.4775C69.1282 26.4775 69.2959 26.4385 69.4322 26.3604C69.57 26.2822 69.6737 26.1814 69.7433 26.0578C69.8143 25.9342 69.8498 25.8042 69.8498 25.6679V25.2077C69.8285 25.2332 69.7817 25.2567 69.7092 25.278C69.6382 25.2979 69.5558 25.3156 69.4621 25.3312C69.3697 25.3454 69.2795 25.3582 69.1915 25.3696C69.1048 25.3795 69.0345 25.3881 68.9805 25.3952C68.8498 25.4122 68.7277 25.4399 68.614 25.4782C68.5018 25.5152 68.4109 25.5713 68.3413 25.6466C68.2731 25.7204 68.239 25.8213 68.239 25.9491C68.239 26.1238 68.3037 26.2559 68.4329 26.3454C68.5636 26.4335 68.7291 26.4775 68.9294 26.4775ZM71.2705 26.8525V23.5798H71.7563V24.0741H71.7904C71.85 23.9122 71.958 23.7808 72.1142 23.68C72.2705 23.5791 72.4466 23.5287 72.6426 23.5287C72.6796 23.5287 72.7257 23.5294 72.7811 23.5308C72.8365 23.5322 72.8784 23.5344 72.9068 23.5372V24.0486C72.8898 24.0443 72.8507 24.0379 72.7896 24.0294C72.73 24.0194 72.6668 24.0145 72.6 24.0145C72.4409 24.0145 72.2989 24.0479 72.1739 24.1146C72.0503 24.18 71.9523 24.2709 71.8798 24.3873C71.8088 24.5024 71.7733 24.6338 71.7733 24.7815V26.8525H71.2705ZM75.1313 23.5798V24.0059H73.4352V23.5798H75.1313ZM73.9296 22.7957H74.4324V25.915C74.4324 26.0571 74.453 26.1636 74.4942 26.2346C74.5368 26.3042 74.5908 26.3511 74.6561 26.3753C74.7229 26.398 74.7932 26.4094 74.8671 26.4094C74.9225 26.4094 74.9679 26.4065 75.0034 26.4008C75.0389 26.3937 75.0673 26.3881 75.0887 26.3838L75.1909 26.8355C75.1568 26.8483 75.1092 26.8611 75.0482 26.8738C74.9871 26.8881 74.9097 26.8952 74.8159 26.8952C74.6739 26.8952 74.5347 26.8646 74.3983 26.8035C74.2634 26.7425 74.1512 26.6494 74.0617 26.5244C73.9736 26.3994 73.9296 26.2417 73.9296 26.0514V22.7957ZM77.2247 26.9207C76.9093 26.9207 76.6373 26.8511 76.4086 26.7119C76.1813 26.5713 76.0059 26.3753 75.8823 26.1238C75.7602 25.871 75.6991 25.577 75.6991 25.2417C75.6991 24.9065 75.7602 24.6111 75.8823 24.3554C76.0059 24.0983 76.1778 23.898 76.398 23.7545C76.6195 23.6096 76.8781 23.5372 77.1735 23.5372C77.344 23.5372 77.5123 23.5656 77.6785 23.6224C77.8447 23.6792 77.996 23.7716 78.1323 23.8994C78.2687 24.0258 78.3774 24.1934 78.4583 24.4023C78.5393 24.6111 78.5798 24.8682 78.5798 25.1736V25.3866H76.057V24.952H78.0684C78.0684 24.7673 78.0315 24.6025 77.9576 24.4577C77.8852 24.3128 77.7815 24.1984 77.6465 24.1146C77.513 24.0308 77.3553 23.9889 77.1735 23.9889C76.9732 23.9889 76.7999 24.0386 76.6536 24.1381C76.5088 24.2361 76.3972 24.3639 76.3191 24.5216C76.241 24.6792 76.2019 24.8483 76.2019 25.0287V25.3184C76.2019 25.5656 76.2445 25.7751 76.3298 25.947C76.4164 26.1175 76.5364 26.2474 76.6899 26.3369C76.8433 26.425 77.0215 26.469 77.2247 26.469C77.3568 26.469 77.4761 26.4506 77.5826 26.4136C77.6906 26.3753 77.7836 26.3184 77.8617 26.2432C77.9399 26.1665 78.0002 26.0713 78.0428 25.9577L78.5286 26.094C78.4775 26.2588 78.3916 26.4037 78.2708 26.5287C78.1501 26.6523 78.0009 26.7488 77.8234 26.8184C77.6458 26.8866 77.4463 26.9207 77.2247 26.9207ZM80.5805 26.9207C80.3078 26.9207 80.067 26.8518 79.8582 26.714C79.6494 26.5748 79.486 26.3788 79.3681 26.126C79.2502 25.8717 79.1913 25.5713 79.1913 25.2247C79.1913 24.8809 79.2502 24.5827 79.3681 24.3298C79.486 24.077 79.6501 23.8817 79.8603 23.7439C80.0705 23.6061 80.3134 23.5372 80.589 23.5372C80.8021 23.5372 80.9704 23.5727 81.094 23.6437C81.219 23.7133 81.3141 23.7929 81.3795 23.8824C81.4463 23.9704 81.4981 24.0429 81.535 24.0997H81.5776V22.4889H82.0805V26.8525H81.5947V26.3497H81.535C81.4981 26.4094 81.4455 26.4846 81.3774 26.5756C81.3092 26.665 81.2119 26.7453 81.0855 26.8163C80.959 26.8859 80.7907 26.9207 80.5805 26.9207ZM80.6487 26.469C80.8504 26.469 81.0208 26.4165 81.16 26.3113C81.2992 26.2048 81.4051 26.0578 81.4775 25.8703C81.5499 25.6814 81.5862 25.4633 81.5862 25.2162C81.5862 24.9719 81.5507 24.7581 81.4796 24.5748C81.4086 24.3902 81.3035 24.2467 81.1643 24.1444C81.0251 24.0407 80.8532 23.9889 80.6487 23.9889C80.4356 23.9889 80.258 24.0436 80.116 24.153C79.9754 24.2609 79.8695 24.4079 79.7985 24.594C79.7289 24.7787 79.6941 24.9861 79.6941 25.2162C79.6941 25.4491 79.7296 25.6608 79.8007 25.8511C79.8731 26.04 79.9796 26.1906 80.1203 26.3028C80.2623 26.4136 80.4384 26.469 80.6487 26.469Z" fill="#1A1523"/>
<rect x="49.6052" y="35.3525" width="24" height="16" rx="2" fill="#F1F0FF"/>
<rect x="77.6052" y="35.3525" width="24" height="16" rx="2" fill="#E7E6FE"/>
<rect x="105.605" y="35.3525" width="24" height="16" rx="2" fill="#DBD9FC"/>
<rect x="49.6052" y="55.3525" width="24" height="16" rx="2" fill="#B2AEF5"/>
<rect x="77.6052" y="55.3525" width="24" height="16" rx="2" fill="#948DEF"/>
<rect x="49.1266" y="6.35254" width="50" height="7" rx="3.5" fill="#E4E2E4"/>
<rect x="160.127" y="6.35254" width="16" height="2" rx="1" fill="#DCDBDD"/>
<rect x="160.127" y="12.3525" width="16" height="2" rx="1" fill="#DCDBDD"/>
<rect x="160.127" y="18.3525" width="16" height="2" rx="1" fill="#DCDBDD"/>
<rect x="160.127" y="24.3525" width="16" height="2" rx="1" fill="#DCDBDD"/>
</svg>
