<svg width="182" height="82" viewBox="0 0 182 82" fill="none" xmlns="http://www.w3.org/2000/svg">
<rect x="0.750305" y="0.763672" width="180.5" height="80.5" rx="2.25" fill="#1C1C1F"/>
<circle cx="8.00031" cy="8.01367" r="2" fill="#3E3E44"/>
<rect x="13.0003" y="6.01367" width="16" height="4" rx="2" fill="#3E3E44"/>
<circle cx="8.00031" cy="16.0137" r="2" fill="#3E3E44"/>
<rect x="13.0003" y="14.0137" width="16" height="4" rx="2" fill="#3E3E44"/>
<circle cx="8.00031" cy="24.0137" r="2" fill="#3E3E44"/>
<rect x="13.0003" y="22.0137" width="16" height="4" rx="2" fill="#3E3E44"/>
<circle cx="8.00031" cy="32.0137" r="2" fill="#3E3E44"/>
<rect x="13.0003" y="30.0137" width="16" height="4" rx="2" fill="#3E3E44"/>
<rect x="0.750305" y="0.763672" width="180.5" height="80.5" rx="2.25" stroke="#28282C" stroke-width="0.5"/>
<rect x="34.627" y="1.01367" width="146.374" height="80" rx="2" fill="#161618"/>
<path d="M53.1168 23.8525C53.07 23.7091 53.0082 23.5805 52.9315 23.4669C52.8562 23.3518 52.766 23.2538 52.6609 23.1729C52.5572 23.0919 52.4393 23.0301 52.3072 22.9875C52.1751 22.9449 52.0302 22.9236 51.8725 22.9236C51.614 22.9236 51.3789 22.9903 51.1673 23.1238C50.9556 23.2574 50.7873 23.4541 50.6623 23.714C50.5373 23.974 50.4748 24.2929 50.4748 24.6707C50.4748 25.0486 50.538 25.3675 50.6644 25.6274C50.7909 25.8873 50.962 26.0841 51.1779 26.2176C51.3938 26.3511 51.6367 26.4179 51.9066 26.4179C52.1566 26.4179 52.3768 26.3646 52.5671 26.2581C52.7589 26.1501 52.908 25.9981 53.0146 25.8021C53.1225 25.6047 53.1765 25.3724 53.1765 25.1054L53.3384 25.1395H52.0259V24.6707H53.6879V25.1395C53.6879 25.4988 53.6112 25.8113 53.4578 26.077C53.3058 26.3426 53.0955 26.5486 52.8271 26.6949C52.56 26.8398 52.2532 26.9122 51.9066 26.9122C51.5203 26.9122 51.1808 26.8213 50.8882 26.6395C50.597 26.4577 50.3697 26.1991 50.2063 25.8639C50.0444 25.5287 49.9634 25.1309 49.9634 24.6707C49.9634 24.3256 50.0096 24.0152 50.1019 23.7396C50.1957 23.4626 50.3278 23.2268 50.4982 23.0322C50.6687 22.8376 50.8704 22.6885 51.1034 22.5848C51.3363 22.4811 51.5927 22.4292 51.8725 22.4292C52.1026 22.4292 52.3171 22.464 52.516 22.5336C52.7163 22.6018 52.8945 22.6991 53.0508 22.8256C53.2085 22.9506 53.3399 23.1004 53.445 23.2751C53.5501 23.4484 53.6225 23.6409 53.6623 23.8525H53.1168ZM55.8969 26.9207C55.5815 26.9207 55.3095 26.8511 55.0808 26.7119C54.8535 26.5713 54.6781 26.3753 54.5545 26.1238C54.4324 25.871 54.3713 25.577 54.3713 25.2417C54.3713 24.9065 54.4324 24.6111 54.5545 24.3554C54.6781 24.0983 54.85 23.898 55.0702 23.7545C55.2917 23.6096 55.5503 23.5372 55.8457 23.5372C56.0162 23.5372 56.1845 23.5656 56.3507 23.6224C56.5169 23.6792 56.6682 23.7716 56.8045 23.8994C56.9409 24.0258 57.0496 24.1934 57.1305 24.4023C57.2115 24.6111 57.252 24.8682 57.252 25.1736V25.3866H54.7292V24.952H56.7406C56.7406 24.7673 56.7037 24.6025 56.6298 24.4577C56.5574 24.3128 56.4537 24.1984 56.3187 24.1146C56.1852 24.0308 56.0275 23.9889 55.8457 23.9889C55.6454 23.9889 55.4721 24.0386 55.3258 24.1381C55.1809 24.2361 55.0694 24.3639 54.9913 24.5216C54.9132 24.6792 54.8741 24.8483 54.8741 25.0287V25.3184C54.8741 25.5656 54.9167 25.7751 55.002 25.947C55.0886 26.1175 55.2086 26.2474 55.3621 26.3369C55.5155 26.425 55.6937 26.469 55.8969 26.469C56.029 26.469 56.1483 26.4506 56.2548 26.4136C56.3628 26.3753 56.4558 26.3184 56.5339 26.2432C56.6121 26.1665 56.6724 26.0713 56.715 25.9577L57.2008 26.094C57.1497 26.2588 57.0638 26.4037 56.943 26.5287C56.8223 26.6523 56.6731 26.7488 56.4956 26.8184C56.318 26.8866 56.1184 26.9207 55.8969 26.9207ZM59.4402 23.5798V24.0059H57.7442V23.5798H59.4402ZM58.2385 22.7957H58.7413V25.915C58.7413 26.0571 58.7619 26.1636 58.8031 26.2346C58.8457 26.3042 58.8997 26.3511 58.965 26.3753C59.0318 26.398 59.1021 26.4094 59.176 26.4094C59.2314 26.4094 59.2768 26.4065 59.3123 26.4008C59.3478 26.3937 59.3763 26.3881 59.3976 26.3838L59.4998 26.8355C59.4657 26.8483 59.4182 26.8611 59.3571 26.8738C59.296 26.8881 59.2186 26.8952 59.1248 26.8952C58.9828 26.8952 58.8436 26.8646 58.7072 26.8035C58.5723 26.7425 58.4601 26.6494 58.3706 26.5244C58.2825 26.3994 58.2385 26.2417 58.2385 26.0514V22.7957ZM64.3386 23.5798C64.313 23.3639 64.2094 23.1963 64.0275 23.077C63.8457 22.9577 63.6227 22.898 63.3585 22.898C63.1653 22.898 62.9963 22.9292 62.8514 22.9917C62.7079 23.0542 62.5957 23.1402 62.5148 23.2496C62.4352 23.3589 62.3954 23.4832 62.3954 23.6224C62.3954 23.7389 62.4231 23.839 62.4785 23.9229C62.5353 24.0052 62.6078 24.0741 62.6959 24.1295C62.7839 24.1835 62.8763 24.2282 62.9728 24.2638C63.0694 24.2979 63.1582 24.3256 63.2392 24.3469L63.6824 24.4662C63.796 24.496 63.9224 24.5372 64.0616 24.5898C64.2023 24.6423 64.3365 24.714 64.4643 24.805C64.5936 24.8944 64.7001 25.0095 64.7839 25.1501C64.8677 25.2907 64.9096 25.4633 64.9096 25.6679C64.9096 25.9037 64.8478 26.1167 64.7243 26.3071C64.6021 26.4974 64.4231 26.6487 64.1873 26.7609C63.953 26.8731 63.6682 26.9292 63.3329 26.9292C63.0204 26.9292 62.7498 26.8788 62.5211 26.778C62.2939 26.6771 62.1149 26.5365 61.9842 26.3561C61.855 26.1757 61.7818 25.9662 61.7648 25.7275H62.3102C62.3244 25.8923 62.3798 26.0287 62.4764 26.1366C62.5744 26.2432 62.698 26.3227 62.8471 26.3753C62.9977 26.4264 63.1596 26.452 63.3329 26.452C63.5346 26.452 63.7157 26.4193 63.8763 26.354C64.0368 26.2872 64.1639 26.1949 64.2577 26.077C64.3514 25.9577 64.3983 25.8184 64.3983 25.6594C64.3983 25.5145 64.3578 25.3966 64.2768 25.3057C64.1959 25.2148 64.0893 25.1409 63.9572 25.0841C63.8251 25.0273 63.6824 24.9775 63.529 24.9349L62.992 24.7815C62.6511 24.6835 62.3812 24.5436 62.1824 24.3618C61.9835 24.18 61.8841 23.942 61.8841 23.648C61.8841 23.4037 61.9501 23.1906 62.0822 23.0088C62.2157 22.8256 62.3947 22.6835 62.6192 22.5827C62.845 22.4804 63.0971 22.4292 63.3755 22.4292C63.6568 22.4292 63.9068 22.4797 64.1255 22.5805C64.3443 22.68 64.5176 22.8163 64.6454 22.9896C64.7747 23.1629 64.8429 23.3596 64.85 23.5798H64.3386ZM67.1335 23.5798V24.0059H65.4375V23.5798H67.1335ZM65.9318 22.7957H66.4347V25.915C66.4347 26.0571 66.4553 26.1636 66.4965 26.2346C66.5391 26.3042 66.5931 26.3511 66.6584 26.3753C66.7252 26.398 66.7955 26.4094 66.8693 26.4094C66.9247 26.4094 66.9702 26.4065 67.0057 26.4008C67.0412 26.3937 67.0696 26.3881 67.0909 26.3838L67.1932 26.8355C67.1591 26.8483 67.1115 26.8611 67.0504 26.8738C66.9894 26.8881 66.9119 26.8952 66.8182 26.8952C66.6762 26.8952 66.5369 26.8646 66.4006 26.8035C66.2656 26.7425 66.1534 26.6494 66.0639 26.5244C65.9759 26.3994 65.9318 26.2417 65.9318 26.0514V22.7957ZM68.853 26.9292C68.6456 26.9292 68.4574 26.8902 68.2884 26.8121C68.1193 26.7325 67.9851 26.6182 67.8857 26.469C67.7862 26.3184 67.7365 26.1366 67.7365 25.9236C67.7365 25.7361 67.7735 25.5841 67.8473 25.4676C67.9212 25.3497 68.0199 25.2574 68.1435 25.1906C68.2671 25.1238 68.4034 25.0741 68.5526 25.0415C68.7031 25.0074 68.8544 24.9804 69.0064 24.9605C69.2053 24.9349 69.3665 24.9157 69.4901 24.903C69.6151 24.8888 69.706 24.8653 69.7628 24.8327C69.821 24.8 69.8502 24.7432 69.8502 24.6622V24.6452C69.8502 24.4349 69.7926 24.2716 69.6776 24.1551C69.5639 24.0386 69.3914 23.9804 69.1598 23.9804C68.9198 23.9804 68.7315 24.0329 68.5952 24.1381C68.4588 24.2432 68.3629 24.3554 68.3075 24.4747L67.8303 24.3042C67.9155 24.1054 68.0291 23.9506 68.1712 23.8398C68.3146 23.7275 68.4709 23.6494 68.6399 23.6054C68.8104 23.5599 68.978 23.5372 69.1428 23.5372C69.2479 23.5372 69.3686 23.55 69.505 23.5756C69.6428 23.5997 69.7756 23.6501 69.9034 23.7268C70.0327 23.8035 70.1399 23.9193 70.2252 24.0741C70.3104 24.229 70.353 24.4363 70.353 24.6963V26.8525H69.8502V26.4094H69.8246C69.7905 26.4804 69.7337 26.5564 69.6541 26.6373C69.5746 26.7183 69.4688 26.7872 69.3367 26.844C69.2046 26.9008 69.0433 26.9292 68.853 26.9292ZM68.9297 26.4775C69.1286 26.4775 69.2962 26.4385 69.4325 26.3604C69.5703 26.2822 69.674 26.1814 69.7436 26.0578C69.8146 25.9342 69.8502 25.8042 69.8502 25.6679V25.2077C69.8289 25.2332 69.782 25.2567 69.7095 25.278C69.6385 25.2979 69.5561 25.3156 69.4624 25.3312C69.37 25.3454 69.2798 25.3582 69.1918 25.3696C69.1051 25.3795 69.0348 25.3881 68.9808 25.3952C68.8502 25.4122 68.728 25.4399 68.6144 25.4782C68.5021 25.5152 68.4112 25.5713 68.3416 25.6466C68.2735 25.7204 68.2394 25.8213 68.2394 25.9491C68.2394 26.1238 68.304 26.2559 68.4333 26.3454C68.5639 26.4335 68.7294 26.4775 68.9297 26.4775ZM71.2708 26.8525V23.5798H71.7566V24.0741H71.7907C71.8503 23.9122 71.9583 23.7808 72.1145 23.68C72.2708 23.5791 72.4469 23.5287 72.6429 23.5287C72.6799 23.5287 72.726 23.5294 72.7814 23.5308C72.8368 23.5322 72.8787 23.5344 72.9072 23.5372V24.0486C72.8901 24.0443 72.851 24.0379 72.79 24.0294C72.7303 24.0194 72.6671 24.0145 72.6003 24.0145C72.4412 24.0145 72.2992 24.0479 72.1742 24.1146C72.0506 24.18 71.9526 24.2709 71.8802 24.3873C71.8091 24.5024 71.7736 24.6338 71.7736 24.7815V26.8525H71.2708ZM75.1316 23.5798V24.0059H73.4356V23.5798H75.1316ZM73.9299 22.7957H74.4327V25.915C74.4327 26.0571 74.4533 26.1636 74.4945 26.2346C74.5371 26.3042 74.5911 26.3511 74.6564 26.3753C74.7232 26.398 74.7935 26.4094 74.8674 26.4094C74.9228 26.4094 74.9682 26.4065 75.0037 26.4008C75.0393 26.3937 75.0677 26.3881 75.089 26.3838L75.1912 26.8355C75.1572 26.8483 75.1096 26.8611 75.0485 26.8738C74.9874 26.8881 74.91 26.8952 74.8162 26.8952C74.6742 26.8952 74.535 26.8646 74.3986 26.8035C74.2637 26.7425 74.1515 26.6494 74.062 26.5244C73.9739 26.3994 73.9299 26.2417 73.9299 26.0514V22.7957ZM77.225 26.9207C76.9096 26.9207 76.6376 26.8511 76.4089 26.7119C76.1817 26.5713 76.0062 26.3753 75.8827 26.1238C75.7605 25.871 75.6994 25.577 75.6994 25.2417C75.6994 24.9065 75.7605 24.6111 75.8827 24.3554C76.0062 24.0983 76.1781 23.898 76.3983 23.7545C76.6199 23.6096 76.8784 23.5372 77.1738 23.5372C77.3443 23.5372 77.5126 23.5656 77.6788 23.6224C77.845 23.6792 77.9963 23.7716 78.1327 23.8994C78.269 24.0258 78.3777 24.1934 78.4586 24.4023C78.5396 24.6111 78.5801 24.8682 78.5801 25.1736V25.3866H76.0574V24.952H78.0687C78.0687 24.7673 78.0318 24.6025 77.9579 24.4577C77.8855 24.3128 77.7818 24.1984 77.6469 24.1146C77.5133 24.0308 77.3557 23.9889 77.1738 23.9889C76.9736 23.9889 76.8003 24.0386 76.654 24.1381C76.5091 24.2361 76.3976 24.3639 76.3194 24.5216C76.2413 24.6792 76.2023 24.8483 76.2023 25.0287V25.3184C76.2023 25.5656 76.2449 25.7751 76.3301 25.947C76.4167 26.1175 76.5368 26.2474 76.6902 26.3369C76.8436 26.425 77.0219 26.469 77.225 26.469C77.3571 26.469 77.4764 26.4506 77.5829 26.4136C77.6909 26.3753 77.7839 26.3184 77.8621 26.2432C77.9402 26.1665 78.0005 26.0713 78.0432 25.9577L78.529 26.094C78.4778 26.2588 78.3919 26.4037 78.2711 26.5287C78.1504 26.6523 78.0013 26.7488 77.8237 26.8184C77.6461 26.8866 77.4466 26.9207 77.225 26.9207ZM80.5808 26.9207C80.3081 26.9207 80.0673 26.8518 79.8585 26.714C79.6497 26.5748 79.4863 26.3788 79.3684 26.126C79.2505 25.8717 79.1916 25.5713 79.1916 25.2247C79.1916 24.8809 79.2505 24.5827 79.3684 24.3298C79.4863 24.077 79.6504 23.8817 79.8606 23.7439C80.0709 23.6061 80.3138 23.5372 80.5893 23.5372C80.8024 23.5372 80.9707 23.5727 81.0943 23.6437C81.2193 23.7133 81.3145 23.7929 81.3798 23.8824C81.4466 23.9704 81.4984 24.0429 81.5353 24.0997H81.578V22.4889H82.0808V26.8525H81.595V26.3497H81.5353C81.4984 26.4094 81.4459 26.4846 81.3777 26.5756C81.3095 26.665 81.2122 26.7453 81.0858 26.8163C80.9594 26.8859 80.791 26.9207 80.5808 26.9207ZM80.649 26.469C80.8507 26.469 81.0211 26.4165 81.1603 26.3113C81.2996 26.2048 81.4054 26.0578 81.4778 25.8703C81.5503 25.6814 81.5865 25.4633 81.5865 25.2162C81.5865 24.9719 81.551 24.7581 81.48 24.5748C81.4089 24.3902 81.3038 24.2467 81.1646 24.1444C81.0254 24.0407 80.8535 23.9889 80.649 23.9889C80.4359 23.9889 80.2584 24.0436 80.1163 24.153C79.9757 24.2609 79.8699 24.4079 79.7988 24.594C79.7292 24.7787 79.6944 24.9861 79.6944 25.2162C79.6944 25.4491 79.73 25.6608 79.801 25.8511C79.8734 26.04 79.98 26.1906 80.1206 26.3028C80.2626 26.4136 80.4388 26.469 80.649 26.469Z" fill="#EDEDEF"/>
<rect x="49.6055" y="35.3525" width="24" height="16" rx="2" fill="#192140"/>
<rect x="77.6055" y="35.3525" width="24" height="16" rx="2" fill="#1C274F"/>
<rect x="105.605" y="35.3525" width="24" height="16" rx="2" fill="#1F2C5C"/>
<rect x="49.6055" y="55.3525" width="24" height="16" rx="2" fill="#273E89"/>
<rect x="77.6055" y="55.3525" width="24" height="16" rx="2" fill="#2F4EB2"/>
<rect x="49.127" y="6.35254" width="50" height="7" rx="3.5" fill="#34343A"/>
<rect x="160.127" y="6.35254" width="16" height="2" rx="1" fill="#3E3E44"/>
<rect x="160.127" y="12.3525" width="16" height="2" rx="1" fill="#3E3E44"/>
<rect x="160.127" y="18.3525" width="16" height="2" rx="1" fill="#3E3E44"/>
<rect x="160.127" y="24.3525" width="16" height="2" rx="1" fill="#3E3E44"/>
</svg>
