<svg width="183" height="82" viewBox="0 0 183 82" fill="none" xmlns="http://www.w3.org/2000/svg">
<rect width="180" height="80" transform="translate(1.10059 1.01367)" fill="white"/>
<line x1="1.10059" y1="0.763672" x2="181.101" y2="0.763672" stroke="#E9E8EA" stroke-width="0.5"/>
<line x1="1.10059" y1="27.4304" x2="181.101" y2="27.4304" stroke="#E9E8EA" stroke-width="0.5" stroke-dasharray="2 2"/>
<line x1="1.10059" y1="54.097" x2="181.101" y2="54.097" stroke="#E9E8EA" stroke-width="0.5" stroke-dasharray="2 2"/>
<line x1="1.10059" y1="80.7637" x2="181.101" y2="80.7637" stroke="#E9E8EA" stroke-width="0.5"/>
<line x1="0.850586" y1="81.0137" x2="0.850586" y2="1.01367" stroke="white" stroke-width="0.5"/>
<line x1="36.8506" y1="81.0137" x2="36.8506" y2="1.01367" stroke="#E9E8EA" stroke-width="0.5"/>
<line x1="72.8506" y1="81.0137" x2="72.8506" y2="1.01367" stroke="#E9E8EA" stroke-width="0.5"/>
<line x1="108.851" y1="81.0137" x2="108.851" y2="1.01367" stroke="#E9E8EA" stroke-width="0.5"/>
<line x1="144.851" y1="81.0137" x2="144.851" y2="1.01367" stroke="#E9E8EA" stroke-width="0.5"/>
<line x1="180.851" y1="81.0137" x2="180.851" y2="1.01367" stroke="white" stroke-width="0.5"/>
<path d="M36.5713 27.3027L1 33.4199V80.3192H181.12V42.4825L145.096 69.6705H108.619L72.5949 37.7246L36.5713 27.3027Z" fill="url(#paint0_linear_443_36043)"/>
<line x1="72.8555" y1="1" x2="72.8555" y2="80.3057" stroke="#1A1523" stroke-width="0.5"/>
<path d="M1 33.4199L36.5713 27.3027L72.5949 37.7246L108.619 69.6705H145.096L181.12 42.4825" stroke="#4C40E7" stroke-width="0.5"/>
<circle cx="36.8691" cy="27.3027" r="1.375" fill="#4C40E7" stroke="white" stroke-width="0.75"/>
<circle cx="72.7422" cy="37.7822" r="1.375" fill="#1A1523" stroke="white" stroke-width="0.75"/>
<circle cx="108.873" cy="69.6709" r="1.375" fill="#4C40E7" stroke="white" stroke-width="0.75"/>
<circle cx="144.875" cy="69.6709" r="1.375" fill="#4C40E7" stroke="white" stroke-width="0.75"/>
<circle cx="181.101" cy="42.6689" r="1.375" fill="#4C40E7" stroke="white" stroke-width="0.75"/>
<g filter="url(#filter0_dd_443_36043)">
<rect x="77.1963" y="32.2891" width="41" height="12" rx="2" fill="#1A1523"/>
<circle cx="82.6963" cy="38.2891" r="1.5" fill="#30A46C"/>
<path d="M86.7233 41.2891V40.8416L88.4037 39.0021C88.6009 38.7867 88.7633 38.5994 88.8909 38.4403C89.0185 38.2796 89.113 38.1288 89.1743 37.9879C89.2372 37.8454 89.2687 37.6963 89.2687 37.5405C89.2687 37.3615 89.2256 37.2066 89.1395 37.0756C89.055 36.9447 88.939 36.8436 88.7915 36.7724C88.644 36.7011 88.4782 36.6655 88.2943 36.6655C88.0988 36.6655 87.9281 36.7061 87.7822 36.7873C87.6381 36.8668 87.5262 36.9787 87.4466 37.1229C87.3688 37.267 87.3298 37.4361 87.3298 37.63H86.7432C86.7432 37.3317 86.8119 37.0698 86.9495 36.8445C87.087 36.6191 87.2743 36.4434 87.5113 36.3175C87.7499 36.1915 88.0175 36.1286 88.3142 36.1286C88.6125 36.1286 88.8768 36.1915 89.1072 36.3175C89.3375 36.4434 89.5181 36.6133 89.6491 36.8271C89.78 37.0408 89.8454 37.2786 89.8454 37.5405C89.8454 37.7277 89.8115 37.9109 89.7435 38.0898C89.6772 38.2672 89.5612 38.4652 89.3955 38.6839C89.2314 38.901 89.0036 39.1662 88.7119 39.4794L87.5684 40.7024V40.7422H89.9349V41.2891H86.7233ZM90.9616 41.2891V40.8416L92.642 39.0021C92.8392 38.7867 93.0016 38.5994 93.1292 38.4403C93.2568 38.2796 93.3512 38.1288 93.4126 37.9879C93.4755 37.8454 93.507 37.6963 93.507 37.5405C93.507 37.3615 93.4639 37.2066 93.3778 37.0756C93.2932 36.9447 93.1772 36.8436 93.0297 36.7724C92.8823 36.7011 92.7165 36.6655 92.5326 36.6655C92.337 36.6655 92.1663 36.7061 92.0205 36.7873C91.8763 36.8668 91.7645 36.9787 91.6849 37.1229C91.607 37.267 91.5681 37.4361 91.5681 37.63H90.9814C90.9814 37.3317 91.0502 37.0698 91.1878 36.8445C91.3253 36.6191 91.5126 36.4434 91.7496 36.3175C91.9882 36.1915 92.2558 36.1286 92.5525 36.1286C92.8508 36.1286 93.1151 36.1915 93.3454 36.3175C93.5758 36.4434 93.7564 36.6133 93.8873 36.8271C94.0183 37.0408 94.0837 37.2786 94.0837 37.5405C94.0837 37.7277 94.0497 37.9109 93.9818 38.0898C93.9155 38.2672 93.7995 38.4652 93.6338 38.6839C93.4697 38.901 93.2419 39.1662 92.9502 39.4794L91.8067 40.7024V40.7422H94.1732V41.2891H90.9616ZM96.8604 41.3587C96.4858 41.3587 96.1668 41.2567 95.9033 41.0529C95.6398 40.8474 95.4385 40.55 95.2993 40.1605C95.1601 39.7694 95.0905 39.2971 95.0905 38.7436C95.0905 38.1934 95.1601 37.7236 95.2993 37.3342C95.4401 36.9431 95.6423 36.6448 95.9058 36.4393C96.171 36.2321 96.4891 36.1286 96.8604 36.1286C97.2316 36.1286 97.5489 36.2321 97.8124 36.4393C98.0776 36.6448 98.2797 36.9431 98.4189 37.3342C98.5598 37.7236 98.6302 38.1934 98.6302 38.7436C98.6302 39.2971 98.5606 39.7694 98.4214 40.1605C98.2822 40.55 98.0809 40.8474 97.8174 41.0529C97.5539 41.2567 97.2349 41.3587 96.8604 41.3587ZM96.8604 40.8118C97.2316 40.8118 97.5199 40.6328 97.7254 40.2749C97.9309 39.9169 98.0336 39.4065 98.0336 38.7436C98.0336 38.3028 97.9864 37.9274 97.892 37.6175C97.7992 37.3076 97.6649 37.0715 97.4893 36.9091C97.3153 36.7467 97.1056 36.6655 96.8604 36.6655C96.4925 36.6655 96.2049 36.8469 95.9978 37.2099C95.7906 37.5711 95.6871 38.0824 95.6871 38.7436C95.6871 39.1844 95.7335 39.5589 95.8263 39.8672C95.9191 40.1754 96.0525 40.4099 96.2265 40.5707C96.4021 40.7314 96.6134 40.8118 96.8604 40.8118ZM101.554 41.2891V37.4709H102.12V38.0675H102.17C102.25 37.8636 102.378 37.7054 102.555 37.5927C102.733 37.4783 102.946 37.4212 103.194 37.4212C103.446 37.4212 103.656 37.4783 103.823 37.5927C103.992 37.7054 104.124 37.8636 104.218 38.0675H104.258C104.356 37.8703 104.503 37.7137 104.698 37.5977C104.894 37.48 105.128 37.4212 105.402 37.4212C105.743 37.4212 106.022 37.5281 106.239 37.7418C106.456 37.954 106.565 38.2846 106.565 38.7337V41.2891H105.978V38.7337C105.978 38.4519 105.901 38.2506 105.747 38.1296C105.593 38.0086 105.411 37.9482 105.203 37.9482C104.934 37.9482 104.726 38.0294 104.579 38.1918C104.431 38.3525 104.358 38.5563 104.358 38.8033V41.2891H103.761V38.674C103.761 38.4569 103.69 38.2821 103.55 38.1495C103.409 38.0153 103.227 37.9482 103.005 37.9482C102.853 37.9482 102.71 37.9888 102.578 38.07C102.447 38.1512 102.341 38.2638 102.259 38.408C102.18 38.5505 102.14 38.7154 102.14 38.9027V41.2891H101.554ZM109.437 35.9595L107.797 42.0547H107.26L108.9 35.9595H109.437ZM112.837 38.326L112.31 38.4751C112.277 38.3873 112.228 38.302 112.164 38.2191C112.101 38.1346 112.014 38.065 111.905 38.0103C111.796 37.9556 111.656 37.9283 111.485 37.9283C111.251 37.9283 111.057 37.9821 110.901 38.0898C110.747 38.1959 110.67 38.331 110.67 38.495C110.67 38.6409 110.723 38.756 110.829 38.8406C110.935 38.9251 111.1 38.9955 111.326 39.0518L111.893 39.1911C112.234 39.2739 112.488 39.4007 112.656 39.5714C112.823 39.7404 112.907 39.9583 112.907 40.2251C112.907 40.4439 112.844 40.6394 112.718 40.8118C112.594 40.9841 112.42 41.12 112.196 41.2195C111.972 41.3189 111.712 41.3686 111.415 41.3686C111.026 41.3686 110.704 41.2841 110.448 41.1151C110.193 40.946 110.032 40.6991 109.964 40.3743L110.52 40.2351C110.573 40.4406 110.674 40.5947 110.821 40.6974C110.97 40.8002 111.165 40.8516 111.405 40.8516C111.679 40.8516 111.896 40.7936 112.057 40.6776C112.219 40.5599 112.3 40.419 112.3 40.255C112.3 40.1224 112.254 40.0114 112.161 39.9219C112.068 39.8307 111.926 39.7628 111.733 39.718L111.097 39.5689C110.747 39.486 110.491 39.3576 110.327 39.1836C110.164 39.0079 110.083 38.7884 110.083 38.5249C110.083 38.3094 110.143 38.1188 110.264 37.9531C110.387 37.7874 110.554 37.6573 110.764 37.5629C110.976 37.4684 111.216 37.4212 111.485 37.4212C111.863 37.4212 112.159 37.504 112.375 37.6697C112.592 37.8355 112.746 38.0542 112.837 38.326Z" fill="#FDFCFD"/>
</g>
<defs>
<filter id="filter0_dd_443_36043" x="71.1963" y="30.2891" width="53" height="24" filterUnits="userSpaceOnUse" color-interpolation-filters="sRGB">
<feFlood flood-opacity="0" result="BackgroundImageFix"/>
<feColorMatrix in="SourceAlpha" type="matrix" values="0 0 0 0 0 0 0 0 0 0 0 0 0 0 0 0 0 0 127 0" result="hardAlpha"/>
<feMorphology radius="2" operator="erode" in="SourceAlpha" result="effect1_dropShadow_443_36043"/>
<feOffset dy="2"/>
<feGaussianBlur stdDeviation="2"/>
<feColorMatrix type="matrix" values="0 0 0 0 0.0627451 0 0 0 0 0.0941176 0 0 0 0 0.156863 0 0 0 0.06 0"/>
<feBlend mode="normal" in2="BackgroundImageFix" result="effect1_dropShadow_443_36043"/>
<feColorMatrix in="SourceAlpha" type="matrix" values="0 0 0 0 0 0 0 0 0 0 0 0 0 0 0 0 0 0 127 0" result="hardAlpha"/>
<feMorphology radius="2" operator="erode" in="SourceAlpha" result="effect2_dropShadow_443_36043"/>
<feOffset dy="4"/>
<feGaussianBlur stdDeviation="4"/>
<feColorMatrix type="matrix" values="0 0 0 0 0.0627451 0 0 0 0 0.0941176 0 0 0 0 0.156863 0 0 0 0.1 0"/>
<feBlend mode="normal" in2="effect1_dropShadow_443_36043" result="effect2_dropShadow_443_36043"/>
<feBlend mode="normal" in="SourceGraphic" in2="effect2_dropShadow_443_36043" result="shape"/>
</filter>
<linearGradient id="paint0_linear_443_36043" x1="91.0602" y1="27.3027" x2="91.0602" y2="80.3192" gradientUnits="userSpaceOnUse">
<stop stop-color="#D0CCFF"/>
<stop offset="1" stop-color="#F1F0FF" stop-opacity="0"/>
</linearGradient>
</defs>
</svg>
