<svg width="183" height="82" viewBox="0 0 183 82" fill="none" xmlns="http://www.w3.org/2000/svg">
<rect width="180" height="80" transform="translate(1.21156 1.01367)" fill="#161618"/>
<line x1="1.21156" y1="0.763672" x2="181.212" y2="0.763672" stroke="#2E2E32" stroke-width="0.5"/>
<line x1="1.21156" y1="27.4304" x2="181.212" y2="27.4304" stroke="#2E2E32" stroke-width="0.5" stroke-dasharray="2 2"/>
<line x1="1.21156" y1="54.097" x2="181.212" y2="54.097" stroke="#2E2E32" stroke-width="0.5" stroke-dasharray="2 2"/>
<line x1="1.21156" y1="80.7637" x2="181.212" y2="80.7637" stroke="#2E2E32" stroke-width="0.5"/>
<line x1="0.961563" y1="81.0137" x2="0.961563" y2="1.01367" stroke="#161618" stroke-width="0.5"/>
<line x1="36.9616" y1="81.0137" x2="36.9616" y2="1.01367" stroke="#2E2E32" stroke-width="0.5"/>
<line x1="72.9616" y1="81.0137" x2="72.9616" y2="1.01367" stroke="#2E2E32" stroke-width="0.5"/>
<line x1="108.962" y1="81.0137" x2="108.962" y2="1.01367" stroke="#2E2E32" stroke-width="0.5"/>
<line x1="144.962" y1="81.0137" x2="144.962" y2="1.01367" stroke="#2E2E32" stroke-width="0.5"/>
<line x1="180.962" y1="81.0137" x2="180.962" y2="1.01367" stroke="#161618" stroke-width="0.5"/>
<path d="M36.6823 27.3027L1.11098 33.4199V80.3192H181.231V42.4825L145.207 69.6705H108.73L72.7059 37.7246L36.6823 27.3027Z" fill="url(#paint0_linear_443_36044)"/>
<line x1="72.9664" y1="1" x2="72.9664" y2="80.3057" stroke="#EDEDEF" stroke-width="0.5"/>
<path d="M1.11098 33.4199L36.6823 27.3027L72.7059 37.7246L108.73 69.6705H145.207L181.231 42.4825" stroke="#3E63DD" stroke-width="0.5"/>
<circle cx="36.9801" cy="27.3027" r="1.375" fill="#3E63DD" stroke="#161618" stroke-width="0.75"/>
<circle cx="72.8532" cy="37.7822" r="1.375" fill="#EDEDEF" stroke="#161618" stroke-width="0.75"/>
<circle cx="108.984" cy="69.6709" r="1.375" fill="#3E63DD" stroke="#161618" stroke-width="0.75"/>
<circle cx="144.986" cy="69.6709" r="1.375" fill="#3E63DD" stroke="#161618" stroke-width="0.75"/>
<circle cx="181.212" cy="42.6689" r="1.375" fill="#3E63DD" stroke="#161618" stroke-width="0.75"/>
<g filter="url(#filter0_dd_443_36044)">
<rect x="77.3073" y="32.2891" width="41" height="12" rx="2" fill="#EDEDEF"/>
<circle cx="82.8073" cy="38.2891" r="1.5" fill="#30A46C"/>
<path d="M86.8343 41.2891V40.8416L88.5147 39.0021C88.7119 38.7867 88.8743 38.5994 89.0019 38.4403C89.1295 38.2796 89.2239 38.1288 89.2852 37.9879C89.3482 37.8454 89.3797 37.6963 89.3797 37.5405C89.3797 37.3615 89.3366 37.2066 89.2504 37.0756C89.1659 36.9447 89.0499 36.8436 88.9024 36.7724C88.7549 36.7011 88.5892 36.6655 88.4053 36.6655C88.2097 36.6655 88.039 36.7061 87.8932 36.7873C87.749 36.8668 87.6372 36.9787 87.5576 37.1229C87.4797 37.267 87.4408 37.4361 87.4408 37.63H86.8541C86.8541 37.3317 86.9229 37.0698 87.0605 36.8445C87.198 36.6191 87.3853 36.4434 87.6223 36.3175C87.8609 36.1915 88.1285 36.1286 88.4252 36.1286C88.7235 36.1286 88.9878 36.1915 89.2181 36.3175C89.4485 36.4434 89.6291 36.6133 89.76 36.8271C89.891 37.0408 89.9564 37.2786 89.9564 37.5405C89.9564 37.7277 89.9224 37.9109 89.8545 38.0898C89.7882 38.2672 89.6722 38.4652 89.5065 38.6839C89.3424 38.901 89.1146 39.1662 88.8229 39.4794L87.6794 40.7024V40.7422H90.0459V41.2891H86.8343ZM91.0725 41.2891V40.8416L92.7529 39.0021C92.9501 38.7867 93.1125 38.5994 93.2401 38.4403C93.3678 38.2796 93.4622 38.1288 93.5235 37.9879C93.5865 37.8454 93.618 37.6963 93.618 37.5405C93.618 37.3615 93.5749 37.2066 93.4887 37.0756C93.4042 36.9447 93.2882 36.8436 93.1407 36.7724C92.9932 36.7011 92.8275 36.6655 92.6436 36.6655C92.448 36.6655 92.2773 36.7061 92.1315 36.7873C91.9873 36.8668 91.8754 36.9787 91.7959 37.1229C91.718 37.267 91.6791 37.4361 91.6791 37.63H91.0924C91.0924 37.3317 91.1612 37.0698 91.2987 36.8445C91.4363 36.6191 91.6236 36.4434 91.8605 36.3175C92.0992 36.1915 92.3668 36.1286 92.6634 36.1286C92.9617 36.1286 93.2261 36.1915 93.4564 36.3175C93.6868 36.4434 93.8674 36.6133 93.9983 36.8271C94.1292 37.0408 94.1947 37.2786 94.1947 37.5405C94.1947 37.7277 94.1607 37.9109 94.0928 38.0898C94.0265 38.2672 93.9105 38.4652 93.7448 38.6839C93.5807 38.901 93.3528 39.1662 93.0612 39.4794L91.9177 40.7024V40.7422H94.2842V41.2891H91.0725ZM96.9713 41.3587C96.5968 41.3587 96.2778 41.2567 96.0143 41.0529C95.7508 40.8474 95.5495 40.55 95.4102 40.1605C95.271 39.7694 95.2014 39.2971 95.2014 38.7436C95.2014 38.1934 95.271 37.7236 95.4102 37.3342C95.5511 36.9431 95.7533 36.6448 96.0168 36.4393C96.2819 36.2321 96.6001 36.1286 96.9713 36.1286C97.3425 36.1286 97.6599 36.2321 97.9234 36.4393C98.1885 36.6448 98.3907 36.9431 98.5299 37.3342C98.6708 37.7236 98.7412 38.1934 98.7412 38.7436C98.7412 39.2971 98.6716 39.7694 98.5324 40.1605C98.3932 40.55 98.1919 40.8474 97.9284 41.0529C97.6649 41.2567 97.3459 41.3587 96.9713 41.3587ZM96.9713 40.8118C97.3425 40.8118 97.6309 40.6328 97.8364 40.2749C98.0419 39.9169 98.1446 39.4065 98.1446 38.7436C98.1446 38.3028 98.0974 37.9274 98.0029 37.6175C97.9101 37.3076 97.7759 37.0715 97.6002 36.9091C97.4262 36.7467 97.2166 36.6655 96.9713 36.6655C96.6034 36.6655 96.3159 36.8469 96.1088 37.2099C95.9016 37.5711 95.798 38.0824 95.798 38.7436C95.798 39.1844 95.8444 39.5589 95.9372 39.8672C96.03 40.1754 96.1634 40.4099 96.3375 40.5707C96.5131 40.7314 96.7244 40.8118 96.9713 40.8118ZM101.665 41.2891V37.4709H102.231V38.0675H102.281C102.361 37.8636 102.489 37.7054 102.666 37.5927C102.844 37.4783 103.057 37.4212 103.305 37.4212C103.557 37.4212 103.767 37.4783 103.934 37.5927C104.103 37.7054 104.235 37.8636 104.329 38.0675H104.369C104.467 37.8703 104.613 37.7137 104.809 37.5977C105.005 37.48 105.239 37.4212 105.513 37.4212C105.854 37.4212 106.133 37.5281 106.35 37.7418C106.567 37.954 106.676 38.2846 106.676 38.7337V41.2891H106.089V38.7337C106.089 38.4519 106.012 38.2506 105.858 38.1296C105.704 38.0086 105.522 37.9482 105.314 37.9482C105.045 37.9482 104.837 38.0294 104.69 38.1918C104.542 38.3525 104.468 38.5563 104.468 38.8033V41.2891H103.872V38.674C103.872 38.4569 103.801 38.2821 103.661 38.1495C103.52 38.0153 103.338 37.9482 103.116 37.9482C102.964 37.9482 102.821 37.9888 102.689 38.07C102.558 38.1512 102.452 38.2638 102.37 38.408C102.291 38.5505 102.251 38.7154 102.251 38.9027V41.2891H101.665ZM109.548 35.9595L107.908 42.0547H107.371L109.011 35.9595H109.548ZM112.948 38.326L112.421 38.4751C112.388 38.3873 112.339 38.302 112.275 38.2191C112.212 38.1346 112.125 38.065 112.016 38.0103C111.907 37.9556 111.767 37.9283 111.596 37.9283C111.362 37.9283 111.167 37.9821 111.012 38.0898C110.858 38.1959 110.781 38.331 110.781 38.495C110.781 38.6409 110.834 38.756 110.94 38.8406C111.046 38.9251 111.211 38.9955 111.437 39.0518L112.004 39.1911C112.345 39.2739 112.599 39.4007 112.767 39.5714C112.934 39.7404 113.018 39.9583 113.018 40.2251C113.018 40.4439 112.955 40.6394 112.829 40.8118C112.705 40.9841 112.531 41.12 112.307 41.2195C112.083 41.3189 111.823 41.3686 111.526 41.3686C111.137 41.3686 110.815 41.2841 110.559 41.1151C110.304 40.946 110.143 40.6991 110.075 40.3743L110.631 40.2351C110.684 40.4406 110.785 40.5947 110.932 40.6974C111.081 40.8002 111.276 40.8516 111.516 40.8516C111.79 40.8516 112.007 40.7936 112.168 40.6776C112.33 40.5599 112.411 40.419 112.411 40.255C112.411 40.1224 112.365 40.0114 112.272 39.9219C112.179 39.8307 112.037 39.7628 111.844 39.718L111.208 39.5689C110.858 39.486 110.602 39.3576 110.438 39.1836C110.275 39.0079 110.194 38.7884 110.194 38.5249C110.194 38.3094 110.254 38.1188 110.375 37.9531C110.498 37.7874 110.665 37.6573 110.875 37.5629C111.087 37.4684 111.327 37.4212 111.596 37.4212C111.974 37.4212 112.27 37.504 112.486 37.6697C112.703 37.8355 112.857 38.0542 112.948 38.326Z" fill="#161618"/>
</g>
<defs>
<filter id="filter0_dd_443_36044" x="71.3073" y="30.2891" width="53" height="24" filterUnits="userSpaceOnUse" color-interpolation-filters="sRGB">
<feFlood flood-opacity="0" result="BackgroundImageFix"/>
<feColorMatrix in="SourceAlpha" type="matrix" values="0 0 0 0 0 0 0 0 0 0 0 0 0 0 0 0 0 0 127 0" result="hardAlpha"/>
<feMorphology radius="2" operator="erode" in="SourceAlpha" result="effect1_dropShadow_443_36044"/>
<feOffset dy="2"/>
<feGaussianBlur stdDeviation="2"/>
<feColorMatrix type="matrix" values="0 0 0 0 0.0627451 0 0 0 0 0.0941176 0 0 0 0 0.156863 0 0 0 0.06 0"/>
<feBlend mode="normal" in2="BackgroundImageFix" result="effect1_dropShadow_443_36044"/>
<feColorMatrix in="SourceAlpha" type="matrix" values="0 0 0 0 0 0 0 0 0 0 0 0 0 0 0 0 0 0 127 0" result="hardAlpha"/>
<feMorphology radius="2" operator="erode" in="SourceAlpha" result="effect2_dropShadow_443_36044"/>
<feOffset dy="4"/>
<feGaussianBlur stdDeviation="4"/>
<feColorMatrix type="matrix" values="0 0 0 0 0.0627451 0 0 0 0 0.0941176 0 0 0 0 0.156863 0 0 0 0.1 0"/>
<feBlend mode="normal" in2="effect1_dropShadow_443_36044" result="effect2_dropShadow_443_36044"/>
<feBlend mode="normal" in="SourceGraphic" in2="effect2_dropShadow_443_36044" result="shape"/>
</filter>
<linearGradient id="paint0_linear_443_36044" x1="91.1712" y1="27.3027" x2="91.1712" y2="80.3192" gradientUnits="userSpaceOnUse">
<stop stop-color="#3E63DD"/>
<stop offset="1" stop-opacity="0"/>
</linearGradient>
</defs>
</svg>
