<svg width="181" height="80" viewBox="0 0 181 80" fill="none" xmlns="http://www.w3.org/2000/svg">
<rect width="24" height="24" rx="4" fill="#F4F2F4"/>
<path d="M12 11.9999C13.2426 11.9999 14.25 10.9926 14.25 9.74994C14.25 8.5073 13.2426 7.49994 12 7.49994C10.7574 7.49994 9.75 8.5073 9.75 9.74994C9.75 10.9926 10.7574 11.9999 12 11.9999Z" stroke="#1A1523" stroke-linecap="round" stroke-linejoin="round"/>
<path d="M16 16.5001C15.6214 15.7656 15.0479 15.1494 14.3423 14.7193C13.6367 14.2892 12.8264 14.0616 12 14.0616C11.1736 14.0616 10.3633 14.2892 9.65767 14.7193C8.95209 15.1494 8.37857 15.7656 8 16.5001" stroke="#1A1523" stroke-linecap="round" stroke-linejoin="round"/>
<path d="M33.2631 4.45455H34.2475V9.09517C34.2475 9.51491 34.1644 9.87393 33.9982 10.1722C33.8342 10.4705 33.603 10.6985 33.3047 10.8562C33.0064 11.0117 32.657 11.0895 32.2564 11.0895C31.8878 11.0895 31.5565 11.0224 31.2624 10.8881C30.9705 10.7539 30.7393 10.5589 30.5689 10.3033C30.4006 10.0455 30.3164 9.73224 30.3164 9.36364H31.2976C31.2976 9.54474 31.3391 9.70135 31.4222 9.83345C31.5075 9.96555 31.6236 10.0689 31.7706 10.1435C31.9197 10.2159 32.0902 10.2521 32.282 10.2521C32.4908 10.2521 32.6676 10.2085 32.8125 10.1211C32.9595 10.0316 33.0714 9.90057 33.1481 9.72798C33.2248 9.5554 33.2631 9.34446 33.2631 9.09517V4.45455ZM36.9372 11.1087C36.6261 11.1087 36.3449 11.0511 36.0935 10.9361C35.842 10.8189 35.6428 10.6495 35.4958 10.4279C35.3509 10.2063 35.2785 9.93466 35.2785 9.61293C35.2785 9.33594 35.3317 9.10795 35.4383 8.92898C35.5448 8.75 35.6886 8.60831 35.8697 8.50391C36.0508 8.3995 36.2533 8.32067 36.477 8.2674C36.7007 8.21413 36.9287 8.17365 37.1609 8.14595C37.455 8.11186 37.6936 8.08416 37.8768 8.06286C38.0601 8.03942 38.1932 8.00213 38.2763 7.95099C38.3594 7.89986 38.401 7.81676 38.401 7.7017V7.67933C38.401 7.40021 38.3222 7.18395 38.1645 7.03054C38.0089 6.87713 37.7767 6.80043 37.4678 6.80043C37.146 6.80043 36.8925 6.8718 36.7071 7.01456C36.5239 7.15518 36.3971 7.31179 36.3268 7.48438L35.4287 7.27983C35.5352 6.98153 35.6908 6.74077 35.8953 6.55753C36.102 6.37216 36.3396 6.23793 36.608 6.15483C36.8765 6.0696 37.1588 6.02699 37.455 6.02699C37.651 6.02699 37.8587 6.05043 38.0782 6.0973C38.2998 6.14205 38.5065 6.22514 38.6982 6.34659C38.8921 6.46804 39.0508 6.64169 39.1744 6.86754C39.298 7.09126 39.3598 7.3821 39.3598 7.74006V11H38.4266V10.3288H38.3882C38.3264 10.4524 38.2337 10.5739 38.1102 10.6932C37.9866 10.8125 37.8278 10.9116 37.6339 10.9904C37.4401 11.0692 37.2078 11.1087 36.9372 11.1087ZM37.145 10.3416C37.4092 10.3416 37.635 10.2894 37.8225 10.185C38.0121 10.0806 38.156 9.94425 38.254 9.77592C38.3541 9.60547 38.4042 9.4233 38.4042 9.2294V8.59659C38.3701 8.63068 38.304 8.66264 38.206 8.69247C38.1102 8.72017 38.0004 8.74467 37.8768 8.76598C37.7533 8.78516 37.6329 8.80327 37.5157 8.82031C37.3985 8.83523 37.3005 8.84801 37.2217 8.85866C37.0363 8.8821 36.8669 8.92152 36.7135 8.97692C36.5622 9.03232 36.4408 9.11222 36.3491 9.21662C36.2597 9.31889 36.2149 9.45526 36.2149 9.62571C36.2149 9.86222 36.3023 10.0412 36.477 10.1626C36.6517 10.282 36.8744 10.3416 37.145 10.3416ZM41.4886 8.08523V11H40.533V6.09091H41.4502V6.88991H41.511C41.6239 6.62997 41.8007 6.42116 42.0415 6.26349C42.2844 6.10582 42.5902 6.02699 42.9588 6.02699C43.2933 6.02699 43.5862 6.0973 43.8377 6.23793C44.0891 6.37642 44.284 6.5831 44.4225 6.85795C44.561 7.13281 44.6303 7.47266 44.6303 7.87749V11H43.6747V7.99254C43.6747 7.63672 43.582 7.35866 43.3966 7.15838C43.2112 6.95597 42.9566 6.85476 42.6328 6.85476C42.4112 6.85476 42.2141 6.9027 42.0415 6.99858C41.8711 7.09446 41.7358 7.23509 41.6356 7.42045C41.5376 7.60369 41.4886 7.82528 41.4886 8.08523ZM47.928 11.0991C47.4444 11.0991 47.0278 10.9957 46.6784 10.7891C46.3311 10.5803 46.0626 10.2873 45.873 9.91016C45.6855 9.53089 45.5917 9.08665 45.5917 8.57741C45.5917 8.07457 45.6855 7.63139 45.873 7.24787C46.0626 6.86435 46.3268 6.56499 46.6656 6.34979C47.0065 6.13459 47.4049 6.02699 47.8609 6.02699C48.1379 6.02699 48.4064 6.0728 48.6663 6.16442C48.9262 6.25604 49.1596 6.39986 49.3662 6.59588C49.5729 6.7919 49.7359 7.04652 49.8552 7.35973C49.9745 7.67081 50.0342 8.04901 50.0342 8.49432V8.8331H46.1319V8.11719H49.0978C49.0978 7.86577 49.0466 7.64311 48.9444 7.44922C48.8421 7.2532 48.6983 7.09872 48.5129 6.9858C48.3297 6.87287 48.1145 6.81641 47.8673 6.81641C47.5988 6.81641 47.3645 6.88246 47.1642 7.01456C46.966 7.14453 46.8126 7.31499 46.7039 7.52592C46.5974 7.73473 46.5441 7.96165 46.5441 8.20668V8.76598C46.5441 9.09411 46.6017 9.37322 46.7167 9.60334C46.8339 9.83345 46.9969 10.0092 47.2057 10.1307C47.4145 10.25 47.6585 10.3097 47.9376 10.3097C48.1187 10.3097 48.2838 10.2841 48.433 10.233C48.5821 10.1797 48.7111 10.1009 48.8197 9.99645C48.9284 9.89205 49.0115 9.76314 49.069 9.60973L49.9735 9.77273C49.901 10.0391 49.7711 10.2724 49.5836 10.4727C49.3982 10.6708 49.1649 10.8253 48.8836 10.9361C48.6045 11.0447 48.286 11.0991 47.928 11.0991ZM56.9237 6.17401C56.8896 5.87145 56.749 5.63707 56.5018 5.47088C56.2547 5.30256 55.9436 5.21839 55.5686 5.21839C55.3001 5.21839 55.0679 5.26101 54.8719 5.34624C54.6759 5.42933 54.5235 5.54439 54.4148 5.69141C54.3083 5.83629 54.255 6.00142 54.255 6.18679C54.255 6.34233 54.2913 6.47656 54.3637 6.58949C54.4383 6.70241 54.5352 6.79723 54.6545 6.87393C54.776 6.94851 54.906 7.01136 55.0445 7.0625C55.183 7.11151 55.3161 7.15199 55.444 7.18395L56.0832 7.35014C56.292 7.40128 56.5061 7.47053 56.7256 7.55788C56.945 7.64524 57.1485 7.7603 57.336 7.90305C57.5235 8.04581 57.6748 8.22266 57.7898 8.43359C57.907 8.64453 57.9656 8.89702 57.9656 9.19105C57.9656 9.56179 57.8697 9.89098 57.678 10.1786C57.4884 10.4663 57.2124 10.6932 56.8502 10.8594C56.4901 11.0256 56.0544 11.1087 55.543 11.1087C55.053 11.1087 54.629 11.0309 54.271 10.8754C53.9131 10.7198 53.6329 10.4993 53.4305 10.2138C53.2281 9.92614 53.1162 9.58523 53.0949 9.19105H54.0857C54.1048 9.42756 54.1815 9.62464 54.3158 9.78232C54.4521 9.93786 54.6258 10.054 54.8367 10.1307C55.0498 10.2053 55.2831 10.2425 55.5366 10.2425C55.8158 10.2425 56.064 10.1989 56.2813 10.1115C56.5008 10.022 56.6734 9.89844 56.7991 9.74077C56.9248 9.58097 56.9876 9.39453 56.9876 9.18146C56.9876 8.98757 56.9322 8.82884 56.8214 8.70526C56.7128 8.58168 56.5647 8.4794 56.3772 8.39844C56.1918 8.31747 55.982 8.24609 55.7476 8.1843L54.9741 7.97337C54.45 7.83061 54.0345 7.62074 53.7277 7.34375C53.423 7.06676 53.2707 6.70028 53.2707 6.24432C53.2707 5.86719 53.3729 5.538 53.5775 5.25675C53.782 4.9755 54.059 4.7571 54.4084 4.60156C54.7579 4.44389 55.1521 4.36506 55.591 4.36506C56.0342 4.36506 56.4251 4.44283 56.7639 4.59837C57.1048 4.75391 57.3733 4.96804 57.5693 5.24077C57.7653 5.51136 57.8676 5.82244 57.8761 6.17401H56.9237ZM58.9694 11V6.09091H59.8867V6.88991H59.9474C60.0497 6.61932 60.2169 6.40838 60.4492 6.2571C60.6814 6.10369 60.9595 6.02699 61.2833 6.02699C61.6115 6.02699 61.8863 6.10369 62.1079 6.2571C62.3316 6.41051 62.4968 6.62145 62.6033 6.88991H62.6544C62.7716 6.62784 62.9581 6.41903 63.2137 6.26349C63.4694 6.10582 63.7741 6.02699 64.1278 6.02699C64.5731 6.02699 64.9364 6.16655 65.2176 6.44567C65.501 6.72479 65.6427 7.1456 65.6427 7.7081V11H64.6871V7.79759C64.6871 7.4652 64.5966 7.22443 64.4154 7.07528C64.2343 6.92614 64.0181 6.85156 63.7666 6.85156C63.4556 6.85156 63.2137 6.94744 63.0412 7.1392C62.8686 7.32884 62.7823 7.5728 62.7823 7.87109V11H61.8299V7.73686C61.8299 7.47053 61.7468 7.25639 61.5806 7.09446C61.4144 6.93253 61.1981 6.85156 60.9318 6.85156C60.7507 6.85156 60.5834 6.8995 60.43 6.99538C60.2787 7.08913 60.1562 7.22017 60.0625 7.38849C59.9708 7.55682 59.925 7.75178 59.925 7.97337V11H58.9694ZM66.8239 11V6.09091H67.7795V11H66.8239ZM67.3065 5.33345C67.1403 5.33345 66.9975 5.27805 66.8782 5.16726C66.761 5.05433 66.7024 4.9201 66.7024 4.76456C66.7024 4.60689 66.761 4.47266 66.8782 4.36186C66.9975 4.24893 67.1403 4.19247 67.3065 4.19247C67.4727 4.19247 67.6144 4.24893 67.7316 4.36186C67.8509 4.47266 67.9105 4.60689 67.9105 4.76456C67.9105 4.9201 67.8509 5.05433 67.7316 5.16726C67.6144 5.27805 67.4727 5.33345 67.3065 5.33345ZM71.257 6.09091V6.85795H68.5756V6.09091H71.257ZM69.2947 4.91477H70.2503V9.55859C70.2503 9.74396 70.278 9.88352 70.3334 9.97727C70.3888 10.0689 70.4601 10.1317 70.5475 10.1658C70.637 10.1978 70.7339 10.2138 70.8383 10.2138C70.915 10.2138 70.9822 10.2085 71.0397 10.1978C71.0972 10.1871 71.142 10.1786 71.1739 10.1722L71.3465 10.9616C71.2911 10.983 71.2123 11.0043 71.11 11.0256C71.0077 11.049 70.8799 11.0618 70.7265 11.0639C70.4751 11.0682 70.2407 11.0234 70.0234 10.9297C69.806 10.8359 69.6302 10.6911 69.496 10.495C69.3618 10.299 69.2947 10.0529 69.2947 9.75675V4.91477ZM73.2756 8.08523V11H72.3199V4.45455H73.2628V6.88991H73.3235C73.4385 6.62571 73.6143 6.41584 73.8508 6.2603C74.0873 6.10476 74.3963 6.02699 74.7777 6.02699C75.1143 6.02699 75.4084 6.09624 75.6598 6.23473C75.9133 6.37322 76.1094 6.5799 76.2479 6.85476C76.3885 7.12749 76.4588 7.46839 76.4588 7.87749V11H75.5032V7.99254C75.5032 7.63246 75.4105 7.35334 75.2251 7.15518C75.0398 6.9549 74.7819 6.85476 74.4517 6.85476C74.2258 6.85476 74.0234 6.9027 73.8444 6.99858C73.6676 7.09446 73.528 7.23509 73.4258 7.42045C73.3256 7.60369 73.2756 7.82528 73.2756 8.08523Z" fill="#1A1523"/>
<path d="M30.4996 18.1818H31.2429V22.2486C31.2429 22.5038 31.1965 22.7192 31.1037 22.8949C31.0125 23.0705 30.8767 23.204 30.696 23.2951C30.517 23.3862 30.2958 23.4318 30.0323 23.4318C30.0058 23.4318 29.9809 23.4318 29.9577 23.4318C29.9329 23.4318 29.9072 23.431 29.8807 23.4293V22.7905C29.9039 22.7905 29.9246 22.7905 29.9428 22.7905C29.9594 22.7905 29.9785 22.7905 30 22.7905C30.1757 22.7905 30.3024 22.7433 30.3803 22.6488C30.4599 22.556 30.4996 22.4209 30.4996 22.2436V18.1818ZM30.8675 17.5927C30.7383 17.5927 30.6272 17.5496 30.5344 17.4634C30.4433 17.3756 30.3977 17.2712 30.3977 17.1502C30.3977 17.0276 30.4433 16.9232 30.5344 16.837C30.6272 16.7492 30.7383 16.7053 30.8675 16.7053C30.9968 16.7053 31.107 16.7492 31.1982 16.837C31.291 16.9232 31.3374 17.0276 31.3374 17.1502C31.3374 17.2712 31.291 17.3756 31.1982 17.4634C31.107 17.5496 30.9968 17.5927 30.8675 17.5927ZM33.2543 22.0845C33.0124 22.0845 32.7936 22.0398 32.5981 21.9503C32.4025 21.8591 32.2476 21.7274 32.1332 21.555C32.0205 21.3827 31.9642 21.1714 31.9642 20.9212C31.9642 20.7057 32.0056 20.5284 32.0885 20.3892C32.1714 20.25 32.2832 20.1398 32.4241 20.0586C32.5649 19.9774 32.7224 19.9161 32.8964 19.8746C33.0704 19.8332 33.2477 19.8017 33.4283 19.7802C33.657 19.7537 33.8426 19.7321 33.9852 19.7156C34.1277 19.6973 34.2312 19.6683 34.2959 19.6286C34.3605 19.5888 34.3928 19.5241 34.3928 19.4347V19.4173C34.3928 19.2002 34.3315 19.032 34.2089 18.9126C34.0879 18.7933 33.9073 18.7337 33.667 18.7337C33.4167 18.7337 33.2195 18.7892 33.0754 18.9002C32.9328 19.0096 32.8342 19.1314 32.7795 19.2656L32.081 19.1065C32.1639 18.8745 32.2849 18.6873 32.444 18.5447C32.6047 18.4006 32.7895 18.2962 32.9983 18.2315C33.2071 18.1652 33.4267 18.1321 33.657 18.1321C33.8095 18.1321 33.9711 18.1503 34.1418 18.1868C34.3141 18.2216 34.4749 18.2862 34.624 18.3807C34.7748 18.4751 34.8983 18.6102 34.9944 18.7859C35.0905 18.9599 35.1386 19.1861 35.1386 19.4645V22H34.4127V21.478H34.3829C34.3348 21.5741 34.2627 21.6686 34.1666 21.7614C34.0705 21.8542 33.947 21.9312 33.7962 21.9925C33.6454 22.0539 33.4648 22.0845 33.2543 22.0845ZM33.4159 21.4879C33.6214 21.4879 33.7971 21.4473 33.9429 21.3661C34.0904 21.2849 34.2022 21.1789 34.2785 21.0479C34.3564 20.9154 34.3953 20.7737 34.3953 20.6229V20.1307C34.3688 20.1572 34.3174 20.1821 34.2412 20.2053C34.1666 20.2268 34.0813 20.2459 33.9852 20.2624C33.889 20.2773 33.7954 20.2914 33.7043 20.3047C33.6131 20.3163 33.5369 20.3262 33.4756 20.3345C33.3314 20.3527 33.1996 20.3834 33.0803 20.4265C32.9627 20.4696 32.8682 20.5317 32.7969 20.6129C32.7273 20.6925 32.6925 20.7985 32.6925 20.9311C32.6925 21.1151 32.7605 21.2543 32.8964 21.3487C33.0323 21.4415 33.2054 21.4879 33.4159 21.4879ZM36.7722 19.733V22H36.0289V18.1818H36.7423V18.8033H36.7896C36.8774 18.6011 37.0149 18.4387 37.2022 18.3161C37.3911 18.1934 37.6289 18.1321 37.9156 18.1321C38.1758 18.1321 38.4037 18.1868 38.5992 18.2962C38.7948 18.4039 38.9464 18.5646 39.0541 18.7784C39.1618 18.9922 39.2157 19.2565 39.2157 19.5714V22H38.4724V19.6609C38.4724 19.3841 38.4003 19.1679 38.2562 19.0121C38.112 18.8546 37.914 18.7759 37.6621 18.7759C37.4897 18.7759 37.3364 18.8132 37.2022 18.8878C37.0696 18.9624 36.9644 19.0717 36.8865 19.2159C36.8103 19.3584 36.7722 19.5308 36.7722 19.733ZM41.7585 22.0771C41.3823 22.0771 41.0583 21.9967 40.7865 21.8359C40.5164 21.6735 40.3076 21.4457 40.1601 21.1523C40.0143 20.8574 39.9413 20.5118 39.9413 20.1158C39.9413 19.7247 40.0143 19.38 40.1601 19.0817C40.3076 18.7834 40.5131 18.5505 40.7766 18.3832C41.0417 18.2158 41.3516 18.1321 41.7063 18.1321C41.9217 18.1321 42.1305 18.1677 42.3327 18.239C42.5349 18.3103 42.7163 18.4221 42.8771 18.5746C43.0378 18.727 43.1646 18.9251 43.2574 19.1687C43.3502 19.4106 43.3966 19.7048 43.3966 20.0511V20.3146H40.3614V19.7578H42.6683C42.6683 19.5623 42.6285 19.3891 42.5489 19.2383C42.4694 19.0858 42.3575 18.9657 42.2134 18.8778C42.0708 18.79 41.9035 18.7461 41.7112 18.7461C41.5024 18.7461 41.3201 18.7975 41.1644 18.9002C41.0102 19.0013 40.8909 19.1339 40.8064 19.2979C40.7235 19.4603 40.6821 19.6368 40.6821 19.8274V20.2624C40.6821 20.5176 40.7269 20.7347 40.8163 20.9137C40.9075 21.0927 41.0343 21.2294 41.1967 21.3239C41.3591 21.4167 41.5488 21.4631 41.7659 21.4631C41.9068 21.4631 42.0352 21.4432 42.1512 21.4034C42.2672 21.362 42.3675 21.3007 42.452 21.2195C42.5365 21.1383 42.6011 21.038 42.6459 20.9187L43.3494 21.0455C43.293 21.2526 43.1919 21.4341 43.0461 21.5898C42.9019 21.744 42.7205 21.8641 42.5017 21.9503C42.2846 22.0348 42.0369 22.0771 41.7585 22.0771ZM46.9828 19.114L46.3091 19.2333C46.281 19.1471 46.2362 19.0651 46.1749 18.9872C46.1152 18.9093 46.034 18.8455 45.9313 18.7958C45.8285 18.7461 45.7001 18.7212 45.546 18.7212C45.3355 18.7212 45.1599 18.7685 45.019 18.8629C44.8781 18.9557 44.8077 19.0759 44.8077 19.2234C44.8077 19.351 44.8549 19.4537 44.9494 19.5316C45.0439 19.6095 45.1963 19.6733 45.4068 19.723L46.0133 19.8622C46.3646 19.9434 46.6265 20.0685 46.7988 20.2376C46.9712 20.4066 47.0574 20.6262 47.0574 20.8963C47.0574 21.125 46.9911 21.3288 46.8585 21.5078C46.7276 21.6851 46.5445 21.8243 46.3091 21.9254C46.0755 22.0265 45.8045 22.0771 45.4963 22.0771C45.0687 22.0771 44.7199 21.9859 44.4498 21.8036C44.1796 21.6197 44.0139 21.3587 43.9526 21.0206L44.671 20.9112C44.7157 21.0985 44.8077 21.2402 44.9469 21.3363C45.0861 21.4308 45.2676 21.478 45.4913 21.478C45.7349 21.478 45.9296 21.4274 46.0755 21.3263C46.2213 21.2236 46.2942 21.0985 46.2942 20.951C46.2942 20.8317 46.2495 20.7314 46.16 20.6502C46.0721 20.569 45.9371 20.5077 45.7548 20.4663L45.1085 20.3246C44.7522 20.2434 44.4887 20.1141 44.318 19.9368C44.149 19.7595 44.0645 19.5349 44.0645 19.2631C44.0645 19.0378 44.1274 18.8406 44.2534 18.6715C44.3793 18.5025 44.5533 18.3707 44.7754 18.2763C44.9975 18.1802 45.2518 18.1321 45.5385 18.1321C45.9512 18.1321 46.276 18.2216 46.513 18.4006C46.7499 18.5779 46.9065 18.8157 46.9828 19.114ZM47.7749 22V18.1818H48.4884V18.8033H48.5356C48.6151 18.5928 48.7452 18.4287 48.9259 18.3111C49.1065 18.1918 49.3227 18.1321 49.5746 18.1321C49.8299 18.1321 50.0436 18.1918 50.216 18.3111C50.39 18.4304 50.5184 18.5945 50.6013 18.8033H50.641C50.7322 18.5994 50.8772 18.437 51.0761 18.3161C51.2749 18.1934 51.5119 18.1321 51.787 18.1321C52.1334 18.1321 52.4159 18.2406 52.6347 18.4577C52.8551 18.6748 52.9653 19.0021 52.9653 19.4396V22H52.222V19.5092C52.222 19.2507 52.1516 19.0634 52.0107 18.9474C51.8699 18.8314 51.7017 18.7734 51.5061 18.7734C51.2642 18.7734 51.0761 18.848 50.9418 18.9972C50.8076 19.1446 50.7405 19.3344 50.7405 19.5664V22H49.9997V19.462C49.9997 19.2549 49.9351 19.0883 49.8058 18.9624C49.6766 18.8364 49.5084 18.7734 49.3012 18.7734C49.1603 18.7734 49.0303 18.8107 48.9109 18.8853C48.7933 18.9582 48.698 19.0601 48.6251 19.1911C48.5538 19.322 48.5182 19.4736 48.5182 19.646V22H47.7749ZM53.8618 22V18.1818H54.6051V22H53.8618ZM54.2372 17.5927C54.1079 17.5927 53.9969 17.5496 53.9041 17.4634C53.8129 17.3756 53.7674 17.2712 53.7674 17.1502C53.7674 17.0276 53.8129 16.9232 53.9041 16.837C53.9969 16.7492 54.1079 16.7053 54.2372 16.7053C54.3664 16.7053 54.4766 16.7492 54.5678 16.837C54.6606 16.9232 54.707 17.0276 54.707 17.1502C54.707 17.2712 54.6606 17.3756 54.5678 17.4634C54.4766 17.5496 54.3664 17.5927 54.2372 17.5927ZM57.2877 18.1818V18.7784H55.2021V18.1818H57.2877ZM55.7614 17.267H56.5046V20.8789C56.5046 21.0231 56.5262 21.1316 56.5693 21.2045C56.6124 21.2758 56.6679 21.3247 56.7358 21.3512C56.8054 21.3761 56.8808 21.3885 56.962 21.3885C57.0217 21.3885 57.0739 21.3844 57.1186 21.3761C57.1634 21.3678 57.1982 21.3612 57.223 21.3562L57.3573 21.9702C57.3142 21.9867 57.2529 22.0033 57.1733 22.0199C57.0938 22.0381 56.9943 22.0481 56.875 22.0497C56.6795 22.053 56.4972 22.0182 56.3282 21.9453C56.1591 21.8724 56.0224 21.7597 55.918 21.6072C55.8136 21.4548 55.7614 21.2634 55.7614 21.033V17.267ZM58.8355 19.733V22H58.0922V16.9091H58.8256V18.8033H58.8728C58.9623 18.5978 59.099 18.4345 59.2829 18.3136C59.4669 18.1926 59.7072 18.1321 60.0038 18.1321C60.2657 18.1321 60.4944 18.186 60.6899 18.2937C60.8871 18.4014 61.0396 18.5621 61.1473 18.7759C61.2567 18.988 61.3113 19.2532 61.3113 19.5714V22H60.5681V19.6609C60.5681 19.3808 60.496 19.1637 60.3518 19.0096C60.2077 18.8538 60.0071 18.7759 59.7503 18.7759C59.5746 18.7759 59.4172 18.8132 59.278 18.8878C59.1404 18.9624 59.0319 19.0717 58.9523 19.2159C58.8744 19.3584 58.8355 19.5308 58.8355 19.733ZM65.2685 23.3846C64.7548 23.3846 64.2991 23.3142 63.9014 23.1733C63.5053 23.0341 63.1714 22.8286 62.8996 22.5568C62.6278 22.2867 62.4215 21.9553 62.2806 21.5625C62.1397 21.1697 62.0693 20.7215 62.0693 20.2177C62.0693 19.7272 62.1406 19.2863 62.2831 18.8952C62.4256 18.5041 62.6328 18.171 62.9045 17.896C63.178 17.6192 63.5103 17.4079 63.9014 17.2621C64.2924 17.1162 64.7366 17.0433 65.2337 17.0433C65.7094 17.0433 66.1286 17.1179 66.4915 17.267C66.8545 17.4162 67.1594 17.6209 67.4063 17.881C67.6549 18.1412 67.8422 18.4395 67.9681 18.7759C68.0941 19.1123 68.157 19.4678 68.157 19.8423C68.157 20.1042 68.1405 20.3602 68.1073 20.6104C68.0742 20.859 68.0129 21.0844 67.9234 21.2866C67.8355 21.4871 67.7079 21.6478 67.5406 21.7688C67.3748 21.8881 67.1594 21.9503 66.8942 21.9553C66.7534 21.9602 66.6167 21.9437 66.4841 21.9055C66.3515 21.8674 66.2388 21.8061 66.146 21.7216C66.0532 21.6354 65.9969 21.526 65.977 21.3935H65.9472C65.9074 21.4912 65.8411 21.5824 65.7483 21.6669C65.6555 21.7498 65.537 21.8161 65.3928 21.8658C65.2503 21.9138 65.0846 21.9337 64.8957 21.9254C64.6869 21.9171 64.4988 21.8699 64.3314 21.7837C64.164 21.6976 64.0207 21.5782 63.9014 21.4258C63.7837 21.2733 63.6934 21.0927 63.6304 20.8839C63.5674 20.6751 63.5359 20.4431 63.5359 20.1879C63.5359 19.9426 63.5716 19.723 63.6428 19.5291C63.7141 19.3336 63.811 19.1654 63.9337 19.0245C64.058 18.882 64.2005 18.7693 64.3612 18.6864C64.522 18.6036 64.6918 18.5514 64.8708 18.5298C65.0448 18.5099 65.2047 18.5149 65.3506 18.5447C65.4964 18.5746 65.6174 18.6201 65.7135 18.6815C65.8113 18.7428 65.8726 18.8099 65.8974 18.8828H65.9298V18.6044H66.5413V20.9112C66.5413 21.0421 66.5752 21.1532 66.6432 21.2443C66.7128 21.3355 66.8114 21.381 66.939 21.381C67.0898 21.381 67.2075 21.3255 67.292 21.2145C67.3781 21.1035 67.4386 20.9328 67.4734 20.7024C67.5099 20.4721 67.5281 20.1771 67.5281 19.8175C67.5281 19.5656 67.4942 19.3286 67.4262 19.1065C67.3599 18.8828 67.2613 18.6806 67.1304 18.5C67.0011 18.3177 66.842 18.1611 66.6531 18.0302C66.4642 17.8993 66.2488 17.7982 66.0068 17.7269C65.7665 17.6557 65.5005 17.62 65.2089 17.62C64.8128 17.62 64.4607 17.6813 64.1524 17.804C63.8442 17.925 63.584 18.0998 63.3719 18.3285C63.1614 18.5572 63.0015 18.8314 62.8921 19.1513C62.7844 19.4695 62.7305 19.8266 62.7305 20.2227C62.7305 20.6353 62.7861 21.0015 62.8971 21.3214C63.0081 21.6396 63.1722 21.908 63.3893 22.1268C63.6064 22.3455 63.8748 22.5112 64.1947 22.6239C64.5145 22.7383 64.8832 22.7955 65.3009 22.7955C65.4865 22.7955 65.6688 22.7789 65.8477 22.7457C66.0267 22.7143 66.1858 22.6778 66.325 22.6364C66.4659 22.5966 66.5711 22.5643 66.6407 22.5394L66.8147 23.0838C66.712 23.1319 66.5752 23.1791 66.4045 23.2255C66.2355 23.2719 66.0516 23.31 65.8527 23.3398C65.6555 23.3697 65.4608 23.3846 65.2685 23.3846ZM65.0398 21.3164C65.2553 21.3164 65.4285 21.2733 65.5594 21.1871C65.692 21.101 65.7872 20.9725 65.8452 20.8018C65.9049 20.6295 65.9347 20.4141 65.9347 20.1555C65.9331 19.9036 65.9008 19.7031 65.8378 19.554C65.7765 19.4032 65.6804 19.2955 65.5494 19.2308C65.4202 19.1645 65.2536 19.1314 65.0498 19.1314C64.8625 19.1314 64.7026 19.177 64.57 19.2681C64.4391 19.3593 64.3389 19.4827 64.2692 19.6385C64.2013 19.7943 64.1665 19.9674 64.1648 20.158C64.1665 20.3585 64.1947 20.5475 64.2494 20.7248C64.3057 20.9004 64.3969 21.043 64.5228 21.1523C64.6504 21.2617 64.8228 21.3164 65.0398 21.3164ZM70.5239 22.0771C70.1477 22.0771 69.8238 21.9967 69.552 21.8359C69.2819 21.6735 69.0731 21.4457 68.9256 21.1523C68.7797 20.8574 68.7068 20.5118 68.7068 20.1158C68.7068 19.7247 68.7797 19.38 68.9256 19.0817C69.0731 18.7834 69.2785 18.5505 69.542 18.3832C69.8072 18.2158 70.1171 18.1321 70.4717 18.1321C70.6872 18.1321 70.896 18.1677 71.0981 18.239C71.3003 18.3103 71.4818 18.4221 71.6425 18.5746C71.8033 18.727 71.9301 18.9251 72.0229 19.1687C72.1157 19.4106 72.1621 19.7048 72.1621 20.0511V20.3146H69.1269V19.7578H71.4337C71.4337 19.5623 71.394 19.3891 71.3144 19.2383C71.2349 19.0858 71.123 18.9657 70.9788 18.8778C70.8363 18.79 70.6689 18.7461 70.4767 18.7461C70.2679 18.7461 70.0856 18.7975 69.9298 18.9002C69.7757 19.0013 69.6564 19.1339 69.5719 19.2979C69.489 19.4603 69.4476 19.6368 69.4476 19.8274V20.2624C69.4476 20.5176 69.4923 20.7347 69.5818 20.9137C69.673 21.0927 69.7997 21.2294 69.9621 21.3239C70.1245 21.4167 70.3143 21.4631 70.5314 21.4631C70.6722 21.4631 70.8007 21.4432 70.9167 21.4034C71.0327 21.362 71.133 21.3007 71.2175 21.2195C71.302 21.1383 71.3666 21.038 71.4114 20.9187L72.1148 21.0455C72.0585 21.2526 71.9574 21.4341 71.8116 21.5898C71.6674 21.744 71.4859 21.8641 71.2672 21.9503C71.0501 22.0348 70.8023 22.0771 70.5239 22.0771ZM72.8871 22V18.1818H73.6005V18.8033H73.6478C73.7273 18.5928 73.8574 18.4287 74.038 18.3111C74.2187 18.1918 74.4349 18.1321 74.6868 18.1321C74.942 18.1321 75.1558 18.1918 75.3282 18.3111C75.5022 18.4304 75.6306 18.5945 75.7135 18.8033H75.7532C75.8444 18.5994 75.9894 18.437 76.1882 18.3161C76.3871 18.1934 76.6241 18.1321 76.8992 18.1321C77.2455 18.1321 77.5281 18.2406 77.7468 18.4577C77.9672 18.6748 78.0774 19.0021 78.0774 19.4396V22H77.3342V19.5092C77.3342 19.2507 77.2638 19.0634 77.1229 18.9474C76.982 18.8314 76.8138 18.7734 76.6183 18.7734C76.3763 18.7734 76.1882 18.848 76.054 18.9972C75.9198 19.1446 75.8527 19.3344 75.8527 19.5664V22H75.1119V19.462C75.1119 19.2549 75.0473 19.0883 74.918 18.9624C74.7887 18.8364 74.6205 18.7734 74.4134 18.7734C74.2725 18.7734 74.1424 18.8107 74.0231 18.8853C73.9055 18.9582 73.8102 19.0601 73.7372 19.1911C73.666 19.322 73.6304 19.4736 73.6304 19.646V22H72.8871ZM80.0851 22.0845C79.8432 22.0845 79.6244 22.0398 79.4289 21.9503C79.2333 21.8591 79.0784 21.7274 78.9641 21.555C78.8514 21.3827 78.795 21.1714 78.795 20.9212C78.795 20.7057 78.8364 20.5284 78.9193 20.3892C79.0022 20.25 79.114 20.1398 79.2549 20.0586C79.3958 19.9774 79.5532 19.9161 79.7272 19.8746C79.9012 19.8332 80.0785 19.8017 80.2592 19.7802C80.4878 19.7537 80.6735 19.7321 80.816 19.7156C80.9585 19.6973 81.0621 19.6683 81.1267 19.6286C81.1913 19.5888 81.2236 19.5241 81.2236 19.4347V19.4173C81.2236 19.2002 81.1623 19.032 81.0397 18.9126C80.9187 18.7933 80.7381 18.7337 80.4978 18.7337C80.2476 18.7337 80.0503 18.7892 79.9062 18.9002C79.7636 19.0096 79.665 19.1314 79.6104 19.2656L78.9118 19.1065C78.9947 18.8745 79.1157 18.6873 79.2748 18.5447C79.4355 18.4006 79.6203 18.2962 79.8291 18.2315C80.0379 18.1652 80.2575 18.1321 80.4878 18.1321C80.6403 18.1321 80.8019 18.1503 80.9726 18.1868C81.1449 18.2216 81.3057 18.2862 81.4548 18.3807C81.6056 18.4751 81.7291 18.6102 81.8252 18.7859C81.9213 18.9599 81.9694 19.1861 81.9694 19.4645V22H81.2435V21.478H81.2137C81.1656 21.5741 81.0935 21.6686 80.9974 21.7614C80.9013 21.8542 80.7779 21.9312 80.627 21.9925C80.4762 22.0539 80.2956 22.0845 80.0851 22.0845ZM80.2467 21.4879C80.4522 21.4879 80.6279 21.4473 80.7737 21.3661C80.9212 21.2849 81.0331 21.1789 81.1093 21.0479C81.1872 20.9154 81.2261 20.7737 81.2261 20.6229V20.1307C81.1996 20.1572 81.1482 20.1821 81.072 20.2053C80.9974 20.2268 80.9121 20.2459 80.816 20.2624C80.7199 20.2773 80.6262 20.2914 80.5351 20.3047C80.4439 20.3163 80.3677 20.3262 80.3064 20.3345C80.1622 20.3527 80.0305 20.3834 79.9111 20.4265C79.7935 20.4696 79.699 20.5317 79.6278 20.6129C79.5582 20.6925 79.5234 20.7985 79.5234 20.9311C79.5234 21.1151 79.5913 21.2543 79.7272 21.3487C79.8631 21.4415 80.0363 21.4879 80.2467 21.4879ZM82.8597 22V18.1818H83.603V22H82.8597ZM83.2351 17.5927C83.1058 17.5927 82.9948 17.5496 82.902 17.4634C82.8108 17.3756 82.7653 17.2712 82.7653 17.1502C82.7653 17.0276 82.8108 16.9232 82.902 16.837C82.9948 16.7492 83.1058 16.7053 83.2351 16.7053C83.3643 16.7053 83.4745 16.7492 83.5657 16.837C83.6585 16.9232 83.7049 17.0276 83.7049 17.1502C83.7049 17.2712 83.6585 17.3756 83.5657 17.4634C83.4745 17.5496 83.3643 17.5927 83.2351 17.5927ZM85.2465 16.9091V22H84.5032V16.9091H85.2465ZM86.6365 22.0472C86.5006 22.0472 86.3838 21.9992 86.286 21.9031C86.1882 21.8053 86.1393 21.6876 86.1393 21.5501C86.1393 21.4142 86.1882 21.2982 86.286 21.2021C86.3838 21.1043 86.5006 21.0554 86.6365 21.0554C86.7724 21.0554 86.8892 21.1043 86.987 21.2021C87.0848 21.2982 87.1336 21.4142 87.1336 21.5501C87.1336 21.6412 87.1104 21.7249 87.064 21.8011C87.0193 21.8757 86.9596 21.9354 86.8851 21.9801C86.8105 22.0249 86.7276 22.0472 86.6365 22.0472ZM89.6379 22.0771C89.2683 22.0771 88.9501 21.9934 88.6833 21.826C88.4182 21.657 88.2143 21.4241 88.0718 21.1275C87.9293 20.8308 87.8581 20.4911 87.8581 20.1083C87.8581 19.7205 87.931 19.3783 88.0768 19.0817C88.2226 18.7834 88.4281 18.5505 88.6933 18.3832C88.9584 18.2158 89.2708 18.1321 89.6304 18.1321C89.9204 18.1321 90.179 18.186 90.406 18.2937C90.633 18.3997 90.8161 18.5489 90.9554 18.7411C91.0962 18.9334 91.1799 19.1579 91.2064 19.4148H90.4831C90.4433 19.2358 90.3521 19.0817 90.2096 18.9524C90.0688 18.8232 89.8798 18.7585 89.6429 18.7585C89.4357 18.7585 89.2542 18.8132 89.0985 18.9226C88.9443 19.0303 88.8242 19.1844 88.738 19.3849C88.6518 19.5838 88.6088 19.8191 88.6088 20.0909C88.6088 20.3693 88.651 20.6096 88.7355 20.8118C88.8201 21.014 88.9394 21.1706 89.0935 21.2816C89.2493 21.3926 89.4324 21.4482 89.6429 21.4482C89.7837 21.4482 89.9113 21.4225 90.0257 21.3711C90.1417 21.3181 90.2386 21.2427 90.3165 21.1449C90.396 21.0471 90.4516 20.9295 90.4831 20.7919H91.2064C91.1799 21.0388 91.0995 21.2592 90.9653 21.4531C90.8311 21.647 90.6513 21.7995 90.4259 21.9105C90.2022 22.0215 89.9395 22.0771 89.6379 22.0771ZM93.5099 22.0771C93.152 22.0771 92.8396 21.995 92.5728 21.831C92.306 21.6669 92.0988 21.4374 91.9513 21.1424C91.8038 20.8474 91.7301 20.5027 91.7301 20.1083C91.7301 19.7122 91.8038 19.3659 91.9513 19.0692C92.0988 18.7726 92.306 18.5423 92.5728 18.3782C92.8396 18.2141 93.152 18.1321 93.5099 18.1321C93.8679 18.1321 94.1803 18.2141 94.4471 18.3782C94.7139 18.5423 94.921 18.7726 95.0685 19.0692C95.216 19.3659 95.2898 19.7122 95.2898 20.1083C95.2898 20.5027 95.216 20.8474 95.0685 21.1424C94.921 21.4374 94.7139 21.6669 94.4471 21.831C94.1803 21.995 93.8679 22.0771 93.5099 22.0771ZM93.5124 21.4531C93.7444 21.4531 93.9367 21.3918 94.0891 21.2692C94.2416 21.1465 94.3543 20.9833 94.4272 20.7795C94.5018 20.5756 94.5391 20.3511 94.5391 20.1058C94.5391 19.8622 94.5018 19.6385 94.4272 19.4347C94.3543 19.2292 94.2416 19.0643 94.0891 18.94C93.9367 18.8157 93.7444 18.7536 93.5124 18.7536C93.2788 18.7536 93.0849 18.8157 92.9307 18.94C92.7783 19.0643 92.6648 19.2292 92.5902 19.4347C92.5173 19.6385 92.4808 19.8622 92.4808 20.1058C92.4808 20.3511 92.5173 20.5756 92.5902 20.7795C92.6648 20.9833 92.7783 21.1465 92.9307 21.2692C93.0849 21.3918 93.2788 21.4531 93.5124 21.4531ZM96.0198 22V18.1818H96.7332V18.8033H96.7804C96.86 18.5928 96.9901 18.4287 97.1707 18.3111C97.3513 18.1918 97.5676 18.1321 97.8195 18.1321C98.0747 18.1321 98.2885 18.1918 98.4608 18.3111C98.6348 18.4304 98.7633 18.5945 98.8461 18.8033H98.8859C98.977 18.5994 99.122 18.437 99.3209 18.3161C99.5198 18.1934 99.7567 18.1321 100.032 18.1321C100.378 18.1321 100.661 18.2406 100.879 18.4577C101.1 18.6748 101.21 19.0021 101.21 19.4396V22H100.467V19.5092C100.467 19.2507 100.396 19.0634 100.256 18.9474C100.115 18.8314 99.9465 18.7734 99.7509 18.7734C99.509 18.7734 99.3209 18.848 99.1867 18.9972C99.0524 19.1446 98.9853 19.3344 98.9853 19.5664V22H98.2446V19.462C98.2446 19.2549 98.1799 19.0883 98.0507 18.9624C97.9214 18.8364 97.7532 18.7734 97.546 18.7734C97.4052 18.7734 97.2751 18.8107 97.1558 18.8853C97.0381 18.9582 96.9428 19.0601 96.8699 19.1911C96.7986 19.322 96.763 19.4736 96.763 19.646V22H96.0198Z" fill="#6F6E77"/>
<rect x="167.548" y="5.69001" width="12.6199" height="12.6199" rx="2.32472" fill="#4C40E7"/>
<path d="M176.958 9.67517L172.696 13.9372L170.758 11.9999" stroke="white" stroke-width="1.32841" stroke-linecap="round" stroke-linejoin="round"/>
<rect x="167.548" y="5.69001" width="12.6199" height="12.6199" rx="2.32472" stroke="#4C40E7" stroke-width="0.664207"/>
<rect y="28" width="24" height="24" rx="4" fill="#F4F2F4"/>
<path d="M12 39.9999C13.2426 39.9999 14.25 38.9925 14.25 37.7499C14.25 36.5072 13.2426 35.4999 12 35.4999C10.7574 35.4999 9.75 36.5072 9.75 37.7499C9.75 38.9925 10.7574 39.9999 12 39.9999Z" stroke="#1A1523" stroke-linecap="round" stroke-linejoin="round"/>
<path d="M16 44.5C15.6214 43.7654 15.0479 43.1493 14.3423 42.7192C13.6367 42.2891 12.8264 42.0615 12 42.0615C11.1736 42.0615 10.3633 42.2891 9.65767 42.7192C8.95209 43.1493 8.37857 43.7654 8 44.5" stroke="#1A1523" stroke-linecap="round" stroke-linejoin="round"/>
<path d="M31.272 39H30.2237L32.5792 32.4545H33.7202L36.0756 39H35.0273L33.1768 33.6435H33.1257L31.272 39ZM31.4478 36.4368H34.8484V37.2678H31.4478V36.4368ZM37.8001 32.4545V39H36.8445V32.4545H37.8001ZM41.1019 39.0991C40.6182 39.0991 40.2017 38.9957 39.8522 38.7891C39.5049 38.5803 39.2365 38.2873 39.0468 37.9102C38.8593 37.5309 38.7656 37.0866 38.7656 36.5774C38.7656 36.0746 38.8593 35.6314 39.0468 35.2479C39.2365 34.8643 39.5007 34.565 39.8394 34.3498C40.1804 34.1346 40.5788 34.027 41.0348 34.027C41.3117 34.027 41.5802 34.0728 41.8402 34.1644C42.1001 34.256 42.3334 34.3999 42.5401 34.5959C42.7468 34.7919 42.9098 35.0465 43.0291 35.3597C43.1484 35.6708 43.2081 36.049 43.2081 36.4943V36.8331H39.3057V36.1172H42.2716C42.2716 35.8658 42.2205 35.6431 42.1182 35.4492C42.0159 35.2532 41.8721 35.0987 41.6867 34.9858C41.5035 34.8729 41.2883 34.8164 41.0412 34.8164C40.7727 34.8164 40.5383 34.8825 40.338 35.0146C40.1399 35.1445 39.9865 35.315 39.8778 35.5259C39.7713 35.7347 39.718 35.9616 39.718 36.2067V36.766C39.718 37.0941 39.7755 37.3732 39.8906 37.6033C40.0078 37.8335 40.1708 38.0092 40.3796 38.1307C40.5884 38.25 40.8323 38.3097 41.1115 38.3097C41.2926 38.3097 41.4577 38.2841 41.6068 38.233C41.756 38.1797 41.8849 38.1009 41.9936 37.9964C42.1022 37.892 42.1853 37.7631 42.2429 37.6097L43.1473 37.7727C43.0749 38.0391 42.9449 38.2724 42.7574 38.4727C42.572 38.6708 42.3387 38.8253 42.0575 38.9361C41.7784 39.0447 41.4598 39.0991 41.1019 39.0991ZM44.8087 34.0909L45.8922 36.0021L46.9852 34.0909H48.0303L46.4994 36.5455L48.0431 39H46.998L45.8922 37.1655L44.7895 39H43.7412L45.2689 36.5455L43.7604 34.0909H44.8087ZM51.2708 39V32.4545H53.6678C54.1323 32.4545 54.5168 32.5312 54.8215 32.6847C55.1262 32.8359 55.3542 33.0415 55.5055 33.3015C55.6568 33.5593 55.7324 33.8501 55.7324 34.174C55.7324 34.4467 55.6823 34.6768 55.5822 34.8643C55.482 35.0497 55.3478 35.1989 55.1795 35.3118C55.0133 35.4226 54.8301 35.5036 54.6298 35.5547V35.6186C54.8471 35.6293 55.0591 35.6996 55.2658 35.8295C55.4746 35.9574 55.6472 36.1396 55.7835 36.3761C55.9199 36.6126 55.9881 36.9002 55.9881 37.239C55.9881 37.5735 55.9092 37.8739 55.7516 38.1403C55.596 38.4045 55.3553 38.6143 55.0293 38.7699C54.7033 38.9233 54.2867 39 53.7796 39H51.2708ZM52.2583 38.1531H53.6838C54.1568 38.1531 54.4955 38.0614 54.7001 37.8782C54.9046 37.695 55.0069 37.4659 55.0069 37.1911C55.0069 36.9844 54.9547 36.7947 54.8503 36.6222C54.7459 36.4496 54.5967 36.3121 54.4029 36.2099C54.2111 36.1076 53.9831 36.0565 53.7189 36.0565H52.2583V38.1531ZM52.2583 35.2862H53.5815C53.8031 35.2862 54.0023 35.2436 54.1791 35.1584C54.3581 35.0732 54.4998 34.9538 54.6042 34.8004C54.7107 34.6449 54.764 34.4616 54.764 34.2507C54.764 33.9801 54.6692 33.7532 54.4796 33.57C54.2899 33.3867 53.9991 33.2951 53.607 33.2951H52.2583V35.2862ZM56.9831 39V34.0909H57.9067V34.8707H57.9579C58.0474 34.6065 58.205 34.3988 58.4309 34.2475C58.6589 34.0941 58.9167 34.0174 59.2043 34.0174C59.264 34.0174 59.3343 34.0195 59.4153 34.0238C59.4984 34.0281 59.5633 34.0334 59.6102 34.0398V34.9538C59.5719 34.9432 59.5037 34.9315 59.4057 34.9187C59.3077 34.9038 59.2097 34.8963 59.1116 34.8963C58.8858 34.8963 58.6844 34.9442 58.5076 35.0401C58.3329 35.1339 58.1944 35.2649 58.0921 35.4332C57.9898 35.5994 57.9387 35.7891 57.9387 36.0021V39H56.9831ZM62.2296 39.0991C61.7694 39.0991 61.3677 38.9936 61.0247 38.7827C60.6817 38.5717 60.4153 38.2766 60.2257 37.8974C60.0361 37.5181 59.9413 37.0749 59.9413 36.5678C59.9413 36.0586 60.0361 35.6133 60.2257 35.2319C60.4153 34.8505 60.6817 34.5543 61.0247 34.3434C61.3677 34.1325 61.7694 34.027 62.2296 34.027C62.6898 34.027 63.0915 34.1325 63.4345 34.3434C63.7775 34.5543 64.0439 34.8505 64.2335 35.2319C64.4231 35.6133 64.518 36.0586 64.518 36.5678C64.518 37.0749 64.4231 37.5181 64.2335 37.8974C64.0439 38.2766 63.7775 38.5717 63.4345 38.7827C63.0915 38.9936 62.6898 39.0991 62.2296 39.0991ZM62.2328 38.2969C62.5311 38.2969 62.7783 38.218 62.9743 38.0604C63.1703 37.9027 63.3152 37.6928 63.4089 37.4308C63.5048 37.1687 63.5528 36.88 63.5528 36.5646C63.5528 36.2514 63.5048 35.9638 63.4089 35.7017C63.3152 35.4375 63.1703 35.2255 62.9743 35.0657C62.7783 34.9059 62.5311 34.826 62.2328 34.826C61.9324 34.826 61.6831 34.9059 61.4849 35.0657C61.2889 35.2255 61.143 35.4375 61.0471 35.7017C60.9533 35.9638 60.9065 36.2514 60.9065 36.5646C60.9065 36.88 60.9533 37.1687 61.0471 37.4308C61.143 37.6928 61.2889 37.9027 61.4849 38.0604C61.6831 38.218 61.9324 38.2969 62.2328 38.2969ZM66.3999 39L64.9553 34.0909H65.9428L66.9048 37.696H66.9528L67.918 34.0909H68.9055L69.8644 37.68H69.9123L70.8679 34.0909H71.8555L70.4141 39H69.4393L68.4421 35.4556H68.3686L67.3715 39H66.3999ZM73.6183 36.0852V39H72.6627V34.0909H73.58V34.8899H73.6407C73.7536 34.63 73.9305 34.4212 74.1712 34.2635C74.4141 34.1058 74.7199 34.027 75.0885 34.027C75.423 34.027 75.716 34.0973 75.9674 34.2379C76.2188 34.3764 76.4138 34.5831 76.5523 34.858C76.6908 35.1328 76.76 35.4727 76.76 35.8775V39H75.8044V35.9925C75.8044 35.6367 75.7117 35.3587 75.5264 35.1584C75.341 34.956 75.0864 34.8548 74.7625 34.8548C74.5409 34.8548 74.3438 34.9027 74.1712 34.9986C74.0008 35.0945 73.8655 35.2351 73.7653 35.4205C73.6673 35.6037 73.6183 35.8253 73.6183 36.0852Z" fill="#1A1523"/>
<path d="M31.6108 50.0845C31.3688 50.0845 31.1501 50.0398 30.9545 49.9503C30.759 49.8591 30.604 49.7274 30.4897 49.555C30.377 49.3827 30.3207 49.1714 30.3207 48.9212C30.3207 48.7057 30.3621 48.5284 30.445 48.3892C30.5278 48.25 30.6397 48.1398 30.7805 48.0586C30.9214 47.9774 31.0788 47.9161 31.2528 47.8746C31.4268 47.8332 31.6042 47.8017 31.7848 47.7802C32.0135 47.7537 32.1991 47.7321 32.3416 47.7156C32.4841 47.6973 32.5877 47.6683 32.6523 47.6286C32.717 47.5888 32.7493 47.5241 32.7493 47.4347V47.4173C32.7493 47.2002 32.688 47.032 32.5653 46.9126C32.4444 46.7933 32.2637 46.7337 32.0234 46.7337C31.7732 46.7337 31.576 46.7892 31.4318 46.9002C31.2893 47.0096 31.1907 47.1314 31.136 47.2656L30.4375 47.1065C30.5204 46.8745 30.6413 46.6873 30.8004 46.5447C30.9612 46.4006 31.146 46.2962 31.3548 46.2315C31.5636 46.1652 31.7831 46.1321 32.0135 46.1321C32.166 46.1321 32.3275 46.1503 32.4982 46.1868C32.6706 46.2216 32.8313 46.2862 32.9805 46.3807C33.1313 46.4751 33.2547 46.6102 33.3509 46.7859C33.447 46.9599 33.495 47.1861 33.495 47.4645V50H32.7692V49.478H32.7393C32.6913 49.5741 32.6192 49.6686 32.5231 49.7614C32.427 49.8542 32.3035 49.9312 32.1527 49.9925C32.0019 50.0539 31.8213 50.0845 31.6108 50.0845ZM31.7724 49.4879C31.9779 49.4879 32.1535 49.4473 32.2994 49.3661C32.4469 49.2849 32.5587 49.1789 32.6349 49.0479C32.7128 48.9154 32.7518 48.7737 32.7518 48.6229V48.1307C32.7253 48.1572 32.6739 48.1821 32.5977 48.2053C32.5231 48.2268 32.4377 48.2459 32.3416 48.2624C32.2455 48.2773 32.1519 48.2914 32.0607 48.3047C31.9696 48.3163 31.8933 48.3262 31.832 48.3345C31.6879 48.3527 31.5561 48.3834 31.4368 48.4265C31.3191 48.4696 31.2247 48.5317 31.1534 48.6129C31.0838 48.6925 31.049 48.7985 31.049 48.9311C31.049 49.1151 31.117 49.2543 31.2528 49.3487C31.3887 49.4415 31.5619 49.4879 31.7724 49.4879ZM35.1286 44.9091V50H34.3854V44.9091H35.1286ZM37.6745 50.0771C37.2983 50.0771 36.9743 49.9967 36.7025 49.8359C36.4324 49.6735 36.2236 49.4457 36.0761 49.1523C35.9303 48.8574 35.8574 48.5118 35.8574 48.1158C35.8574 47.7247 35.9303 47.38 36.0761 47.0817C36.2236 46.7834 36.4291 46.5505 36.6926 46.3832C36.9578 46.2158 37.2677 46.1321 37.6223 46.1321C37.8377 46.1321 38.0465 46.1677 38.2487 46.239C38.4509 46.3103 38.6324 46.4221 38.7931 46.5746C38.9539 46.727 39.0806 46.9251 39.1734 47.1687C39.2662 47.4106 39.3126 47.7048 39.3126 48.0511V48.3146H36.2775V47.7578H38.5843C38.5843 47.5623 38.5445 47.3891 38.465 47.2383C38.3854 47.0858 38.2736 46.9657 38.1294 46.8778C37.9869 46.79 37.8195 46.7461 37.6273 46.7461C37.4185 46.7461 37.2362 46.7975 37.0804 46.9002C36.9263 47.0013 36.807 47.1339 36.7224 47.2979C36.6396 47.4603 36.5981 47.6368 36.5981 47.8274V48.2624C36.5981 48.5176 36.6429 48.7347 36.7324 48.9137C36.8235 49.0927 36.9503 49.2294 37.1127 49.3239C37.2751 49.4167 37.4649 49.4631 37.682 49.4631C37.8228 49.4631 37.9512 49.4432 38.0673 49.4034C38.1833 49.362 38.2835 49.3007 38.368 49.2195C38.4525 49.1383 38.5172 49.038 38.5619 48.9187L39.2654 49.0455C39.2091 49.2526 39.108 49.4341 38.9621 49.5898C38.818 49.744 38.6365 49.8641 38.4177 49.9503C38.2007 50.0348 37.9529 50.0771 37.6745 50.0771ZM40.5354 46.1818L41.3781 47.6683L42.2283 46.1818H43.0411L41.8504 48.0909L43.0511 50H42.2382L41.3781 48.5732L40.5205 50H39.7052L40.8934 48.0909L39.7201 46.1818H40.5354ZM43.7643 50V44.9091H44.5075V46.8008H44.5523C44.5954 46.7212 44.6575 46.6293 44.7387 46.5249C44.8199 46.4205 44.9326 46.3293 45.0768 46.2514C45.221 46.1719 45.4115 46.1321 45.6485 46.1321C45.9568 46.1321 46.2319 46.21 46.4738 46.3658C46.7158 46.5215 46.9055 46.7461 47.0431 47.0394C47.1823 47.3327 47.2519 47.6857 47.2519 48.0984C47.2519 48.511 47.1831 48.8648 47.0455 49.1598C46.908 49.4531 46.7191 49.6793 46.4788 49.8384C46.2385 49.9959 45.9642 50.0746 45.656 50.0746C45.424 50.0746 45.2342 50.0356 45.0867 49.9577C44.9409 49.8799 44.8266 49.7887 44.7437 49.6843C44.6608 49.5799 44.597 49.4871 44.5523 49.4059H44.4901V50H43.7643ZM44.4926 48.0909C44.4926 48.3594 44.5316 48.5947 44.6095 48.7969C44.6874 48.9991 44.8 49.1573 44.9475 49.2717C45.095 49.3844 45.2757 49.4407 45.4894 49.4407C45.7115 49.4407 45.8971 49.3819 46.0463 49.2642C46.1954 49.1449 46.3081 48.9833 46.3843 48.7795C46.4622 48.5756 46.5012 48.3461 46.5012 48.0909C46.5012 47.839 46.463 47.6128 46.3868 47.4123C46.3122 47.2118 46.1995 47.0535 46.0487 46.9375C45.8996 46.8215 45.7132 46.7635 45.4894 46.7635C45.274 46.7635 45.0917 46.819 44.9426 46.93C44.7951 47.0411 44.6832 47.196 44.607 47.3949C44.5307 47.5937 44.4926 47.8258 44.4926 48.0909ZM47.9868 50V46.1818H48.7052V46.7884H48.745C48.8146 46.5829 48.9372 46.4213 49.1129 46.3036C49.2902 46.1843 49.4907 46.1246 49.7145 46.1246C49.7609 46.1246 49.8156 46.1263 49.8785 46.1296C49.9432 46.1329 49.9937 46.1371 50.0302 46.142V46.853C50.0003 46.8447 49.9473 46.8356 49.8711 46.8256C49.7948 46.814 49.7186 46.8082 49.6424 46.8082C49.4667 46.8082 49.3101 46.8455 49.1726 46.9201C49.0367 46.993 48.929 47.0949 48.8494 47.2259C48.7699 47.3551 48.7301 47.5026 48.7301 47.6683V50H47.9868ZM52.0453 50.0771C51.6874 50.0771 51.375 49.995 51.1082 49.831C50.8414 49.6669 50.6342 49.4374 50.4867 49.1424C50.3392 48.8474 50.2655 48.5027 50.2655 48.1083C50.2655 47.7122 50.3392 47.3659 50.4867 47.0692C50.6342 46.7726 50.8414 46.5423 51.1082 46.3782C51.375 46.2141 51.6874 46.1321 52.0453 46.1321C52.4033 46.1321 52.7157 46.2141 52.9825 46.3782C53.2493 46.5423 53.4564 46.7726 53.6039 47.0692C53.7514 47.3659 53.8252 47.7122 53.8252 48.1083C53.8252 48.5027 53.7514 48.8474 53.6039 49.1424C53.4564 49.4374 53.2493 49.6669 52.9825 49.831C52.7157 49.995 52.4033 50.0771 52.0453 50.0771ZM52.0478 49.4531C52.2798 49.4531 52.4721 49.3918 52.6245 49.2692C52.777 49.1465 52.8897 48.9833 52.9626 48.7795C53.0372 48.5756 53.0744 48.3511 53.0744 48.1058C53.0744 47.8622 53.0372 47.6385 52.9626 47.4347C52.8897 47.2292 52.777 47.0643 52.6245 46.94C52.4721 46.8157 52.2798 46.7536 52.0478 46.7536C51.8141 46.7536 51.6203 46.8157 51.4661 46.94C51.3137 47.0643 51.2002 47.2292 51.1256 47.4347C51.0527 47.6385 51.0162 47.8622 51.0162 48.1058C51.0162 48.3511 51.0527 48.5756 51.1256 48.7795C51.2002 48.9833 51.3137 49.1465 51.4661 49.2692C51.6203 49.3918 51.8141 49.4531 52.0478 49.4531ZM55.2667 50L54.1431 46.1818H54.9112L55.6595 48.9858H55.6968L56.4475 46.1818H57.2156L57.9613 48.9734H57.9986L58.7419 46.1818H59.51L58.3889 50H57.6307L56.8551 47.2433H56.798L56.0224 50H55.2667ZM60.8589 47.733V50H60.1157V46.1818H60.8291V46.8033H60.8763C60.9642 46.6011 61.1017 46.4387 61.289 46.3161C61.4779 46.1934 61.7157 46.1321 62.0024 46.1321C62.2626 46.1321 62.4904 46.1868 62.686 46.2962C62.8815 46.4039 63.0332 46.5646 63.1409 46.7784C63.2486 46.9922 63.3025 47.2565 63.3025 47.5714V50H62.5592V47.6609C62.5592 47.3841 62.4871 47.1679 62.343 47.0121C62.1988 46.8546 62.0007 46.7759 61.7488 46.7759C61.5765 46.7759 61.4232 46.8132 61.289 46.8878C61.1564 46.9624 61.0512 47.0717 60.9733 47.2159C60.8971 47.3584 60.8589 47.5308 60.8589 47.733ZM67.2646 51.3846C66.7509 51.3846 66.2952 51.3142 65.8974 51.1733C65.5014 51.0341 65.1674 50.8286 64.8957 50.5568C64.6239 50.2867 64.4176 49.9553 64.2767 49.5625C64.1358 49.1697 64.0654 48.7215 64.0654 48.2177C64.0654 47.7272 64.1367 47.2863 64.2792 46.8952C64.4217 46.5041 64.6289 46.171 64.9006 45.896C65.1741 45.6192 65.5063 45.4079 65.8974 45.2621C66.2885 45.1162 66.7327 45.0433 67.2298 45.0433C67.7054 45.0433 68.1247 45.1179 68.4876 45.267C68.8506 45.4162 69.1555 45.6209 69.4024 45.881C69.651 46.1412 69.8383 46.4395 69.9642 46.7759C70.0902 47.1123 70.1531 47.4678 70.1531 47.8423C70.1531 48.1042 70.1366 48.3602 70.1034 48.6104C70.0703 48.859 70.0089 49.0844 69.9195 49.2866C69.8316 49.4871 69.704 49.6478 69.5366 49.7688C69.3709 49.8881 69.1555 49.9503 68.8903 49.9553C68.7495 49.9602 68.6128 49.9437 68.4802 49.9055C68.3476 49.8674 68.2349 49.8061 68.1421 49.7216C68.0493 49.6354 67.993 49.526 67.9731 49.3935H67.9433C67.9035 49.4912 67.8372 49.5824 67.7444 49.6669C67.6516 49.7498 67.5331 49.8161 67.3889 49.8658C67.2464 49.9138 67.0807 49.9337 66.8918 49.9254C66.683 49.9171 66.4949 49.8699 66.3275 49.7837C66.1601 49.6976 66.0168 49.5782 65.8974 49.4258C65.7798 49.2733 65.6895 49.0927 65.6265 48.8839C65.5635 48.6751 65.532 48.4431 65.532 48.1879C65.532 47.9426 65.5677 47.723 65.6389 47.5291C65.7102 47.3336 65.8071 47.1654 65.9298 47.0245C66.054 46.882 66.1966 46.7693 66.3573 46.6864C66.5181 46.6036 66.6879 46.5514 66.8669 46.5298C67.0409 46.5099 67.2008 46.5149 67.3467 46.5447C67.4925 46.5746 67.6135 46.6201 67.7096 46.6815C67.8074 46.7428 67.8687 46.8099 67.8935 46.8828H67.9259V46.6044H68.5374V48.9112C68.5374 49.0421 68.5713 49.1532 68.6393 49.2443C68.7089 49.3355 68.8075 49.381 68.9351 49.381C69.0859 49.381 69.2036 49.3255 69.2881 49.2145C69.3742 49.1035 69.4347 48.9328 69.4695 48.7024C69.506 48.4721 69.5242 48.1771 69.5242 47.8175C69.5242 47.5656 69.4902 47.3286 69.4223 47.1065C69.356 46.8828 69.2574 46.6806 69.1265 46.5C68.9972 46.3177 68.8381 46.1611 68.6492 46.0302C68.4603 45.8993 68.2449 45.7982 68.0029 45.7269C67.7626 45.6557 67.4966 45.62 67.205 45.62C66.8089 45.62 66.4567 45.6813 66.1485 45.804C65.8403 45.925 65.5801 46.0998 65.368 46.3285C65.1575 46.5572 64.9976 46.8314 64.8882 47.1513C64.7805 47.4695 64.7266 47.8266 64.7266 48.2227C64.7266 48.6353 64.7822 49.0015 64.8932 49.3214C65.0042 49.6396 65.1683 49.908 65.3854 50.1268C65.6025 50.3455 65.8709 50.5112 66.1908 50.6239C66.5106 50.7383 66.8793 50.7955 67.2969 50.7955C67.4826 50.7955 67.6648 50.7789 67.8438 50.7457C68.0228 50.7143 68.1819 50.6778 68.3211 50.6364C68.462 50.5966 68.5672 50.5643 68.6368 50.5394L68.8108 51.0838C68.7081 51.1319 68.5713 51.1791 68.4006 51.2255C68.2316 51.2719 68.0477 51.31 67.8488 51.3398C67.6516 51.3697 67.4569 51.3846 67.2646 51.3846ZM67.0359 49.3164C67.2514 49.3164 67.4246 49.2733 67.5555 49.1871C67.688 49.101 67.7833 48.9725 67.8413 48.8018C67.901 48.6295 67.9308 48.4141 67.9308 48.1555C67.9292 47.9036 67.8969 47.7031 67.8339 47.554C67.7726 47.4032 67.6764 47.2955 67.5455 47.2308C67.4163 47.1645 67.2497 47.1314 67.0459 47.1314C66.8586 47.1314 66.6987 47.177 66.5661 47.2681C66.4352 47.3593 66.3349 47.4827 66.2653 47.6385C66.1974 47.7943 66.1626 47.9674 66.1609 48.158C66.1626 48.3585 66.1908 48.5475 66.2455 48.7248C66.3018 48.9004 66.3929 49.043 66.5189 49.1523C66.6465 49.2617 66.8188 49.3164 67.0359 49.3164ZM72.52 50.0771C72.1438 50.0771 71.8199 49.9967 71.5481 49.8359C71.278 49.6735 71.0691 49.4457 70.9217 49.1523C70.7758 48.8574 70.7029 48.5118 70.7029 48.1158C70.7029 47.7247 70.7758 47.38 70.9217 47.0817C71.0691 46.7834 71.2746 46.5505 71.5381 46.3832C71.8033 46.2158 72.1132 46.1321 72.4678 46.1321C72.6833 46.1321 72.8921 46.1677 73.0942 46.239C73.2964 46.3103 73.4779 46.4221 73.6386 46.5746C73.7994 46.727 73.9262 46.9251 74.019 47.1687C74.1118 47.4106 74.1582 47.7048 74.1582 48.0511V48.3146H71.123V47.7578H73.4298C73.4298 47.5623 73.3901 47.3891 73.3105 47.2383C73.231 47.0858 73.1191 46.9657 72.9749 46.8778C72.8324 46.79 72.665 46.7461 72.4728 46.7461C72.264 46.7461 72.0817 46.7975 71.9259 46.9002C71.7718 47.0013 71.6525 47.1339 71.568 47.2979C71.4851 47.4603 71.4437 47.6368 71.4437 47.8274V48.2624C71.4437 48.5176 71.4884 48.7347 71.5779 48.9137C71.6691 49.0927 71.7958 49.2294 71.9582 49.3239C72.1206 49.4167 72.3104 49.4631 72.5275 49.4631C72.6683 49.4631 72.7968 49.4432 72.9128 49.4034C73.0288 49.362 73.129 49.3007 73.2136 49.2195C73.2981 49.1383 73.3627 49.038 73.4075 48.9187L74.1109 49.0455C74.0546 49.2526 73.9535 49.4341 73.8077 49.5898C73.6635 49.744 73.482 49.8641 73.2633 49.9503C73.0462 50.0348 72.7984 50.0771 72.52 50.0771ZM74.8832 50V46.1818H75.5966V46.8033H75.6439C75.7234 46.5928 75.8535 46.4287 76.0341 46.3111C76.2148 46.1918 76.431 46.1321 76.6829 46.1321C76.9381 46.1321 77.1519 46.1918 77.3242 46.3111C77.4983 46.4304 77.6267 46.5945 77.7095 46.8033H77.7493C77.8405 46.5994 77.9855 46.437 78.1843 46.3161C78.3832 46.1934 78.6202 46.1321 78.8953 46.1321C79.2416 46.1321 79.5242 46.2406 79.7429 46.4577C79.9633 46.6748 80.0735 47.0021 80.0735 47.4396V50H79.3303V47.5092C79.3303 47.2507 79.2599 47.0634 79.119 46.9474C78.9781 46.8314 78.8099 46.7734 78.6144 46.7734C78.3724 46.7734 78.1843 46.848 78.0501 46.9972C77.9159 47.1446 77.8488 47.3344 77.8488 47.5664V50H77.108V47.462C77.108 47.2549 77.0434 47.0883 76.9141 46.9624C76.7848 46.8364 76.6166 46.7734 76.4095 46.7734C76.2686 46.7734 76.1385 46.8107 76.0192 46.8853C75.9015 46.9582 75.8063 47.0601 75.7333 47.1911C75.6621 47.322 75.6265 47.4736 75.6265 47.646V50H74.8832ZM82.0812 50.0845C81.8393 50.0845 81.6205 50.0398 81.425 49.9503C81.2294 49.8591 81.0745 49.7274 80.9601 49.555C80.8475 49.3827 80.7911 49.1714 80.7911 48.9212C80.7911 48.7057 80.8325 48.5284 80.9154 48.3892C80.9983 48.25 81.1101 48.1398 81.251 48.0586C81.3918 47.9774 81.5493 47.9161 81.7233 47.8746C81.8973 47.8332 82.0746 47.8017 82.2552 47.7802C82.4839 47.7537 82.6695 47.7321 82.8121 47.7156C82.9546 47.6973 83.0582 47.6683 83.1228 47.6286C83.1874 47.5888 83.2197 47.5241 83.2197 47.4347V47.4173C83.2197 47.2002 83.1584 47.032 83.0358 46.9126C82.9148 46.7933 82.7342 46.7337 82.4939 46.7337C82.2436 46.7337 82.0464 46.7892 81.9023 46.9002C81.7597 47.0096 81.6611 47.1314 81.6065 47.2656L80.9079 47.1065C80.9908 46.8745 81.1118 46.6873 81.2709 46.5447C81.4316 46.4006 81.6164 46.2962 81.8252 46.2315C82.034 46.1652 82.2536 46.1321 82.4839 46.1321C82.6364 46.1321 82.798 46.1503 82.9687 46.1868C83.141 46.2216 83.3018 46.2862 83.4509 46.3807C83.6017 46.4751 83.7252 46.6102 83.8213 46.7859C83.9174 46.9599 83.9655 47.1861 83.9655 47.4645V50H83.2396V49.478H83.2098C83.1617 49.5741 83.0896 49.6686 82.9935 49.7614C82.8974 49.8542 82.7739 49.9312 82.6231 49.9925C82.4723 50.0539 82.2917 50.0845 82.0812 50.0845ZM82.2428 49.4879C82.4483 49.4879 82.624 49.4473 82.7698 49.3661C82.9173 49.2849 83.0292 49.1789 83.1054 49.0479C83.1833 48.9154 83.2222 48.7737 83.2222 48.6229V48.1307C83.1957 48.1572 83.1443 48.1821 83.0681 48.2053C82.9935 48.2268 82.9082 48.2459 82.8121 48.2624C82.7159 48.2773 82.6223 48.2914 82.5312 48.3047C82.44 48.3163 82.3638 48.3262 82.3025 48.3345C82.1583 48.3527 82.0266 48.3834 81.9072 48.4265C81.7896 48.4696 81.6951 48.5317 81.6239 48.6129C81.5543 48.6925 81.5194 48.7985 81.5194 48.9311C81.5194 49.1151 81.5874 49.2543 81.7233 49.3487C81.8592 49.4415 82.0324 49.4879 82.2428 49.4879ZM84.8558 50V46.1818H85.5991V50H84.8558ZM85.2312 45.5927C85.1019 45.5927 84.9909 45.5496 84.8981 45.4634C84.8069 45.3756 84.7613 45.2712 84.7613 45.1502C84.7613 45.0276 84.8069 44.9232 84.8981 44.837C84.9909 44.7492 85.1019 44.7053 85.2312 44.7053C85.3604 44.7053 85.4706 44.7492 85.5618 44.837C85.6546 44.9232 85.701 45.0276 85.701 45.1502C85.701 45.2712 85.6546 45.3756 85.5618 45.4634C85.4706 45.5496 85.3604 45.5927 85.2312 45.5927ZM87.2426 44.9091V50H86.4993V44.9091H87.2426ZM88.6326 50.0472C88.4967 50.0472 88.3799 49.9992 88.2821 49.9031C88.1843 49.8053 88.1354 49.6876 88.1354 49.5501C88.1354 49.4142 88.1843 49.2982 88.2821 49.2021C88.3799 49.1043 88.4967 49.0554 88.6326 49.0554C88.7685 49.0554 88.8853 49.1043 88.9831 49.2021C89.0808 49.2982 89.1297 49.4142 89.1297 49.5501C89.1297 49.6412 89.1065 49.7249 89.0601 49.8011C89.0154 49.8757 88.9557 49.9354 88.8812 49.9801C88.8066 50.0249 88.7237 50.0472 88.6326 50.0472ZM91.634 50.0771C91.2644 50.0771 90.9462 49.9934 90.6794 49.826C90.4143 49.657 90.2104 49.4241 90.0679 49.1275C89.9254 48.8308 89.8541 48.4911 89.8541 48.1083C89.8541 47.7205 89.9271 47.3783 90.0729 47.0817C90.2187 46.7834 90.4242 46.5505 90.6894 46.3832C90.9545 46.2158 91.2669 46.1321 91.6265 46.1321C91.9165 46.1321 92.175 46.186 92.4021 46.2937C92.6291 46.3997 92.8122 46.5489 92.9514 46.7411C93.0923 46.9334 93.176 47.1579 93.2025 47.4148H92.4791C92.4394 47.2358 92.3482 47.0817 92.2057 46.9524C92.0648 46.8232 91.8759 46.7585 91.6389 46.7585C91.4318 46.7585 91.2503 46.8132 91.0946 46.9226C90.9404 47.0303 90.8203 47.1844 90.7341 47.3849C90.6479 47.5838 90.6049 47.8191 90.6049 48.0909C90.6049 48.3693 90.6471 48.6096 90.7316 48.8118C90.8161 49.014 90.9355 49.1706 91.0896 49.2816C91.2454 49.3926 91.4285 49.4482 91.6389 49.4482C91.7798 49.4482 91.9074 49.4225 92.0218 49.3711C92.1378 49.3181 92.2347 49.2427 92.3126 49.1449C92.3921 49.0471 92.4477 48.9295 92.4791 48.7919H93.2025C93.176 49.0388 93.0956 49.2592 92.9614 49.4531C92.8272 49.647 92.6474 49.7995 92.422 49.9105C92.1983 50.0215 91.9356 50.0771 91.634 50.0771ZM95.506 50.0771C95.1481 50.0771 94.8357 49.995 94.5689 49.831C94.3021 49.6669 94.0949 49.4374 93.9474 49.1424C93.7999 48.8474 93.7262 48.5027 93.7262 48.1083C93.7262 47.7122 93.7999 47.3659 93.9474 47.0692C94.0949 46.7726 94.3021 46.5423 94.5689 46.3782C94.8357 46.2141 95.1481 46.1321 95.506 46.1321C95.864 46.1321 96.1764 46.2141 96.4432 46.3782C96.71 46.5423 96.9171 46.7726 97.0646 47.0692C97.2121 47.3659 97.2859 47.7122 97.2859 48.1083C97.2859 48.5027 97.2121 48.8474 97.0646 49.1424C96.9171 49.4374 96.71 49.6669 96.4432 49.831C96.1764 49.995 95.864 50.0771 95.506 50.0771ZM95.5085 49.4531C95.7405 49.4531 95.9328 49.3918 96.0852 49.2692C96.2377 49.1465 96.3504 48.9833 96.4233 48.7795C96.4979 48.5756 96.5351 48.3511 96.5351 48.1058C96.5351 47.8622 96.4979 47.6385 96.4233 47.4347C96.3504 47.2292 96.2377 47.0643 96.0852 46.94C95.9328 46.8157 95.7405 46.7536 95.5085 46.7536C95.2748 46.7536 95.081 46.8157 94.9268 46.94C94.7744 47.0643 94.6609 47.2292 94.5863 47.4347C94.5134 47.6385 94.4769 47.8622 94.4769 48.1058C94.4769 48.3511 94.5134 48.5756 94.5863 48.7795C94.6609 48.9833 94.7744 49.1465 94.9268 49.2692C95.081 49.3918 95.2748 49.4531 95.5085 49.4531ZM98.0159 50V46.1818H98.7293V46.8033H98.7765C98.8561 46.5928 98.9861 46.4287 99.1668 46.3111C99.3474 46.1918 99.5637 46.1321 99.8156 46.1321C100.071 46.1321 100.285 46.1918 100.457 46.3111C100.631 46.4304 100.759 46.5945 100.842 46.8033H100.882C100.973 46.5994 101.118 46.437 101.317 46.3161C101.516 46.1934 101.753 46.1321 102.028 46.1321C102.374 46.1321 102.657 46.2406 102.876 46.4577C103.096 46.6748 103.206 47.0021 103.206 47.4396V50H102.463V47.5092C102.463 47.2507 102.393 47.0634 102.252 46.9474C102.111 46.8314 101.943 46.7734 101.747 46.7734C101.505 46.7734 101.317 46.848 101.183 46.9972C101.049 47.1446 100.981 47.3344 100.981 47.5664V50H100.241V47.462C100.241 47.2549 100.176 47.0883 100.047 46.9624C99.9175 46.8364 99.7493 46.7734 99.5421 46.7734C99.4013 46.7734 99.2712 46.8107 99.1519 46.8853C99.0342 46.9582 98.9389 47.0601 98.866 47.1911C98.7947 47.322 98.7591 47.4736 98.7591 47.646V50H98.0159Z" fill="#6F6E77"/>
<rect x="167.548" y="33.69" width="12.6199" height="12.6199" rx="2.32472" fill="#4C40E7"/>
<path d="M176.958 37.6753L172.696 41.9373L170.758 40" stroke="white" stroke-width="1.32841" stroke-linecap="round" stroke-linejoin="round"/>
<rect x="167.548" y="33.69" width="12.6199" height="12.6199" rx="2.32472" stroke="#4C40E7" stroke-width="0.664207"/>
<rect y="56" width="24" height="24" rx="4" fill="#F4F2F4"/>
<path d="M12 67.9999C13.2426 67.9999 14.25 66.9925 14.25 65.7499C14.25 64.5072 13.2426 63.4999 12 63.4999C10.7574 63.4999 9.75 64.5072 9.75 65.7499C9.75 66.9925 10.7574 67.9999 12 67.9999Z" stroke="#1A1523" stroke-linecap="round" stroke-linejoin="round"/>
<path d="M16 72.5C15.6214 71.7654 15.0479 71.1493 14.3423 70.7192C13.6367 70.2891 12.8264 70.0615 12 70.0615C11.1736 70.0615 10.3633 70.2891 9.65767 70.7192C8.95209 71.1493 8.37857 71.7654 8 72.5" stroke="#1A1523" stroke-linecap="round" stroke-linejoin="round"/>
<path d="M34.2891 62.174C34.255 61.8714 34.1143 61.6371 33.8672 61.4709C33.62 61.3026 33.3089 61.2184 32.9339 61.2184C32.6655 61.2184 32.4332 61.261 32.2372 61.3462C32.0412 61.4293 31.8888 61.5444 31.7802 61.6914C31.6737 61.8363 31.6204 62.0014 31.6204 62.1868C31.6204 62.3423 31.6566 62.4766 31.729 62.5895C31.8036 62.7024 31.9006 62.7972 32.0199 62.8739C32.1413 62.9485 32.2713 63.0114 32.4098 63.0625C32.5483 63.1115 32.6815 63.152 32.8093 63.1839L33.4485 63.3501C33.6573 63.4013 33.8714 63.4705 34.0909 63.5579C34.3104 63.6452 34.5138 63.7603 34.7013 63.9031C34.8888 64.0458 35.0401 64.2227 35.1552 64.4336C35.2724 64.6445 35.331 64.897 35.331 65.1911C35.331 65.5618 35.2351 65.891 35.0433 66.1786C34.8537 66.4663 34.5778 66.6932 34.2156 66.8594C33.8555 67.0256 33.4197 67.1087 32.9084 67.1087C32.4183 67.1087 31.9943 67.0309 31.6364 66.8754C31.2784 66.7198 30.9982 66.4993 30.7958 66.2138C30.5934 65.9261 30.4815 65.5852 30.4602 65.1911H31.451C31.4702 65.4276 31.5469 65.6246 31.6811 65.7823C31.8175 65.9379 31.9911 66.054 32.2021 66.1307C32.4151 66.2053 32.6484 66.2425 32.902 66.2425C33.1811 66.2425 33.4293 66.1989 33.6467 66.1115C33.8661 66.022 34.0387 65.8984 34.1644 65.7408C34.2901 65.581 34.353 65.3945 34.353 65.1815C34.353 64.9876 34.2976 64.8288 34.1868 64.7053C34.0781 64.5817 33.93 64.4794 33.7425 64.3984C33.5572 64.3175 33.3473 64.2461 33.1129 64.1843L32.3395 63.9734C31.8153 63.8306 31.3999 63.6207 31.093 63.3438C30.7884 63.0668 30.636 62.7003 30.636 62.2443C30.636 61.8672 30.7383 61.538 30.9428 61.2567C31.1474 60.9755 31.4244 60.7571 31.7738 60.6016C32.1232 60.4439 32.5174 60.3651 32.9563 60.3651C33.3995 60.3651 33.7905 60.4428 34.1293 60.5984C34.4702 60.7539 34.7386 60.968 34.9347 61.2408C35.1307 61.5114 35.233 61.8224 35.2415 62.174H34.2891ZM39.4445 64.9641V62.0909H40.4033V67H39.4637V66.1499H39.4125C39.2996 66.4119 39.1185 66.6303 38.8692 66.805C38.622 66.9776 38.3142 67.0639 37.9456 67.0639C37.6302 67.0639 37.3511 66.9947 37.1082 66.8562C36.8674 66.7156 36.6778 66.5078 36.5393 66.233C36.4029 65.9581 36.3348 65.6183 36.3348 65.2134V62.0909H37.2904V65.0984C37.2904 65.4329 37.3831 65.6992 37.5684 65.8974C37.7538 66.0955 37.9946 66.1946 38.2907 66.1946C38.4697 66.1946 38.6476 66.1499 38.8245 66.0604C39.0034 65.9709 39.1515 65.8356 39.2687 65.6545C39.388 65.4734 39.4466 65.2433 39.4445 64.9641ZM45.2663 63.2894L44.4002 63.4428C44.3639 63.332 44.3064 63.2266 44.2276 63.1264C44.1509 63.0263 44.0465 62.9442 43.9144 62.8803C43.7823 62.8164 43.6171 62.7844 43.419 62.7844C43.1484 62.7844 42.9225 62.8452 42.7414 62.9666C42.5603 63.0859 42.4698 63.2404 42.4698 63.43C42.4698 63.5941 42.5305 63.7262 42.6519 63.8263C42.7734 63.9265 42.9694 64.0085 43.24 64.0724L44.0198 64.2514C44.4715 64.3558 44.8082 64.5167 45.0298 64.734C45.2514 64.9513 45.3622 65.2337 45.3622 65.581C45.3622 65.875 45.2769 66.1371 45.1065 66.3672C44.9382 66.5952 44.7027 66.7741 44.4002 66.9041C44.0997 67.0341 43.7514 67.0991 43.3551 67.0991C42.8054 67.0991 42.3568 66.9819 42.0095 66.7475C41.6622 66.511 41.4492 66.1754 41.3703 65.7408L42.294 65.6001C42.3515 65.8409 42.4698 66.0231 42.6487 66.1467C42.8277 66.2681 43.061 66.3288 43.3487 66.3288C43.6619 66.3288 43.9122 66.2638 44.0997 66.1339C44.2872 66.0018 44.381 65.8409 44.381 65.6513C44.381 65.4979 44.3235 65.369 44.2084 65.2646C44.0955 65.1602 43.9218 65.0813 43.6875 65.0281L42.8565 64.8459C42.3984 64.7415 42.0596 64.5753 41.8402 64.3473C41.6228 64.1193 41.5142 63.8306 41.5142 63.4812C41.5142 63.1914 41.5951 62.9379 41.7571 62.7205C41.919 62.5032 42.1427 62.3338 42.4282 62.2124C42.7137 62.0888 43.0408 62.027 43.4094 62.027C43.9399 62.027 44.3576 62.142 44.6622 62.3722C44.9669 62.6001 45.1683 62.9059 45.2663 63.2894ZM47.7419 67.1087C47.4308 67.1087 47.1495 67.0511 46.8981 66.9361C46.6467 66.8189 46.4475 66.6495 46.3005 66.4279C46.1556 66.2063 46.0831 65.9347 46.0831 65.6129C46.0831 65.3359 46.1364 65.108 46.2429 64.929C46.3495 64.75 46.4933 64.6083 46.6744 64.5039C46.8555 64.3995 47.0579 64.3207 47.2816 64.2674C47.5054 64.2141 47.7333 64.1737 47.9656 64.146C48.2596 64.1119 48.4982 64.0842 48.6815 64.0629C48.8647 64.0394 48.9979 64.0021 49.081 63.951C49.1641 63.8999 49.2056 63.8168 49.2056 63.7017V63.6793C49.2056 63.4002 49.1268 63.1839 48.9691 63.0305C48.8136 62.8771 48.5813 62.8004 48.2724 62.8004C47.9507 62.8004 47.6971 62.8718 47.5117 63.0146C47.3285 63.1552 47.2017 63.3118 47.1314 63.4844L46.2333 63.2798C46.3399 62.9815 46.4954 62.7408 46.7 62.5575C46.9066 62.3722 47.1442 62.2379 47.4127 62.1548C47.6811 62.0696 47.9634 62.027 48.2596 62.027C48.4556 62.027 48.6634 62.0504 48.8828 62.0973C49.1044 62.142 49.3111 62.2251 49.5029 62.3466C49.6968 62.468 49.8555 62.6417 49.9791 62.8675C50.1027 63.0913 50.1644 63.3821 50.1644 63.7401V67H49.2312V66.3288H49.1929C49.1311 66.4524 49.0384 66.5739 48.9148 66.6932C48.7912 66.8125 48.6325 66.9116 48.4386 66.9904C48.2447 67.0692 48.0125 67.1087 47.7419 67.1087ZM47.9496 66.3416C48.2138 66.3416 48.4397 66.2894 48.6272 66.185C48.8168 66.0806 48.9606 65.9442 49.0586 65.7759C49.1588 65.6055 49.2088 65.4233 49.2088 65.2294V64.5966C49.1747 64.6307 49.1087 64.6626 49.0107 64.6925C48.9148 64.7202 48.8051 64.7447 48.6815 64.766C48.5579 64.7852 48.4375 64.8033 48.3203 64.8203C48.2031 64.8352 48.1051 64.848 48.0263 64.8587C47.8409 64.8821 47.6715 64.9215 47.5181 64.9769C47.3669 65.0323 47.2454 65.1122 47.1538 65.2166C47.0643 65.3189 47.0196 65.4553 47.0196 65.6257C47.0196 65.8622 47.1069 66.0412 47.2816 66.1626C47.4563 66.282 47.679 66.3416 47.9496 66.3416ZM52.2932 64.0852V67H51.3376V62.0909H52.2549V62.8899H52.3156C52.4285 62.63 52.6054 62.4212 52.8462 62.2635C53.089 62.1058 53.3948 62.027 53.7634 62.027C54.0979 62.027 54.3909 62.0973 54.6423 62.2379C54.8937 62.3764 55.0887 62.5831 55.2272 62.858C55.3657 63.1328 55.4349 63.4727 55.4349 63.8775V67H54.4793V63.9925C54.4793 63.6367 54.3866 63.3587 54.2013 63.1584C54.0159 62.956 53.7613 62.8548 53.4374 62.8548C53.2158 62.8548 53.0187 62.9027 52.8462 62.9986C52.6757 63.0945 52.5404 63.2351 52.4403 63.4205C52.3422 63.6037 52.2932 63.8253 52.2932 64.0852ZM61.0948 67H58.9758V60.4545H61.1619C61.8032 60.4545 62.354 60.5856 62.8142 60.8477C63.2745 61.1076 63.6271 61.4815 63.8721 61.9695C64.1193 62.4553 64.2429 63.038 64.2429 63.7177C64.2429 64.3995 64.1182 64.9854 63.8689 65.4755C63.6218 65.9656 63.2638 66.3427 62.7951 66.6069C62.3263 66.869 61.7595 67 61.0948 67ZM59.9634 66.1371H61.0404C61.539 66.1371 61.9534 66.0433 62.2837 65.8558C62.614 65.6662 62.8611 65.3924 63.0252 65.0344C63.1892 64.6744 63.2713 64.2354 63.2713 63.7177C63.2713 63.2042 63.1892 62.7685 63.0252 62.4105C62.8632 62.0526 62.6214 61.7809 62.2997 61.5955C61.9779 61.4102 61.5784 61.3175 61.1012 61.3175H59.9634V66.1371ZM66.7232 67.1087C66.4121 67.1087 66.1309 67.0511 65.8795 66.9361C65.628 66.8189 65.4288 66.6495 65.2818 66.4279C65.1369 66.2063 65.0645 65.9347 65.0645 65.6129C65.0645 65.3359 65.1177 65.108 65.2243 64.929C65.3308 64.75 65.4746 64.6083 65.6557 64.5039C65.8369 64.3995 66.0393 64.3207 66.263 64.2674C66.4867 64.2141 66.7147 64.1737 66.9469 64.146C67.241 64.1119 67.4796 64.0842 67.6628 64.0629C67.8461 64.0394 67.9793 64.0021 68.0623 63.951C68.1454 63.8999 68.187 63.8168 68.187 63.7017V63.6793C68.187 63.4002 68.1082 63.1839 67.9505 63.0305C67.7949 62.8771 67.5627 62.8004 67.2538 62.8004C66.932 62.8004 66.6785 62.8718 66.4931 63.0146C66.3099 63.1552 66.1831 63.3118 66.1128 63.4844L65.2147 63.2798C65.3212 62.9815 65.4768 62.7408 65.6813 62.5575C65.888 62.3722 66.1256 62.2379 66.394 62.1548C66.6625 62.0696 66.9448 62.027 67.241 62.027C67.437 62.027 67.6447 62.0504 67.8642 62.0973C68.0858 62.142 68.2925 62.2251 68.4842 62.3466C68.6781 62.468 68.8369 62.6417 68.9604 62.8675C69.084 63.0913 69.1458 63.3821 69.1458 63.7401V67H68.2126V66.3288H68.1742C68.1124 66.4524 68.0197 66.5739 67.8962 66.6932C67.7726 66.8125 67.6138 66.9116 67.4199 66.9904C67.2261 67.0692 66.9938 67.1087 66.7232 67.1087ZM66.931 66.3416C67.1952 66.3416 67.421 66.2894 67.6085 66.185C67.7981 66.0806 67.942 65.9442 68.04 65.7759C68.1401 65.6055 68.1902 65.4233 68.1902 65.2294V64.5966C68.1561 64.6307 68.09 64.6626 67.992 64.6925C67.8962 64.7202 67.7864 64.7447 67.6628 64.766C67.5393 64.7852 67.4189 64.8033 67.3017 64.8203C67.1845 64.8352 67.0865 64.848 67.0077 64.8587C66.8223 64.8821 66.6529 64.9215 66.4995 64.9769C66.3482 65.0323 66.2268 65.1122 66.1351 65.2166C66.0457 65.3189 66.0009 65.4553 66.0009 65.6257C66.0009 65.8622 66.0883 66.0412 66.263 66.1626C66.4377 66.282 66.6604 66.3416 66.931 66.3416ZM74.3428 62.0909L72.5626 67H71.5399L69.7565 62.0909H70.7824L72.0257 65.8686H72.0768L73.3169 62.0909H74.3428ZM75.1412 67V62.0909H76.0968V67H75.1412ZM75.6238 61.3335C75.4576 61.3335 75.3149 61.2781 75.1956 61.1673C75.0784 61.0543 75.0198 60.9201 75.0198 60.7646C75.0198 60.6069 75.0784 60.4727 75.1956 60.3619C75.3149 60.2489 75.4576 60.1925 75.6238 60.1925C75.79 60.1925 75.9317 60.2489 76.0489 60.3619C76.1682 60.4727 76.2279 60.6069 76.2279 60.7646C76.2279 60.9201 76.1682 61.0543 76.0489 61.1673C75.9317 61.2781 75.79 61.3335 75.6238 61.3335ZM80.9614 63.2894L80.0953 63.4428C80.0591 63.332 80.0016 63.2266 79.9227 63.1264C79.846 63.0263 79.7416 62.9442 79.6095 62.8803C79.4774 62.8164 79.3123 62.7844 79.1141 62.7844C78.8435 62.7844 78.6177 62.8452 78.4366 62.9666C78.2555 63.0859 78.1649 63.2404 78.1649 63.43C78.1649 63.5941 78.2256 63.7262 78.3471 63.8263C78.4685 63.9265 78.6646 64.0085 78.9352 64.0724L79.715 64.2514C80.1667 64.3558 80.5033 64.5167 80.7249 64.734C80.9465 64.9513 81.0573 65.2337 81.0573 65.581C81.0573 65.875 80.9721 66.1371 80.8016 66.3672C80.6333 66.5952 80.3979 66.7741 80.0953 66.9041C79.7949 67.0341 79.4465 67.0991 79.0502 67.0991C78.5005 67.0991 78.052 66.9819 77.7047 66.7475C77.3574 66.511 77.1443 66.1754 77.0655 65.7408L77.9891 65.6001C78.0467 65.8409 78.1649 66.0231 78.3439 66.1467C78.5229 66.2681 78.7562 66.3288 79.0438 66.3288C79.357 66.3288 79.6074 66.2638 79.7949 66.1339C79.9824 66.0018 80.0761 65.8409 80.0761 65.6513C80.0761 65.4979 80.0186 65.369 79.9035 65.2646C79.7906 65.1602 79.617 65.0813 79.3826 65.0281L78.5516 64.8459C78.0935 64.7415 77.7548 64.5753 77.5353 64.3473C77.318 64.1193 77.2093 63.8306 77.2093 63.4812C77.2093 63.1914 77.2903 62.9379 77.4522 62.7205C77.6141 62.5032 77.8379 62.3338 78.1234 62.2124C78.4089 62.0888 78.7359 62.027 79.1045 62.027C79.6351 62.027 80.0527 62.142 80.3574 62.3722C80.6621 62.6001 80.8634 62.9059 80.9614 63.2894Z" fill="#1A1523"/>
<path d="M33.3608 75.114L32.6871 75.2333C32.659 75.1471 32.6142 75.0651 32.5529 74.9872C32.4933 74.9093 32.4121 74.8455 32.3093 74.7958C32.2066 74.7461 32.0781 74.7212 31.924 74.7212C31.7135 74.7212 31.5379 74.7685 31.397 74.8629C31.2562 74.9557 31.1857 75.0759 31.1857 75.2234C31.1857 75.351 31.233 75.4537 31.3274 75.5316C31.4219 75.6095 31.5743 75.6733 31.7848 75.723L32.3913 75.8622C32.7427 75.9434 33.0045 76.0685 33.1768 76.2376C33.3492 76.4066 33.4354 76.6262 33.4354 76.8963C33.4354 77.125 33.3691 77.3288 33.2365 77.5078C33.1056 77.6851 32.9225 77.8243 32.6871 77.9254C32.4535 78.0265 32.1825 78.0771 31.8743 78.0771C31.4467 78.0771 31.0979 77.9859 30.8278 77.8036C30.5576 77.6197 30.3919 77.3587 30.3306 77.0206L31.049 76.9112C31.0938 77.0985 31.1857 77.2402 31.3249 77.3363C31.4641 77.4308 31.6456 77.478 31.8693 77.478C32.1129 77.478 32.3076 77.4274 32.4535 77.3263C32.5993 77.2236 32.6722 77.0985 32.6722 76.951C32.6722 76.8317 32.6275 76.7314 32.538 76.6502C32.4502 76.569 32.3151 76.5077 32.1328 76.4663L31.4865 76.3246C31.1302 76.2434 30.8667 76.1141 30.696 75.9368C30.527 75.7595 30.4425 75.5349 30.4425 75.2631C30.4425 75.0378 30.5054 74.8406 30.6314 74.6715C30.7573 74.5025 30.9313 74.3707 31.1534 74.2763C31.3755 74.1802 31.6299 74.1321 31.9165 74.1321C32.3292 74.1321 32.654 74.2216 32.891 74.4006C33.128 74.5779 33.2846 74.8157 33.3608 75.114ZM36.5716 76.4165V74.1818H37.3174V78H36.5865V77.3388H36.5468C36.4589 77.5426 36.3181 77.7125 36.1242 77.8484C35.9319 77.9826 35.6925 78.0497 35.4058 78.0497C35.1605 78.0497 34.9434 77.9959 34.7545 77.8881C34.5672 77.7788 34.4198 77.6172 34.312 77.4034C34.206 77.1896 34.1529 76.9253 34.1529 76.6104V74.1818H34.8962V76.521C34.8962 76.7811 34.9683 76.9883 35.1125 77.1424C35.2566 77.2965 35.4439 77.3736 35.6743 77.3736C35.8135 77.3736 35.9518 77.3388 36.0894 77.2692C36.2286 77.1996 36.3438 77.0943 36.4349 76.9535C36.5277 76.8126 36.5733 76.6336 36.5716 76.4165ZM41.0775 75.114L40.4039 75.2333C40.3757 75.1471 40.331 75.0651 40.2697 74.9872C40.21 74.9093 40.1288 74.8455 40.0261 74.7958C39.9233 74.7461 39.7949 74.7212 39.6408 74.7212C39.4303 74.7212 39.2546 74.7685 39.1138 74.8629C38.9729 74.9557 38.9025 75.0759 38.9025 75.2234C38.9025 75.351 38.9497 75.4537 39.0442 75.5316C39.1386 75.6095 39.2911 75.6733 39.5016 75.723L40.1081 75.8622C40.4594 75.9434 40.7213 76.0685 40.8936 76.2376C41.0659 76.4066 41.1521 76.6262 41.1521 76.8963C41.1521 77.125 41.0858 77.3288 40.9533 77.5078C40.8223 77.6851 40.6392 77.8243 40.4039 77.9254C40.1702 78.0265 39.8993 78.0771 39.591 78.0771C39.1635 78.0771 38.8146 77.9859 38.5445 77.8036C38.2744 77.6197 38.1087 77.3587 38.0474 77.0206L38.7658 76.9112C38.8105 77.0985 38.9025 77.2402 39.0417 77.3363C39.1809 77.4308 39.3624 77.478 39.5861 77.478C39.8297 77.478 40.0244 77.4274 40.1702 77.3263C40.3161 77.2236 40.389 77.0985 40.389 76.951C40.389 76.8317 40.3442 76.7314 40.2548 76.6502C40.1669 76.569 40.0319 76.5077 39.8496 76.4663L39.2033 76.3246C38.847 76.2434 38.5835 76.1141 38.4128 75.9368C38.2437 75.7595 38.1592 75.5349 38.1592 75.2631C38.1592 75.0378 38.2222 74.8406 38.3481 74.6715C38.4741 74.5025 38.6481 74.3707 38.8702 74.2763C39.0922 74.1802 39.3466 74.1321 39.6333 74.1321C40.0459 74.1321 40.3708 74.2216 40.6077 74.4006C40.8447 74.5779 41.0013 74.8157 41.0775 75.114ZM42.9808 78.0845C42.7389 78.0845 42.5201 78.0398 42.3246 77.9503C42.129 77.8591 41.9741 77.7274 41.8598 77.555C41.7471 77.3827 41.6907 77.1714 41.6907 76.9212C41.6907 76.7057 41.7321 76.5284 41.815 76.3892C41.8979 76.25 42.0097 76.1398 42.1506 76.0586C42.2915 75.9774 42.4489 75.9161 42.6229 75.8746C42.7969 75.8332 42.9742 75.8017 43.1549 75.7802C43.3835 75.7537 43.5692 75.7321 43.7117 75.7156C43.8542 75.6973 43.9578 75.6683 44.0224 75.6286C44.087 75.5888 44.1193 75.5241 44.1193 75.4347V75.4173C44.1193 75.2002 44.058 75.032 43.9354 74.9126C43.8144 74.7933 43.6338 74.7337 43.3935 74.7337C43.1433 74.7337 42.946 74.7892 42.8019 74.9002C42.6594 75.0096 42.5607 75.1314 42.5061 75.2656L41.8076 75.1065C41.8904 74.8745 42.0114 74.6873 42.1705 74.5447C42.3312 74.4006 42.516 74.2962 42.7248 74.2315C42.9336 74.1652 43.1532 74.1321 43.3835 74.1321C43.536 74.1321 43.6976 74.1503 43.8683 74.1868C44.0406 74.2216 44.2014 74.2862 44.3505 74.3807C44.5013 74.4751 44.6248 74.6102 44.7209 74.7859C44.817 74.9599 44.8651 75.1861 44.8651 75.4645V78H44.1392V77.478H44.1094C44.0613 77.5741 43.9893 77.6686 43.8931 77.7614C43.797 77.8542 43.6736 77.9312 43.5228 77.9925C43.3719 78.0539 43.1913 78.0845 42.9808 78.0845ZM43.1424 77.4879C43.3479 77.4879 43.5236 77.4473 43.6694 77.3661C43.8169 77.2849 43.9288 77.1789 44.005 77.0479C44.0829 76.9154 44.1218 76.7737 44.1218 76.6229V76.1307C44.0953 76.1572 44.0439 76.1821 43.9677 76.2053C43.8931 76.2268 43.8078 76.2459 43.7117 76.2624C43.6156 76.2773 43.5219 76.2914 43.4308 76.3047C43.3396 76.3163 43.2634 76.3262 43.2021 76.3345C43.0579 76.3527 42.9262 76.3834 42.8068 76.4265C42.6892 76.4696 42.5947 76.5317 42.5235 76.6129C42.4539 76.6925 42.4191 76.7985 42.4191 76.9311C42.4191 77.1151 42.487 77.2543 42.6229 77.3487C42.7588 77.4415 42.932 77.4879 43.1424 77.4879ZM46.4987 75.733V78H45.7554V74.1818H46.4688V74.8033H46.5161C46.6039 74.6011 46.7414 74.4387 46.9287 74.3161C47.1176 74.1934 47.3554 74.1321 47.6421 74.1321C47.9023 74.1321 48.1302 74.1868 48.3257 74.2962C48.5213 74.4039 48.6729 74.5646 48.7806 74.7784C48.8883 74.9922 48.9422 75.2565 48.9422 75.5714V78H48.199V75.6609C48.199 75.3841 48.1269 75.1679 47.9827 75.0121C47.8385 74.8546 47.6405 74.7759 47.3886 74.7759C47.2162 74.7759 47.0629 74.8132 46.9287 74.8878C46.7961 74.9624 46.6909 75.0717 46.613 75.2159C46.5368 75.3584 46.4987 75.5308 46.4987 75.733ZM51.2687 78.0746C50.9605 78.0746 50.6854 77.9959 50.4434 77.8384C50.2031 77.6793 50.0142 77.4531 49.8767 77.1598C49.7408 76.8648 49.6728 76.511 49.6728 76.0984C49.6728 75.6857 49.7416 75.3327 49.8792 75.0394C50.0184 74.7461 50.2089 74.5215 50.4509 74.3658C50.6928 74.21 50.9671 74.1321 51.2737 74.1321C51.5107 74.1321 51.7012 74.1719 51.8454 74.2514C51.9913 74.3293 52.1039 74.4205 52.1835 74.5249C52.2647 74.6293 52.3277 74.7212 52.3724 74.8008H52.4171V72.9091H53.1604V78H52.4346V77.4059H52.3724C52.3277 77.4871 52.263 77.5799 52.1785 77.6843C52.0957 77.7887 51.9813 77.8799 51.8355 77.9577C51.6896 78.0356 51.5007 78.0746 51.2687 78.0746ZM51.4328 77.4407C51.6466 77.4407 51.8272 77.3844 51.9747 77.2717C52.1238 77.1573 52.2365 76.9991 52.3127 76.7969C52.3906 76.5947 52.4296 76.3594 52.4296 76.0909C52.4296 75.8258 52.3915 75.5937 52.3152 75.3949C52.239 75.196 52.1271 75.0411 51.9796 74.93C51.8322 74.819 51.6499 74.7635 51.4328 74.7635C51.2091 74.7635 51.0226 74.8215 50.8735 74.9375C50.7243 75.0535 50.6116 75.2118 50.5354 75.4123C50.4608 75.6128 50.4235 75.839 50.4235 76.0909C50.4235 76.3461 50.4617 76.5756 50.5379 76.7795C50.6141 76.9833 50.7268 77.1449 50.876 77.2642C51.0268 77.3819 51.2124 77.4407 51.4328 77.4407ZM55.2327 78.0845C54.9908 78.0845 54.772 78.0398 54.5765 77.9503C54.3809 77.8591 54.226 77.7274 54.1116 77.555C53.999 77.3827 53.9426 77.1714 53.9426 76.9212C53.9426 76.7057 53.984 76.5284 54.0669 76.3892C54.1498 76.25 54.2616 76.1398 54.4025 76.0586C54.5433 75.9774 54.7008 75.9161 54.8748 75.8746C55.0488 75.8332 55.2261 75.8017 55.4067 75.7802C55.6354 75.7537 55.821 75.7321 55.9636 75.7156C56.1061 75.6973 56.2097 75.6683 56.2743 75.6286C56.3389 75.5888 56.3712 75.5241 56.3712 75.4347V75.4173C56.3712 75.2002 56.3099 75.032 56.1873 74.9126C56.0663 74.7933 55.8857 74.7337 55.6454 74.7337C55.3951 74.7337 55.1979 74.7892 55.0538 74.9002C54.9112 75.0096 54.8126 75.1314 54.7579 75.2656L54.0594 75.1065C54.1423 74.8745 54.2633 74.6873 54.4224 74.5447C54.5831 74.4006 54.7679 74.2962 54.9767 74.2315C55.1855 74.1652 55.4051 74.1321 55.6354 74.1321C55.7879 74.1321 55.9495 74.1503 56.1202 74.1868C56.2925 74.2216 56.4533 74.2862 56.6024 74.3807C56.7532 74.4751 56.8767 74.6102 56.9728 74.7859C57.0689 74.9599 57.117 75.1861 57.117 75.4645V78H56.3911V77.478H56.3613C56.3132 77.5741 56.2411 77.6686 56.145 77.7614C56.0489 77.8542 55.9254 77.9312 55.7746 77.9925C55.6238 78.0539 55.4432 78.0845 55.2327 78.0845ZM55.3943 77.4879C55.5998 77.4879 55.7755 77.4473 55.9213 77.3661C56.0688 77.2849 56.1807 77.1789 56.2569 77.0479C56.3348 76.9154 56.3737 76.7737 56.3737 76.6229V76.1307C56.3472 76.1572 56.2958 76.1821 56.2196 76.2053C56.145 76.2268 56.0597 76.2459 55.9636 76.2624C55.8674 76.2773 55.7738 76.2914 55.6827 76.3047C55.5915 76.3163 55.5153 76.3262 55.454 76.3345C55.3098 76.3527 55.178 76.3834 55.0587 76.4265C54.9411 76.4696 54.8466 76.5317 54.7753 76.6129C54.7057 76.6925 54.6709 76.7985 54.6709 76.9311C54.6709 77.1151 54.7389 77.2543 54.8748 77.3487C55.0107 77.4415 55.1838 77.4879 55.3943 77.4879ZM61.1369 74.1818L59.7523 78H58.9569L57.5698 74.1818H58.3677L59.3347 77.12H59.3745L60.339 74.1818H61.1369ZM61.7358 78V74.1818H62.4791V78H61.7358ZM62.1112 73.5927C61.9819 73.5927 61.8709 73.5496 61.7781 73.4634C61.6869 73.3756 61.6413 73.2712 61.6413 73.1502C61.6413 73.0276 61.6869 72.9232 61.7781 72.837C61.8709 72.7492 61.9819 72.7053 62.1112 72.7053C62.2404 72.7053 62.3506 72.7492 62.4418 72.837C62.5346 72.9232 62.581 73.0276 62.581 73.1502C62.581 73.2712 62.5346 73.3756 62.4418 73.4634C62.3506 73.5496 62.2404 73.5927 62.1112 73.5927ZM66.2405 75.114L65.5668 75.2333C65.5387 75.1471 65.4939 75.0651 65.4326 74.9872C65.3729 74.9093 65.2917 74.8455 65.189 74.7958C65.0862 74.7461 64.9578 74.7212 64.8037 74.7212C64.5932 74.7212 64.4176 74.7685 64.2767 74.8629C64.1358 74.9557 64.0654 75.0759 64.0654 75.2234C64.0654 75.351 64.1126 75.4537 64.2071 75.5316C64.3016 75.6095 64.454 75.6733 64.6645 75.723L65.271 75.8622C65.6223 75.9434 65.8842 76.0685 66.0565 76.2376C66.2289 76.4066 66.3151 76.6262 66.3151 76.8963C66.3151 77.125 66.2488 77.3288 66.1162 77.5078C65.9853 77.6851 65.8022 77.8243 65.5668 77.9254C65.3332 78.0265 65.0622 78.0771 64.754 78.0771C64.3264 78.0771 63.9776 77.9859 63.7075 77.8036C63.4373 77.6197 63.2716 77.3587 63.2103 77.0206L63.9287 76.9112C63.9734 77.0985 64.0654 77.2402 64.2046 77.3363C64.3438 77.4308 64.5253 77.478 64.749 77.478C64.9926 77.478 65.1873 77.4274 65.3332 77.3263C65.479 77.2236 65.5519 77.0985 65.5519 76.951C65.5519 76.8317 65.5072 76.7314 65.4177 76.6502C65.3299 76.569 65.1948 76.5077 65.0125 76.4663L64.3662 76.3246C64.0099 76.2434 63.7464 76.1141 63.5757 75.9368C63.4067 75.7595 63.3222 75.5349 63.3222 75.2631C63.3222 75.0378 63.3851 74.8406 63.5111 74.6715C63.637 74.5025 63.811 74.3707 64.0331 74.2763C64.2552 74.1802 64.5095 74.1321 64.7962 74.1321C65.2089 74.1321 65.5337 74.2216 65.7707 74.4006C66.0076 74.5779 66.1643 74.8157 66.2405 75.114ZM70.0976 79.3846C69.5839 79.3846 69.1282 79.3142 68.7304 79.1733C68.3344 79.0341 68.0004 78.8286 67.7287 78.5568C67.4569 78.2867 67.2506 77.9553 67.1097 77.5625C66.9688 77.1697 66.8984 76.7215 66.8984 76.2177C66.8984 75.7272 66.9697 75.2863 67.1122 74.8952C67.2547 74.5041 67.4618 74.171 67.7336 73.896C68.0071 73.6192 68.3393 73.4079 68.7304 73.2621C69.1215 73.1162 69.5657 73.0433 70.0628 73.0433C70.5384 73.0433 70.9577 73.1179 71.3206 73.267C71.6836 73.4162 71.9885 73.6209 72.2354 73.881C72.484 74.1412 72.6712 74.4395 72.7972 74.7759C72.9231 75.1123 72.9861 75.4678 72.9861 75.8423C72.9861 76.1042 72.9695 76.3602 72.9364 76.6104C72.9033 76.859 72.8419 77.0844 72.7524 77.2866C72.6646 77.4871 72.537 77.6478 72.3696 77.7688C72.2039 77.8881 71.9885 77.9503 71.7233 77.9553C71.5825 77.9602 71.4457 77.9437 71.3132 77.9055C71.1806 77.8674 71.0679 77.8061 70.9751 77.7216C70.8823 77.6354 70.826 77.526 70.8061 77.3935H70.7762C70.7365 77.4912 70.6702 77.5824 70.5774 77.6669C70.4846 77.7498 70.3661 77.8161 70.2219 77.8658C70.0794 77.9138 69.9137 77.9337 69.7247 77.9254C69.5159 77.9171 69.3278 77.8699 69.1605 77.7837C68.9931 77.6976 68.8497 77.5782 68.7304 77.4258C68.6128 77.2733 68.5225 77.0927 68.4595 76.8839C68.3965 76.6751 68.365 76.4431 68.365 76.1879C68.365 75.9426 68.4006 75.723 68.4719 75.5291C68.5432 75.3336 68.6401 75.1654 68.7627 75.0245C68.887 74.882 69.0296 74.7693 69.1903 74.6864C69.351 74.6036 69.5209 74.5514 69.6999 74.5298C69.8739 74.5099 70.0338 74.5149 70.1796 74.5447C70.3255 74.5746 70.4465 74.6201 70.5426 74.6815C70.6403 74.7428 70.7017 74.8099 70.7265 74.8828H70.7588V74.6044H71.3703V76.9112C71.3703 77.0421 71.4043 77.1532 71.4723 77.2443C71.5419 77.3355 71.6405 77.381 71.7681 77.381C71.9189 77.381 72.0365 77.3255 72.1211 77.2145C72.2072 77.1035 72.2677 76.9328 72.3025 76.7024C72.339 76.4721 72.3572 76.1771 72.3572 75.8175C72.3572 75.5656 72.3232 75.3286 72.2553 75.1065C72.189 74.8828 72.0904 74.6806 71.9595 74.5C71.8302 74.3177 71.6711 74.1611 71.4822 74.0302C71.2933 73.8993 71.0778 73.7982 70.8359 73.7269C70.5956 73.6557 70.3296 73.62 70.038 73.62C69.6419 73.62 69.2897 73.6813 68.9815 73.804C68.6733 73.925 68.4131 74.0998 68.201 74.3285C67.9905 74.5572 67.8306 74.8314 67.7212 75.1513C67.6135 75.4695 67.5596 75.8266 67.5596 76.2227C67.5596 76.6353 67.6151 77.0015 67.7262 77.3214C67.8372 77.6396 68.0013 77.908 68.2184 78.1268C68.4354 78.3455 68.7039 78.5112 69.0238 78.6239C69.3436 78.7383 69.7123 78.7955 70.1299 78.7955C70.3155 78.7955 70.4978 78.7789 70.6768 78.7457C70.8558 78.7143 71.0149 78.6778 71.1541 78.6364C71.2949 78.5966 71.4002 78.5643 71.4698 78.5394L71.6438 79.0838C71.541 79.1319 71.4043 79.1791 71.2336 79.2255C71.0646 79.2719 70.8806 79.31 70.6818 79.3398C70.4846 79.3697 70.2899 79.3846 70.0976 79.3846ZM69.8689 77.3164C70.0844 77.3164 70.2575 77.2733 70.3885 77.1871C70.521 77.101 70.6163 76.9725 70.6743 76.8018C70.734 76.6295 70.7638 76.4141 70.7638 76.1555C70.7622 75.9036 70.7298 75.7031 70.6669 75.554C70.6055 75.4032 70.5094 75.2955 70.3785 75.2308C70.2492 75.1645 70.0827 75.1314 69.8789 75.1314C69.6916 75.1314 69.5317 75.177 69.3991 75.2681C69.2682 75.3593 69.1679 75.4827 69.0983 75.6385C69.0304 75.7943 68.9956 75.9674 68.9939 76.158C68.9956 76.3585 69.0238 76.5475 69.0784 76.7248C69.1348 76.9004 69.2259 77.043 69.3519 77.1523C69.4795 77.2617 69.6518 77.3164 69.8689 77.3164ZM75.353 78.0771C74.9768 78.0771 74.6528 77.9967 74.3811 77.8359C74.1109 77.6735 73.9021 77.4457 73.7546 77.1523C73.6088 76.8574 73.5359 76.5118 73.5359 76.1158C73.5359 75.7247 73.6088 75.38 73.7546 75.0817C73.9021 74.7834 74.1076 74.5505 74.3711 74.3832C74.6363 74.2158 74.9462 74.1321 75.3008 74.1321C75.5162 74.1321 75.7251 74.1677 75.9272 74.239C76.1294 74.3103 76.3109 74.4221 76.4716 74.5746C76.6324 74.727 76.7591 74.9251 76.8519 75.1687C76.9448 75.4106 76.9912 75.7048 76.9912 76.0511V76.3146H73.956V75.7578H76.2628C76.2628 75.5623 76.223 75.3891 76.1435 75.2383C76.064 75.0858 75.9521 74.9657 75.8079 74.8778C75.6654 74.79 75.498 74.7461 75.3058 74.7461C75.097 74.7461 74.9147 74.7975 74.7589 74.9002C74.6048 75.0013 74.4855 75.1339 74.401 75.2979C74.3181 75.4603 74.2767 75.6368 74.2767 75.8274V76.2624C74.2767 76.5176 74.3214 76.7347 74.4109 76.9137C74.502 77.0927 74.6288 77.2294 74.7912 77.3239C74.9536 77.4167 75.1434 77.4631 75.3605 77.4631C75.5013 77.4631 75.6298 77.4432 75.7458 77.4034C75.8618 77.362 75.962 77.3007 76.0465 77.2195C76.1311 77.1383 76.1957 77.038 76.2404 76.9187L76.9439 77.0455C76.8876 77.2526 76.7865 77.4341 76.6407 77.5898C76.4965 77.744 76.315 77.8641 76.0963 77.9503C75.8792 78.0348 75.6314 78.0771 75.353 78.0771ZM77.7162 78V74.1818H78.4296V74.8033H78.4768C78.5564 74.5928 78.6865 74.4287 78.8671 74.3111C79.0477 74.1918 79.264 74.1321 79.5159 74.1321C79.7711 74.1321 79.9849 74.1918 80.1572 74.3111C80.3312 74.4304 80.4597 74.5945 80.5425 74.8033H80.5823C80.6735 74.5994 80.8185 74.437 81.0173 74.3161C81.2162 74.1934 81.4532 74.1321 81.7283 74.1321C82.0746 74.1321 82.3572 74.2406 82.5759 74.4577C82.7963 74.6748 82.9065 75.0021 82.9065 75.4396V78H82.1633V75.5092C82.1633 75.2507 82.0928 75.0634 81.952 74.9474C81.8111 74.8314 81.6429 74.7734 81.4474 74.7734C81.2054 74.7734 81.0173 74.848 80.8831 74.9972C80.7489 75.1446 80.6817 75.3344 80.6817 75.5664V78H79.941V75.462C79.941 75.2549 79.8763 75.0883 79.7471 74.9624C79.6178 74.8364 79.4496 74.7734 79.2425 74.7734C79.1016 74.7734 78.9715 74.8107 78.8522 74.8853C78.7345 74.9582 78.6392 75.0601 78.5663 75.1911C78.4951 75.322 78.4594 75.4736 78.4594 75.646V78H77.7162ZM84.9142 78.0845C84.6723 78.0845 84.4535 78.0398 84.258 77.9503C84.0624 77.8591 83.9075 77.7274 83.7931 77.555C83.6804 77.3827 83.6241 77.1714 83.6241 76.9212C83.6241 76.7057 83.6655 76.5284 83.7484 76.3892C83.8312 76.25 83.9431 76.1398 84.084 76.0586C84.2248 75.9774 84.3823 75.9161 84.5563 75.8746C84.7303 75.8332 84.9076 75.8017 85.0882 75.7802C85.3169 75.7537 85.5025 75.7321 85.645 75.7156C85.7876 75.6973 85.8911 75.6683 85.9558 75.6286C86.0204 75.5888 86.0527 75.5241 86.0527 75.4347V75.4173C86.0527 75.2002 85.9914 75.032 85.8688 74.9126C85.7478 74.7933 85.5672 74.7337 85.3269 74.7337C85.0766 74.7337 84.8794 74.7892 84.7352 74.9002C84.5927 75.0096 84.4941 75.1314 84.4394 75.2656L83.7409 75.1065C83.8238 74.8745 83.9448 74.6873 84.1039 74.5447C84.2646 74.4006 84.4494 74.2962 84.6582 74.2315C84.867 74.1652 85.0866 74.1321 85.3169 74.1321C85.4694 74.1321 85.631 74.1503 85.8017 74.1868C85.974 74.2216 86.1347 74.2862 86.2839 74.3807C86.4347 74.4751 86.5582 74.6102 86.6543 74.7859C86.7504 74.9599 86.7985 75.1861 86.7985 75.4645V78H86.0726V77.478H86.0428C85.9947 77.5741 85.9226 77.6686 85.8265 77.7614C85.7304 77.8542 85.6069 77.9312 85.4561 77.9925C85.3053 78.0539 85.1247 78.0845 84.9142 78.0845ZM85.0758 77.4879C85.2813 77.4879 85.457 77.4473 85.6028 77.3661C85.7503 77.2849 85.8621 77.1789 85.9384 77.0479C86.0163 76.9154 86.0552 76.7737 86.0552 76.6229V76.1307C86.0287 76.1572 85.9773 76.1821 85.9011 76.2053C85.8265 76.2268 85.7412 76.2459 85.645 76.2624C85.5489 76.2773 85.4553 76.2914 85.3642 76.3047C85.273 76.3163 85.1968 76.3262 85.1355 76.3345C84.9913 76.3527 84.8595 76.3834 84.7402 76.4265C84.6226 76.4696 84.5281 76.5317 84.4568 76.6129C84.3872 76.6925 84.3524 76.7985 84.3524 76.9311C84.3524 77.1151 84.4204 77.2543 84.5563 77.3487C84.6922 77.4415 84.8653 77.4879 85.0758 77.4879ZM87.6888 78V74.1818H88.432V78H87.6888ZM88.0642 73.5927C87.9349 73.5927 87.8239 73.5496 87.7311 73.4634C87.6399 73.3756 87.5943 73.2712 87.5943 73.1502C87.5943 73.0276 87.6399 72.9232 87.7311 72.837C87.8239 72.7492 87.9349 72.7053 88.0642 72.7053C88.1934 72.7053 88.3036 72.7492 88.3948 72.837C88.4876 72.9232 88.534 73.0276 88.534 73.1502C88.534 73.2712 88.4876 73.3756 88.3948 73.4634C88.3036 73.5496 88.1934 73.5927 88.0642 73.5927ZM90.0756 72.9091V78H89.3323V72.9091H90.0756ZM91.4656 78.0472C91.3297 78.0472 91.2128 77.9992 91.1151 77.9031C91.0173 77.8053 90.9684 77.6876 90.9684 77.5501C90.9684 77.4142 91.0173 77.2982 91.1151 77.2021C91.2128 77.1043 91.3297 77.0554 91.4656 77.0554C91.6015 77.0554 91.7183 77.1043 91.8161 77.2021C91.9138 77.2982 91.9627 77.4142 91.9627 77.5501C91.9627 77.6412 91.9395 77.7249 91.8931 77.8011C91.8484 77.8757 91.7887 77.9354 91.7141 77.9801C91.6396 78.0249 91.5567 78.0472 91.4656 78.0472ZM94.467 78.0771C94.0974 78.0771 93.7792 77.9934 93.5124 77.826C93.2473 77.657 93.0434 77.4241 92.9009 77.1275C92.7584 76.8308 92.6871 76.4911 92.6871 76.1083C92.6871 75.7205 92.7601 75.3783 92.9059 75.0817C93.0517 74.7834 93.2572 74.5505 93.5224 74.3832C93.7875 74.2158 94.0999 74.1321 94.4595 74.1321C94.7495 74.1321 95.008 74.186 95.2351 74.2937C95.4621 74.3997 95.6452 74.5489 95.7844 74.7411C95.9253 74.9334 96.009 75.1579 96.0355 75.4148H95.3121C95.2724 75.2358 95.1812 75.0817 95.0387 74.9524C94.8978 74.8232 94.7089 74.7585 94.4719 74.7585C94.2648 74.7585 94.0833 74.8132 93.9275 74.9226C93.7734 75.0303 93.6533 75.1844 93.5671 75.3849C93.4809 75.5838 93.4378 75.8191 93.4378 76.0909C93.4378 76.3693 93.4801 76.6096 93.5646 76.8118C93.6491 77.014 93.7685 77.1706 93.9226 77.2816C94.0784 77.3926 94.2615 77.4482 94.4719 77.4482C94.6128 77.4482 94.7404 77.4225 94.8547 77.3711C94.9708 77.3181 95.0677 77.2427 95.1456 77.1449C95.2251 77.0471 95.2806 76.9295 95.3121 76.7919H96.0355C96.009 77.0388 95.9286 77.2592 95.7944 77.4531C95.6601 77.647 95.4803 77.7995 95.255 77.9105C95.0312 78.0215 94.7686 78.0771 94.467 78.0771ZM98.339 78.0771C97.9811 78.0771 97.6687 77.995 97.4019 77.831C97.1351 77.6669 96.9279 77.4374 96.7804 77.1424C96.6329 76.8474 96.5592 76.5027 96.5592 76.1083C96.5592 75.7122 96.6329 75.3659 96.7804 75.0692C96.9279 74.7726 97.1351 74.5423 97.4019 74.3782C97.6687 74.2141 97.9811 74.1321 98.339 74.1321C98.697 74.1321 99.0093 74.2141 99.2762 74.3782C99.543 74.5423 99.7501 74.7726 99.8976 75.0692C100.045 75.3659 100.119 75.7122 100.119 76.1083C100.119 76.5027 100.045 76.8474 99.8976 77.1424C99.7501 77.4374 99.543 77.6669 99.2762 77.831C99.0093 77.995 98.697 78.0771 98.339 78.0771ZM98.3415 77.4531C98.5735 77.4531 98.7657 77.3918 98.9182 77.2692C99.0707 77.1465 99.1834 76.9833 99.2563 76.7795C99.3308 76.5756 99.3681 76.3511 99.3681 76.1058C99.3681 75.8622 99.3308 75.6385 99.2563 75.4347C99.1834 75.2292 99.0707 75.0643 98.9182 74.94C98.7657 74.8157 98.5735 74.7536 98.3415 74.7536C98.1078 74.7536 97.9139 74.8157 97.7598 74.94C97.6074 75.0643 97.4938 75.2292 97.4193 75.4347C97.3463 75.6385 97.3099 75.8622 97.3099 76.1058C97.3099 76.3511 97.3463 76.5756 97.4193 76.7795C97.4938 76.9833 97.6074 77.1465 97.7598 77.2692C97.9139 77.3918 98.1078 77.4531 98.3415 77.4531ZM100.849 78V74.1818H101.562V74.8033H101.609C101.689 74.5928 101.819 74.4287 102 74.3111C102.18 74.1918 102.397 74.1321 102.649 74.1321C102.904 74.1321 103.118 74.1918 103.29 74.3111C103.464 74.4304 103.592 74.5945 103.675 74.8033H103.715C103.806 74.5994 103.951 74.437 104.15 74.3161C104.349 74.1934 104.586 74.1321 104.861 74.1321C105.207 74.1321 105.49 74.2406 105.709 74.4577C105.929 74.6748 106.039 75.0021 106.039 75.4396V78H105.296V75.5092C105.296 75.2507 105.225 75.0634 105.085 74.9474C104.944 74.8314 104.776 74.7734 104.58 74.7734C104.338 74.7734 104.15 74.848 104.016 74.9972C103.882 75.1446 103.814 75.3344 103.814 75.5664V78H103.074V75.462C103.074 75.2549 103.009 75.0883 102.88 74.9624C102.75 74.8364 102.582 74.7734 102.375 74.7734C102.234 74.7734 102.104 74.8107 101.985 74.8853C101.867 74.9582 101.772 75.0601 101.699 75.1911C101.628 75.322 101.592 75.4736 101.592 75.646V78H100.849Z" fill="#6F6E77"/>
<rect x="167.548" y="61.69" width="12.6199" height="12.6199" rx="2.32472" stroke="#C8C7CB" stroke-width="0.664207"/>
</svg>
