<svg width="181" height="80" viewBox="0 0 181 80" fill="none" xmlns="http://www.w3.org/2000/svg">
<rect x="0.5" width="24" height="24" rx="4" fill="#232326"/>
<path d="M12.5 11.9999C13.7426 11.9999 14.75 10.9926 14.75 9.74994C14.75 8.5073 13.7426 7.49994 12.5 7.49994C11.2574 7.49994 10.25 8.5073 10.25 9.74994C10.25 10.9926 11.2574 11.9999 12.5 11.9999Z" stroke="#EDEDEF" stroke-linecap="round" stroke-linejoin="round"/>
<path d="M16.5 16.5001C16.1214 15.7656 15.5479 15.1494 14.8423 14.7193C14.1367 14.2892 13.3264 14.0616 12.5 14.0616C11.6736 14.0616 10.8633 14.2892 10.1577 14.7193C9.45209 15.1494 8.87857 15.7656 8.5 16.5001" stroke="#EDEDEF" stroke-linecap="round" stroke-linejoin="round"/>
<path d="M33.7631 4.45455H34.7475V9.09517C34.7475 9.51491 34.6644 9.87393 34.4982 10.1722C34.3342 10.4705 34.103 10.6985 33.8047 10.8562C33.5064 11.0117 33.157 11.0895 32.7564 11.0895C32.3878 11.0895 32.0565 11.0224 31.7624 10.8881C31.4705 10.7539 31.2393 10.5589 31.0689 10.3033C30.9006 10.0455 30.8164 9.73224 30.8164 9.36364H31.7976C31.7976 9.54474 31.8391 9.70135 31.9222 9.83345C32.0075 9.96555 32.1236 10.0689 32.2706 10.1435C32.4197 10.2159 32.5902 10.2521 32.782 10.2521C32.9908 10.2521 33.1676 10.2085 33.3125 10.1211C33.4595 10.0316 33.5714 9.90057 33.6481 9.72798C33.7248 9.5554 33.7631 9.34446 33.7631 9.09517V4.45455ZM37.4372 11.1087C37.1261 11.1087 36.8449 11.0511 36.5935 10.9361C36.342 10.8189 36.1428 10.6495 35.9958 10.4279C35.8509 10.2063 35.7785 9.93466 35.7785 9.61293C35.7785 9.33594 35.8317 9.10795 35.9383 8.92898C36.0448 8.75 36.1886 8.60831 36.3697 8.50391C36.5508 8.3995 36.7533 8.32067 36.977 8.2674C37.2007 8.21413 37.4287 8.17365 37.6609 8.14595C37.955 8.11186 38.1936 8.08416 38.3768 8.06286C38.5601 8.03942 38.6932 8.00213 38.7763 7.95099C38.8594 7.89986 38.901 7.81676 38.901 7.7017V7.67933C38.901 7.40021 38.8222 7.18395 38.6645 7.03054C38.5089 6.87713 38.2767 6.80043 37.9678 6.80043C37.646 6.80043 37.3925 6.8718 37.2071 7.01456C37.0239 7.15518 36.8971 7.31179 36.8268 7.48438L35.9287 7.27983C36.0352 6.98153 36.1908 6.74077 36.3953 6.55753C36.602 6.37216 36.8396 6.23793 37.108 6.15483C37.3765 6.0696 37.6588 6.02699 37.955 6.02699C38.151 6.02699 38.3587 6.05043 38.5782 6.0973C38.7998 6.14205 39.0065 6.22514 39.1982 6.34659C39.3921 6.46804 39.5508 6.64169 39.6744 6.86754C39.798 7.09126 39.8598 7.3821 39.8598 7.74006V11H38.9266V10.3288H38.8882C38.8264 10.4524 38.7337 10.5739 38.6102 10.6932C38.4866 10.8125 38.3278 10.9116 38.1339 10.9904C37.9401 11.0692 37.7078 11.1087 37.4372 11.1087ZM37.645 10.3416C37.9092 10.3416 38.135 10.2894 38.3225 10.185C38.5121 10.0806 38.656 9.94425 38.754 9.77592C38.8541 9.60547 38.9042 9.4233 38.9042 9.2294V8.59659C38.8701 8.63068 38.804 8.66264 38.706 8.69247C38.6102 8.72017 38.5004 8.74467 38.3768 8.76598C38.2533 8.78516 38.1329 8.80327 38.0157 8.82031C37.8985 8.83523 37.8005 8.84801 37.7217 8.85866C37.5363 8.8821 37.3669 8.92152 37.2135 8.97692C37.0622 9.03232 36.9408 9.11222 36.8491 9.21662C36.7597 9.31889 36.7149 9.45526 36.7149 9.62571C36.7149 9.86222 36.8023 10.0412 36.977 10.1626C37.1517 10.282 37.3744 10.3416 37.645 10.3416ZM41.9886 8.08523V11H41.033V6.09091H41.9502V6.88991H42.011C42.1239 6.62997 42.3007 6.42116 42.5415 6.26349C42.7844 6.10582 43.0902 6.02699 43.4588 6.02699C43.7933 6.02699 44.0862 6.0973 44.3377 6.23793C44.5891 6.37642 44.784 6.5831 44.9225 6.85795C45.061 7.13281 45.1303 7.47266 45.1303 7.87749V11H44.1747V7.99254C44.1747 7.63672 44.082 7.35866 43.8966 7.15838C43.7112 6.95597 43.4566 6.85476 43.1328 6.85476C42.9112 6.85476 42.7141 6.9027 42.5415 6.99858C42.3711 7.09446 42.2358 7.23509 42.1356 7.42045C42.0376 7.60369 41.9886 7.82528 41.9886 8.08523ZM48.428 11.0991C47.9444 11.0991 47.5278 10.9957 47.1784 10.7891C46.8311 10.5803 46.5626 10.2873 46.373 9.91016C46.1855 9.53089 46.0917 9.08665 46.0917 8.57741C46.0917 8.07457 46.1855 7.63139 46.373 7.24787C46.5626 6.86435 46.8268 6.56499 47.1656 6.34979C47.5065 6.13459 47.9049 6.02699 48.3609 6.02699C48.6379 6.02699 48.9064 6.0728 49.1663 6.16442C49.4262 6.25604 49.6596 6.39986 49.8662 6.59588C50.0729 6.7919 50.2359 7.04652 50.3552 7.35973C50.4745 7.67081 50.5342 8.04901 50.5342 8.49432V8.8331H46.6319V8.11719H49.5978C49.5978 7.86577 49.5466 7.64311 49.4444 7.44922C49.3421 7.2532 49.1983 7.09872 49.0129 6.9858C48.8297 6.87287 48.6145 6.81641 48.3673 6.81641C48.0988 6.81641 47.8645 6.88246 47.6642 7.01456C47.466 7.14453 47.3126 7.31499 47.2039 7.52592C47.0974 7.73473 47.0441 7.96165 47.0441 8.20668V8.76598C47.0441 9.09411 47.1017 9.37322 47.2167 9.60334C47.3339 9.83345 47.4969 10.0092 47.7057 10.1307C47.9145 10.25 48.1585 10.3097 48.4376 10.3097C48.6187 10.3097 48.7838 10.2841 48.933 10.233C49.0821 10.1797 49.2111 10.1009 49.3197 9.99645C49.4284 9.89205 49.5115 9.76314 49.569 9.60973L50.4735 9.77273C50.401 10.0391 50.2711 10.2724 50.0836 10.4727C49.8982 10.6708 49.6649 10.8253 49.3836 10.9361C49.1045 11.0447 48.786 11.0991 48.428 11.0991ZM57.4237 6.17401C57.3896 5.87145 57.249 5.63707 57.0018 5.47088C56.7547 5.30256 56.4436 5.21839 56.0686 5.21839C55.8001 5.21839 55.5679 5.26101 55.3719 5.34624C55.1759 5.42933 55.0235 5.54439 54.9148 5.69141C54.8083 5.83629 54.755 6.00142 54.755 6.18679C54.755 6.34233 54.7913 6.47656 54.8637 6.58949C54.9383 6.70241 55.0352 6.79723 55.1545 6.87393C55.276 6.94851 55.406 7.01136 55.5445 7.0625C55.683 7.11151 55.8161 7.15199 55.944 7.18395L56.5832 7.35014C56.792 7.40128 57.0061 7.47053 57.2256 7.55788C57.445 7.64524 57.6485 7.7603 57.836 7.90305C58.0235 8.04581 58.1748 8.22266 58.2898 8.43359C58.407 8.64453 58.4656 8.89702 58.4656 9.19105C58.4656 9.56179 58.3697 9.89098 58.178 10.1786C57.9884 10.4663 57.7124 10.6932 57.3502 10.8594C56.9901 11.0256 56.5544 11.1087 56.043 11.1087C55.553 11.1087 55.129 11.0309 54.771 10.8754C54.4131 10.7198 54.1329 10.4993 53.9305 10.2138C53.7281 9.92614 53.6162 9.58523 53.5949 9.19105H54.5857C54.6048 9.42756 54.6815 9.62464 54.8158 9.78232C54.9521 9.93786 55.1258 10.054 55.3367 10.1307C55.5498 10.2053 55.7831 10.2425 56.0366 10.2425C56.3158 10.2425 56.564 10.1989 56.7813 10.1115C57.0008 10.022 57.1734 9.89844 57.2991 9.74077C57.4248 9.58097 57.4876 9.39453 57.4876 9.18146C57.4876 8.98757 57.4322 8.82884 57.3214 8.70526C57.2128 8.58168 57.0647 8.4794 56.8772 8.39844C56.6918 8.31747 56.482 8.24609 56.2476 8.1843L55.4741 7.97337C54.95 7.83061 54.5345 7.62074 54.2277 7.34375C53.923 7.06676 53.7707 6.70028 53.7707 6.24432C53.7707 5.86719 53.8729 5.538 54.0775 5.25675C54.282 4.9755 54.559 4.7571 54.9084 4.60156C55.2579 4.44389 55.6521 4.36506 56.091 4.36506C56.5342 4.36506 56.9251 4.44283 57.2639 4.59837C57.6048 4.75391 57.8733 4.96804 58.0693 5.24077C58.2653 5.51136 58.3676 5.82244 58.3761 6.17401H57.4237ZM59.4694 11V6.09091H60.3867V6.88991H60.4474C60.5497 6.61932 60.7169 6.40838 60.9492 6.2571C61.1814 6.10369 61.4595 6.02699 61.7833 6.02699C62.1115 6.02699 62.3863 6.10369 62.6079 6.2571C62.8316 6.41051 62.9968 6.62145 63.1033 6.88991H63.1544C63.2716 6.62784 63.4581 6.41903 63.7137 6.26349C63.9694 6.10582 64.2741 6.02699 64.6278 6.02699C65.0731 6.02699 65.4364 6.16655 65.7176 6.44567C66.001 6.72479 66.1427 7.1456 66.1427 7.7081V11H65.1871V7.79759C65.1871 7.4652 65.0966 7.22443 64.9154 7.07528C64.7343 6.92614 64.5181 6.85156 64.2666 6.85156C63.9556 6.85156 63.7137 6.94744 63.5412 7.1392C63.3686 7.32884 63.2823 7.5728 63.2823 7.87109V11H62.3299V7.73686C62.3299 7.47053 62.2468 7.25639 62.0806 7.09446C61.9144 6.93253 61.6981 6.85156 61.4318 6.85156C61.2507 6.85156 61.0834 6.8995 60.93 6.99538C60.7787 7.08913 60.6562 7.22017 60.5625 7.38849C60.4708 7.55682 60.425 7.75178 60.425 7.97337V11H59.4694ZM67.3239 11V6.09091H68.2795V11H67.3239ZM67.8065 5.33345C67.6403 5.33345 67.4975 5.27805 67.3782 5.16726C67.261 5.05433 67.2024 4.9201 67.2024 4.76456C67.2024 4.60689 67.261 4.47266 67.3782 4.36186C67.4975 4.24893 67.6403 4.19247 67.8065 4.19247C67.9727 4.19247 68.1144 4.24893 68.2316 4.36186C68.3509 4.47266 68.4105 4.60689 68.4105 4.76456C68.4105 4.9201 68.3509 5.05433 68.2316 5.16726C68.1144 5.27805 67.9727 5.33345 67.8065 5.33345ZM71.757 6.09091V6.85795H69.0756V6.09091H71.757ZM69.7947 4.91477H70.7503V9.55859C70.7503 9.74396 70.778 9.88352 70.8334 9.97727C70.8888 10.0689 70.9601 10.1317 71.0475 10.1658C71.137 10.1978 71.2339 10.2138 71.3383 10.2138C71.415 10.2138 71.4822 10.2085 71.5397 10.1978C71.5972 10.1871 71.642 10.1786 71.6739 10.1722L71.8465 10.9616C71.7911 10.983 71.7123 11.0043 71.61 11.0256C71.5077 11.049 71.3799 11.0618 71.2265 11.0639C70.9751 11.0682 70.7407 11.0234 70.5234 10.9297C70.306 10.8359 70.1302 10.6911 69.996 10.495C69.8618 10.299 69.7947 10.0529 69.7947 9.75675V4.91477ZM73.7756 8.08523V11H72.8199V4.45455H73.7628V6.88991H73.8235C73.9385 6.62571 74.1143 6.41584 74.3508 6.2603C74.5873 6.10476 74.8963 6.02699 75.2777 6.02699C75.6143 6.02699 75.9084 6.09624 76.1598 6.23473C76.4133 6.37322 76.6094 6.5799 76.7479 6.85476C76.8885 7.12749 76.9588 7.46839 76.9588 7.87749V11H76.0032V7.99254C76.0032 7.63246 75.9105 7.35334 75.7251 7.15518C75.5398 6.9549 75.2819 6.85476 74.9517 6.85476C74.7258 6.85476 74.5234 6.9027 74.3444 6.99858C74.1676 7.09446 74.028 7.23509 73.9258 7.42045C73.8256 7.60369 73.7756 7.82528 73.7756 8.08523Z" fill="#EDEDEF"/>
<path d="M30.9996 18.1818H31.7429V22.2486C31.7429 22.5038 31.6965 22.7192 31.6037 22.8949C31.5125 23.0705 31.3767 23.204 31.196 23.2951C31.017 23.3862 30.7958 23.4318 30.5323 23.4318C30.5058 23.4318 30.4809 23.4318 30.4577 23.4318C30.4329 23.4318 30.4072 23.431 30.3807 23.4293V22.7905C30.4039 22.7905 30.4246 22.7905 30.4428 22.7905C30.4594 22.7905 30.4785 22.7905 30.5 22.7905C30.6757 22.7905 30.8024 22.7433 30.8803 22.6488C30.9599 22.556 30.9996 22.4209 30.9996 22.2436V18.1818ZM31.3675 17.5927C31.2383 17.5927 31.1272 17.5496 31.0344 17.4634C30.9433 17.3756 30.8977 17.2712 30.8977 17.1502C30.8977 17.0276 30.9433 16.9232 31.0344 16.837C31.1272 16.7492 31.2383 16.7053 31.3675 16.7053C31.4968 16.7053 31.607 16.7492 31.6982 16.837C31.791 16.9232 31.8374 17.0276 31.8374 17.1502C31.8374 17.2712 31.791 17.3756 31.6982 17.4634C31.607 17.5496 31.4968 17.5927 31.3675 17.5927ZM33.7543 22.0845C33.5124 22.0845 33.2936 22.0398 33.0981 21.9503C32.9025 21.8591 32.7476 21.7274 32.6332 21.555C32.5205 21.3827 32.4642 21.1714 32.4642 20.9212C32.4642 20.7057 32.5056 20.5284 32.5885 20.3892C32.6714 20.25 32.7832 20.1398 32.9241 20.0586C33.0649 19.9774 33.2224 19.9161 33.3964 19.8746C33.5704 19.8332 33.7477 19.8017 33.9283 19.7802C34.157 19.7537 34.3426 19.7321 34.4852 19.7156C34.6277 19.6973 34.7312 19.6683 34.7959 19.6286C34.8605 19.5888 34.8928 19.5241 34.8928 19.4347V19.4173C34.8928 19.2002 34.8315 19.032 34.7089 18.9126C34.5879 18.7933 34.4073 18.7337 34.167 18.7337C33.9167 18.7337 33.7195 18.7892 33.5754 18.9002C33.4328 19.0096 33.3342 19.1314 33.2795 19.2656L32.581 19.1065C32.6639 18.8745 32.7849 18.6873 32.944 18.5447C33.1047 18.4006 33.2895 18.2962 33.4983 18.2315C33.7071 18.1652 33.9267 18.1321 34.157 18.1321C34.3095 18.1321 34.4711 18.1503 34.6418 18.1868C34.8141 18.2216 34.9749 18.2862 35.124 18.3807C35.2748 18.4751 35.3983 18.6102 35.4944 18.7859C35.5905 18.9599 35.6386 19.1861 35.6386 19.4645V22H34.9127V21.478H34.8829C34.8348 21.5741 34.7627 21.6686 34.6666 21.7614C34.5705 21.8542 34.447 21.9312 34.2962 21.9925C34.1454 22.0539 33.9648 22.0845 33.7543 22.0845ZM33.9159 21.4879C34.1214 21.4879 34.2971 21.4473 34.4429 21.3661C34.5904 21.2849 34.7022 21.1789 34.7785 21.0479C34.8564 20.9154 34.8953 20.7737 34.8953 20.6229V20.1307C34.8688 20.1572 34.8174 20.1821 34.7412 20.2053C34.6666 20.2268 34.5813 20.2459 34.4852 20.2624C34.389 20.2773 34.2954 20.2914 34.2043 20.3047C34.1131 20.3163 34.0369 20.3262 33.9756 20.3345C33.8314 20.3527 33.6996 20.3834 33.5803 20.4265C33.4627 20.4696 33.3682 20.5317 33.2969 20.6129C33.2273 20.6925 33.1925 20.7985 33.1925 20.9311C33.1925 21.1151 33.2605 21.2543 33.3964 21.3487C33.5323 21.4415 33.7054 21.4879 33.9159 21.4879ZM37.2722 19.733V22H36.5289V18.1818H37.2423V18.8033H37.2896C37.3774 18.6011 37.5149 18.4387 37.7022 18.3161C37.8911 18.1934 38.1289 18.1321 38.4156 18.1321C38.6758 18.1321 38.9037 18.1868 39.0992 18.2962C39.2948 18.4039 39.4464 18.5646 39.5541 18.7784C39.6618 18.9922 39.7157 19.2565 39.7157 19.5714V22H38.9724V19.6609C38.9724 19.3841 38.9003 19.1679 38.7562 19.0121C38.612 18.8546 38.414 18.7759 38.1621 18.7759C37.9897 18.7759 37.8364 18.8132 37.7022 18.8878C37.5696 18.9624 37.4644 19.0717 37.3865 19.2159C37.3103 19.3584 37.2722 19.5308 37.2722 19.733ZM42.2585 22.0771C41.8823 22.0771 41.5583 21.9967 41.2865 21.8359C41.0164 21.6735 40.8076 21.4457 40.6601 21.1523C40.5143 20.8574 40.4413 20.5118 40.4413 20.1158C40.4413 19.7247 40.5143 19.38 40.6601 19.0817C40.8076 18.7834 41.0131 18.5505 41.2766 18.3832C41.5417 18.2158 41.8516 18.1321 42.2063 18.1321C42.4217 18.1321 42.6305 18.1677 42.8327 18.239C43.0349 18.3103 43.2163 18.4221 43.3771 18.5746C43.5378 18.727 43.6646 18.9251 43.7574 19.1687C43.8502 19.4106 43.8966 19.7048 43.8966 20.0511V20.3146H40.8614V19.7578H43.1683C43.1683 19.5623 43.1285 19.3891 43.0489 19.2383C42.9694 19.0858 42.8575 18.9657 42.7134 18.8778C42.5708 18.79 42.4035 18.7461 42.2112 18.7461C42.0024 18.7461 41.8201 18.7975 41.6644 18.9002C41.5102 19.0013 41.3909 19.1339 41.3064 19.2979C41.2235 19.4603 41.1821 19.6368 41.1821 19.8274V20.2624C41.1821 20.5176 41.2269 20.7347 41.3163 20.9137C41.4075 21.0927 41.5343 21.2294 41.6967 21.3239C41.8591 21.4167 42.0488 21.4631 42.2659 21.4631C42.4068 21.4631 42.5352 21.4432 42.6512 21.4034C42.7672 21.362 42.8675 21.3007 42.952 21.2195C43.0365 21.1383 43.1011 21.038 43.1459 20.9187L43.8494 21.0455C43.793 21.2526 43.6919 21.4341 43.5461 21.5898C43.4019 21.744 43.2205 21.8641 43.0017 21.9503C42.7846 22.0348 42.5369 22.0771 42.2585 22.0771ZM47.4828 19.114L46.8091 19.2333C46.781 19.1471 46.7362 19.0651 46.6749 18.9872C46.6152 18.9093 46.534 18.8455 46.4313 18.7958C46.3285 18.7461 46.2001 18.7212 46.046 18.7212C45.8355 18.7212 45.6599 18.7685 45.519 18.8629C45.3781 18.9557 45.3077 19.0759 45.3077 19.2234C45.3077 19.351 45.3549 19.4537 45.4494 19.5316C45.5439 19.6095 45.6963 19.6733 45.9068 19.723L46.5133 19.8622C46.8646 19.9434 47.1265 20.0685 47.2988 20.2376C47.4712 20.4066 47.5574 20.6262 47.5574 20.8963C47.5574 21.125 47.4911 21.3288 47.3585 21.5078C47.2276 21.6851 47.0445 21.8243 46.8091 21.9254C46.5755 22.0265 46.3045 22.0771 45.9963 22.0771C45.5687 22.0771 45.2199 21.9859 44.9498 21.8036C44.6796 21.6197 44.5139 21.3587 44.4526 21.0206L45.171 20.9112C45.2157 21.0985 45.3077 21.2402 45.4469 21.3363C45.5861 21.4308 45.7676 21.478 45.9913 21.478C46.2349 21.478 46.4296 21.4274 46.5755 21.3263C46.7213 21.2236 46.7942 21.0985 46.7942 20.951C46.7942 20.8317 46.7495 20.7314 46.66 20.6502C46.5721 20.569 46.4371 20.5077 46.2548 20.4663L45.6085 20.3246C45.2522 20.2434 44.9887 20.1141 44.818 19.9368C44.649 19.7595 44.5645 19.5349 44.5645 19.2631C44.5645 19.0378 44.6274 18.8406 44.7534 18.6715C44.8793 18.5025 45.0533 18.3707 45.2754 18.2763C45.4975 18.1802 45.7518 18.1321 46.0385 18.1321C46.4512 18.1321 46.776 18.2216 47.013 18.4006C47.2499 18.5779 47.4065 18.8157 47.4828 19.114ZM48.2749 22V18.1818H48.9884V18.8033H49.0356C49.1151 18.5928 49.2452 18.4287 49.4259 18.3111C49.6065 18.1918 49.8227 18.1321 50.0746 18.1321C50.3299 18.1321 50.5436 18.1918 50.716 18.3111C50.89 18.4304 51.0184 18.5945 51.1013 18.8033H51.141C51.2322 18.5994 51.3772 18.437 51.5761 18.3161C51.7749 18.1934 52.0119 18.1321 52.287 18.1321C52.6334 18.1321 52.9159 18.2406 53.1347 18.4577C53.3551 18.6748 53.4653 19.0021 53.4653 19.4396V22H52.722V19.5092C52.722 19.2507 52.6516 19.0634 52.5107 18.9474C52.3699 18.8314 52.2017 18.7734 52.0061 18.7734C51.7642 18.7734 51.5761 18.848 51.4418 18.9972C51.3076 19.1446 51.2405 19.3344 51.2405 19.5664V22H50.4997V19.462C50.4997 19.2549 50.4351 19.0883 50.3058 18.9624C50.1766 18.8364 50.0084 18.7734 49.8012 18.7734C49.6603 18.7734 49.5303 18.8107 49.4109 18.8853C49.2933 18.9582 49.198 19.0601 49.1251 19.1911C49.0538 19.322 49.0182 19.4736 49.0182 19.646V22H48.2749ZM54.3618 22V18.1818H55.1051V22H54.3618ZM54.7372 17.5927C54.6079 17.5927 54.4969 17.5496 54.4041 17.4634C54.3129 17.3756 54.2674 17.2712 54.2674 17.1502C54.2674 17.0276 54.3129 16.9232 54.4041 16.837C54.4969 16.7492 54.6079 16.7053 54.7372 16.7053C54.8664 16.7053 54.9766 16.7492 55.0678 16.837C55.1606 16.9232 55.207 17.0276 55.207 17.1502C55.207 17.2712 55.1606 17.3756 55.0678 17.4634C54.9766 17.5496 54.8664 17.5927 54.7372 17.5927ZM57.7877 18.1818V18.7784H55.7021V18.1818H57.7877ZM56.2614 17.267H57.0046V20.8789C57.0046 21.0231 57.0262 21.1316 57.0693 21.2045C57.1124 21.2758 57.1679 21.3247 57.2358 21.3512C57.3054 21.3761 57.3808 21.3885 57.462 21.3885C57.5217 21.3885 57.5739 21.3844 57.6186 21.3761C57.6634 21.3678 57.6982 21.3612 57.723 21.3562L57.8573 21.9702C57.8142 21.9867 57.7529 22.0033 57.6733 22.0199C57.5938 22.0381 57.4943 22.0481 57.375 22.0497C57.1795 22.053 56.9972 22.0182 56.8282 21.9453C56.6591 21.8724 56.5224 21.7597 56.418 21.6072C56.3136 21.4548 56.2614 21.2634 56.2614 21.033V17.267ZM59.3355 19.733V22H58.5922V16.9091H59.3256V18.8033H59.3728C59.4623 18.5978 59.599 18.4345 59.7829 18.3136C59.9669 18.1926 60.2072 18.1321 60.5038 18.1321C60.7657 18.1321 60.9944 18.186 61.1899 18.2937C61.3871 18.4014 61.5396 18.5621 61.6473 18.7759C61.7567 18.988 61.8113 19.2532 61.8113 19.5714V22H61.0681V19.6609C61.0681 19.3808 60.996 19.1637 60.8518 19.0096C60.7077 18.8538 60.5071 18.7759 60.2503 18.7759C60.0746 18.7759 59.9172 18.8132 59.778 18.8878C59.6404 18.9624 59.5319 19.0717 59.4523 19.2159C59.3744 19.3584 59.3355 19.5308 59.3355 19.733ZM65.7685 23.3846C65.2548 23.3846 64.7991 23.3142 64.4014 23.1733C64.0053 23.0341 63.6714 22.8286 63.3996 22.5568C63.1278 22.2867 62.9215 21.9553 62.7806 21.5625C62.6397 21.1697 62.5693 20.7215 62.5693 20.2177C62.5693 19.7272 62.6406 19.2863 62.7831 18.8952C62.9256 18.5041 63.1328 18.171 63.4045 17.896C63.678 17.6192 64.0103 17.4079 64.4014 17.2621C64.7924 17.1162 65.2366 17.0433 65.7337 17.0433C66.2094 17.0433 66.6286 17.1179 66.9915 17.267C67.3545 17.4162 67.6594 17.6209 67.9063 17.881C68.1549 18.1412 68.3422 18.4395 68.4681 18.7759C68.5941 19.1123 68.657 19.4678 68.657 19.8423C68.657 20.1042 68.6405 20.3602 68.6073 20.6104C68.5742 20.859 68.5129 21.0844 68.4234 21.2866C68.3355 21.4871 68.2079 21.6478 68.0406 21.7688C67.8748 21.8881 67.6594 21.9503 67.3942 21.9553C67.2534 21.9602 67.1167 21.9437 66.9841 21.9055C66.8515 21.8674 66.7388 21.8061 66.646 21.7216C66.5532 21.6354 66.4969 21.526 66.477 21.3935H66.4472C66.4074 21.4912 66.3411 21.5824 66.2483 21.6669C66.1555 21.7498 66.037 21.8161 65.8928 21.8658C65.7503 21.9138 65.5846 21.9337 65.3957 21.9254C65.1869 21.9171 64.9988 21.8699 64.8314 21.7837C64.664 21.6976 64.5207 21.5782 64.4014 21.4258C64.2837 21.2733 64.1934 21.0927 64.1304 20.8839C64.0674 20.6751 64.0359 20.4431 64.0359 20.1879C64.0359 19.9426 64.0716 19.723 64.1428 19.5291C64.2141 19.3336 64.311 19.1654 64.4337 19.0245C64.558 18.882 64.7005 18.7693 64.8612 18.6864C65.022 18.6036 65.1918 18.5514 65.3708 18.5298C65.5448 18.5099 65.7047 18.5149 65.8506 18.5447C65.9964 18.5746 66.1174 18.6201 66.2135 18.6815C66.3113 18.7428 66.3726 18.8099 66.3974 18.8828H66.4298V18.6044H67.0413V20.9112C67.0413 21.0421 67.0752 21.1532 67.1432 21.2443C67.2128 21.3355 67.3114 21.381 67.439 21.381C67.5898 21.381 67.7075 21.3255 67.792 21.2145C67.8781 21.1035 67.9386 20.9328 67.9734 20.7024C68.0099 20.4721 68.0281 20.1771 68.0281 19.8175C68.0281 19.5656 67.9942 19.3286 67.9262 19.1065C67.8599 18.8828 67.7613 18.6806 67.6304 18.5C67.5011 18.3177 67.342 18.1611 67.1531 18.0302C66.9642 17.8993 66.7488 17.7982 66.5068 17.7269C66.2665 17.6557 66.0005 17.62 65.7089 17.62C65.3128 17.62 64.9607 17.6813 64.6524 17.804C64.3442 17.925 64.084 18.0998 63.8719 18.3285C63.6614 18.5572 63.5015 18.8314 63.3921 19.1513C63.2844 19.4695 63.2305 19.8266 63.2305 20.2227C63.2305 20.6353 63.2861 21.0015 63.3971 21.3214C63.5081 21.6396 63.6722 21.908 63.8893 22.1268C64.1064 22.3455 64.3748 22.5112 64.6947 22.6239C65.0145 22.7383 65.3832 22.7955 65.8009 22.7955C65.9865 22.7955 66.1688 22.7789 66.3477 22.7457C66.5267 22.7143 66.6858 22.6778 66.825 22.6364C66.9659 22.5966 67.0711 22.5643 67.1407 22.5394L67.3147 23.0838C67.212 23.1319 67.0752 23.1791 66.9045 23.2255C66.7355 23.2719 66.5516 23.31 66.3527 23.3398C66.1555 23.3697 65.9608 23.3846 65.7685 23.3846ZM65.5398 21.3164C65.7553 21.3164 65.9285 21.2733 66.0594 21.1871C66.192 21.101 66.2872 20.9725 66.3452 20.8018C66.4049 20.6295 66.4347 20.4141 66.4347 20.1555C66.4331 19.9036 66.4008 19.7031 66.3378 19.554C66.2765 19.4032 66.1804 19.2955 66.0494 19.2308C65.9202 19.1645 65.7536 19.1314 65.5498 19.1314C65.3625 19.1314 65.2026 19.177 65.07 19.2681C64.9391 19.3593 64.8389 19.4827 64.7692 19.6385C64.7013 19.7943 64.6665 19.9674 64.6648 20.158C64.6665 20.3585 64.6947 20.5475 64.7494 20.7248C64.8057 20.9004 64.8969 21.043 65.0228 21.1523C65.1504 21.2617 65.3228 21.3164 65.5398 21.3164ZM71.0239 22.0771C70.6477 22.0771 70.3238 21.9967 70.052 21.8359C69.7819 21.6735 69.5731 21.4457 69.4256 21.1523C69.2797 20.8574 69.2068 20.5118 69.2068 20.1158C69.2068 19.7247 69.2797 19.38 69.4256 19.0817C69.5731 18.7834 69.7785 18.5505 70.042 18.3832C70.3072 18.2158 70.6171 18.1321 70.9717 18.1321C71.1872 18.1321 71.396 18.1677 71.5981 18.239C71.8003 18.3103 71.9818 18.4221 72.1425 18.5746C72.3033 18.727 72.4301 18.9251 72.5229 19.1687C72.6157 19.4106 72.6621 19.7048 72.6621 20.0511V20.3146H69.6269V19.7578H71.9337C71.9337 19.5623 71.894 19.3891 71.8144 19.2383C71.7349 19.0858 71.623 18.9657 71.4788 18.8778C71.3363 18.79 71.1689 18.7461 70.9767 18.7461C70.7679 18.7461 70.5856 18.7975 70.4298 18.9002C70.2757 19.0013 70.1564 19.1339 70.0719 19.2979C69.989 19.4603 69.9476 19.6368 69.9476 19.8274V20.2624C69.9476 20.5176 69.9923 20.7347 70.0818 20.9137C70.173 21.0927 70.2997 21.2294 70.4621 21.3239C70.6245 21.4167 70.8143 21.4631 71.0314 21.4631C71.1722 21.4631 71.3007 21.4432 71.4167 21.4034C71.5327 21.362 71.633 21.3007 71.7175 21.2195C71.802 21.1383 71.8666 21.038 71.9114 20.9187L72.6148 21.0455C72.5585 21.2526 72.4574 21.4341 72.3116 21.5898C72.1674 21.744 71.9859 21.8641 71.7672 21.9503C71.5501 22.0348 71.3023 22.0771 71.0239 22.0771ZM73.3871 22V18.1818H74.1005V18.8033H74.1478C74.2273 18.5928 74.3574 18.4287 74.538 18.3111C74.7187 18.1918 74.9349 18.1321 75.1868 18.1321C75.442 18.1321 75.6558 18.1918 75.8282 18.3111C76.0022 18.4304 76.1306 18.5945 76.2135 18.8033H76.2532C76.3444 18.5994 76.4894 18.437 76.6882 18.3161C76.8871 18.1934 77.1241 18.1321 77.3992 18.1321C77.7455 18.1321 78.0281 18.2406 78.2468 18.4577C78.4672 18.6748 78.5774 19.0021 78.5774 19.4396V22H77.8342V19.5092C77.8342 19.2507 77.7638 19.0634 77.6229 18.9474C77.482 18.8314 77.3138 18.7734 77.1183 18.7734C76.8763 18.7734 76.6882 18.848 76.554 18.9972C76.4198 19.1446 76.3527 19.3344 76.3527 19.5664V22H75.6119V19.462C75.6119 19.2549 75.5473 19.0883 75.418 18.9624C75.2887 18.8364 75.1205 18.7734 74.9134 18.7734C74.7725 18.7734 74.6424 18.8107 74.5231 18.8853C74.4055 18.9582 74.3102 19.0601 74.2372 19.1911C74.166 19.322 74.1304 19.4736 74.1304 19.646V22H73.3871ZM80.5851 22.0845C80.3432 22.0845 80.1244 22.0398 79.9289 21.9503C79.7333 21.8591 79.5784 21.7274 79.4641 21.555C79.3514 21.3827 79.295 21.1714 79.295 20.9212C79.295 20.7057 79.3364 20.5284 79.4193 20.3892C79.5022 20.25 79.614 20.1398 79.7549 20.0586C79.8958 19.9774 80.0532 19.9161 80.2272 19.8746C80.4012 19.8332 80.5785 19.8017 80.7592 19.7802C80.9878 19.7537 81.1735 19.7321 81.316 19.7156C81.4585 19.6973 81.5621 19.6683 81.6267 19.6286C81.6913 19.5888 81.7236 19.5241 81.7236 19.4347V19.4173C81.7236 19.2002 81.6623 19.032 81.5397 18.9126C81.4187 18.7933 81.2381 18.7337 80.9978 18.7337C80.7476 18.7337 80.5503 18.7892 80.4062 18.9002C80.2636 19.0096 80.165 19.1314 80.1104 19.2656L79.4118 19.1065C79.4947 18.8745 79.6157 18.6873 79.7748 18.5447C79.9355 18.4006 80.1203 18.2962 80.3291 18.2315C80.5379 18.1652 80.7575 18.1321 80.9878 18.1321C81.1403 18.1321 81.3019 18.1503 81.4726 18.1868C81.6449 18.2216 81.8057 18.2862 81.9548 18.3807C82.1056 18.4751 82.2291 18.6102 82.3252 18.7859C82.4213 18.9599 82.4694 19.1861 82.4694 19.4645V22H81.7435V21.478H81.7137C81.6656 21.5741 81.5935 21.6686 81.4974 21.7614C81.4013 21.8542 81.2779 21.9312 81.127 21.9925C80.9762 22.0539 80.7956 22.0845 80.5851 22.0845ZM80.7467 21.4879C80.9522 21.4879 81.1279 21.4473 81.2737 21.3661C81.4212 21.2849 81.5331 21.1789 81.6093 21.0479C81.6872 20.9154 81.7261 20.7737 81.7261 20.6229V20.1307C81.6996 20.1572 81.6482 20.1821 81.572 20.2053C81.4974 20.2268 81.4121 20.2459 81.316 20.2624C81.2199 20.2773 81.1262 20.2914 81.0351 20.3047C80.9439 20.3163 80.8677 20.3262 80.8064 20.3345C80.6622 20.3527 80.5305 20.3834 80.4111 20.4265C80.2935 20.4696 80.199 20.5317 80.1278 20.6129C80.0582 20.6925 80.0234 20.7985 80.0234 20.9311C80.0234 21.1151 80.0913 21.2543 80.2272 21.3487C80.3631 21.4415 80.5363 21.4879 80.7467 21.4879ZM83.3597 22V18.1818H84.103V22H83.3597ZM83.7351 17.5927C83.6058 17.5927 83.4948 17.5496 83.402 17.4634C83.3108 17.3756 83.2653 17.2712 83.2653 17.1502C83.2653 17.0276 83.3108 16.9232 83.402 16.837C83.4948 16.7492 83.6058 16.7053 83.7351 16.7053C83.8643 16.7053 83.9745 16.7492 84.0657 16.837C84.1585 16.9232 84.2049 17.0276 84.2049 17.1502C84.2049 17.2712 84.1585 17.3756 84.0657 17.4634C83.9745 17.5496 83.8643 17.5927 83.7351 17.5927ZM85.7465 16.9091V22H85.0032V16.9091H85.7465ZM87.1365 22.0472C87.0006 22.0472 86.8838 21.9992 86.786 21.9031C86.6882 21.8053 86.6393 21.6876 86.6393 21.5501C86.6393 21.4142 86.6882 21.2982 86.786 21.2021C86.8838 21.1043 87.0006 21.0554 87.1365 21.0554C87.2724 21.0554 87.3892 21.1043 87.487 21.2021C87.5848 21.2982 87.6336 21.4142 87.6336 21.5501C87.6336 21.6412 87.6104 21.7249 87.564 21.8011C87.5193 21.8757 87.4596 21.9354 87.3851 21.9801C87.3105 22.0249 87.2276 22.0472 87.1365 22.0472ZM90.1379 22.0771C89.7683 22.0771 89.4501 21.9934 89.1833 21.826C88.9182 21.657 88.7143 21.4241 88.5718 21.1275C88.4293 20.8308 88.3581 20.4911 88.3581 20.1083C88.3581 19.7205 88.431 19.3783 88.5768 19.0817C88.7226 18.7834 88.9281 18.5505 89.1933 18.3832C89.4584 18.2158 89.7708 18.1321 90.1304 18.1321C90.4204 18.1321 90.679 18.186 90.906 18.2937C91.133 18.3997 91.3161 18.5489 91.4554 18.7411C91.5962 18.9334 91.6799 19.1579 91.7064 19.4148H90.9831C90.9433 19.2358 90.8521 19.0817 90.7096 18.9524C90.5688 18.8232 90.3798 18.7585 90.1429 18.7585C89.9357 18.7585 89.7542 18.8132 89.5985 18.9226C89.4443 19.0303 89.3242 19.1844 89.238 19.3849C89.1518 19.5838 89.1088 19.8191 89.1088 20.0909C89.1088 20.3693 89.151 20.6096 89.2355 20.8118C89.3201 21.014 89.4394 21.1706 89.5935 21.2816C89.7493 21.3926 89.9324 21.4482 90.1429 21.4482C90.2837 21.4482 90.4113 21.4225 90.5257 21.3711C90.6417 21.3181 90.7386 21.2427 90.8165 21.1449C90.896 21.0471 90.9516 20.9295 90.9831 20.7919H91.7064C91.6799 21.0388 91.5995 21.2592 91.4653 21.4531C91.3311 21.647 91.1513 21.7995 90.9259 21.9105C90.7022 22.0215 90.4395 22.0771 90.1379 22.0771ZM94.0099 22.0771C93.652 22.0771 93.3396 21.995 93.0728 21.831C92.806 21.6669 92.5988 21.4374 92.4513 21.1424C92.3038 20.8474 92.2301 20.5027 92.2301 20.1083C92.2301 19.7122 92.3038 19.3659 92.4513 19.0692C92.5988 18.7726 92.806 18.5423 93.0728 18.3782C93.3396 18.2141 93.652 18.1321 94.0099 18.1321C94.3679 18.1321 94.6803 18.2141 94.9471 18.3782C95.2139 18.5423 95.421 18.7726 95.5685 19.0692C95.716 19.3659 95.7898 19.7122 95.7898 20.1083C95.7898 20.5027 95.716 20.8474 95.5685 21.1424C95.421 21.4374 95.2139 21.6669 94.9471 21.831C94.6803 21.995 94.3679 22.0771 94.0099 22.0771ZM94.0124 21.4531C94.2444 21.4531 94.4367 21.3918 94.5891 21.2692C94.7416 21.1465 94.8543 20.9833 94.9272 20.7795C95.0018 20.5756 95.0391 20.3511 95.0391 20.1058C95.0391 19.8622 95.0018 19.6385 94.9272 19.4347C94.8543 19.2292 94.7416 19.0643 94.5891 18.94C94.4367 18.8157 94.2444 18.7536 94.0124 18.7536C93.7788 18.7536 93.5849 18.8157 93.4307 18.94C93.2783 19.0643 93.1648 19.2292 93.0902 19.4347C93.0173 19.6385 92.9808 19.8622 92.9808 20.1058C92.9808 20.3511 93.0173 20.5756 93.0902 20.7795C93.1648 20.9833 93.2783 21.1465 93.4307 21.2692C93.5849 21.3918 93.7788 21.4531 94.0124 21.4531ZM96.5198 22V18.1818H97.2332V18.8033H97.2804C97.36 18.5928 97.4901 18.4287 97.6707 18.3111C97.8513 18.1918 98.0676 18.1321 98.3195 18.1321C98.5747 18.1321 98.7885 18.1918 98.9608 18.3111C99.1348 18.4304 99.2633 18.5945 99.3461 18.8033H99.3859C99.477 18.5994 99.622 18.437 99.8209 18.3161C100.02 18.1934 100.257 18.1321 100.532 18.1321C100.878 18.1321 101.161 18.2406 101.379 18.4577C101.6 18.6748 101.71 19.0021 101.71 19.4396V22H100.967V19.5092C100.967 19.2507 100.896 19.0634 100.756 18.9474C100.615 18.8314 100.446 18.7734 100.251 18.7734C100.009 18.7734 99.8209 18.848 99.6867 18.9972C99.5524 19.1446 99.4853 19.3344 99.4853 19.5664V22H98.7446V19.462C98.7446 19.2549 98.6799 19.0883 98.5507 18.9624C98.4214 18.8364 98.2532 18.7734 98.046 18.7734C97.9052 18.7734 97.7751 18.8107 97.6558 18.8853C97.5381 18.9582 97.4428 19.0601 97.3699 19.1911C97.2986 19.322 97.263 19.4736 97.263 19.646V22H96.5198Z" fill="#A09FA6"/>
<rect x="168.048" y="5.69001" width="12.6199" height="12.6199" rx="2.32472" fill="#3E63DD"/>
<path d="M177.458 9.67517L173.196 13.9372L171.258 11.9999" stroke="white" stroke-width="1.32841" stroke-linecap="round" stroke-linejoin="round"/>
<rect x="168.048" y="5.69001" width="12.6199" height="12.6199" rx="2.32472" stroke="#3E63DD" stroke-width="0.664207"/>
<rect x="0.5" y="28" width="24" height="24" rx="4" fill="#232326"/>
<path d="M12.5 39.9999C13.7426 39.9999 14.75 38.9925 14.75 37.7499C14.75 36.5072 13.7426 35.4999 12.5 35.4999C11.2574 35.4999 10.25 36.5072 10.25 37.7499C10.25 38.9925 11.2574 39.9999 12.5 39.9999Z" stroke="#EDEDEF" stroke-linecap="round" stroke-linejoin="round"/>
<path d="M16.5 44.5C16.1214 43.7654 15.5479 43.1493 14.8423 42.7192C14.1367 42.2891 13.3264 42.0615 12.5 42.0615C11.6736 42.0615 10.8633 42.2891 10.1577 42.7192C9.45209 43.1493 8.87857 43.7654 8.5 44.5" stroke="#EDEDEF" stroke-linecap="round" stroke-linejoin="round"/>
<path d="M31.772 39H30.7237L33.0792 32.4545H34.2202L36.5756 39H35.5273L33.6768 33.6435H33.6257L31.772 39ZM31.9478 36.4368H35.3484V37.2678H31.9478V36.4368ZM38.3001 32.4545V39H37.3445V32.4545H38.3001ZM41.6019 39.0991C41.1182 39.0991 40.7017 38.9957 40.3522 38.7891C40.0049 38.5803 39.7365 38.2873 39.5468 37.9102C39.3593 37.5309 39.2656 37.0866 39.2656 36.5774C39.2656 36.0746 39.3593 35.6314 39.5468 35.2479C39.7365 34.8643 40.0007 34.565 40.3394 34.3498C40.6804 34.1346 41.0788 34.027 41.5348 34.027C41.8117 34.027 42.0802 34.0728 42.3402 34.1644C42.6001 34.256 42.8334 34.3999 43.0401 34.5959C43.2468 34.7919 43.4098 35.0465 43.5291 35.3597C43.6484 35.6708 43.7081 36.049 43.7081 36.4943V36.8331H39.8057V36.1172H42.7716C42.7716 35.8658 42.7205 35.6431 42.6182 35.4492C42.5159 35.2532 42.3721 35.0987 42.1867 34.9858C42.0035 34.8729 41.7883 34.8164 41.5412 34.8164C41.2727 34.8164 41.0383 34.8825 40.838 35.0146C40.6399 35.1445 40.4865 35.315 40.3778 35.5259C40.2713 35.7347 40.218 35.9616 40.218 36.2067V36.766C40.218 37.0941 40.2755 37.3732 40.3906 37.6033C40.5078 37.8335 40.6708 38.0092 40.8796 38.1307C41.0884 38.25 41.3323 38.3097 41.6115 38.3097C41.7926 38.3097 41.9577 38.2841 42.1068 38.233C42.256 38.1797 42.3849 38.1009 42.4936 37.9964C42.6022 37.892 42.6853 37.7631 42.7429 37.6097L43.6473 37.7727C43.5749 38.0391 43.4449 38.2724 43.2574 38.4727C43.072 38.6708 42.8387 38.8253 42.5575 38.9361C42.2784 39.0447 41.9598 39.0991 41.6019 39.0991ZM45.3087 34.0909L46.3922 36.0021L47.4852 34.0909H48.5303L46.9994 36.5455L48.5431 39H47.498L46.3922 37.1655L45.2895 39H44.2412L45.7689 36.5455L44.2604 34.0909H45.3087ZM51.7708 39V32.4545H54.1678C54.6323 32.4545 55.0168 32.5312 55.3215 32.6847C55.6262 32.8359 55.8542 33.0415 56.0055 33.3015C56.1568 33.5593 56.2324 33.8501 56.2324 34.174C56.2324 34.4467 56.1823 34.6768 56.0822 34.8643C55.982 35.0497 55.8478 35.1989 55.6795 35.3118C55.5133 35.4226 55.3301 35.5036 55.1298 35.5547V35.6186C55.3471 35.6293 55.5591 35.6996 55.7658 35.8295C55.9746 35.9574 56.1472 36.1396 56.2835 36.3761C56.4199 36.6126 56.4881 36.9002 56.4881 37.239C56.4881 37.5735 56.4092 37.8739 56.2516 38.1403C56.096 38.4045 55.8553 38.6143 55.5293 38.7699C55.2033 38.9233 54.7867 39 54.2796 39H51.7708ZM52.7583 38.1531H54.1838C54.6568 38.1531 54.9955 38.0614 55.2001 37.8782C55.4046 37.695 55.5069 37.4659 55.5069 37.1911C55.5069 36.9844 55.4547 36.7947 55.3503 36.6222C55.2459 36.4496 55.0967 36.3121 54.9029 36.2099C54.7111 36.1076 54.4831 36.0565 54.2189 36.0565H52.7583V38.1531ZM52.7583 35.2862H54.0815C54.3031 35.2862 54.5023 35.2436 54.6791 35.1584C54.8581 35.0732 54.9998 34.9538 55.1042 34.8004C55.2107 34.6449 55.264 34.4616 55.264 34.2507C55.264 33.9801 55.1692 33.7532 54.9796 33.57C54.7899 33.3867 54.4991 33.2951 54.107 33.2951H52.7583V35.2862ZM57.4831 39V34.0909H58.4067V34.8707H58.4579C58.5474 34.6065 58.705 34.3988 58.9309 34.2475C59.1589 34.0941 59.4167 34.0174 59.7043 34.0174C59.764 34.0174 59.8343 34.0195 59.9153 34.0238C59.9984 34.0281 60.0633 34.0334 60.1102 34.0398V34.9538C60.0719 34.9432 60.0037 34.9315 59.9057 34.9187C59.8077 34.9038 59.7097 34.8963 59.6116 34.8963C59.3858 34.8963 59.1844 34.9442 59.0076 35.0401C58.8329 35.1339 58.6944 35.2649 58.5921 35.4332C58.4898 35.5994 58.4387 35.7891 58.4387 36.0021V39H57.4831ZM62.7296 39.0991C62.2694 39.0991 61.8677 38.9936 61.5247 38.7827C61.1817 38.5717 60.9153 38.2766 60.7257 37.8974C60.5361 37.5181 60.4413 37.0749 60.4413 36.5678C60.4413 36.0586 60.5361 35.6133 60.7257 35.2319C60.9153 34.8505 61.1817 34.5543 61.5247 34.3434C61.8677 34.1325 62.2694 34.027 62.7296 34.027C63.1898 34.027 63.5915 34.1325 63.9345 34.3434C64.2775 34.5543 64.5439 34.8505 64.7335 35.2319C64.9231 35.6133 65.018 36.0586 65.018 36.5678C65.018 37.0749 64.9231 37.5181 64.7335 37.8974C64.5439 38.2766 64.2775 38.5717 63.9345 38.7827C63.5915 38.9936 63.1898 39.0991 62.7296 39.0991ZM62.7328 38.2969C63.0311 38.2969 63.2783 38.218 63.4743 38.0604C63.6703 37.9027 63.8152 37.6928 63.9089 37.4308C64.0048 37.1687 64.0528 36.88 64.0528 36.5646C64.0528 36.2514 64.0048 35.9638 63.9089 35.7017C63.8152 35.4375 63.6703 35.2255 63.4743 35.0657C63.2783 34.9059 63.0311 34.826 62.7328 34.826C62.4324 34.826 62.1831 34.9059 61.9849 35.0657C61.7889 35.2255 61.643 35.4375 61.5471 35.7017C61.4533 35.9638 61.4065 36.2514 61.4065 36.5646C61.4065 36.88 61.4533 37.1687 61.5471 37.4308C61.643 37.6928 61.7889 37.9027 61.9849 38.0604C62.1831 38.218 62.4324 38.2969 62.7328 38.2969ZM66.8999 39L65.4553 34.0909H66.4428L67.4048 37.696H67.4528L68.418 34.0909H69.4055L70.3644 37.68H70.4123L71.3679 34.0909H72.3555L70.9141 39H69.9393L68.9421 35.4556H68.8686L67.8715 39H66.8999ZM74.1183 36.0852V39H73.1627V34.0909H74.08V34.8899H74.1407C74.2536 34.63 74.4305 34.4212 74.6712 34.2635C74.9141 34.1058 75.2199 34.027 75.5885 34.027C75.923 34.027 76.216 34.0973 76.4674 34.2379C76.7188 34.3764 76.9138 34.5831 77.0523 34.858C77.1908 35.1328 77.26 35.4727 77.26 35.8775V39H76.3044V35.9925C76.3044 35.6367 76.2117 35.3587 76.0264 35.1584C75.841 34.956 75.5864 34.8548 75.2625 34.8548C75.0409 34.8548 74.8438 34.9027 74.6712 34.9986C74.5008 35.0945 74.3655 35.2351 74.2653 35.4205C74.1673 35.6037 74.1183 35.8253 74.1183 36.0852Z" fill="#EDEDEF"/>
<path d="M32.1108 50.0845C31.8688 50.0845 31.6501 50.0398 31.4545 49.9503C31.259 49.8591 31.104 49.7274 30.9897 49.555C30.877 49.3827 30.8207 49.1714 30.8207 48.9212C30.8207 48.7057 30.8621 48.5284 30.945 48.3892C31.0278 48.25 31.1397 48.1398 31.2805 48.0586C31.4214 47.9774 31.5788 47.9161 31.7528 47.8746C31.9268 47.8332 32.1042 47.8017 32.2848 47.7802C32.5135 47.7537 32.6991 47.7321 32.8416 47.7156C32.9841 47.6973 33.0877 47.6683 33.1523 47.6286C33.217 47.5888 33.2493 47.5241 33.2493 47.4347V47.4173C33.2493 47.2002 33.188 47.032 33.0653 46.9126C32.9444 46.7933 32.7637 46.7337 32.5234 46.7337C32.2732 46.7337 32.076 46.7892 31.9318 46.9002C31.7893 47.0096 31.6907 47.1314 31.636 47.2656L30.9375 47.1065C31.0204 46.8745 31.1413 46.6873 31.3004 46.5447C31.4612 46.4006 31.646 46.2962 31.8548 46.2315C32.0636 46.1652 32.2831 46.1321 32.5135 46.1321C32.666 46.1321 32.8275 46.1503 32.9982 46.1868C33.1706 46.2216 33.3313 46.2862 33.4805 46.3807C33.6313 46.4751 33.7547 46.6102 33.8509 46.7859C33.947 46.9599 33.995 47.1861 33.995 47.4645V50H33.2692V49.478H33.2393C33.1913 49.5741 33.1192 49.6686 33.0231 49.7614C32.927 49.8542 32.8035 49.9312 32.6527 49.9925C32.5019 50.0539 32.3213 50.0845 32.1108 50.0845ZM32.2724 49.4879C32.4779 49.4879 32.6535 49.4473 32.7994 49.3661C32.9469 49.2849 33.0587 49.1789 33.1349 49.0479C33.2128 48.9154 33.2518 48.7737 33.2518 48.6229V48.1307C33.2253 48.1572 33.1739 48.1821 33.0977 48.2053C33.0231 48.2268 32.9377 48.2459 32.8416 48.2624C32.7455 48.2773 32.6519 48.2914 32.5607 48.3047C32.4696 48.3163 32.3933 48.3262 32.332 48.3345C32.1879 48.3527 32.0561 48.3834 31.9368 48.4265C31.8191 48.4696 31.7247 48.5317 31.6534 48.6129C31.5838 48.6925 31.549 48.7985 31.549 48.9311C31.549 49.1151 31.617 49.2543 31.7528 49.3487C31.8887 49.4415 32.0619 49.4879 32.2724 49.4879ZM35.6286 44.9091V50H34.8854V44.9091H35.6286ZM38.1745 50.0771C37.7983 50.0771 37.4743 49.9967 37.2025 49.8359C36.9324 49.6735 36.7236 49.4457 36.5761 49.1523C36.4303 48.8574 36.3574 48.5118 36.3574 48.1158C36.3574 47.7247 36.4303 47.38 36.5761 47.0817C36.7236 46.7834 36.9291 46.5505 37.1926 46.3832C37.4578 46.2158 37.7677 46.1321 38.1223 46.1321C38.3377 46.1321 38.5465 46.1677 38.7487 46.239C38.9509 46.3103 39.1324 46.4221 39.2931 46.5746C39.4539 46.727 39.5806 46.9251 39.6734 47.1687C39.7662 47.4106 39.8126 47.7048 39.8126 48.0511V48.3146H36.7775V47.7578H39.0843C39.0843 47.5623 39.0445 47.3891 38.965 47.2383C38.8854 47.0858 38.7736 46.9657 38.6294 46.8778C38.4869 46.79 38.3195 46.7461 38.1273 46.7461C37.9185 46.7461 37.7362 46.7975 37.5804 46.9002C37.4263 47.0013 37.307 47.1339 37.2224 47.2979C37.1396 47.4603 37.0981 47.6368 37.0981 47.8274V48.2624C37.0981 48.5176 37.1429 48.7347 37.2324 48.9137C37.3235 49.0927 37.4503 49.2294 37.6127 49.3239C37.7751 49.4167 37.9649 49.4631 38.182 49.4631C38.3228 49.4631 38.4512 49.4432 38.5673 49.4034C38.6833 49.362 38.7835 49.3007 38.868 49.2195C38.9525 49.1383 39.0172 49.038 39.0619 48.9187L39.7654 49.0455C39.7091 49.2526 39.608 49.4341 39.4621 49.5898C39.318 49.744 39.1365 49.8641 38.9177 49.9503C38.7007 50.0348 38.4529 50.0771 38.1745 50.0771ZM41.0354 46.1818L41.8781 47.6683L42.7283 46.1818H43.5411L42.3504 48.0909L43.5511 50H42.7382L41.8781 48.5732L41.0205 50H40.2052L41.3934 48.0909L40.2201 46.1818H41.0354ZM44.2643 50V44.9091H45.0075V46.8008H45.0523C45.0954 46.7212 45.1575 46.6293 45.2387 46.5249C45.3199 46.4205 45.4326 46.3293 45.5768 46.2514C45.721 46.1719 45.9115 46.1321 46.1485 46.1321C46.4568 46.1321 46.7319 46.21 46.9738 46.3658C47.2158 46.5215 47.4055 46.7461 47.5431 47.0394C47.6823 47.3327 47.7519 47.6857 47.7519 48.0984C47.7519 48.511 47.6831 48.8648 47.5455 49.1598C47.408 49.4531 47.2191 49.6793 46.9788 49.8384C46.7385 49.9959 46.4642 50.0746 46.156 50.0746C45.924 50.0746 45.7342 50.0356 45.5867 49.9577C45.4409 49.8799 45.3266 49.7887 45.2437 49.6843C45.1608 49.5799 45.097 49.4871 45.0523 49.4059H44.9901V50H44.2643ZM44.9926 48.0909C44.9926 48.3594 45.0316 48.5947 45.1095 48.7969C45.1874 48.9991 45.3 49.1573 45.4475 49.2717C45.595 49.3844 45.7757 49.4407 45.9894 49.4407C46.2115 49.4407 46.3971 49.3819 46.5463 49.2642C46.6954 49.1449 46.8081 48.9833 46.8843 48.7795C46.9622 48.5756 47.0012 48.3461 47.0012 48.0909C47.0012 47.839 46.963 47.6128 46.8868 47.4123C46.8122 47.2118 46.6995 47.0535 46.5487 46.9375C46.3996 46.8215 46.2132 46.7635 45.9894 46.7635C45.774 46.7635 45.5917 46.819 45.4426 46.93C45.2951 47.0411 45.1832 47.196 45.107 47.3949C45.0307 47.5937 44.9926 47.8258 44.9926 48.0909ZM48.4868 50V46.1818H49.2052V46.7884H49.245C49.3146 46.5829 49.4372 46.4213 49.6129 46.3036C49.7902 46.1843 49.9907 46.1246 50.2145 46.1246C50.2609 46.1246 50.3156 46.1263 50.3785 46.1296C50.4432 46.1329 50.4937 46.1371 50.5302 46.142V46.853C50.5003 46.8447 50.4473 46.8356 50.3711 46.8256C50.2948 46.814 50.2186 46.8082 50.1424 46.8082C49.9667 46.8082 49.8101 46.8455 49.6726 46.9201C49.5367 46.993 49.429 47.0949 49.3494 47.2259C49.2699 47.3551 49.2301 47.5026 49.2301 47.6683V50H48.4868ZM52.5453 50.0771C52.1874 50.0771 51.875 49.995 51.6082 49.831C51.3414 49.6669 51.1342 49.4374 50.9867 49.1424C50.8392 48.8474 50.7655 48.5027 50.7655 48.1083C50.7655 47.7122 50.8392 47.3659 50.9867 47.0692C51.1342 46.7726 51.3414 46.5423 51.6082 46.3782C51.875 46.2141 52.1874 46.1321 52.5453 46.1321C52.9033 46.1321 53.2157 46.2141 53.4825 46.3782C53.7493 46.5423 53.9564 46.7726 54.1039 47.0692C54.2514 47.3659 54.3252 47.7122 54.3252 48.1083C54.3252 48.5027 54.2514 48.8474 54.1039 49.1424C53.9564 49.4374 53.7493 49.6669 53.4825 49.831C53.2157 49.995 52.9033 50.0771 52.5453 50.0771ZM52.5478 49.4531C52.7798 49.4531 52.9721 49.3918 53.1245 49.2692C53.277 49.1465 53.3897 48.9833 53.4626 48.7795C53.5372 48.5756 53.5744 48.3511 53.5744 48.1058C53.5744 47.8622 53.5372 47.6385 53.4626 47.4347C53.3897 47.2292 53.277 47.0643 53.1245 46.94C52.9721 46.8157 52.7798 46.7536 52.5478 46.7536C52.3141 46.7536 52.1203 46.8157 51.9661 46.94C51.8137 47.0643 51.7002 47.2292 51.6256 47.4347C51.5527 47.6385 51.5162 47.8622 51.5162 48.1058C51.5162 48.3511 51.5527 48.5756 51.6256 48.7795C51.7002 48.9833 51.8137 49.1465 51.9661 49.2692C52.1203 49.3918 52.3141 49.4531 52.5478 49.4531ZM55.7667 50L54.6431 46.1818H55.4112L56.1595 48.9858H56.1968L56.9475 46.1818H57.7156L58.4613 48.9734H58.4986L59.2419 46.1818H60.01L58.8889 50H58.1307L57.3551 47.2433H57.298L56.5224 50H55.7667ZM61.3589 47.733V50H60.6157V46.1818H61.3291V46.8033H61.3763C61.4642 46.6011 61.6017 46.4387 61.789 46.3161C61.9779 46.1934 62.2157 46.1321 62.5024 46.1321C62.7626 46.1321 62.9904 46.1868 63.186 46.2962C63.3815 46.4039 63.5332 46.5646 63.6409 46.7784C63.7486 46.9922 63.8025 47.2565 63.8025 47.5714V50H63.0592V47.6609C63.0592 47.3841 62.9871 47.1679 62.843 47.0121C62.6988 46.8546 62.5007 46.7759 62.2488 46.7759C62.0765 46.7759 61.9232 46.8132 61.789 46.8878C61.6564 46.9624 61.5512 47.0717 61.4733 47.2159C61.3971 47.3584 61.3589 47.5308 61.3589 47.733ZM67.7646 51.3846C67.2509 51.3846 66.7952 51.3142 66.3974 51.1733C66.0014 51.0341 65.6674 50.8286 65.3957 50.5568C65.1239 50.2867 64.9176 49.9553 64.7767 49.5625C64.6358 49.1697 64.5654 48.7215 64.5654 48.2177C64.5654 47.7272 64.6367 47.2863 64.7792 46.8952C64.9217 46.5041 65.1289 46.171 65.4006 45.896C65.6741 45.6192 66.0063 45.4079 66.3974 45.2621C66.7885 45.1162 67.2327 45.0433 67.7298 45.0433C68.2054 45.0433 68.6247 45.1179 68.9876 45.267C69.3506 45.4162 69.6555 45.6209 69.9024 45.881C70.151 46.1412 70.3383 46.4395 70.4642 46.7759C70.5902 47.1123 70.6531 47.4678 70.6531 47.8423C70.6531 48.1042 70.6366 48.3602 70.6034 48.6104C70.5703 48.859 70.5089 49.0844 70.4195 49.2866C70.3316 49.4871 70.204 49.6478 70.0366 49.7688C69.8709 49.8881 69.6555 49.9503 69.3903 49.9553C69.2495 49.9602 69.1128 49.9437 68.9802 49.9055C68.8476 49.8674 68.7349 49.8061 68.6421 49.7216C68.5493 49.6354 68.493 49.526 68.4731 49.3935H68.4433C68.4035 49.4912 68.3372 49.5824 68.2444 49.6669C68.1516 49.7498 68.0331 49.8161 67.8889 49.8658C67.7464 49.9138 67.5807 49.9337 67.3918 49.9254C67.183 49.9171 66.9949 49.8699 66.8275 49.7837C66.6601 49.6976 66.5168 49.5782 66.3974 49.4258C66.2798 49.2733 66.1895 49.0927 66.1265 48.8839C66.0635 48.6751 66.032 48.4431 66.032 48.1879C66.032 47.9426 66.0677 47.723 66.1389 47.5291C66.2102 47.3336 66.3071 47.1654 66.4298 47.0245C66.554 46.882 66.6966 46.7693 66.8573 46.6864C67.0181 46.6036 67.1879 46.5514 67.3669 46.5298C67.5409 46.5099 67.7008 46.5149 67.8467 46.5447C67.9925 46.5746 68.1135 46.6201 68.2096 46.6815C68.3074 46.7428 68.3687 46.8099 68.3935 46.8828H68.4259V46.6044H69.0374V48.9112C69.0374 49.0421 69.0713 49.1532 69.1393 49.2443C69.2089 49.3355 69.3075 49.381 69.4351 49.381C69.5859 49.381 69.7036 49.3255 69.7881 49.2145C69.8742 49.1035 69.9347 48.9328 69.9695 48.7024C70.006 48.4721 70.0242 48.1771 70.0242 47.8175C70.0242 47.5656 69.9902 47.3286 69.9223 47.1065C69.856 46.8828 69.7574 46.6806 69.6265 46.5C69.4972 46.3177 69.3381 46.1611 69.1492 46.0302C68.9603 45.8993 68.7449 45.7982 68.5029 45.7269C68.2626 45.6557 67.9966 45.62 67.705 45.62C67.3089 45.62 66.9567 45.6813 66.6485 45.804C66.3403 45.925 66.0801 46.0998 65.868 46.3285C65.6575 46.5572 65.4976 46.8314 65.3882 47.1513C65.2805 47.4695 65.2266 47.8266 65.2266 48.2227C65.2266 48.6353 65.2822 49.0015 65.3932 49.3214C65.5042 49.6396 65.6683 49.908 65.8854 50.1268C66.1025 50.3455 66.3709 50.5112 66.6908 50.6239C67.0106 50.7383 67.3793 50.7955 67.7969 50.7955C67.9826 50.7955 68.1648 50.7789 68.3438 50.7457C68.5228 50.7143 68.6819 50.6778 68.8211 50.6364C68.962 50.5966 69.0672 50.5643 69.1368 50.5394L69.3108 51.0838C69.2081 51.1319 69.0713 51.1791 68.9006 51.2255C68.7316 51.2719 68.5477 51.31 68.3488 51.3398C68.1516 51.3697 67.9569 51.3846 67.7646 51.3846ZM67.5359 49.3164C67.7514 49.3164 67.9246 49.2733 68.0555 49.1871C68.188 49.101 68.2833 48.9725 68.3413 48.8018C68.401 48.6295 68.4308 48.4141 68.4308 48.1555C68.4292 47.9036 68.3969 47.7031 68.3339 47.554C68.2726 47.4032 68.1764 47.2955 68.0455 47.2308C67.9163 47.1645 67.7497 47.1314 67.5459 47.1314C67.3586 47.1314 67.1987 47.177 67.0661 47.2681C66.9352 47.3593 66.8349 47.4827 66.7653 47.6385C66.6974 47.7943 66.6626 47.9674 66.6609 48.158C66.6626 48.3585 66.6908 48.5475 66.7455 48.7248C66.8018 48.9004 66.8929 49.043 67.0189 49.1523C67.1465 49.2617 67.3188 49.3164 67.5359 49.3164ZM73.02 50.0771C72.6438 50.0771 72.3199 49.9967 72.0481 49.8359C71.778 49.6735 71.5691 49.4457 71.4217 49.1523C71.2758 48.8574 71.2029 48.5118 71.2029 48.1158C71.2029 47.7247 71.2758 47.38 71.4217 47.0817C71.5691 46.7834 71.7746 46.5505 72.0381 46.3832C72.3033 46.2158 72.6132 46.1321 72.9678 46.1321C73.1833 46.1321 73.3921 46.1677 73.5942 46.239C73.7964 46.3103 73.9779 46.4221 74.1386 46.5746C74.2994 46.727 74.4262 46.9251 74.519 47.1687C74.6118 47.4106 74.6582 47.7048 74.6582 48.0511V48.3146H71.623V47.7578H73.9298C73.9298 47.5623 73.8901 47.3891 73.8105 47.2383C73.731 47.0858 73.6191 46.9657 73.4749 46.8778C73.3324 46.79 73.165 46.7461 72.9728 46.7461C72.764 46.7461 72.5817 46.7975 72.4259 46.9002C72.2718 47.0013 72.1525 47.1339 72.068 47.2979C71.9851 47.4603 71.9437 47.6368 71.9437 47.8274V48.2624C71.9437 48.5176 71.9884 48.7347 72.0779 48.9137C72.1691 49.0927 72.2958 49.2294 72.4582 49.3239C72.6206 49.4167 72.8104 49.4631 73.0275 49.4631C73.1683 49.4631 73.2968 49.4432 73.4128 49.4034C73.5288 49.362 73.629 49.3007 73.7136 49.2195C73.7981 49.1383 73.8627 49.038 73.9075 48.9187L74.6109 49.0455C74.5546 49.2526 74.4535 49.4341 74.3077 49.5898C74.1635 49.744 73.982 49.8641 73.7633 49.9503C73.5462 50.0348 73.2984 50.0771 73.02 50.0771ZM75.3832 50V46.1818H76.0966V46.8033H76.1439C76.2234 46.5928 76.3535 46.4287 76.5341 46.3111C76.7148 46.1918 76.931 46.1321 77.1829 46.1321C77.4381 46.1321 77.6519 46.1918 77.8242 46.3111C77.9983 46.4304 78.1267 46.5945 78.2095 46.8033H78.2493C78.3405 46.5994 78.4855 46.437 78.6843 46.3161C78.8832 46.1934 79.1202 46.1321 79.3953 46.1321C79.7416 46.1321 80.0242 46.2406 80.2429 46.4577C80.4633 46.6748 80.5735 47.0021 80.5735 47.4396V50H79.8303V47.5092C79.8303 47.2507 79.7599 47.0634 79.619 46.9474C79.4781 46.8314 79.3099 46.7734 79.1144 46.7734C78.8724 46.7734 78.6843 46.848 78.5501 46.9972C78.4159 47.1446 78.3488 47.3344 78.3488 47.5664V50H77.608V47.462C77.608 47.2549 77.5434 47.0883 77.4141 46.9624C77.2848 46.8364 77.1166 46.7734 76.9095 46.7734C76.7686 46.7734 76.6385 46.8107 76.5192 46.8853C76.4015 46.9582 76.3063 47.0601 76.2333 47.1911C76.1621 47.322 76.1265 47.4736 76.1265 47.646V50H75.3832ZM82.5812 50.0845C82.3393 50.0845 82.1205 50.0398 81.925 49.9503C81.7294 49.8591 81.5745 49.7274 81.4601 49.555C81.3475 49.3827 81.2911 49.1714 81.2911 48.9212C81.2911 48.7057 81.3325 48.5284 81.4154 48.3892C81.4983 48.25 81.6101 48.1398 81.751 48.0586C81.8918 47.9774 82.0493 47.9161 82.2233 47.8746C82.3973 47.8332 82.5746 47.8017 82.7552 47.7802C82.9839 47.7537 83.1695 47.7321 83.3121 47.7156C83.4546 47.6973 83.5582 47.6683 83.6228 47.6286C83.6874 47.5888 83.7197 47.5241 83.7197 47.4347V47.4173C83.7197 47.2002 83.6584 47.032 83.5358 46.9126C83.4148 46.7933 83.2342 46.7337 82.9939 46.7337C82.7436 46.7337 82.5464 46.7892 82.4023 46.9002C82.2597 47.0096 82.1611 47.1314 82.1065 47.2656L81.4079 47.1065C81.4908 46.8745 81.6118 46.6873 81.7709 46.5447C81.9316 46.4006 82.1164 46.2962 82.3252 46.2315C82.534 46.1652 82.7536 46.1321 82.9839 46.1321C83.1364 46.1321 83.298 46.1503 83.4687 46.1868C83.641 46.2216 83.8018 46.2862 83.9509 46.3807C84.1017 46.4751 84.2252 46.6102 84.3213 46.7859C84.4174 46.9599 84.4655 47.1861 84.4655 47.4645V50H83.7396V49.478H83.7098C83.6617 49.5741 83.5896 49.6686 83.4935 49.7614C83.3974 49.8542 83.2739 49.9312 83.1231 49.9925C82.9723 50.0539 82.7917 50.0845 82.5812 50.0845ZM82.7428 49.4879C82.9483 49.4879 83.124 49.4473 83.2698 49.3661C83.4173 49.2849 83.5292 49.1789 83.6054 49.0479C83.6833 48.9154 83.7222 48.7737 83.7222 48.6229V48.1307C83.6957 48.1572 83.6443 48.1821 83.5681 48.2053C83.4935 48.2268 83.4082 48.2459 83.3121 48.2624C83.2159 48.2773 83.1223 48.2914 83.0312 48.3047C82.94 48.3163 82.8638 48.3262 82.8025 48.3345C82.6583 48.3527 82.5266 48.3834 82.4072 48.4265C82.2896 48.4696 82.1951 48.5317 82.1239 48.6129C82.0543 48.6925 82.0194 48.7985 82.0194 48.9311C82.0194 49.1151 82.0874 49.2543 82.2233 49.3487C82.3592 49.4415 82.5324 49.4879 82.7428 49.4879ZM85.3558 50V46.1818H86.0991V50H85.3558ZM85.7312 45.5927C85.6019 45.5927 85.4909 45.5496 85.3981 45.4634C85.3069 45.3756 85.2613 45.2712 85.2613 45.1502C85.2613 45.0276 85.3069 44.9232 85.3981 44.837C85.4909 44.7492 85.6019 44.7053 85.7312 44.7053C85.8604 44.7053 85.9706 44.7492 86.0618 44.837C86.1546 44.9232 86.201 45.0276 86.201 45.1502C86.201 45.2712 86.1546 45.3756 86.0618 45.4634C85.9706 45.5496 85.8604 45.5927 85.7312 45.5927ZM87.7426 44.9091V50H86.9993V44.9091H87.7426ZM89.1326 50.0472C88.9967 50.0472 88.8799 49.9992 88.7821 49.9031C88.6843 49.8053 88.6354 49.6876 88.6354 49.5501C88.6354 49.4142 88.6843 49.2982 88.7821 49.2021C88.8799 49.1043 88.9967 49.0554 89.1326 49.0554C89.2685 49.0554 89.3853 49.1043 89.4831 49.2021C89.5808 49.2982 89.6297 49.4142 89.6297 49.5501C89.6297 49.6412 89.6065 49.7249 89.5601 49.8011C89.5154 49.8757 89.4557 49.9354 89.3812 49.9801C89.3066 50.0249 89.2237 50.0472 89.1326 50.0472ZM92.134 50.0771C91.7644 50.0771 91.4462 49.9934 91.1794 49.826C90.9143 49.657 90.7104 49.4241 90.5679 49.1275C90.4254 48.8308 90.3541 48.4911 90.3541 48.1083C90.3541 47.7205 90.4271 47.3783 90.5729 47.0817C90.7187 46.7834 90.9242 46.5505 91.1894 46.3832C91.4545 46.2158 91.7669 46.1321 92.1265 46.1321C92.4165 46.1321 92.675 46.186 92.9021 46.2937C93.1291 46.3997 93.3122 46.5489 93.4514 46.7411C93.5923 46.9334 93.676 47.1579 93.7025 47.4148H92.9791C92.9394 47.2358 92.8482 47.0817 92.7057 46.9524C92.5648 46.8232 92.3759 46.7585 92.1389 46.7585C91.9318 46.7585 91.7503 46.8132 91.5946 46.9226C91.4404 47.0303 91.3203 47.1844 91.2341 47.3849C91.1479 47.5838 91.1049 47.8191 91.1049 48.0909C91.1049 48.3693 91.1471 48.6096 91.2316 48.8118C91.3161 49.014 91.4355 49.1706 91.5896 49.2816C91.7454 49.3926 91.9285 49.4482 92.1389 49.4482C92.2798 49.4482 92.4074 49.4225 92.5218 49.3711C92.6378 49.3181 92.7347 49.2427 92.8126 49.1449C92.8921 49.0471 92.9477 48.9295 92.9791 48.7919H93.7025C93.676 49.0388 93.5956 49.2592 93.4614 49.4531C93.3272 49.647 93.1474 49.7995 92.922 49.9105C92.6983 50.0215 92.4356 50.0771 92.134 50.0771ZM96.006 50.0771C95.6481 50.0771 95.3357 49.995 95.0689 49.831C94.8021 49.6669 94.5949 49.4374 94.4474 49.1424C94.2999 48.8474 94.2262 48.5027 94.2262 48.1083C94.2262 47.7122 94.2999 47.3659 94.4474 47.0692C94.5949 46.7726 94.8021 46.5423 95.0689 46.3782C95.3357 46.2141 95.6481 46.1321 96.006 46.1321C96.364 46.1321 96.6764 46.2141 96.9432 46.3782C97.21 46.5423 97.4171 46.7726 97.5646 47.0692C97.7121 47.3659 97.7859 47.7122 97.7859 48.1083C97.7859 48.5027 97.7121 48.8474 97.5646 49.1424C97.4171 49.4374 97.21 49.6669 96.9432 49.831C96.6764 49.995 96.364 50.0771 96.006 50.0771ZM96.0085 49.4531C96.2405 49.4531 96.4328 49.3918 96.5852 49.2692C96.7377 49.1465 96.8504 48.9833 96.9233 48.7795C96.9979 48.5756 97.0351 48.3511 97.0351 48.1058C97.0351 47.8622 96.9979 47.6385 96.9233 47.4347C96.8504 47.2292 96.7377 47.0643 96.5852 46.94C96.4328 46.8157 96.2405 46.7536 96.0085 46.7536C95.7748 46.7536 95.581 46.8157 95.4268 46.94C95.2744 47.0643 95.1609 47.2292 95.0863 47.4347C95.0134 47.6385 94.9769 47.8622 94.9769 48.1058C94.9769 48.3511 95.0134 48.5756 95.0863 48.7795C95.1609 48.9833 95.2744 49.1465 95.4268 49.2692C95.581 49.3918 95.7748 49.4531 96.0085 49.4531ZM98.5159 50V46.1818H99.2293V46.8033H99.2765C99.3561 46.5928 99.4861 46.4287 99.6668 46.3111C99.8474 46.1918 100.064 46.1321 100.316 46.1321C100.571 46.1321 100.785 46.1918 100.957 46.3111C101.131 46.4304 101.259 46.5945 101.342 46.8033H101.382C101.473 46.5994 101.618 46.437 101.817 46.3161C102.016 46.1934 102.253 46.1321 102.528 46.1321C102.874 46.1321 103.157 46.2406 103.376 46.4577C103.596 46.6748 103.706 47.0021 103.706 47.4396V50H102.963V47.5092C102.963 47.2507 102.893 47.0634 102.752 46.9474C102.611 46.8314 102.443 46.7734 102.247 46.7734C102.005 46.7734 101.817 46.848 101.683 46.9972C101.549 47.1446 101.481 47.3344 101.481 47.5664V50H100.741V47.462C100.741 47.2549 100.676 47.0883 100.547 46.9624C100.417 46.8364 100.249 46.7734 100.042 46.7734C99.9013 46.7734 99.7712 46.8107 99.6519 46.8853C99.5342 46.9582 99.4389 47.0601 99.366 47.1911C99.2947 47.322 99.2591 47.4736 99.2591 47.646V50H98.5159Z" fill="#A09FA6"/>
<rect x="168.048" y="33.69" width="12.6199" height="12.6199" rx="2.32472" fill="#3E63DD"/>
<path d="M177.458 37.6753L173.196 41.9373L171.258 40" stroke="white" stroke-width="1.32841" stroke-linecap="round" stroke-linejoin="round"/>
<rect x="168.048" y="33.69" width="12.6199" height="12.6199" rx="2.32472" stroke="#3E63DD" stroke-width="0.664207"/>
<rect x="0.5" y="56" width="24" height="24" rx="4" fill="#232326"/>
<path d="M12.5 67.9999C13.7426 67.9999 14.75 66.9925 14.75 65.7499C14.75 64.5072 13.7426 63.4999 12.5 63.4999C11.2574 63.4999 10.25 64.5072 10.25 65.7499C10.25 66.9925 11.2574 67.9999 12.5 67.9999Z" stroke="#EDEDEF" stroke-linecap="round" stroke-linejoin="round"/>
<path d="M16.5 72.5C16.1214 71.7654 15.5479 71.1493 14.8423 70.7192C14.1367 70.2891 13.3264 70.0615 12.5 70.0615C11.6736 70.0615 10.8633 70.2891 10.1577 70.7192C9.45209 71.1493 8.87857 71.7654 8.5 72.5" stroke="#EDEDEF" stroke-linecap="round" stroke-linejoin="round"/>
<path d="M34.7891 62.174C34.755 61.8714 34.6143 61.6371 34.3672 61.4709C34.12 61.3026 33.8089 61.2184 33.4339 61.2184C33.1655 61.2184 32.9332 61.261 32.7372 61.3462C32.5412 61.4293 32.3888 61.5444 32.2802 61.6914C32.1737 61.8363 32.1204 62.0014 32.1204 62.1868C32.1204 62.3423 32.1566 62.4766 32.229 62.5895C32.3036 62.7024 32.4006 62.7972 32.5199 62.8739C32.6413 62.9485 32.7713 63.0114 32.9098 63.0625C33.0483 63.1115 33.1815 63.152 33.3093 63.1839L33.9485 63.3501C34.1573 63.4013 34.3714 63.4705 34.5909 63.5579C34.8104 63.6452 35.0138 63.7603 35.2013 63.9031C35.3888 64.0458 35.5401 64.2227 35.6552 64.4336C35.7724 64.6445 35.831 64.897 35.831 65.1911C35.831 65.5618 35.7351 65.891 35.5433 66.1786C35.3537 66.4663 35.0778 66.6932 34.7156 66.8594C34.3555 67.0256 33.9197 67.1087 33.4084 67.1087C32.9183 67.1087 32.4943 67.0309 32.1364 66.8754C31.7784 66.7198 31.4982 66.4993 31.2958 66.2138C31.0934 65.9261 30.9815 65.5852 30.9602 65.1911H31.951C31.9702 65.4276 32.0469 65.6246 32.1811 65.7823C32.3175 65.9379 32.4911 66.054 32.7021 66.1307C32.9151 66.2053 33.1484 66.2425 33.402 66.2425C33.6811 66.2425 33.9293 66.1989 34.1467 66.1115C34.3661 66.022 34.5387 65.8984 34.6644 65.7408C34.7901 65.581 34.853 65.3945 34.853 65.1815C34.853 64.9876 34.7976 64.8288 34.6868 64.7053C34.5781 64.5817 34.43 64.4794 34.2425 64.3984C34.0572 64.3175 33.8473 64.2461 33.6129 64.1843L32.8395 63.9734C32.3153 63.8306 31.8999 63.6207 31.593 63.3438C31.2884 63.0668 31.136 62.7003 31.136 62.2443C31.136 61.8672 31.2383 61.538 31.4428 61.2567C31.6474 60.9755 31.9244 60.7571 32.2738 60.6016C32.6232 60.4439 33.0174 60.3651 33.4563 60.3651C33.8995 60.3651 34.2905 60.4428 34.6293 60.5984C34.9702 60.7539 35.2386 60.968 35.4347 61.2408C35.6307 61.5114 35.733 61.8224 35.7415 62.174H34.7891ZM39.9445 64.9641V62.0909H40.9033V67H39.9637V66.1499H39.9125C39.7996 66.4119 39.6185 66.6303 39.3692 66.805C39.122 66.9776 38.8142 67.0639 38.4456 67.0639C38.1302 67.0639 37.8511 66.9947 37.6082 66.8562C37.3674 66.7156 37.1778 66.5078 37.0393 66.233C36.9029 65.9581 36.8348 65.6183 36.8348 65.2134V62.0909H37.7904V65.0984C37.7904 65.4329 37.8831 65.6992 38.0684 65.8974C38.2538 66.0955 38.4946 66.1946 38.7907 66.1946C38.9697 66.1946 39.1476 66.1499 39.3245 66.0604C39.5034 65.9709 39.6515 65.8356 39.7687 65.6545C39.888 65.4734 39.9466 65.2433 39.9445 64.9641ZM45.7663 63.2894L44.9002 63.4428C44.8639 63.332 44.8064 63.2266 44.7276 63.1264C44.6509 63.0263 44.5465 62.9442 44.4144 62.8803C44.2823 62.8164 44.1171 62.7844 43.919 62.7844C43.6484 62.7844 43.4225 62.8452 43.2414 62.9666C43.0603 63.0859 42.9698 63.2404 42.9698 63.43C42.9698 63.5941 43.0305 63.7262 43.1519 63.8263C43.2734 63.9265 43.4694 64.0085 43.74 64.0724L44.5198 64.2514C44.9715 64.3558 45.3082 64.5167 45.5298 64.734C45.7514 64.9513 45.8622 65.2337 45.8622 65.581C45.8622 65.875 45.7769 66.1371 45.6065 66.3672C45.4382 66.5952 45.2027 66.7741 44.9002 66.9041C44.5997 67.0341 44.2514 67.0991 43.8551 67.0991C43.3054 67.0991 42.8568 66.9819 42.5095 66.7475C42.1622 66.511 41.9492 66.1754 41.8703 65.7408L42.794 65.6001C42.8515 65.8409 42.9698 66.0231 43.1487 66.1467C43.3277 66.2681 43.561 66.3288 43.8487 66.3288C44.1619 66.3288 44.4122 66.2638 44.5997 66.1339C44.7872 66.0018 44.881 65.8409 44.881 65.6513C44.881 65.4979 44.8235 65.369 44.7084 65.2646C44.5955 65.1602 44.4218 65.0813 44.1875 65.0281L43.3565 64.8459C42.8984 64.7415 42.5596 64.5753 42.3402 64.3473C42.1228 64.1193 42.0142 63.8306 42.0142 63.4812C42.0142 63.1914 42.0951 62.9379 42.2571 62.7205C42.419 62.5032 42.6427 62.3338 42.9282 62.2124C43.2137 62.0888 43.5408 62.027 43.9094 62.027C44.4399 62.027 44.8576 62.142 45.1622 62.3722C45.4669 62.6001 45.6683 62.9059 45.7663 63.2894ZM48.2419 67.1087C47.9308 67.1087 47.6495 67.0511 47.3981 66.9361C47.1467 66.8189 46.9475 66.6495 46.8005 66.4279C46.6556 66.2063 46.5831 65.9347 46.5831 65.6129C46.5831 65.3359 46.6364 65.108 46.7429 64.929C46.8495 64.75 46.9933 64.6083 47.1744 64.5039C47.3555 64.3995 47.5579 64.3207 47.7816 64.2674C48.0054 64.2141 48.2333 64.1737 48.4656 64.146C48.7596 64.1119 48.9982 64.0842 49.1815 64.0629C49.3647 64.0394 49.4979 64.0021 49.581 63.951C49.6641 63.8999 49.7056 63.8168 49.7056 63.7017V63.6793C49.7056 63.4002 49.6268 63.1839 49.4691 63.0305C49.3136 62.8771 49.0813 62.8004 48.7724 62.8004C48.4507 62.8004 48.1971 62.8718 48.0117 63.0146C47.8285 63.1552 47.7017 63.3118 47.6314 63.4844L46.7333 63.2798C46.8399 62.9815 46.9954 62.7408 47.2 62.5575C47.4066 62.3722 47.6442 62.2379 47.9127 62.1548C48.1811 62.0696 48.4634 62.027 48.7596 62.027C48.9556 62.027 49.1634 62.0504 49.3828 62.0973C49.6044 62.142 49.8111 62.2251 50.0029 62.3466C50.1968 62.468 50.3555 62.6417 50.4791 62.8675C50.6027 63.0913 50.6644 63.3821 50.6644 63.7401V67H49.7312V66.3288H49.6929C49.6311 66.4524 49.5384 66.5739 49.4148 66.6932C49.2912 66.8125 49.1325 66.9116 48.9386 66.9904C48.7447 67.0692 48.5125 67.1087 48.2419 67.1087ZM48.4496 66.3416C48.7138 66.3416 48.9397 66.2894 49.1272 66.185C49.3168 66.0806 49.4606 65.9442 49.5586 65.7759C49.6588 65.6055 49.7088 65.4233 49.7088 65.2294V64.5966C49.6747 64.6307 49.6087 64.6626 49.5107 64.6925C49.4148 64.7202 49.3051 64.7447 49.1815 64.766C49.0579 64.7852 48.9375 64.8033 48.8203 64.8203C48.7031 64.8352 48.6051 64.848 48.5263 64.8587C48.3409 64.8821 48.1715 64.9215 48.0181 64.9769C47.8669 65.0323 47.7454 65.1122 47.6538 65.2166C47.5643 65.3189 47.5196 65.4553 47.5196 65.6257C47.5196 65.8622 47.6069 66.0412 47.7816 66.1626C47.9563 66.282 48.179 66.3416 48.4496 66.3416ZM52.7932 64.0852V67H51.8376V62.0909H52.7549V62.8899H52.8156C52.9285 62.63 53.1054 62.4212 53.3462 62.2635C53.589 62.1058 53.8948 62.027 54.2634 62.027C54.5979 62.027 54.8909 62.0973 55.1423 62.2379C55.3937 62.3764 55.5887 62.5831 55.7272 62.858C55.8657 63.1328 55.9349 63.4727 55.9349 63.8775V67H54.9793V63.9925C54.9793 63.6367 54.8866 63.3587 54.7013 63.1584C54.5159 62.956 54.2613 62.8548 53.9374 62.8548C53.7158 62.8548 53.5187 62.9027 53.3462 62.9986C53.1757 63.0945 53.0404 63.2351 52.9403 63.4205C52.8422 63.6037 52.7932 63.8253 52.7932 64.0852ZM61.5948 67H59.4758V60.4545H61.6619C62.3032 60.4545 62.854 60.5856 63.3142 60.8477C63.7745 61.1076 64.1271 61.4815 64.3721 61.9695C64.6193 62.4553 64.7429 63.038 64.7429 63.7177C64.7429 64.3995 64.6182 64.9854 64.3689 65.4755C64.1218 65.9656 63.7638 66.3427 63.2951 66.6069C62.8263 66.869 62.2595 67 61.5948 67ZM60.4634 66.1371H61.5404C62.039 66.1371 62.4534 66.0433 62.7837 65.8558C63.114 65.6662 63.3611 65.3924 63.5252 65.0344C63.6892 64.6744 63.7713 64.2354 63.7713 63.7177C63.7713 63.2042 63.6892 62.7685 63.5252 62.4105C63.3632 62.0526 63.1214 61.7809 62.7997 61.5955C62.4779 61.4102 62.0784 61.3175 61.6012 61.3175H60.4634V66.1371ZM67.2232 67.1087C66.9121 67.1087 66.6309 67.0511 66.3795 66.9361C66.128 66.8189 65.9288 66.6495 65.7818 66.4279C65.6369 66.2063 65.5645 65.9347 65.5645 65.6129C65.5645 65.3359 65.6177 65.108 65.7243 64.929C65.8308 64.75 65.9746 64.6083 66.1557 64.5039C66.3369 64.3995 66.5393 64.3207 66.763 64.2674C66.9867 64.2141 67.2147 64.1737 67.4469 64.146C67.741 64.1119 67.9796 64.0842 68.1628 64.0629C68.3461 64.0394 68.4793 64.0021 68.5623 63.951C68.6454 63.8999 68.687 63.8168 68.687 63.7017V63.6793C68.687 63.4002 68.6082 63.1839 68.4505 63.0305C68.2949 62.8771 68.0627 62.8004 67.7538 62.8004C67.432 62.8004 67.1785 62.8718 66.9931 63.0146C66.8099 63.1552 66.6831 63.3118 66.6128 63.4844L65.7147 63.2798C65.8212 62.9815 65.9768 62.7408 66.1813 62.5575C66.388 62.3722 66.6256 62.2379 66.894 62.1548C67.1625 62.0696 67.4448 62.027 67.741 62.027C67.937 62.027 68.1447 62.0504 68.3642 62.0973C68.5858 62.142 68.7925 62.2251 68.9842 62.3466C69.1781 62.468 69.3369 62.6417 69.4604 62.8675C69.584 63.0913 69.6458 63.3821 69.6458 63.7401V67H68.7126V66.3288H68.6742C68.6124 66.4524 68.5197 66.5739 68.3962 66.6932C68.2726 66.8125 68.1138 66.9116 67.9199 66.9904C67.7261 67.0692 67.4938 67.1087 67.2232 67.1087ZM67.431 66.3416C67.6952 66.3416 67.921 66.2894 68.1085 66.185C68.2981 66.0806 68.442 65.9442 68.54 65.7759C68.6401 65.6055 68.6902 65.4233 68.6902 65.2294V64.5966C68.6561 64.6307 68.59 64.6626 68.492 64.6925C68.3962 64.7202 68.2864 64.7447 68.1628 64.766C68.0393 64.7852 67.9189 64.8033 67.8017 64.8203C67.6845 64.8352 67.5865 64.848 67.5077 64.8587C67.3223 64.8821 67.1529 64.9215 66.9995 64.9769C66.8482 65.0323 66.7268 65.1122 66.6351 65.2166C66.5457 65.3189 66.5009 65.4553 66.5009 65.6257C66.5009 65.8622 66.5883 66.0412 66.763 66.1626C66.9377 66.282 67.1604 66.3416 67.431 66.3416ZM74.8428 62.0909L73.0626 67H72.0399L70.2565 62.0909H71.2824L72.5257 65.8686H72.5768L73.8169 62.0909H74.8428ZM75.6412 67V62.0909H76.5968V67H75.6412ZM76.1238 61.3335C75.9576 61.3335 75.8149 61.2781 75.6956 61.1673C75.5784 61.0543 75.5198 60.9201 75.5198 60.7646C75.5198 60.6069 75.5784 60.4727 75.6956 60.3619C75.8149 60.2489 75.9576 60.1925 76.1238 60.1925C76.29 60.1925 76.4317 60.2489 76.5489 60.3619C76.6682 60.4727 76.7279 60.6069 76.7279 60.7646C76.7279 60.9201 76.6682 61.0543 76.5489 61.1673C76.4317 61.2781 76.29 61.3335 76.1238 61.3335ZM81.4614 63.2894L80.5953 63.4428C80.5591 63.332 80.5016 63.2266 80.4227 63.1264C80.346 63.0263 80.2416 62.9442 80.1095 62.8803C79.9774 62.8164 79.8123 62.7844 79.6141 62.7844C79.3435 62.7844 79.1177 62.8452 78.9366 62.9666C78.7555 63.0859 78.6649 63.2404 78.6649 63.43C78.6649 63.5941 78.7256 63.7262 78.8471 63.8263C78.9685 63.9265 79.1646 64.0085 79.4352 64.0724L80.215 64.2514C80.6667 64.3558 81.0033 64.5167 81.2249 64.734C81.4465 64.9513 81.5573 65.2337 81.5573 65.581C81.5573 65.875 81.4721 66.1371 81.3016 66.3672C81.1333 66.5952 80.8979 66.7741 80.5953 66.9041C80.2949 67.0341 79.9465 67.0991 79.5502 67.0991C79.0005 67.0991 78.552 66.9819 78.2047 66.7475C77.8574 66.511 77.6443 66.1754 77.5655 65.7408L78.4891 65.6001C78.5467 65.8409 78.6649 66.0231 78.8439 66.1467C79.0229 66.2681 79.2562 66.3288 79.5438 66.3288C79.857 66.3288 80.1074 66.2638 80.2949 66.1339C80.4824 66.0018 80.5761 65.8409 80.5761 65.6513C80.5761 65.4979 80.5186 65.369 80.4035 65.2646C80.2906 65.1602 80.117 65.0813 79.8826 65.0281L79.0516 64.8459C78.5935 64.7415 78.2548 64.5753 78.0353 64.3473C77.818 64.1193 77.7093 63.8306 77.7093 63.4812C77.7093 63.1914 77.7903 62.9379 77.9522 62.7205C78.1141 62.5032 78.3379 62.3338 78.6234 62.2124C78.9089 62.0888 79.2359 62.027 79.6045 62.027C80.1351 62.027 80.5527 62.142 80.8574 62.3722C81.1621 62.6001 81.3634 62.9059 81.4614 63.2894Z" fill="#EDEDEF"/>
<path d="M33.8608 75.114L33.1871 75.2333C33.159 75.1471 33.1142 75.0651 33.0529 74.9872C32.9933 74.9093 32.9121 74.8455 32.8093 74.7958C32.7066 74.7461 32.5781 74.7212 32.424 74.7212C32.2135 74.7212 32.0379 74.7685 31.897 74.8629C31.7562 74.9557 31.6857 75.0759 31.6857 75.2234C31.6857 75.351 31.733 75.4537 31.8274 75.5316C31.9219 75.6095 32.0743 75.6733 32.2848 75.723L32.8913 75.8622C33.2427 75.9434 33.5045 76.0685 33.6768 76.2376C33.8492 76.4066 33.9354 76.6262 33.9354 76.8963C33.9354 77.125 33.8691 77.3288 33.7365 77.5078C33.6056 77.6851 33.4225 77.8243 33.1871 77.9254C32.9535 78.0265 32.6825 78.0771 32.3743 78.0771C31.9467 78.0771 31.5979 77.9859 31.3278 77.8036C31.0576 77.6197 30.8919 77.3587 30.8306 77.0206L31.549 76.9112C31.5938 77.0985 31.6857 77.2402 31.8249 77.3363C31.9641 77.4308 32.1456 77.478 32.3693 77.478C32.6129 77.478 32.8076 77.4274 32.9535 77.3263C33.0993 77.2236 33.1722 77.0985 33.1722 76.951C33.1722 76.8317 33.1275 76.7314 33.038 76.6502C32.9502 76.569 32.8151 76.5077 32.6328 76.4663L31.9865 76.3246C31.6302 76.2434 31.3667 76.1141 31.196 75.9368C31.027 75.7595 30.9425 75.5349 30.9425 75.2631C30.9425 75.0378 31.0054 74.8406 31.1314 74.6715C31.2573 74.5025 31.4313 74.3707 31.6534 74.2763C31.8755 74.1802 32.1299 74.1321 32.4165 74.1321C32.8292 74.1321 33.154 74.2216 33.391 74.4006C33.628 74.5779 33.7846 74.8157 33.8608 75.114ZM37.0716 76.4165V74.1818H37.8174V78H37.0865V77.3388H37.0468C36.9589 77.5426 36.8181 77.7125 36.6242 77.8484C36.4319 77.9826 36.1925 78.0497 35.9058 78.0497C35.6605 78.0497 35.4434 77.9959 35.2545 77.8881C35.0672 77.7788 34.9198 77.6172 34.812 77.4034C34.706 77.1896 34.6529 76.9253 34.6529 76.6104V74.1818H35.3962V76.521C35.3962 76.7811 35.4683 76.9883 35.6125 77.1424C35.7566 77.2965 35.9439 77.3736 36.1743 77.3736C36.3135 77.3736 36.4518 77.3388 36.5894 77.2692C36.7286 77.1996 36.8438 77.0943 36.9349 76.9535C37.0277 76.8126 37.0733 76.6336 37.0716 76.4165ZM41.5775 75.114L40.9039 75.2333C40.8757 75.1471 40.831 75.0651 40.7697 74.9872C40.71 74.9093 40.6288 74.8455 40.5261 74.7958C40.4233 74.7461 40.2949 74.7212 40.1408 74.7212C39.9303 74.7212 39.7546 74.7685 39.6138 74.8629C39.4729 74.9557 39.4025 75.0759 39.4025 75.2234C39.4025 75.351 39.4497 75.4537 39.5442 75.5316C39.6386 75.6095 39.7911 75.6733 40.0016 75.723L40.6081 75.8622C40.9594 75.9434 41.2213 76.0685 41.3936 76.2376C41.5659 76.4066 41.6521 76.6262 41.6521 76.8963C41.6521 77.125 41.5858 77.3288 41.4533 77.5078C41.3223 77.6851 41.1392 77.8243 40.9039 77.9254C40.6702 78.0265 40.3993 78.0771 40.091 78.0771C39.6635 78.0771 39.3146 77.9859 39.0445 77.8036C38.7744 77.6197 38.6087 77.3587 38.5474 77.0206L39.2658 76.9112C39.3105 77.0985 39.4025 77.2402 39.5417 77.3363C39.6809 77.4308 39.8624 77.478 40.0861 77.478C40.3297 77.478 40.5244 77.4274 40.6702 77.3263C40.8161 77.2236 40.889 77.0985 40.889 76.951C40.889 76.8317 40.8442 76.7314 40.7548 76.6502C40.6669 76.569 40.5319 76.5077 40.3496 76.4663L39.7033 76.3246C39.347 76.2434 39.0835 76.1141 38.9128 75.9368C38.7437 75.7595 38.6592 75.5349 38.6592 75.2631C38.6592 75.0378 38.7222 74.8406 38.8481 74.6715C38.9741 74.5025 39.1481 74.3707 39.3702 74.2763C39.5922 74.1802 39.8466 74.1321 40.1333 74.1321C40.5459 74.1321 40.8708 74.2216 41.1077 74.4006C41.3447 74.5779 41.5013 74.8157 41.5775 75.114ZM43.4808 78.0845C43.2389 78.0845 43.0201 78.0398 42.8246 77.9503C42.629 77.8591 42.4741 77.7274 42.3598 77.555C42.2471 77.3827 42.1907 77.1714 42.1907 76.9212C42.1907 76.7057 42.2321 76.5284 42.315 76.3892C42.3979 76.25 42.5097 76.1398 42.6506 76.0586C42.7915 75.9774 42.9489 75.9161 43.1229 75.8746C43.2969 75.8332 43.4742 75.8017 43.6549 75.7802C43.8835 75.7537 44.0692 75.7321 44.2117 75.7156C44.3542 75.6973 44.4578 75.6683 44.5224 75.6286C44.587 75.5888 44.6193 75.5241 44.6193 75.4347V75.4173C44.6193 75.2002 44.558 75.032 44.4354 74.9126C44.3144 74.7933 44.1338 74.7337 43.8935 74.7337C43.6433 74.7337 43.446 74.7892 43.3019 74.9002C43.1594 75.0096 43.0607 75.1314 43.0061 75.2656L42.3076 75.1065C42.3904 74.8745 42.5114 74.6873 42.6705 74.5447C42.8312 74.4006 43.016 74.2962 43.2248 74.2315C43.4336 74.1652 43.6532 74.1321 43.8835 74.1321C44.036 74.1321 44.1976 74.1503 44.3683 74.1868C44.5406 74.2216 44.7014 74.2862 44.8505 74.3807C45.0013 74.4751 45.1248 74.6102 45.2209 74.7859C45.317 74.9599 45.3651 75.1861 45.3651 75.4645V78H44.6392V77.478H44.6094C44.5613 77.5741 44.4893 77.6686 44.3931 77.7614C44.297 77.8542 44.1736 77.9312 44.0228 77.9925C43.8719 78.0539 43.6913 78.0845 43.4808 78.0845ZM43.6424 77.4879C43.8479 77.4879 44.0236 77.4473 44.1694 77.3661C44.3169 77.2849 44.4288 77.1789 44.505 77.0479C44.5829 76.9154 44.6218 76.7737 44.6218 76.6229V76.1307C44.5953 76.1572 44.5439 76.1821 44.4677 76.2053C44.3931 76.2268 44.3078 76.2459 44.2117 76.2624C44.1156 76.2773 44.0219 76.2914 43.9308 76.3047C43.8396 76.3163 43.7634 76.3262 43.7021 76.3345C43.5579 76.3527 43.4262 76.3834 43.3068 76.4265C43.1892 76.4696 43.0947 76.5317 43.0235 76.6129C42.9539 76.6925 42.9191 76.7985 42.9191 76.9311C42.9191 77.1151 42.987 77.2543 43.1229 77.3487C43.2588 77.4415 43.432 77.4879 43.6424 77.4879ZM46.9987 75.733V78H46.2554V74.1818H46.9688V74.8033H47.0161C47.1039 74.6011 47.2414 74.4387 47.4287 74.3161C47.6176 74.1934 47.8554 74.1321 48.1421 74.1321C48.4023 74.1321 48.6302 74.1868 48.8257 74.2962C49.0213 74.4039 49.1729 74.5646 49.2806 74.7784C49.3883 74.9922 49.4422 75.2565 49.4422 75.5714V78H48.699V75.6609C48.699 75.3841 48.6269 75.1679 48.4827 75.0121C48.3385 74.8546 48.1405 74.7759 47.8886 74.7759C47.7162 74.7759 47.5629 74.8132 47.4287 74.8878C47.2961 74.9624 47.1909 75.0717 47.113 75.2159C47.0368 75.3584 46.9987 75.5308 46.9987 75.733ZM51.7687 78.0746C51.4605 78.0746 51.1854 77.9959 50.9434 77.8384C50.7031 77.6793 50.5142 77.4531 50.3767 77.1598C50.2408 76.8648 50.1728 76.511 50.1728 76.0984C50.1728 75.6857 50.2416 75.3327 50.3792 75.0394C50.5184 74.7461 50.7089 74.5215 50.9509 74.3658C51.1928 74.21 51.4671 74.1321 51.7737 74.1321C52.0107 74.1321 52.2012 74.1719 52.3454 74.2514C52.4913 74.3293 52.6039 74.4205 52.6835 74.5249C52.7647 74.6293 52.8277 74.7212 52.8724 74.8008H52.9171V72.9091H53.6604V78H52.9346V77.4059H52.8724C52.8277 77.4871 52.763 77.5799 52.6785 77.6843C52.5957 77.7887 52.4813 77.8799 52.3355 77.9577C52.1896 78.0356 52.0007 78.0746 51.7687 78.0746ZM51.9328 77.4407C52.1466 77.4407 52.3272 77.3844 52.4747 77.2717C52.6238 77.1573 52.7365 76.9991 52.8127 76.7969C52.8906 76.5947 52.9296 76.3594 52.9296 76.0909C52.9296 75.8258 52.8915 75.5937 52.8152 75.3949C52.739 75.196 52.6271 75.0411 52.4796 74.93C52.3322 74.819 52.1499 74.7635 51.9328 74.7635C51.7091 74.7635 51.5226 74.8215 51.3735 74.9375C51.2243 75.0535 51.1116 75.2118 51.0354 75.4123C50.9608 75.6128 50.9235 75.839 50.9235 76.0909C50.9235 76.3461 50.9617 76.5756 51.0379 76.7795C51.1141 76.9833 51.2268 77.1449 51.376 77.2642C51.5268 77.3819 51.7124 77.4407 51.9328 77.4407ZM55.7327 78.0845C55.4908 78.0845 55.272 78.0398 55.0765 77.9503C54.8809 77.8591 54.726 77.7274 54.6116 77.555C54.499 77.3827 54.4426 77.1714 54.4426 76.9212C54.4426 76.7057 54.484 76.5284 54.5669 76.3892C54.6498 76.25 54.7616 76.1398 54.9025 76.0586C55.0433 75.9774 55.2008 75.9161 55.3748 75.8746C55.5488 75.8332 55.7261 75.8017 55.9067 75.7802C56.1354 75.7537 56.321 75.7321 56.4636 75.7156C56.6061 75.6973 56.7097 75.6683 56.7743 75.6286C56.8389 75.5888 56.8712 75.5241 56.8712 75.4347V75.4173C56.8712 75.2002 56.8099 75.032 56.6873 74.9126C56.5663 74.7933 56.3857 74.7337 56.1454 74.7337C55.8951 74.7337 55.6979 74.7892 55.5538 74.9002C55.4112 75.0096 55.3126 75.1314 55.2579 75.2656L54.5594 75.1065C54.6423 74.8745 54.7633 74.6873 54.9224 74.5447C55.0831 74.4006 55.2679 74.2962 55.4767 74.2315C55.6855 74.1652 55.9051 74.1321 56.1354 74.1321C56.2879 74.1321 56.4495 74.1503 56.6202 74.1868C56.7925 74.2216 56.9533 74.2862 57.1024 74.3807C57.2532 74.4751 57.3767 74.6102 57.4728 74.7859C57.5689 74.9599 57.617 75.1861 57.617 75.4645V78H56.8911V77.478H56.8613C56.8132 77.5741 56.7411 77.6686 56.645 77.7614C56.5489 77.8542 56.4254 77.9312 56.2746 77.9925C56.1238 78.0539 55.9432 78.0845 55.7327 78.0845ZM55.8943 77.4879C56.0998 77.4879 56.2755 77.4473 56.4213 77.3661C56.5688 77.2849 56.6807 77.1789 56.7569 77.0479C56.8348 76.9154 56.8737 76.7737 56.8737 76.6229V76.1307C56.8472 76.1572 56.7958 76.1821 56.7196 76.2053C56.645 76.2268 56.5597 76.2459 56.4636 76.2624C56.3674 76.2773 56.2738 76.2914 56.1827 76.3047C56.0915 76.3163 56.0153 76.3262 55.954 76.3345C55.8098 76.3527 55.678 76.3834 55.5587 76.4265C55.4411 76.4696 55.3466 76.5317 55.2753 76.6129C55.2057 76.6925 55.1709 76.7985 55.1709 76.9311C55.1709 77.1151 55.2389 77.2543 55.3748 77.3487C55.5107 77.4415 55.6838 77.4879 55.8943 77.4879ZM61.6369 74.1818L60.2523 78H59.4569L58.0698 74.1818H58.8677L59.8347 77.12H59.8745L60.839 74.1818H61.6369ZM62.2358 78V74.1818H62.9791V78H62.2358ZM62.6112 73.5927C62.4819 73.5927 62.3709 73.5496 62.2781 73.4634C62.1869 73.3756 62.1413 73.2712 62.1413 73.1502C62.1413 73.0276 62.1869 72.9232 62.2781 72.837C62.3709 72.7492 62.4819 72.7053 62.6112 72.7053C62.7404 72.7053 62.8506 72.7492 62.9418 72.837C63.0346 72.9232 63.081 73.0276 63.081 73.1502C63.081 73.2712 63.0346 73.3756 62.9418 73.4634C62.8506 73.5496 62.7404 73.5927 62.6112 73.5927ZM66.7405 75.114L66.0668 75.2333C66.0387 75.1471 65.9939 75.0651 65.9326 74.9872C65.8729 74.9093 65.7917 74.8455 65.689 74.7958C65.5862 74.7461 65.4578 74.7212 65.3037 74.7212C65.0932 74.7212 64.9176 74.7685 64.7767 74.8629C64.6358 74.9557 64.5654 75.0759 64.5654 75.2234C64.5654 75.351 64.6126 75.4537 64.7071 75.5316C64.8016 75.6095 64.954 75.6733 65.1645 75.723L65.771 75.8622C66.1223 75.9434 66.3842 76.0685 66.5565 76.2376C66.7289 76.4066 66.8151 76.6262 66.8151 76.8963C66.8151 77.125 66.7488 77.3288 66.6162 77.5078C66.4853 77.6851 66.3022 77.8243 66.0668 77.9254C65.8332 78.0265 65.5622 78.0771 65.254 78.0771C64.8264 78.0771 64.4776 77.9859 64.2075 77.8036C63.9373 77.6197 63.7716 77.3587 63.7103 77.0206L64.4287 76.9112C64.4734 77.0985 64.5654 77.2402 64.7046 77.3363C64.8438 77.4308 65.0253 77.478 65.249 77.478C65.4926 77.478 65.6873 77.4274 65.8332 77.3263C65.979 77.2236 66.0519 77.0985 66.0519 76.951C66.0519 76.8317 66.0072 76.7314 65.9177 76.6502C65.8299 76.569 65.6948 76.5077 65.5125 76.4663L64.8662 76.3246C64.5099 76.2434 64.2464 76.1141 64.0757 75.9368C63.9067 75.7595 63.8222 75.5349 63.8222 75.2631C63.8222 75.0378 63.8851 74.8406 64.0111 74.6715C64.137 74.5025 64.311 74.3707 64.5331 74.2763C64.7552 74.1802 65.0095 74.1321 65.2962 74.1321C65.7089 74.1321 66.0337 74.2216 66.2707 74.4006C66.5076 74.5779 66.6643 74.8157 66.7405 75.114ZM70.5976 79.3846C70.0839 79.3846 69.6282 79.3142 69.2304 79.1733C68.8344 79.0341 68.5004 78.8286 68.2287 78.5568C67.9569 78.2867 67.7506 77.9553 67.6097 77.5625C67.4688 77.1697 67.3984 76.7215 67.3984 76.2177C67.3984 75.7272 67.4697 75.2863 67.6122 74.8952C67.7547 74.5041 67.9618 74.171 68.2336 73.896C68.5071 73.6192 68.8393 73.4079 69.2304 73.2621C69.6215 73.1162 70.0657 73.0433 70.5628 73.0433C71.0384 73.0433 71.4577 73.1179 71.8206 73.267C72.1836 73.4162 72.4885 73.6209 72.7354 73.881C72.984 74.1412 73.1712 74.4395 73.2972 74.7759C73.4231 75.1123 73.4861 75.4678 73.4861 75.8423C73.4861 76.1042 73.4695 76.3602 73.4364 76.6104C73.4033 76.859 73.3419 77.0844 73.2524 77.2866C73.1646 77.4871 73.037 77.6478 72.8696 77.7688C72.7039 77.8881 72.4885 77.9503 72.2233 77.9553C72.0825 77.9602 71.9457 77.9437 71.8132 77.9055C71.6806 77.8674 71.5679 77.8061 71.4751 77.7216C71.3823 77.6354 71.326 77.526 71.3061 77.3935H71.2762C71.2365 77.4912 71.1702 77.5824 71.0774 77.6669C70.9846 77.7498 70.8661 77.8161 70.7219 77.8658C70.5794 77.9138 70.4137 77.9337 70.2247 77.9254C70.0159 77.9171 69.8278 77.8699 69.6605 77.7837C69.4931 77.6976 69.3497 77.5782 69.2304 77.4258C69.1128 77.2733 69.0225 77.0927 68.9595 76.8839C68.8965 76.6751 68.865 76.4431 68.865 76.1879C68.865 75.9426 68.9006 75.723 68.9719 75.5291C69.0432 75.3336 69.1401 75.1654 69.2627 75.0245C69.387 74.882 69.5296 74.7693 69.6903 74.6864C69.851 74.6036 70.0209 74.5514 70.1999 74.5298C70.3739 74.5099 70.5338 74.5149 70.6796 74.5447C70.8255 74.5746 70.9465 74.6201 71.0426 74.6815C71.1403 74.7428 71.2017 74.8099 71.2265 74.8828H71.2588V74.6044H71.8703V76.9112C71.8703 77.0421 71.9043 77.1532 71.9723 77.2443C72.0419 77.3355 72.1405 77.381 72.2681 77.381C72.4189 77.381 72.5365 77.3255 72.6211 77.2145C72.7072 77.1035 72.7677 76.9328 72.8025 76.7024C72.839 76.4721 72.8572 76.1771 72.8572 75.8175C72.8572 75.5656 72.8232 75.3286 72.7553 75.1065C72.689 74.8828 72.5904 74.6806 72.4595 74.5C72.3302 74.3177 72.1711 74.1611 71.9822 74.0302C71.7933 73.8993 71.5778 73.7982 71.3359 73.7269C71.0956 73.6557 70.8296 73.62 70.538 73.62C70.1419 73.62 69.7897 73.6813 69.4815 73.804C69.1733 73.925 68.9131 74.0998 68.701 74.3285C68.4905 74.5572 68.3306 74.8314 68.2212 75.1513C68.1135 75.4695 68.0596 75.8266 68.0596 76.2227C68.0596 76.6353 68.1151 77.0015 68.2262 77.3214C68.3372 77.6396 68.5013 77.908 68.7184 78.1268C68.9354 78.3455 69.2039 78.5112 69.5238 78.6239C69.8436 78.7383 70.2123 78.7955 70.6299 78.7955C70.8155 78.7955 70.9978 78.7789 71.1768 78.7457C71.3558 78.7143 71.5149 78.6778 71.6541 78.6364C71.7949 78.5966 71.9002 78.5643 71.9698 78.5394L72.1438 79.0838C72.041 79.1319 71.9043 79.1791 71.7336 79.2255C71.5646 79.2719 71.3806 79.31 71.1818 79.3398C70.9846 79.3697 70.7899 79.3846 70.5976 79.3846ZM70.3689 77.3164C70.5844 77.3164 70.7575 77.2733 70.8885 77.1871C71.021 77.101 71.1163 76.9725 71.1743 76.8018C71.234 76.6295 71.2638 76.4141 71.2638 76.1555C71.2622 75.9036 71.2298 75.7031 71.1669 75.554C71.1055 75.4032 71.0094 75.2955 70.8785 75.2308C70.7492 75.1645 70.5827 75.1314 70.3789 75.1314C70.1916 75.1314 70.0317 75.177 69.8991 75.2681C69.7682 75.3593 69.6679 75.4827 69.5983 75.6385C69.5304 75.7943 69.4956 75.9674 69.4939 76.158C69.4956 76.3585 69.5238 76.5475 69.5784 76.7248C69.6348 76.9004 69.7259 77.043 69.8519 77.1523C69.9795 77.2617 70.1518 77.3164 70.3689 77.3164ZM75.853 78.0771C75.4768 78.0771 75.1528 77.9967 74.8811 77.8359C74.6109 77.6735 74.4021 77.4457 74.2546 77.1523C74.1088 76.8574 74.0359 76.5118 74.0359 76.1158C74.0359 75.7247 74.1088 75.38 74.2546 75.0817C74.4021 74.7834 74.6076 74.5505 74.8711 74.3832C75.1363 74.2158 75.4462 74.1321 75.8008 74.1321C76.0162 74.1321 76.2251 74.1677 76.4272 74.239C76.6294 74.3103 76.8109 74.4221 76.9716 74.5746C77.1324 74.727 77.2591 74.9251 77.3519 75.1687C77.4448 75.4106 77.4912 75.7048 77.4912 76.0511V76.3146H74.456V75.7578H76.7628C76.7628 75.5623 76.723 75.3891 76.6435 75.2383C76.564 75.0858 76.4521 74.9657 76.3079 74.8778C76.1654 74.79 75.998 74.7461 75.8058 74.7461C75.597 74.7461 75.4147 74.7975 75.2589 74.9002C75.1048 75.0013 74.9855 75.1339 74.901 75.2979C74.8181 75.4603 74.7767 75.6368 74.7767 75.8274V76.2624C74.7767 76.5176 74.8214 76.7347 74.9109 76.9137C75.002 77.0927 75.1288 77.2294 75.2912 77.3239C75.4536 77.4167 75.6434 77.4631 75.8605 77.4631C76.0013 77.4631 76.1298 77.4432 76.2458 77.4034C76.3618 77.362 76.462 77.3007 76.5465 77.2195C76.6311 77.1383 76.6957 77.038 76.7404 76.9187L77.4439 77.0455C77.3876 77.2526 77.2865 77.4341 77.1407 77.5898C76.9965 77.744 76.815 77.8641 76.5963 77.9503C76.3792 78.0348 76.1314 78.0771 75.853 78.0771ZM78.2162 78V74.1818H78.9296V74.8033H78.9768C79.0564 74.5928 79.1865 74.4287 79.3671 74.3111C79.5477 74.1918 79.764 74.1321 80.0159 74.1321C80.2711 74.1321 80.4849 74.1918 80.6572 74.3111C80.8312 74.4304 80.9597 74.5945 81.0425 74.8033H81.0823C81.1735 74.5994 81.3185 74.437 81.5173 74.3161C81.7162 74.1934 81.9532 74.1321 82.2283 74.1321C82.5746 74.1321 82.8572 74.2406 83.0759 74.4577C83.2963 74.6748 83.4065 75.0021 83.4065 75.4396V78H82.6633V75.5092C82.6633 75.2507 82.5928 75.0634 82.452 74.9474C82.3111 74.8314 82.1429 74.7734 81.9474 74.7734C81.7054 74.7734 81.5173 74.848 81.3831 74.9972C81.2489 75.1446 81.1817 75.3344 81.1817 75.5664V78H80.441V75.462C80.441 75.2549 80.3763 75.0883 80.2471 74.9624C80.1178 74.8364 79.9496 74.7734 79.7425 74.7734C79.6016 74.7734 79.4715 74.8107 79.3522 74.8853C79.2345 74.9582 79.1392 75.0601 79.0663 75.1911C78.9951 75.322 78.9594 75.4736 78.9594 75.646V78H78.2162ZM85.4142 78.0845C85.1723 78.0845 84.9535 78.0398 84.758 77.9503C84.5624 77.8591 84.4075 77.7274 84.2931 77.555C84.1804 77.3827 84.1241 77.1714 84.1241 76.9212C84.1241 76.7057 84.1655 76.5284 84.2484 76.3892C84.3312 76.25 84.4431 76.1398 84.584 76.0586C84.7248 75.9774 84.8823 75.9161 85.0563 75.8746C85.2303 75.8332 85.4076 75.8017 85.5882 75.7802C85.8169 75.7537 86.0025 75.7321 86.145 75.7156C86.2876 75.6973 86.3911 75.6683 86.4558 75.6286C86.5204 75.5888 86.5527 75.5241 86.5527 75.4347V75.4173C86.5527 75.2002 86.4914 75.032 86.3688 74.9126C86.2478 74.7933 86.0672 74.7337 85.8269 74.7337C85.5766 74.7337 85.3794 74.7892 85.2352 74.9002C85.0927 75.0096 84.9941 75.1314 84.9394 75.2656L84.2409 75.1065C84.3238 74.8745 84.4448 74.6873 84.6039 74.5447C84.7646 74.4006 84.9494 74.2962 85.1582 74.2315C85.367 74.1652 85.5866 74.1321 85.8169 74.1321C85.9694 74.1321 86.131 74.1503 86.3017 74.1868C86.474 74.2216 86.6347 74.2862 86.7839 74.3807C86.9347 74.4751 87.0582 74.6102 87.1543 74.7859C87.2504 74.9599 87.2985 75.1861 87.2985 75.4645V78H86.5726V77.478H86.5428C86.4947 77.5741 86.4226 77.6686 86.3265 77.7614C86.2304 77.8542 86.1069 77.9312 85.9561 77.9925C85.8053 78.0539 85.6247 78.0845 85.4142 78.0845ZM85.5758 77.4879C85.7813 77.4879 85.957 77.4473 86.1028 77.3661C86.2503 77.2849 86.3621 77.1789 86.4384 77.0479C86.5163 76.9154 86.5552 76.7737 86.5552 76.6229V76.1307C86.5287 76.1572 86.4773 76.1821 86.4011 76.2053C86.3265 76.2268 86.2412 76.2459 86.145 76.2624C86.0489 76.2773 85.9553 76.2914 85.8642 76.3047C85.773 76.3163 85.6968 76.3262 85.6355 76.3345C85.4913 76.3527 85.3595 76.3834 85.2402 76.4265C85.1226 76.4696 85.0281 76.5317 84.9568 76.6129C84.8872 76.6925 84.8524 76.7985 84.8524 76.9311C84.8524 77.1151 84.9204 77.2543 85.0563 77.3487C85.1922 77.4415 85.3653 77.4879 85.5758 77.4879ZM88.1888 78V74.1818H88.932V78H88.1888ZM88.5642 73.5927C88.4349 73.5927 88.3239 73.5496 88.2311 73.4634C88.1399 73.3756 88.0943 73.2712 88.0943 73.1502C88.0943 73.0276 88.1399 72.9232 88.2311 72.837C88.3239 72.7492 88.4349 72.7053 88.5642 72.7053C88.6934 72.7053 88.8036 72.7492 88.8948 72.837C88.9876 72.9232 89.034 73.0276 89.034 73.1502C89.034 73.2712 88.9876 73.3756 88.8948 73.4634C88.8036 73.5496 88.6934 73.5927 88.5642 73.5927ZM90.5756 72.9091V78H89.8323V72.9091H90.5756ZM91.9656 78.0472C91.8297 78.0472 91.7128 77.9992 91.6151 77.9031C91.5173 77.8053 91.4684 77.6876 91.4684 77.5501C91.4684 77.4142 91.5173 77.2982 91.6151 77.2021C91.7128 77.1043 91.8297 77.0554 91.9656 77.0554C92.1015 77.0554 92.2183 77.1043 92.3161 77.2021C92.4138 77.2982 92.4627 77.4142 92.4627 77.5501C92.4627 77.6412 92.4395 77.7249 92.3931 77.8011C92.3484 77.8757 92.2887 77.9354 92.2141 77.9801C92.1396 78.0249 92.0567 78.0472 91.9656 78.0472ZM94.967 78.0771C94.5974 78.0771 94.2792 77.9934 94.0124 77.826C93.7473 77.657 93.5434 77.4241 93.4009 77.1275C93.2584 76.8308 93.1871 76.4911 93.1871 76.1083C93.1871 75.7205 93.2601 75.3783 93.4059 75.0817C93.5517 74.7834 93.7572 74.5505 94.0224 74.3832C94.2875 74.2158 94.5999 74.1321 94.9595 74.1321C95.2495 74.1321 95.508 74.186 95.7351 74.2937C95.9621 74.3997 96.1452 74.5489 96.2844 74.7411C96.4253 74.9334 96.509 75.1579 96.5355 75.4148H95.8121C95.7724 75.2358 95.6812 75.0817 95.5387 74.9524C95.3978 74.8232 95.2089 74.7585 94.9719 74.7585C94.7648 74.7585 94.5833 74.8132 94.4275 74.9226C94.2734 75.0303 94.1533 75.1844 94.0671 75.3849C93.9809 75.5838 93.9378 75.8191 93.9378 76.0909C93.9378 76.3693 93.9801 76.6096 94.0646 76.8118C94.1491 77.014 94.2685 77.1706 94.4226 77.2816C94.5784 77.3926 94.7615 77.4482 94.9719 77.4482C95.1128 77.4482 95.2404 77.4225 95.3547 77.3711C95.4708 77.3181 95.5677 77.2427 95.6456 77.1449C95.7251 77.0471 95.7806 76.9295 95.8121 76.7919H96.5355C96.509 77.0388 96.4286 77.2592 96.2944 77.4531C96.1601 77.647 95.9803 77.7995 95.755 77.9105C95.5312 78.0215 95.2686 78.0771 94.967 78.0771ZM98.839 78.0771C98.4811 78.0771 98.1687 77.995 97.9019 77.831C97.6351 77.6669 97.4279 77.4374 97.2804 77.1424C97.1329 76.8474 97.0592 76.5027 97.0592 76.1083C97.0592 75.7122 97.1329 75.3659 97.2804 75.0692C97.4279 74.7726 97.6351 74.5423 97.9019 74.3782C98.1687 74.2141 98.4811 74.1321 98.839 74.1321C99.197 74.1321 99.5093 74.2141 99.7762 74.3782C100.043 74.5423 100.25 74.7726 100.398 75.0692C100.545 75.3659 100.619 75.7122 100.619 76.1083C100.619 76.5027 100.545 76.8474 100.398 77.1424C100.25 77.4374 100.043 77.6669 99.7762 77.831C99.5093 77.995 99.197 78.0771 98.839 78.0771ZM98.8415 77.4531C99.0735 77.4531 99.2657 77.3918 99.4182 77.2692C99.5707 77.1465 99.6834 76.9833 99.7563 76.7795C99.8308 76.5756 99.8681 76.3511 99.8681 76.1058C99.8681 75.8622 99.8308 75.6385 99.7563 75.4347C99.6834 75.2292 99.5707 75.0643 99.4182 74.94C99.2657 74.8157 99.0735 74.7536 98.8415 74.7536C98.6078 74.7536 98.4139 74.8157 98.2598 74.94C98.1074 75.0643 97.9938 75.2292 97.9193 75.4347C97.8463 75.6385 97.8099 75.8622 97.8099 76.1058C97.8099 76.3511 97.8463 76.5756 97.9193 76.7795C97.9938 76.9833 98.1074 77.1465 98.2598 77.2692C98.4139 77.3918 98.6078 77.4531 98.8415 77.4531ZM101.349 78V74.1818H102.062V74.8033H102.109C102.189 74.5928 102.319 74.4287 102.5 74.3111C102.68 74.1918 102.897 74.1321 103.149 74.1321C103.404 74.1321 103.618 74.1918 103.79 74.3111C103.964 74.4304 104.092 74.5945 104.175 74.8033H104.215C104.306 74.5994 104.451 74.437 104.65 74.3161C104.849 74.1934 105.086 74.1321 105.361 74.1321C105.707 74.1321 105.99 74.2406 106.209 74.4577C106.429 74.6748 106.539 75.0021 106.539 75.4396V78H105.796V75.5092C105.796 75.2507 105.725 75.0634 105.585 74.9474C105.444 74.8314 105.276 74.7734 105.08 74.7734C104.838 74.7734 104.65 74.848 104.516 74.9972C104.382 75.1446 104.314 75.3344 104.314 75.5664V78H103.574V75.462C103.574 75.2549 103.509 75.0883 103.38 74.9624C103.25 74.8364 103.082 74.7734 102.875 74.7734C102.734 74.7734 102.604 74.8107 102.485 74.8853C102.367 74.9582 102.272 75.0601 102.199 75.1911C102.128 75.322 102.092 75.4736 102.092 75.646V78H101.349Z" fill="#A09FA6"/>
<rect x="168.048" y="61.69" width="12.6199" height="12.6199" rx="2.32472" stroke="#504F57" stroke-width="0.664207"/>
</svg>
