<svg width="180" height="88" viewBox="0 0 180 88" fill="none" xmlns="http://www.w3.org/2000/svg">
<g filter="url(#filter0_dd_448_48452)">
<rect x="19.1852" y="5.01367" width="142.523" height="67.6394" rx="7.1795" fill="white"/>
<g filter="url(#filter1_d_448_48452)">
<rect x="27.2621" y="12.6205" width="19.1453" height="19.1453" rx="4.78633" fill="white"/>
<path d="M40.0873 17.023L38.7565 18.256L40.0873 19.66V17.023Z" fill="#1A1523"/>
<path d="M40.0874 21.507V20.2654L38.4064 18.4701L37.2478 18.2613V17.0025V15.9951L34.5909 18.6214L32.1374 24.0969L35.9517 25.2468L34.3374 23.3091L35.3318 19.0891L36.6197 17.4725V20.0829L35.3318 21.2L38.2842 22.124L39.1016 21.6337L40.2193 22.4909C40.1427 22.8259 40.3163 23.1677 40.6317 23.3035L40.6448 23.3091C40.3736 23.775 39.9194 23.771 39.3921 23.5793L37.7399 22.8536L37.082 23.5793L38.4627 25.1788L37.0921 26.5094L33.4911 25.379L36.3051 28.3913L39.3921 26.2042L39.3837 24.4757C40.5008 24.774 41.2443 24.2001 41.5322 22.8671L40.0874 21.507ZM38.5534 21.2085L37.6948 20.5263H38.7554L38.9272 20.863L38.5534 21.2085Z" fill="#1A1523"/>
<rect x="27.7109" y="13.0693" width="18.2479" height="18.2479" rx="4.33761" stroke="#E9E8EA" stroke-width="0.897437"/>
</g>
<path d="M52.0802 20.1932H51.0705L52.9088 14.9717H54.0764L55.9172 20.1932H54.9076L53.513 16.0425H53.4722L52.0802 20.1932ZM52.1133 18.1459H54.8668V18.9057H52.1133V18.1459ZM58.1532 20.2697C57.7622 20.2697 57.4265 20.1838 57.1461 20.0122C56.8673 19.8405 56.6523 19.6034 56.5011 19.3008C56.3515 18.9966 56.2767 18.6465 56.2767 18.2504C56.2767 17.8527 56.3532 17.5017 56.5062 17.1975C56.6591 16.8915 56.875 16.6536 57.1537 16.4836C57.4342 16.3119 57.7656 16.2261 58.1481 16.2261C58.4659 16.2261 58.7472 16.2847 58.992 16.402C59.2384 16.5176 59.4347 16.6816 59.5809 16.8941C59.7271 17.1048 59.8104 17.3513 59.8307 17.6334H58.9486C58.9129 17.4448 58.8279 17.2876 58.6937 17.1618C58.5611 17.0343 58.3835 16.9706 58.1608 16.9706C57.9721 16.9706 57.8064 17.0216 57.6636 17.1235C57.5209 17.2238 57.4095 17.3683 57.3297 17.557C57.2515 17.7456 57.2124 17.9717 57.2124 18.2351C57.2124 18.502 57.2515 18.7314 57.3297 18.9235C57.4078 19.1139 57.5175 19.2609 57.6585 19.3646C57.8013 19.4666 57.9687 19.5175 58.1608 19.5175C58.2968 19.5175 58.4183 19.4921 58.5254 19.4411C58.6342 19.3884 58.7251 19.3127 58.7982 19.2142C58.8713 19.1156 58.9214 18.9957 58.9486 18.8547H59.8307C59.8087 19.1317 59.7271 19.3773 59.586 19.5915C59.4449 19.8039 59.2529 19.9705 59.0098 20.0912C58.7667 20.2102 58.4812 20.2697 58.1532 20.2697ZM60.5886 20.1932V16.2771H61.4707V16.9425H61.5166C61.5982 16.7182 61.7333 16.5431 61.922 16.4173C62.1107 16.2898 62.3359 16.2261 62.5976 16.2261C62.8628 16.2261 63.0863 16.2907 63.2682 16.4199C63.4517 16.5473 63.5809 16.7216 63.6557 16.9425H63.6965C63.7832 16.725 63.9293 16.5516 64.135 16.4224C64.3424 16.2915 64.588 16.2261 64.8718 16.2261C65.2322 16.2261 65.5262 16.34 65.754 16.5677C65.9817 16.7955 66.0956 17.1278 66.0956 17.5646V20.1932H65.1701V17.7074C65.1701 17.4643 65.1055 17.2867 64.9764 17.1745C64.8472 17.0606 64.6891 17.0037 64.5021 17.0037C64.2795 17.0037 64.1053 17.0734 63.9795 17.2128C63.8554 17.3504 63.7934 17.5298 63.7934 17.7507V20.1932H62.8883V17.6691C62.8883 17.4669 62.8271 17.3054 62.7047 17.1847C62.584 17.064 62.426 17.0037 62.2305 17.0037C62.0979 17.0037 61.9772 17.0377 61.8685 17.1057C61.7597 17.172 61.673 17.2663 61.6084 17.3887C61.5438 17.5094 61.5115 17.6504 61.5115 17.8119V20.1932H60.5886ZM68.7656 20.2697C68.373 20.2697 68.0339 20.1881 67.7483 20.0249C67.4645 19.86 67.2461 19.6272 67.0931 19.3263C66.9401 19.0238 66.8636 18.6677 66.8636 18.2581C66.8636 17.8553 66.9401 17.5017 67.0931 17.1975C67.2478 16.8915 67.4636 16.6536 67.7407 16.4836C68.0177 16.3119 68.3432 16.2261 68.7172 16.2261C68.9585 16.2261 69.1863 16.2652 69.4004 16.3434C69.6163 16.4199 69.8067 16.5388 69.9715 16.7003C70.1381 16.8618 70.269 17.0674 70.3642 17.3173C70.4593 17.5655 70.5069 17.8612 70.5069 18.2045V18.4875H67.2971V17.8654H69.6222C69.6205 17.6887 69.5823 17.5315 69.5075 17.3938C69.4327 17.2544 69.3282 17.1448 69.1939 17.0649C69.0613 16.985 68.9067 16.9451 68.7299 16.9451C68.5412 16.9451 68.3755 16.991 68.2327 17.0827C68.09 17.1728 67.9786 17.2918 67.8988 17.4397C67.8206 17.5858 67.7806 17.7465 67.7789 17.9215V18.4646C67.7789 18.6923 67.8206 18.8878 67.9039 19.051C67.9871 19.2125 68.1036 19.3365 68.2531 19.4232C68.4027 19.5082 68.5778 19.5507 68.7783 19.5507C68.9126 19.5507 69.0342 19.532 69.1429 19.4946C69.2517 19.4555 69.346 19.3986 69.4259 19.3238C69.5058 19.249 69.5662 19.1564 69.6069 19.0459L70.4687 19.1428C70.4143 19.3705 70.3106 19.5694 70.1576 19.7394C70.0064 19.9076 69.8126 20.0385 69.5764 20.132C69.3401 20.2238 69.0698 20.2697 68.7656 20.2697ZM72.0704 14.9717V15.4918C72.0704 15.6414 72.0415 15.7969 71.9838 15.9584C71.9277 16.1182 71.8503 16.2711 71.7517 16.4173C71.6532 16.5618 71.541 16.6859 71.4152 16.7895L70.9869 16.5116C71.0804 16.3706 71.162 16.2184 71.2316 16.0553C71.3013 15.8904 71.3362 15.7043 71.3362 15.4969V14.9717H72.0704ZM75.4065 17.3122L74.5652 17.404C74.5414 17.319 74.4997 17.2391 74.4402 17.1643C74.3824 17.0895 74.3043 17.0292 74.2057 16.9833C74.1071 16.9374 73.9864 16.9145 73.8436 16.9145C73.6516 16.9145 73.4901 16.9561 73.3592 17.0394C73.2301 17.1227 73.1663 17.2306 73.168 17.3632C73.1663 17.4771 73.208 17.5697 73.2929 17.6411C73.3796 17.7125 73.5224 17.7711 73.7213 17.817L74.3892 17.9598C74.7598 18.0397 75.0351 18.1663 75.2153 18.3397C75.3972 18.513 75.4889 18.7399 75.4906 19.0204C75.4889 19.2668 75.4167 19.4844 75.2739 19.6731C75.1329 19.86 74.9365 20.0062 74.685 20.1116C74.4334 20.217 74.1445 20.2697 73.8181 20.2697C73.3388 20.2697 72.953 20.1694 72.6607 19.9688C72.3683 19.7666 72.1941 19.4853 72.138 19.1249L73.038 19.0382C73.0788 19.215 73.1655 19.3484 73.298 19.4385C73.4306 19.5286 73.6031 19.5736 73.8156 19.5736C74.0349 19.5736 74.2108 19.5286 74.3434 19.4385C74.4776 19.3484 74.5448 19.2371 74.5448 19.1045C74.5448 18.9923 74.5014 18.8997 74.4147 18.8266C74.3298 18.7535 74.1972 18.6974 74.017 18.6584L73.349 18.5181C72.9734 18.4399 72.6955 18.3082 72.5153 18.123C72.3352 17.936 72.2459 17.6997 72.2476 17.4142C72.2459 17.1728 72.3114 16.9638 72.4439 16.787C72.5782 16.6085 72.7643 16.4709 73.0023 16.374C73.242 16.2754 73.5182 16.2261 73.8309 16.2261C74.2898 16.2261 74.651 16.3238 74.9144 16.5193C75.1796 16.7148 75.3436 16.9791 75.4065 17.3122ZM78.0733 20.1932V14.9717H79.0192V17.3708H79.0829L81.12 14.9717H82.275L80.2557 17.3147L82.2928 20.1932H81.1557L79.5979 17.9547L79.0192 18.638V20.1932H78.0733ZM84.0182 20.2722C83.7701 20.2722 83.5465 20.228 83.3477 20.1396C83.1505 20.0496 82.9941 19.917 82.8786 19.7419C82.7647 19.5668 82.7077 19.351 82.7077 19.0943C82.7077 18.8734 82.7485 18.6906 82.8301 18.5462C82.9117 18.4017 83.023 18.2861 83.1641 18.1994C83.3052 18.1128 83.4641 18.0473 83.6409 18.0031C83.8193 17.9572 84.0038 17.9241 84.1941 17.9037C84.4236 17.8799 84.6097 17.8587 84.7525 17.84C84.8952 17.8196 84.9989 17.789 85.0635 17.7482C85.1298 17.7057 85.1629 17.6402 85.1629 17.5519V17.5366C85.1629 17.3445 85.106 17.1958 84.9921 17.0904C84.8783 16.985 84.7142 16.9323 84.5001 16.9323C84.274 16.9323 84.0947 16.9816 83.9621 17.0802C83.8312 17.1788 83.7429 17.2952 83.697 17.4295L82.8352 17.3071C82.9032 17.0691 83.0154 16.8703 83.1718 16.7105C83.3281 16.549 83.5193 16.4284 83.7454 16.3485C83.9715 16.2669 84.2213 16.2261 84.495 16.2261C84.6836 16.2261 84.8715 16.2482 85.0584 16.2924C85.2454 16.3366 85.4162 16.4097 85.5709 16.5116C85.7255 16.6119 85.8496 16.7488 85.9431 16.9221C86.0383 17.0955 86.0859 17.3122 86.0859 17.5723V20.1932H85.1986V19.6552H85.168C85.112 19.764 85.0329 19.866 84.9309 19.9612C84.8307 20.0547 84.704 20.1303 84.5511 20.1881C84.3998 20.2442 84.2222 20.2722 84.0182 20.2722ZM84.2579 19.594C84.4431 19.594 84.6037 19.5575 84.7397 19.4844C84.8757 19.4096 84.9802 19.311 85.0533 19.1887C85.1281 19.0663 85.1655 18.9329 85.1655 18.7884V18.3269C85.1366 18.3507 85.0873 18.3728 85.0176 18.3932C84.9496 18.4136 84.8732 18.4314 84.7882 18.4467C84.7032 18.462 84.619 18.4756 84.5358 18.4875C84.4525 18.4994 84.3802 18.5096 84.3191 18.5181C84.1814 18.5368 84.0581 18.5674 83.9494 18.6099C83.8406 18.6524 83.7548 18.7119 83.6919 18.7884C83.629 18.8632 83.5975 18.9601 83.5975 19.079C83.5975 19.249 83.6596 19.3773 83.7836 19.464C83.9077 19.5507 84.0658 19.594 84.2579 19.594ZM88.9975 16.2771V16.991H86.6825V16.2771H88.9975ZM87.2612 20.1932V15.9074C87.2612 15.644 87.3156 15.4247 87.4244 15.2496C87.5349 15.0746 87.6827 14.9437 87.868 14.857C88.0533 14.7703 88.2589 14.727 88.485 14.727C88.6448 14.727 88.7867 14.7397 88.9108 14.7652C89.0348 14.7907 89.1266 14.8137 89.1861 14.834L89.0026 15.5479C88.9635 15.536 88.9142 15.5241 88.8547 15.5122C88.7952 15.4986 88.7289 15.4918 88.6558 15.4918C88.4841 15.4918 88.3626 15.5335 88.2912 15.6168C88.2215 15.6983 88.1867 15.8156 88.1867 15.9686V20.1932H87.2612ZM90.5616 18.9643L90.559 17.8502H90.7069L92.1143 16.2771H93.1927L91.4616 18.2045H91.2704L90.5616 18.9643ZM89.7202 20.1932V14.9717H90.6432V20.1932H89.7202ZM92.178 20.1932L90.9032 18.411L91.5253 17.7609L93.2819 20.1932H92.178ZM94.9347 20.2722C94.6865 20.2722 94.463 20.228 94.2642 20.1396C94.067 20.0496 93.9106 19.917 93.795 19.7419C93.6812 19.5668 93.6242 19.351 93.6242 19.0943C93.6242 18.8734 93.665 18.6906 93.7466 18.5462C93.8282 18.4017 93.9395 18.2861 94.0806 18.1994C94.2217 18.1128 94.3806 18.0473 94.5574 18.0031C94.7358 17.9572 94.9202 17.9241 95.1106 17.9037C95.3401 17.8799 95.5262 17.8587 95.669 17.84C95.8117 17.8196 95.9154 17.789 95.98 17.7482C96.0463 17.7057 96.0794 17.6402 96.0794 17.5519V17.5366C96.0794 17.3445 96.0225 17.1958 95.9086 17.0904C95.7947 16.985 95.6307 16.9323 95.4165 16.9323C95.1905 16.9323 95.0112 16.9816 94.8786 17.0802C94.7477 17.1788 94.6593 17.2952 94.6134 17.4295L93.7517 17.3071C93.8197 17.0691 93.9319 16.8703 94.0882 16.7105C94.2446 16.549 94.4358 16.4284 94.6619 16.3485C94.8879 16.2669 95.1378 16.2261 95.4114 16.2261C95.6001 16.2261 95.7879 16.2482 95.9749 16.2924C96.1619 16.3366 96.3327 16.4097 96.4874 16.5116C96.642 16.6119 96.7661 16.7488 96.8596 16.9221C96.9548 17.0955 97.0024 17.3122 97.0024 17.5723V20.1932H96.1151V19.6552H96.0845C96.0284 19.764 95.9494 19.866 95.8474 19.9612C95.7471 20.0547 95.6205 20.1303 95.4675 20.1881C95.3163 20.2442 95.1386 20.2722 94.9347 20.2722ZM95.1743 19.594C95.3596 19.594 95.5202 19.5575 95.6562 19.4844C95.7922 19.4096 95.8967 19.311 95.9698 19.1887C96.0446 19.0663 96.082 18.9329 96.082 18.7884V18.3269C96.0531 18.3507 96.0038 18.3728 95.9341 18.3932C95.8661 18.4136 95.7896 18.4314 95.7046 18.4467C95.6197 18.462 95.5355 18.4756 95.4522 18.4875C95.369 18.4994 95.2967 18.5096 95.2355 18.5181C95.0979 18.5368 94.9746 18.5674 94.8658 18.6099C94.7571 18.6524 94.6712 18.7119 94.6083 18.7884C94.5455 18.8632 94.514 18.9601 94.514 19.079C94.514 19.249 94.5761 19.3773 94.7001 19.464C94.8242 19.5507 94.9823 19.594 95.1743 19.594ZM99.752 20.1932V14.9717H101.71C102.111 14.9717 102.448 15.0465 102.72 15.1961C102.993 15.3457 103.2 15.5513 103.339 15.8131C103.48 16.0731 103.551 16.3689 103.551 16.7003C103.551 17.0351 103.48 17.3326 103.339 17.5926C103.198 17.8527 102.99 18.0575 102.715 18.2071C102.439 18.355 102.1 18.4289 101.697 18.4289H100.4V17.6513H101.57C101.804 17.6513 101.996 17.6105 102.146 17.5289C102.296 17.4473 102.406 17.3351 102.477 17.1924C102.551 17.0496 102.587 16.8856 102.587 16.7003C102.587 16.515 102.551 16.3519 102.477 16.2108C102.406 16.0697 102.295 15.9601 102.144 15.8819C101.994 15.802 101.801 15.7621 101.565 15.7621H100.698V20.1932H99.752ZM105.255 14.9717V20.1932H104.332V14.9717H105.255ZM107.331 20.2722C107.082 20.2722 106.859 20.228 106.66 20.1396C106.463 20.0496 106.306 19.917 106.191 19.7419C106.077 19.5668 106.02 19.351 106.02 19.0943C106.02 18.8734 106.061 18.6906 106.142 18.5462C106.224 18.4017 106.335 18.2861 106.476 18.1994C106.618 18.1128 106.776 18.0473 106.953 18.0031C107.132 17.9572 107.316 17.9241 107.506 17.9037C107.736 17.8799 107.922 17.8587 108.065 17.84C108.208 17.8196 108.311 17.789 108.376 17.7482C108.442 17.7057 108.475 17.6402 108.475 17.5519V17.5366C108.475 17.3445 108.418 17.1958 108.304 17.0904C108.191 16.985 108.027 16.9323 107.812 16.9323C107.586 16.9323 107.407 16.9816 107.274 17.0802C107.144 17.1788 107.055 17.2952 107.009 17.4295L106.148 17.3071C106.216 17.0691 106.328 16.8703 106.484 16.7105C106.64 16.549 106.832 16.4284 107.058 16.3485C107.284 16.2669 107.534 16.2261 107.807 16.2261C107.996 16.2261 108.184 16.2482 108.371 16.2924C108.558 16.3366 108.729 16.4097 108.883 16.5116C109.038 16.6119 109.162 16.7488 109.255 16.9221C109.351 17.0955 109.398 17.3122 109.398 17.5723V20.1932H108.511V19.6552H108.48C108.424 19.764 108.345 19.866 108.243 19.9612C108.143 20.0547 108.016 20.1303 107.863 20.1881C107.712 20.2442 107.534 20.2722 107.331 20.2722ZM107.57 19.594C107.755 19.594 107.916 19.5575 108.052 19.4844C108.188 19.4096 108.293 19.311 108.366 19.1887C108.44 19.0663 108.478 18.9329 108.478 18.7884V18.3269C108.449 18.3507 108.4 18.3728 108.33 18.3932C108.262 18.4136 108.185 18.4314 108.1 18.4467C108.016 18.462 107.931 18.4756 107.848 18.4875C107.765 18.4994 107.693 18.5096 107.631 18.5181C107.494 18.5368 107.37 18.5674 107.262 18.6099C107.153 18.6524 107.067 18.7119 107.004 18.7884C106.941 18.8632 106.91 18.9601 106.91 19.079C106.91 19.249 106.972 19.3773 107.096 19.464C107.22 19.5507 107.378 19.594 107.57 19.594ZM110.76 21.6617C110.634 21.6617 110.517 21.6515 110.41 21.6311C110.305 21.6124 110.221 21.5903 110.158 21.5648L110.372 20.8459C110.506 20.885 110.626 20.9036 110.732 20.9019C110.837 20.9002 110.93 20.8671 111.01 20.8025C111.091 20.7396 111.16 20.6342 111.216 20.4864L111.295 20.2748L109.875 16.2771H110.854L111.757 19.2346H111.797L112.702 16.2771H113.684L112.116 20.6674C112.043 20.8748 111.946 21.0524 111.825 21.2002C111.705 21.3498 111.557 21.4637 111.382 21.5419C111.208 21.6218 111.001 21.6617 110.76 21.6617ZM115.893 21.7433C115.561 21.7433 115.276 21.6983 115.038 21.6082C114.8 21.5198 114.609 21.4008 114.465 21.2512C114.32 21.1017 114.22 20.9359 114.164 20.7541L114.995 20.5527C115.032 20.6291 115.087 20.7048 115.158 20.7796C115.23 20.8561 115.326 20.9189 115.446 20.9682C115.569 21.0192 115.723 21.0447 115.908 21.0447C116.17 21.0447 116.386 20.981 116.558 20.8535C116.73 20.7277 116.815 20.5204 116.815 20.2314V19.4895H116.77C116.722 19.5847 116.652 19.6824 116.56 19.7827C116.47 19.883 116.351 19.9671 116.201 20.0351C116.053 20.1031 115.867 20.1371 115.643 20.1371C115.342 20.1371 115.069 20.0665 114.824 19.9255C114.581 19.7827 114.387 19.5702 114.243 19.2881C114.1 19.0042 114.029 18.649 114.029 18.2224C114.029 17.7924 114.1 17.4295 114.243 17.1337C114.387 16.8363 114.582 16.6111 114.827 16.4581C115.072 16.3034 115.344 16.2261 115.645 16.2261C115.875 16.2261 116.063 16.2652 116.211 16.3434C116.361 16.4199 116.48 16.5125 116.568 16.6213C116.657 16.7284 116.724 16.8295 116.77 16.9247H116.821V16.2771H117.731V20.2569C117.731 20.5918 117.651 20.8688 117.491 21.0881C117.331 21.3073 117.113 21.4713 116.836 21.5801C116.559 21.6889 116.244 21.7433 115.893 21.7433ZM115.9 19.413C116.096 19.413 116.262 19.3654 116.4 19.2702C116.538 19.1751 116.642 19.0382 116.713 18.8598C116.785 18.6813 116.821 18.4671 116.821 18.2173C116.821 17.9708 116.785 17.755 116.713 17.5697C116.644 17.3844 116.54 17.2408 116.402 17.1388C116.266 17.0351 116.099 16.9833 115.9 16.9833C115.695 16.9833 115.523 17.0368 115.385 17.1439C115.247 17.251 115.144 17.398 115.074 17.585C115.004 17.7703 114.97 17.981 114.97 18.2173C114.97 18.4569 115.004 18.6669 115.074 18.847C115.146 19.0255 115.25 19.1649 115.388 19.2651C115.527 19.3637 115.698 19.413 115.9 19.413ZM118.677 20.1932V16.2771H119.571V16.9298H119.612C119.684 16.7037 119.806 16.5295 119.979 16.4071C120.154 16.283 120.354 16.221 120.579 16.221C120.63 16.221 120.686 16.2235 120.749 16.2286C120.814 16.232 120.868 16.238 120.91 16.2465V17.0955C120.871 17.0819 120.809 17.07 120.724 17.0598C120.641 17.0479 120.56 17.0419 120.482 17.0419C120.313 17.0419 120.162 17.0785 120.028 17.1516C119.895 17.223 119.791 17.3224 119.714 17.4499C119.638 17.5774 119.6 17.7244 119.6 17.8909V20.1932H118.677ZM123.07 20.2697C122.688 20.2697 122.356 20.1855 122.076 20.0173C121.795 19.849 121.578 19.6136 121.423 19.311C121.27 19.0085 121.194 18.655 121.194 18.2504C121.194 17.8459 121.27 17.4915 121.423 17.1873C121.578 16.883 121.795 16.6468 122.076 16.4785C122.356 16.3102 122.688 16.2261 123.07 16.2261C123.453 16.2261 123.784 16.3102 124.064 16.4785C124.345 16.6468 124.562 16.883 124.715 17.1873C124.869 17.4915 124.947 17.8459 124.947 18.2504C124.947 18.655 124.869 19.0085 124.715 19.311C124.562 19.6136 124.345 19.849 124.064 20.0173C123.784 20.1855 123.453 20.2697 123.07 20.2697ZM123.075 19.5303C123.283 19.5303 123.456 19.4734 123.595 19.3595C123.735 19.2439 123.838 19.0892 123.906 18.8955C123.976 18.7017 124.011 18.4858 124.011 18.2479C124.011 18.0082 123.976 17.7915 123.906 17.5977C123.838 17.4023 123.735 17.2468 123.595 17.1312C123.456 17.0156 123.283 16.9578 123.075 16.9578C122.863 16.9578 122.686 17.0156 122.545 17.1312C122.406 17.2468 122.301 17.4023 122.231 17.5977C122.163 17.7915 122.129 18.0082 122.129 18.2479C122.129 18.4858 122.163 18.7017 122.231 18.8955C122.301 19.0892 122.406 19.2439 122.545 19.3595C122.686 19.4734 122.863 19.5303 123.075 19.5303ZM128.226 18.5462V16.2771H129.149V20.1932H128.254V19.4972H128.213C128.125 19.7164 127.979 19.8957 127.777 20.0351C127.577 20.1745 127.329 20.2442 127.035 20.2442C126.779 20.2442 126.552 20.1872 126.355 20.0733C126.159 19.9578 126.006 19.7903 125.896 19.5711C125.785 19.3501 125.73 19.0833 125.73 18.7705V16.2771H126.653V18.6278C126.653 18.8759 126.721 19.0731 126.857 19.2193C126.993 19.3654 127.171 19.4385 127.392 19.4385C127.528 19.4385 127.66 19.4054 127.787 19.3391C127.915 19.2728 128.019 19.1742 128.101 19.0433C128.184 18.9108 128.226 18.745 128.226 18.5462ZM131.021 17.8986V20.1932H130.098V16.2771H130.98V16.9425H131.026C131.116 16.7233 131.26 16.549 131.457 16.4199C131.656 16.2907 131.901 16.2261 132.194 16.2261C132.464 16.2261 132.699 16.2839 132.9 16.3995C133.102 16.515 133.258 16.6825 133.369 16.9017C133.481 17.121 133.536 17.387 133.535 17.6997V20.1932H132.612V17.8425C132.612 17.5808 132.544 17.3759 132.408 17.2281C132.273 17.0802 132.087 17.0063 131.849 17.0063C131.688 17.0063 131.544 17.0419 131.419 17.1133C131.294 17.183 131.197 17.2842 131.125 17.4167C131.056 17.5493 131.021 17.7099 131.021 17.8986ZM135.926 20.262C135.618 20.262 135.343 20.183 135.1 20.0249C134.857 19.8668 134.665 19.6374 134.524 19.3365C134.383 19.0357 134.312 18.6703 134.312 18.2402C134.312 17.8051 134.384 17.438 134.526 17.1388C134.671 16.838 134.866 16.6111 135.11 16.4581C135.355 16.3034 135.628 16.2261 135.929 16.2261C136.158 16.2261 136.347 16.2652 136.495 16.3434C136.643 16.4199 136.76 16.5125 136.847 16.6213C136.933 16.7284 137 16.8295 137.048 16.9247H137.086V14.9717H138.012V20.1932H137.104V19.5762H137.048C137 19.6714 136.932 19.7725 136.841 19.8796C136.751 19.985 136.632 20.075 136.484 20.1498C136.337 20.2246 136.15 20.262 135.926 20.262ZM136.184 19.5048C136.379 19.5048 136.546 19.4521 136.683 19.3467C136.821 19.2396 136.926 19.0909 136.997 18.9006C137.068 18.7102 137.104 18.4884 137.104 18.2351C137.104 17.9819 137.068 17.7618 136.997 17.5748C136.927 17.3878 136.824 17.2425 136.686 17.1388C136.55 17.0351 136.383 16.9833 136.184 16.9833C135.978 16.9833 135.806 17.0368 135.669 17.1439C135.531 17.251 135.427 17.3989 135.358 17.5875C135.288 17.7762 135.253 17.9921 135.253 18.2351C135.253 18.4799 135.288 18.6983 135.358 18.8904C135.429 19.0807 135.534 19.2312 135.671 19.3416C135.811 19.4504 135.981 19.5048 136.184 19.5048Z" fill="#1A1523"/>
<path d="M54.4389 27.1541L53.8984 27.3071C53.8644 27.217 53.8143 27.1295 53.748 27.0445C53.6834 26.9578 53.595 26.8864 53.4828 26.8303C53.3706 26.7742 53.227 26.7462 53.052 26.7462C52.8123 26.7462 52.6126 26.8014 52.4528 26.9119C52.2947 27.0207 52.2157 27.1592 52.2157 27.3275C52.2157 27.4771 52.2701 27.5952 52.3789 27.6819C52.4877 27.7686 52.6576 27.8408 52.8888 27.8986L53.4701 28.0414C53.8202 28.1264 54.0811 28.2564 54.2528 28.4314C54.4245 28.6048 54.5103 28.8283 54.5103 29.102C54.5103 29.3263 54.4457 29.5269 54.3165 29.7037C54.189 29.8804 54.0106 30.0198 53.7811 30.1218C53.5517 30.2238 53.2848 30.2748 52.9806 30.2748C52.5811 30.2748 52.2505 30.1881 51.9888 30.0147C51.727 29.8413 51.5613 29.5881 51.4916 29.2549L52.0627 29.1122C52.1171 29.3229 52.22 29.481 52.3712 29.5864C52.5242 29.6918 52.7239 29.7445 52.9704 29.7445C53.2508 29.7445 53.4735 29.685 53.6383 29.566C53.8049 29.4453 53.8882 29.3008 53.8882 29.1326C53.8882 28.9966 53.8406 28.8827 53.7454 28.7909C53.6502 28.6974 53.5041 28.6278 53.3069 28.5819L52.6542 28.4289C52.2956 28.3439 52.0321 28.2122 51.8639 28.0337C51.6973 27.8536 51.614 27.6283 51.614 27.3581C51.614 27.1371 51.6761 26.9417 51.8001 26.7717C51.9259 26.6017 52.0967 26.4683 52.3126 26.3714C52.5301 26.2745 52.7766 26.2261 53.052 26.2261C53.4395 26.2261 53.7437 26.3111 53.9647 26.4811C54.1873 26.651 54.3454 26.8754 54.4389 27.1541ZM56.0177 27.8374V30.1932H55.416V24.9717H56.0177V26.889H56.0687C56.1605 26.6867 56.2981 26.5261 56.4817 26.4071C56.667 26.2864 56.9134 26.2261 57.2211 26.2261C57.4879 26.2261 57.7216 26.2796 57.9222 26.3867C58.1228 26.4921 58.2783 26.6544 58.3888 26.8737C58.5009 27.0912 58.557 27.3683 58.557 27.7048V30.1932H57.9553V27.7456C57.9553 27.4346 57.8746 27.1941 57.7131 27.0241C57.5534 26.8524 57.3316 26.7666 57.0477 26.7666C56.8505 26.7666 56.6738 26.8082 56.5174 26.8915C56.3627 26.9748 56.2404 27.0963 56.1503 27.2561C56.0619 27.4159 56.0177 27.6096 56.0177 27.8374ZM60.8102 30.285C60.562 30.285 60.3368 30.2382 60.1346 30.1447C59.9323 30.0496 59.7717 29.9127 59.6527 29.7343C59.5337 29.5541 59.4742 29.3365 59.4742 29.0816C59.4742 28.8572 59.5184 28.6754 59.6068 28.536C59.6952 28.3949 59.8133 28.2844 59.9612 28.2045C60.1091 28.1247 60.2722 28.0652 60.4507 28.0261C60.6309 27.9853 60.8119 27.953 60.9938 27.9292C61.2317 27.8986 61.4246 27.8756 61.5725 27.8603C61.7221 27.8434 61.8309 27.8153 61.8988 27.7762C61.9685 27.7371 62.0034 27.6691 62.0034 27.5723V27.5519C62.0034 27.3003 61.9345 27.1048 61.7969 26.9655C61.6609 26.8261 61.4544 26.7564 61.1773 26.7564C60.8901 26.7564 60.6649 26.8193 60.5017 26.9451C60.3385 27.0708 60.2238 27.2051 60.1575 27.3479L59.5864 27.1439C59.6884 26.906 59.8244 26.7207 59.9943 26.5881C60.166 26.4539 60.353 26.3604 60.5552 26.3077C60.7592 26.2533 60.9598 26.2261 61.1569 26.2261C61.2827 26.2261 61.4272 26.2414 61.5904 26.272C61.7552 26.3009 61.9141 26.3612 62.0671 26.453C62.2218 26.5448 62.3501 26.6833 62.4521 26.8686C62.5541 27.0538 62.6051 27.302 62.6051 27.613V30.1932H62.0034V29.6629H61.9728C61.932 29.7479 61.864 29.8388 61.7688 29.9357C61.6736 30.0326 61.547 30.115 61.3889 30.183C61.2309 30.251 61.038 30.285 60.8102 30.285ZM60.902 29.7445C61.1399 29.7445 61.3405 29.6977 61.5037 29.6042C61.6685 29.5108 61.7926 29.3901 61.8759 29.2422C61.9609 29.0943 62.0034 28.9388 62.0034 28.7756V28.2249C61.9779 28.2555 61.9218 28.2836 61.8351 28.3091C61.7501 28.3329 61.6515 28.3541 61.5394 28.3728C61.4289 28.3898 61.3209 28.4051 61.2156 28.4187C61.1119 28.4306 61.0278 28.4408 60.9632 28.4493C60.8068 28.4697 60.6606 28.5028 60.5246 28.5487C60.3904 28.5929 60.2816 28.6601 60.1983 28.7501C60.1167 28.8385 60.0759 28.9592 60.0759 29.1122C60.0759 29.3212 60.1533 29.4793 60.3079 29.5864C60.4643 29.6918 60.6623 29.7445 60.902 29.7445ZM63.7033 30.1932V26.2771H64.2846V26.8686H64.3254C64.3968 26.6748 64.5259 26.5176 64.7129 26.3969C64.8999 26.2762 65.1106 26.2159 65.3452 26.2159C65.3894 26.2159 65.4446 26.2167 65.5109 26.2184C65.5772 26.2201 65.6273 26.2227 65.6613 26.2261V26.838C65.6409 26.8329 65.5942 26.8252 65.5211 26.815C65.4497 26.8031 65.3741 26.7972 65.2942 26.7972C65.1038 26.7972 64.9339 26.8371 64.7843 26.917C64.6364 26.9952 64.5191 27.104 64.4324 27.2434C64.3475 27.381 64.305 27.5383 64.305 27.715V30.1932H63.7033ZM67.8973 30.2748C67.5199 30.2748 67.1944 30.1915 66.9208 30.0249C66.6488 29.8566 66.4389 29.6221 66.2911 29.3212C66.1449 29.0187 66.0718 28.6669 66.0718 28.2657C66.0718 27.8646 66.1449 27.5111 66.2911 27.2051C66.4389 26.8975 66.6446 26.6578 66.908 26.4861C67.1732 26.3128 67.4825 26.2261 67.8361 26.2261C68.04 26.2261 68.2415 26.2601 68.4403 26.3281C68.6392 26.3961 68.8202 26.5065 68.9834 26.6595C69.1465 26.8108 69.2766 27.0114 69.3734 27.2612C69.4703 27.5111 69.5188 27.8187 69.5188 28.1841V28.4391H66.5001V27.919H68.9069C68.9069 27.698 68.8627 27.5009 68.7743 27.3275C68.6876 27.1541 68.5635 27.0173 68.4021 26.917C68.2423 26.8167 68.0536 26.7666 67.8361 26.7666C67.5964 26.7666 67.3891 26.8261 67.214 26.9451C67.0406 27.0623 66.9072 27.2153 66.8137 27.404C66.7202 27.5926 66.6735 27.7949 66.6735 28.0108V28.3575C66.6735 28.6533 66.7245 28.904 66.8265 29.1096C66.9301 29.3136 67.0738 29.4691 67.2573 29.5762C67.4409 29.6816 67.6542 29.7343 67.8973 29.7343C68.0553 29.7343 68.1981 29.7122 68.3256 29.668C68.4548 29.6221 68.5661 29.5541 68.6596 29.464C68.7531 29.3722 68.8253 29.2583 68.8763 29.1224L69.4576 29.2855C69.3964 29.4827 69.2936 29.6561 69.1491 29.8056C69.0046 29.9535 68.8261 30.0691 68.6137 30.1524C68.4012 30.234 68.1624 30.2748 67.8973 30.2748ZM71.9128 30.2748C71.5864 30.2748 71.2983 30.1923 71.0485 30.0275C70.7986 29.8609 70.6032 29.6263 70.4621 29.3238C70.321 29.0195 70.2505 28.6601 70.2505 28.2453C70.2505 27.834 70.321 27.4771 70.4621 27.1745C70.6032 26.872 70.7995 26.6383 71.051 26.4734C71.3026 26.3085 71.5932 26.2261 71.923 26.2261C72.1779 26.2261 72.3794 26.2686 72.5272 26.3536C72.6768 26.4369 72.7907 26.532 72.8689 26.6391C72.9487 26.7445 73.0108 26.8312 73.055 26.8992H73.106V24.9717H73.7077V30.1932H73.1264V29.5915H73.055C73.0108 29.6629 72.9479 29.753 72.8663 29.8617C72.7847 29.9688 72.6683 30.0648 72.517 30.1498C72.3658 30.2331 72.1643 30.2748 71.9128 30.2748ZM71.9944 29.7343C72.2357 29.7343 72.4397 29.6714 72.6063 29.5456C72.7728 29.4181 72.8995 29.2422 72.9861 29.0178C73.0728 28.7918 73.1162 28.5309 73.1162 28.2351C73.1162 27.9428 73.0737 27.687 72.9887 27.4677C72.9037 27.2468 72.7779 27.0751 72.6114 26.9527C72.4448 26.8286 72.2391 26.7666 71.9944 26.7666C71.7394 26.7666 71.527 26.832 71.357 26.9629C71.1887 27.0921 71.0621 27.268 70.9771 27.4907C70.8938 27.7116 70.8522 27.9598 70.8522 28.2351C70.8522 28.5139 70.8947 28.7671 70.9797 28.9949C71.0663 29.221 71.1938 29.4011 71.3621 29.5354C71.5321 29.668 71.7428 29.7343 71.9944 29.7343ZM77.1368 27.6742V28.2351H74.8524V27.6742H77.1368ZM79.3479 30.285C79.0997 30.285 78.8745 30.2382 78.6722 30.1447C78.47 30.0496 78.3094 29.9127 78.1904 29.7343C78.0714 29.5541 78.0119 29.3365 78.0119 29.0816C78.0119 28.8572 78.0561 28.6754 78.1445 28.536C78.2329 28.3949 78.351 28.2844 78.4989 28.2045C78.6468 28.1247 78.8099 28.0652 78.9884 28.0261C79.1686 27.9853 79.3496 27.953 79.5314 27.9292C79.7694 27.8986 79.9623 27.8756 80.1102 27.8603C80.2598 27.8434 80.3685 27.8153 80.4365 27.7762C80.5062 27.7371 80.5411 27.6691 80.5411 27.5723V27.5519C80.5411 27.3003 80.4722 27.1048 80.3345 26.9655C80.1986 26.8261 79.9921 26.7564 79.715 26.7564C79.4278 26.7564 79.2026 26.8193 79.0394 26.9451C78.8762 27.0708 78.7615 27.2051 78.6952 27.3479L78.1241 27.1439C78.2261 26.906 78.3621 26.7207 78.532 26.5881C78.7037 26.4539 78.8907 26.3604 79.0929 26.3077C79.2969 26.2533 79.4974 26.2261 79.6946 26.2261C79.8204 26.2261 79.9649 26.2414 80.128 26.272C80.2929 26.3009 80.4518 26.3612 80.6048 26.453C80.7595 26.5448 80.8878 26.6833 80.9898 26.8686C81.0918 27.0538 81.1427 27.302 81.1427 27.613V30.1932H80.5411V29.6629H80.5105C80.4697 29.7479 80.4017 29.8388 80.3065 29.9357C80.2113 30.0326 80.0847 30.115 79.9266 30.183C79.7685 30.251 79.5756 30.285 79.3479 30.285ZM79.4397 29.7445C79.6776 29.7445 79.8782 29.6977 80.0413 29.6042C80.2062 29.5108 80.3303 29.3901 80.4136 29.2422C80.4986 29.0943 80.5411 28.9388 80.5411 28.7756V28.2249C80.5156 28.2555 80.4595 28.2836 80.3728 28.3091C80.2878 28.3329 80.1892 28.3541 80.077 28.3728C79.9666 28.3898 79.8586 28.4051 79.7533 28.4187C79.6496 28.4306 79.5654 28.4408 79.5008 28.4493C79.3445 28.4697 79.1983 28.5028 79.0623 28.5487C78.928 28.5929 78.8193 28.6601 78.736 28.7501C78.6544 28.8385 78.6136 28.9592 78.6136 29.1122C78.6136 29.3212 78.6909 29.4793 78.8456 29.5864C79.002 29.6918 79.2 29.7445 79.4397 29.7445ZM83.7197 30.2748C83.3934 30.2748 83.1053 30.1923 82.8554 30.0275C82.6055 29.8609 82.4101 29.6263 82.269 29.3238C82.1279 29.0195 82.0574 28.6601 82.0574 28.2453C82.0574 27.834 82.1279 27.4771 82.269 27.1745C82.4101 26.872 82.6064 26.6383 82.8579 26.4734C83.1095 26.3085 83.4002 26.2261 83.7299 26.2261C83.9848 26.2261 84.1863 26.2686 84.3341 26.3536C84.4837 26.4369 84.5976 26.532 84.6758 26.6391C84.7557 26.7445 84.8177 26.8312 84.8619 26.8992H84.9129V24.9717H85.5146V30.1932H84.9333V29.5915H84.8619C84.8177 29.6629 84.7548 29.753 84.6732 29.8617C84.5916 29.9688 84.4752 30.0648 84.3239 30.1498C84.1727 30.2331 83.9712 30.2748 83.7197 30.2748ZM83.8013 29.7343C84.0426 29.7343 84.2466 29.6714 84.4132 29.5456C84.5797 29.4181 84.7064 29.2422 84.793 29.0178C84.8797 28.7918 84.9231 28.5309 84.9231 28.2351C84.9231 27.9428 84.8806 27.687 84.7956 27.4677C84.7106 27.2468 84.5848 27.0751 84.4183 26.9527C84.2517 26.8286 84.046 26.7666 83.8013 26.7666C83.5463 26.7666 83.3339 26.832 83.1639 26.9629C82.9956 27.0921 82.869 27.268 82.784 27.4907C82.7007 27.7116 82.6591 27.9598 82.6591 28.2351C82.6591 28.5139 82.7016 28.7671 82.7866 28.9949C82.8732 29.221 83.0007 29.4011 83.169 29.5354C83.339 29.668 83.5497 29.7343 83.8013 29.7343ZM89.9023 26.2771L88.4542 30.1932H87.8423L86.3942 26.2771H87.0468L88.1278 29.3977H88.1686L89.2496 26.2771H89.9023ZM92.1982 30.2748C91.8208 30.2748 91.4954 30.1915 91.2217 30.0249C90.9498 29.8566 90.7398 29.6221 90.592 29.3212C90.4458 29.0187 90.3727 28.6669 90.3727 28.2657C90.3727 27.8646 90.4458 27.5111 90.592 27.2051C90.7398 26.8975 90.9455 26.6578 91.209 26.4861C91.4741 26.3128 91.7835 26.2261 92.137 26.2261C92.341 26.2261 92.5424 26.2601 92.7412 26.3281C92.9401 26.3961 93.1211 26.5065 93.2843 26.6595C93.4475 26.8108 93.5775 27.0114 93.6744 27.2612C93.7712 27.5111 93.8197 27.8187 93.8197 28.1841V28.4391H90.801V27.919H93.2078C93.2078 27.698 93.1636 27.5009 93.0752 27.3275C92.9885 27.1541 92.8645 27.0173 92.703 26.917C92.5432 26.8167 92.3546 26.7666 92.137 26.7666C91.8973 26.7666 91.69 26.8261 91.5149 26.9451C91.3415 27.0623 91.2081 27.2153 91.1146 27.404C91.0211 27.5926 90.9744 27.7949 90.9744 28.0108V28.3575C90.9744 28.6533 91.0254 28.904 91.1274 29.1096C91.2311 29.3136 91.3747 29.4691 91.5582 29.5762C91.7418 29.6816 91.9551 29.7343 92.1982 29.7343C92.3563 29.7343 92.499 29.7122 92.6265 29.668C92.7557 29.6221 92.867 29.5541 92.9605 29.464C93.054 29.3722 93.1262 29.2583 93.1772 29.1224L93.7585 29.2855C93.6973 29.4827 93.5945 29.6561 93.45 29.8056C93.3055 29.9535 93.1271 30.0691 92.9146 30.1524C92.7021 30.234 92.4633 30.2748 92.1982 30.2748ZM95.3367 27.8374V30.1932H94.735V26.2771H95.3163V26.889H95.3673C95.459 26.6901 95.5984 26.5303 95.7854 26.4097C95.9723 26.2873 96.2137 26.2261 96.5094 26.2261C96.7746 26.2261 97.0066 26.2805 97.2055 26.3893C97.4043 26.4963 97.559 26.6595 97.6695 26.8788C97.78 27.0963 97.8352 27.3717 97.8352 27.7048V30.1932H97.2335V27.7456C97.2335 27.438 97.1536 27.1983 96.9939 27.0267C96.8341 26.8533 96.6148 26.7666 96.3361 26.7666C96.144 26.7666 95.9723 26.8082 95.8211 26.8915C95.6715 26.9748 95.5534 27.0963 95.4667 27.2561C95.38 27.4159 95.3367 27.6096 95.3367 27.8374ZM100.638 26.2771V26.787H98.6084V26.2771H100.638ZM99.1998 25.3389H99.8015V29.0714C99.8015 29.2413 99.8262 29.3688 99.8755 29.4538C99.9265 29.5371 99.991 29.5932 100.069 29.6221C100.149 29.6493 100.233 29.6629 100.322 29.6629C100.388 29.6629 100.442 29.6595 100.485 29.6527C100.527 29.6442 100.561 29.6374 100.587 29.6323L100.709 30.1728C100.668 30.1881 100.611 30.2034 100.538 30.2187C100.465 30.2357 100.373 30.2442 100.26 30.2442C100.09 30.2442 99.9239 30.2076 99.7607 30.1345C99.5993 30.0615 99.465 29.9501 99.3579 29.8005C99.2525 29.651 99.1998 29.4623 99.1998 29.2346V25.3389ZM104.011 28.5921V26.2771H104.613V30.1932H104.011V29.5303H103.97C103.878 29.7292 103.735 29.8983 103.542 30.0377C103.348 30.1753 103.103 30.2442 102.807 30.2442C102.563 30.2442 102.345 30.1906 102.155 30.0835C101.964 29.9748 101.815 29.8116 101.706 29.594C101.597 29.3748 101.543 29.0986 101.543 28.7654V26.2771H102.145V28.7246C102.145 29.0102 102.224 29.2379 102.384 29.4079C102.546 29.5779 102.751 29.6629 103.001 29.6629C103.151 29.6629 103.303 29.6246 103.458 29.5481C103.614 29.4717 103.745 29.3544 103.85 29.1963C103.957 29.0382 104.011 28.8368 104.011 28.5921ZM105.715 30.1932V26.2771H106.296V26.8686H106.337C106.408 26.6748 106.537 26.5176 106.724 26.3969C106.911 26.2762 107.122 26.2159 107.356 26.2159C107.401 26.2159 107.456 26.2167 107.522 26.2184C107.588 26.2201 107.639 26.2227 107.673 26.2261V26.838C107.652 26.8329 107.605 26.8252 107.532 26.815C107.461 26.8031 107.385 26.7972 107.305 26.7972C107.115 26.7972 106.945 26.8371 106.796 26.917C106.648 26.9952 106.53 27.104 106.444 27.2434C106.359 27.381 106.316 27.5383 106.316 27.715V30.1932H105.715ZM109.909 30.2748C109.531 30.2748 109.206 30.1915 108.932 30.0249C108.66 29.8566 108.45 29.6221 108.302 29.3212C108.156 29.0187 108.083 28.6669 108.083 28.2657C108.083 27.8646 108.156 27.5111 108.302 27.2051C108.45 26.8975 108.656 26.6578 108.919 26.4861C109.184 26.3128 109.494 26.2261 109.847 26.2261C110.051 26.2261 110.253 26.2601 110.452 26.3281C110.65 26.3961 110.831 26.5065 110.995 26.6595C111.158 26.8108 111.288 27.0114 111.385 27.2612C111.482 27.5111 111.53 27.8187 111.53 28.1841V28.4391H108.511V27.919H110.918C110.918 27.698 110.874 27.5009 110.786 27.3275C110.699 27.1541 110.575 27.0173 110.413 26.917C110.254 26.8167 110.065 26.7666 109.847 26.7666C109.608 26.7666 109.4 26.8261 109.225 26.9451C109.052 27.0623 108.918 27.2153 108.825 27.404C108.732 27.5926 108.685 27.7949 108.685 28.0108V28.3575C108.685 28.6533 108.736 28.904 108.838 29.1096C108.941 29.3136 109.085 29.4691 109.269 29.5762C109.452 29.6816 109.665 29.7343 109.909 29.7343C110.067 29.7343 110.209 29.7122 110.337 29.668C110.466 29.6221 110.577 29.5541 110.671 29.464C110.764 29.3722 110.837 29.2583 110.888 29.1224L111.469 29.2855C111.408 29.4827 111.305 29.6561 111.16 29.8056C111.016 29.9535 110.837 30.0691 110.625 30.1524C110.412 30.234 110.174 30.2748 109.909 30.2748Z" fill="#908E96"/>
<rect x="19.6339" y="5.46239" width="141.626" height="66.742" rx="6.73078" stroke="#E9E8EA" stroke-width="0.897437"/>
</g>
<rect x="2.05126" y="35.5684" width="175.897" height="38.9965" rx="6.73078" fill="white"/>
<g filter="url(#filter2_d_448_48452)">
<rect x="8.78204" y="42.397" width="25.3394" height="25.3394" rx="7.23983" fill="white"/>
<path d="M25.6184 48.4432L23.9135 50.0228L25.6184 51.8215V48.4432Z" fill="#1A1523"/>
<path d="M25.6187 54.1875V52.5968L23.4651 50.2969L21.9808 50.0294V48.4167V47.126L18.577 50.4907L15.4338 57.5055L20.3203 58.9787L18.2523 56.4963L19.5262 51.0899L21.1762 49.0188V52.3631L19.5262 53.7943L23.3087 54.978L24.3558 54.3499L25.7878 55.4481C25.6896 55.8772 25.912 56.3151 26.3161 56.4891L26.3328 56.4963C25.9854 57.0932 25.4035 57.088 24.728 56.8424L22.6113 55.9128L21.7685 56.8424L23.5373 58.8916L21.7814 60.5962L17.168 59.1481L20.7731 63.0073L24.728 60.2053L24.7172 57.9909C26.1483 58.3731 27.1009 57.6378 27.4697 55.9301L25.6187 54.1875ZM23.6535 53.8051L22.5535 52.9311H23.9123L24.1324 53.3626L23.6535 53.8051Z" fill="#1A1523"/>
<rect x="9.23076" y="42.8457" width="24.4419" height="24.442" rx="6.79111" stroke="#E9E8EA" stroke-width="0.897437"/>
</g>
<path d="M41.9447 52.1693V45.6424H44.3922C44.8936 45.6424 45.3143 45.7359 45.6542 45.9229C45.9963 46.1099 46.2544 46.3669 46.4287 46.6941C46.605 47.0192 46.6932 47.3889 46.6932 47.8032C46.6932 48.2217 46.605 48.5935 46.4287 48.9186C46.2523 49.2437 45.9921 49.4997 45.6479 49.6866C45.3037 49.8715 44.8798 49.9639 44.3763 49.9639H42.7541V48.9919H44.2169C44.5101 48.9919 44.7502 48.9409 44.9372 48.8389C45.1241 48.7369 45.2622 48.5967 45.3515 48.4182C45.4428 48.2398 45.4885 48.0348 45.4885 47.8032C45.4885 47.5716 45.4428 47.3676 45.3515 47.1913C45.2622 47.0149 45.1231 46.8779 44.934 46.7802C44.747 46.6803 44.5059 46.6304 44.2106 46.6304H43.127V52.1693H41.9447ZM49.7662 52.2649C49.2754 52.2649 48.8515 52.1629 48.4946 51.9589C48.1398 51.7528 47.8668 51.4618 47.6755 51.0857C47.4843 50.7075 47.3887 50.2624 47.3887 49.7504C47.3887 49.2468 47.4843 48.8049 47.6755 48.4246C47.8689 48.0422 48.1387 47.7447 48.485 47.5323C48.8313 47.3177 49.2382 47.2104 49.7056 47.2104C50.0073 47.2104 50.292 47.2593 50.5597 47.357C50.8295 47.4526 51.0675 47.6013 51.2736 47.8032C51.4818 48.005 51.6454 48.2621 51.7644 48.5744C51.8833 48.8846 51.9428 49.2543 51.9428 49.6835V50.0372H47.9305V49.2596H50.837C50.8348 49.0386 50.787 48.8421 50.6936 48.67C50.6001 48.4958 50.4694 48.3588 50.3016 48.2589C50.1358 48.159 49.9425 48.1091 49.7215 48.1091C49.4857 48.1091 49.2786 48.1665 49.1001 48.2812C48.9216 48.3938 48.7825 48.5425 48.6826 48.7274C48.5849 48.9101 48.5349 49.1109 48.5328 49.3297V50.0085C48.5328 50.2932 48.5849 50.5375 48.689 50.7415C48.7931 50.9433 48.9386 51.0984 49.1256 51.2068C49.3126 51.313 49.5314 51.3661 49.7821 51.3661C49.9499 51.3661 50.1019 51.3428 50.2378 51.296C50.3738 51.2472 50.4917 51.176 50.5916 51.0825C50.6914 50.989 50.7669 50.8732 50.8178 50.7351L51.895 50.8562C51.827 51.1409 51.6974 51.3895 51.5062 51.602C51.3171 51.8123 51.0749 51.9759 50.7796 52.0928C50.4843 52.2075 50.1465 52.2649 49.7662 52.2649ZM52.9188 52.1693V47.2741H54.0374V48.09H54.0884C54.1777 47.8074 54.3306 47.5896 54.5473 47.4367C54.7662 47.2816 55.0158 47.204 55.2963 47.204C55.36 47.204 55.4312 47.2072 55.5098 47.2136C55.5905 47.2178 55.6575 47.2253 55.7106 47.2359V48.2971C55.6617 48.2801 55.5842 48.2653 55.4779 48.2525C55.3738 48.2377 55.2729 48.2302 55.1752 48.2302C54.9648 48.2302 54.7757 48.2759 54.6079 48.3673C54.4422 48.4565 54.3115 48.5808 54.2159 48.7401C54.1203 48.8995 54.0725 49.0832 54.0725 49.2915V52.1693H52.9188ZM60.3459 48.568L59.2943 48.6828C59.2645 48.5765 59.2125 48.4767 59.1381 48.3832C59.0659 48.2897 58.9681 48.2143 58.8449 48.1569C58.7217 48.0996 58.5708 48.0709 58.3924 48.0709C58.1523 48.0709 57.9504 48.1229 57.7868 48.227C57.6254 48.3311 57.5457 48.466 57.5478 48.6318C57.5457 48.7741 57.5978 48.8899 57.704 48.9791C57.8123 49.0684 57.9908 49.1417 58.2394 49.199L59.0744 49.3775C59.5375 49.4774 59.8817 49.6356 60.1069 49.8524C60.3343 50.0691 60.449 50.3527 60.4511 50.7033C60.449 51.0113 60.3587 51.2833 60.1802 51.5191C60.0039 51.7528 59.7585 51.9355 59.444 52.0673C59.1296 52.199 58.7684 52.2649 58.3605 52.2649C57.7613 52.2649 57.2791 52.1395 56.9136 51.8888C56.5482 51.636 56.3304 51.2843 56.2603 50.8339L57.3853 50.7256C57.4363 50.9465 57.5446 51.1133 57.7104 51.2259C57.8761 51.3385 58.0917 51.3948 58.3573 51.3948C58.6314 51.3948 58.8513 51.3385 59.017 51.2259C59.1848 51.1133 59.2688 50.9742 59.2688 50.8084C59.2688 50.6682 59.2146 50.5524 59.1062 50.4611C59 50.3697 58.8343 50.2996 58.6091 50.2507L57.7741 50.0754C57.3046 49.9777 56.9572 49.8131 56.732 49.5815C56.5068 49.3478 56.3952 49.0524 56.3973 48.6955C56.3952 48.3938 56.477 48.1325 56.6427 47.9115C56.8106 47.6884 57.0432 47.5163 57.3407 47.3952C57.6402 47.272 57.9855 47.2104 58.3764 47.2104C58.9501 47.2104 59.4016 47.3326 59.7309 47.5769C60.0623 47.8212 60.2673 48.1516 60.3459 48.568ZM63.5376 52.2649C63.0596 52.2649 62.6453 52.1597 62.2947 51.9494C61.9442 51.739 61.6722 51.4448 61.4789 51.0666C61.2877 50.6884 61.1921 50.2465 61.1921 49.7408C61.1921 49.2352 61.2877 48.7922 61.4789 48.4119C61.6722 48.0316 61.9442 47.7362 62.2947 47.5259C62.6453 47.3156 63.0596 47.2104 63.5376 47.2104C64.0157 47.2104 64.43 47.3156 64.7805 47.5259C65.1311 47.7362 65.402 48.0316 65.5932 48.4119C65.7865 48.7922 65.8832 49.2352 65.8832 49.7408C65.8832 50.2465 65.7865 50.6884 65.5932 51.0666C65.402 51.4448 65.1311 51.739 64.7805 51.9494C64.43 52.1597 64.0157 52.2649 63.5376 52.2649ZM63.544 51.3407C63.8032 51.3407 64.0199 51.2695 64.1941 51.1271C64.3684 50.9827 64.498 50.7893 64.583 50.5471C64.6701 50.3049 64.7136 50.0351 64.7136 49.7376C64.7136 49.4381 64.6701 49.1672 64.583 48.925C64.498 48.6806 64.3684 48.4862 64.1941 48.3418C64.0199 48.1973 63.8032 48.125 63.544 48.125C63.2784 48.125 63.0575 48.1973 62.8811 48.3418C62.7069 48.4862 62.5763 48.6806 62.4891 48.925C62.4042 49.1672 62.3617 49.4381 62.3617 49.7376C62.3617 50.0351 62.4042 50.3049 62.4891 50.5471C62.5763 50.7893 62.7069 50.9827 62.8811 51.1271C63.0575 51.2695 63.2784 51.3407 63.544 51.3407ZM68.0161 49.301V52.1693H66.8624V47.2741H67.9651V48.1059H68.0224C68.135 47.8319 68.3146 47.6141 68.561 47.4526C68.8096 47.2911 69.1166 47.2104 69.482 47.2104C69.8199 47.2104 70.1141 47.2826 70.3648 47.4271C70.6177 47.5716 70.8131 47.7809 70.9512 48.0549C71.0914 48.329 71.1605 48.6615 71.1584 49.0524V52.1693H70.0047V49.2309C70.0047 48.9037 69.9197 48.6477 69.7497 48.4629C69.5819 48.278 69.3493 48.1856 69.0518 48.1856C68.85 48.1856 68.6704 48.2302 68.5132 48.3195C68.3581 48.4066 68.236 48.533 68.1467 48.6987C68.0596 48.8644 68.0161 49.0652 68.0161 49.301ZM73.7398 52.268C73.4296 52.268 73.1502 52.2128 72.9016 52.1023C72.6552 51.9897 72.4597 51.824 72.3152 51.6052C72.1729 51.3863 72.1017 51.1165 72.1017 50.7957C72.1017 50.5195 72.1527 50.2911 72.2547 50.1105C72.3567 49.9299 72.4958 49.7854 72.6722 49.6771C72.8485 49.5687 73.0472 49.4869 73.2681 49.4317C73.4912 49.3743 73.7217 49.3329 73.9597 49.3074C74.2465 49.2777 74.4791 49.2511 74.6576 49.2277C74.8361 49.2022 74.9657 49.164 75.0464 49.113C75.1293 49.0599 75.1707 48.9781 75.1707 48.8676V48.8485C75.1707 48.6084 75.0995 48.4225 74.9572 48.2908C74.8148 48.159 74.6098 48.0932 74.3421 48.0932C74.0595 48.0932 73.8354 48.1548 73.6697 48.278C73.5061 48.4012 73.3956 48.5468 73.3382 48.7146L72.261 48.5617C72.346 48.2642 72.4863 48.0156 72.6817 47.8159C72.8772 47.6141 73.1162 47.4632 73.3988 47.3634C73.6813 47.2614 73.9937 47.2104 74.3357 47.2104C74.5716 47.2104 74.8063 47.238 75.04 47.2933C75.2737 47.3485 75.4873 47.4399 75.6806 47.5673C75.8739 47.6927 76.029 47.8637 76.1459 48.0804C76.2649 48.2971 76.3244 48.568 76.3244 48.8931V52.1693H75.2153V51.4968H75.1771C75.107 51.6328 75.0082 51.7603 74.8807 51.8792C74.7553 51.9961 74.5971 52.0906 74.4058 52.1629C74.2168 52.233 73.9947 52.268 73.7398 52.268ZM74.0393 51.4203C74.2709 51.4203 74.4717 51.3746 74.6417 51.2833C74.8116 51.1898 74.9423 51.0666 75.0337 50.9136C75.1271 50.7606 75.1739 50.5938 75.1739 50.4133V49.8364C75.1378 49.8662 75.0762 49.8938 74.989 49.9193C74.9041 49.9448 74.8085 49.9671 74.7022 49.9862C74.596 50.0053 74.4908 50.0223 74.3867 50.0372C74.2826 50.0521 74.1923 50.0648 74.1158 50.0754C73.9437 50.0988 73.7897 50.1371 73.6537 50.1902C73.5178 50.2433 73.4105 50.3176 73.3318 50.4133C73.2532 50.5067 73.2139 50.6278 73.2139 50.7766C73.2139 50.989 73.2915 51.1494 73.4466 51.2578C73.6017 51.3661 73.7993 51.4203 74.0393 51.4203ZM78.6381 45.6424V52.1693H77.4844V45.6424H78.6381ZM82.1015 52.1693V45.6424H83.2838V48.6413H83.3635L85.9098 45.6424H87.3535L84.8295 48.5712L87.3758 52.1693H85.9544L84.0072 49.3711L83.2838 50.2252V52.1693H82.1015ZM89.5326 52.268C89.2224 52.268 88.943 52.2128 88.6944 52.1023C88.4479 51.9897 88.2525 51.824 88.108 51.6052C87.9657 51.3863 87.8945 51.1165 87.8945 50.7957C87.8945 50.5195 87.9455 50.2911 88.0475 50.1105C88.1494 49.9299 88.2886 49.7854 88.4649 49.6771C88.6413 49.5687 88.8399 49.4869 89.0609 49.4317C89.284 49.3743 89.5145 49.3329 89.7525 49.3074C90.0393 49.2777 90.2719 49.2511 90.4504 49.2277C90.6289 49.2022 90.7585 49.164 90.8392 49.113C90.9221 49.0599 90.9635 48.9781 90.9635 48.8676V48.8485C90.9635 48.6084 90.8923 48.4225 90.75 48.2908C90.6076 48.159 90.4026 48.0932 90.1349 48.0932C89.8523 48.0932 89.6282 48.1548 89.4624 48.278C89.2989 48.4012 89.1884 48.5468 89.131 48.7146L88.0538 48.5617C88.1388 48.2642 88.279 48.0156 88.4745 47.8159C88.67 47.6141 88.909 47.4632 89.1916 47.3634C89.4741 47.2614 89.7865 47.2104 90.1285 47.2104C90.3643 47.2104 90.5991 47.238 90.8328 47.2933C91.0665 47.3485 91.2801 47.4399 91.4734 47.5673C91.6667 47.6927 91.8218 47.8637 91.9387 48.0804C92.0577 48.2971 92.1172 48.568 92.1172 48.8931V52.1693H91.0081V51.4968H90.9699C90.8997 51.6328 90.801 51.7603 90.6735 51.8792C90.5481 51.9961 90.3898 52.0906 90.1986 52.1629C90.0095 52.233 89.7875 52.268 89.5326 52.268ZM89.8321 51.4203C90.0637 51.4203 90.2645 51.3746 90.4345 51.2833C90.6044 51.1898 90.7351 51.0666 90.8264 50.9136C90.9199 50.7606 90.9667 50.5938 90.9667 50.4133V49.8364C90.9306 49.8662 90.8689 49.8938 90.7818 49.9193C90.6968 49.9448 90.6012 49.9671 90.495 49.9862C90.3888 50.0053 90.2836 50.0223 90.1795 50.0372C90.0754 50.0521 89.9851 50.0648 89.9086 50.0754C89.7365 50.0988 89.5825 50.1371 89.4465 50.1902C89.3105 50.2433 89.2032 50.3176 89.1246 50.4133C89.046 50.5067 89.0067 50.6278 89.0067 50.7766C89.0067 50.989 89.0843 51.1494 89.2394 51.2578C89.3945 51.3661 89.592 51.4203 89.8321 51.4203ZM95.7566 47.2741V48.1665H92.8629V47.2741H95.7566ZM93.5863 52.1693V46.812C93.5863 46.4827 93.6543 46.2086 93.7903 45.9898C93.9284 45.771 94.1132 45.6074 94.3448 45.499C94.5764 45.3907 94.8335 45.3365 95.116 45.3365C95.3158 45.3365 95.4932 45.3524 95.6483 45.3843C95.8034 45.4162 95.9181 45.4448 95.9924 45.4703L95.763 46.3627C95.7141 46.3478 95.6525 46.3329 95.5781 46.3181C95.5038 46.3011 95.4209 46.2926 95.3296 46.2926C95.115 46.2926 94.9631 46.3446 94.8738 46.4487C94.7867 46.5507 94.7432 46.6973 94.7432 46.8885V52.1693H93.5863ZM97.7118 50.6332L97.7086 49.2405H97.8934L99.6526 47.2741H101.001L98.8368 49.6835H98.5978L97.7118 50.6332ZM96.6601 52.1693V45.6424H97.8138V52.1693H96.6601ZM99.7323 52.1693L98.1388 49.9416L98.9164 49.1289L101.112 52.1693H99.7323ZM103.178 52.268C102.868 52.268 102.589 52.2128 102.34 52.1023C102.094 51.9897 101.898 51.824 101.754 51.6052C101.611 51.3863 101.54 51.1165 101.54 50.7957C101.54 50.5195 101.591 50.2911 101.693 50.1105C101.795 49.9299 101.934 49.7854 102.111 49.6771C102.287 49.5687 102.486 49.4869 102.706 49.4317C102.93 49.3743 103.16 49.3329 103.398 49.3074C103.685 49.2777 103.918 49.2511 104.096 49.2277C104.274 49.2022 104.404 49.164 104.485 49.113C104.568 49.0599 104.609 48.9781 104.609 48.8676V48.8485C104.609 48.6084 104.538 48.4225 104.396 48.2908C104.253 48.159 104.048 48.0932 103.78 48.0932C103.498 48.0932 103.274 48.1548 103.108 48.278C102.944 48.4012 102.834 48.5468 102.777 48.7146L101.699 48.5617C101.784 48.2642 101.925 48.0156 102.12 47.8159C102.316 47.6141 102.555 47.4632 102.837 47.3634C103.12 47.2614 103.432 47.2104 103.774 47.2104C104.01 47.2104 104.245 47.238 104.478 47.2933C104.712 47.3485 104.926 47.4399 105.119 47.5673C105.312 47.6927 105.467 47.8637 105.584 48.0804C105.703 48.2971 105.763 48.568 105.763 48.8931V52.1693H104.654V51.4968H104.615C104.545 51.6328 104.447 51.7603 104.319 51.8792C104.194 51.9961 104.035 52.0906 103.844 52.1629C103.655 52.233 103.433 52.268 103.178 52.268ZM103.478 51.4203C103.709 51.4203 103.91 51.3746 104.08 51.2833C104.25 51.1898 104.381 51.0666 104.472 50.9136C104.566 50.7606 104.612 50.5938 104.612 50.4133V49.8364C104.576 49.8662 104.515 49.8938 104.427 49.9193C104.342 49.9448 104.247 49.9671 104.141 49.9862C104.034 50.0053 103.929 50.0223 103.825 50.0372C103.721 50.0521 103.631 50.0648 103.554 50.0754C103.382 50.0988 103.228 50.1371 103.092 50.1902C102.956 50.2433 102.849 50.3176 102.77 50.4133C102.692 50.5067 102.652 50.6278 102.652 50.7766C102.652 50.989 102.73 51.1494 102.885 51.2578C103.04 51.3661 103.238 51.4203 103.478 51.4203ZM109.2 52.1693V45.6424H111.647C112.149 45.6424 112.569 45.7359 112.909 45.9229C113.251 46.1099 113.51 46.3669 113.684 46.6941C113.86 47.0192 113.948 47.3889 113.948 47.8032C113.948 48.2217 113.86 48.5935 113.684 48.9186C113.507 49.2437 113.247 49.4997 112.903 49.6866C112.559 49.8715 112.135 49.9639 111.631 49.9639H110.009V48.9919H111.472C111.765 48.9919 112.005 48.9409 112.192 48.8389C112.379 48.7369 112.517 48.5967 112.607 48.4182C112.698 48.2398 112.744 48.0348 112.744 47.8032C112.744 47.5716 112.698 47.3676 112.607 47.1913C112.517 47.0149 112.378 46.8779 112.189 46.7802C112.002 46.6803 111.761 46.6304 111.466 46.6304H110.382V52.1693H109.2ZM116.078 45.6424V52.1693H114.924V45.6424H116.078ZM118.673 52.268C118.363 52.268 118.083 52.2128 117.835 52.1023C117.588 51.9897 117.393 51.824 117.248 51.6052C117.106 51.3863 117.035 51.1165 117.035 50.7957C117.035 50.5195 117.086 50.2911 117.188 50.1105C117.29 49.9299 117.429 49.7854 117.605 49.6771C117.782 49.5687 117.98 49.4869 118.201 49.4317C118.424 49.3743 118.655 49.3329 118.893 49.3074C119.18 49.2777 119.412 49.2511 119.591 49.2277C119.769 49.2022 119.899 49.164 119.98 49.113C120.062 49.0599 120.104 48.9781 120.104 48.8676V48.8485C120.104 48.6084 120.033 48.4225 119.89 48.2908C119.748 48.159 119.543 48.0932 119.275 48.0932C118.993 48.0932 118.769 48.1548 118.603 48.278C118.439 48.4012 118.329 48.5468 118.271 48.7146L117.194 48.5617C117.279 48.2642 117.419 48.0156 117.615 47.8159C117.81 47.6141 118.049 47.4632 118.332 47.3634C118.615 47.2614 118.927 47.2104 119.269 47.2104C119.505 47.2104 119.74 47.238 119.973 47.2933C120.207 47.3485 120.42 47.4399 120.614 47.5673C120.807 47.6927 120.962 47.8637 121.079 48.0804C121.198 48.2971 121.258 48.568 121.258 48.8931V52.1693H120.149V51.4968H120.11C120.04 51.6328 119.941 51.7603 119.814 51.8792C119.689 51.9961 119.53 52.0906 119.339 52.1629C119.15 52.233 118.928 52.268 118.673 52.268ZM118.973 51.4203C119.204 51.4203 119.405 51.3746 119.575 51.2833C119.745 51.1898 119.876 51.0666 119.967 50.9136C120.06 50.7606 120.107 50.5938 120.107 50.4133V49.8364C120.071 49.8662 120.009 49.8938 119.922 49.9193C119.837 49.9448 119.742 49.9671 119.635 49.9862C119.529 50.0053 119.424 50.0223 119.32 50.0372C119.216 50.0521 119.126 50.0648 119.049 50.0754C118.877 50.0988 118.723 50.1371 118.587 50.1902C118.451 50.2433 118.344 50.3176 118.265 50.4133C118.186 50.5067 118.147 50.6278 118.147 50.7766C118.147 50.989 118.225 51.1494 118.38 51.2578C118.535 51.3661 118.732 51.4203 118.973 51.4203ZM122.959 54.0049C122.802 54.0049 122.657 53.9922 122.523 53.9667C122.391 53.9433 122.286 53.9157 122.207 53.8838L122.475 52.9851C122.643 53.034 122.793 53.0573 122.924 53.0552C123.056 53.0531 123.172 53.0117 123.272 52.9309C123.374 52.8523 123.46 52.7206 123.53 52.5357L123.629 52.2712L121.854 47.2741H123.077L124.205 50.971H124.256L125.388 47.2741H126.615L124.655 52.762C124.563 53.0212 124.442 53.2432 124.292 53.4281C124.141 53.6151 123.956 53.7574 123.737 53.8551C123.52 53.955 123.261 54.0049 122.959 54.0049ZM129.375 54.1069C128.961 54.1069 128.605 54.0506 128.308 53.938C128.01 53.8275 127.771 53.6788 127.591 53.4918C127.41 53.3049 127.285 53.0977 127.215 52.8704L128.254 52.6186C128.3 52.7142 128.368 52.8088 128.458 52.9022C128.547 52.9978 128.667 53.0765 128.818 53.1381C128.971 53.2018 129.163 53.2337 129.395 53.2337C129.722 53.2337 129.993 53.154 130.207 52.9947C130.422 52.8374 130.529 52.5782 130.529 52.2171V51.2897H130.472C130.412 51.4086 130.325 51.5308 130.21 51.6562C130.098 51.7815 129.948 51.8867 129.761 51.9717C129.576 52.0566 129.344 52.0991 129.063 52.0991C128.687 52.0991 128.346 52.011 128.04 51.8346C127.736 51.6562 127.494 51.3906 127.314 51.0379C127.135 50.6831 127.046 50.239 127.046 49.7058C127.046 49.1682 127.135 48.7146 127.314 48.3449C127.494 47.9731 127.737 47.6916 128.043 47.5004C128.349 47.3071 128.69 47.2104 129.066 47.2104C129.353 47.2104 129.589 47.2593 129.774 47.357C129.961 47.4526 130.11 47.5684 130.22 47.7044C130.33 47.8382 130.414 47.9646 130.472 48.0836H130.535V47.2741H131.673V52.2489C131.673 52.6675 131.573 53.0138 131.374 53.2879C131.174 53.5619 130.901 53.767 130.555 53.9029C130.208 54.0389 129.815 54.1069 129.375 54.1069ZM129.385 51.1941C129.629 51.1941 129.838 51.1346 130.01 51.0156C130.182 50.8966 130.312 50.7256 130.402 50.5025C130.491 50.2794 130.535 50.0117 130.535 49.6994C130.535 49.3913 130.491 49.1215 130.402 48.8899C130.315 48.6583 130.185 48.4788 130.013 48.3513C129.843 48.2217 129.634 48.1569 129.385 48.1569C129.128 48.1569 128.913 48.2238 128.741 48.3577C128.569 48.4915 128.44 48.6753 128.352 48.909C128.265 49.1406 128.222 49.4041 128.222 49.6994C128.222 49.999 128.265 50.2613 128.352 50.4866C128.442 50.7096 128.572 50.8839 128.744 51.0092C128.919 51.1324 129.132 51.1941 129.385 51.1941ZM132.856 52.1693V47.2741H133.974V48.09H134.025C134.114 47.8074 134.267 47.5896 134.484 47.4367C134.703 47.2816 134.953 47.204 135.233 47.204C135.297 47.204 135.368 47.2072 135.447 47.2136C135.527 47.2178 135.594 47.2253 135.647 47.2359V48.2971C135.598 48.2801 135.521 48.2653 135.415 48.2525C135.311 48.2377 135.21 48.2302 135.112 48.2302C134.902 48.2302 134.712 48.2759 134.545 48.3673C134.379 48.4565 134.248 48.5808 134.153 48.7401C134.057 48.8995 134.009 49.0832 134.009 49.2915V52.1693H132.856ZM138.347 52.2649C137.869 52.2649 137.455 52.1597 137.105 51.9494C136.754 51.739 136.482 51.4448 136.289 51.0666C136.097 50.6884 136.002 50.2465 136.002 49.7408C136.002 49.2352 136.097 48.7922 136.289 48.4119C136.482 48.0316 136.754 47.7362 137.105 47.5259C137.455 47.3156 137.869 47.2104 138.347 47.2104C138.825 47.2104 139.24 47.3156 139.59 47.5259C139.941 47.7362 140.212 48.0316 140.403 48.4119C140.596 48.7922 140.693 49.2352 140.693 49.7408C140.693 50.2465 140.596 50.6884 140.403 51.0666C140.212 51.4448 139.941 51.739 139.59 51.9494C139.24 52.1597 138.825 52.2649 138.347 52.2649ZM138.354 51.3407C138.613 51.3407 138.83 51.2695 139.004 51.1271C139.178 50.9827 139.308 50.7893 139.393 50.5471C139.48 50.3049 139.523 50.0351 139.523 49.7376C139.523 49.4381 139.48 49.1672 139.393 48.925C139.308 48.6806 139.178 48.4862 139.004 48.3418C138.83 48.1973 138.613 48.125 138.354 48.125C138.088 48.125 137.867 48.1973 137.691 48.3418C137.517 48.4862 137.386 48.6806 137.299 48.925C137.214 49.1672 137.171 49.4381 137.171 49.7376C137.171 50.0351 137.214 50.3049 137.299 50.5471C137.386 50.7893 137.517 50.9827 137.691 51.1271C137.867 51.2695 138.088 51.3407 138.354 51.3407ZM144.792 50.1105V47.2741H145.946V52.1693H144.827V51.2992H144.776C144.666 51.5733 144.484 51.7974 144.231 51.9717C143.981 52.1459 143.671 52.233 143.304 52.233C142.983 52.233 142.699 52.1618 142.453 52.0195C142.209 51.875 142.017 51.6657 141.879 51.3916C141.741 51.1154 141.672 50.7819 141.672 50.3909V47.2741H142.826V50.2125C142.826 50.5227 142.911 50.7691 143.081 50.9518C143.251 51.1346 143.474 51.2259 143.75 51.2259C143.92 51.2259 144.085 51.1845 144.244 51.1016C144.403 51.0188 144.534 50.8955 144.636 50.7319C144.74 50.5662 144.792 50.3591 144.792 50.1105ZM148.286 49.301V52.1693H147.132V47.2741H148.235V48.1059H148.292C148.405 47.8319 148.584 47.6141 148.831 47.4526C149.079 47.2911 149.386 47.2104 149.752 47.2104C150.09 47.2104 150.384 47.2826 150.635 47.4271C150.887 47.5716 151.083 47.7809 151.221 48.0549C151.361 48.329 151.43 48.6615 151.428 49.0524V52.1693H150.274V49.2309C150.274 48.9037 150.189 48.6477 150.02 48.4629C149.852 48.278 149.619 48.1856 149.322 48.1856C149.12 48.1856 148.94 48.2302 148.783 48.3195C148.628 48.4066 148.506 48.533 148.417 48.6987C148.329 48.8644 148.286 49.0652 148.286 49.301ZM154.417 52.2553C154.033 52.2553 153.689 52.1565 153.385 51.9589C153.081 51.7613 152.841 51.4745 152.665 51.0984C152.488 50.7224 152.4 50.2656 152.4 49.7281C152.4 49.1842 152.489 48.7253 152.668 48.3513C152.848 47.9753 153.092 47.6916 153.398 47.5004C153.704 47.3071 154.045 47.2104 154.421 47.2104C154.707 47.2104 154.943 47.2593 155.128 47.357C155.313 47.4526 155.46 47.5684 155.568 47.7044C155.676 47.8382 155.76 47.9646 155.82 48.0836H155.868V45.6424H157.024V52.1693H155.89V51.398H155.82C155.76 51.517 155.674 51.6434 155.562 51.7773C155.449 51.909 155.3 52.0216 155.115 52.1151C154.931 52.2086 154.698 52.2553 154.417 52.2553ZM154.739 51.3088C154.984 51.3088 155.192 51.2429 155.364 51.1112C155.536 50.9773 155.667 50.7914 155.756 50.5535C155.845 50.3155 155.89 50.0383 155.89 49.7217C155.89 49.4051 155.845 49.13 155.756 48.8963C155.669 48.6626 155.539 48.4809 155.367 48.3513C155.197 48.2217 154.988 48.1569 154.739 48.1569C154.482 48.1569 154.268 48.2238 154.096 48.3577C153.923 48.4915 153.794 48.6764 153.707 48.9122C153.62 49.148 153.576 49.4179 153.576 49.7217C153.576 50.0276 153.62 50.3007 153.707 50.5407C153.796 50.7787 153.927 50.9667 154.099 51.1048C154.273 51.2408 154.487 51.3088 154.739 51.3088Z" fill="#1A1523"/>
<path d="M42.6646 60.069H43.4168V65.321C43.4168 65.6227 43.3647 65.8841 43.2606 66.105C43.1586 66.326 43.0035 66.497 42.7953 66.6181C42.5892 66.7392 42.329 66.7998 42.0145 66.7998C41.989 66.7998 41.9635 66.7998 41.938 66.7998C41.9125 66.7998 41.887 66.7998 41.8615 66.7998V66.0987C41.887 66.0987 41.9104 66.0987 41.9317 66.0987C41.9529 66.0987 41.9763 66.0987 42.0018 66.0987C42.2312 66.0987 42.3991 66.0307 42.5053 65.8947C42.6115 65.7608 42.6646 65.5696 42.6646 65.321V60.069ZM43.0343 59.2531C42.8877 59.2531 42.7613 59.2032 42.6551 59.1034C42.551 59.0035 42.4989 58.8835 42.4989 58.7432C42.4989 58.603 42.551 58.483 42.6551 58.3831C42.7613 58.2833 42.8877 58.2333 43.0343 58.2333C43.1809 58.2333 43.3063 58.2833 43.4104 58.3831C43.5166 58.483 43.5697 58.603 43.5697 58.7432C43.5697 58.8835 43.5166 59.0035 43.4104 59.1034C43.3063 59.2032 43.1809 59.2531 43.0343 59.2531ZM47.8792 62.9627V60.069H48.6314V64.9641H47.8792V64.1355H47.8283C47.7135 64.3841 47.5351 64.5955 47.2928 64.7697C47.0506 64.9418 46.7447 65.0278 46.375 65.0278C46.0691 65.0278 45.7971 64.9609 45.5592 64.8271C45.3212 64.6911 45.1342 64.4871 44.9983 64.2152C44.8623 63.9411 44.7943 63.5959 44.7943 63.1794V60.069H45.5464V63.1284C45.5464 63.4854 45.6463 63.7701 45.846 63.9825C46.0478 64.195 46.3049 64.3012 46.6172 64.3012C46.8042 64.3012 46.9943 64.2534 47.1877 64.1578C47.3831 64.0622 47.5467 63.9156 47.6785 63.718C47.8123 63.5204 47.8792 63.2687 47.8792 62.9627ZM53.4763 61.1653L52.8006 61.3565C52.7582 61.2439 52.6955 61.1345 52.6126 61.0283C52.5319 60.9199 52.4214 60.8307 52.2812 60.7606C52.141 60.6905 51.9614 60.6554 51.7426 60.6554C51.443 60.6554 51.1934 60.7244 50.9937 60.8625C50.7961 60.9985 50.6973 61.1717 50.6973 61.382C50.6973 61.569 50.7653 61.7166 50.9012 61.825C51.0372 61.9333 51.2497 62.0236 51.5386 62.0959L52.2652 62.2744C52.7029 62.3806 53.029 62.5431 53.2436 62.7619C53.4582 62.9787 53.5655 63.258 53.5655 63.6001C53.5655 63.8806 53.4848 64.1313 53.3233 64.3522C53.164 64.5732 52.9409 64.7474 52.654 64.8749C52.3672 65.0024 52.0337 65.0661 51.6534 65.0661C51.1541 65.0661 50.7408 64.9577 50.4136 64.741C50.0865 64.5243 49.8793 64.2077 49.7922 63.7913L50.5061 63.6129C50.5741 63.8763 50.7026 64.0739 50.8917 64.2056C51.0829 64.3374 51.3325 64.4032 51.6406 64.4032C51.9912 64.4032 52.2695 64.3289 52.4756 64.1801C52.6838 64.0293 52.7879 63.8487 52.7879 63.6384C52.7879 63.4684 52.7284 63.326 52.6094 63.2113C52.4905 63.0945 52.3077 63.0073 52.0613 62.95L51.2454 62.7588C50.7971 62.6525 50.4678 62.4879 50.2575 62.2648C50.0493 62.0396 49.9452 61.7581 49.9452 61.4203C49.9452 61.1441 50.0227 60.8997 50.1778 60.6873C50.335 60.4748 50.5486 60.308 50.8184 60.1869C51.0903 60.0658 51.3984 60.0053 51.7426 60.0053C52.227 60.0053 52.6073 60.1115 52.8835 60.324C53.1618 60.5364 53.3594 60.8169 53.4763 61.1653ZM56.8265 60.069V60.7064H54.2897V60.069H56.8265ZM55.0291 58.8962H55.7812V63.5619C55.7812 63.7743 55.812 63.9337 55.8736 64.0399C55.9374 64.144 56.0181 64.2141 56.1158 64.2502C56.2157 64.2842 56.3209 64.3012 56.4313 64.3012C56.5142 64.3012 56.5822 64.297 56.6353 64.2885C56.6884 64.2779 56.7309 64.2694 56.7628 64.263L56.9158 64.9386C56.8648 64.9577 56.7936 64.9769 56.7022 64.996C56.6109 65.0172 56.4951 65.0278 56.3549 65.0278C56.1424 65.0278 55.9342 64.9822 55.7302 64.8908C55.5284 64.7995 55.3605 64.6603 55.2267 64.4733C55.095 64.2864 55.0291 64.0505 55.0291 63.7658V58.8962ZM60.5871 61.8154V62.5166H57.7316V61.8154H60.5871ZM63.9628 65.0661C63.4912 65.0661 63.0843 64.962 62.7422 64.7538C62.4023 64.5434 62.1399 64.2502 61.9551 63.8742C61.7724 63.496 61.681 63.0562 61.681 62.5548C61.681 62.0534 61.7724 61.6115 61.9551 61.229C62.1399 60.8445 62.397 60.5449 62.7263 60.3303C63.0578 60.1136 63.4444 60.0053 63.8863 60.0053C64.1413 60.0053 64.3931 60.0478 64.6417 60.1327C64.8902 60.2177 65.1165 60.3558 65.3205 60.547C65.5244 60.7361 65.687 60.9868 65.8081 61.2992C65.9292 61.6115 65.9897 61.996 65.9897 62.4528V62.7715H62.2164V62.1214H65.2249C65.2249 61.8452 65.1696 61.5987 65.0591 61.382C64.9508 61.1653 64.7957 60.9943 64.5938 60.8689C64.3941 60.7436 64.1583 60.6809 63.8863 60.6809C63.5868 60.6809 63.3276 60.7553 63.1087 60.904C62.892 61.0506 62.7252 61.2418 62.6084 61.4776C62.4915 61.7135 62.4331 61.9663 62.4331 62.2361V62.6695C62.4331 63.0392 62.4969 63.3526 62.6243 63.6097C62.7539 63.8646 62.9335 64.059 63.1629 64.1929C63.3924 64.3246 63.659 64.3905 63.9628 64.3905C64.1604 64.3905 64.3389 64.3628 64.4982 64.3076C64.6597 64.2502 64.7989 64.1653 64.9157 64.0527C65.0326 63.9379 65.1229 63.7956 65.1866 63.6256L65.9132 63.8296C65.8367 64.076 65.7082 64.2927 65.5276 64.4797C65.347 64.6645 65.1239 64.809 64.8584 64.9131C64.5928 65.0151 64.2943 65.0661 63.9628 65.0661ZM67.5633 60.069L68.736 62.0704L69.9088 60.069H70.7757L69.195 62.5166L70.7757 64.9641H69.9088L68.736 63.0647L67.5633 64.9641H66.6964L68.2516 62.5166L66.6964 60.069H67.5633ZM71.8489 66.7998V60.069H72.5755V60.8466H72.6647C72.72 60.7616 72.7964 60.6533 72.8942 60.5215C72.994 60.3877 73.1364 60.2687 73.3212 60.1646C73.5082 60.0584 73.761 60.0053 74.0797 60.0053C74.4919 60.0053 74.8552 60.1083 75.1696 60.3144C75.4841 60.5205 75.7295 60.8126 75.9058 61.1908C76.0822 61.569 76.1703 62.0151 76.1703 62.5293C76.1703 63.0477 76.0822 63.4971 75.9058 63.8774C75.7295 64.2556 75.4851 64.5487 75.1728 64.757C74.8605 64.963 74.5004 65.0661 74.0925 65.0661C73.778 65.0661 73.5263 65.014 73.3372 64.9099C73.1481 64.8037 73.0025 64.6837 72.9006 64.5498C72.7986 64.4138 72.72 64.3012 72.6647 64.212H72.601V66.7998H71.8489ZM72.5882 62.5166C72.5882 62.8862 72.6424 63.2124 72.7508 63.4949C72.8591 63.7754 73.0174 63.9953 73.2256 64.1546C73.4338 64.3119 73.6888 64.3905 73.9905 64.3905C74.3049 64.3905 74.5673 64.3076 74.7777 64.1419C74.9901 63.974 75.1495 63.7488 75.2557 63.4663C75.364 63.1816 75.4182 62.865 75.4182 62.5166C75.4182 62.1724 75.3651 61.8622 75.2589 61.586C75.1548 61.3077 74.9965 61.0878 74.784 60.9263C74.5737 60.7627 74.3092 60.6809 73.9905 60.6809C73.6845 60.6809 73.4275 60.7584 73.2192 60.9135C73.011 61.0665 72.8538 61.2811 72.7476 61.5573C72.6414 61.8314 72.5882 62.1511 72.5882 62.5166ZM78.0697 58.4373V64.9641H77.3176V58.4373H78.0697ZM81.4359 65.0661C80.994 65.0661 80.6063 64.9609 80.2727 64.7506C79.9413 64.5403 79.6821 64.246 79.4951 63.8678C79.3102 63.4896 79.2178 63.0477 79.2178 62.5421C79.2178 62.0321 79.3102 61.587 79.4951 61.2067C79.6821 60.8264 79.9413 60.5311 80.2727 60.3208C80.6063 60.1104 80.994 60.0053 81.4359 60.0053C81.8778 60.0053 82.2645 60.1104 82.596 60.3208C82.9295 60.5311 83.1887 60.8264 83.3736 61.2067C83.5605 61.587 83.654 62.0321 83.654 62.5421C83.654 63.0477 83.5605 63.4896 83.3736 63.8678C83.1887 64.246 82.9295 64.5403 82.596 64.7506C82.2645 64.9609 81.8778 65.0661 81.4359 65.0661ZM81.4359 64.3905C81.7716 64.3905 82.0478 64.3044 82.2645 64.1323C82.4812 63.9602 82.6416 63.734 82.7457 63.4535C82.8499 63.1731 82.9019 62.8692 82.9019 62.5421C82.9019 62.2149 82.8499 61.91 82.7457 61.6274C82.6416 61.3448 82.4812 61.1164 82.2645 60.9422C82.0478 60.768 81.7716 60.6809 81.4359 60.6809C81.1002 60.6809 80.824 60.768 80.6073 60.9422C80.3906 61.1164 80.2302 61.3448 80.1261 61.6274C80.022 61.91 79.9699 62.2149 79.9699 62.5421C79.9699 62.8692 80.022 63.1731 80.1261 63.4535C80.2302 63.734 80.3906 63.9602 80.6073 64.1323C80.824 64.3044 81.1002 64.3905 81.4359 64.3905ZM84.8021 64.9641V60.069H85.5287V60.8084H85.5797C85.669 60.5662 85.8304 60.3696 86.0641 60.2188C86.2978 60.0679 86.5613 59.9925 86.8545 59.9925C86.9097 59.9925 86.9788 59.9936 87.0616 59.9957C87.1445 59.9978 87.2072 60.001 87.2497 60.0053V60.7701C87.2242 60.7637 87.1657 60.7542 87.0744 60.7414C86.9852 60.7266 86.8906 60.7191 86.7907 60.7191C86.5528 60.7191 86.3403 60.7691 86.1534 60.8689C85.9685 60.9667 85.8219 61.1026 85.7136 61.2768C85.6073 61.4489 85.5542 61.6455 85.5542 61.8664V64.9641H84.8021ZM88.1412 64.9641V60.069H88.8933V64.9641H88.1412ZM88.5236 59.2531C88.377 59.2531 88.2506 59.2032 88.1444 59.1034C88.0403 59.0035 87.9882 58.8835 87.9882 58.7432C87.9882 58.603 88.0403 58.483 88.1444 58.3831C88.2506 58.2833 88.377 58.2333 88.5236 58.2333C88.6702 58.2333 88.7956 58.2833 88.8997 58.3831C89.0059 58.483 89.059 58.603 89.059 58.7432C89.059 58.8835 89.0059 59.0035 88.8997 59.1034C88.7956 59.2032 88.6702 59.2531 88.5236 59.2531ZM91.023 62.0194V64.9641H90.2709V60.069H90.9975V60.8339H91.0612C91.176 60.5853 91.3502 60.3856 91.5839 60.2347C91.8176 60.0817 92.1193 60.0053 92.489 60.0053C92.8204 60.0053 93.1104 60.0733 93.359 60.2092C93.6076 60.3431 93.8009 60.547 93.939 60.8211C94.0771 61.0931 94.1462 61.4373 94.1462 61.8537V64.9641H93.3941V61.9047C93.3941 61.5201 93.2942 61.2205 93.0945 61.006C92.8948 60.7892 92.6207 60.6809 92.2723 60.6809C92.0322 60.6809 91.8176 60.7329 91.6285 60.837C91.4415 60.9412 91.2939 61.0931 91.1855 61.2928C91.0772 61.4925 91.023 61.7347 91.023 62.0194ZM97.4964 66.9018C97.1331 66.9018 96.8208 66.855 96.5595 66.7615C96.2981 66.6702 96.0804 66.5491 95.9061 66.3982C95.734 66.2495 95.597 66.0902 95.495 65.9202L96.0942 65.4995C96.1622 65.5887 96.2482 65.6907 96.3523 65.8055C96.4564 65.9223 96.5988 66.0232 96.7794 66.1082C96.9621 66.1953 97.2011 66.2389 97.4964 66.2389C97.8916 66.2389 98.2177 66.1433 98.4748 65.9521C98.7319 65.7608 98.8604 65.4613 98.8604 65.0533V64.059H98.7967C98.7414 64.1483 98.6628 64.2587 98.5608 64.3905C98.461 64.5201 98.3165 64.6359 98.1274 64.7378C97.9405 64.8377 97.6876 64.8876 97.3689 64.8876C96.9738 64.8876 96.6189 64.7941 96.3045 64.6072C95.9922 64.4202 95.7447 64.1483 95.562 63.7913C95.3814 63.4344 95.2911 63.001 95.2911 62.4911C95.2911 61.9897 95.3792 61.553 95.5556 61.1812C95.7319 60.8073 95.9773 60.5184 96.2918 60.3144C96.6062 60.1083 96.9695 60.0053 97.3817 60.0053C97.7004 60.0053 97.9532 60.0584 98.1402 60.1646C98.3293 60.2687 98.4737 60.3877 98.5736 60.5215C98.6756 60.6533 98.7542 60.7616 98.8094 60.8466H98.8859V60.069H99.6125V65.1043C99.6125 65.525 99.5169 65.8671 99.3257 66.1305C99.1366 66.3961 98.8817 66.5905 98.5608 66.7137C98.2422 66.8391 97.8873 66.9018 97.4964 66.9018ZM97.4709 64.212C97.7726 64.212 98.0276 64.1429 98.2358 64.0048C98.444 63.8667 98.6023 63.6681 98.7106 63.4089C98.819 63.1497 98.8732 62.8395 98.8732 62.4783C98.8732 62.1256 98.82 61.8144 98.7138 61.5445C98.6076 61.2747 98.4504 61.0633 98.2422 60.9103C98.0339 60.7574 97.7769 60.6809 97.4709 60.6809C97.1522 60.6809 96.8867 60.7616 96.6742 60.9231C96.4639 61.0846 96.3056 61.3013 96.1993 61.5732C96.0952 61.8452 96.0432 62.1469 96.0432 62.4783C96.0432 62.8183 96.0963 63.1189 96.2025 63.3802C96.3109 63.6394 96.4702 63.8434 96.6806 63.9921C96.893 64.1387 97.1565 64.212 97.4709 64.212Z" fill="#908E96"/>
<rect x="2.05126" y="35.5684" width="175.897" height="38.9965" rx="6.73078" stroke="#EEEDEF" stroke-width="0.897437"/>
<defs>
<filter id="filter0_dd_448_48452" x="12.0057" y="5.01367" width="156.882" height="81.9984" filterUnits="userSpaceOnUse" color-interpolation-filters="sRGB">
<feFlood flood-opacity="0" result="BackgroundImageFix"/>
<feColorMatrix in="SourceAlpha" type="matrix" values="0 0 0 0 0 0 0 0 0 0 0 0 0 0 0 0 0 0 127 0" result="hardAlpha"/>
<feMorphology radius="1.19658" operator="erode" in="SourceAlpha" result="effect1_dropShadow_448_48452"/>
<feOffset dy="2.39317"/>
<feGaussianBlur stdDeviation="1.79487"/>
<feColorMatrix type="matrix" values="0 0 0 0 0.0627451 0 0 0 0 0.0941176 0 0 0 0 0.156863 0 0 0 0.03 0"/>
<feBlend mode="normal" in2="BackgroundImageFix" result="effect1_dropShadow_448_48452"/>
<feColorMatrix in="SourceAlpha" type="matrix" values="0 0 0 0 0 0 0 0 0 0 0 0 0 0 0 0 0 0 127 0" result="hardAlpha"/>
<feMorphology radius="2.39317" operator="erode" in="SourceAlpha" result="effect2_dropShadow_448_48452"/>
<feOffset dy="7.1795"/>
<feGaussianBlur stdDeviation="4.78633"/>
<feColorMatrix type="matrix" values="0 0 0 0 0.0627451 0 0 0 0 0.0941176 0 0 0 0 0.156863 0 0 0 0.08 0"/>
<feBlend mode="normal" in2="effect1_dropShadow_448_48452" result="effect2_dropShadow_448_48452"/>
<feBlend mode="normal" in="SourceGraphic" in2="effect2_dropShadow_448_48452" result="shape"/>
</filter>
<filter id="filter1_d_448_48452" x="24.5271" y="11.253" width="24.6154" height="24.6154" filterUnits="userSpaceOnUse" color-interpolation-filters="sRGB">
<feFlood flood-opacity="0" result="BackgroundImageFix"/>
<feColorMatrix in="SourceAlpha" type="matrix" values="0 0 0 0 0 0 0 0 0 0 0 0 0 0 0 0 0 0 127 0" result="hardAlpha"/>
<feOffset dy="1.36752"/>
<feGaussianBlur stdDeviation="1.36752"/>
<feColorMatrix type="matrix" values="0 0 0 0 0.0627451 0 0 0 0 0.0941176 0 0 0 0 0.156863 0 0 0 0.05 0"/>
<feBlend mode="normal" in2="BackgroundImageFix" result="effect1_dropShadow_448_48452"/>
<feBlend mode="normal" in="SourceGraphic" in2="effect1_dropShadow_448_48452" result="shape"/>
</filter>
<filter id="filter2_d_448_48452" x="5.16213" y="40.587" width="32.5792" height="32.5792" filterUnits="userSpaceOnUse" color-interpolation-filters="sRGB">
<feFlood flood-opacity="0" result="BackgroundImageFix"/>
<feColorMatrix in="SourceAlpha" type="matrix" values="0 0 0 0 0 0 0 0 0 0 0 0 0 0 0 0 0 0 127 0" result="hardAlpha"/>
<feOffset dy="1.80996"/>
<feGaussianBlur stdDeviation="1.80996"/>
<feColorMatrix type="matrix" values="0 0 0 0 0.0627451 0 0 0 0 0.0941176 0 0 0 0 0.156863 0 0 0 0.05 0"/>
<feBlend mode="normal" in2="BackgroundImageFix" result="effect1_dropShadow_448_48452"/>
<feBlend mode="normal" in="SourceGraphic" in2="effect1_dropShadow_448_48452" result="shape"/>
</filter>
</defs>
</svg>
