<svg width="183" height="81" viewBox="0 0 183 81" fill="none" xmlns="http://www.w3.org/2000/svg">
<g clip-path="url(#clip0_448_60949)">
<rect x="0.5" y="0.985962" width="180.5" height="24" rx="3" fill="#2E2E32"/>
<rect x="24.3721" y="5.98596" width="152" height="6" rx="2" fill="#504F57"/>
<rect x="24.5" y="14.986" width="25" height="3" rx="1.5" fill="#504F57"/>
<rect x="51.5" y="14.986" width="25" height="3" rx="1.5" fill="#504F57"/>
<g filter="url(#filter0_d_448_60949)">
<rect x="4.62793" y="4.98083" width="16" height="16" rx="3" fill="#161618"/>
<g clip-path="url(#clip1_448_60949)">
<path d="M16.2924 10.3138H12.2924C12.1084 10.3138 11.9591 10.4632 11.9591 10.6472C11.9591 10.8312 12.1084 10.9805 12.2924 10.9805H16.2924C16.4764 10.9805 16.6258 10.8312 16.6258 10.6472C16.6258 10.4632 16.4764 10.3138 16.2924 10.3138Z" fill="#EDEDEF"/>
<path d="M16.2924 12.6475H12.2924C12.1084 12.6475 11.9591 12.7968 11.9591 12.9808C11.9591 13.1648 12.1084 13.3141 12.2924 13.3141H16.2924C16.4764 13.3141 16.6258 13.1648 16.6258 12.9808C16.6258 12.7968 16.4764 12.6475 16.2924 12.6475Z" fill="#EDEDEF"/>
<path d="M16.2924 14.9807H12.2924C12.1084 14.9807 11.9591 15.13 11.9591 15.314C11.9591 15.498 12.1084 15.6474 12.2924 15.6474H16.2924C16.4764 15.6474 16.6258 15.498 16.6258 15.314C16.6258 15.13 16.4764 14.9807 16.2924 14.9807Z" fill="#EDEDEF"/>
<path d="M10.6948 15.6473H10.0084C10.0948 15.5549 10.1708 15.4749 10.2348 15.4083L10.2978 15.3423C10.6734 14.9503 10.9448 14.6669 10.9434 14.2296C10.9431 14.0793 10.9074 13.9343 10.8411 13.8099C10.6891 13.5256 10.3798 13.3409 10.0138 13.3163C9.51976 13.2823 9.08309 13.6086 8.96842 14.0903C8.92609 14.2693 9.03676 14.4489 9.21576 14.4916C9.39476 14.5333 9.57442 14.4233 9.61709 14.2443C9.65542 14.0836 9.80642 13.9703 9.96842 13.9813C10.1001 13.9903 10.2114 14.0463 10.2531 14.1239C10.2618 14.1403 10.2768 14.1763 10.2768 14.2319C10.2774 14.3929 10.1278 14.5563 9.81642 14.8813L9.75276 14.9479C9.58742 15.1209 9.34276 15.3806 9.04442 15.7119C8.98942 15.7733 8.95909 15.8523 8.95909 15.9346V15.9806C8.95909 16.1646 9.10842 16.3139 9.29242 16.3139H10.6948C10.8788 16.3139 11.0281 16.1646 11.0281 15.9806C11.0281 15.7966 10.8788 15.6473 10.6948 15.6473Z" fill="#EDEDEF"/>
<path d="M9.41123 10.7234L9.62689 10.5867V12.3144C9.62689 12.4984 9.77623 12.6477 9.96023 12.6477C10.1442 12.6477 10.2936 12.4984 10.2936 12.3144V9.98072C10.2936 9.85905 10.2276 9.74738 10.1209 9.68872C10.0146 9.62972 9.88423 9.63438 9.78189 9.69905L9.05456 10.1601C8.89889 10.2587 8.85289 10.4647 8.95123 10.6201C9.04956 10.7757 9.25589 10.8214 9.41123 10.7234Z" fill="#EDEDEF"/>
</g>
<rect x="4.87793" y="5.23083" width="15.5" height="15.5" rx="2.75" stroke="#2E2E32" stroke-width="0.5"/>
</g>
</g>
<rect x="0.75" y="1.23596" width="180" height="23.5" rx="2.75" stroke="#3E3E44" stroke-width="0.5"/>
<g clip-path="url(#clip2_448_60949)">
<rect x="0.5" y="28.986" width="180.5" height="24" rx="3" fill="#2E2E32"/>
<rect x="24.3721" y="33.986" width="152" height="6" rx="2" fill="#504F57"/>
<g filter="url(#filter1_d_448_60949)">
<rect x="4.62793" y="32.9808" width="16" height="16" rx="3" fill="#161618"/>
<g clip-path="url(#clip3_448_60949)">
<path d="M16.2924 38.3138H12.2924C12.1084 38.3138 11.9591 38.4632 11.9591 38.6472C11.9591 38.8312 12.1084 38.9805 12.2924 38.9805H16.2924C16.4764 38.9805 16.6258 38.8312 16.6258 38.6472C16.6258 38.4632 16.4764 38.3138 16.2924 38.3138Z" fill="#EDEDEF"/>
<path d="M16.2924 40.6475H12.2924C12.1084 40.6475 11.9591 40.7968 11.9591 40.9808C11.9591 41.1648 12.1084 41.3141 12.2924 41.3141H16.2924C16.4764 41.3141 16.6258 41.1648 16.6258 40.9808C16.6258 40.7968 16.4764 40.6475 16.2924 40.6475Z" fill="#EDEDEF"/>
<path d="M16.2924 42.9807H12.2924C12.1084 42.9807 11.9591 43.13 11.9591 43.314C11.9591 43.498 12.1084 43.6474 12.2924 43.6474H16.2924C16.4764 43.6474 16.6258 43.498 16.6258 43.314C16.6258 43.13 16.4764 42.9807 16.2924 42.9807Z" fill="#EDEDEF"/>
<path d="M10.6948 43.6473H10.0084C10.0948 43.5549 10.1708 43.4749 10.2348 43.4083L10.2978 43.3423C10.6734 42.9503 10.9448 42.6669 10.9434 42.2296C10.9431 42.0793 10.9074 41.9343 10.8411 41.8099C10.6891 41.5256 10.3798 41.3409 10.0138 41.3163C9.51976 41.2823 9.08309 41.6086 8.96842 42.0903C8.92609 42.2693 9.03676 42.4489 9.21576 42.4916C9.39476 42.5333 9.57442 42.4233 9.61709 42.2443C9.65542 42.0836 9.80642 41.9703 9.96842 41.9813C10.1001 41.9903 10.2114 42.0463 10.2531 42.1239C10.2618 42.1403 10.2768 42.1763 10.2768 42.2319C10.2774 42.3929 10.1278 42.5563 9.81642 42.8813L9.75276 42.9479C9.58742 43.1209 9.34276 43.3806 9.04442 43.7119C8.98942 43.7733 8.95909 43.8523 8.95909 43.9346V43.9806C8.95909 44.1646 9.10842 44.3139 9.29242 44.3139H10.6948C10.8788 44.3139 11.0281 44.1646 11.0281 43.9806C11.0281 43.7966 10.8788 43.6473 10.6948 43.6473Z" fill="#EDEDEF"/>
<path d="M9.41123 38.7234L9.62689 38.5867V40.3144C9.62689 40.4984 9.77623 40.6477 9.96023 40.6477C10.1442 40.6477 10.2936 40.4984 10.2936 40.3144V37.9807C10.2936 37.8591 10.2276 37.7474 10.1209 37.6887C10.0146 37.6297 9.88423 37.6344 9.78189 37.6991L9.05456 38.1601C8.89889 38.2587 8.85289 38.4647 8.95123 38.6201C9.04956 38.7757 9.25589 38.8214 9.41123 38.7234Z" fill="#EDEDEF"/>
</g>
<rect x="4.87793" y="33.2308" width="15.5" height="15.5" rx="2.75" stroke="#2E2E32" stroke-width="0.5"/>
</g>
<rect x="24.5" y="42.986" width="38" height="3" rx="1.5" fill="#504F57"/>
<rect x="65.5" y="42.986" width="28" height="3" rx="1.5" fill="#504F57"/>
</g>
<rect x="0.75" y="29.236" width="180" height="23.5" rx="2.75" stroke="#3E3E44" stroke-width="0.5"/>
<g clip-path="url(#clip4_448_60949)">
<rect x="0.5" y="56.986" width="180.5" height="24" rx="3" fill="#2E2E32"/>
<rect x="24.3721" y="61.986" width="152" height="6" rx="2" fill="#504F57"/>
<g filter="url(#filter2_d_448_60949)">
<rect x="4.62793" y="60.9808" width="16" height="16" rx="3" fill="#161618"/>
<g clip-path="url(#clip5_448_60949)">
<path d="M16.2924 66.3138H12.2924C12.1084 66.3138 11.9591 66.4632 11.9591 66.6472C11.9591 66.8312 12.1084 66.9805 12.2924 66.9805H16.2924C16.4764 66.9805 16.6258 66.8312 16.6258 66.6472C16.6258 66.4632 16.4764 66.3138 16.2924 66.3138Z" fill="#EDEDEF"/>
<path d="M16.2924 68.6475H12.2924C12.1084 68.6475 11.9591 68.7968 11.9591 68.9808C11.9591 69.1648 12.1084 69.3141 12.2924 69.3141H16.2924C16.4764 69.3141 16.6258 69.1648 16.6258 68.9808C16.6258 68.7968 16.4764 68.6475 16.2924 68.6475Z" fill="#EDEDEF"/>
<path d="M16.2924 70.9807H12.2924C12.1084 70.9807 11.9591 71.13 11.9591 71.314C11.9591 71.498 12.1084 71.6474 12.2924 71.6474H16.2924C16.4764 71.6474 16.6258 71.498 16.6258 71.314C16.6258 71.13 16.4764 70.9807 16.2924 70.9807Z" fill="#EDEDEF"/>
<path d="M10.6948 71.6473H10.0084C10.0948 71.5549 10.1708 71.4749 10.2348 71.4083L10.2978 71.3423C10.6734 70.9503 10.9448 70.6669 10.9434 70.2296C10.9431 70.0793 10.9074 69.9343 10.8411 69.8099C10.6891 69.5256 10.3798 69.3409 10.0138 69.3163C9.51976 69.2823 9.08309 69.6086 8.96842 70.0903C8.92609 70.2693 9.03676 70.4489 9.21576 70.4916C9.39476 70.5333 9.57442 70.4233 9.61709 70.2443C9.65542 70.0836 9.80642 69.9703 9.96842 69.9813C10.1001 69.9903 10.2114 70.0463 10.2531 70.1239C10.2618 70.1403 10.2768 70.1763 10.2768 70.2319C10.2774 70.3929 10.1278 70.5563 9.81642 70.8813L9.75276 70.9479C9.58742 71.1209 9.34276 71.3806 9.04442 71.7119C8.98942 71.7733 8.95909 71.8523 8.95909 71.9346V71.9806C8.95909 72.1646 9.10842 72.3139 9.29242 72.3139H10.6948C10.8788 72.3139 11.0281 72.1646 11.0281 71.9806C11.0281 71.7966 10.8788 71.6473 10.6948 71.6473Z" fill="#EDEDEF"/>
<path d="M9.41123 66.7234L9.62689 66.5867V68.3144C9.62689 68.4984 9.77623 68.6477 9.96023 68.6477C10.1442 68.6477 10.2936 68.4984 10.2936 68.3144V65.9807C10.2936 65.8591 10.2276 65.7474 10.1209 65.6887C10.0146 65.6297 9.88423 65.6344 9.78189 65.6991L9.05456 66.1601C8.89889 66.2587 8.85289 66.4647 8.95123 66.6201C9.04956 66.7757 9.25589 66.8214 9.41123 66.7234Z" fill="#EDEDEF"/>
</g>
<rect x="4.87793" y="61.2308" width="15.5" height="15.5" rx="2.75" stroke="#2E2E32" stroke-width="0.5"/>
</g>
<rect x="24.5" y="70.986" width="57" height="3" rx="1.5" fill="#504F57"/>
</g>
<rect x="0.75" y="57.236" width="180" height="23.5" rx="2.75" stroke="#3E3E44" stroke-width="0.5"/>
<rect x="1" y="0.985962" width="181.762" height="80" fill="url(#paint0_linear_448_60949)"/>
<defs>
<filter id="filter0_d_448_60949" x="0.0565014" y="2.69512" width="25.1429" height="25.1429" filterUnits="userSpaceOnUse" color-interpolation-filters="sRGB">
<feFlood flood-opacity="0" result="BackgroundImageFix"/>
<feColorMatrix in="SourceAlpha" type="matrix" values="0 0 0 0 0 0 0 0 0 0 0 0 0 0 0 0 0 0 127 0" result="hardAlpha"/>
<feOffset dy="2.28571"/>
<feGaussianBlur stdDeviation="2.28571"/>
<feColorMatrix type="matrix" values="0 0 0 0 0.0627451 0 0 0 0 0.0941176 0 0 0 0 0.156863 0 0 0 0.05 0"/>
<feBlend mode="normal" in2="BackgroundImageFix" result="effect1_dropShadow_448_60949"/>
<feBlend mode="normal" in="SourceGraphic" in2="effect1_dropShadow_448_60949" result="shape"/>
</filter>
<filter id="filter1_d_448_60949" x="0.0565014" y="30.6951" width="25.1429" height="25.1429" filterUnits="userSpaceOnUse" color-interpolation-filters="sRGB">
<feFlood flood-opacity="0" result="BackgroundImageFix"/>
<feColorMatrix in="SourceAlpha" type="matrix" values="0 0 0 0 0 0 0 0 0 0 0 0 0 0 0 0 0 0 127 0" result="hardAlpha"/>
<feOffset dy="2.28571"/>
<feGaussianBlur stdDeviation="2.28571"/>
<feColorMatrix type="matrix" values="0 0 0 0 0.0627451 0 0 0 0 0.0941176 0 0 0 0 0.156863 0 0 0 0.05 0"/>
<feBlend mode="normal" in2="BackgroundImageFix" result="effect1_dropShadow_448_60949"/>
<feBlend mode="normal" in="SourceGraphic" in2="effect1_dropShadow_448_60949" result="shape"/>
</filter>
<filter id="filter2_d_448_60949" x="0.0565014" y="58.6951" width="25.1429" height="25.1429" filterUnits="userSpaceOnUse" color-interpolation-filters="sRGB">
<feFlood flood-opacity="0" result="BackgroundImageFix"/>
<feColorMatrix in="SourceAlpha" type="matrix" values="0 0 0 0 0 0 0 0 0 0 0 0 0 0 0 0 0 0 127 0" result="hardAlpha"/>
<feOffset dy="2.28571"/>
<feGaussianBlur stdDeviation="2.28571"/>
<feColorMatrix type="matrix" values="0 0 0 0 0.0627451 0 0 0 0 0.0941176 0 0 0 0 0.156863 0 0 0 0.05 0"/>
<feBlend mode="normal" in2="BackgroundImageFix" result="effect1_dropShadow_448_60949"/>
<feBlend mode="normal" in="SourceGraphic" in2="effect1_dropShadow_448_60949" result="shape"/>
</filter>
<linearGradient id="paint0_linear_448_60949" x1="1" y1="0.985962" x2="182.174" y2="82.2958" gradientUnits="userSpaceOnUse">
<stop stop-opacity="0"/>
<stop offset="1" stop-color="#161618"/>
</linearGradient>
<clipPath id="clip0_448_60949">
<rect x="0.5" y="0.985962" width="180.5" height="24" rx="3" fill="white"/>
</clipPath>
<clipPath id="clip1_448_60949">
<rect width="8" height="8" fill="white" transform="translate(8.62793 8.98083)"/>
</clipPath>
<clipPath id="clip2_448_60949">
<rect x="0.5" y="28.986" width="180.5" height="24" rx="3" fill="white"/>
</clipPath>
<clipPath id="clip3_448_60949">
<rect width="8" height="8" fill="white" transform="translate(8.62793 36.9808)"/>
</clipPath>
<clipPath id="clip4_448_60949">
<rect x="0.5" y="56.986" width="180.5" height="24" rx="3" fill="white"/>
</clipPath>
<clipPath id="clip5_448_60949">
<rect width="8" height="8" fill="white" transform="translate(8.62793 64.9808)"/>
</clipPath>
</defs>
</svg>
