<svg width="181" height="81" viewBox="0 0 181 81" fill="none" xmlns="http://www.w3.org/2000/svg">
<rect width="180.5" height="80" transform="translate(0 0.985962)" fill="white"/>
<g clip-path="url(#clip0_448_60948)">
<rect y="0.985962" width="180.5" height="24" rx="3" fill="#F9F8F9"/>
<rect x="23.8721" y="5.98596" width="152" height="6" rx="2" fill="#E4E2E4"/>
<rect x="24" y="14.986" width="25" height="3" rx="1.5" fill="#E4E2E4"/>
<rect x="51" y="14.986" width="25" height="3" rx="1.5" fill="#E4E2E4"/>
<g filter="url(#filter0_d_448_60948)">
<rect x="4.12793" y="4.98083" width="16" height="16" rx="3" fill="white"/>
<g clip-path="url(#clip1_448_60948)">
<path d="M15.7924 10.3138H11.7924C11.6084 10.3138 11.4591 10.4632 11.4591 10.6472C11.4591 10.8312 11.6084 10.9805 11.7924 10.9805H15.7924C15.9764 10.9805 16.1258 10.8312 16.1258 10.6472C16.1258 10.4632 15.9764 10.3138 15.7924 10.3138Z" fill="#1A1523"/>
<path d="M15.7924 12.6475H11.7924C11.6084 12.6475 11.4591 12.7968 11.4591 12.9808C11.4591 13.1648 11.6084 13.3141 11.7924 13.3141H15.7924C15.9764 13.3141 16.1258 13.1648 16.1258 12.9808C16.1258 12.7968 15.9764 12.6475 15.7924 12.6475Z" fill="#1A1523"/>
<path d="M15.7924 14.9807H11.7924C11.6084 14.9807 11.4591 15.13 11.4591 15.314C11.4591 15.498 11.6084 15.6474 11.7924 15.6474H15.7924C15.9764 15.6474 16.1258 15.498 16.1258 15.314C16.1258 15.13 15.9764 14.9807 15.7924 14.9807Z" fill="#1A1523"/>
<path d="M10.1948 15.6473H9.50844C9.59477 15.5549 9.67077 15.4749 9.73477 15.4083L9.79777 15.3423C10.1734 14.9503 10.4448 14.6669 10.4434 14.2296C10.4431 14.0793 10.4074 13.9343 10.3411 13.8099C10.1891 13.5256 9.87977 13.3409 9.51377 13.3163C9.01977 13.2823 8.58311 13.6086 8.46844 14.0903C8.42611 14.2693 8.53677 14.4489 8.71577 14.4916C8.89477 14.5333 9.07444 14.4233 9.11711 14.2443C9.15544 14.0836 9.30644 13.9703 9.46844 13.9813C9.60011 13.9903 9.71144 14.0463 9.75311 14.1239C9.76177 14.1403 9.77677 14.1763 9.77677 14.2319C9.77744 14.3929 9.62777 14.5563 9.31644 14.8813L9.25277 14.9479C9.08744 15.1209 8.84277 15.3806 8.54444 15.7119C8.48944 15.7733 8.45911 15.8523 8.45911 15.9346V15.9806C8.45911 16.1646 8.60844 16.3139 8.79244 16.3139H10.1948C10.3788 16.3139 10.5281 16.1646 10.5281 15.9806C10.5281 15.7966 10.3788 15.6473 10.1948 15.6473Z" fill="#1A1523"/>
<path d="M8.91124 10.7234L9.12691 10.5867V12.3144C9.12691 12.4984 9.27624 12.6477 9.46024 12.6477C9.64424 12.6477 9.79358 12.4984 9.79358 12.3144V9.98072C9.79358 9.85905 9.72758 9.74738 9.62091 9.68872C9.51458 9.62972 9.38424 9.63438 9.28191 9.69905L8.55458 10.1601C8.39891 10.2587 8.35291 10.4647 8.45124 10.6201C8.54958 10.7757 8.75591 10.8214 8.91124 10.7234Z" fill="#1A1523"/>
</g>
<rect x="4.37793" y="5.23083" width="15.5" height="15.5" rx="2.75" stroke="#E9E8EA" stroke-width="0.5"/>
</g>
</g>
<rect x="0.25" y="1.23596" width="180" height="23.5" rx="2.75" stroke="#E9E8EA" stroke-width="0.5"/>
<g clip-path="url(#clip2_448_60948)">
<rect y="28.986" width="180.5" height="24" rx="3" fill="#F9F8F9"/>
<rect x="23.8721" y="33.986" width="152" height="6" rx="2" fill="#E4E2E4"/>
<g filter="url(#filter1_d_448_60948)">
<rect x="4.12793" y="32.9808" width="16" height="16" rx="3" fill="white"/>
<g clip-path="url(#clip3_448_60948)">
<path d="M15.7924 38.3138H11.7924C11.6084 38.3138 11.4591 38.4632 11.4591 38.6472C11.4591 38.8312 11.6084 38.9805 11.7924 38.9805H15.7924C15.9764 38.9805 16.1258 38.8312 16.1258 38.6472C16.1258 38.4632 15.9764 38.3138 15.7924 38.3138Z" fill="#1A1523"/>
<path d="M15.7924 40.6475H11.7924C11.6084 40.6475 11.4591 40.7968 11.4591 40.9808C11.4591 41.1648 11.6084 41.3141 11.7924 41.3141H15.7924C15.9764 41.3141 16.1258 41.1648 16.1258 40.9808C16.1258 40.7968 15.9764 40.6475 15.7924 40.6475Z" fill="#1A1523"/>
<path d="M15.7924 42.9807H11.7924C11.6084 42.9807 11.4591 43.13 11.4591 43.314C11.4591 43.498 11.6084 43.6474 11.7924 43.6474H15.7924C15.9764 43.6474 16.1258 43.498 16.1258 43.314C16.1258 43.13 15.9764 42.9807 15.7924 42.9807Z" fill="#1A1523"/>
<path d="M10.1948 43.6473H9.50844C9.59477 43.5549 9.67077 43.4749 9.73477 43.4083L9.79777 43.3423C10.1734 42.9503 10.4448 42.6669 10.4434 42.2296C10.4431 42.0793 10.4074 41.9343 10.3411 41.8099C10.1891 41.5256 9.87977 41.3409 9.51377 41.3163C9.01977 41.2823 8.58311 41.6086 8.46844 42.0903C8.42611 42.2693 8.53677 42.4489 8.71577 42.4916C8.89477 42.5333 9.07444 42.4233 9.11711 42.2443C9.15544 42.0836 9.30644 41.9703 9.46844 41.9813C9.60011 41.9903 9.71144 42.0463 9.75311 42.1239C9.76177 42.1403 9.77677 42.1763 9.77677 42.2319C9.77744 42.3929 9.62777 42.5563 9.31644 42.8813L9.25277 42.9479C9.08744 43.1209 8.84277 43.3806 8.54444 43.7119C8.48944 43.7733 8.45911 43.8523 8.45911 43.9346V43.9806C8.45911 44.1646 8.60844 44.3139 8.79244 44.3139H10.1948C10.3788 44.3139 10.5281 44.1646 10.5281 43.9806C10.5281 43.7966 10.3788 43.6473 10.1948 43.6473Z" fill="#1A1523"/>
<path d="M8.91124 38.7234L9.12691 38.5867V40.3144C9.12691 40.4984 9.27624 40.6477 9.46024 40.6477C9.64424 40.6477 9.79358 40.4984 9.79358 40.3144V37.9807C9.79358 37.8591 9.72758 37.7474 9.62091 37.6887C9.51458 37.6297 9.38424 37.6344 9.28191 37.6991L8.55458 38.1601C8.39891 38.2587 8.35291 38.4647 8.45124 38.6201C8.54958 38.7757 8.75591 38.8214 8.91124 38.7234Z" fill="#1A1523"/>
</g>
<rect x="4.37793" y="33.2308" width="15.5" height="15.5" rx="2.75" stroke="#E9E8EA" stroke-width="0.5"/>
</g>
<rect x="24" y="42.986" width="38" height="3" rx="1.5" fill="#E4E2E4"/>
<rect x="65" y="42.986" width="28" height="3" rx="1.5" fill="#E4E2E4"/>
</g>
<rect x="0.25" y="29.236" width="180" height="23.5" rx="2.75" stroke="#E9E8EA" stroke-width="0.5"/>
<g clip-path="url(#clip4_448_60948)">
<rect y="56.986" width="180.5" height="24" rx="3" fill="#F9F8F9"/>
<rect x="23.8721" y="61.986" width="152" height="6" rx="2" fill="#E4E2E4"/>
<g filter="url(#filter2_d_448_60948)">
<rect x="4.12793" y="60.9808" width="16" height="16" rx="3" fill="white"/>
<g clip-path="url(#clip5_448_60948)">
<path d="M15.7924 66.3138H11.7924C11.6084 66.3138 11.4591 66.4632 11.4591 66.6472C11.4591 66.8312 11.6084 66.9805 11.7924 66.9805H15.7924C15.9764 66.9805 16.1258 66.8312 16.1258 66.6472C16.1258 66.4632 15.9764 66.3138 15.7924 66.3138Z" fill="#1A1523"/>
<path d="M15.7924 68.6475H11.7924C11.6084 68.6475 11.4591 68.7968 11.4591 68.9808C11.4591 69.1648 11.6084 69.3141 11.7924 69.3141H15.7924C15.9764 69.3141 16.1258 69.1648 16.1258 68.9808C16.1258 68.7968 15.9764 68.6475 15.7924 68.6475Z" fill="#1A1523"/>
<path d="M15.7924 70.9807H11.7924C11.6084 70.9807 11.4591 71.13 11.4591 71.314C11.4591 71.498 11.6084 71.6474 11.7924 71.6474H15.7924C15.9764 71.6474 16.1258 71.498 16.1258 71.314C16.1258 71.13 15.9764 70.9807 15.7924 70.9807Z" fill="#1A1523"/>
<path d="M10.1948 71.6473H9.50844C9.59477 71.5549 9.67077 71.4749 9.73477 71.4083L9.79777 71.3423C10.1734 70.9503 10.4448 70.6669 10.4434 70.2296C10.4431 70.0793 10.4074 69.9343 10.3411 69.8099C10.1891 69.5256 9.87977 69.3409 9.51377 69.3163C9.01977 69.2823 8.58311 69.6086 8.46844 70.0903C8.42611 70.2693 8.53677 70.4489 8.71577 70.4916C8.89477 70.5333 9.07444 70.4233 9.11711 70.2443C9.15544 70.0836 9.30644 69.9703 9.46844 69.9813C9.60011 69.9903 9.71144 70.0463 9.75311 70.1239C9.76177 70.1403 9.77677 70.1763 9.77677 70.2319C9.77744 70.3929 9.62777 70.5563 9.31644 70.8813L9.25277 70.9479C9.08744 71.1209 8.84277 71.3806 8.54444 71.7119C8.48944 71.7733 8.45911 71.8523 8.45911 71.9346V71.9806C8.45911 72.1646 8.60844 72.3139 8.79244 72.3139H10.1948C10.3788 72.3139 10.5281 72.1646 10.5281 71.9806C10.5281 71.7966 10.3788 71.6473 10.1948 71.6473Z" fill="#1A1523"/>
<path d="M8.91124 66.7234L9.12691 66.5867V68.3144C9.12691 68.4984 9.27624 68.6477 9.46024 68.6477C9.64424 68.6477 9.79358 68.4984 9.79358 68.3144V65.9807C9.79358 65.8591 9.72758 65.7474 9.62091 65.6887C9.51458 65.6297 9.38424 65.6344 9.28191 65.6991L8.55458 66.1601C8.39891 66.2587 8.35291 66.4647 8.45124 66.6201C8.54958 66.7757 8.75591 66.8214 8.91124 66.7234Z" fill="#1A1523"/>
</g>
<rect x="4.37793" y="61.2308" width="15.5" height="15.5" rx="2.75" stroke="#E9E8EA" stroke-width="0.5"/>
</g>
<rect x="24" y="70.986" width="57" height="3" rx="1.5" fill="#E4E2E4"/>
</g>
<rect x="0.25" y="57.236" width="180" height="23.5" rx="2.75" stroke="#E9E8EA" stroke-width="0.5"/>
<rect x="0.5" y="0.985962" width="180" height="80" fill="url(#paint0_linear_448_60948)"/>
<defs>
<filter id="filter0_d_448_60948" x="-0.443499" y="2.69512" width="25.1429" height="25.1429" filterUnits="userSpaceOnUse" color-interpolation-filters="sRGB">
<feFlood flood-opacity="0" result="BackgroundImageFix"/>
<feColorMatrix in="SourceAlpha" type="matrix" values="0 0 0 0 0 0 0 0 0 0 0 0 0 0 0 0 0 0 127 0" result="hardAlpha"/>
<feOffset dy="2.28571"/>
<feGaussianBlur stdDeviation="2.28571"/>
<feColorMatrix type="matrix" values="0 0 0 0 0.0627451 0 0 0 0 0.0941176 0 0 0 0 0.156863 0 0 0 0.05 0"/>
<feBlend mode="normal" in2="BackgroundImageFix" result="effect1_dropShadow_448_60948"/>
<feBlend mode="normal" in="SourceGraphic" in2="effect1_dropShadow_448_60948" result="shape"/>
</filter>
<filter id="filter1_d_448_60948" x="-0.443499" y="30.6951" width="25.1429" height="25.1429" filterUnits="userSpaceOnUse" color-interpolation-filters="sRGB">
<feFlood flood-opacity="0" result="BackgroundImageFix"/>
<feColorMatrix in="SourceAlpha" type="matrix" values="0 0 0 0 0 0 0 0 0 0 0 0 0 0 0 0 0 0 127 0" result="hardAlpha"/>
<feOffset dy="2.28571"/>
<feGaussianBlur stdDeviation="2.28571"/>
<feColorMatrix type="matrix" values="0 0 0 0 0.0627451 0 0 0 0 0.0941176 0 0 0 0 0.156863 0 0 0 0.05 0"/>
<feBlend mode="normal" in2="BackgroundImageFix" result="effect1_dropShadow_448_60948"/>
<feBlend mode="normal" in="SourceGraphic" in2="effect1_dropShadow_448_60948" result="shape"/>
</filter>
<filter id="filter2_d_448_60948" x="-0.443499" y="58.6951" width="25.1429" height="25.1429" filterUnits="userSpaceOnUse" color-interpolation-filters="sRGB">
<feFlood flood-opacity="0" result="BackgroundImageFix"/>
<feColorMatrix in="SourceAlpha" type="matrix" values="0 0 0 0 0 0 0 0 0 0 0 0 0 0 0 0 0 0 127 0" result="hardAlpha"/>
<feOffset dy="2.28571"/>
<feGaussianBlur stdDeviation="2.28571"/>
<feColorMatrix type="matrix" values="0 0 0 0 0.0627451 0 0 0 0 0.0941176 0 0 0 0 0.156863 0 0 0 0.05 0"/>
<feBlend mode="normal" in2="BackgroundImageFix" result="effect1_dropShadow_448_60948"/>
<feBlend mode="normal" in="SourceGraphic" in2="effect1_dropShadow_448_60948" result="shape"/>
</filter>
<linearGradient id="paint0_linear_448_60948" x1="0.5" y1="0.985962" x2="180.5" y2="80.986" gradientUnits="userSpaceOnUse">
<stop stop-color="white" stop-opacity="0"/>
<stop offset="1" stop-color="white" stop-opacity="0.75"/>
</linearGradient>
<clipPath id="clip0_448_60948">
<rect y="0.985962" width="180.5" height="24" rx="3" fill="white"/>
</clipPath>
<clipPath id="clip1_448_60948">
<rect width="8" height="8" fill="white" transform="translate(8.12793 8.98083)"/>
</clipPath>
<clipPath id="clip2_448_60948">
<rect y="28.986" width="180.5" height="24" rx="3" fill="white"/>
</clipPath>
<clipPath id="clip3_448_60948">
<rect width="8" height="8" fill="white" transform="translate(8.12793 36.9808)"/>
</clipPath>
<clipPath id="clip4_448_60948">
<rect y="56.986" width="180.5" height="24" rx="3" fill="white"/>
</clipPath>
<clipPath id="clip5_448_60948">
<rect width="8" height="8" fill="white" transform="translate(8.12793 64.9808)"/>
</clipPath>
</defs>
</svg>
