<svg width="64" height="64" viewBox="0 0 64 64" fill="none" xmlns="http://www.w3.org/2000/svg">
<g filter="url(#filter0_b_2303_3135)">
<rect width="64" height="64" rx="8" fill="black" fill-opacity="0.03"/>
<g filter="url(#filter1_ddd_2303_3135)">
<path d="M35.5 18.6667H18.6667C17.7462 18.6667 17 19.4129 17 20.3333V45.3333C17 46.2538 17.7462 47 18.6667 47H43.6667C44.5871 47 45.3333 46.2538 45.3333 45.3333V28.5C44.7948 28.6093 44.2374 28.6667 43.6667 28.6667C39.0643 28.6667 35.3333 24.9357 35.3333 20.3333C35.3333 19.7626 35.3907 19.2052 35.5 18.6667Z" fill="url(#paint0_linear_2303_3135)"/>
<path fill-rule="evenodd" clip-rule="evenodd" d="M29.5674 24.5027C29.9317 24.5323 30.2342 24.7958 30.3135 25.1526L33.0616 37.5189L35.393 31.6905C35.5195 31.3741 35.826 31.1667 36.1667 31.1667H39.5V32.8334H36.7309L33.6071 40.6428C33.4714 40.9822 33.1303 41.1935 32.766 41.164C32.4017 41.1344 32.0992 40.8709 32.0199 40.5141L29.2718 28.1478L26.9404 33.9762C26.8139 34.2926 26.5075 34.5 26.1667 34.5H22.8334V32.8334H25.6025L28.7263 25.0239C28.8621 24.6845 29.2031 24.4732 29.5674 24.5027Z" fill="#211F26"/>
<path fill-rule="evenodd" clip-rule="evenodd" d="M43.6667 27C47.3486 27 50.3333 24.0152 50.3333 20.3333C50.3333 16.6514 47.3486 13.6667 43.6667 13.6667C39.9848 13.6667 37 16.6514 37 20.3333C37 24.0152 39.9848 27 43.6667 27ZM43.25 21.1667L42.8333 17H44.5L44.0833 21.1667H43.25ZM44.5 22.8333C44.5 23.2936 44.1269 23.6667 43.6667 23.6667C43.2064 23.6667 42.8333 23.2936 42.8333 22.8333C42.8333 22.3731 43.2064 22 43.6667 22C44.1269 22 44.5 22.3731 44.5 22.8333Z" fill="#211F26"/>
</g>
</g>
<defs>
<filter id="filter0_b_2303_3135" x="-20" y="-20" width="104" height="104" filterUnits="userSpaceOnUse" color-interpolation-filters="sRGB">
<feFlood flood-opacity="0" result="BackgroundImageFix"/>
<feGaussianBlur in="BackgroundImageFix" stdDeviation="10"/>
<feComposite in2="SourceAlpha" operator="in" result="effect1_backgroundBlur_2303_3135"/>
<feBlend mode="normal" in="SourceGraphic" in2="effect1_backgroundBlur_2303_3135" result="shape"/>
</filter>
<filter id="filter1_ddd_2303_3135" x="5.33333" y="7.83333" width="53.3333" height="53.3333" filterUnits="userSpaceOnUse" color-interpolation-filters="sRGB">
<feFlood flood-opacity="0" result="BackgroundImageFix"/>
<feColorMatrix in="SourceAlpha" type="matrix" values="0 0 0 0 0 0 0 0 0 0 0 0 0 0 0 0 0 0 127 0" result="hardAlpha"/>
<feOffset dy="0.833333"/>
<feGaussianBlur stdDeviation="1.25"/>
<feColorMatrix type="matrix" values="0 0 0 0 0 0 0 0 0 0 0 0 0 0 0 0 0 0 0.1 0"/>
<feBlend mode="normal" in2="BackgroundImageFix" result="effect1_dropShadow_2303_3135"/>
<feColorMatrix in="SourceAlpha" type="matrix" values="0 0 0 0 0 0 0 0 0 0 0 0 0 0 0 0 0 0 127 0" result="hardAlpha"/>
<feOffset dy="2.5"/>
<feGaussianBlur stdDeviation="3.33333"/>
<feComposite in2="hardAlpha" operator="out"/>
<feColorMatrix type="matrix" values="0 0 0 0 0 0 0 0 0 0 0 0 0 0 0 0 0 0 0.1 0"/>
<feBlend mode="normal" in2="effect1_dropShadow_2303_3135" result="effect2_dropShadow_2303_3135"/>
<feColorMatrix in="SourceAlpha" type="matrix" values="0 0 0 0 0 0 0 0 0 0 0 0 0 0 0 0 0 0 127 0" result="hardAlpha"/>
<feOffset/>
<feGaussianBlur stdDeviation="0.208333"/>
<feComposite in2="hardAlpha" operator="out"/>
<feColorMatrix type="matrix" values="0 0 0 0 0 0 0 0 0 0 0 0 0 0 0 0 0 0 0.18 0"/>
<feBlend mode="normal" in2="effect2_dropShadow_2303_3135" result="effect3_dropShadow_2303_3135"/>
<feBlend mode="normal" in="SourceGraphic" in2="effect3_dropShadow_2303_3135" result="shape"/>
</filter>
<linearGradient id="paint0_linear_2303_3135" x1="22.7552" y1="18.6667" x2="38.5085" y2="43.3536" gradientUnits="userSpaceOnUse">
<stop stop-color="#C89DFF"/>
<stop offset="1" stop-color="#A98DFF"/>
</linearGradient>
</defs>
</svg>
