<svg width="64" height="64" viewBox="0 0 64 64" fill="none" xmlns="http://www.w3.org/2000/svg">
<g filter="url(#filter0_b_2303_3131)">
<rect width="64" height="64" rx="8" fill="black" fill-opacity="0.03"/>
<g filter="url(#filter1_ddd_2303_3131)">
<path d="M15.3334 17C15.3334 16.0795 16.0796 15.3333 17 15.3333H47C47.9205 15.3333 48.6667 16.0795 48.6667 17V37C48.6667 37.9205 47.9205 38.6667 47 38.6667H17C16.0796 38.6667 15.3334 37.9205 15.3334 37V17Z" fill="url(#paint0_linear_2303_3131)"/>
<path fill-rule="evenodd" clip-rule="evenodd" d="M35.3334 48.6667C33.7802 48.6667 32.4751 47.6044 32.1051 46.1667L30.3334 46.1667V47.8334H28.6667V46.1667H27V47.8334H25.3334L25.3334 44.5L32.1051 44.5C32.4751 43.0623 33.7802 42 35.3334 42C37.1743 42 38.6667 43.4924 38.6667 45.3334C38.6667 47.1743 37.1743 48.6667 35.3334 48.6667ZM33.6667 45.3334C33.6667 46.2538 34.4129 47 35.3334 47C36.2538 47 37 46.2538 37 45.3334C37 44.4129 36.2538 43.6667 35.3334 43.6667C34.4129 43.6667 33.6667 44.4129 33.6667 45.3334Z" fill="#211F26"/>
<path d="M32.8333 23.6667C32.8333 21.8258 31.3409 20.3334 29.5 20.3334C27.6591 20.3334 26.1667 21.8258 26.1667 23.6667C26.1667 25.5077 27.6591 27 29.5 27C31.3409 27 32.8333 25.5077 32.8333 23.6667Z" fill="#211F26"/>
<path d="M37.8333 23.6667C37.8333 21.8258 36.3409 20.3334 34.5 20.3334V27C36.3409 27 37.8333 25.5077 37.8333 23.6667Z" fill="#211F26"/>
<path d="M24.5 30.3334C24.5 29.4129 25.2462 28.6667 26.1667 28.6667H32.8333C33.7538 28.6667 34.5 29.4129 34.5 30.3334V33.6667H24.5V30.3334Z" fill="#211F26"/>
<path d="M37.8333 28.6667H36.1667V33.6667H39.5V30.3334C39.5 29.4129 38.7538 28.6667 37.8333 28.6667Z" fill="#211F26"/>
</g>
</g>
<defs>
<filter id="filter0_b_2303_3131" x="-20" y="-20" width="104" height="104" filterUnits="userSpaceOnUse" color-interpolation-filters="sRGB">
<feFlood flood-opacity="0" result="BackgroundImageFix"/>
<feGaussianBlur in="BackgroundImageFix" stdDeviation="10"/>
<feComposite in2="SourceAlpha" operator="in" result="effect1_backgroundBlur_2303_3131"/>
<feBlend mode="normal" in="SourceGraphic" in2="effect1_backgroundBlur_2303_3131" result="shape"/>
</filter>
<filter id="filter1_ddd_2303_3131" x="5.33333" y="7.83333" width="53.3333" height="53.3333" filterUnits="userSpaceOnUse" color-interpolation-filters="sRGB">
<feFlood flood-opacity="0" result="BackgroundImageFix"/>
<feColorMatrix in="SourceAlpha" type="matrix" values="0 0 0 0 0 0 0 0 0 0 0 0 0 0 0 0 0 0 127 0" result="hardAlpha"/>
<feOffset dy="0.833333"/>
<feGaussianBlur stdDeviation="1.25"/>
<feColorMatrix type="matrix" values="0 0 0 0 0 0 0 0 0 0 0 0 0 0 0 0 0 0 0.1 0"/>
<feBlend mode="normal" in2="BackgroundImageFix" result="effect1_dropShadow_2303_3131"/>
<feColorMatrix in="SourceAlpha" type="matrix" values="0 0 0 0 0 0 0 0 0 0 0 0 0 0 0 0 0 0 127 0" result="hardAlpha"/>
<feOffset dy="2.5"/>
<feGaussianBlur stdDeviation="3.33333"/>
<feComposite in2="hardAlpha" operator="out"/>
<feColorMatrix type="matrix" values="0 0 0 0 0 0 0 0 0 0 0 0 0 0 0 0 0 0 0.1 0"/>
<feBlend mode="normal" in2="effect1_dropShadow_2303_3131" result="effect2_dropShadow_2303_3131"/>
<feColorMatrix in="SourceAlpha" type="matrix" values="0 0 0 0 0 0 0 0 0 0 0 0 0 0 0 0 0 0 127 0" result="hardAlpha"/>
<feOffset/>
<feGaussianBlur stdDeviation="0.208333"/>
<feComposite in2="hardAlpha" operator="out"/>
<feColorMatrix type="matrix" values="0 0 0 0 0 0 0 0 0 0 0 0 0 0 0 0 0 0 0.18 0"/>
<feBlend mode="normal" in2="effect2_dropShadow_2303_3131" result="effect3_dropShadow_2303_3131"/>
<feBlend mode="normal" in="SourceGraphic" in2="effect3_dropShadow_2303_3131" result="shape"/>
</filter>
<linearGradient id="paint0_linear_2303_3131" x1="25.3334" y1="18.6667" x2="39.5" y2="38.6667" gradientUnits="userSpaceOnUse">
<stop stop-color="#43F3C2"/>
<stop offset="1" stop-color="#31DEAE"/>
</linearGradient>
</defs>
</svg>
