<svg width="64" height="64" viewBox="0 0 64 64" fill="none" xmlns="http://www.w3.org/2000/svg">
<g filter="url(#filter0_b_2303_3137)">
<rect width="64" height="64" rx="8" fill="black" fill-opacity="0.03"/>
<g filter="url(#filter1_ddd_2303_3137)">
<path d="M15.3334 17C15.3334 16.0795 16.0796 15.3333 17 15.3333H26.3097C26.7517 15.3333 27.1756 15.5089 27.4882 15.8215L31.5119 19.8452C31.8244 20.1577 32.2484 20.3333 32.6904 20.3333H47C47.9205 20.3333 48.6667 21.0795 48.6667 22V47C48.6667 47.9205 47.9205 48.6667 47 48.6667H17C16.0796 48.6667 15.3334 47.9205 15.3334 47V17Z" fill="url(#paint0_linear_2303_3137)"/>
<path d="M27.0508 33.7847C27.3973 31.3624 29.4819 29.5 32.0001 29.5C33.1688 29.5 34.2429 29.9002 35.0945 30.5722L33.6667 32L38.6667 32.8333L37.8334 27.8333L36.2791 29.3876C35.1217 28.4181 33.6286 27.8333 32.0001 27.8333C28.6409 27.8333 25.8632 30.3171 25.4009 33.5487L27.0508 33.7847Z" fill="#211F26"/>
<path d="M36.9493 35.2153C36.6028 37.6376 34.5182 39.5 32 39.5C30.8313 39.5 29.7572 39.0998 28.9056 38.4278L30.3334 37L25.3334 36.1667L26.1667 41.1667L27.721 39.6124C28.8784 40.5819 30.3715 41.1667 32 41.1667C35.3592 41.1667 38.1369 38.6829 38.5992 35.4513L36.9493 35.2153Z" fill="#211F26"/>
</g>
</g>
<defs>
<filter id="filter0_b_2303_3137" x="-20" y="-20" width="104" height="104" filterUnits="userSpaceOnUse" color-interpolation-filters="sRGB">
<feFlood flood-opacity="0" result="BackgroundImageFix"/>
<feGaussianBlur in="BackgroundImageFix" stdDeviation="10"/>
<feComposite in2="SourceAlpha" operator="in" result="effect1_backgroundBlur_2303_3137"/>
<feBlend mode="normal" in="SourceGraphic" in2="effect1_backgroundBlur_2303_3137" result="shape"/>
</filter>
<filter id="filter1_ddd_2303_3137" x="5.33333" y="7.83333" width="53.3333" height="53.3333" filterUnits="userSpaceOnUse" color-interpolation-filters="sRGB">
<feFlood flood-opacity="0" result="BackgroundImageFix"/>
<feColorMatrix in="SourceAlpha" type="matrix" values="0 0 0 0 0 0 0 0 0 0 0 0 0 0 0 0 0 0 127 0" result="hardAlpha"/>
<feOffset dy="0.833333"/>
<feGaussianBlur stdDeviation="1.25"/>
<feColorMatrix type="matrix" values="0 0 0 0 0 0 0 0 0 0 0 0 0 0 0 0 0 0 0.1 0"/>
<feBlend mode="normal" in2="BackgroundImageFix" result="effect1_dropShadow_2303_3137"/>
<feColorMatrix in="SourceAlpha" type="matrix" values="0 0 0 0 0 0 0 0 0 0 0 0 0 0 0 0 0 0 127 0" result="hardAlpha"/>
<feOffset dy="2.5"/>
<feGaussianBlur stdDeviation="3.33333"/>
<feComposite in2="hardAlpha" operator="out"/>
<feColorMatrix type="matrix" values="0 0 0 0 0 0 0 0 0 0 0 0 0 0 0 0 0 0 0.1 0"/>
<feBlend mode="normal" in2="effect1_dropShadow_2303_3137" result="effect2_dropShadow_2303_3137"/>
<feColorMatrix in="SourceAlpha" type="matrix" values="0 0 0 0 0 0 0 0 0 0 0 0 0 0 0 0 0 0 127 0" result="hardAlpha"/>
<feOffset/>
<feGaussianBlur stdDeviation="0.208333"/>
<feComposite in2="hardAlpha" operator="out"/>
<feColorMatrix type="matrix" values="0 0 0 0 0 0 0 0 0 0 0 0 0 0 0 0 0 0 0.18 0"/>
<feBlend mode="normal" in2="effect2_dropShadow_2303_3137" result="effect3_dropShadow_2303_3137"/>
<feBlend mode="normal" in="SourceGraphic" in2="effect3_dropShadow_2303_3137" result="shape"/>
</filter>
<linearGradient id="paint0_linear_2303_3137" x1="32" y1="15.3333" x2="32" y2="48.6667" gradientUnits="userSpaceOnUse">
<stop stop-color="#A1FFFC"/>
<stop offset="1" stop-color="#8BEEEA"/>
</linearGradient>
</defs>
</svg>
