<svg width="64" height="64" viewBox="0 0 64 64" fill="none" xmlns="http://www.w3.org/2000/svg">
<g filter="url(#filter0_b_2303_3139)">
<rect width="64" height="64" rx="8" fill="black" fill-opacity="0.03"/>
<g filter="url(#filter1_ddd_2303_3139)">
<path fill-rule="evenodd" clip-rule="evenodd" d="M15.3334 17C15.3334 16.0795 16.0796 15.3333 17 15.3333H41.1667C42.0872 15.3333 42.8334 16.0795 42.8334 17V22C42.8334 22.9205 42.0872 23.6667 41.1667 23.6667H17C16.0796 23.6667 15.3334 22.9205 15.3334 22V17ZM15.3334 27C15.3334 26.0795 16.0796 25.3333 17 25.3333H41.1667C42.0872 25.3333 42.8334 26.0795 42.8334 27V32C42.8334 32.9205 42.0872 33.6667 41.1667 33.6667H17C16.0796 33.6667 15.3334 32.9205 15.3334 32V27ZM15.3334 37C15.3334 36.0795 16.0796 35.3333 17 35.3333H35.3334V43.6667H17C16.0796 43.6667 15.3334 42.9205 15.3334 42V37ZM19.5 21.1667C20.4205 21.1667 21.1667 20.4205 21.1667 19.5C21.1667 18.5795 20.4205 17.8333 19.5 17.8333C18.5795 17.8333 17.8333 18.5795 17.8333 19.5C17.8333 20.4205 18.5795 21.1667 19.5 21.1667ZM21.1667 29.5C21.1667 30.4205 20.4205 31.1667 19.5 31.1667C18.5795 31.1667 17.8333 30.4205 17.8333 29.5C17.8333 28.5795 18.5795 27.8333 19.5 27.8333C20.4205 27.8333 21.1667 28.5795 21.1667 29.5ZM21.1667 39.5C21.1667 40.4205 20.4205 41.1667 19.5 41.1667C18.5795 41.1667 17.8333 40.4205 17.8333 39.5C17.8333 38.5795 18.5795 37.8333 19.5 37.8333C20.4205 37.8333 21.1667 38.5795 21.1667 39.5Z" fill="url(#paint0_linear_2303_3139)"/>
<path d="M48.6667 42.8333C48.6667 46.1667 42.8333 48.6667 42.8333 48.6667C42.8333 48.6667 37 46.1667 37 42.8333V35.3333H48.6667V42.8333Z" fill="#211F26"/>
</g>
</g>
<defs>
<filter id="filter0_b_2303_3139" x="-20" y="-20" width="104" height="104" filterUnits="userSpaceOnUse" color-interpolation-filters="sRGB">
<feFlood flood-opacity="0" result="BackgroundImageFix"/>
<feGaussianBlur in="BackgroundImageFix" stdDeviation="10"/>
<feComposite in2="SourceAlpha" operator="in" result="effect1_backgroundBlur_2303_3139"/>
<feBlend mode="normal" in="SourceGraphic" in2="effect1_backgroundBlur_2303_3139" result="shape"/>
</filter>
<filter id="filter1_ddd_2303_3139" x="5.33333" y="7.83333" width="53.3333" height="53.3333" filterUnits="userSpaceOnUse" color-interpolation-filters="sRGB">
<feFlood flood-opacity="0" result="BackgroundImageFix"/>
<feColorMatrix in="SourceAlpha" type="matrix" values="0 0 0 0 0 0 0 0 0 0 0 0 0 0 0 0 0 0 127 0" result="hardAlpha"/>
<feOffset dy="0.833333"/>
<feGaussianBlur stdDeviation="1.25"/>
<feColorMatrix type="matrix" values="0 0 0 0 0 0 0 0 0 0 0 0 0 0 0 0 0 0 0.1 0"/>
<feBlend mode="normal" in2="BackgroundImageFix" result="effect1_dropShadow_2303_3139"/>
<feColorMatrix in="SourceAlpha" type="matrix" values="0 0 0 0 0 0 0 0 0 0 0 0 0 0 0 0 0 0 127 0" result="hardAlpha"/>
<feOffset dy="2.5"/>
<feGaussianBlur stdDeviation="3.33333"/>
<feComposite in2="hardAlpha" operator="out"/>
<feColorMatrix type="matrix" values="0 0 0 0 0 0 0 0 0 0 0 0 0 0 0 0 0 0 0.1 0"/>
<feBlend mode="normal" in2="effect1_dropShadow_2303_3139" result="effect2_dropShadow_2303_3139"/>
<feColorMatrix in="SourceAlpha" type="matrix" values="0 0 0 0 0 0 0 0 0 0 0 0 0 0 0 0 0 0 127 0" result="hardAlpha"/>
<feOffset/>
<feGaussianBlur stdDeviation="0.208333"/>
<feComposite in2="hardAlpha" operator="out"/>
<feColorMatrix type="matrix" values="0 0 0 0 0 0 0 0 0 0 0 0 0 0 0 0 0 0 0.18 0"/>
<feBlend mode="normal" in2="effect2_dropShadow_2303_3139" result="effect3_dropShadow_2303_3139"/>
<feBlend mode="normal" in="SourceGraphic" in2="effect3_dropShadow_2303_3139" result="shape"/>
</filter>
<linearGradient id="paint0_linear_2303_3139" x1="19.3959" y1="35.3333" x2="21.9332" y2="44.8762" gradientUnits="userSpaceOnUse">
<stop stop-color="#C89DFF"/>
<stop offset="1" stop-color="#A98DFF"/>
</linearGradient>
</defs>
</svg>
