<svg width="24" height="24" viewBox="0 0 24 24" fill="none" xmlns="http://www.w3.org/2000/svg">
<g id="icon-24-Console">
<path id="Vector" fill-rule="evenodd" clip-rule="evenodd" d="M16.0391 12.75H22V11.2402H16.0391C15.959 11.2402 15.7793 11.1699 15.7207 11.1094L12.8906 8.2793C12.873 8.26367 12.8535 8.23242 12.834 8.19531C12.7969 8.11719 12.7598 8.01367 12.7598 7.96094V2H11.2598V7.9707C11.2598 8.43945 11.4902 9.00977 11.8301 9.34961L14.6602 12.1797C14.9902 12.5098 15.5605 12.75 16.0391 12.75ZM11.25 22H12.75L12.7402 16.0391C12.7402 15.5703 12.5098 15 12.1699 14.6602L9.33984 11.8301C9.00977 11.5 8.43945 11.2598 7.96094 11.2598H2V12.7598H7.9707C8.05078 12.7598 8.23047 12.8301 8.28906 12.8906L11.1191 15.7207C11.1699 15.7695 11.25 15.959 11.25 16.0391V22Z" fill="#1A1523"/>
</g>
</svg>
