<svg width="24" height="24" viewBox="0 0 24 24" fill="none" xmlns="http://www.w3.org/2000/svg">
<g id="icicon-24-Governance">
<path id="Vector" fill-rule="evenodd" clip-rule="evenodd" d="M2 22H3.5V17.51C3.5 17.42 3.58 17.21 3.64 17.14L11.97 7.88C12.29 7.53 12.5 6.97 12.5 6.5V2H11V6.5C11 6.59 10.92 6.8 10.86 6.87L2.53 16.13C2.22 16.47 2 17.04 2 17.5V22ZM11.5 22H13V17.51C13 17.42 13.08 17.21 13.14 17.14L21.47 7.88C21.79 7.53 22 6.97 22 6.5V2H20.5V6.5C20.5 6.59 20.42 6.8 20.36 6.87L12.03 16.13C11.72 16.47 11.5 17.04 11.5 17.5V22Z" fill="#1A1523"/>
</g>
</svg>
