<svg width="24" height="24" viewBox="0 0 24 24" fill="none" xmlns="http://www.w3.org/2000/svg">
<g id="icon-24-Optimise">
<path id="Vector" fill-rule="evenodd" clip-rule="evenodd" d="M13.3203 4.63086L20.9395 12.25L21.9902 11.1895L14.3809 3.57031C14.0508 3.24023 13.4805 3 13 3H11C10.7734 3 10.5215 3.05469 10.2852 3.14844C10.0312 3.24805 9.79492 3.39453 9.61914 3.57031L2 11.1895L3.06055 12.25L10.6797 4.63086C10.7402 4.58008 10.9199 4.5 11 4.5H13C13.0801 4.5 13.2598 4.57031 13.3203 4.63086ZM13.3203 13.6309L20.9395 21.25L21.9902 20.1895L14.3809 12.5703C14.0508 12.2402 13.4805 12 13 12H11C10.5293 12 9.96094 12.2305 9.61914 12.5703L2 20.1895L3.06055 21.25L10.6797 13.6309C10.7402 13.5801 10.9199 13.5 11 13.5H13C13.0801 13.5 13.2598 13.5703 13.3203 13.6309Z" fill="#1A1523"/>
</g>
</svg>
