<svg width="24" height="24" viewBox="0 0 24 24" fill="none" xmlns="http://www.w3.org/2000/svg">
<g id="iicon-24-Security">
<path id="Vector" fill-rule="evenodd" clip-rule="evenodd" d="M2.58008 15.3809L9.18945 22L10.2598 20.9395L3.64062 14.3203C3.58984 14.2598 3.50977 14.0801 3.50977 14V10C3.50977 9.95117 3.53516 9.86523 3.57031 9.79102C3.5918 9.74414 3.61719 9.70312 3.64062 9.67969L10.25 3.06055L9.18945 2L2.58008 8.60938C2.25 8.94922 2.00977 9.51953 2.00977 10V14C2.00977 14.4707 2.24023 15.0508 2.58008 15.3809ZM21.4199 8.61914L14.8105 2L13.7402 3.06055L20.3594 9.67969C20.4102 9.74023 20.4902 9.91992 20.4902 10V14C20.4902 14.0801 20.4199 14.2598 20.3594 14.3203L13.75 20.9395L14.8105 22L21.4199 15.3906C21.75 15.0508 21.9902 14.4805 21.9902 14V10C21.9902 9.5293 21.7598 8.94922 21.4199 8.61914Z" fill="#1A1523"/>
</g>
</svg>
