<svg width="600" height="260" viewBox="0 0 600 260" fill="none" xmlns="http://www.w3.org/2000/svg">
<g filter="url(#filter0_ddii_3827_2903)">
<rect x="62" y="46" width="60" height="60" rx="10" fill="#2F312E" shape-rendering="crispEdges"/>
<rect x="62.5" y="46.5" width="59" height="59" rx="9.5" stroke="#2F312E" shape-rendering="crispEdges"/>
<path fill-rule="evenodd" clip-rule="evenodd" d="M82.7405 80.2289C82.7405 82.0904 81.2381 83.5928 79.3766 83.5928C77.5151 83.5928 76.0127 82.0854 76.0127 80.2289C76.0127 78.3724 77.5151 76.865 79.3766 76.865H82.7405V80.2289ZM84.4199 80.2289C84.4199 78.3674 85.9223 76.865 87.7838 76.865C89.6453 76.865 91.1477 78.3674 91.1477 80.2289V88.6361C91.1477 90.4976 89.6453 92 87.7838 92C85.9223 92 84.4199 90.4976 84.4199 88.6361V80.2289Z" fill="#E01E5A"/>
<path fill-rule="evenodd" clip-rule="evenodd" d="M87.7837 66.7278C85.9222 66.7278 84.4198 65.2254 84.4198 63.3639C84.4198 61.5024 85.9222 60 87.7837 60C89.6452 60 91.1476 61.5024 91.1476 63.3639V66.7278H87.7837ZM87.7837 68.4325C89.6452 68.4325 91.1476 69.9349 91.1476 71.7964C91.1476 73.6579 89.6452 75.1603 87.7837 75.1603H79.3512C77.4897 75.1603 75.9873 73.6529 75.9873 71.7964C75.9873 69.9399 77.4897 68.4325 79.3512 68.4325H87.7837Z" fill="#36C5F0"/>
<path fill-rule="evenodd" clip-rule="evenodd" d="M101.26 71.7964C101.26 69.9349 102.762 68.4325 104.624 68.4325C106.485 68.4325 107.988 69.9349 107.988 71.7964C107.988 73.6579 106.485 75.1603 104.624 75.1603H101.26V71.7964ZM99.5803 71.7964C99.5803 73.6579 98.078 75.1603 96.2164 75.1603C94.3549 75.1603 92.8525 73.6579 92.8525 71.7964V63.3639C92.8525 61.5024 94.3549 60 96.2164 60C98.078 60 99.5803 61.5024 99.5803 63.3639V71.7964Z" fill="#2EB67D"/>
<path fill-rule="evenodd" clip-rule="evenodd" d="M96.2164 85.2722C98.078 85.2722 99.5803 86.7746 99.5803 88.6361C99.5803 90.4976 98.078 92 96.2164 92C94.3549 92 92.8525 90.4976 92.8525 88.6361V85.2722H96.2164ZM96.2164 83.5928C94.3549 83.5928 92.8525 82.0904 92.8525 80.2289C92.8525 78.3674 94.3549 76.865 96.2164 76.865H104.649C106.51 76.865 108.013 78.3674 108.013 80.2289C108.013 82.0904 106.51 83.5928 104.649 83.5928H96.2164Z" fill="#ECB22E"/>
</g>
<line x1="62" y1="129.5" x2="122" y2="129.5" stroke="#5C625B" stroke-dasharray="4 4"/>
<g filter="url(#filter1_ddii_3827_2903)">
<rect x="62" y="154" width="60" height="60" rx="10" fill="#2F312E" shape-rendering="crispEdges"/>
<rect x="62.5" y="154.5" width="59" height="59" rx="9.5" stroke="#2F312E" shape-rendering="crispEdges"/>
<g clip-path="url(#clip0_3827_2903)">
<path d="M92.9172 178.667C95.4927 178.667 97.5806 176.578 97.5806 174C97.5806 171.422 95.4927 169.333 92.9172 169.333C90.3417 169.333 88.2539 171.422 88.2539 174C88.2539 176.578 90.3417 178.667 92.9172 178.667Z" fill="#7B83EB"/>
<path opacity="0.1" d="M92.5845 175H88.3608L88.3818 175.093L88.3838 175.101L88.4058 175.187C88.7127 176.352 89.4573 177.353 90.4842 177.981C91.511 178.609 92.7407 178.816 93.9165 178.559V176.333C93.9154 175.98 93.7747 175.641 93.5252 175.392C93.2756 175.142 92.9374 175.001 92.5845 175Z" fill="black"/>
<path opacity="0.2" d="M91.5853 176H88.7036C89.0818 176.798 89.6785 177.472 90.4244 177.944C91.1703 178.416 92.0348 178.667 92.9173 178.667V177.333C92.9162 176.98 92.7756 176.641 92.526 176.392C92.2764 176.142 91.9383 176.001 91.5853 176Z" fill="black"/>
<path d="M103.409 179C105.34 179 106.906 177.433 106.906 175.5C106.906 173.567 105.34 172 103.409 172C101.477 172 99.9116 173.567 99.9116 175.5C99.9116 177.433 101.477 179 103.409 179Z" fill="#5059C9"/>
<path d="M106.407 180H98.552C98.3824 180 98.2197 180.067 98.0998 180.187C97.9799 180.307 97.9125 180.47 97.9125 180.64V188.75C97.8908 189.924 98.2728 191.069 98.9944 191.995C99.716 192.92 100.733 193.57 101.876 193.834C102.604 193.987 103.357 193.975 104.08 193.8C104.803 193.625 105.478 193.291 106.055 192.822C106.633 192.353 107.099 191.761 107.419 191.089C107.739 190.417 107.905 189.682 107.906 188.938V181.5C107.906 181.102 107.748 180.721 107.467 180.439C107.186 180.158 106.804 180 106.407 180Z" fill="#5059C9"/>
<path d="M100.911 181.5V191C100.912 192.761 100.332 194.472 99.2616 195.869C98.1912 197.266 96.6899 198.271 94.9907 198.727C93.2916 199.183 91.4896 199.065 89.8644 198.391C88.2392 197.717 86.8816 196.525 86.0025 195C85.8102 194.68 85.6432 194.346 85.5029 194C85.3721 193.674 85.262 193.34 85.1731 193C85.0084 192.346 84.9245 191.674 84.9233 191V181.5C84.9231 181.303 84.9617 181.108 85.0369 180.926C85.1121 180.744 85.2225 180.578 85.3617 180.439C85.501 180.299 85.6663 180.189 85.8483 180.114C86.0302 180.038 86.2253 180 86.4222 180H99.4119C99.6088 180 99.8039 180.038 99.9858 180.114C100.168 180.189 100.333 180.299 100.472 180.439C100.612 180.578 100.722 180.744 100.797 180.926C100.872 181.108 100.911 181.303 100.911 181.5Z" fill="#7B83EB"/>
<path opacity="0.2" d="M91.5853 176H88.7036C89.0818 176.798 89.6785 177.472 90.4244 177.944C91.1703 178.416 92.0348 178.667 92.9173 178.667V177.333C92.9162 176.98 92.7756 176.641 92.526 176.392C92.2764 176.142 91.9383 176.001 91.5853 176Z" fill="black"/>
<path opacity="0.1" d="M93.9163 180V192.67C93.9163 192.971 93.8132 193.264 93.6241 193.499C93.4351 193.733 93.1714 193.896 92.8771 193.96C92.7831 193.988 92.6854 194.001 92.5873 194H85.5029C85.3721 193.674 85.262 193.34 85.1731 193C85.0084 192.346 84.9245 191.674 84.9233 191V181.5C84.9231 181.303 84.9617 181.108 85.0369 180.926C85.1121 180.744 85.2225 180.578 85.3617 180.439C85.501 180.299 85.6663 180.189 85.8483 180.114C86.0302 180.038 86.2253 180 86.4222 180H93.9163Z" fill="black"/>
<path opacity="0.2" d="M92.917 180V193.67C92.9185 193.768 92.905 193.866 92.8771 193.96C92.8132 194.255 92.6505 194.518 92.416 194.708C92.1815 194.897 91.8893 195 91.5881 195H86.0025C85.8102 194.68 85.6432 194.346 85.5029 194C85.3721 193.674 85.262 193.34 85.1731 193C85.0084 192.346 84.9245 191.674 84.9233 191V181.5C84.9231 181.303 84.9617 181.108 85.0369 180.926C85.1121 180.744 85.2225 180.578 85.3617 180.439C85.501 180.299 85.6663 180.189 85.8483 180.114C86.0302 180.038 86.2253 180 86.4222 180H92.917Z" fill="black"/>
<path opacity="0.2" d="M92.917 180V191.67C92.9155 192.022 92.7749 192.36 92.5261 192.609C92.2772 192.858 91.9401 192.998 91.5881 193H85.1731C85.0084 192.346 84.9245 191.674 84.9233 191V181.5C84.9231 181.303 84.9617 181.108 85.0369 180.926C85.1121 180.744 85.2225 180.578 85.3617 180.439C85.501 180.299 85.6663 180.189 85.8483 180.114C86.0302 180.038 86.2253 180 86.4222 180H92.917Z" fill="black"/>
<path opacity="0.2" d="M86.4222 180C86.2253 180 86.0302 180.038 85.8483 180.114C85.6663 180.189 85.501 180.299 85.3617 180.439C85.2225 180.578 85.1121 180.744 85.0369 180.926C84.9617 181.108 84.9231 181.303 84.9233 181.5V191C84.9245 191.674 85.0084 192.346 85.1731 193H90.5889C90.9409 192.998 91.278 192.858 91.5268 192.609C91.7757 192.36 91.9163 192.022 91.9178 191.67V180H86.4222Z" fill="black"/>
<path d="M77.2626 176H90.5861C90.9394 176 91.2782 176.14 91.528 176.39C91.7777 176.64 91.9181 176.979 91.9181 177.333V190.667C91.9181 191.021 91.7777 191.36 91.528 191.61C91.2782 191.86 90.9394 192 90.5861 192H77.2626C76.9094 192 76.5706 191.86 76.3208 191.61C76.071 191.36 75.9307 191.021 75.9307 190.667V177.333C75.9307 176.979 76.071 176.64 76.3208 176.39C76.5706 176.14 76.9094 176 77.2626 176Z" fill="#4B53BC"/>
<path d="M87.901 180.975H84.9134V188.995H82.9529V180.975H79.9473V179.005H87.901V180.975Z" fill="white"/>
</g>
</g>
<g filter="url(#filter2_ddii_3827_2903)">
<path d="M248 158.8C248 151.519 248 147.879 249.417 145.098C250.663 142.652 252.652 140.663 255.098 139.417C257.879 138 261.519 138 268.8 138H487.2C494.481 138 498.121 138 500.902 139.417C503.348 140.663 505.337 142.652 506.583 145.098C508 147.879 508 151.519 508 158.8V182.2C508 189.481 508 193.121 506.583 195.902C505.337 198.348 503.348 200.337 500.902 201.583C498.121 203 494.481 203 487.2 203H268.8C261.519 203 257.879 203 255.098 201.583C252.652 200.337 250.663 198.348 249.417 195.902C248 193.121 248 189.481 248 182.2V158.8Z" fill="#2F312E" shape-rendering="crispEdges"/>
<path d="M248.406 158.8C248.406 155.153 248.407 152.442 248.582 150.295C248.757 148.152 249.104 146.606 249.779 145.283C250.986 142.913 252.913 140.986 255.283 139.779C256.606 139.104 258.152 138.757 260.295 138.582C262.442 138.407 265.153 138.406 268.8 138.406H487.2C490.847 138.406 493.558 138.407 495.705 138.582C497.848 138.757 499.394 139.104 500.717 139.779C503.087 140.986 505.014 142.913 506.221 145.283C506.896 146.606 507.243 148.152 507.418 150.295C507.593 152.442 507.594 155.153 507.594 158.8V182.2C507.594 185.847 507.593 188.558 507.418 190.705C507.243 192.848 506.896 194.394 506.221 195.717C505.014 198.087 503.087 200.014 500.717 201.221C499.394 201.896 497.848 202.243 495.705 202.418C493.558 202.593 490.847 202.594 487.2 202.594H268.8C265.153 202.594 262.442 202.593 260.295 202.418C258.152 202.243 256.606 201.896 255.283 201.221C252.913 200.014 250.986 198.087 249.779 195.717C249.104 194.394 248.757 192.848 248.582 190.705C248.407 188.558 248.406 185.847 248.406 182.2V158.8Z" stroke="#2F312E" stroke-width="0.8125" shape-rendering="crispEdges"/>
<path d="M261 160.75C261 155.365 265.365 151 270.75 151H290.25C295.635 151 300 155.365 300 160.75V180.25C300 185.635 295.635 190 290.25 190H270.75C265.365 190 261 185.635 261 180.25V160.75Z" fill="#687066"/>
<rect x="309.75" y="151" width="60.125" height="16.25" rx="1.625" fill="#687066"/>
<rect x="443" y="151" width="52" height="9.75" rx="1.625" fill="#687066"/>
<rect x="309.75" y="173.75" width="173.875" height="16.25" rx="1.625" fill="#687066"/>
</g>
<g filter="url(#filter3_ddii_3827_2903)">
<path d="M238 138.4C238 130.559 238 126.639 239.526 123.644C240.868 121.01 243.01 118.868 245.644 117.526C248.639 116 252.559 116 260.4 116H495.6C503.441 116 507.361 116 510.356 117.526C512.99 118.868 515.132 121.01 516.474 123.644C518 126.639 518 130.559 518 138.4V163.6C518 171.441 518 175.361 516.474 178.356C515.132 180.99 512.99 183.132 510.356 184.474C507.361 186 503.441 186 495.6 186H260.4C252.559 186 248.639 186 245.644 184.474C243.01 183.132 240.868 180.99 239.526 178.356C238 175.361 238 171.441 238 163.6V138.4Z" fill="#2F312E" shape-rendering="crispEdges"/>
<path d="M238.438 138.4C238.438 134.472 238.438 131.553 238.627 129.24C238.815 126.933 239.189 125.268 239.916 123.843C241.216 121.291 243.291 119.216 245.843 117.916C247.268 117.189 248.933 116.815 251.24 116.627C253.553 116.438 256.472 116.438 260.4 116.438H495.6C499.528 116.438 502.447 116.438 504.76 116.627C507.067 116.815 508.732 117.189 510.157 117.916C512.709 119.216 514.784 121.291 516.084 123.843C516.811 125.268 517.185 126.933 517.373 129.24C517.562 131.553 517.562 134.472 517.562 138.4V163.6C517.562 167.528 517.562 170.447 517.373 172.76C517.185 175.067 516.811 176.732 516.084 178.157C514.784 180.709 512.709 182.784 510.157 184.084C508.732 184.811 507.067 185.185 504.76 185.373C502.447 185.562 499.528 185.562 495.6 185.562H260.4C256.472 185.562 253.553 185.562 251.24 185.373C248.933 185.185 247.268 184.811 245.843 184.084C243.291 182.784 241.216 180.709 239.916 178.157C239.189 176.732 238.815 175.067 238.627 172.76C238.438 170.447 238.438 167.528 238.438 163.6V138.4Z" stroke="#2F312E" stroke-width="0.875" shape-rendering="crispEdges"/>
<path d="M252 140.5C252 134.701 256.701 130 262.5 130H283.5C289.299 130 294 134.701 294 140.5V161.5C294 167.299 289.299 172 283.5 172H262.5C256.701 172 252 167.299 252 161.5V140.5Z" fill="#687066"/>
<rect x="304.5" y="130" width="64.75" height="17.5" rx="1.75" fill="#687066"/>
<rect x="448" y="130" width="56" height="10.5" rx="1.75" fill="#687066"/>
<rect x="304.5" y="154.5" width="187.25" height="17.5" rx="1.75" fill="#687066"/>
</g>
<g filter="url(#filter4_ddii_3827_2903)">
<path d="M228 113C228 104.599 228 100.399 229.635 97.1901C231.073 94.3677 233.368 92.073 236.19 90.6349C239.399 89 243.599 89 252 89H504C512.401 89 516.601 89 519.81 90.6349C522.632 92.073 524.927 94.3677 526.365 97.1901C528 100.399 528 104.599 528 113V140C528 148.401 528 152.601 526.365 155.81C524.927 158.632 522.632 160.927 519.81 162.365C516.601 164 512.401 164 504 164H252C243.599 164 239.399 164 236.19 162.365C233.368 160.927 231.073 158.632 229.635 155.81C228 152.601 228 148.401 228 140V113Z" fill="#2F312E" shape-rendering="crispEdges"/>
<path d="M228.469 113C228.469 108.792 228.469 105.664 228.672 103.186C228.874 100.714 229.274 98.9302 230.053 97.403C231.446 94.6687 233.669 92.4457 236.403 91.0526C237.93 90.2744 239.714 89.8736 242.186 89.6716C244.664 89.4691 247.792 89.4688 252 89.4688H504C508.208 89.4688 511.336 89.4691 513.814 89.6716C516.286 89.8736 518.07 90.2744 519.597 91.0526C522.331 92.4457 524.554 94.6687 525.947 97.403C526.726 98.9302 527.126 100.714 527.328 103.186C527.531 105.664 527.531 108.792 527.531 113V140C527.531 144.208 527.531 147.336 527.328 149.814C527.126 152.286 526.726 154.07 525.947 155.597C524.554 158.331 522.331 160.554 519.597 161.947C518.07 162.726 516.286 163.126 513.814 163.328C511.336 163.531 508.208 163.531 504 163.531H252C247.792 163.531 244.664 163.531 242.186 163.328C239.714 163.126 237.93 162.726 236.403 161.947C233.669 160.554 231.446 158.331 230.053 155.597C229.274 154.07 228.874 152.286 228.672 149.814C228.469 147.336 228.469 144.208 228.469 140V113Z" stroke="#2F312E" stroke-width="0.9375" shape-rendering="crispEdges"/>
<path d="M243 115.25C243 109.037 248.037 104 254.25 104H276.75C282.963 104 288 109.037 288 115.25V137.75C288 143.963 282.963 149 276.75 149H254.25C248.037 149 243 143.963 243 137.75V115.25Z" fill="#687066"/>
<rect x="299.25" y="104" width="69.375" height="18.75" rx="1.875" fill="#687066"/>
<rect x="453" y="104" width="60" height="11.25" rx="1.875" fill="#687066"/>
<rect x="299.25" y="130.25" width="200.625" height="18.75" rx="1.875" fill="#687066"/>
</g>
<g filter="url(#filter5_ddii_3827_2903)">
<path d="M218 82.6C218 73.6392 218 69.1587 219.744 65.7362C221.278 62.7256 223.726 60.2779 226.736 58.7439C230.159 57 234.639 57 243.6 57H512.4C521.361 57 525.841 57 529.264 58.7439C532.274 60.2779 534.722 62.7256 536.256 65.7362C538 69.1587 538 73.6392 538 82.6V111.4C538 120.361 538 124.841 536.256 128.264C534.722 131.274 532.274 133.722 529.264 135.256C525.841 137 521.361 137 512.4 137H243.6C234.639 137 230.159 137 226.736 135.256C223.726 133.722 221.278 131.274 219.744 128.264C218 124.841 218 120.361 218 111.4V82.6Z" fill="#2F312E" shape-rendering="crispEdges"/>
<path d="M218.5 82.6C218.5 78.1113 218.5 74.7749 218.716 72.1319C218.932 69.4948 219.359 67.5922 220.189 65.9631C221.675 63.0466 224.047 60.6754 226.963 59.1894C228.592 58.3594 230.495 57.9318 233.132 57.7163C235.775 57.5004 239.111 57.5 243.6 57.5H512.4C516.889 57.5 520.225 57.5004 522.868 57.7163C525.505 57.9318 527.408 58.3594 529.037 59.1894C531.953 60.6754 534.325 63.0466 535.811 65.9631C536.641 67.5922 537.068 69.4948 537.284 72.1319C537.5 74.7749 537.5 78.1113 537.5 82.6V111.4C537.5 115.889 537.5 119.225 537.284 121.868C537.068 124.505 536.641 126.408 535.811 128.037C534.325 130.953 531.953 133.325 529.037 134.811C527.408 135.641 525.505 136.068 522.868 136.284C520.225 136.5 516.889 136.5 512.4 136.5H243.6C239.111 136.5 235.775 136.5 233.132 136.284C230.495 136.068 228.592 135.641 226.963 134.811C224.047 133.325 221.675 130.953 220.189 128.037C219.359 126.408 218.932 124.505 218.716 121.868C218.5 119.225 218.5 115.889 218.5 111.4V82.6Z" stroke="#2F312E" shape-rendering="crispEdges"/>
<g filter="url(#filter6_ddd_3827_2903)">
<path d="M234 92.2C234 85.4794 234 82.1191 235.308 79.5521C236.458 77.2942 238.294 75.4584 240.552 74.3079C243.119 73 246.479 73 253.2 73H262.8C269.521 73 272.881 73 275.448 74.3079C277.706 75.4584 279.542 77.2942 280.692 79.5521C282 82.1191 282 85.4794 282 92.2V101.8C282 108.521 282 111.881 280.692 114.448C279.542 116.706 277.706 118.542 275.448 119.692C272.881 121 269.521 121 262.8 121H253.2C246.479 121 243.119 121 240.552 119.692C238.294 118.542 236.458 116.706 235.308 114.448C234 111.881 234 108.521 234 101.8V92.2Z" fill="url(#paint0_linear_3827_2903)" shape-rendering="crispEdges"/>
<g clip-path="url(#clip1_3827_2903)">
<path d="M249.596 84L256.144 87.7475H259.833L266.404 84L267.718 85.3136L262.26 90.7711C261.9 91.1314 261.186 91.4262 260.675 91.4262H255.329C254.818 91.4262 254.103 91.1314 253.743 90.7711L248.282 85.3136L249.596 84ZM267.718 108.686L262.26 103.229C261.9 102.869 261.186 102.574 260.675 102.574H255.329C254.818 102.574 254.103 102.869 253.743 103.229L248.286 108.686L249.599 110L256.17 106.252H259.859L266.407 110L267.718 108.686ZM264.229 92.7398C263.869 93.1002 263.574 93.8143 263.574 94.3253V99.6714C263.574 100.182 263.869 100.897 264.229 101.257L269.686 106.714L271 105.401L267.252 98.8295V95.141L271 88.5927L269.686 87.2791L264.229 92.7398ZM246.314 106.718L251.771 101.26C252.131 100.9 252.426 100.186 252.426 99.6747V94.3286C252.426 93.8176 252.131 93.1034 251.771 92.7431L246.314 87.2823L245 88.5959L248.748 95.1672V98.8557L245 105.404L246.314 106.718Z" fill="#BCFE68"/>
</g>
</g>
<path d="M303.534 86.528C303.142 88.824 301.658 90.224 299.306 90.224C296.394 90.224 294.616 87.956 294.616 85.044C294.616 82.118 296.38 79.836 299.306 79.836C301.546 79.836 303.044 81.166 303.478 83.35L301.56 83.448C301.294 82.16 300.468 81.446 299.278 81.446C297.36 81.446 296.506 83.042 296.506 85.044C296.506 87.032 297.374 88.614 299.278 88.614C300.524 88.614 301.364 87.83 301.602 86.43L303.534 86.528ZM308.332 90.168C306.12 90.168 304.664 88.642 304.664 86.29C304.664 83.938 306.12 82.412 308.332 82.412C310.544 82.412 312 83.938 312 86.29C312 88.642 310.544 90.168 308.332 90.168ZM306.526 86.29C306.526 87.816 307.184 88.698 308.332 88.698C309.48 88.698 310.138 87.816 310.138 86.29C310.138 84.764 309.48 83.882 308.332 83.882C307.184 83.882 306.526 84.764 306.526 86.29ZM313.464 82.58H315.102L315.144 83.784C315.55 82.804 316.39 82.412 317.384 82.412C319.022 82.412 319.918 83.56 319.918 85.226V90H318.112V85.8C318.112 84.568 317.79 83.882 316.838 83.882C315.844 83.882 315.284 84.568 315.284 85.8V90H313.464V82.58ZM328.457 80.06V90H326.735L326.693 88.95C326.287 89.706 325.433 90.168 324.425 90.168C322.493 90.168 321.289 88.67 321.289 86.29C321.289 83.91 322.493 82.412 324.425 82.412C325.377 82.412 326.217 82.846 326.637 83.574V80.06H328.457ZM323.151 86.29C323.151 87.76 323.865 88.712 324.957 88.712C326.063 88.712 326.763 87.76 326.763 86.29C326.763 84.778 326.049 83.826 324.957 83.826C323.851 83.826 323.151 84.778 323.151 86.29ZM336.556 90H334.89L334.862 88.81C334.456 89.79 333.63 90.168 332.664 90.168C331.054 90.168 330.158 89.02 330.158 87.354V82.58H331.978V86.766C331.978 88.012 332.3 88.698 333.224 88.698C334.176 88.698 334.736 88.012 334.736 86.766V82.58H336.556V90ZM338.511 80.06H340.331V85.912L343.327 82.58H345.553L342.655 85.66L345.679 90H343.649L341.479 86.738L340.331 87.984V90H338.511V80.06ZM347.937 80.9H349.757V82.58H351.717V83.98H349.757V87.718C349.757 88.292 350.037 88.586 350.597 88.586H351.717V90H350.289C348.763 90 347.937 89.23 347.937 87.718V83.98H346.775V82.58H347.937V80.9ZM356.266 90.168C354.054 90.168 352.598 88.642 352.598 86.29C352.598 83.938 354.054 82.412 356.266 82.412C358.478 82.412 359.934 83.938 359.934 86.29C359.934 88.642 358.478 90.168 356.266 90.168ZM354.46 86.29C354.46 87.816 355.118 88.698 356.266 88.698C357.414 88.698 358.072 87.816 358.072 86.29C358.072 84.764 357.414 83.882 356.266 83.882C355.118 83.882 354.46 84.764 354.46 86.29ZM361.398 82.58H363.092L363.134 84.022C363.414 83.056 363.96 82.58 364.912 82.58H365.612V83.994H364.898C363.708 83.994 363.218 84.582 363.218 85.772V90H361.398V82.58Z" fill="#ECEEEC"/>
<path d="M475.753 87V86.3608L478.153 83.733C478.435 83.4252 478.667 83.1577 478.849 82.9304C479.032 82.7008 479.167 82.4853 479.254 82.2841C479.344 82.0805 479.389 81.8674 479.389 81.6449C479.389 81.3892 479.328 81.1679 479.205 80.9808C479.084 80.7938 478.918 80.6494 478.707 80.5476C478.497 80.4458 478.26 80.3949 477.997 80.3949C477.718 80.3949 477.474 80.4529 477.266 80.5689C477.06 80.6825 476.9 80.8423 476.786 81.0483C476.675 81.2543 476.619 81.4957 476.619 81.7727H475.781C475.781 81.3466 475.879 80.9725 476.076 80.6506C476.272 80.3286 476.54 80.0777 476.879 79.8977C477.219 79.7178 477.602 79.6278 478.026 79.6278C478.452 79.6278 478.829 79.7178 479.158 79.8977C479.487 80.0777 479.746 80.3203 479.933 80.6257C480.12 80.9311 480.213 81.2708 480.213 81.6449C480.213 81.9124 480.165 82.174 480.067 82.4297C479.973 82.683 479.807 82.9659 479.57 83.2784C479.336 83.5885 479.01 83.9673 478.594 84.4148L476.96 86.1619V86.2188H480.341V87H475.753ZM484.634 87V81.5455H485.444V82.3977H485.515C485.629 82.1065 485.812 81.8804 486.065 81.7195C486.319 81.5561 486.623 81.4744 486.978 81.4744C487.338 81.4744 487.637 81.5561 487.876 81.7195C488.118 81.8804 488.306 82.1065 488.441 82.3977H488.498C488.638 82.116 488.847 81.8923 489.126 81.7266C489.406 81.5585 489.741 81.4744 490.131 81.4744C490.619 81.4744 491.018 81.6271 491.328 81.9325C491.638 82.2356 491.793 82.7079 491.793 83.3494V87H490.955V83.3494C490.955 82.947 490.845 82.6593 490.625 82.4865C490.405 82.3137 490.146 82.2273 489.847 82.2273C489.464 82.2273 489.167 82.3433 488.956 82.5753C488.745 82.8049 488.64 83.0961 488.64 83.4489V87H487.788V83.2642C487.788 82.9541 487.687 82.7043 487.486 82.5149C487.285 82.3232 487.025 82.2273 486.708 82.2273C486.49 82.2273 486.287 82.2853 486.097 82.4013C485.91 82.5173 485.759 82.6783 485.643 82.8842C485.529 83.0878 485.472 83.3234 485.472 83.5909V87H484.634ZM493.326 87V81.5455H494.164V87H493.326ZM493.752 80.6364C493.588 80.6364 493.448 80.5807 493.329 80.4695C493.213 80.3582 493.155 80.2244 493.155 80.0682C493.155 79.9119 493.213 79.7782 493.329 79.6669C493.448 79.5556 493.588 79.5 493.752 79.5C493.915 79.5 494.055 79.5556 494.171 79.6669C494.289 79.7782 494.348 79.9119 494.348 80.0682C494.348 80.2244 494.289 80.3582 494.171 80.4695C494.055 80.5807 493.915 80.6364 493.752 80.6364ZM496.537 83.7188V87H495.699V81.5455H496.508V82.3977H496.579C496.707 82.1207 496.901 81.8982 497.162 81.7301C497.422 81.5597 497.758 81.4744 498.17 81.4744C498.54 81.4744 498.863 81.5502 499.14 81.7017C499.417 81.8509 499.632 82.0781 499.786 82.3835C499.94 82.6866 500.017 83.0701 500.017 83.5341V87H499.179V83.5909C499.179 83.1624 499.068 82.8286 498.845 82.5895C498.622 82.348 498.317 82.2273 497.929 82.2273C497.661 82.2273 497.422 82.2853 497.211 82.4013C497.003 82.5173 496.839 82.6866 496.718 82.9091C496.597 83.1316 496.537 83.4015 496.537 83.7188ZM505.966 87.1278C505.62 87.1278 505.307 87.0627 505.025 86.9325C504.743 86.8 504.519 86.6094 504.354 86.3608C504.188 86.1098 504.105 85.8068 504.105 85.4517C504.105 85.1392 504.167 84.8859 504.29 84.6918C504.413 84.4953 504.577 84.3414 504.783 84.2301C504.989 84.1188 505.217 84.036 505.465 83.9815C505.716 83.9247 505.968 83.8797 506.222 83.8466C506.553 83.804 506.822 83.772 507.028 83.7507C507.236 83.727 507.388 83.688 507.482 83.6335C507.579 83.5791 507.628 83.4844 507.628 83.3494V83.321C507.628 82.9706 507.532 82.6984 507.34 82.5043C507.151 82.3101 506.863 82.2131 506.477 82.2131C506.077 82.2131 505.763 82.3007 505.536 82.4759C505.309 82.651 505.149 82.8381 505.057 83.0369L504.261 82.7528C504.403 82.4214 504.593 82.1634 504.83 81.9787C505.069 81.7917 505.329 81.6615 505.611 81.5881C505.895 81.5123 506.174 81.4744 506.449 81.4744C506.624 81.4744 506.825 81.4957 507.053 81.5384C507.282 81.5786 507.504 81.6626 507.717 81.7905C507.932 81.9183 508.111 82.1113 508.253 82.3693C508.395 82.6274 508.466 82.973 508.466 83.4062V87H507.628V86.2614H507.585C507.528 86.3797 507.434 86.5064 507.301 86.6413C507.169 86.7763 506.992 86.8911 506.772 86.9858C506.552 87.0805 506.283 87.1278 505.966 87.1278ZM506.094 86.375C506.425 86.375 506.705 86.3099 506.932 86.1797C507.161 86.0495 507.334 85.8814 507.45 85.6754C507.569 85.4695 507.628 85.2528 507.628 85.0256V84.2585C507.592 84.3011 507.514 84.3402 507.393 84.3757C507.275 84.4089 507.138 84.4384 506.982 84.4645C506.828 84.4882 506.677 84.5095 506.531 84.5284C506.386 84.545 506.269 84.5592 506.179 84.571C505.961 84.5994 505.758 84.6456 505.568 84.7095C505.381 84.7711 505.23 84.8646 505.114 84.9901C505 85.1132 504.943 85.2812 504.943 85.4943C504.943 85.7855 505.051 86.0057 505.266 86.1548C505.484 86.3016 505.76 86.375 506.094 86.375ZM512.197 89.1591C511.792 89.1591 511.444 89.107 511.153 89.0028C510.862 88.901 510.619 88.7661 510.425 88.598C510.233 88.4323 510.081 88.2547 509.967 88.0653L510.635 87.5966C510.711 87.696 510.806 87.8097 510.922 87.9375C511.038 88.0677 511.197 88.1802 511.398 88.2749C511.602 88.3719 511.868 88.4205 512.197 88.4205C512.638 88.4205 513.001 88.3139 513.287 88.1009C513.574 87.8878 513.717 87.554 513.717 87.0994V85.9915H513.646C513.585 86.0909 513.497 86.214 513.383 86.3608C513.272 86.5052 513.111 86.6342 512.9 86.7479C512.692 86.8591 512.41 86.9148 512.055 86.9148C511.615 86.9148 511.22 86.8106 510.869 86.6023C510.521 86.3939 510.245 86.0909 510.042 85.6932C509.84 85.2955 509.74 84.8125 509.74 84.2443C509.74 83.6856 509.838 83.1991 510.035 82.7848C510.231 82.3681 510.505 82.0462 510.855 81.8189C511.205 81.5893 511.61 81.4744 512.069 81.4744C512.425 81.4744 512.706 81.5336 512.915 81.652C513.125 81.768 513.286 81.9006 513.398 82.0497C513.511 82.1965 513.599 82.3172 513.66 82.4119H513.746V81.5455H514.555V87.1562C514.555 87.625 514.449 88.0062 514.236 88.2997C514.025 88.5956 513.741 88.8123 513.383 88.9496C513.028 89.0893 512.633 89.1591 512.197 89.1591ZM512.169 86.1619C512.505 86.1619 512.789 86.085 513.021 85.9311C513.253 85.7772 513.43 85.5559 513.55 85.267C513.671 84.9782 513.731 84.6326 513.731 84.2301C513.731 83.8371 513.672 83.4903 513.554 83.1896C513.435 82.889 513.26 82.6534 513.028 82.483C512.796 82.3125 512.51 82.2273 512.169 82.2273C511.814 82.2273 511.518 82.3172 511.281 82.4972C511.047 82.6771 510.87 82.9186 510.752 83.2216C510.636 83.5246 510.578 83.8608 510.578 84.2301C510.578 84.6089 510.637 84.9439 510.756 85.2351C510.876 85.5239 511.054 85.7512 511.288 85.9169C511.525 86.0803 511.818 86.1619 512.169 86.1619ZM518.305 87.1136C517.813 87.1136 517.381 86.9964 517.009 86.7621C516.64 86.5277 516.351 86.1998 516.143 85.7784C515.937 85.357 515.834 84.8646 515.834 84.3011C515.834 83.733 515.937 83.237 516.143 82.8132C516.351 82.3894 516.64 82.0604 517.009 81.826C517.381 81.5916 517.813 81.4744 518.305 81.4744C518.798 81.4744 519.229 81.5916 519.598 81.826C519.97 82.0604 520.258 82.3894 520.464 82.8132C520.673 83.237 520.777 83.733 520.777 84.3011C520.777 84.8646 520.673 85.357 520.464 85.7784C520.258 86.1998 519.97 86.5277 519.598 86.7621C519.229 86.9964 518.798 87.1136 518.305 87.1136ZM518.305 86.3608C518.679 86.3608 518.987 86.2649 519.229 86.0732C519.47 85.8814 519.649 85.6293 519.765 85.3168C519.881 85.0043 519.939 84.6657 519.939 84.3011C519.939 83.9366 519.881 83.5968 519.765 83.282C519.649 82.9671 519.47 82.7126 519.229 82.5185C518.987 82.3243 518.679 82.2273 518.305 82.2273C517.931 82.2273 517.623 82.3243 517.382 82.5185C517.14 82.7126 516.962 82.9671 516.846 83.282C516.73 83.5968 516.672 83.9366 516.672 84.3011C516.672 84.6657 516.73 85.0043 516.846 85.3168C516.962 85.6293 517.14 85.8814 517.382 86.0732C517.623 86.2649 517.931 86.3608 518.305 86.3608Z" fill="#687066"/>
<path d="M295.104 113V104.48H296.16V111.968H300.408V113H295.104ZM301.645 108.512C301.897 107.276 302.893 106.496 304.249 106.496C305.893 106.496 306.817 107.456 306.817 109.16V111.704C306.817 111.968 306.937 112.088 307.201 112.088H307.465V113H307.021C306.373 113 305.797 112.796 305.797 112.028C305.533 112.604 304.837 113.144 303.829 113.144C302.569 113.144 301.537 112.472 301.537 111.332C301.537 110.012 302.521 109.688 303.937 109.412L305.785 109.052C305.773 107.996 305.269 107.48 304.249 107.48C303.457 107.48 302.929 107.876 302.737 108.596L301.645 108.512ZM302.617 111.332C302.617 111.824 303.037 112.232 303.961 112.232C304.993 112.232 305.809 111.512 305.809 110.024V109.964L304.321 110.228C303.385 110.396 302.617 110.444 302.617 111.332ZM311.142 112.664C309.498 112.664 308.334 111.392 308.334 109.58C308.334 107.768 309.486 106.496 311.13 106.496C311.994 106.496 312.714 106.928 313.002 107.624V106.64H313.986V112.376C313.986 114.056 312.834 114.944 311.166 114.944C309.81 114.944 308.802 114.212 308.502 113.096L309.582 113.024C309.846 113.612 310.386 113.96 311.166 113.96C312.282 113.96 312.954 113.492 312.954 112.616V111.572C312.642 112.244 311.946 112.664 311.142 112.664ZM309.414 109.58C309.414 110.876 310.098 111.68 311.202 111.68C312.27 111.68 312.954 110.876 312.966 109.58C312.99 108.284 312.306 107.48 311.202 107.48C310.098 107.48 309.414 108.284 309.414 109.58ZM315.421 114.32L318.961 104H319.957L316.405 114.32H315.421ZM324.753 108.608C324.609 107.9 323.901 107.48 323.205 107.48C322.509 107.48 321.945 107.828 321.945 108.428C321.945 109.052 322.773 109.304 323.445 109.436C324.885 109.712 325.953 110.108 325.953 111.38C325.953 112.616 324.669 113.144 323.469 113.144C321.957 113.144 320.805 112.316 320.709 110.996L321.789 110.924C321.921 111.68 322.521 112.16 323.469 112.16C324.069 112.16 324.873 111.968 324.873 111.32C324.873 110.564 323.985 110.492 323.265 110.324C322.113 110.06 320.865 109.736 320.865 108.488C320.865 107.264 321.849 106.496 323.313 106.496C324.585 106.496 325.629 107.3 325.833 108.536L324.753 108.608ZM331.092 106.244C331.092 105.176 331.632 104.48 332.82 104.48H333.804V105.392H332.82C332.412 105.392 332.124 105.716 332.124 106.244V106.64H333.72V107.552H332.124V113H331.092V107.552H330.24V106.64H331.092V106.244ZM337.429 113.144C335.665 113.144 334.513 111.848 334.513 109.82C334.513 107.792 335.665 106.496 337.429 106.496C339.193 106.496 340.345 107.792 340.345 109.82C340.345 111.848 339.193 113.144 337.429 113.144ZM335.593 109.82C335.593 111.284 336.265 112.16 337.429 112.16C338.593 112.16 339.265 111.284 339.265 109.82C339.265 108.356 338.593 107.48 337.429 107.48C336.265 107.48 335.593 108.356 335.593 109.82ZM341.812 106.64H342.724L342.76 107.78C342.964 107 343.432 106.64 344.26 106.64H344.884V107.552H344.26C343.288 107.552 342.844 108.116 342.844 109.208V113H341.812V106.64ZM356.341 110.192C356.029 111.98 354.865 113.192 352.897 113.192C350.437 113.192 349.033 111.212 349.033 108.752C349.033 106.28 350.425 104.288 352.897 104.288C354.709 104.288 355.897 105.416 356.269 107.096L355.153 107.168C354.877 105.98 354.061 105.32 352.897 105.32C350.953 105.32 350.137 106.928 350.137 108.752C350.137 110.564 350.965 112.16 352.897 112.16C354.133 112.16 354.961 111.428 355.213 110.12L356.341 110.192ZM357.831 104.48H358.863V107.48C359.235 106.808 359.979 106.496 360.747 106.496C362.199 106.496 362.895 107.564 362.895 108.908V113H361.863V109.268C361.863 108.104 361.479 107.48 360.531 107.48C359.523 107.48 358.863 108.104 358.863 109.268V113H357.831V104.48ZM364.244 109.82C364.244 107.792 365.396 106.496 367.16 106.496C368.552 106.496 369.812 107.396 369.92 109.676L369.932 110.144H365.336C365.432 111.416 366.08 112.16 367.16 112.16C367.832 112.16 368.444 111.776 368.732 111.116L369.836 111.2C369.464 112.4 368.384 113.144 367.16 113.144C365.396 113.144 364.244 111.848 364.244 109.82ZM365.36 109.232H368.804C368.624 107.912 367.916 107.48 367.16 107.48C366.164 107.48 365.528 108.128 365.36 109.232ZM375.552 108.776C375.42 107.96 374.736 107.48 373.98 107.48C372.816 107.48 372.144 108.356 372.144 109.82C372.144 111.284 372.816 112.16 373.98 112.16C374.772 112.16 375.456 111.644 375.6 110.744L376.692 110.816C376.488 112.256 375.324 113.144 373.98 113.144C372.216 113.144 371.064 111.848 371.064 109.82C371.064 107.792 372.216 106.496 373.98 106.496C375.276 106.496 376.464 107.336 376.632 108.704L375.552 108.776ZM378.034 104.48H379.066V110.036L382.078 106.64H383.482L380.998 109.34L383.602 113H382.33L380.29 110.048L379.066 111.38V113H378.034V104.48ZM387.046 113.144C385.282 113.144 384.13 111.848 384.13 109.82C384.13 107.792 385.282 106.496 387.046 106.496C388.81 106.496 389.962 107.792 389.962 109.82C389.962 111.848 388.81 113.144 387.046 113.144ZM385.21 109.82C385.21 111.284 385.882 112.16 387.046 112.16C388.21 112.16 388.882 111.284 388.882 109.82C388.882 108.356 388.21 107.48 387.046 107.48C385.882 107.48 385.21 108.356 385.21 109.82ZM396.362 113H395.378V111.956C395.042 112.772 394.31 113.144 393.482 113.144C392.066 113.144 391.37 112.076 391.37 110.732V106.64H392.402V110.432C392.402 111.608 392.786 112.232 393.698 112.232C394.67 112.232 395.33 111.608 395.33 110.432V106.64H396.362V113ZM398.674 105.2H399.706V106.64H401.41V107.552H399.706V111.296C399.706 111.824 399.958 112.088 400.462 112.088H401.386V113H400.462C399.31 113 398.674 112.388 398.674 111.296V107.552H397.75V106.64H398.674V105.2ZM405.531 108.512C405.783 107.276 406.779 106.496 408.135 106.496C409.779 106.496 410.703 107.456 410.703 109.16V111.704C410.703 111.968 410.823 112.088 411.087 112.088H411.351V113H410.907C410.259 113 409.683 112.796 409.683 112.028C409.419 112.604 408.723 113.144 407.715 113.144C406.455 113.144 405.423 112.472 405.423 111.332C405.423 110.012 406.407 109.688 407.823 109.412L409.671 109.052C409.659 107.996 409.155 107.48 408.135 107.48C407.343 107.48 406.815 107.876 406.623 108.596L405.531 108.512ZM406.503 111.332C406.503 111.824 406.923 112.232 407.847 112.232C408.879 112.232 409.695 111.512 409.695 110.024V109.964L408.207 110.228C407.271 110.396 406.503 110.444 406.503 111.332ZM412.64 114.8V106.64H413.576L413.612 107.564C413.96 106.88 414.632 106.496 415.556 106.496C417.464 106.496 418.304 108.08 418.304 109.82C418.304 111.56 417.464 113.144 415.556 113.144C414.68 113.144 414.02 112.808 413.672 112.148V114.8H412.64ZM413.552 109.82C413.552 110.996 414.08 112.16 415.376 112.16C416.684 112.16 417.2 111.008 417.2 109.82C417.2 108.632 416.684 107.48 415.376 107.48C414.08 107.48 413.552 108.644 413.552 109.82ZM419.765 114.8V106.64H420.701L420.737 107.564C421.085 106.88 421.757 106.496 422.681 106.496C424.589 106.496 425.429 108.08 425.429 109.82C425.429 111.56 424.589 113.144 422.681 113.144C421.805 113.144 421.145 112.808 420.797 112.148V114.8H419.765ZM420.677 109.82C420.677 110.996 421.205 112.16 422.501 112.16C423.809 112.16 424.325 111.008 424.325 109.82C424.325 108.632 423.809 107.48 422.501 107.48C421.205 107.48 420.677 108.644 420.677 109.82ZM427.86 113L427.176 114.86H426.576L427.044 113H426.552V111.68H427.86V113ZM435.386 106.64H436.418V113H435.386V106.64ZM435.362 105.644V104.48H436.442V105.644H435.362ZM441.987 108.608C441.843 107.9 441.135 107.48 440.439 107.48C439.743 107.48 439.179 107.828 439.179 108.428C439.179 109.052 440.007 109.304 440.679 109.436C442.119 109.712 443.187 110.108 443.187 111.38C443.187 112.616 441.903 113.144 440.703 113.144C439.191 113.144 438.039 112.316 437.943 110.996L439.023 110.924C439.155 111.68 439.755 112.16 440.703 112.16C441.303 112.16 442.107 111.968 442.107 111.32C442.107 110.564 441.219 110.492 440.499 110.324C439.347 110.06 438.099 109.736 438.099 108.488C438.099 107.264 439.083 106.496 440.547 106.496C441.819 106.496 442.863 107.3 443.067 108.536L441.987 108.608ZM447.714 104.48H448.746V107.48C449.118 106.808 449.862 106.496 450.63 106.496C452.082 106.496 452.778 107.564 452.778 108.908V113H451.746V109.268C451.746 108.104 451.362 107.48 450.414 107.48C449.406 107.48 448.746 108.104 448.746 109.268V113H447.714V104.48ZM454.698 106.64H455.73V113H454.698V106.64ZM454.674 105.644V104.48H455.754V105.644H454.674ZM460.063 112.664C458.419 112.664 457.255 111.392 457.255 109.58C457.255 107.768 458.407 106.496 460.051 106.496C460.915 106.496 461.635 106.928 461.923 107.624V106.64H462.907V112.376C462.907 114.056 461.755 114.944 460.087 114.944C458.731 114.944 457.723 114.212 457.423 113.096L458.503 113.024C458.767 113.612 459.307 113.96 460.087 113.96C461.203 113.96 461.875 113.492 461.875 112.616V111.572C461.563 112.244 460.867 112.664 460.063 112.664ZM458.335 109.58C458.335 110.876 459.019 111.68 460.123 111.68C461.191 111.68 461.875 110.876 461.887 109.58C461.911 108.284 461.227 107.48 460.123 107.48C459.019 107.48 458.335 108.284 458.335 109.58ZM464.823 104.48H465.855V107.48C466.227 106.808 466.971 106.496 467.739 106.496C469.191 106.496 469.887 107.564 469.887 108.908V113H468.855V109.268C468.855 108.104 468.471 107.48 467.523 107.48C466.515 107.48 465.855 108.104 465.855 109.268V113H464.823V104.48Z" fill="#AFB5AD"/>
</g>
<defs>
<filter id="filter0_ddii_3827_2903" x="50" y="39" width="84" height="84" filterUnits="userSpaceOnUse" color-interpolation-filters="sRGB">
<feFlood flood-opacity="0" result="BackgroundImageFix"/>
<feColorMatrix in="SourceAlpha" type="matrix" values="0 0 0 0 0 0 0 0 0 0 0 0 0 0 0 0 0 0 127 0" result="hardAlpha"/>
<feOffset dy="1"/>
<feGaussianBlur stdDeviation="1.5"/>
<feComposite in2="hardAlpha" operator="out"/>
<feColorMatrix type="matrix" values="0 0 0 0 0 0 0 0 0 0 0 0 0 0 0 0 0 0 0.5 0"/>
<feBlend mode="normal" in2="BackgroundImageFix" result="effect1_dropShadow_3827_2903"/>
<feColorMatrix in="SourceAlpha" type="matrix" values="0 0 0 0 0 0 0 0 0 0 0 0 0 0 0 0 0 0 127 0" result="hardAlpha"/>
<feOffset dy="5"/>
<feGaussianBlur stdDeviation="6"/>
<feComposite in2="hardAlpha" operator="out"/>
<feColorMatrix type="matrix" values="0 0 0 0 0 0 0 0 0 0 0 0 0 0 0 0 0 0 0.35 0"/>
<feBlend mode="normal" in2="effect1_dropShadow_3827_2903" result="effect2_dropShadow_3827_2903"/>
<feBlend mode="normal" in="SourceGraphic" in2="effect2_dropShadow_3827_2903" result="shape"/>
<feColorMatrix in="SourceAlpha" type="matrix" values="0 0 0 0 0 0 0 0 0 0 0 0 0 0 0 0 0 0 127 0" result="hardAlpha"/>
<feOffset/>
<feGaussianBlur stdDeviation="0.25"/>
<feComposite in2="hardAlpha" operator="arithmetic" k2="-1" k3="1"/>
<feColorMatrix type="matrix" values="0 0 0 0 1 0 0 0 0 1 0 0 0 0 1 0 0 0 0.3 0"/>
<feBlend mode="normal" in2="shape" result="effect3_innerShadow_3827_2903"/>
<feColorMatrix in="SourceAlpha" type="matrix" values="0 0 0 0 0 0 0 0 0 0 0 0 0 0 0 0 0 0 127 0" result="hardAlpha"/>
<feOffset dy="0.5"/>
<feComposite in2="hardAlpha" operator="arithmetic" k2="-1" k3="1"/>
<feColorMatrix type="matrix" values="0 0 0 0 1 0 0 0 0 1 0 0 0 0 1 0 0 0 0.08 0"/>
<feBlend mode="normal" in2="effect3_innerShadow_3827_2903" result="effect4_innerShadow_3827_2903"/>
</filter>
<filter id="filter1_ddii_3827_2903" x="50" y="147" width="84" height="84" filterUnits="userSpaceOnUse" color-interpolation-filters="sRGB">
<feFlood flood-opacity="0" result="BackgroundImageFix"/>
<feColorMatrix in="SourceAlpha" type="matrix" values="0 0 0 0 0 0 0 0 0 0 0 0 0 0 0 0 0 0 127 0" result="hardAlpha"/>
<feOffset dy="1"/>
<feGaussianBlur stdDeviation="1.5"/>
<feComposite in2="hardAlpha" operator="out"/>
<feColorMatrix type="matrix" values="0 0 0 0 0 0 0 0 0 0 0 0 0 0 0 0 0 0 0.5 0"/>
<feBlend mode="normal" in2="BackgroundImageFix" result="effect1_dropShadow_3827_2903"/>
<feColorMatrix in="SourceAlpha" type="matrix" values="0 0 0 0 0 0 0 0 0 0 0 0 0 0 0 0 0 0 127 0" result="hardAlpha"/>
<feOffset dy="5"/>
<feGaussianBlur stdDeviation="6"/>
<feComposite in2="hardAlpha" operator="out"/>
<feColorMatrix type="matrix" values="0 0 0 0 0 0 0 0 0 0 0 0 0 0 0 0 0 0 0.35 0"/>
<feBlend mode="normal" in2="effect1_dropShadow_3827_2903" result="effect2_dropShadow_3827_2903"/>
<feBlend mode="normal" in="SourceGraphic" in2="effect2_dropShadow_3827_2903" result="shape"/>
<feColorMatrix in="SourceAlpha" type="matrix" values="0 0 0 0 0 0 0 0 0 0 0 0 0 0 0 0 0 0 127 0" result="hardAlpha"/>
<feOffset/>
<feGaussianBlur stdDeviation="0.25"/>
<feComposite in2="hardAlpha" operator="arithmetic" k2="-1" k3="1"/>
<feColorMatrix type="matrix" values="0 0 0 0 1 0 0 0 0 1 0 0 0 0 1 0 0 0 0.3 0"/>
<feBlend mode="normal" in2="shape" result="effect3_innerShadow_3827_2903"/>
<feColorMatrix in="SourceAlpha" type="matrix" values="0 0 0 0 0 0 0 0 0 0 0 0 0 0 0 0 0 0 127 0" result="hardAlpha"/>
<feOffset dy="0.5"/>
<feComposite in2="hardAlpha" operator="arithmetic" k2="-1" k3="1"/>
<feColorMatrix type="matrix" values="0 0 0 0 1 0 0 0 0 1 0 0 0 0 1 0 0 0 0.08 0"/>
<feBlend mode="normal" in2="effect3_innerShadow_3827_2903" result="effect4_innerShadow_3827_2903"/>
</filter>
<filter id="filter2_ddii_3827_2903" x="236" y="131" width="284" height="89" filterUnits="userSpaceOnUse" color-interpolation-filters="sRGB">
<feFlood flood-opacity="0" result="BackgroundImageFix"/>
<feColorMatrix in="SourceAlpha" type="matrix" values="0 0 0 0 0 0 0 0 0 0 0 0 0 0 0 0 0 0 127 0" result="hardAlpha"/>
<feOffset dy="1"/>
<feGaussianBlur stdDeviation="1.5"/>
<feComposite in2="hardAlpha" operator="out"/>
<feColorMatrix type="matrix" values="0 0 0 0 0 0 0 0 0 0 0 0 0 0 0 0 0 0 0.5 0"/>
<feBlend mode="normal" in2="BackgroundImageFix" result="effect1_dropShadow_3827_2903"/>
<feColorMatrix in="SourceAlpha" type="matrix" values="0 0 0 0 0 0 0 0 0 0 0 0 0 0 0 0 0 0 127 0" result="hardAlpha"/>
<feOffset dy="5"/>
<feGaussianBlur stdDeviation="6"/>
<feComposite in2="hardAlpha" operator="out"/>
<feColorMatrix type="matrix" values="0 0 0 0 0 0 0 0 0 0 0 0 0 0 0 0 0 0 0.35 0"/>
<feBlend mode="normal" in2="effect1_dropShadow_3827_2903" result="effect2_dropShadow_3827_2903"/>
<feBlend mode="normal" in="SourceGraphic" in2="effect2_dropShadow_3827_2903" result="shape"/>
<feColorMatrix in="SourceAlpha" type="matrix" values="0 0 0 0 0 0 0 0 0 0 0 0 0 0 0 0 0 0 127 0" result="hardAlpha"/>
<feOffset/>
<feGaussianBlur stdDeviation="0.25"/>
<feComposite in2="hardAlpha" operator="arithmetic" k2="-1" k3="1"/>
<feColorMatrix type="matrix" values="0 0 0 0 1 0 0 0 0 1 0 0 0 0 1 0 0 0 0.3 0"/>
<feBlend mode="normal" in2="shape" result="effect3_innerShadow_3827_2903"/>
<feColorMatrix in="SourceAlpha" type="matrix" values="0 0 0 0 0 0 0 0 0 0 0 0 0 0 0 0 0 0 127 0" result="hardAlpha"/>
<feOffset dy="0.5"/>
<feComposite in2="hardAlpha" operator="arithmetic" k2="-1" k3="1"/>
<feColorMatrix type="matrix" values="0 0 0 0 1 0 0 0 0 1 0 0 0 0 1 0 0 0 0.08 0"/>
<feBlend mode="normal" in2="effect3_innerShadow_3827_2903" result="effect4_innerShadow_3827_2903"/>
</filter>
<filter id="filter3_ddii_3827_2903" x="226" y="109" width="304" height="94" filterUnits="userSpaceOnUse" color-interpolation-filters="sRGB">
<feFlood flood-opacity="0" result="BackgroundImageFix"/>
<feColorMatrix in="SourceAlpha" type="matrix" values="0 0 0 0 0 0 0 0 0 0 0 0 0 0 0 0 0 0 127 0" result="hardAlpha"/>
<feOffset dy="1"/>
<feGaussianBlur stdDeviation="1.5"/>
<feComposite in2="hardAlpha" operator="out"/>
<feColorMatrix type="matrix" values="0 0 0 0 0 0 0 0 0 0 0 0 0 0 0 0 0 0 0.5 0"/>
<feBlend mode="normal" in2="BackgroundImageFix" result="effect1_dropShadow_3827_2903"/>
<feColorMatrix in="SourceAlpha" type="matrix" values="0 0 0 0 0 0 0 0 0 0 0 0 0 0 0 0 0 0 127 0" result="hardAlpha"/>
<feOffset dy="5"/>
<feGaussianBlur stdDeviation="6"/>
<feComposite in2="hardAlpha" operator="out"/>
<feColorMatrix type="matrix" values="0 0 0 0 0 0 0 0 0 0 0 0 0 0 0 0 0 0 0.35 0"/>
<feBlend mode="normal" in2="effect1_dropShadow_3827_2903" result="effect2_dropShadow_3827_2903"/>
<feBlend mode="normal" in="SourceGraphic" in2="effect2_dropShadow_3827_2903" result="shape"/>
<feColorMatrix in="SourceAlpha" type="matrix" values="0 0 0 0 0 0 0 0 0 0 0 0 0 0 0 0 0 0 127 0" result="hardAlpha"/>
<feOffset/>
<feGaussianBlur stdDeviation="0.25"/>
<feComposite in2="hardAlpha" operator="arithmetic" k2="-1" k3="1"/>
<feColorMatrix type="matrix" values="0 0 0 0 1 0 0 0 0 1 0 0 0 0 1 0 0 0 0.3 0"/>
<feBlend mode="normal" in2="shape" result="effect3_innerShadow_3827_2903"/>
<feColorMatrix in="SourceAlpha" type="matrix" values="0 0 0 0 0 0 0 0 0 0 0 0 0 0 0 0 0 0 127 0" result="hardAlpha"/>
<feOffset dy="0.5"/>
<feComposite in2="hardAlpha" operator="arithmetic" k2="-1" k3="1"/>
<feColorMatrix type="matrix" values="0 0 0 0 1 0 0 0 0 1 0 0 0 0 1 0 0 0 0.08 0"/>
<feBlend mode="normal" in2="effect3_innerShadow_3827_2903" result="effect4_innerShadow_3827_2903"/>
</filter>
<filter id="filter4_ddii_3827_2903" x="216" y="82" width="324" height="99" filterUnits="userSpaceOnUse" color-interpolation-filters="sRGB">
<feFlood flood-opacity="0" result="BackgroundImageFix"/>
<feColorMatrix in="SourceAlpha" type="matrix" values="0 0 0 0 0 0 0 0 0 0 0 0 0 0 0 0 0 0 127 0" result="hardAlpha"/>
<feOffset dy="1"/>
<feGaussianBlur stdDeviation="1.5"/>
<feComposite in2="hardAlpha" operator="out"/>
<feColorMatrix type="matrix" values="0 0 0 0 0 0 0 0 0 0 0 0 0 0 0 0 0 0 0.5 0"/>
<feBlend mode="normal" in2="BackgroundImageFix" result="effect1_dropShadow_3827_2903"/>
<feColorMatrix in="SourceAlpha" type="matrix" values="0 0 0 0 0 0 0 0 0 0 0 0 0 0 0 0 0 0 127 0" result="hardAlpha"/>
<feOffset dy="5"/>
<feGaussianBlur stdDeviation="6"/>
<feComposite in2="hardAlpha" operator="out"/>
<feColorMatrix type="matrix" values="0 0 0 0 0 0 0 0 0 0 0 0 0 0 0 0 0 0 0.35 0"/>
<feBlend mode="normal" in2="effect1_dropShadow_3827_2903" result="effect2_dropShadow_3827_2903"/>
<feBlend mode="normal" in="SourceGraphic" in2="effect2_dropShadow_3827_2903" result="shape"/>
<feColorMatrix in="SourceAlpha" type="matrix" values="0 0 0 0 0 0 0 0 0 0 0 0 0 0 0 0 0 0 127 0" result="hardAlpha"/>
<feOffset/>
<feGaussianBlur stdDeviation="0.25"/>
<feComposite in2="hardAlpha" operator="arithmetic" k2="-1" k3="1"/>
<feColorMatrix type="matrix" values="0 0 0 0 1 0 0 0 0 1 0 0 0 0 1 0 0 0 0.3 0"/>
<feBlend mode="normal" in2="shape" result="effect3_innerShadow_3827_2903"/>
<feColorMatrix in="SourceAlpha" type="matrix" values="0 0 0 0 0 0 0 0 0 0 0 0 0 0 0 0 0 0 127 0" result="hardAlpha"/>
<feOffset dy="0.5"/>
<feComposite in2="hardAlpha" operator="arithmetic" k2="-1" k3="1"/>
<feColorMatrix type="matrix" values="0 0 0 0 1 0 0 0 0 1 0 0 0 0 1 0 0 0 0.08 0"/>
<feBlend mode="normal" in2="effect3_innerShadow_3827_2903" result="effect4_innerShadow_3827_2903"/>
</filter>
<filter id="filter5_ddii_3827_2903" x="206" y="50" width="344" height="104" filterUnits="userSpaceOnUse" color-interpolation-filters="sRGB">
<feFlood flood-opacity="0" result="BackgroundImageFix"/>
<feColorMatrix in="SourceAlpha" type="matrix" values="0 0 0 0 0 0 0 0 0 0 0 0 0 0 0 0 0 0 127 0" result="hardAlpha"/>
<feOffset dy="1"/>
<feGaussianBlur stdDeviation="1.5"/>
<feComposite in2="hardAlpha" operator="out"/>
<feColorMatrix type="matrix" values="0 0 0 0 0 0 0 0 0 0 0 0 0 0 0 0 0 0 0.5 0"/>
<feBlend mode="normal" in2="BackgroundImageFix" result="effect1_dropShadow_3827_2903"/>
<feColorMatrix in="SourceAlpha" type="matrix" values="0 0 0 0 0 0 0 0 0 0 0 0 0 0 0 0 0 0 127 0" result="hardAlpha"/>
<feOffset dy="5"/>
<feGaussianBlur stdDeviation="6"/>
<feComposite in2="hardAlpha" operator="out"/>
<feColorMatrix type="matrix" values="0 0 0 0 0 0 0 0 0 0 0 0 0 0 0 0 0 0 0.35 0"/>
<feBlend mode="normal" in2="effect1_dropShadow_3827_2903" result="effect2_dropShadow_3827_2903"/>
<feBlend mode="normal" in="SourceGraphic" in2="effect2_dropShadow_3827_2903" result="shape"/>
<feColorMatrix in="SourceAlpha" type="matrix" values="0 0 0 0 0 0 0 0 0 0 0 0 0 0 0 0 0 0 127 0" result="hardAlpha"/>
<feOffset/>
<feGaussianBlur stdDeviation="0.25"/>
<feComposite in2="hardAlpha" operator="arithmetic" k2="-1" k3="1"/>
<feColorMatrix type="matrix" values="0 0 0 0 1 0 0 0 0 1 0 0 0 0 1 0 0 0 0.3 0"/>
<feBlend mode="normal" in2="shape" result="effect3_innerShadow_3827_2903"/>
<feColorMatrix in="SourceAlpha" type="matrix" values="0 0 0 0 0 0 0 0 0 0 0 0 0 0 0 0 0 0 127 0" result="hardAlpha"/>
<feOffset dy="0.5"/>
<feComposite in2="hardAlpha" operator="arithmetic" k2="-1" k3="1"/>
<feColorMatrix type="matrix" values="0 0 0 0 1 0 0 0 0 1 0 0 0 0 1 0 0 0 0.08 0"/>
<feBlend mode="normal" in2="effect3_innerShadow_3827_2903" result="effect4_innerShadow_3827_2903"/>
</filter>
<filter id="filter6_ddd_3827_2903" x="222" y="66" width="72" height="72" filterUnits="userSpaceOnUse" color-interpolation-filters="sRGB">
<feFlood flood-opacity="0" result="BackgroundImageFix"/>
<feColorMatrix in="SourceAlpha" type="matrix" values="0 0 0 0 0 0 0 0 0 0 0 0 0 0 0 0 0 0 127 0" result="hardAlpha"/>
<feOffset dy="1"/>
<feGaussianBlur stdDeviation="1.5"/>
<feColorMatrix type="matrix" values="0 0 0 0 0 0 0 0 0 0 0 0 0 0 0 0 0 0 0.1 0"/>
<feBlend mode="normal" in2="BackgroundImageFix" result="effect1_dropShadow_3827_2903"/>
<feColorMatrix in="SourceAlpha" type="matrix" values="0 0 0 0 0 0 0 0 0 0 0 0 0 0 0 0 0 0 127 0" result="hardAlpha"/>
<feOffset dy="5"/>
<feGaussianBlur stdDeviation="6"/>
<feComposite in2="hardAlpha" operator="out"/>
<feColorMatrix type="matrix" values="0 0 0 0 0 0 0 0 0 0 0 0 0 0 0 0 0 0 0.13 0"/>
<feBlend mode="normal" in2="effect1_dropShadow_3827_2903" result="effect2_dropShadow_3827_2903"/>
<feColorMatrix in="SourceAlpha" type="matrix" values="0 0 0 0 0 0 0 0 0 0 0 0 0 0 0 0 0 0 127 0" result="hardAlpha"/>
<feOffset/>
<feGaussianBlur stdDeviation="0.25"/>
<feComposite in2="hardAlpha" operator="out"/>
<feColorMatrix type="matrix" values="0 0 0 0 0 0 0 0 0 0 0 0 0 0 0 0 0 0 0.15 0"/>
<feBlend mode="normal" in2="effect2_dropShadow_3827_2903" result="effect3_dropShadow_3827_2903"/>
<feBlend mode="normal" in="SourceGraphic" in2="effect3_dropShadow_3827_2903" result="shape"/>
</filter>
<linearGradient id="paint0_linear_3827_2903" x1="234" y1="67.9" x2="276.75" y2="129.4" gradientUnits="userSpaceOnUse">
<stop stop-color="#454843"/>
<stop offset="1" stop-color="#212220"/>
</linearGradient>
<clipPath id="clip0_3827_2903">
<rect width="32.5212" height="32" fill="white" transform="translate(75.7393 168)"/>
</clipPath>
<clipPath id="clip1_3827_2903">
<rect width="26" height="26" fill="white" transform="translate(245 84)"/>
</clipPath>
</defs>
</svg>
