<svg width="600" height="260" viewBox="0 0 600 260" fill="none" xmlns="http://www.w3.org/2000/svg">
<path d="M180 72L180 252" stroke="url(#paint0_linear_3827_3651)" stroke-dasharray="4 4"/>
<path d="M92.7082 67.144C92.7202 68.44 93.3082 69.16 94.3402 69.16C95.4202 69.16 96.0202 68.392 96.0202 67.024V61.48H97.0762V67.024C97.0762 68.968 96.0202 70.192 94.3402 70.192C92.7562 70.192 91.6402 68.968 91.6282 67.24L92.7082 67.144ZM103.948 70H102.964V68.956C102.628 69.772 101.896 70.144 101.068 70.144C99.6521 70.144 98.9561 69.076 98.9561 67.732V63.64H99.9881V67.432C99.9881 68.608 100.372 69.232 101.284 69.232C102.256 69.232 102.916 68.608 102.916 67.432V63.64H103.948V70ZM109.518 65.608C109.374 64.9 108.666 64.48 107.97 64.48C107.274 64.48 106.71 64.828 106.71 65.428C106.71 66.052 107.538 66.304 108.21 66.436C109.65 66.712 110.718 67.108 110.718 68.38C110.718 69.616 109.434 70.144 108.234 70.144C106.722 70.144 105.57 69.316 105.474 67.996L106.554 67.924C106.686 68.68 107.286 69.16 108.234 69.16C108.834 69.16 109.638 68.968 109.638 68.32C109.638 67.564 108.75 67.492 108.03 67.324C106.878 67.06 105.63 66.736 105.63 65.488C105.63 64.264 106.614 63.496 108.078 63.496C109.35 63.496 110.394 64.3 110.598 65.536L109.518 65.608ZM112.506 62.2H113.538V63.64H115.242V64.552H113.538V68.296C113.538 68.824 113.79 69.088 114.294 69.088H115.218V70H114.294C113.142 70 112.506 69.388 112.506 68.296V64.552H111.582V63.64H112.506V62.2ZM119.651 63.64H120.587L120.623 64.732C120.947 63.88 121.691 63.496 122.567 63.496C124.019 63.496 124.715 64.564 124.715 65.908V70H123.683V66.196C123.683 65.032 123.299 64.408 122.351 64.408C121.343 64.408 120.683 65.032 120.683 66.196V70H119.651V63.64ZM128.98 70.144C127.216 70.144 126.064 68.848 126.064 66.82C126.064 64.792 127.216 63.496 128.98 63.496C130.744 63.496 131.896 64.792 131.896 66.82C131.896 68.848 130.744 70.144 128.98 70.144ZM127.144 66.82C127.144 68.284 127.816 69.16 128.98 69.16C130.144 69.16 130.816 68.284 130.816 66.82C130.816 65.356 130.144 64.48 128.98 64.48C127.816 64.48 127.144 65.356 127.144 66.82ZM137.628 63.64L139.128 68.86L140.628 63.64H141.732L139.776 70H138.48L137.076 65.2L135.672 70H134.376L132.42 63.64H133.524L135.024 68.86L136.524 63.64H137.628Z" fill="#687066"/>
<circle cx="180" cy="66" r="5.5" stroke="#BAF271"/>
<circle cx="180" cy="66" r="2.5" fill="#BCFE68" stroke="#BAF271"/>
<g filter="url(#filter0_ddii_3827_3651)">
<path d="M218 54.8C218 50.3196 218 48.0794 218.872 46.3681C219.639 44.8628 220.863 43.6389 222.368 42.8719C224.079 42 226.32 42 230.8 42H525.2C529.68 42 531.921 42 533.632 42.8719C535.137 43.6389 536.361 44.8628 537.128 46.3681C538 48.0794 538 50.3196 538 54.8V77.2C538 81.6804 538 83.9206 537.128 85.6319C536.361 87.1372 535.137 88.3611 533.632 89.1281C531.921 90 529.68 90 525.2 90H230.8C226.32 90 224.079 90 222.368 89.1281C220.863 88.3611 219.639 87.1372 218.872 85.6319C218 83.9206 218 81.6804 218 77.2V54.8Z" fill="#2F312E" shape-rendering="crispEdges"/>
<g clip-path="url(#clip0_3827_3651)">
<g clip-path="url(#clip1_3827_3651)">
<rect x="228" y="50" width="32" height="32" rx="16" fill="#E4D8FD"/>
<path d="M255.039 77.6743C255.919 79.3542 256.359 85.4739 256.359 85.4739H231.641C231.641 85.4739 232.081 79.3542 232.961 77.6743C234.28 75.1544 244 71.9146 244 71.9146C244 71.9146 253.719 75.1544 255.039 77.6743Z" fill="url(#paint1_linear_3827_3651)"/>
<path d="M254.256 70.524L234.762 68.1682C233.801 63.0662 234.941 59.8517 238.182 58.5246C239.68 53.6156 245.512 54.0149 247.165 54.4151C252.789 55.7771 255.153 61.1467 254.256 70.524Z" fill="url(#paint2_linear_3827_3651)"/>
<path d="M241.121 73.3546V66.1549C238.118 66.1101 238.704 60.9074 241.721 62.4951C242.26 62.7351 243.64 62.0751 243.16 60.4552C246.4 62.8551 250.915 58.6433 251.2 61.2352C251.761 66.3362 250.676 70.5289 247.797 70.5292C247.491 70.5409 247.183 70.5226 246.88 70.4747V73.3546C245.941 73.9145 245.001 74.1945 244.062 74.1945C243.122 74.1945 242.142 73.9145 241.121 73.3546Z" fill="url(#paint3_linear_3827_3651)"/>
<path opacity="0.3" d="M246.879 70.4747V71.4346C245.08 71.4346 243.68 70.5746 242.68 68.8547C243.88 69.6547 245.28 70.1947 246.879 70.4747Z" fill="#DB6F3D"/>
<path d="M243.996 74.0715C244.817 74.0323 246.88 73.6075 246.88 72.6898V71.9146C247.1 71.9146 247.73 72.4344 248.054 72.8746C249.335 74.6145 247.914 76.1744 246.755 76.1744C245.293 76.1744 244.324 74.9526 244 74.3649C243.676 74.9529 242.707 76.1744 241.245 76.1744C240.086 76.1744 238.665 74.6145 239.946 72.8746C240.27 72.4344 240.9 71.9146 241.12 71.9146V72.6898C241.12 73.6075 243.129 74.0323 243.996 74.0715Z" fill="white"/>
</g>
</g>
<path d="M268.959 61.2727H270.557L273.335 68.0568H273.438L276.216 61.2727H277.814V70H276.561V63.6847H276.48L273.906 69.9872H272.866L270.293 63.6804H270.212V70H268.959V61.2727ZM281.531 70.1449C281.116 70.1449 280.741 70.0682 280.406 69.9148C280.071 69.7585 279.805 69.5327 279.609 69.2372C279.416 68.9418 279.319 68.5795 279.319 68.1506C279.319 67.7812 279.39 67.4773 279.532 67.2386C279.674 67 279.866 66.8111 280.108 66.6719C280.349 66.5327 280.619 66.4276 280.917 66.3565C281.216 66.2855 281.52 66.2315 281.829 66.1946C282.221 66.1491 282.539 66.1122 282.784 66.0838C283.028 66.0526 283.206 66.0028 283.316 65.9347C283.427 65.8665 283.483 65.7557 283.483 65.6023V65.5724C283.483 65.2003 283.377 64.9119 283.167 64.7074C282.96 64.5028 282.65 64.4006 282.238 64.4006C281.809 64.4006 281.471 64.4957 281.224 64.6861C280.98 64.8736 280.811 65.0824 280.717 65.3125L279.52 65.0398C279.662 64.642 279.869 64.321 280.142 64.0767C280.417 63.8295 280.734 63.6506 281.092 63.5398C281.45 63.4261 281.826 63.3693 282.221 63.3693C282.483 63.3693 282.76 63.4006 283.052 63.4631C283.348 63.5227 283.623 63.6335 283.879 63.7955C284.137 63.9574 284.349 64.1889 284.514 64.4901C284.679 64.7884 284.761 65.1761 284.761 65.6534V70H283.517V69.1051H283.466C283.383 69.2699 283.26 69.4318 283.095 69.5909C282.93 69.75 282.718 69.8821 282.46 69.9872C282.201 70.0923 281.892 70.1449 281.531 70.1449ZM281.808 69.1222C282.16 69.1222 282.461 69.0526 282.711 68.9134C282.964 68.7741 283.156 68.5923 283.287 68.3679C283.42 68.1406 283.487 67.8977 283.487 67.6392V66.7955C283.441 66.8409 283.353 66.8835 283.223 66.9233C283.095 66.9602 282.949 66.9929 282.784 67.0213C282.619 67.0469 282.458 67.071 282.302 67.0938C282.146 67.1136 282.015 67.1307 281.91 67.1449C281.663 67.1761 281.437 67.2287 281.233 67.3026C281.031 67.3764 280.869 67.483 280.747 67.6222C280.627 67.7585 280.568 67.9403 280.568 68.1676C280.568 68.483 280.684 68.7216 280.917 68.8835C281.15 69.0426 281.447 69.1222 281.808 69.1222ZM286.458 70V63.4545H287.69V64.4943H287.758C287.877 64.142 288.087 63.8651 288.388 63.6634C288.692 63.4588 289.036 63.3565 289.42 63.3565C289.499 63.3565 289.593 63.3594 289.701 63.3651C289.812 63.3707 289.898 63.3778 289.961 63.3864V64.6051C289.91 64.5909 289.819 64.5753 289.688 64.5582C289.558 64.5384 289.427 64.5284 289.296 64.5284C288.995 64.5284 288.727 64.5923 288.491 64.7202C288.258 64.8452 288.073 65.0199 287.937 65.2443C287.8 65.4659 287.732 65.7187 287.732 66.0028V70H286.458ZM291.064 70V63.4545H292.338V70H291.064ZM291.707 62.4446C291.485 62.4446 291.295 62.3707 291.136 62.223C290.98 62.0724 290.902 61.8935 290.902 61.6861C290.902 61.4759 290.98 61.2969 291.136 61.1491C291.295 60.9986 291.485 60.9233 291.707 60.9233C291.929 60.9233 292.118 60.9986 292.274 61.1491C292.433 61.2969 292.512 61.4759 292.512 61.6861C292.512 61.8935 292.433 62.0724 292.274 62.223C292.118 62.3707 291.929 62.4446 291.707 62.4446ZM295.957 70.1449C295.542 70.1449 295.167 70.0682 294.832 69.9148C294.496 69.7585 294.231 69.5327 294.035 69.2372C293.842 68.9418 293.745 68.5795 293.745 68.1506C293.745 67.7812 293.816 67.4773 293.958 67.2386C294.1 67 294.292 66.8111 294.533 66.6719C294.775 66.5327 295.045 66.4276 295.343 66.3565C295.641 66.2855 295.945 66.2315 296.255 66.1946C296.647 66.1491 296.965 66.1122 297.21 66.0838C297.454 66.0526 297.631 66.0028 297.742 65.9347C297.853 65.8665 297.908 65.7557 297.908 65.6023V65.5724C297.908 65.2003 297.803 64.9119 297.593 64.7074C297.386 64.5028 297.076 64.4006 296.664 64.4006C296.235 64.4006 295.897 64.4957 295.65 64.6861C295.406 64.8736 295.237 65.0824 295.143 65.3125L293.945 65.0398C294.087 64.642 294.295 64.321 294.567 64.0767C294.843 63.8295 295.16 63.6506 295.518 63.5398C295.876 63.4261 296.252 63.3693 296.647 63.3693C296.908 63.3693 297.185 63.4006 297.478 63.4631C297.773 63.5227 298.049 63.6335 298.305 63.7955C298.563 63.9574 298.775 64.1889 298.94 64.4901C299.104 64.7884 299.187 65.1761 299.187 65.6534V70H297.942V69.1051H297.891C297.809 69.2699 297.685 69.4318 297.521 69.5909C297.356 69.75 297.144 69.8821 296.886 69.9872C296.627 70.0923 296.317 70.1449 295.957 70.1449ZM296.234 69.1222C296.586 69.1222 296.887 69.0526 297.137 68.9134C297.39 68.7741 297.582 68.5923 297.712 68.3679C297.846 68.1406 297.913 67.8977 297.913 67.6392V66.7955C297.867 66.8409 297.779 66.8835 297.648 66.9233C297.521 66.9602 297.374 66.9929 297.21 67.0213C297.045 67.0469 296.884 67.071 296.728 67.0938C296.572 67.1136 296.441 67.1307 296.336 67.1449C296.089 67.1761 295.863 67.2287 295.658 67.3026C295.457 67.3764 295.295 67.483 295.173 67.6222C295.053 67.7585 294.994 67.9403 294.994 68.1676C294.994 68.483 295.11 68.7216 295.343 68.8835C295.576 69.0426 295.873 69.1222 296.234 69.1222Z" fill="#ECEEEC"/>
<path d="M432.721 70C432.177 70 431.741 69.844 431.413 69.532C431.085 69.212 430.921 68.788 430.921 68.26V64.384H429.025V63.4H430.921V61.54H432.001V63.4H434.701V64.384H432.001V68.26C432.001 68.484 432.065 68.668 432.193 68.812C432.329 68.948 432.505 69.016 432.721 69.016H434.641V70H432.721ZM439.256 70.096C438.464 70.096 437.832 69.864 437.36 69.4C436.896 68.936 436.664 68.288 436.664 67.456V65.944C436.664 65.104 436.896 64.456 437.36 64C437.824 63.536 438.456 63.304 439.256 63.304C440.056 63.304 440.688 63.536 441.152 64C441.616 64.456 441.848 65.104 441.848 65.944V67.456C441.848 68.288 441.612 68.936 441.14 69.4C440.676 69.864 440.048 70.096 439.256 70.096ZM439.256 69.136C439.728 69.136 440.096 69.004 440.36 68.74C440.632 68.476 440.768 68.088 440.768 67.576V65.824C440.768 65.312 440.632 64.924 440.36 64.66C440.096 64.396 439.728 64.264 439.256 64.264C438.792 64.264 438.424 64.396 438.152 64.66C437.88 64.924 437.744 65.312 437.744 65.824V67.576C437.744 68.088 437.88 68.476 438.152 68.74C438.424 69.004 438.792 69.136 439.256 69.136ZM443.956 72.16V63.4H445.036V64.66H445.048C445.104 64.228 445.292 63.892 445.612 63.652C445.932 63.404 446.34 63.28 446.836 63.28C447.5 63.28 448.028 63.5 448.42 63.94C448.812 64.372 449.008 64.968 449.008 65.728V67.66C449.008 68.42 448.812 69.02 448.42 69.46C448.028 69.9 447.5 70.12 446.836 70.12C446.34 70.12 445.932 69.996 445.612 69.748C445.292 69.5 445.104 69.164 445.048 68.74H445.012L445.036 70.24V72.16H443.956ZM446.476 69.184C446.932 69.184 447.288 69.064 447.544 68.824C447.8 68.584 447.928 68.196 447.928 67.66V65.74C447.928 65.196 447.8 64.808 447.544 64.576C447.288 64.336 446.932 64.216 446.476 64.216C446.036 64.216 445.684 64.356 445.42 64.636C445.164 64.916 445.036 65.304 445.036 65.8V67.6C445.036 68.096 445.164 68.484 445.42 68.764C445.684 69.044 446.036 69.184 446.476 69.184ZM451.067 70V69.016H453.407V64.384H451.307V63.4H454.487V69.016H456.707V70H451.067ZM453.827 62.212C453.563 62.212 453.355 62.144 453.203 62.008C453.051 61.872 452.975 61.688 452.975 61.456C452.975 61.216 453.051 61.028 453.203 60.892C453.355 60.748 453.563 60.676 453.827 60.676C454.091 60.676 454.299 60.748 454.451 60.892C454.603 61.028 454.679 61.216 454.679 61.456C454.679 61.688 454.603 61.872 454.451 62.008C454.299 62.144 454.091 62.212 453.827 62.212ZM460.938 70.12C460.138 70.12 459.498 69.896 459.018 69.448C458.538 69 458.298 68.384 458.298 67.6V65.8C458.298 65.016 458.538 64.4 459.018 63.952C459.498 63.504 460.138 63.28 460.938 63.28C461.698 63.28 462.31 63.484 462.774 63.892C463.246 64.3 463.494 64.856 463.518 65.56H462.438C462.414 65.136 462.27 64.812 462.006 64.588C461.742 64.356 461.386 64.24 460.938 64.24C460.466 64.24 460.086 64.376 459.798 64.648C459.518 64.912 459.378 65.292 459.378 65.788V67.6C459.378 68.096 459.518 68.48 459.798 68.752C460.086 69.024 460.466 69.16 460.938 69.16C461.386 69.16 461.742 69.044 462.006 68.812C462.27 68.58 462.414 68.256 462.438 67.84H463.518C463.494 68.544 463.246 69.1 462.774 69.508C462.31 69.916 461.698 70.12 460.938 70.12ZM468.038 70.12C467.742 70.12 467.502 70.032 467.318 69.856C467.142 69.68 467.054 69.452 467.054 69.172C467.054 68.876 467.142 68.636 467.318 68.452C467.502 68.268 467.742 68.176 468.038 68.176C468.334 68.176 468.57 68.268 468.746 68.452C468.93 68.636 469.022 68.876 469.022 69.172C469.022 69.452 468.93 69.68 468.746 69.856C468.57 70.032 468.334 70.12 468.038 70.12ZM475.233 70.12C474.417 70.12 473.793 69.896 473.361 69.448C472.929 68.992 472.713 68.376 472.713 67.6V61.24H473.793V67.6C473.793 68.08 473.909 68.46 474.141 68.74C474.381 69.02 474.745 69.16 475.233 69.16C475.713 69.16 476.073 69.02 476.313 68.74C476.553 68.46 476.673 68.08 476.673 67.6V61.24H477.753V67.6C477.753 68.384 477.537 69 477.105 69.448C476.681 69.896 476.057 70.12 475.233 70.12ZM479.932 72.16V63.4H481.012V64.66H481.024C481.08 64.228 481.268 63.892 481.588 63.652C481.908 63.404 482.316 63.28 482.812 63.28C483.476 63.28 484.004 63.5 484.396 63.94C484.788 64.372 484.984 64.968 484.984 65.728V67.66C484.984 68.42 484.788 69.02 484.396 69.46C484.004 69.9 483.476 70.12 482.812 70.12C482.316 70.12 481.908 69.996 481.588 69.748C481.268 69.5 481.08 69.164 481.024 68.74H480.988L481.012 70.24V72.16H479.932ZM482.452 69.184C482.908 69.184 483.264 69.064 483.52 68.824C483.776 68.584 483.904 68.196 483.904 67.66V65.74C483.904 65.196 483.776 64.808 483.52 64.576C483.264 64.336 482.908 64.216 482.452 64.216C482.012 64.216 481.66 64.356 481.396 64.636C481.14 64.916 481.012 65.304 481.012 65.8V67.6C481.012 68.096 481.14 68.484 481.396 68.764C481.66 69.044 482.012 69.184 482.452 69.184ZM489.239 70.12C488.583 70.12 488.055 69.9 487.655 69.46C487.263 69.02 487.067 68.424 487.067 67.672V65.74C487.067 64.98 487.263 64.38 487.655 63.94C488.047 63.5 488.575 63.28 489.239 63.28C489.735 63.28 490.143 63.404 490.463 63.652C490.791 63.9 490.987 64.236 491.051 64.66H491.063L491.039 63.16V61.24H492.119V70H491.039V68.74H491.027C490.971 69.172 490.783 69.512 490.463 69.76C490.143 70 489.735 70.12 489.239 70.12ZM489.599 69.184C490.047 69.184 490.399 69.044 490.655 68.764C490.911 68.484 491.039 68.096 491.039 67.6V65.8C491.039 65.304 490.911 64.916 490.655 64.636C490.399 64.356 490.047 64.216 489.599 64.216C489.143 64.216 488.787 64.336 488.531 64.576C488.275 64.808 488.147 65.196 488.147 65.74V67.66C488.147 68.196 488.275 68.584 488.531 68.824C488.787 69.064 489.143 69.184 489.599 69.184ZM496.243 70.12C495.563 70.12 495.023 69.932 494.623 69.556C494.223 69.172 494.023 68.672 494.023 68.056C494.023 67.648 494.115 67.292 494.299 66.988C494.483 66.684 494.739 66.448 495.067 66.28C495.395 66.104 495.771 66.016 496.195 66.016H498.235V65.5C498.235 64.644 497.767 64.216 496.831 64.216C496.415 64.216 496.079 64.292 495.823 64.444C495.567 64.596 495.431 64.808 495.415 65.08H494.335C494.375 64.56 494.615 64.132 495.055 63.796C495.503 63.452 496.095 63.28 496.831 63.28C497.631 63.28 498.243 63.472 498.667 63.856C499.099 64.24 499.315 64.776 499.315 65.464V70H498.247V68.8H498.223C498.159 69.208 497.955 69.532 497.611 69.772C497.267 70.004 496.811 70.12 496.243 70.12ZM496.507 69.208C497.035 69.208 497.455 69.08 497.767 68.824C498.079 68.568 498.235 68.22 498.235 67.78V66.856H496.315C495.963 66.856 495.675 66.964 495.451 67.18C495.235 67.388 495.127 67.668 495.127 68.02C495.127 68.388 495.247 68.68 495.487 68.896C495.735 69.104 496.075 69.208 496.507 69.208ZM504.674 70C504.13 70 503.694 69.844 503.366 69.532C503.038 69.212 502.874 68.788 502.874 68.26V64.384H500.978V63.4H502.874V61.54H503.954V63.4H506.654V64.384H503.954V68.26C503.954 68.484 504.018 68.668 504.146 68.812C504.282 68.948 504.458 69.016 504.674 69.016H506.594V70H504.674ZM511.209 70.12C510.433 70.12 509.805 69.888 509.325 69.424C508.853 68.952 508.617 68.304 508.617 67.48V65.92C508.617 65.096 508.853 64.452 509.325 63.988C509.805 63.516 510.433 63.28 511.209 63.28C511.729 63.28 512.181 63.384 512.565 63.592C512.957 63.8 513.261 64.092 513.477 64.468C513.693 64.844 513.801 65.288 513.801 65.8V66.976H509.673V67.6C509.673 68.088 509.813 68.476 510.093 68.764C510.373 69.044 510.745 69.184 511.209 69.184C511.609 69.184 511.937 69.108 512.193 68.956C512.457 68.796 512.617 68.584 512.673 68.32H513.753C513.681 68.872 513.413 69.312 512.949 69.64C512.485 69.96 511.905 70.12 511.209 70.12ZM509.673 66.136H512.745V65.8C512.745 65.28 512.609 64.88 512.337 64.6C512.073 64.312 511.697 64.168 511.209 64.168C510.721 64.168 510.341 64.312 510.069 64.6C509.805 64.88 509.673 65.28 509.673 65.8V66.136ZM518.021 70.12C517.365 70.12 516.837 69.9 516.437 69.46C516.045 69.02 515.849 68.424 515.849 67.672V65.74C515.849 64.98 516.045 64.38 516.437 63.94C516.829 63.5 517.357 63.28 518.021 63.28C518.517 63.28 518.925 63.404 519.245 63.652C519.573 63.9 519.769 64.236 519.833 64.66H519.845L519.821 63.16V61.24H520.901V70H519.821V68.74H519.809C519.753 69.172 519.565 69.512 519.245 69.76C518.925 70 518.517 70.12 518.021 70.12ZM518.381 69.184C518.829 69.184 519.181 69.044 519.437 68.764C519.693 68.484 519.821 68.096 519.821 67.6V65.8C519.821 65.304 519.693 64.916 519.437 64.636C519.181 64.356 518.829 64.216 518.381 64.216C517.925 64.216 517.569 64.336 517.313 64.576C517.057 64.808 516.929 65.196 516.929 65.74V67.66C516.929 68.196 517.057 68.584 517.313 68.824C517.569 69.064 517.925 69.184 518.381 69.184Z" fill="#AFB5AD"/>
</g>
<path d="M88.2198 128.024C88.4478 126.452 89.5638 125.288 91.2678 125.288C92.8278 125.288 93.9798 126.32 93.9798 127.712C93.9798 128.96 92.9958 129.8 91.7118 130.592C91.0758 130.964 89.4078 132.116 89.3718 132.968H94.0518V134H88.0638C88.0638 131.42 89.9118 130.496 91.3398 129.584C92.2158 129.02 92.8758 128.372 92.8758 127.712C92.8758 126.896 92.2158 126.32 91.2678 126.32C90.2478 126.32 89.5518 126.956 89.3238 128.096L88.2198 128.024ZM98.7334 127.64H99.6694L99.7054 128.696C100.005 127.928 100.653 127.496 101.529 127.496C102.453 127.496 103.113 127.976 103.389 128.816C103.665 127.964 104.325 127.496 105.321 127.496C106.605 127.496 107.349 128.372 107.349 129.908V134H106.317V130.196C106.317 129.056 105.873 128.408 105.105 128.408C104.121 128.408 103.557 129.056 103.557 130.196V134H102.525V130.196C102.525 129.08 102.069 128.408 101.313 128.408C100.341 128.408 99.7654 129.08 99.7654 130.196V134H98.7334V127.64ZM109.269 127.64H110.301V134H109.269V127.64ZM109.245 126.644V125.48H110.325V126.644H109.245ZM112.046 127.64H112.982L113.018 128.732C113.342 127.88 114.086 127.496 114.962 127.496C116.414 127.496 117.11 128.564 117.11 129.908V134H116.078V130.196C116.078 129.032 115.694 128.408 114.746 128.408C113.738 128.408 113.078 129.032 113.078 130.196V134H112.046V127.64ZM121.742 129.512C121.994 128.276 122.99 127.496 124.346 127.496C125.99 127.496 126.914 128.456 126.914 130.16V132.704C126.914 132.968 127.034 133.088 127.298 133.088H127.562V134H127.118C126.47 134 125.894 133.796 125.894 133.028C125.63 133.604 124.934 134.144 123.926 134.144C122.666 134.144 121.634 133.472 121.634 132.332C121.634 131.012 122.618 130.688 124.034 130.412L125.882 130.052C125.87 128.996 125.366 128.48 124.346 128.48C123.554 128.48 123.026 128.876 122.834 129.596L121.742 129.512ZM122.714 132.332C122.714 132.824 123.134 133.232 124.058 133.232C125.09 133.232 125.906 132.512 125.906 131.024V130.964L124.418 131.228C123.482 131.396 122.714 131.444 122.714 132.332ZM131.239 133.664C129.595 133.664 128.431 132.392 128.431 130.58C128.431 128.768 129.583 127.496 131.227 127.496C132.091 127.496 132.811 127.928 133.099 128.624V127.64H134.083V133.376C134.083 135.056 132.931 135.944 131.263 135.944C129.907 135.944 128.899 135.212 128.599 134.096L129.679 134.024C129.943 134.612 130.483 134.96 131.263 134.96C132.379 134.96 133.051 134.492 133.051 133.616V132.572C132.739 133.244 132.043 133.664 131.239 133.664ZM129.511 130.58C129.511 131.876 130.195 132.68 131.299 132.68C132.367 132.68 133.051 131.876 133.063 130.58C133.087 129.284 132.403 128.48 131.299 128.48C130.195 128.48 129.511 129.284 129.511 130.58ZM138.519 134.144C136.755 134.144 135.603 132.848 135.603 130.82C135.603 128.792 136.755 127.496 138.519 127.496C140.283 127.496 141.435 128.792 141.435 130.82C141.435 132.848 140.283 134.144 138.519 134.144ZM136.683 130.82C136.683 132.284 137.355 133.16 138.519 133.16C139.683 133.16 140.355 132.284 140.355 130.82C140.355 129.356 139.683 128.48 138.519 128.48C137.355 128.48 136.683 129.356 136.683 130.82Z" fill="#687066"/>
<circle cx="180" cy="130" r="3" fill="#687066"/>
<g filter="url(#filter1_ddii_3827_3651)">
<path d="M218 118.8C218 114.32 218 112.079 218.872 110.368C219.639 108.863 220.863 107.639 222.368 106.872C224.079 106 226.32 106 230.8 106H525.2C529.68 106 531.921 106 533.632 106.872C535.137 107.639 536.361 108.863 537.128 110.368C538 112.079 538 114.32 538 118.8V141.2C538 145.68 538 147.921 537.128 149.632C536.361 151.137 535.137 152.361 533.632 153.128C531.921 154 529.68 154 525.2 154H230.8C226.32 154 224.079 154 222.368 153.128C220.863 152.361 219.639 151.137 218.872 149.632C218 147.921 218 145.68 218 141.2V118.8Z" fill="#2F312E" shape-rendering="crispEdges"/>
<g clip-path="url(#clip2_3827_3651)">
<path d="M228 130C228 121.163 235.163 114 244 114C252.837 114 260 121.163 260 130C260 138.837 252.837 146 244 146C235.163 146 228 138.837 228 130Z" fill="white"/>
<g clip-path="url(#clip3_3827_3651)">
<rect x="228" y="114" width="32" height="32" rx="16" fill="#E5D5CD"/>
<path d="M247.899 135.314V136.824C247.899 138.836 250.793 139.717 250.793 139.717C250.793 139.717 247.459 142.233 244 142.233C240.541 142.233 237.207 139.717 237.207 139.717C237.207 139.717 240.123 138.836 240.1 136.824C240.077 134.811 240.093 133.628 240.077 130.18C238.275 127.843 238.39 126.275 239.376 125.172C242.679 121.477 251.673 122.735 251.673 122.735C251.673 122.735 252.512 131.791 250.604 134.434C249.786 135.566 247.899 135.314 247.899 135.314Z" fill="url(#paint4_linear_3827_3651)"/>
<path opacity="0.3" d="M247.9 135.314C245.132 135 243.497 133.805 243.497 133.805C244.53 135.332 246.103 136.411 247.9 136.824V135.314Z" fill="#DB6F3D"/>
<path d="M257.208 143.529C258.406 145.964 259.095 151.58 259.095 151.58H228.905C228.905 151.58 229.595 145.964 230.792 143.529C231.989 141.095 238.981 138.837 238.981 138.837C240.329 141.604 247.725 141.604 249.016 138.836C249.016 138.836 256.011 141.094 257.208 143.529Z" fill="#ECEEEC"/>
<mask id="mask0_3827_3651" style="mask-type:alpha" maskUnits="userSpaceOnUse" x="228" y="138" width="32" height="14">
<path d="M257.208 143.529C258.406 145.964 259.095 151.58 259.095 151.58H228.905C228.905 151.58 229.595 145.964 230.792 143.529C231.989 141.095 238.981 138.837 238.981 138.837C240.329 141.604 247.725 141.604 249.016 138.836C249.016 138.836 256.011 141.094 257.208 143.529Z" fill="#ECEEEC"/>
</mask>
<g mask="url(#mask0_3827_3651)">
<path d="M227.647 149.654V148.648H260.353V149.654H227.647ZM227.647 147.139V146.132H260.353V147.139H227.647ZM227.647 144.623V143.616H260.353V144.623H227.647Z" fill="white" fill-opacity="0.16"/>
</g>
<path d="M241.63 126.409C241.23 126.066 240.744 125.834 240.057 126.191C238.428 127.037 239.661 130.282 241.108 130.282C241.485 130.282 241.673 131.468 239.992 132.295C239.992 130.974 237.98 127.704 237.804 124.726C235.778 123.972 236.282 120.954 237.672 120.954C237.45 118.188 241.879 116.76 243.594 118.347C245.339 116.257 249.741 117.326 250.007 119.139C253.034 117.523 255.024 122.169 252.19 123.972C251.023 124.714 248.295 124.997 244.356 124.997C243.761 124.997 243.428 125.144 243.594 125.88C243.916 127.304 243.169 128.202 241.63 126.409Z" fill="url(#paint5_linear_3827_3651)"/>
</g>
</g>
<path d="M268.528 126.406V125.273H275.283V126.406H272.56V134H271.247V126.406H268.528ZM277.947 130.114V134H276.673V125.273H277.93V128.52H278.011C278.164 128.168 278.399 127.888 278.714 127.68C279.029 127.473 279.441 127.369 279.95 127.369C280.399 127.369 280.791 127.462 281.126 127.646C281.464 127.831 281.725 128.107 281.91 128.473C282.098 128.837 282.191 129.291 282.191 129.837V134H280.917V129.99C280.917 129.51 280.794 129.138 280.547 128.874C280.299 128.607 279.956 128.473 279.515 128.473C279.214 128.473 278.944 128.537 278.706 128.665C278.47 128.793 278.284 128.98 278.147 129.227C278.014 129.472 277.947 129.767 277.947 130.114ZM286.649 134.132C286.035 134.132 285.5 133.991 285.042 133.71C284.585 133.429 284.23 133.036 283.977 132.53C283.724 132.024 283.598 131.433 283.598 130.757C283.598 130.078 283.724 129.484 283.977 128.976C284.23 128.467 284.585 128.072 285.042 127.791C285.5 127.51 286.035 127.369 286.649 127.369C287.262 127.369 287.798 127.51 288.255 127.791C288.713 128.072 289.068 128.467 289.321 128.976C289.574 129.484 289.7 130.078 289.7 130.757C289.7 131.433 289.574 132.024 289.321 132.53C289.068 133.036 288.713 133.429 288.255 133.71C287.798 133.991 287.262 134.132 286.649 134.132ZM286.653 133.062C287.051 133.062 287.38 132.957 287.642 132.747C287.903 132.537 288.096 132.257 288.221 131.908C288.349 131.558 288.413 131.173 288.413 130.753C288.413 130.335 288.349 129.952 288.221 129.602C288.096 129.25 287.903 128.967 287.642 128.754C287.38 128.541 287.051 128.435 286.653 128.435C286.252 128.435 285.92 128.541 285.656 128.754C285.395 128.967 285.2 129.25 285.072 129.602C284.947 129.952 284.885 130.335 284.885 130.753C284.885 131.173 284.947 131.558 285.072 131.908C285.2 132.257 285.395 132.537 285.656 132.747C285.92 132.957 286.252 133.062 286.653 133.062ZM291.122 134V127.455H292.345V128.52H292.426C292.563 128.159 292.786 127.878 293.095 127.676C293.405 127.472 293.776 127.369 294.207 127.369C294.645 127.369 295.011 127.472 295.307 127.676C295.605 127.881 295.825 128.162 295.967 128.52H296.036C296.192 128.17 296.44 127.892 296.781 127.685C297.122 127.474 297.528 127.369 298 127.369C298.594 127.369 299.078 127.555 299.453 127.928C299.831 128.3 300.02 128.861 300.02 129.611V134H298.746V129.73C298.746 129.287 298.625 128.966 298.384 128.767C298.142 128.568 297.854 128.469 297.518 128.469C297.104 128.469 296.781 128.597 296.551 128.852C296.321 129.105 296.206 129.43 296.206 129.828V134H294.936V129.649C294.936 129.294 294.825 129.009 294.604 128.793C294.382 128.577 294.094 128.469 293.739 128.469C293.497 128.469 293.274 128.533 293.07 128.661C292.868 128.786 292.705 128.96 292.58 129.185C292.457 129.409 292.396 129.669 292.396 129.964V134H291.122ZM303.632 134.145C303.218 134.145 302.843 134.068 302.507 133.915C302.172 133.759 301.907 133.533 301.711 133.237C301.517 132.942 301.421 132.58 301.421 132.151C301.421 131.781 301.492 131.477 301.634 131.239C301.776 131 301.968 130.811 302.209 130.672C302.451 130.533 302.721 130.428 303.019 130.357C303.317 130.286 303.621 130.232 303.931 130.195C304.323 130.149 304.641 130.112 304.885 130.084C305.13 130.053 305.307 130.003 305.418 129.935C305.529 129.866 305.584 129.756 305.584 129.602V129.572C305.584 129.2 305.479 128.912 305.269 128.707C305.061 128.503 304.752 128.401 304.34 128.401C303.911 128.401 303.573 128.496 303.326 128.686C303.081 128.874 302.912 129.082 302.819 129.312L301.621 129.04C301.763 128.642 301.971 128.321 302.243 128.077C302.519 127.83 302.836 127.651 303.194 127.54C303.551 127.426 303.928 127.369 304.323 127.369C304.584 127.369 304.861 127.401 305.154 127.463C305.449 127.523 305.725 127.634 305.98 127.795C306.239 127.957 306.451 128.189 306.615 128.49C306.78 128.788 306.863 129.176 306.863 129.653V134H305.618V133.105H305.567C305.485 133.27 305.361 133.432 305.196 133.591C305.032 133.75 304.82 133.882 304.561 133.987C304.303 134.092 303.993 134.145 303.632 134.145ZM303.909 133.122C304.262 133.122 304.563 133.053 304.813 132.913C305.066 132.774 305.257 132.592 305.388 132.368C305.522 132.141 305.588 131.898 305.588 131.639V130.795C305.543 130.841 305.455 130.884 305.324 130.923C305.196 130.96 305.05 130.993 304.885 131.021C304.721 131.047 304.56 131.071 304.404 131.094C304.248 131.114 304.117 131.131 304.012 131.145C303.765 131.176 303.539 131.229 303.334 131.303C303.132 131.376 302.971 131.483 302.848 131.622C302.729 131.759 302.669 131.94 302.669 132.168C302.669 132.483 302.786 132.722 303.019 132.884C303.252 133.043 303.549 133.122 303.909 133.122ZM313.464 129.053L312.31 129.257C312.261 129.109 312.185 128.969 312.08 128.835C311.977 128.702 311.838 128.592 311.662 128.507C311.486 128.422 311.266 128.379 311.001 128.379C310.641 128.379 310.339 128.46 310.098 128.622C309.857 128.781 309.736 128.987 309.736 129.24C309.736 129.459 309.817 129.635 309.979 129.768C310.141 129.902 310.402 130.011 310.763 130.097L311.803 130.335C312.405 130.474 312.854 130.689 313.149 130.979C313.445 131.268 313.592 131.645 313.592 132.108C313.592 132.5 313.479 132.849 313.251 133.156C313.027 133.46 312.713 133.699 312.31 133.872C311.909 134.045 311.445 134.132 310.916 134.132C310.183 134.132 309.585 133.976 309.122 133.663C308.659 133.348 308.375 132.901 308.27 132.321L309.501 132.134C309.578 132.455 309.736 132.697 309.974 132.862C310.213 133.024 310.524 133.105 310.908 133.105C311.325 133.105 311.659 133.018 311.909 132.845C312.159 132.669 312.284 132.455 312.284 132.202C312.284 131.997 312.207 131.825 312.054 131.686C311.903 131.547 311.672 131.442 311.359 131.371L310.251 131.128C309.641 130.989 309.189 130.767 308.896 130.463C308.607 130.159 308.462 129.774 308.462 129.308C308.462 128.922 308.57 128.584 308.786 128.294C309.001 128.004 309.3 127.778 309.68 127.616C310.061 127.452 310.497 127.369 310.989 127.369C311.696 127.369 312.253 127.523 312.659 127.83C313.065 128.134 313.334 128.541 313.464 129.053Z" fill="#ECEEEC"/>
<path d="M388.985 134.12C388.185 134.12 387.545 133.896 387.065 133.448C386.585 133 386.345 132.384 386.345 131.6V129.8C386.345 129.016 386.585 128.4 387.065 127.952C387.545 127.504 388.185 127.28 388.985 127.28C389.745 127.28 390.357 127.484 390.821 127.892C391.293 128.3 391.541 128.856 391.565 129.56H390.485C390.461 129.136 390.317 128.812 390.053 128.588C389.789 128.356 389.433 128.24 388.985 128.24C388.513 128.24 388.133 128.376 387.845 128.648C387.565 128.912 387.425 129.292 387.425 129.788V131.6C387.425 132.096 387.565 132.48 387.845 132.752C388.133 133.024 388.513 133.16 388.985 133.16C389.433 133.16 389.789 133.044 390.053 132.812C390.317 132.58 390.461 132.256 390.485 131.84H391.565C391.541 132.544 391.293 133.1 390.821 133.508C390.357 133.916 389.745 134.12 388.985 134.12ZM396.084 134.096C395.292 134.096 394.66 133.864 394.188 133.4C393.724 132.936 393.492 132.288 393.492 131.456V129.944C393.492 129.104 393.724 128.456 394.188 128C394.652 127.536 395.284 127.304 396.084 127.304C396.884 127.304 397.516 127.536 397.98 128C398.444 128.456 398.676 129.104 398.676 129.944V131.456C398.676 132.288 398.44 132.936 397.968 133.4C397.504 133.864 396.876 134.096 396.084 134.096ZM396.084 133.136C396.556 133.136 396.924 133.004 397.188 132.74C397.46 132.476 397.596 132.088 397.596 131.576V129.824C397.596 129.312 397.46 128.924 397.188 128.66C396.924 128.396 396.556 128.264 396.084 128.264C395.62 128.264 395.252 128.396 394.98 128.66C394.708 128.924 394.572 129.312 394.572 129.824V131.576C394.572 132.088 394.708 132.476 394.98 132.74C395.252 133.004 395.62 133.136 396.084 133.136ZM400.784 134V127.4H401.864V128.66H401.876C401.932 128.22 402.112 127.88 402.416 127.64C402.72 127.4 403.124 127.28 403.628 127.28C404.292 127.28 404.82 127.484 405.212 127.892C405.604 128.3 405.8 128.856 405.8 129.56V134H404.72V129.752C404.72 129.248 404.592 128.864 404.336 128.6C404.088 128.328 403.748 128.192 403.316 128.192C402.868 128.192 402.512 128.332 402.248 128.612C401.992 128.892 401.864 129.288 401.864 129.8V134H400.784ZM407.979 134V127.4H409.059V128.66H409.071C409.127 128.22 409.307 127.88 409.611 127.64C409.915 127.4 410.319 127.28 410.823 127.28C411.487 127.28 412.015 127.484 412.407 127.892C412.799 128.3 412.995 128.856 412.995 129.56V134H411.915V129.752C411.915 129.248 411.787 128.864 411.531 128.6C411.283 128.328 410.943 128.192 410.511 128.192C410.063 128.192 409.707 128.332 409.443 128.612C409.187 128.892 409.059 129.288 409.059 129.8V134H407.979ZM417.67 134.12C416.894 134.12 416.266 133.888 415.786 133.424C415.314 132.952 415.078 132.304 415.078 131.48V129.92C415.078 129.096 415.314 128.452 415.786 127.988C416.266 127.516 416.894 127.28 417.67 127.28C418.19 127.28 418.642 127.384 419.026 127.592C419.418 127.8 419.722 128.092 419.938 128.468C420.154 128.844 420.262 129.288 420.262 129.8V130.976H416.134V131.6C416.134 132.088 416.274 132.476 416.554 132.764C416.834 133.044 417.206 133.184 417.67 133.184C418.07 133.184 418.398 133.108 418.654 132.956C418.918 132.796 419.078 132.584 419.134 132.32H420.214C420.142 132.872 419.874 133.312 419.41 133.64C418.946 133.96 418.366 134.12 417.67 134.12ZM416.134 130.136H419.206V129.8C419.206 129.28 419.07 128.88 418.798 128.6C418.534 128.312 418.158 128.168 417.67 128.168C417.182 128.168 416.802 128.312 416.53 128.6C416.266 128.88 416.134 129.28 416.134 129.8V130.136ZM424.962 134.12C424.162 134.12 423.522 133.896 423.042 133.448C422.562 133 422.322 132.384 422.322 131.6V129.8C422.322 129.016 422.562 128.4 423.042 127.952C423.522 127.504 424.162 127.28 424.962 127.28C425.722 127.28 426.334 127.484 426.798 127.892C427.27 128.3 427.518 128.856 427.542 129.56H426.462C426.438 129.136 426.294 128.812 426.03 128.588C425.766 128.356 425.41 128.24 424.962 128.24C424.49 128.24 424.11 128.376 423.822 128.648C423.542 128.912 423.402 129.292 423.402 129.788V131.6C423.402 132.096 423.542 132.48 423.822 132.752C424.11 133.024 424.49 133.16 424.962 133.16C425.41 133.16 425.766 133.044 426.03 132.812C426.294 132.58 426.438 132.256 426.462 131.84H427.542C427.518 132.544 427.27 133.1 426.798 133.508C426.334 133.916 425.722 134.12 424.962 134.12ZM432.721 134C432.177 134 431.741 133.844 431.413 133.532C431.085 133.212 430.921 132.788 430.921 132.26V128.384H429.025V127.4H430.921V125.54H432.001V127.4H434.701V128.384H432.001V132.26C432.001 132.484 432.065 132.668 432.193 132.812C432.329 132.948 432.505 133.016 432.721 133.016H434.641V134H432.721ZM439.256 134.096C438.464 134.096 437.832 133.864 437.36 133.4C436.896 132.936 436.664 132.288 436.664 131.456V129.944C436.664 129.104 436.896 128.456 437.36 128C437.824 127.536 438.456 127.304 439.256 127.304C440.056 127.304 440.688 127.536 441.152 128C441.616 128.456 441.848 129.104 441.848 129.944V131.456C441.848 132.288 441.612 132.936 441.14 133.4C440.676 133.864 440.048 134.096 439.256 134.096ZM439.256 133.136C439.728 133.136 440.096 133.004 440.36 132.74C440.632 132.476 440.768 132.088 440.768 131.576V129.824C440.768 129.312 440.632 128.924 440.36 128.66C440.096 128.396 439.728 128.264 439.256 128.264C438.792 128.264 438.424 128.396 438.152 128.66C437.88 128.924 437.744 129.312 437.744 129.824V131.576C437.744 132.088 437.88 132.476 438.152 132.74C438.424 133.004 438.792 133.136 439.256 133.136ZM444.196 134V127.4H445.276V128.66H445.3C445.356 128.236 445.536 127.9 445.84 127.652C446.144 127.404 446.552 127.28 447.064 127.28C447.752 127.28 448.28 127.488 448.648 127.904C449.024 128.312 449.212 128.896 449.212 129.656V130.22H448.132V129.656C448.132 128.696 447.664 128.216 446.728 128.216C446.256 128.216 445.896 128.352 445.648 128.624C445.4 128.896 445.276 129.288 445.276 129.8V134H444.196ZM453.647 134.12C453.351 134.12 453.111 134.032 452.927 133.856C452.751 133.68 452.663 133.452 452.663 133.172C452.663 132.876 452.751 132.636 452.927 132.452C453.111 132.268 453.351 132.176 453.647 132.176C453.943 132.176 454.179 132.268 454.355 132.452C454.539 132.636 454.631 132.876 454.631 133.172C454.631 133.452 454.539 133.68 454.355 133.856C454.179 134.032 453.943 134.12 453.647 134.12ZM458.358 134V125.24H461.058C461.578 125.24 462.034 125.348 462.426 125.564C462.818 125.772 463.122 126.064 463.338 126.44C463.554 126.816 463.662 127.256 463.662 127.76C463.662 128.352 463.51 128.86 463.206 129.284C462.902 129.708 462.498 130.004 461.994 130.172L463.782 134H462.594L460.878 130.28H459.426V134H458.358ZM459.426 129.308H461.058C461.506 129.308 461.866 129.168 462.138 128.888C462.41 128.6 462.546 128.224 462.546 127.76C462.546 127.288 462.41 126.912 462.138 126.632C461.866 126.352 461.506 126.212 461.058 126.212H459.426V129.308ZM468.038 134.12C467.262 134.12 466.634 133.888 466.154 133.424C465.682 132.952 465.446 132.304 465.446 131.48V129.92C465.446 129.096 465.682 128.452 466.154 127.988C466.634 127.516 467.262 127.28 468.038 127.28C468.558 127.28 469.01 127.384 469.394 127.592C469.786 127.8 470.09 128.092 470.306 128.468C470.522 128.844 470.63 129.288 470.63 129.8V130.976H466.502V131.6C466.502 132.088 466.642 132.476 466.922 132.764C467.202 133.044 467.574 133.184 468.038 133.184C468.438 133.184 468.766 133.108 469.022 132.956C469.286 132.796 469.446 132.584 469.502 132.32H470.582C470.51 132.872 470.242 133.312 469.778 133.64C469.314 133.96 468.734 134.12 468.038 134.12ZM466.502 130.136H469.574V129.8C469.574 129.28 469.438 128.88 469.166 128.6C468.902 128.312 468.526 128.168 468.038 128.168C467.55 128.168 467.17 128.312 466.898 128.6C466.634 128.88 466.502 129.28 466.502 129.8V130.136ZM474.969 134.096C474.233 134.096 473.661 133.932 473.253 133.604C472.853 133.268 472.653 132.796 472.653 132.188H473.733C473.733 132.492 473.841 132.732 474.057 132.908C474.273 133.076 474.577 133.16 474.969 133.16H475.497C475.897 133.16 476.205 133.072 476.421 132.896C476.645 132.72 476.757 132.472 476.757 132.152C476.757 131.584 476.497 131.264 475.977 131.192L474.153 130.928C473.705 130.864 473.357 130.68 473.109 130.376C472.861 130.064 472.737 129.656 472.737 129.152C472.737 128.576 472.933 128.124 473.325 127.796C473.725 127.468 474.273 127.304 474.969 127.304H475.497C476.137 127.304 476.657 127.464 477.057 127.784C477.465 128.096 477.685 128.508 477.717 129.02H476.625C476.609 128.788 476.497 128.596 476.289 128.444C476.089 128.292 475.825 128.216 475.497 128.216H474.969C474.601 128.216 474.313 128.3 474.105 128.468C473.897 128.636 473.793 128.864 473.793 129.152C473.793 129.616 474.005 129.88 474.429 129.944L476.133 130.184C477.253 130.344 477.813 131 477.813 132.152C477.813 132.768 477.609 133.248 477.201 133.592C476.801 133.928 476.233 134.096 475.497 134.096H474.969ZM483.088 134C482.544 134 482.108 133.844 481.78 133.532C481.452 133.212 481.288 132.788 481.288 132.26V128.384H479.392V127.4H481.288V125.54H482.368V127.4H485.068V128.384H482.368V132.26C482.368 132.484 482.432 132.668 482.56 132.812C482.696 132.948 482.872 133.016 483.088 133.016H485.008V134H483.088ZM489.047 134.12C488.367 134.12 487.827 133.932 487.427 133.556C487.027 133.172 486.827 132.672 486.827 132.056C486.827 131.648 486.919 131.292 487.103 130.988C487.287 130.684 487.543 130.448 487.871 130.28C488.199 130.104 488.575 130.016 488.999 130.016H491.039V129.5C491.039 128.644 490.571 128.216 489.635 128.216C489.219 128.216 488.883 128.292 488.627 128.444C488.371 128.596 488.235 128.808 488.219 129.08H487.139C487.179 128.56 487.419 128.132 487.859 127.796C488.307 127.452 488.899 127.28 489.635 127.28C490.435 127.28 491.047 127.472 491.471 127.856C491.903 128.24 492.119 128.776 492.119 129.464V134H491.051V132.8H491.027C490.963 133.208 490.759 133.532 490.415 133.772C490.071 134.004 489.615 134.12 489.047 134.12ZM489.311 133.208C489.839 133.208 490.259 133.08 490.571 132.824C490.883 132.568 491.039 132.22 491.039 131.78V130.856H489.119C488.767 130.856 488.479 130.964 488.255 131.18C488.039 131.388 487.931 131.668 487.931 132.02C487.931 132.388 488.051 132.68 488.291 132.896C488.539 133.104 488.879 133.208 489.311 133.208ZM494.563 134V127.4H495.643V128.66H495.667C495.723 128.236 495.903 127.9 496.207 127.652C496.511 127.404 496.919 127.28 497.431 127.28C498.119 127.28 498.647 127.488 499.015 127.904C499.391 128.312 499.579 128.896 499.579 129.656V130.22H498.499V129.656C498.499 128.696 498.031 128.216 497.095 128.216C496.623 128.216 496.263 128.352 496.015 128.624C495.767 128.896 495.643 129.288 495.643 129.8V134H494.563ZM504.674 134C504.13 134 503.694 133.844 503.366 133.532C503.038 133.212 502.874 132.788 502.874 132.26V128.384H500.978V127.4H502.874V125.54H503.954V127.4H506.654V128.384H503.954V132.26C503.954 132.484 504.018 132.668 504.146 132.812C504.282 132.948 504.458 133.016 504.674 133.016H506.594V134H504.674ZM511.209 134.12C510.433 134.12 509.805 133.888 509.325 133.424C508.853 132.952 508.617 132.304 508.617 131.48V129.92C508.617 129.096 508.853 128.452 509.325 127.988C509.805 127.516 510.433 127.28 511.209 127.28C511.729 127.28 512.181 127.384 512.565 127.592C512.957 127.8 513.261 128.092 513.477 128.468C513.693 128.844 513.801 129.288 513.801 129.8V130.976H509.673V131.6C509.673 132.088 509.813 132.476 510.093 132.764C510.373 133.044 510.745 133.184 511.209 133.184C511.609 133.184 511.937 133.108 512.193 132.956C512.457 132.796 512.617 132.584 512.673 132.32H513.753C513.681 132.872 513.413 133.312 512.949 133.64C512.485 133.96 511.905 134.12 511.209 134.12ZM509.673 130.136H512.745V129.8C512.745 129.28 512.609 128.88 512.337 128.6C512.073 128.312 511.697 128.168 511.209 128.168C510.721 128.168 510.341 128.312 510.069 128.6C509.805 128.88 509.673 129.28 509.673 129.8V130.136ZM518.021 134.12C517.365 134.12 516.837 133.9 516.437 133.46C516.045 133.02 515.849 132.424 515.849 131.672V129.74C515.849 128.98 516.045 128.38 516.437 127.94C516.829 127.5 517.357 127.28 518.021 127.28C518.517 127.28 518.925 127.404 519.245 127.652C519.573 127.9 519.769 128.236 519.833 128.66H519.845L519.821 127.16V125.24H520.901V134H519.821V132.74H519.809C519.753 133.172 519.565 133.512 519.245 133.76C518.925 134 518.517 134.12 518.021 134.12ZM518.381 133.184C518.829 133.184 519.181 133.044 519.437 132.764C519.693 132.484 519.821 132.096 519.821 131.6V129.8C519.821 129.304 519.693 128.916 519.437 128.636C519.181 128.356 518.829 128.216 518.381 128.216C517.925 128.216 517.569 128.336 517.313 128.576C517.057 128.808 516.929 129.196 516.929 129.74V131.66C516.929 132.196 517.057 132.584 517.313 132.824C517.569 133.064 517.925 133.184 518.381 133.184Z" fill="#AFB5AD"/>
</g>
<path d="M86.457 190.8C87.369 190.8 87.765 190.404 87.765 189.48H88.593V198H87.537V191.7H85.773V190.8H86.457ZM93.8702 189.48H94.9022V192.48C95.2742 191.808 96.0182 191.496 96.7862 191.496C98.2382 191.496 98.9342 192.564 98.9342 193.908V198H97.9022V194.268C97.9022 193.104 97.5182 192.48 96.5702 192.48C95.5622 192.48 94.9022 193.104 94.9022 194.268V198H93.8702V189.48ZM103.199 198.144C101.435 198.144 100.283 196.848 100.283 194.82C100.283 192.792 101.435 191.496 103.199 191.496C104.963 191.496 106.115 192.792 106.115 194.82C106.115 196.848 104.963 198.144 103.199 198.144ZM101.363 194.82C101.363 196.284 102.035 197.16 103.199 197.16C104.363 197.16 105.035 196.284 105.035 194.82C105.035 193.356 104.363 192.48 103.199 192.48C102.035 192.48 101.363 193.356 101.363 194.82ZM112.515 198H111.531V196.956C111.195 197.772 110.463 198.144 109.635 198.144C108.219 198.144 107.523 197.076 107.523 195.732V191.64H108.555V195.432C108.555 196.608 108.939 197.232 109.851 197.232C110.823 197.232 111.483 196.608 111.483 195.432V191.64H112.515V198ZM114.437 191.64H115.349L115.385 192.78C115.589 192 116.057 191.64 116.885 191.64H117.509V192.552H116.885C115.913 192.552 115.469 193.116 115.469 194.208V198H114.437V191.64ZM121.742 193.512C121.994 192.276 122.99 191.496 124.346 191.496C125.99 191.496 126.914 192.456 126.914 194.16V196.704C126.914 196.968 127.034 197.088 127.298 197.088H127.562V198H127.118C126.47 198 125.894 197.796 125.894 197.028C125.63 197.604 124.934 198.144 123.926 198.144C122.666 198.144 121.634 197.472 121.634 196.332C121.634 195.012 122.618 194.688 124.034 194.412L125.882 194.052C125.87 192.996 125.366 192.48 124.346 192.48C123.554 192.48 123.026 192.876 122.834 193.596L121.742 193.512ZM122.714 196.332C122.714 196.824 123.134 197.232 124.058 197.232C125.09 197.232 125.906 196.512 125.906 195.024V194.964L124.418 195.228C123.482 195.396 122.714 195.444 122.714 196.332ZM131.239 197.664C129.595 197.664 128.431 196.392 128.431 194.58C128.431 192.768 129.583 191.496 131.227 191.496C132.091 191.496 132.811 191.928 133.099 192.624V191.64H134.083V197.376C134.083 199.056 132.931 199.944 131.263 199.944C129.907 199.944 128.899 199.212 128.599 198.096L129.679 198.024C129.943 198.612 130.483 198.96 131.263 198.96C132.379 198.96 133.051 198.492 133.051 197.616V196.572C132.739 197.244 132.043 197.664 131.239 197.664ZM129.511 194.58C129.511 195.876 130.195 196.68 131.299 196.68C132.367 196.68 133.051 195.876 133.063 194.58C133.087 193.284 132.403 192.48 131.299 192.48C130.195 192.48 129.511 193.284 129.511 194.58ZM138.519 198.144C136.755 198.144 135.603 196.848 135.603 194.82C135.603 192.792 136.755 191.496 138.519 191.496C140.283 191.496 141.435 192.792 141.435 194.82C141.435 196.848 140.283 198.144 138.519 198.144ZM136.683 194.82C136.683 196.284 137.355 197.16 138.519 197.16C139.683 197.16 140.355 196.284 140.355 194.82C140.355 193.356 139.683 192.48 138.519 192.48C137.355 192.48 136.683 193.356 136.683 194.82Z" fill="#687066"/>
<circle cx="180" cy="194" r="3" fill="#687066"/>
<g filter="url(#filter2_ddii_3827_3651)">
<path d="M218 182.8C218 178.32 218 176.079 218.872 174.368C219.639 172.863 220.863 171.639 222.368 170.872C224.079 170 226.32 170 230.8 170H525.2C529.68 170 531.921 170 533.632 170.872C535.137 171.639 536.361 172.863 537.128 174.368C538 176.079 538 178.32 538 182.8V205.2C538 209.68 538 211.921 537.128 213.632C536.361 215.137 535.137 216.361 533.632 217.128C531.921 218 529.68 218 525.2 218H230.8C226.32 218 224.079 218 222.368 217.128C220.863 216.361 219.639 215.137 218.872 213.632C218 211.921 218 209.68 218 205.2V182.8Z" fill="#2F312E" shape-rendering="crispEdges"/>
<g clip-path="url(#clip4_3827_3651)">
<path d="M228 194C228 185.163 235.163 178 244 178C252.837 178 260 185.163 260 194C260 202.837 252.837 210 244 210C235.163 210 228 202.837 228 194Z" fill="white"/>
<g clip-path="url(#clip5_3827_3651)">
<rect x="228" y="178" width="32" height="32" rx="16" fill="#B1DBF6"/>
<path d="M234.827 197.093C233.822 193.756 233.203 188.051 237.428 184.149C240.658 181.167 249.382 180.866 252.417 187.37C252.923 188.455 252.231 190.157 250.868 190.095C250.333 190.07 250.001 191.767 249.691 192.82C250.125 197.093 253.987 197.172 255.947 200.438C258.362 204.464 255.389 210.409 248.267 210.409C241.144 210.409 237.061 204.514 234.827 197.093Z" fill="url(#paint6_linear_3827_3651)"/>
<path d="M232.412 206.817C231.503 208.551 231.049 214.869 231.049 214.869H256.566C256.566 214.869 256.112 208.551 255.204 206.817C253.841 204.216 243.808 200.871 243.808 200.871C243.808 200.871 233.774 204.216 232.412 206.817Z" fill="#33CC82"/>
<path d="M240.834 202.358C240.834 202.358 242.416 203.225 243.87 203.225C245.325 203.225 246.78 202.358 246.78 202.358V199.633C247.093 199.682 247.41 199.701 247.727 199.689C250.698 199.689 251.819 195.361 251.239 190.095C250.868 190.095 250.001 190.095 248.762 188.361C249.072 190.776 245.48 190.404 244.117 188.484C244.798 190.776 243.002 192.324 241.454 191.395C238.418 189.574 237.735 195.127 240.834 195.173V202.358Z" fill="url(#paint7_linear_3827_3651)"/>
<path opacity="0.3" d="M246.78 199.633C245.244 199.35 243.773 198.783 242.445 197.961C242.445 197.961 243.993 200.624 246.78 200.624V199.633Z" fill="#FFB597"/>
<path d="M243.804 203.098C242.908 203.058 240.835 202.619 240.835 201.672V200.871C240.608 200.871 239.957 201.408 239.623 201.862C238.3 203.659 239.767 205.269 240.963 205.269C242.473 205.269 243.473 204.008 243.808 203.401C244.142 204.008 245.142 205.269 246.652 205.269C247.848 205.269 249.315 203.659 247.993 201.862C247.658 201.408 247.008 200.871 246.78 200.871V201.672C246.78 202.619 244.651 203.058 243.804 203.098Z" fill="white"/>
</g>
</g>
<path d="M273.719 191.565C273.673 191.162 273.486 190.849 273.156 190.628C272.827 190.403 272.412 190.291 271.912 190.291C271.554 190.291 271.244 190.348 270.983 190.462C270.722 190.572 270.518 190.726 270.374 190.922C270.232 191.115 270.161 191.335 270.161 191.582C270.161 191.79 270.209 191.969 270.305 192.119C270.405 192.27 270.534 192.396 270.693 192.499C270.855 192.598 271.028 192.682 271.213 192.75C271.398 192.815 271.575 192.869 271.746 192.912L272.598 193.134C272.876 193.202 273.162 193.294 273.455 193.411C273.747 193.527 274.018 193.68 274.268 193.871C274.518 194.061 274.72 194.297 274.874 194.578C275.03 194.859 275.108 195.196 275.108 195.588C275.108 196.082 274.98 196.521 274.724 196.905C274.472 197.288 274.104 197.591 273.621 197.812C273.141 198.034 272.56 198.145 271.878 198.145C271.224 198.145 270.659 198.041 270.182 197.834C269.705 197.626 269.331 197.332 269.061 196.952C268.791 196.568 268.642 196.114 268.614 195.588H269.935C269.96 195.903 270.063 196.166 270.241 196.376C270.423 196.584 270.655 196.739 270.936 196.841C271.22 196.94 271.531 196.99 271.869 196.99C272.241 196.99 272.572 196.932 272.862 196.815C273.155 196.696 273.385 196.531 273.553 196.321C273.72 196.108 273.804 195.859 273.804 195.575C273.804 195.317 273.73 195.105 273.582 194.94C273.438 194.776 273.24 194.639 272.99 194.531C272.743 194.423 272.463 194.328 272.151 194.246L271.119 193.964C270.42 193.774 269.866 193.494 269.457 193.125C269.051 192.756 268.848 192.267 268.848 191.659C268.848 191.156 268.984 190.717 269.257 190.342C269.53 189.967 269.899 189.676 270.365 189.469C270.831 189.259 271.357 189.153 271.942 189.153C272.533 189.153 273.054 189.257 273.506 189.464C273.96 189.672 274.318 189.957 274.58 190.321C274.841 190.682 274.977 191.097 274.989 191.565H273.719ZM279.336 198.132C278.723 198.132 278.187 197.991 277.73 197.71C277.272 197.429 276.917 197.036 276.664 196.53C276.412 196.024 276.285 195.433 276.285 194.757C276.285 194.078 276.412 193.484 276.664 192.976C276.917 192.467 277.272 192.072 277.73 191.791C278.187 191.51 278.723 191.369 279.336 191.369C279.95 191.369 280.485 191.51 280.943 191.791C281.4 192.072 281.755 192.467 282.008 192.976C282.261 193.484 282.387 194.078 282.387 194.757C282.387 195.433 282.261 196.024 282.008 196.53C281.755 197.036 281.4 197.429 280.943 197.71C280.485 197.991 279.95 198.132 279.336 198.132ZM279.341 197.062C279.738 197.062 280.068 196.957 280.329 196.747C280.591 196.537 280.784 196.257 280.909 195.908C281.037 195.558 281.1 195.173 281.1 194.753C281.1 194.335 281.037 193.952 280.909 193.602C280.784 193.25 280.591 192.967 280.329 192.754C280.068 192.541 279.738 192.435 279.341 192.435C278.94 192.435 278.608 192.541 278.343 192.754C278.082 192.967 277.887 193.25 277.76 193.602C277.635 193.952 277.572 194.335 277.572 194.753C277.572 195.173 277.635 195.558 277.76 195.908C277.887 196.257 278.082 196.537 278.343 196.747C278.608 196.957 278.94 197.062 279.341 197.062ZM283.81 200.455V191.455H285.054V192.516H285.161C285.234 192.379 285.341 192.222 285.48 192.043C285.619 191.864 285.813 191.707 286.06 191.574C286.307 191.438 286.634 191.369 287.04 191.369C287.568 191.369 288.04 191.503 288.455 191.77C288.869 192.037 289.195 192.422 289.43 192.925C289.669 193.428 289.788 194.033 289.788 194.74C289.788 195.447 289.67 196.054 289.435 196.56C289.199 197.062 288.875 197.45 288.463 197.723C288.051 197.993 287.581 198.128 287.053 198.128C286.655 198.128 286.33 198.061 286.077 197.928C285.827 197.794 285.631 197.638 285.489 197.459C285.347 197.28 285.237 197.121 285.161 196.982H285.084V200.455H283.81ZM285.058 194.727C285.058 195.187 285.125 195.591 285.259 195.938C285.392 196.284 285.585 196.555 285.838 196.751C286.091 196.945 286.401 197.041 286.767 197.041C287.148 197.041 287.466 196.94 287.722 196.739C287.977 196.534 288.17 196.257 288.301 195.908C288.435 195.558 288.501 195.165 288.501 194.727C288.501 194.295 288.436 193.908 288.305 193.564C288.178 193.22 287.984 192.949 287.726 192.75C287.47 192.551 287.151 192.452 286.767 192.452C286.398 192.452 286.085 192.547 285.83 192.737C285.577 192.928 285.385 193.193 285.254 193.534C285.124 193.875 285.058 194.273 285.058 194.727ZM292.49 194.114V198H291.216V189.273H292.473V192.52H292.554C292.707 192.168 292.942 191.888 293.257 191.68C293.572 191.473 293.984 191.369 294.493 191.369C294.942 191.369 295.334 191.462 295.669 191.646C296.007 191.831 296.268 192.107 296.453 192.473C296.641 192.837 296.734 193.291 296.734 193.837V198H295.46V193.99C295.46 193.51 295.337 193.138 295.089 192.874C294.842 192.607 294.499 192.473 294.058 192.473C293.757 192.473 293.487 192.537 293.249 192.665C293.013 192.793 292.827 192.98 292.69 193.227C292.557 193.472 292.49 193.767 292.49 194.114ZM298.435 198V191.455H299.709V198H298.435ZM299.078 190.445C298.857 190.445 298.666 190.371 298.507 190.223C298.351 190.072 298.273 189.893 298.273 189.686C298.273 189.476 298.351 189.297 298.507 189.149C298.666 188.999 298.857 188.923 299.078 188.923C299.3 188.923 299.489 188.999 299.645 189.149C299.804 189.297 299.884 189.476 299.884 189.686C299.884 189.893 299.804 190.072 299.645 190.223C299.489 190.371 299.3 190.445 299.078 190.445ZM304.244 198.132C303.599 198.132 303.044 197.994 302.578 197.719C302.115 197.44 301.757 197.05 301.504 196.547C301.254 196.041 301.129 195.449 301.129 194.77C301.129 194.099 301.254 193.509 301.504 192.997C301.757 192.486 302.109 192.087 302.561 191.8C303.015 191.513 303.547 191.369 304.154 191.369C304.524 191.369 304.882 191.43 305.228 191.553C305.575 191.675 305.886 191.866 306.162 192.128C306.437 192.389 306.654 192.729 306.814 193.146C306.973 193.561 307.052 194.065 307.052 194.659V195.111H301.849V194.156H305.804C305.804 193.821 305.735 193.524 305.599 193.266C305.463 193.004 305.271 192.798 305.024 192.648C304.779 192.497 304.493 192.422 304.163 192.422C303.805 192.422 303.493 192.51 303.225 192.686C302.961 192.859 302.757 193.087 302.612 193.368C302.47 193.646 302.399 193.949 302.399 194.276V195.021C302.399 195.459 302.475 195.831 302.629 196.138C302.785 196.445 303.002 196.679 303.281 196.841C303.559 197 303.885 197.08 304.257 197.08C304.498 197.08 304.718 197.045 304.917 196.977C305.116 196.906 305.288 196.801 305.433 196.662C305.578 196.523 305.689 196.351 305.765 196.146L306.971 196.364C306.875 196.719 306.701 197.03 306.451 197.297C306.204 197.561 305.893 197.767 305.518 197.915C305.146 198.06 304.721 198.132 304.244 198.132Z" fill="#ECEEEC"/>
<path d="M417.766 198.12C416.966 198.12 416.326 197.896 415.846 197.448C415.366 197 415.126 196.384 415.126 195.6V193.8C415.126 193.016 415.366 192.4 415.846 191.952C416.326 191.504 416.966 191.28 417.766 191.28C418.526 191.28 419.138 191.484 419.602 191.892C420.074 192.3 420.322 192.856 420.346 193.56H419.266C419.242 193.136 419.098 192.812 418.834 192.588C418.57 192.356 418.214 192.24 417.766 192.24C417.294 192.24 416.914 192.376 416.626 192.648C416.346 192.912 416.206 193.292 416.206 193.788V195.6C416.206 196.096 416.346 196.48 416.626 196.752C416.914 197.024 417.294 197.16 417.766 197.16C418.214 197.16 418.57 197.044 418.834 196.812C419.098 196.58 419.242 196.256 419.266 195.84H420.346C420.322 196.544 420.074 197.1 419.602 197.508C419.138 197.916 418.526 198.12 417.766 198.12ZM425.826 198C425.242 198 424.774 197.832 424.422 197.496C424.078 197.152 423.906 196.7 423.906 196.14V190.224H421.626V189.24H424.986V196.14C424.986 196.412 425.062 196.628 425.214 196.788C425.366 196.94 425.57 197.016 425.826 197.016H427.866V198H425.826ZM432.049 198.12C431.289 198.12 430.681 197.896 430.225 197.448C429.769 196.992 429.541 196.376 429.541 195.6V191.4H430.621V195.6C430.621 196.08 430.749 196.464 431.005 196.752C431.261 197.032 431.609 197.172 432.049 197.172C432.497 197.172 432.849 197.032 433.105 196.752C433.369 196.464 433.501 196.08 433.501 195.6V191.4H434.581V195.6C434.581 196.376 434.349 196.992 433.885 197.448C433.421 197.896 432.809 198.12 432.049 198.12ZM438.992 198.096C438.256 198.096 437.684 197.932 437.276 197.604C436.876 197.268 436.676 196.796 436.676 196.188H437.756C437.756 196.492 437.864 196.732 438.08 196.908C438.296 197.076 438.6 197.16 438.992 197.16H439.52C439.92 197.16 440.228 197.072 440.444 196.896C440.668 196.72 440.78 196.472 440.78 196.152C440.78 195.584 440.52 195.264 440 195.192L438.176 194.928C437.728 194.864 437.38 194.68 437.132 194.376C436.884 194.064 436.76 193.656 436.76 193.152C436.76 192.576 436.956 192.124 437.348 191.796C437.748 191.468 438.296 191.304 438.992 191.304H439.52C440.16 191.304 440.68 191.464 441.08 191.784C441.488 192.096 441.708 192.508 441.74 193.02H440.648C440.632 192.788 440.52 192.596 440.312 192.444C440.112 192.292 439.848 192.216 439.52 192.216H438.992C438.624 192.216 438.336 192.3 438.128 192.468C437.92 192.636 437.816 192.864 437.816 193.152C437.816 193.616 438.028 193.88 438.452 193.944L440.156 194.184C441.276 194.344 441.836 195 441.836 196.152C441.836 196.768 441.632 197.248 441.224 197.592C440.824 197.928 440.256 198.096 439.52 198.096H438.992ZM447.112 198C446.568 198 446.132 197.844 445.804 197.532C445.476 197.212 445.312 196.788 445.312 196.26V192.384H443.416V191.4H445.312V189.54H446.392V191.4H449.092V192.384H446.392V196.26C446.392 196.484 446.456 196.668 446.584 196.812C446.72 196.948 446.896 197.016 447.112 197.016H449.032V198H447.112ZM453.647 198.12C452.871 198.12 452.243 197.888 451.763 197.424C451.291 196.952 451.055 196.304 451.055 195.48V193.92C451.055 193.096 451.291 192.452 451.763 191.988C452.243 191.516 452.871 191.28 453.647 191.28C454.167 191.28 454.619 191.384 455.003 191.592C455.395 191.8 455.699 192.092 455.915 192.468C456.131 192.844 456.239 193.288 456.239 193.8V194.976H452.111V195.6C452.111 196.088 452.251 196.476 452.531 196.764C452.811 197.044 453.183 197.184 453.647 197.184C454.047 197.184 454.375 197.108 454.631 196.956C454.895 196.796 455.055 196.584 455.111 196.32H456.191C456.119 196.872 455.851 197.312 455.387 197.64C454.923 197.96 454.343 198.12 453.647 198.12ZM452.111 194.136H455.183V193.8C455.183 193.28 455.047 192.88 454.775 192.6C454.511 192.312 454.135 192.168 453.647 192.168C453.159 192.168 452.779 192.312 452.507 192.6C452.243 192.88 452.111 193.28 452.111 193.8V194.136ZM458.586 198V191.4H459.666V192.66H459.69C459.746 192.236 459.926 191.9 460.23 191.652C460.534 191.404 460.942 191.28 461.454 191.28C462.142 191.28 462.67 191.488 463.038 191.904C463.414 192.312 463.602 192.896 463.602 193.656V194.22H462.522V193.656C462.522 192.696 462.054 192.216 461.118 192.216C460.646 192.216 460.286 192.352 460.038 192.624C459.79 192.896 459.666 193.288 459.666 193.8V198H458.586ZM468.038 198.12C467.742 198.12 467.502 198.032 467.318 197.856C467.142 197.68 467.054 197.452 467.054 197.172C467.054 196.876 467.142 196.636 467.318 196.452C467.502 196.268 467.742 196.176 468.038 196.176C468.334 196.176 468.57 196.268 468.746 196.452C468.93 196.636 469.022 196.876 469.022 197.172C469.022 197.452 468.93 197.68 468.746 197.856C468.57 198.032 468.334 198.12 468.038 198.12ZM475.329 198.12C474.529 198.12 473.897 197.896 473.433 197.448C472.969 197 472.737 196.384 472.737 195.6V191.64C472.737 190.856 472.969 190.24 473.433 189.792C473.897 189.344 474.529 189.12 475.329 189.12C476.113 189.12 476.737 189.348 477.201 189.804C477.665 190.252 477.897 190.864 477.897 191.64H476.817C476.817 191.144 476.685 190.764 476.421 190.5C476.165 190.228 475.801 190.092 475.329 190.092C474.857 190.092 474.485 190.228 474.213 190.5C473.949 190.764 473.817 191.144 473.817 191.64V195.6C473.817 196.096 473.949 196.48 474.213 196.752C474.485 197.016 474.857 197.148 475.329 197.148C475.801 197.148 476.165 197.016 476.421 196.752C476.685 196.48 476.817 196.096 476.817 195.6H477.897C477.897 196.376 477.665 196.992 477.201 197.448C476.737 197.896 476.113 198.12 475.329 198.12ZM480.172 198V191.4H481.252V192.66H481.276C481.332 192.236 481.512 191.9 481.816 191.652C482.12 191.404 482.528 191.28 483.04 191.28C483.728 191.28 484.256 191.488 484.624 191.904C485 192.312 485.188 192.896 485.188 193.656V194.22H484.108V193.656C484.108 192.696 483.64 192.216 482.704 192.216C482.232 192.216 481.872 192.352 481.624 192.624C481.376 192.896 481.252 193.288 481.252 193.8V198H480.172ZM489.623 198.12C488.847 198.12 488.219 197.888 487.739 197.424C487.267 196.952 487.031 196.304 487.031 195.48V193.92C487.031 193.096 487.267 192.452 487.739 191.988C488.219 191.516 488.847 191.28 489.623 191.28C490.143 191.28 490.595 191.384 490.979 191.592C491.371 191.8 491.675 192.092 491.891 192.468C492.107 192.844 492.215 193.288 492.215 193.8V194.976H488.087V195.6C488.087 196.088 488.227 196.476 488.507 196.764C488.787 197.044 489.159 197.184 489.623 197.184C490.023 197.184 490.351 197.108 490.607 196.956C490.871 196.796 491.031 196.584 491.087 196.32H492.167C492.095 196.872 491.827 197.312 491.363 197.64C490.899 197.96 490.319 198.12 489.623 198.12ZM488.087 194.136H491.159V193.8C491.159 193.28 491.023 192.88 490.751 192.6C490.487 192.312 490.111 192.168 489.623 192.168C489.135 192.168 488.755 192.312 488.483 192.6C488.219 192.88 488.087 193.28 488.087 193.8V194.136ZM496.243 198.12C495.563 198.12 495.023 197.932 494.623 197.556C494.223 197.172 494.023 196.672 494.023 196.056C494.023 195.648 494.115 195.292 494.299 194.988C494.483 194.684 494.739 194.448 495.067 194.28C495.395 194.104 495.771 194.016 496.195 194.016H498.235V193.5C498.235 192.644 497.767 192.216 496.831 192.216C496.415 192.216 496.079 192.292 495.823 192.444C495.567 192.596 495.431 192.808 495.415 193.08H494.335C494.375 192.56 494.615 192.132 495.055 191.796C495.503 191.452 496.095 191.28 496.831 191.28C497.631 191.28 498.243 191.472 498.667 191.856C499.099 192.24 499.315 192.776 499.315 193.464V198H498.247V196.8H498.223C498.159 197.208 497.955 197.532 497.611 197.772C497.267 198.004 496.811 198.12 496.243 198.12ZM496.507 197.208C497.035 197.208 497.455 197.08 497.767 196.824C498.079 196.568 498.235 196.22 498.235 195.78V194.856H496.315C495.963 194.856 495.675 194.964 495.451 195.18C495.235 195.388 495.127 195.668 495.127 196.02C495.127 196.388 495.247 196.68 495.487 196.896C495.735 197.104 496.075 197.208 496.507 197.208ZM504.674 198C504.13 198 503.694 197.844 503.366 197.532C503.038 197.212 502.874 196.788 502.874 196.26V192.384H500.978V191.4H502.874V189.54H503.954V191.4H506.654V192.384H503.954V196.26C503.954 196.484 504.018 196.668 504.146 196.812C504.282 196.948 504.458 197.016 504.674 197.016H506.594V198H504.674ZM511.209 198.12C510.433 198.12 509.805 197.888 509.325 197.424C508.853 196.952 508.617 196.304 508.617 195.48V193.92C508.617 193.096 508.853 192.452 509.325 191.988C509.805 191.516 510.433 191.28 511.209 191.28C511.729 191.28 512.181 191.384 512.565 191.592C512.957 191.8 513.261 192.092 513.477 192.468C513.693 192.844 513.801 193.288 513.801 193.8V194.976H509.673V195.6C509.673 196.088 509.813 196.476 510.093 196.764C510.373 197.044 510.745 197.184 511.209 197.184C511.609 197.184 511.937 197.108 512.193 196.956C512.457 196.796 512.617 196.584 512.673 196.32H513.753C513.681 196.872 513.413 197.312 512.949 197.64C512.485 197.96 511.905 198.12 511.209 198.12ZM509.673 194.136H512.745V193.8C512.745 193.28 512.609 192.88 512.337 192.6C512.073 192.312 511.697 192.168 511.209 192.168C510.721 192.168 510.341 192.312 510.069 192.6C509.805 192.88 509.673 193.28 509.673 193.8V194.136ZM518.021 198.12C517.365 198.12 516.837 197.9 516.437 197.46C516.045 197.02 515.849 196.424 515.849 195.672V193.74C515.849 192.98 516.045 192.38 516.437 191.94C516.829 191.5 517.357 191.28 518.021 191.28C518.517 191.28 518.925 191.404 519.245 191.652C519.573 191.9 519.769 192.236 519.833 192.66H519.845L519.821 191.16V189.24H520.901V198H519.821V196.74H519.809C519.753 197.172 519.565 197.512 519.245 197.76C518.925 198 518.517 198.12 518.021 198.12ZM518.381 197.184C518.829 197.184 519.181 197.044 519.437 196.764C519.693 196.484 519.821 196.096 519.821 195.6V193.8C519.821 193.304 519.693 192.916 519.437 192.636C519.181 192.356 518.829 192.216 518.381 192.216C517.925 192.216 517.569 192.336 517.313 192.576C517.057 192.808 516.929 193.196 516.929 193.74V195.66C516.929 196.196 517.057 196.584 517.313 196.824C517.569 197.064 517.925 197.184 518.381 197.184Z" fill="#AFB5AD"/>
</g>
<defs>
<filter id="filter0_ddii_3827_3651" x="210" y="37" width="336" height="64" filterUnits="userSpaceOnUse" color-interpolation-filters="sRGB">
<feFlood flood-opacity="0" result="BackgroundImageFix"/>
<feColorMatrix in="SourceAlpha" type="matrix" values="0 0 0 0 0 0 0 0 0 0 0 0 0 0 0 0 0 0 127 0" result="hardAlpha"/>
<feOffset dy="1"/>
<feGaussianBlur stdDeviation="1.5"/>
<feComposite in2="hardAlpha" operator="out"/>
<feColorMatrix type="matrix" values="0 0 0 0 0 0 0 0 0 0 0 0 0 0 0 0 0 0 0.5 0"/>
<feBlend mode="normal" in2="BackgroundImageFix" result="effect1_dropShadow_3827_3651"/>
<feColorMatrix in="SourceAlpha" type="matrix" values="0 0 0 0 0 0 0 0 0 0 0 0 0 0 0 0 0 0 127 0" result="hardAlpha"/>
<feOffset dy="3"/>
<feGaussianBlur stdDeviation="4"/>
<feComposite in2="hardAlpha" operator="out"/>
<feColorMatrix type="matrix" values="0 0 0 0 0 0 0 0 0 0 0 0 0 0 0 0 0 0 0.35 0"/>
<feBlend mode="normal" in2="effect1_dropShadow_3827_3651" result="effect2_dropShadow_3827_3651"/>
<feBlend mode="normal" in="SourceGraphic" in2="effect2_dropShadow_3827_3651" result="shape"/>
<feColorMatrix in="SourceAlpha" type="matrix" values="0 0 0 0 0 0 0 0 0 0 0 0 0 0 0 0 0 0 127 0" result="hardAlpha"/>
<feOffset/>
<feGaussianBlur stdDeviation="0.25"/>
<feComposite in2="hardAlpha" operator="arithmetic" k2="-1" k3="1"/>
<feColorMatrix type="matrix" values="0 0 0 0 1 0 0 0 0 1 0 0 0 0 1 0 0 0 0.3 0"/>
<feBlend mode="normal" in2="shape" result="effect3_innerShadow_3827_3651"/>
<feColorMatrix in="SourceAlpha" type="matrix" values="0 0 0 0 0 0 0 0 0 0 0 0 0 0 0 0 0 0 127 0" result="hardAlpha"/>
<feOffset dy="0.5"/>
<feComposite in2="hardAlpha" operator="arithmetic" k2="-1" k3="1"/>
<feColorMatrix type="matrix" values="0 0 0 0 1 0 0 0 0 1 0 0 0 0 1 0 0 0 0.08 0"/>
<feBlend mode="normal" in2="effect3_innerShadow_3827_3651" result="effect4_innerShadow_3827_3651"/>
</filter>
<filter id="filter1_ddii_3827_3651" x="210" y="101" width="336" height="64" filterUnits="userSpaceOnUse" color-interpolation-filters="sRGB">
<feFlood flood-opacity="0" result="BackgroundImageFix"/>
<feColorMatrix in="SourceAlpha" type="matrix" values="0 0 0 0 0 0 0 0 0 0 0 0 0 0 0 0 0 0 127 0" result="hardAlpha"/>
<feOffset dy="1"/>
<feGaussianBlur stdDeviation="1.5"/>
<feComposite in2="hardAlpha" operator="out"/>
<feColorMatrix type="matrix" values="0 0 0 0 0 0 0 0 0 0 0 0 0 0 0 0 0 0 0.5 0"/>
<feBlend mode="normal" in2="BackgroundImageFix" result="effect1_dropShadow_3827_3651"/>
<feColorMatrix in="SourceAlpha" type="matrix" values="0 0 0 0 0 0 0 0 0 0 0 0 0 0 0 0 0 0 127 0" result="hardAlpha"/>
<feOffset dy="3"/>
<feGaussianBlur stdDeviation="4"/>
<feComposite in2="hardAlpha" operator="out"/>
<feColorMatrix type="matrix" values="0 0 0 0 0 0 0 0 0 0 0 0 0 0 0 0 0 0 0.35 0"/>
<feBlend mode="normal" in2="effect1_dropShadow_3827_3651" result="effect2_dropShadow_3827_3651"/>
<feBlend mode="normal" in="SourceGraphic" in2="effect2_dropShadow_3827_3651" result="shape"/>
<feColorMatrix in="SourceAlpha" type="matrix" values="0 0 0 0 0 0 0 0 0 0 0 0 0 0 0 0 0 0 127 0" result="hardAlpha"/>
<feOffset/>
<feGaussianBlur stdDeviation="0.25"/>
<feComposite in2="hardAlpha" operator="arithmetic" k2="-1" k3="1"/>
<feColorMatrix type="matrix" values="0 0 0 0 1 0 0 0 0 1 0 0 0 0 1 0 0 0 0.3 0"/>
<feBlend mode="normal" in2="shape" result="effect3_innerShadow_3827_3651"/>
<feColorMatrix in="SourceAlpha" type="matrix" values="0 0 0 0 0 0 0 0 0 0 0 0 0 0 0 0 0 0 127 0" result="hardAlpha"/>
<feOffset dy="0.5"/>
<feComposite in2="hardAlpha" operator="arithmetic" k2="-1" k3="1"/>
<feColorMatrix type="matrix" values="0 0 0 0 1 0 0 0 0 1 0 0 0 0 1 0 0 0 0.08 0"/>
<feBlend mode="normal" in2="effect3_innerShadow_3827_3651" result="effect4_innerShadow_3827_3651"/>
</filter>
<filter id="filter2_ddii_3827_3651" x="210" y="165" width="336" height="64" filterUnits="userSpaceOnUse" color-interpolation-filters="sRGB">
<feFlood flood-opacity="0" result="BackgroundImageFix"/>
<feColorMatrix in="SourceAlpha" type="matrix" values="0 0 0 0 0 0 0 0 0 0 0 0 0 0 0 0 0 0 127 0" result="hardAlpha"/>
<feOffset dy="1"/>
<feGaussianBlur stdDeviation="1.5"/>
<feComposite in2="hardAlpha" operator="out"/>
<feColorMatrix type="matrix" values="0 0 0 0 0 0 0 0 0 0 0 0 0 0 0 0 0 0 0.5 0"/>
<feBlend mode="normal" in2="BackgroundImageFix" result="effect1_dropShadow_3827_3651"/>
<feColorMatrix in="SourceAlpha" type="matrix" values="0 0 0 0 0 0 0 0 0 0 0 0 0 0 0 0 0 0 127 0" result="hardAlpha"/>
<feOffset dy="3"/>
<feGaussianBlur stdDeviation="4"/>
<feComposite in2="hardAlpha" operator="out"/>
<feColorMatrix type="matrix" values="0 0 0 0 0 0 0 0 0 0 0 0 0 0 0 0 0 0 0.35 0"/>
<feBlend mode="normal" in2="effect1_dropShadow_3827_3651" result="effect2_dropShadow_3827_3651"/>
<feBlend mode="normal" in="SourceGraphic" in2="effect2_dropShadow_3827_3651" result="shape"/>
<feColorMatrix in="SourceAlpha" type="matrix" values="0 0 0 0 0 0 0 0 0 0 0 0 0 0 0 0 0 0 127 0" result="hardAlpha"/>
<feOffset/>
<feGaussianBlur stdDeviation="0.25"/>
<feComposite in2="hardAlpha" operator="arithmetic" k2="-1" k3="1"/>
<feColorMatrix type="matrix" values="0 0 0 0 1 0 0 0 0 1 0 0 0 0 1 0 0 0 0.3 0"/>
<feBlend mode="normal" in2="shape" result="effect3_innerShadow_3827_3651"/>
<feColorMatrix in="SourceAlpha" type="matrix" values="0 0 0 0 0 0 0 0 0 0 0 0 0 0 0 0 0 0 127 0" result="hardAlpha"/>
<feOffset dy="0.5"/>
<feComposite in2="hardAlpha" operator="arithmetic" k2="-1" k3="1"/>
<feColorMatrix type="matrix" values="0 0 0 0 1 0 0 0 0 1 0 0 0 0 1 0 0 0 0.08 0"/>
<feBlend mode="normal" in2="effect3_innerShadow_3827_3651" result="effect4_innerShadow_3827_3651"/>
</filter>
<linearGradient id="paint0_linear_3827_3651" x1="180.5" y1="72" x2="180.5" y2="252" gradientUnits="userSpaceOnUse">
<stop stop-color="#BCFD69"/>
<stop offset="0.15625" stop-color="#2F312E"/>
<stop offset="0.677083" stop-color="#2F312E"/>
<stop offset="1" stop-color="#2F312E" stop-opacity="0"/>
</linearGradient>
<linearGradient id="paint1_linear_3827_3651" x1="244" y1="85.4739" x2="244" y2="71.9146" gradientUnits="userSpaceOnUse">
<stop stop-color="#B59DFF"/>
<stop offset="1" stop-color="#8057FF"/>
</linearGradient>
<linearGradient id="paint2_linear_3827_3651" x1="244.437" y1="54.1955" x2="244.437" y2="70.524" gradientUnits="userSpaceOnUse">
<stop stop-color="#212220"/>
<stop offset="1" stop-color="#212220"/>
</linearGradient>
<linearGradient id="paint3_linear_3827_3651" x1="245.242" y1="60.3572" x2="245.242" y2="74.1945" gradientUnits="userSpaceOnUse">
<stop stop-color="#F4E3D3"/>
<stop offset="1" stop-color="#EB965E"/>
</linearGradient>
<linearGradient id="paint4_linear_3827_3651" x1="244.532" y1="122.529" x2="244.532" y2="142.233" gradientUnits="userSpaceOnUse">
<stop stop-color="#F4E3D3"/>
<stop offset="1" stop-color="#EB965E"/>
</linearGradient>
<linearGradient id="paint5_linear_3827_3651" x1="245.005" y1="117.2" x2="245.005" y2="132.295" gradientUnits="userSpaceOnUse">
<stop stop-color="#212220"/>
<stop offset="1" stop-color="#212220"/>
</linearGradient>
<linearGradient id="paint6_linear_3827_3651" x1="245.432" y1="182.116" x2="245.432" y2="210.409" gradientUnits="userSpaceOnUse">
<stop stop-color="#212220"/>
<stop offset="1" stop-color="#212220"/>
</linearGradient>
<linearGradient id="paint7_linear_3827_3651" x1="245.102" y1="188.361" x2="245.102" y2="203.225" gradientUnits="userSpaceOnUse">
<stop stop-color="#FFD4B3"/>
<stop offset="1" stop-color="#FFDCC2"/>
</linearGradient>
<clipPath id="clip0_3827_3651">
<path d="M228 66C228 57.1634 235.163 50 244 50C252.837 50 260 57.1634 260 66C260 74.8366 252.837 82 244 82C235.163 82 228 74.8366 228 66Z" fill="white"/>
</clipPath>
<clipPath id="clip1_3827_3651">
<rect x="228" y="50" width="32" height="32" rx="16" fill="white"/>
</clipPath>
<clipPath id="clip2_3827_3651">
<path d="M228 130C228 121.163 235.163 114 244 114C252.837 114 260 121.163 260 130C260 138.837 252.837 146 244 146C235.163 146 228 138.837 228 130Z" fill="white"/>
</clipPath>
<clipPath id="clip3_3827_3651">
<rect x="228" y="114" width="32" height="32" rx="16" fill="white"/>
</clipPath>
<clipPath id="clip4_3827_3651">
<path d="M228 194C228 185.163 235.163 178 244 178C252.837 178 260 185.163 260 194C260 202.837 252.837 210 244 210C235.163 210 228 202.837 228 194Z" fill="white"/>
</clipPath>
<clipPath id="clip5_3827_3651">
<rect x="228" y="178" width="32" height="32" rx="16" fill="white"/>
</clipPath>
</defs>
</svg>
