<svg width="600" height="260" viewBox="0 0 600 260" fill="none" xmlns="http://www.w3.org/2000/svg">
<path d="M200 96H223.387C232.913 96 242.224 93.1656 250.134 87.8575L301.866 53.1425C309.776 47.8344 319.087 45 328.613 45H352" stroke="#2F312E" stroke-width="2"/>
<path d="M200 164H232.393C236.118 164 239.831 164.434 243.456 165.292L308.544 180.708C312.169 181.566 315.882 182 319.607 182H352" stroke="#2F312E" stroke-width="2"/>
<path d="M200 130H223.626C233.003 130 242.174 127.254 250.008 122.1L301.992 87.9C309.825 82.7464 318.997 80 328.374 80H352" stroke="#2F312E" stroke-width="2"/>
<circle cx="200" cy="96" r="5" fill="#BCFE68"/>
<path d="M352 216H335.639C321.88 216 308.782 210.096 299.671 199.785L252.329 146.215C243.218 135.904 230.12 130 216.361 130H200" stroke="#2F312E" stroke-width="2"/>
<path d="M279.833 106C279.833 103.054 277.446 100.667 274.5 100.667C271.554 100.667 269.167 103.054 269.167 106C269.167 108.946 271.554 111.333 274.5 111.333C277.446 111.333 279.833 108.946 279.833 106ZM273.953 105.163L249.205 121.34L250.299 123.014L275.047 106.837L273.953 105.163ZM223.489 129H200V131H223.489V129ZM249.205 121.34C241.559 126.338 232.623 129 223.489 129V131C233.012 131 242.328 128.225 250.299 123.014L249.205 121.34Z" fill="url(#paint0_linear_3827_3858)"/>
<g filter="url(#filter0_ddii_3827_3858)">
<path d="M40 95.8C40 91.3196 40 89.0794 40.8719 87.3681C41.6389 85.8628 42.8628 84.6389 44.3681 83.8719C46.0794 83 48.3196 83 52.8 83H187.2C191.68 83 193.921 83 195.632 83.8719C197.137 84.6389 198.361 85.8628 199.128 87.3681C200 89.0794 200 91.3196 200 95.8V96.2C200 100.68 200 102.921 199.128 104.632C198.361 106.137 197.137 107.361 195.632 108.128C193.921 109 191.68 109 187.2 109H52.8C48.3196 109 46.0794 109 44.3681 108.128C42.8628 107.361 41.6389 106.137 40.8719 104.632C40 102.921 40 100.68 40 96.2V95.8Z" fill="#2F312E" shape-rendering="crispEdges"/>
<path d="M50.51 100V93.6H48.53V92.7H53.47V93.6H51.5V100H50.51ZM57.4961 100.1C56.8294 100.1 56.3028 99.9067 55.9161 99.52C55.5294 99.1333 55.3361 98.5867 55.3361 97.88V94.81C55.3361 94.11 55.5294 93.5667 55.9161 93.18C56.3028 92.7933 56.8294 92.6 57.4961 92.6C58.1628 92.6 58.6894 92.7933 59.0761 93.18C59.4628 93.56 59.6561 94.1033 59.6561 94.81V97.88C59.6561 98.5867 59.4628 99.1333 59.0761 99.52C58.6894 99.9067 58.1628 100.1 57.4961 100.1ZM57.4961 99.22C57.8694 99.22 58.1561 99.1133 58.3561 98.9C58.5628 98.6867 58.6661 98.38 58.6661 97.98V94.71C58.6661 94.3167 58.5661 94.0133 58.3661 93.8C58.1661 93.5867 57.8761 93.48 57.4961 93.48C57.1161 93.48 56.8261 93.5867 56.6261 93.8C56.4261 94.0133 56.3261 94.3167 56.3261 94.71V97.98C56.3261 98.38 56.4261 98.6867 56.6261 98.9C56.8328 99.1133 57.1228 99.22 57.4961 99.22ZM61.8722 100V92.7H64.2422C64.7089 92.7 65.1122 92.79 65.4522 92.97C65.7922 93.15 66.0555 93.4033 66.2422 93.73C66.4289 94.05 66.5222 94.4333 66.5222 94.88C66.5222 95.32 66.4289 95.7033 66.2422 96.03C66.0555 96.35 65.7889 96.6 65.4422 96.78C65.1022 96.96 64.7022 97.05 64.2422 97.05H62.8622V100H61.8722ZM62.8622 96.17H64.2422C64.6289 96.17 64.9355 96.0533 65.1622 95.82C65.3889 95.58 65.5022 95.2667 65.5022 94.88C65.5022 94.4867 65.3889 94.1733 65.1622 93.94C64.9355 93.7 64.6289 93.58 64.2422 93.58H62.8622V96.17ZM68.4983 100V99.1H69.9883V93.6H68.4983V92.7H72.4783V93.6H70.9883V99.1H72.4783V100H68.4983ZM77.0644 100.1C76.391 100.1 75.8544 99.9133 75.4544 99.54C75.061 99.16 74.8644 98.64 74.8644 97.98V94.71C74.8644 94.0567 75.061 93.5433 75.4544 93.17C75.8544 92.79 76.391 92.6 77.0644 92.6C77.731 92.6 78.261 92.79 78.6544 93.17C79.0544 93.55 79.2544 94.0633 79.2544 94.71H78.2644C78.2644 94.3167 78.1577 94.0133 77.9444 93.8C77.731 93.5867 77.4377 93.48 77.0644 93.48C76.6844 93.48 76.3877 93.5867 76.1744 93.8C75.961 94.0133 75.8544 94.3167 75.8544 94.71V97.98C75.8544 98.38 75.961 98.6867 76.1744 98.9C76.3877 99.1133 76.6844 99.22 77.0644 99.22C77.4377 99.22 77.731 99.1133 77.9444 98.9C78.1577 98.6867 78.2644 98.38 78.2644 97.98H79.2544C79.2544 98.6333 79.0544 99.15 78.6544 99.53C78.261 99.91 77.731 100.1 77.0644 100.1ZM91.9566 92.7L91.3966 93.93C91.3366 94.0567 91.2899 94.1933 91.2566 94.34C91.2232 94.48 91.2066 94.6 91.2066 94.7C91.2066 94.8933 91.2532 95.0867 91.3466 95.28C91.4466 95.4667 91.5799 95.6233 91.7466 95.75H90.6666C90.5132 95.6167 90.3932 95.4567 90.3066 95.27C90.2266 95.0767 90.1866 94.8867 90.1866 94.7C90.1866 94.56 90.2099 94.4 90.2566 94.22C90.3032 94.0333 90.3632 93.8567 90.4366 93.69L90.8766 92.7H91.9566ZM89.7466 92.7L89.1866 93.93C89.1266 94.0567 89.0799 94.1933 89.0466 94.34C89.0132 94.48 88.9966 94.6 88.9966 94.7C88.9966 94.8933 89.0432 95.0867 89.1366 95.28C89.2366 95.4667 89.3699 95.6233 89.5366 95.75H88.4566C88.3032 95.6167 88.1832 95.4567 88.0966 95.27C88.0166 95.0767 87.9766 94.8867 87.9766 94.7C87.9766 94.56 87.9999 94.4 88.0466 94.22C88.0932 94.0333 88.1532 93.8567 88.2266 93.69L88.6666 92.7H89.7466ZM93.9327 100L95.8227 92.7H97.1327L99.0127 100H98.0027L97.5427 98.1H95.4027L94.9427 100H93.9327ZM95.6027 97.28H97.3427L96.8227 95.1C96.7227 94.7 96.6427 94.36 96.5827 94.08C96.5227 93.8 96.486 93.61 96.4727 93.51C96.4593 93.61 96.4227 93.8 96.3627 94.08C96.3027 94.36 96.226 94.6967 96.1327 95.09L95.6027 97.28ZM100.969 95.69L101.519 94.46C101.579 94.3333 101.625 94.2 101.659 94.06C101.692 93.9133 101.709 93.79 101.709 93.69C101.709 93.4967 101.662 93.3067 101.569 93.12C101.475 92.9267 101.345 92.7667 101.179 92.64H102.259C102.405 92.7733 102.522 92.9367 102.609 93.13C102.695 93.3167 102.739 93.5033 102.739 93.69C102.739 93.83 102.715 93.9933 102.669 94.18C102.622 94.36 102.562 94.5333 102.489 94.7L102.039 95.69H100.969ZM103.209 95.69L103.759 94.46C103.819 94.3333 103.865 94.2 103.899 94.06C103.932 93.9133 103.949 93.79 103.949 93.69C103.949 93.4967 103.902 93.3067 103.809 93.12C103.715 92.9267 103.585 92.7667 103.419 92.64H104.499C104.645 92.7733 104.762 92.9367 104.849 93.13C104.935 93.3167 104.979 93.5033 104.979 93.69C104.979 93.83 104.955 93.9933 104.909 94.18C104.862 94.36 104.802 94.5333 104.729 94.7L104.279 95.69H103.209Z" fill="#ECEEEC"/>
</g>
<g filter="url(#filter1_ddii_3827_3858)">
<path d="M40 129.8C40 125.32 40 123.079 40.8719 121.368C41.6389 119.863 42.8628 118.639 44.3681 117.872C46.0794 117 48.3196 117 52.8 117H187.2C191.68 117 193.921 117 195.632 117.872C197.137 118.639 198.361 119.863 199.128 121.368C200 123.079 200 125.32 200 129.8V130.2C200 134.68 200 136.921 199.128 138.632C198.361 140.137 197.137 141.361 195.632 142.128C193.921 143 191.68 143 187.2 143H52.8C48.3196 143 46.0794 143 44.3681 142.128C42.8628 141.361 41.6389 140.137 40.8719 138.632C40 136.921 40 134.68 40 130.2V129.8Z" fill="#2F312E" shape-rendering="crispEdges"/>
<path d="M50.51 134V127.6H48.53V126.7H53.47V127.6H51.5V134H50.51ZM57.4961 134.1C56.8294 134.1 56.3028 133.907 55.9161 133.52C55.5294 133.133 55.3361 132.587 55.3361 131.88V128.81C55.3361 128.11 55.5294 127.567 55.9161 127.18C56.3028 126.793 56.8294 126.6 57.4961 126.6C58.1628 126.6 58.6894 126.793 59.0761 127.18C59.4628 127.56 59.6561 128.103 59.6561 128.81V131.88C59.6561 132.587 59.4628 133.133 59.0761 133.52C58.6894 133.907 58.1628 134.1 57.4961 134.1ZM57.4961 133.22C57.8694 133.22 58.1561 133.113 58.3561 132.9C58.5628 132.687 58.6661 132.38 58.6661 131.98V128.71C58.6661 128.317 58.5661 128.013 58.3661 127.8C58.1661 127.587 57.8761 127.48 57.4961 127.48C57.1161 127.48 56.8261 127.587 56.6261 127.8C56.4261 128.013 56.3261 128.317 56.3261 128.71V131.98C56.3261 132.38 56.4261 132.687 56.6261 132.9C56.8328 133.113 57.1228 133.22 57.4961 133.22ZM61.8722 134V126.7H64.2422C64.7089 126.7 65.1122 126.79 65.4522 126.97C65.7922 127.15 66.0555 127.403 66.2422 127.73C66.4289 128.05 66.5222 128.433 66.5222 128.88C66.5222 129.32 66.4289 129.703 66.2422 130.03C66.0555 130.35 65.7889 130.6 65.4422 130.78C65.1022 130.96 64.7022 131.05 64.2422 131.05H62.8622V134H61.8722ZM62.8622 130.17H64.2422C64.6289 130.17 64.9355 130.053 65.1622 129.82C65.3889 129.58 65.5022 129.267 65.5022 128.88C65.5022 128.487 65.3889 128.173 65.1622 127.94C64.9355 127.7 64.6289 127.58 64.2422 127.58H62.8622V130.17ZM68.4983 134V133.1H69.9883V127.6H68.4983V126.7H72.4783V127.6H70.9883V133.1H72.4783V134H68.4983ZM77.0644 134.1C76.391 134.1 75.8544 133.913 75.4544 133.54C75.061 133.16 74.8644 132.64 74.8644 131.98V128.71C74.8644 128.057 75.061 127.543 75.4544 127.17C75.8544 126.79 76.391 126.6 77.0644 126.6C77.731 126.6 78.261 126.79 78.6544 127.17C79.0544 127.55 79.2544 128.063 79.2544 128.71H78.2644C78.2644 128.317 78.1577 128.013 77.9444 127.8C77.731 127.587 77.4377 127.48 77.0644 127.48C76.6844 127.48 76.3877 127.587 76.1744 127.8C75.961 128.013 75.8544 128.317 75.8544 128.71V131.98C75.8544 132.38 75.961 132.687 76.1744 132.9C76.3877 133.113 76.6844 133.22 77.0644 133.22C77.4377 133.22 77.731 133.113 77.9444 132.9C78.1577 132.687 78.2644 132.38 78.2644 131.98H79.2544C79.2544 132.633 79.0544 133.15 78.6544 133.53C78.261 133.91 77.731 134.1 77.0644 134.1ZM91.9566 126.7L91.3966 127.93C91.3366 128.057 91.2899 128.193 91.2566 128.34C91.2232 128.48 91.2066 128.6 91.2066 128.7C91.2066 128.893 91.2532 129.087 91.3466 129.28C91.4466 129.467 91.5799 129.623 91.7466 129.75H90.6666C90.5132 129.617 90.3932 129.457 90.3066 129.27C90.2266 129.077 90.1866 128.887 90.1866 128.7C90.1866 128.56 90.2099 128.4 90.2566 128.22C90.3032 128.033 90.3632 127.857 90.4366 127.69L90.8766 126.7H91.9566ZM89.7466 126.7L89.1866 127.93C89.1266 128.057 89.0799 128.193 89.0466 128.34C89.0132 128.48 88.9966 128.6 88.9966 128.7C88.9966 128.893 89.0432 129.087 89.1366 129.28C89.2366 129.467 89.3699 129.623 89.5366 129.75H88.4566C88.3032 129.617 88.1832 129.457 88.0966 129.27C88.0166 129.077 87.9766 128.887 87.9766 128.7C87.9766 128.56 87.9999 128.4 88.0466 128.22C88.0932 128.033 88.1532 127.857 88.2266 127.69L88.6666 126.7H89.7466ZM94.3627 134V126.7H96.4727C97.146 126.7 97.676 126.87 98.0627 127.21C98.456 127.543 98.6527 128.003 98.6527 128.59C98.6527 128.97 98.5327 129.31 98.2927 129.61C98.0593 129.903 97.756 130.083 97.3827 130.15V130.18C97.6627 130.213 97.9093 130.313 98.1227 130.48C98.3427 130.647 98.5127 130.86 98.6327 131.12C98.7593 131.373 98.8227 131.653 98.8227 131.96C98.8227 132.587 98.6227 133.083 98.2227 133.45C97.8293 133.817 97.2927 134 96.6127 134H94.3627ZM95.3327 129.78H96.4627C96.836 129.78 97.1293 129.683 97.3427 129.49C97.556 129.29 97.6627 129.02 97.6627 128.68C97.6627 128.333 97.556 128.063 97.3427 127.87C97.1293 127.67 96.8393 127.57 96.4727 127.57H95.3327V129.78ZM95.3327 133.13H96.5227C96.9293 133.13 97.2493 133.023 97.4827 132.81C97.716 132.59 97.8327 132.293 97.8327 131.92C97.8327 131.533 97.716 131.22 97.4827 130.98C97.2493 130.74 96.9293 130.62 96.5227 130.62H95.3327V133.13ZM100.969 129.69L101.519 128.46C101.579 128.333 101.625 128.2 101.659 128.06C101.692 127.913 101.709 127.79 101.709 127.69C101.709 127.497 101.662 127.307 101.569 127.12C101.475 126.927 101.345 126.767 101.179 126.64H102.259C102.405 126.773 102.522 126.937 102.609 127.13C102.695 127.317 102.739 127.503 102.739 127.69C102.739 127.83 102.715 127.993 102.669 128.18C102.622 128.36 102.562 128.533 102.489 128.7L102.039 129.69H100.969ZM103.209 129.69L103.759 128.46C103.819 128.333 103.865 128.2 103.899 128.06C103.932 127.913 103.949 127.79 103.949 127.69C103.949 127.497 103.902 127.307 103.809 127.12C103.715 126.927 103.585 126.767 103.419 126.64H104.499C104.645 126.773 104.762 126.937 104.849 127.13C104.935 127.317 104.979 127.503 104.979 127.69C104.979 127.83 104.955 127.993 104.909 128.18C104.862 128.36 104.802 128.533 104.729 128.7L104.279 129.69H103.209Z" fill="#ECEEEC"/>
</g>
<g filter="url(#filter2_ddii_3827_3858)">
<path d="M40 163.8C40 159.32 40 157.079 40.8719 155.368C41.6389 153.863 42.8628 152.639 44.3681 151.872C46.0794 151 48.3196 151 52.8 151H187.2C191.68 151 193.921 151 195.632 151.872C197.137 152.639 198.361 153.863 199.128 155.368C200 157.079 200 159.32 200 163.8V164.2C200 168.68 200 170.921 199.128 172.632C198.361 174.137 197.137 175.361 195.632 176.128C193.921 177 191.68 177 187.2 177H52.8C48.3196 177 46.0794 177 44.3681 176.128C42.8628 175.361 41.6389 174.137 40.8719 172.632C40 170.921 40 168.68 40 164.2V163.8Z" fill="#2F312E" shape-rendering="crispEdges"/>
<path d="M50.51 168V161.6H48.53V160.7H53.47V161.6H51.5V168H50.51ZM57.4961 168.1C56.8294 168.1 56.3028 167.907 55.9161 167.52C55.5294 167.133 55.3361 166.587 55.3361 165.88V162.81C55.3361 162.11 55.5294 161.567 55.9161 161.18C56.3028 160.793 56.8294 160.6 57.4961 160.6C58.1628 160.6 58.6894 160.793 59.0761 161.18C59.4628 161.56 59.6561 162.103 59.6561 162.81V165.88C59.6561 166.587 59.4628 167.133 59.0761 167.52C58.6894 167.907 58.1628 168.1 57.4961 168.1ZM57.4961 167.22C57.8694 167.22 58.1561 167.113 58.3561 166.9C58.5628 166.687 58.6661 166.38 58.6661 165.98V162.71C58.6661 162.317 58.5661 162.013 58.3661 161.8C58.1661 161.587 57.8761 161.48 57.4961 161.48C57.1161 161.48 56.8261 161.587 56.6261 161.8C56.4261 162.013 56.3261 162.317 56.3261 162.71V165.98C56.3261 166.38 56.4261 166.687 56.6261 166.9C56.8328 167.113 57.1228 167.22 57.4961 167.22ZM61.8722 168V160.7H64.2422C64.7089 160.7 65.1122 160.79 65.4522 160.97C65.7922 161.15 66.0555 161.403 66.2422 161.73C66.4289 162.05 66.5222 162.433 66.5222 162.88C66.5222 163.32 66.4289 163.703 66.2422 164.03C66.0555 164.35 65.7889 164.6 65.4422 164.78C65.1022 164.96 64.7022 165.05 64.2422 165.05H62.8622V168H61.8722ZM62.8622 164.17H64.2422C64.6289 164.17 64.9355 164.053 65.1622 163.82C65.3889 163.58 65.5022 163.267 65.5022 162.88C65.5022 162.487 65.3889 162.173 65.1622 161.94C64.9355 161.7 64.6289 161.58 64.2422 161.58H62.8622V164.17ZM68.4983 168V167.1H69.9883V161.6H68.4983V160.7H72.4783V161.6H70.9883V167.1H72.4783V168H68.4983ZM77.0644 168.1C76.391 168.1 75.8544 167.913 75.4544 167.54C75.061 167.16 74.8644 166.64 74.8644 165.98V162.71C74.8644 162.057 75.061 161.543 75.4544 161.17C75.8544 160.79 76.391 160.6 77.0644 160.6C77.731 160.6 78.261 160.79 78.6544 161.17C79.0544 161.55 79.2544 162.063 79.2544 162.71H78.2644C78.2644 162.317 78.1577 162.013 77.9444 161.8C77.731 161.587 77.4377 161.48 77.0644 161.48C76.6844 161.48 76.3877 161.587 76.1744 161.8C75.961 162.013 75.8544 162.317 75.8544 162.71V165.98C75.8544 166.38 75.961 166.687 76.1744 166.9C76.3877 167.113 76.6844 167.22 77.0644 167.22C77.4377 167.22 77.731 167.113 77.9444 166.9C78.1577 166.687 78.2644 166.38 78.2644 165.98H79.2544C79.2544 166.633 79.0544 167.15 78.6544 167.53C78.261 167.91 77.731 168.1 77.0644 168.1ZM91.9566 160.7L91.3966 161.93C91.3366 162.057 91.2899 162.193 91.2566 162.34C91.2232 162.48 91.2066 162.6 91.2066 162.7C91.2066 162.893 91.2532 163.087 91.3466 163.28C91.4466 163.467 91.5799 163.623 91.7466 163.75H90.6666C90.5132 163.617 90.3932 163.457 90.3066 163.27C90.2266 163.077 90.1866 162.887 90.1866 162.7C90.1866 162.56 90.2099 162.4 90.2566 162.22C90.3032 162.033 90.3632 161.857 90.4366 161.69L90.8766 160.7H91.9566ZM89.7466 160.7L89.1866 161.93C89.1266 162.057 89.0799 162.193 89.0466 162.34C89.0132 162.48 88.9966 162.6 88.9966 162.7C88.9966 162.893 89.0432 163.087 89.1366 163.28C89.2366 163.467 89.3699 163.623 89.5366 163.75H88.4566C88.3032 163.617 88.1832 163.457 88.0966 163.27C88.0166 163.077 87.9766 162.887 87.9766 162.7C87.9766 162.56 87.9999 162.4 88.0466 162.22C88.0932 162.033 88.1532 161.857 88.2266 161.69L88.6666 160.7H89.7466ZM96.5527 168.1C95.8793 168.1 95.3427 167.913 94.9427 167.54C94.5493 167.16 94.3527 166.64 94.3527 165.98V162.71C94.3527 162.057 94.5493 161.543 94.9427 161.17C95.3427 160.79 95.8793 160.6 96.5527 160.6C97.2193 160.6 97.7493 160.79 98.1427 161.17C98.5427 161.55 98.7427 162.063 98.7427 162.71H97.7527C97.7527 162.317 97.646 162.013 97.4327 161.8C97.2193 161.587 96.926 161.48 96.5527 161.48C96.1727 161.48 95.876 161.587 95.6627 161.8C95.4493 162.013 95.3427 162.317 95.3427 162.71V165.98C95.3427 166.38 95.4493 166.687 95.6627 166.9C95.876 167.113 96.1727 167.22 96.5527 167.22C96.926 167.22 97.2193 167.113 97.4327 166.9C97.646 166.687 97.7527 166.38 97.7527 165.98H98.7427C98.7427 166.633 98.5427 167.15 98.1427 167.53C97.7493 167.91 97.2193 168.1 96.5527 168.1ZM100.969 163.69L101.519 162.46C101.579 162.333 101.625 162.2 101.659 162.06C101.692 161.913 101.709 161.79 101.709 161.69C101.709 161.497 101.662 161.307 101.569 161.12C101.475 160.927 101.345 160.767 101.179 160.64H102.259C102.405 160.773 102.522 160.937 102.609 161.13C102.695 161.317 102.739 161.503 102.739 161.69C102.739 161.83 102.715 161.993 102.669 162.18C102.622 162.36 102.562 162.533 102.489 162.7L102.039 163.69H100.969ZM103.209 163.69L103.759 162.46C103.819 162.333 103.865 162.2 103.899 162.06C103.932 161.913 103.949 161.79 103.949 161.69C103.949 161.497 103.902 161.307 103.809 161.12C103.715 160.927 103.585 160.767 103.419 160.64H104.499C104.645 160.773 104.762 160.937 104.849 161.13C104.935 161.317 104.979 161.503 104.979 161.69C104.979 161.83 104.955 161.993 104.909 162.18C104.862 162.36 104.802 162.533 104.729 162.7L104.279 163.69H103.209Z" fill="#ECEEEC"/>
</g>
<path d="M200 164H216.698C230.262 164 243.192 158.262 252.292 148.204L299.708 95.7962C308.808 85.7384 321.738 80 335.302 80H352" stroke="#2F312E" stroke-width="2"/>
<path d="M346.5 32C346.5 23.4396 353.44 16.5 362 16.5H548C556.56 16.5 563.5 23.4396 563.5 32V126C563.5 134.56 556.56 141.5 548 141.5H362C353.44 141.5 346.5 134.56 346.5 126V32Z" stroke="#2F312E"/>
<g filter="url(#filter3_ddii_3827_3858)">
<path d="M362 44.8C362 40.3196 362 38.0794 362.872 36.3681C363.639 34.8628 364.863 33.6389 366.368 32.8719C368.079 32 370.32 32 374.8 32H509.2C513.68 32 515.921 32 517.632 32.8719C519.137 33.6389 520.361 34.8628 521.128 36.3681C522 38.0794 522 40.3196 522 44.8V45.2C522 49.6804 522 51.9206 521.128 53.6319C520.361 55.1372 519.137 56.3611 517.632 57.1281C515.921 58 513.68 58 509.2 58H374.8C370.32 58 368.079 58 366.368 57.1281C364.863 56.3611 363.639 55.1372 362.872 53.6319C362 51.9206 362 49.6804 362 45.2V44.8Z" fill="#2F312E" shape-rendering="crispEdges"/>
<path d="M373.08 49.1C372.407 49.1 371.87 48.9133 371.47 48.54C371.077 48.16 370.88 47.64 370.88 46.98V43.71C370.88 43.0567 371.077 42.5433 371.47 42.17C371.87 41.79 372.407 41.6 373.08 41.6C373.747 41.6 374.277 41.79 374.67 42.17C375.07 42.55 375.27 43.0633 375.27 43.71H374.28C374.28 43.3167 374.173 43.0133 373.96 42.8C373.747 42.5867 373.453 42.48 373.08 42.48C372.7 42.48 372.403 42.5867 372.19 42.8C371.977 43.0133 371.87 43.3167 371.87 43.71V46.98C371.87 47.38 371.977 47.6867 372.19 47.9C372.403 48.1133 372.7 48.22 373.08 48.22C373.453 48.22 373.747 48.1133 373.96 47.9C374.173 47.6867 374.28 47.38 374.28 46.98H375.27C375.27 47.6333 375.07 48.15 374.67 48.53C374.277 48.91 373.747 49.1 373.08 49.1ZM379.496 49.1C378.829 49.1 378.303 48.9067 377.916 48.52C377.529 48.1333 377.336 47.5867 377.336 46.88V43.81C377.336 43.11 377.529 42.5667 377.916 42.18C378.303 41.7933 378.829 41.6 379.496 41.6C380.163 41.6 380.689 41.7933 381.076 42.18C381.463 42.56 381.656 43.1033 381.656 43.81V46.88C381.656 47.5867 381.463 48.1333 381.076 48.52C380.689 48.9067 380.163 49.1 379.496 49.1ZM379.496 48.22C379.869 48.22 380.156 48.1133 380.356 47.9C380.563 47.6867 380.666 47.38 380.666 46.98V43.71C380.666 43.3167 380.566 43.0133 380.366 42.8C380.166 42.5867 379.876 42.48 379.496 42.48C379.116 42.48 378.826 42.5867 378.626 42.8C378.426 43.0133 378.326 43.3167 378.326 43.71V46.98C378.326 47.38 378.426 47.6867 378.626 47.9C378.833 48.1133 379.123 48.22 379.496 48.22ZM383.852 49V41.7H385.132L387.312 47.86C387.292 47.6867 387.272 47.4733 387.252 47.22C387.239 46.96 387.226 46.6933 387.212 46.42C387.206 46.14 387.202 45.8767 387.202 45.63V41.7H388.142V49H386.852L384.692 42.84C384.706 43.0133 384.719 43.2267 384.732 43.48C384.746 43.7267 384.756 43.9867 384.762 44.26C384.776 44.5333 384.782 44.79 384.782 45.03V49H383.852ZM392.528 49.1C391.808 49.1 391.235 48.9133 390.808 48.54C390.382 48.16 390.168 47.64 390.168 46.98H391.158C391.158 47.3667 391.282 47.67 391.528 47.89C391.775 48.11 392.108 48.22 392.528 48.22C392.928 48.22 393.245 48.11 393.478 47.89C393.718 47.6633 393.838 47.3633 393.838 46.99C393.838 46.71 393.762 46.4667 393.608 46.26C393.455 46.0467 393.238 45.9033 392.958 45.83L391.878 45.54C391.405 45.4067 391.028 45.1667 390.748 44.82C390.475 44.4667 390.338 44.05 390.338 43.57C390.338 43.1767 390.425 42.8333 390.598 42.54C390.778 42.24 391.028 42.01 391.348 41.85C391.668 41.6833 392.038 41.6 392.458 41.6C392.885 41.6 393.258 41.6833 393.578 41.85C393.905 42.01 394.158 42.2367 394.338 42.53C394.518 42.8233 394.608 43.1633 394.608 43.55H393.628C393.628 43.23 393.518 42.97 393.298 42.77C393.085 42.57 392.805 42.47 392.458 42.47C392.112 42.47 391.832 42.57 391.618 42.77C391.412 42.97 391.308 43.23 391.308 43.55C391.308 43.81 391.378 44.03 391.518 44.21C391.658 44.3833 391.855 44.5067 392.108 44.58L393.218 44.88C393.718 45.0133 394.108 45.27 394.388 45.65C394.668 46.0233 394.808 46.47 394.808 46.99C394.808 47.4167 394.715 47.79 394.528 48.11C394.342 48.4233 394.075 48.6667 393.728 48.84C393.388 49.0133 392.988 49.1 392.528 49.1ZM398.984 49.1C398.298 49.1 397.768 48.91 397.394 48.53C397.028 48.15 396.844 47.6333 396.844 46.98V41.7H397.834V46.98C397.834 47.3667 397.928 47.67 398.114 47.89C398.308 48.11 398.598 48.22 398.984 48.22C399.364 48.22 399.651 48.11 399.844 47.89C400.044 47.67 400.144 47.3667 400.144 46.98V41.7H401.134V46.98C401.134 47.64 400.948 48.16 400.574 48.54C400.208 48.9133 399.678 49.1 398.984 49.1ZM403.16 49V41.7H404.56L405.46 44.85L406.4 41.7H407.81V49H406.86V45.65C406.86 45.2967 406.867 44.9067 406.88 44.48C406.894 44.0467 406.91 43.6167 406.93 43.19C406.957 42.7567 406.984 42.3667 407.01 42.02L405.87 45.76H405.03L403.93 42.11C403.99 42.5967 404.034 43.14 404.06 43.74C404.087 44.3333 404.1 44.97 404.1 45.65V49H403.16ZM409.947 49V41.7H414.197V42.59H410.927V44.76H413.847V45.62H410.927V48.11H414.197V49H409.947ZM416.363 49V41.7H418.623C419.069 41.7 419.459 41.79 419.793 41.97C420.126 42.1433 420.386 42.39 420.573 42.71C420.759 43.0233 420.853 43.3933 420.853 43.82C420.853 44.3133 420.726 44.7367 420.473 45.09C420.226 45.4433 419.896 45.6933 419.483 45.84L420.953 49H419.863L418.473 45.95H417.343V49H416.363ZM417.343 45.07H418.623C418.996 45.07 419.289 44.9567 419.503 44.73C419.723 44.5033 419.833 44.2033 419.833 43.83C419.833 43.45 419.723 43.1467 419.503 42.92C419.283 42.6933 418.989 42.58 418.623 42.58H417.343V45.07Z" fill="#ECEEEC"/>
</g>
<g filter="url(#filter4_ddii_3827_3858)">
<path d="M362 78.8C362 74.3196 362 72.0794 362.872 70.3681C363.639 68.8628 364.863 67.6389 366.368 66.8719C368.079 66 370.32 66 374.8 66H509.2C513.68 66 515.921 66 517.632 66.8719C519.137 67.6389 520.361 68.8628 521.128 70.3681C522 72.0794 522 74.3196 522 78.8V79.2C522 83.6804 522 85.9206 521.128 87.6319C520.361 89.1372 519.137 90.3611 517.632 91.1281C515.921 92 513.68 92 509.2 92H374.8C370.32 92 368.079 92 366.368 91.1281C364.863 90.3611 363.639 89.1372 362.872 87.6319C362 85.9206 362 83.6804 362 79.2V78.8Z" fill="#2F312E" shape-rendering="crispEdges"/>
<path d="M373.08 83.1C372.407 83.1 371.87 82.9133 371.47 82.54C371.077 82.16 370.88 81.64 370.88 80.98V77.71C370.88 77.0567 371.077 76.5433 371.47 76.17C371.87 75.79 372.407 75.6 373.08 75.6C373.747 75.6 374.277 75.79 374.67 76.17C375.07 76.55 375.27 77.0633 375.27 77.71H374.28C374.28 77.3167 374.173 77.0133 373.96 76.8C373.747 76.5867 373.453 76.48 373.08 76.48C372.7 76.48 372.403 76.5867 372.19 76.8C371.977 77.0133 371.87 77.3167 371.87 77.71V80.98C371.87 81.38 371.977 81.6867 372.19 81.9C372.403 82.1133 372.7 82.22 373.08 82.22C373.453 82.22 373.747 82.1133 373.96 81.9C374.173 81.6867 374.28 81.38 374.28 80.98H375.27C375.27 81.6333 375.07 82.15 374.67 82.53C374.277 82.91 373.747 83.1 373.08 83.1ZM379.496 83.1C378.829 83.1 378.303 82.9067 377.916 82.52C377.529 82.1333 377.336 81.5867 377.336 80.88V77.81C377.336 77.11 377.529 76.5667 377.916 76.18C378.303 75.7933 378.829 75.6 379.496 75.6C380.163 75.6 380.689 75.7933 381.076 76.18C381.463 76.56 381.656 77.1033 381.656 77.81V80.88C381.656 81.5867 381.463 82.1333 381.076 82.52C380.689 82.9067 380.163 83.1 379.496 83.1ZM379.496 82.22C379.869 82.22 380.156 82.1133 380.356 81.9C380.563 81.6867 380.666 81.38 380.666 80.98V77.71C380.666 77.3167 380.566 77.0133 380.366 76.8C380.166 76.5867 379.876 76.48 379.496 76.48C379.116 76.48 378.826 76.5867 378.626 76.8C378.426 77.0133 378.326 77.3167 378.326 77.71V80.98C378.326 81.38 378.426 81.6867 378.626 81.9C378.833 82.1133 379.123 82.22 379.496 82.22ZM383.852 83V75.7H385.132L387.312 81.86C387.292 81.6867 387.272 81.4733 387.252 81.22C387.239 80.96 387.226 80.6933 387.212 80.42C387.206 80.14 387.202 79.8767 387.202 79.63V75.7H388.142V83H386.852L384.692 76.84C384.706 77.0133 384.719 77.2267 384.732 77.48C384.746 77.7267 384.756 77.9867 384.762 78.26C384.776 78.5333 384.782 78.79 384.782 79.03V83H383.852ZM392.528 83.1C391.808 83.1 391.235 82.9133 390.808 82.54C390.382 82.16 390.168 81.64 390.168 80.98H391.158C391.158 81.3667 391.282 81.67 391.528 81.89C391.775 82.11 392.108 82.22 392.528 82.22C392.928 82.22 393.245 82.11 393.478 81.89C393.718 81.6633 393.838 81.3633 393.838 80.99C393.838 80.71 393.762 80.4667 393.608 80.26C393.455 80.0467 393.238 79.9033 392.958 79.83L391.878 79.54C391.405 79.4067 391.028 79.1667 390.748 78.82C390.475 78.4667 390.338 78.05 390.338 77.57C390.338 77.1767 390.425 76.8333 390.598 76.54C390.778 76.24 391.028 76.01 391.348 75.85C391.668 75.6833 392.038 75.6 392.458 75.6C392.885 75.6 393.258 75.6833 393.578 75.85C393.905 76.01 394.158 76.2367 394.338 76.53C394.518 76.8233 394.608 77.1633 394.608 77.55H393.628C393.628 77.23 393.518 76.97 393.298 76.77C393.085 76.57 392.805 76.47 392.458 76.47C392.112 76.47 391.832 76.57 391.618 76.77C391.412 76.97 391.308 77.23 391.308 77.55C391.308 77.81 391.378 78.03 391.518 78.21C391.658 78.3833 391.855 78.5067 392.108 78.58L393.218 78.88C393.718 79.0133 394.108 79.27 394.388 79.65C394.668 80.0233 394.808 80.47 394.808 80.99C394.808 81.4167 394.715 81.79 394.528 82.11C394.342 82.4233 394.075 82.6667 393.728 82.84C393.388 83.0133 392.988 83.1 392.528 83.1ZM398.984 83.1C398.298 83.1 397.768 82.91 397.394 82.53C397.028 82.15 396.844 81.6333 396.844 80.98V75.7H397.834V80.98C397.834 81.3667 397.928 81.67 398.114 81.89C398.308 82.11 398.598 82.22 398.984 82.22C399.364 82.22 399.651 82.11 399.844 81.89C400.044 81.67 400.144 81.3667 400.144 80.98V75.7H401.134V80.98C401.134 81.64 400.948 82.16 400.574 82.54C400.208 82.9133 399.678 83.1 398.984 83.1ZM403.16 83V75.7H404.56L405.46 78.85L406.4 75.7H407.81V83H406.86V79.65C406.86 79.2967 406.867 78.9067 406.88 78.48C406.894 78.0467 406.91 77.6167 406.93 77.19C406.957 76.7567 406.984 76.3667 407.01 76.02L405.87 79.76H405.03L403.93 76.11C403.99 76.5967 404.034 77.14 404.06 77.74C404.087 78.3333 404.1 78.97 404.1 79.65V83H403.16ZM409.947 83V75.7H414.197V76.59H410.927V78.76H413.847V79.62H410.927V82.11H414.197V83H409.947ZM416.363 83V75.7H418.623C419.069 75.7 419.459 75.79 419.793 75.97C420.126 76.1433 420.386 76.39 420.573 76.71C420.759 77.0233 420.853 77.3933 420.853 77.82C420.853 78.3133 420.726 78.7367 420.473 79.09C420.226 79.4433 419.896 79.6933 419.483 79.84L420.953 83H419.863L418.473 79.95H417.343V83H416.363ZM417.343 79.07H418.623C418.996 79.07 419.289 78.9567 419.503 78.73C419.723 78.5033 419.833 78.2033 419.833 77.83C419.833 77.45 419.723 77.1467 419.503 76.92C419.283 76.6933 418.989 76.58 418.623 76.58H417.343V79.07Z" fill="#ECEEEC"/>
</g>
<g filter="url(#filter5_ddii_3827_3858)">
<path d="M362 112.8C362 108.32 362 106.079 362.872 104.368C363.639 102.863 364.863 101.639 366.368 100.872C368.079 100 370.32 100 374.8 100H509.2C513.68 100 515.921 100 517.632 100.872C519.137 101.639 520.361 102.863 521.128 104.368C522 106.079 522 108.32 522 112.8V113.2C522 117.68 522 119.921 521.128 121.632C520.361 123.137 519.137 124.361 517.632 125.128C515.921 126 513.68 126 509.2 126H374.8C370.32 126 368.079 126 366.368 125.128C364.863 124.361 363.639 123.137 362.872 121.632C362 119.921 362 117.68 362 113.2V112.8Z" fill="#2F312E" shape-rendering="crispEdges"/>
<path d="M373.08 117.1C372.407 117.1 371.87 116.913 371.47 116.54C371.077 116.16 370.88 115.64 370.88 114.98V111.71C370.88 111.057 371.077 110.543 371.47 110.17C371.87 109.79 372.407 109.6 373.08 109.6C373.747 109.6 374.277 109.79 374.67 110.17C375.07 110.55 375.27 111.063 375.27 111.71H374.28C374.28 111.317 374.173 111.013 373.96 110.8C373.747 110.587 373.453 110.48 373.08 110.48C372.7 110.48 372.403 110.587 372.19 110.8C371.977 111.013 371.87 111.317 371.87 111.71V114.98C371.87 115.38 371.977 115.687 372.19 115.9C372.403 116.113 372.7 116.22 373.08 116.22C373.453 116.22 373.747 116.113 373.96 115.9C374.173 115.687 374.28 115.38 374.28 114.98H375.27C375.27 115.633 375.07 116.15 374.67 116.53C374.277 116.91 373.747 117.1 373.08 117.1ZM379.496 117.1C378.829 117.1 378.303 116.907 377.916 116.52C377.529 116.133 377.336 115.587 377.336 114.88V111.81C377.336 111.11 377.529 110.567 377.916 110.18C378.303 109.793 378.829 109.6 379.496 109.6C380.163 109.6 380.689 109.793 381.076 110.18C381.463 110.56 381.656 111.103 381.656 111.81V114.88C381.656 115.587 381.463 116.133 381.076 116.52C380.689 116.907 380.163 117.1 379.496 117.1ZM379.496 116.22C379.869 116.22 380.156 116.113 380.356 115.9C380.563 115.687 380.666 115.38 380.666 114.98V111.71C380.666 111.317 380.566 111.013 380.366 110.8C380.166 110.587 379.876 110.48 379.496 110.48C379.116 110.48 378.826 110.587 378.626 110.8C378.426 111.013 378.326 111.317 378.326 111.71V114.98C378.326 115.38 378.426 115.687 378.626 115.9C378.833 116.113 379.123 116.22 379.496 116.22ZM383.852 117V109.7H385.132L387.312 115.86C387.292 115.687 387.272 115.473 387.252 115.22C387.239 114.96 387.226 114.693 387.212 114.42C387.206 114.14 387.202 113.877 387.202 113.63V109.7H388.142V117H386.852L384.692 110.84C384.706 111.013 384.719 111.227 384.732 111.48C384.746 111.727 384.756 111.987 384.762 112.26C384.776 112.533 384.782 112.79 384.782 113.03V117H383.852ZM392.528 117.1C391.808 117.1 391.235 116.913 390.808 116.54C390.382 116.16 390.168 115.64 390.168 114.98H391.158C391.158 115.367 391.282 115.67 391.528 115.89C391.775 116.11 392.108 116.22 392.528 116.22C392.928 116.22 393.245 116.11 393.478 115.89C393.718 115.663 393.838 115.363 393.838 114.99C393.838 114.71 393.762 114.467 393.608 114.26C393.455 114.047 393.238 113.903 392.958 113.83L391.878 113.54C391.405 113.407 391.028 113.167 390.748 112.82C390.475 112.467 390.338 112.05 390.338 111.57C390.338 111.177 390.425 110.833 390.598 110.54C390.778 110.24 391.028 110.01 391.348 109.85C391.668 109.683 392.038 109.6 392.458 109.6C392.885 109.6 393.258 109.683 393.578 109.85C393.905 110.01 394.158 110.237 394.338 110.53C394.518 110.823 394.608 111.163 394.608 111.55H393.628C393.628 111.23 393.518 110.97 393.298 110.77C393.085 110.57 392.805 110.47 392.458 110.47C392.112 110.47 391.832 110.57 391.618 110.77C391.412 110.97 391.308 111.23 391.308 111.55C391.308 111.81 391.378 112.03 391.518 112.21C391.658 112.383 391.855 112.507 392.108 112.58L393.218 112.88C393.718 113.013 394.108 113.27 394.388 113.65C394.668 114.023 394.808 114.47 394.808 114.99C394.808 115.417 394.715 115.79 394.528 116.11C394.342 116.423 394.075 116.667 393.728 116.84C393.388 117.013 392.988 117.1 392.528 117.1ZM398.984 117.1C398.298 117.1 397.768 116.91 397.394 116.53C397.028 116.15 396.844 115.633 396.844 114.98V109.7H397.834V114.98C397.834 115.367 397.928 115.67 398.114 115.89C398.308 116.11 398.598 116.22 398.984 116.22C399.364 116.22 399.651 116.11 399.844 115.89C400.044 115.67 400.144 115.367 400.144 114.98V109.7H401.134V114.98C401.134 115.64 400.948 116.16 400.574 116.54C400.208 116.913 399.678 117.1 398.984 117.1ZM403.16 117V109.7H404.56L405.46 112.85L406.4 109.7H407.81V117H406.86V113.65C406.86 113.297 406.867 112.907 406.88 112.48C406.894 112.047 406.91 111.617 406.93 111.19C406.957 110.757 406.984 110.367 407.01 110.02L405.87 113.76H405.03L403.93 110.11C403.99 110.597 404.034 111.14 404.06 111.74C404.087 112.333 404.1 112.97 404.1 113.65V117H403.16ZM409.947 117V109.7H414.197V110.59H410.927V112.76H413.847V113.62H410.927V116.11H414.197V117H409.947ZM416.363 117V109.7H418.623C419.069 109.7 419.459 109.79 419.793 109.97C420.126 110.143 420.386 110.39 420.573 110.71C420.759 111.023 420.853 111.393 420.853 111.82C420.853 112.313 420.726 112.737 420.473 113.09C420.226 113.443 419.896 113.693 419.483 113.84L420.953 117H419.863L418.473 113.95H417.343V117H416.363ZM417.343 113.07H418.623C418.996 113.07 419.289 112.957 419.503 112.73C419.723 112.503 419.833 112.203 419.833 111.83C419.833 111.45 419.723 111.147 419.503 110.92C419.283 110.693 418.989 110.58 418.623 110.58H417.343V113.07Z" fill="#ECEEEC"/>
</g>
<path d="M352 41L360 45L352 49V41Z" fill="#AFB5AD"/>
<path d="M352 76L360 80L352 84V76Z" fill="#AFB5AD"/>
<path d="M534.9 59.04C534.9 58.3667 535.087 57.83 535.46 57.43C535.84 57.0367 536.36 56.84 537.02 56.84L540.29 56.84C540.943 56.84 541.457 57.0367 541.83 57.43C542.21 57.83 542.4 58.3667 542.4 59.04C542.4 59.7067 542.21 60.2367 541.83 60.63C541.45 61.03 540.937 61.23 540.29 61.23L540.29 60.24C540.683 60.24 540.987 60.1333 541.2 59.92C541.413 59.7067 541.52 59.4133 541.52 59.04C541.52 58.66 541.413 58.3633 541.2 58.15C540.987 57.9367 540.683 57.83 540.29 57.83L537.02 57.83C536.62 57.83 536.313 57.9367 536.1 58.15C535.887 58.3633 535.78 58.66 535.78 59.04C535.78 59.4133 535.887 59.7067 536.1 59.92C536.313 60.1333 536.62 60.24 537.02 60.24L537.97 60.24L537.97 58.82L538.85 58.82L538.85 61.23L537.02 61.23C536.367 61.23 535.85 61.03 535.47 60.63C535.09 60.2367 534.9 59.7067 534.9 59.04ZM535 63.3861L542.3 63.3861L542.3 65.6461C542.3 66.0928 542.21 66.4828 542.03 66.8161C541.857 67.1494 541.61 67.4094 541.29 67.5961C540.977 67.7828 540.607 67.8761 540.18 67.8761C539.687 67.8761 539.263 67.7494 538.91 67.4961C538.557 67.2494 538.307 66.9194 538.16 66.5061L535 67.9761L535 66.8861L538.05 65.4961L538.05 64.3661L535 64.3661L535 63.3861ZM538.93 64.3661L538.93 65.6461C538.93 66.0194 539.043 66.3128 539.27 66.5261C539.497 66.7461 539.797 66.8561 540.17 66.8561C540.55 66.8561 540.853 66.7461 541.08 66.5261C541.307 66.3061 541.42 66.0128 541.42 65.6461L541.42 64.3661L538.93 64.3661ZM534.9 71.9922C534.9 71.3255 535.093 70.7989 535.48 70.4122C535.867 70.0255 536.413 69.8322 537.12 69.8322L540.19 69.8322C540.89 69.8322 541.433 70.0255 541.82 70.4122C542.207 70.7989 542.4 71.3255 542.4 71.9922C542.4 72.6589 542.207 73.1855 541.82 73.5722C541.44 73.9589 540.897 74.1522 540.19 74.1522L537.12 74.1522C536.413 74.1522 535.867 73.9589 535.48 73.5722C535.093 73.1855 534.9 72.6589 534.9 71.9922ZM535.78 71.9922C535.78 72.3655 535.887 72.6522 536.1 72.8522C536.313 73.0589 536.62 73.1622 537.02 73.1622L540.29 73.1622C540.683 73.1622 540.987 73.0622 541.2 72.8622C541.413 72.6622 541.52 72.3722 541.52 71.9922C541.52 71.6122 541.413 71.3222 541.2 71.1222C540.987 70.9222 540.683 70.8222 540.29 70.8222L537.02 70.8222C536.62 70.8222 536.313 70.9222 536.1 71.1222C535.887 71.3289 535.78 71.6189 535.78 71.9922ZM534.9 78.4883C534.9 77.8016 535.09 77.2716 535.47 76.8983C535.85 76.5316 536.367 76.3483 537.02 76.3483L542.3 76.3483L542.3 77.3383L537.02 77.3383C536.633 77.3383 536.33 77.4316 536.11 77.6183C535.89 77.8116 535.78 78.1016 535.78 78.4883C535.78 78.8683 535.89 79.1549 536.11 79.3483C536.33 79.5483 536.633 79.6483 537.02 79.6483L542.3 79.6483L542.3 80.6383L537.02 80.6383C536.36 80.6383 535.84 80.4516 535.46 80.0783C535.087 79.7116 534.9 79.1816 534.9 78.4883ZM535 82.8644L542.3 82.8644L542.3 85.2344C542.3 85.701 542.21 86.1044 542.03 86.4444C541.85 86.7844 541.597 87.0477 541.27 87.2344C540.95 87.421 540.567 87.5144 540.12 87.5144C539.68 87.5144 539.297 87.421 538.97 87.2344C538.65 87.0477 538.4 86.781 538.22 86.4344C538.04 86.0944 537.95 85.6944 537.95 85.2344L537.95 83.8544L535 83.8544L535 82.8644ZM538.83 83.8544L538.83 85.2344C538.83 85.621 538.947 85.9277 539.18 86.1544C539.42 86.381 539.733 86.4944 540.12 86.4944C540.513 86.4944 540.827 86.381 541.06 86.1544C541.3 85.9277 541.42 85.621 541.42 85.2344L541.42 83.8544L538.83 83.8544Z" fill="#687066"/>
<path d="M535 96.46L542.3 98.35L542.3 99.66L535 101.54L535 100.53L536.9 100.07L536.9 97.93L535 97.47L535 96.46ZM537.72 98.13L537.72 99.87L539.9 99.35C540.3 99.25 540.64 99.17 540.92 99.11C541.2 99.05 541.39 99.0133 541.49 99C541.39 98.9867 541.2 98.95 540.92 98.89C540.64 98.83 540.303 98.7533 539.91 98.66L537.72 98.13Z" fill="#ECEEEC"/>
<path d="M346.5 168C346.5 159.44 353.44 152.5 362 152.5H548C556.56 152.5 563.5 159.44 563.5 168V228C563.5 236.56 556.56 243.5 548 243.5H362C353.44 243.5 346.5 236.56 346.5 228V168Z" stroke="#2F312E"/>
<g filter="url(#filter6_ddii_3827_3858)">
<path d="M362 180.8C362 176.32 362 174.079 362.872 172.368C363.639 170.863 364.863 169.639 366.368 168.872C368.079 168 370.32 168 374.8 168H509.2C513.68 168 515.921 168 517.632 168.872C519.137 169.639 520.361 170.863 521.128 172.368C522 174.079 522 176.32 522 180.8V181.2C522 185.68 522 187.921 521.128 189.632C520.361 191.137 519.137 192.361 517.632 193.128C515.921 194 513.68 194 509.2 194H374.8C370.32 194 368.079 194 366.368 193.128C364.863 192.361 363.639 191.137 362.872 189.632C362 187.921 362 185.68 362 181.2V180.8Z" fill="#2F312E" shape-rendering="crispEdges"/>
<path d="M373.08 185.1C372.407 185.1 371.87 184.913 371.47 184.54C371.077 184.16 370.88 183.64 370.88 182.98V179.71C370.88 179.057 371.077 178.543 371.47 178.17C371.87 177.79 372.407 177.6 373.08 177.6C373.747 177.6 374.277 177.79 374.67 178.17C375.07 178.55 375.27 179.063 375.27 179.71H374.28C374.28 179.317 374.173 179.013 373.96 178.8C373.747 178.587 373.453 178.48 373.08 178.48C372.7 178.48 372.403 178.587 372.19 178.8C371.977 179.013 371.87 179.317 371.87 179.71V182.98C371.87 183.38 371.977 183.687 372.19 183.9C372.403 184.113 372.7 184.22 373.08 184.22C373.453 184.22 373.747 184.113 373.96 183.9C374.173 183.687 374.28 183.38 374.28 182.98H375.27C375.27 183.633 375.07 184.15 374.67 184.53C374.277 184.91 373.747 185.1 373.08 185.1ZM379.496 185.1C378.829 185.1 378.303 184.907 377.916 184.52C377.529 184.133 377.336 183.587 377.336 182.88V179.81C377.336 179.11 377.529 178.567 377.916 178.18C378.303 177.793 378.829 177.6 379.496 177.6C380.163 177.6 380.689 177.793 381.076 178.18C381.463 178.56 381.656 179.103 381.656 179.81V182.88C381.656 183.587 381.463 184.133 381.076 184.52C380.689 184.907 380.163 185.1 379.496 185.1ZM379.496 184.22C379.869 184.22 380.156 184.113 380.356 183.9C380.563 183.687 380.666 183.38 380.666 182.98V179.71C380.666 179.317 380.566 179.013 380.366 178.8C380.166 178.587 379.876 178.48 379.496 178.48C379.116 178.48 378.826 178.587 378.626 178.8C378.426 179.013 378.326 179.317 378.326 179.71V182.98C378.326 183.38 378.426 183.687 378.626 183.9C378.833 184.113 379.123 184.22 379.496 184.22ZM383.852 185V177.7H385.132L387.312 183.86C387.292 183.687 387.272 183.473 387.252 183.22C387.239 182.96 387.226 182.693 387.212 182.42C387.206 182.14 387.202 181.877 387.202 181.63V177.7H388.142V185H386.852L384.692 178.84C384.706 179.013 384.719 179.227 384.732 179.48C384.746 179.727 384.756 179.987 384.762 180.26C384.776 180.533 384.782 180.79 384.782 181.03V185H383.852ZM392.528 185.1C391.808 185.1 391.235 184.913 390.808 184.54C390.382 184.16 390.168 183.64 390.168 182.98H391.158C391.158 183.367 391.282 183.67 391.528 183.89C391.775 184.11 392.108 184.22 392.528 184.22C392.928 184.22 393.245 184.11 393.478 183.89C393.718 183.663 393.838 183.363 393.838 182.99C393.838 182.71 393.762 182.467 393.608 182.26C393.455 182.047 393.238 181.903 392.958 181.83L391.878 181.54C391.405 181.407 391.028 181.167 390.748 180.82C390.475 180.467 390.338 180.05 390.338 179.57C390.338 179.177 390.425 178.833 390.598 178.54C390.778 178.24 391.028 178.01 391.348 177.85C391.668 177.683 392.038 177.6 392.458 177.6C392.885 177.6 393.258 177.683 393.578 177.85C393.905 178.01 394.158 178.237 394.338 178.53C394.518 178.823 394.608 179.163 394.608 179.55H393.628C393.628 179.23 393.518 178.97 393.298 178.77C393.085 178.57 392.805 178.47 392.458 178.47C392.112 178.47 391.832 178.57 391.618 178.77C391.412 178.97 391.308 179.23 391.308 179.55C391.308 179.81 391.378 180.03 391.518 180.21C391.658 180.383 391.855 180.507 392.108 180.58L393.218 180.88C393.718 181.013 394.108 181.27 394.388 181.65C394.668 182.023 394.808 182.47 394.808 182.99C394.808 183.417 394.715 183.79 394.528 184.11C394.342 184.423 394.075 184.667 393.728 184.84C393.388 185.013 392.988 185.1 392.528 185.1ZM398.984 185.1C398.298 185.1 397.768 184.91 397.394 184.53C397.028 184.15 396.844 183.633 396.844 182.98V177.7H397.834V182.98C397.834 183.367 397.928 183.67 398.114 183.89C398.308 184.11 398.598 184.22 398.984 184.22C399.364 184.22 399.651 184.11 399.844 183.89C400.044 183.67 400.144 183.367 400.144 182.98V177.7H401.134V182.98C401.134 183.64 400.948 184.16 400.574 184.54C400.208 184.913 399.678 185.1 398.984 185.1ZM403.16 185V177.7H404.56L405.46 180.85L406.4 177.7H407.81V185H406.86V181.65C406.86 181.297 406.867 180.907 406.88 180.48C406.894 180.047 406.91 179.617 406.93 179.19C406.957 178.757 406.984 178.367 407.01 178.02L405.87 181.76H405.03L403.93 178.11C403.99 178.597 404.034 179.14 404.06 179.74C404.087 180.333 404.1 180.97 404.1 181.65V185H403.16ZM409.947 185V177.7H414.197V178.59H410.927V180.76H413.847V181.62H410.927V184.11H414.197V185H409.947ZM416.363 185V177.7H418.623C419.069 177.7 419.459 177.79 419.793 177.97C420.126 178.143 420.386 178.39 420.573 178.71C420.759 179.023 420.853 179.393 420.853 179.82C420.853 180.313 420.726 180.737 420.473 181.09C420.226 181.443 419.896 181.693 419.483 181.84L420.953 185H419.863L418.473 181.95H417.343V185H416.363ZM417.343 181.07H418.623C418.996 181.07 419.289 180.957 419.503 180.73C419.723 180.503 419.833 180.203 419.833 179.83C419.833 179.45 419.723 179.147 419.503 178.92C419.283 178.693 418.989 178.58 418.623 178.58H417.343V181.07Z" fill="#ECEEEC"/>
</g>
<g filter="url(#filter7_ddii_3827_3858)">
<path d="M362 214.8C362 210.32 362 208.079 362.872 206.368C363.639 204.863 364.863 203.639 366.368 202.872C368.079 202 370.32 202 374.8 202H509.2C513.68 202 515.921 202 517.632 202.872C519.137 203.639 520.361 204.863 521.128 206.368C522 208.079 522 210.32 522 214.8V215.2C522 219.68 522 221.921 521.128 223.632C520.361 225.137 519.137 226.361 517.632 227.128C515.921 228 513.68 228 509.2 228H374.8C370.32 228 368.079 228 366.368 227.128C364.863 226.361 363.639 225.137 362.872 223.632C362 221.921 362 219.68 362 215.2V214.8Z" fill="#2F312E" shape-rendering="crispEdges"/>
<path d="M373.08 219.1C372.407 219.1 371.87 218.913 371.47 218.54C371.077 218.16 370.88 217.64 370.88 216.98V213.71C370.88 213.057 371.077 212.543 371.47 212.17C371.87 211.79 372.407 211.6 373.08 211.6C373.747 211.6 374.277 211.79 374.67 212.17C375.07 212.55 375.27 213.063 375.27 213.71H374.28C374.28 213.317 374.173 213.013 373.96 212.8C373.747 212.587 373.453 212.48 373.08 212.48C372.7 212.48 372.403 212.587 372.19 212.8C371.977 213.013 371.87 213.317 371.87 213.71V216.98C371.87 217.38 371.977 217.687 372.19 217.9C372.403 218.113 372.7 218.22 373.08 218.22C373.453 218.22 373.747 218.113 373.96 217.9C374.173 217.687 374.28 217.38 374.28 216.98H375.27C375.27 217.633 375.07 218.15 374.67 218.53C374.277 218.91 373.747 219.1 373.08 219.1ZM379.496 219.1C378.829 219.1 378.303 218.907 377.916 218.52C377.529 218.133 377.336 217.587 377.336 216.88V213.81C377.336 213.11 377.529 212.567 377.916 212.18C378.303 211.793 378.829 211.6 379.496 211.6C380.163 211.6 380.689 211.793 381.076 212.18C381.463 212.56 381.656 213.103 381.656 213.81V216.88C381.656 217.587 381.463 218.133 381.076 218.52C380.689 218.907 380.163 219.1 379.496 219.1ZM379.496 218.22C379.869 218.22 380.156 218.113 380.356 217.9C380.563 217.687 380.666 217.38 380.666 216.98V213.71C380.666 213.317 380.566 213.013 380.366 212.8C380.166 212.587 379.876 212.48 379.496 212.48C379.116 212.48 378.826 212.587 378.626 212.8C378.426 213.013 378.326 213.317 378.326 213.71V216.98C378.326 217.38 378.426 217.687 378.626 217.9C378.833 218.113 379.123 218.22 379.496 218.22ZM383.852 219V211.7H385.132L387.312 217.86C387.292 217.687 387.272 217.473 387.252 217.22C387.239 216.96 387.226 216.693 387.212 216.42C387.206 216.14 387.202 215.877 387.202 215.63V211.7H388.142V219H386.852L384.692 212.84C384.706 213.013 384.719 213.227 384.732 213.48C384.746 213.727 384.756 213.987 384.762 214.26C384.776 214.533 384.782 214.79 384.782 215.03V219H383.852ZM392.528 219.1C391.808 219.1 391.235 218.913 390.808 218.54C390.382 218.16 390.168 217.64 390.168 216.98H391.158C391.158 217.367 391.282 217.67 391.528 217.89C391.775 218.11 392.108 218.22 392.528 218.22C392.928 218.22 393.245 218.11 393.478 217.89C393.718 217.663 393.838 217.363 393.838 216.99C393.838 216.71 393.762 216.467 393.608 216.26C393.455 216.047 393.238 215.903 392.958 215.83L391.878 215.54C391.405 215.407 391.028 215.167 390.748 214.82C390.475 214.467 390.338 214.05 390.338 213.57C390.338 213.177 390.425 212.833 390.598 212.54C390.778 212.24 391.028 212.01 391.348 211.85C391.668 211.683 392.038 211.6 392.458 211.6C392.885 211.6 393.258 211.683 393.578 211.85C393.905 212.01 394.158 212.237 394.338 212.53C394.518 212.823 394.608 213.163 394.608 213.55H393.628C393.628 213.23 393.518 212.97 393.298 212.77C393.085 212.57 392.805 212.47 392.458 212.47C392.112 212.47 391.832 212.57 391.618 212.77C391.412 212.97 391.308 213.23 391.308 213.55C391.308 213.81 391.378 214.03 391.518 214.21C391.658 214.383 391.855 214.507 392.108 214.58L393.218 214.88C393.718 215.013 394.108 215.27 394.388 215.65C394.668 216.023 394.808 216.47 394.808 216.99C394.808 217.417 394.715 217.79 394.528 218.11C394.342 218.423 394.075 218.667 393.728 218.84C393.388 219.013 392.988 219.1 392.528 219.1ZM398.984 219.1C398.298 219.1 397.768 218.91 397.394 218.53C397.028 218.15 396.844 217.633 396.844 216.98V211.7H397.834V216.98C397.834 217.367 397.928 217.67 398.114 217.89C398.308 218.11 398.598 218.22 398.984 218.22C399.364 218.22 399.651 218.11 399.844 217.89C400.044 217.67 400.144 217.367 400.144 216.98V211.7H401.134V216.98C401.134 217.64 400.948 218.16 400.574 218.54C400.208 218.913 399.678 219.1 398.984 219.1ZM403.16 219V211.7H404.56L405.46 214.85L406.4 211.7H407.81V219H406.86V215.65C406.86 215.297 406.867 214.907 406.88 214.48C406.894 214.047 406.91 213.617 406.93 213.19C406.957 212.757 406.984 212.367 407.01 212.02L405.87 215.76H405.03L403.93 212.11C403.99 212.597 404.034 213.14 404.06 213.74C404.087 214.333 404.1 214.97 404.1 215.65V219H403.16ZM409.947 219V211.7H414.197V212.59H410.927V214.76H413.847V215.62H410.927V218.11H414.197V219H409.947ZM416.363 219V211.7H418.623C419.069 211.7 419.459 211.79 419.793 211.97C420.126 212.143 420.386 212.39 420.573 212.71C420.759 213.023 420.853 213.393 420.853 213.82C420.853 214.313 420.726 214.737 420.473 215.09C420.226 215.443 419.896 215.693 419.483 215.84L420.953 219H419.863L418.473 215.95H417.343V219H416.363ZM417.343 215.07H418.623C418.996 215.07 419.289 214.957 419.503 214.73C419.723 214.503 419.833 214.203 419.833 213.83C419.833 213.45 419.723 213.147 419.503 212.92C419.283 212.693 418.989 212.58 418.623 212.58H417.343V215.07Z" fill="#ECEEEC"/>
</g>
<path d="M352 178L360 182L352 186V178Z" fill="#AFB5AD"/>
<path d="M352 212L360 216L352 220V212Z" fill="#AFB5AD"/>
<path d="M534.9 178.04C534.9 177.367 535.087 176.83 535.46 176.43C535.84 176.037 536.36 175.84 537.02 175.84L540.29 175.84C540.943 175.84 541.457 176.037 541.83 176.43C542.21 176.83 542.4 177.367 542.4 178.04C542.4 178.707 542.21 179.237 541.83 179.63C541.45 180.03 540.937 180.23 540.29 180.23L540.29 179.24C540.683 179.24 540.987 179.133 541.2 178.92C541.413 178.707 541.52 178.413 541.52 178.04C541.52 177.66 541.413 177.363 541.2 177.15C540.987 176.937 540.683 176.83 540.29 176.83L537.02 176.83C536.62 176.83 536.313 176.937 536.1 177.15C535.887 177.363 535.78 177.66 535.78 178.04C535.78 178.413 535.887 178.707 536.1 178.92C536.313 179.133 536.62 179.24 537.02 179.24L537.97 179.24L537.97 177.82L538.85 177.82L538.85 180.23L537.02 180.23C536.367 180.23 535.85 180.03 535.47 179.63C535.09 179.237 534.9 178.707 534.9 178.04ZM535 182.386L542.3 182.386L542.3 184.646C542.3 185.093 542.21 185.483 542.03 185.816C541.857 186.149 541.61 186.409 541.29 186.596C540.977 186.783 540.607 186.876 540.18 186.876C539.687 186.876 539.263 186.749 538.91 186.496C538.557 186.249 538.307 185.919 538.16 185.506L535 186.976L535 185.886L538.05 184.496L538.05 183.366L535 183.366L535 182.386ZM538.93 183.366L538.93 184.646C538.93 185.019 539.043 185.313 539.27 185.526C539.497 185.746 539.797 185.856 540.17 185.856C540.55 185.856 540.853 185.746 541.08 185.526C541.307 185.306 541.42 185.013 541.42 184.646L541.42 183.366L538.93 183.366ZM534.9 190.992C534.9 190.326 535.093 189.799 535.48 189.412C535.867 189.026 536.413 188.832 537.12 188.832L540.19 188.832C540.89 188.832 541.433 189.026 541.82 189.412C542.207 189.799 542.4 190.326 542.4 190.992C542.4 191.659 542.207 192.186 541.82 192.572C541.44 192.959 540.897 193.152 540.19 193.152L537.12 193.152C536.413 193.152 535.867 192.959 535.48 192.572C535.093 192.186 534.9 191.659 534.9 190.992ZM535.78 190.992C535.78 191.366 535.887 191.652 536.1 191.852C536.313 192.059 536.62 192.162 537.02 192.162L540.29 192.162C540.683 192.162 540.987 192.062 541.2 191.862C541.413 191.662 541.52 191.372 541.52 190.992C541.52 190.612 541.413 190.322 541.2 190.122C540.987 189.922 540.683 189.822 540.29 189.822L537.02 189.822C536.62 189.822 536.313 189.922 536.1 190.122C535.887 190.329 535.78 190.619 535.78 190.992ZM534.9 197.488C534.9 196.802 535.09 196.272 535.47 195.898C535.85 195.532 536.367 195.348 537.02 195.348L542.3 195.348L542.3 196.338L537.02 196.338C536.633 196.338 536.33 196.432 536.11 196.618C535.89 196.812 535.78 197.102 535.78 197.488C535.78 197.868 535.89 198.155 536.11 198.348C536.33 198.548 536.633 198.648 537.02 198.648L542.3 198.648L542.3 199.638L537.02 199.638C536.36 199.638 535.84 199.452 535.46 199.078C535.087 198.712 534.9 198.182 534.9 197.488ZM535 201.864L542.3 201.864L542.3 204.234C542.3 204.701 542.21 205.104 542.03 205.444C541.85 205.784 541.597 206.048 541.27 206.234C540.95 206.421 540.567 206.514 540.12 206.514C539.68 206.514 539.297 206.421 538.97 206.234C538.65 206.048 538.4 205.781 538.22 205.434C538.04 205.094 537.95 204.694 537.95 204.234L537.95 202.854L535 202.854L535 201.864ZM538.83 202.854L538.83 204.234C538.83 204.621 538.947 204.928 539.18 205.154C539.42 205.381 539.733 205.494 540.12 205.494C540.513 205.494 540.827 205.381 541.06 205.154C541.3 204.928 541.42 204.621 541.42 204.234L541.42 202.854L538.83 202.854Z" fill="#687066"/>
<path d="M535 215.89L542.3 215.89L542.3 218C542.3 218.673 542.13 219.203 541.79 219.59C541.457 219.983 540.997 220.18 540.41 220.18C540.03 220.18 539.69 220.06 539.39 219.82C539.097 219.587 538.917 219.283 538.85 218.91L538.82 218.91C538.787 219.19 538.687 219.437 538.52 219.65C538.353 219.87 538.14 220.04 537.88 220.16C537.627 220.287 537.347 220.35 537.04 220.35C536.413 220.35 535.917 220.15 535.55 219.75C535.183 219.357 535 218.82 535 218.14L535 215.89ZM539.22 216.86L539.22 217.99C539.22 218.363 539.317 218.657 539.51 218.87C539.71 219.083 539.98 219.19 540.32 219.19C540.667 219.19 540.937 219.083 541.13 218.87C541.33 218.657 541.43 218.367 541.43 218L541.43 216.86L539.22 216.86ZM535.87 216.86L535.87 218.05C535.87 218.457 535.977 218.777 536.19 219.01C536.41 219.243 536.707 219.36 537.08 219.36C537.467 219.36 537.78 219.243 538.02 219.01C538.26 218.777 538.38 218.457 538.38 218.05L538.38 216.86L535.87 216.86Z" fill="#ECEEEC"/>
<path d="M280.333 172C280.333 174.946 277.946 177.333 275 177.333C272.054 177.333 269.667 174.946 269.667 172C269.667 169.054 272.054 166.667 275 166.667C277.946 166.667 280.333 169.054 280.333 172ZM274.249 172.661L251.623 146.95L253.125 145.629L275.751 171.339L274.249 172.661ZM216.34 131H200V129H216.34V131ZM251.623 146.95C242.7 136.811 229.847 131 216.34 131V129C230.421 129 243.822 135.058 253.125 145.629L251.623 146.95Z" fill="url(#paint1_linear_3827_3858)"/>
<defs>
<filter id="filter0_ddii_3827_3858" x="32" y="78" width="176" height="42" filterUnits="userSpaceOnUse" color-interpolation-filters="sRGB">
<feFlood flood-opacity="0" result="BackgroundImageFix"/>
<feColorMatrix in="SourceAlpha" type="matrix" values="0 0 0 0 0 0 0 0 0 0 0 0 0 0 0 0 0 0 127 0" result="hardAlpha"/>
<feOffset dy="1"/>
<feGaussianBlur stdDeviation="1.5"/>
<feComposite in2="hardAlpha" operator="out"/>
<feColorMatrix type="matrix" values="0 0 0 0 0 0 0 0 0 0 0 0 0 0 0 0 0 0 0.5 0"/>
<feBlend mode="normal" in2="BackgroundImageFix" result="effect1_dropShadow_3827_3858"/>
<feColorMatrix in="SourceAlpha" type="matrix" values="0 0 0 0 0 0 0 0 0 0 0 0 0 0 0 0 0 0 127 0" result="hardAlpha"/>
<feOffset dy="3"/>
<feGaussianBlur stdDeviation="4"/>
<feComposite in2="hardAlpha" operator="out"/>
<feColorMatrix type="matrix" values="0 0 0 0 0 0 0 0 0 0 0 0 0 0 0 0 0 0 0.35 0"/>
<feBlend mode="normal" in2="effect1_dropShadow_3827_3858" result="effect2_dropShadow_3827_3858"/>
<feBlend mode="normal" in="SourceGraphic" in2="effect2_dropShadow_3827_3858" result="shape"/>
<feColorMatrix in="SourceAlpha" type="matrix" values="0 0 0 0 0 0 0 0 0 0 0 0 0 0 0 0 0 0 127 0" result="hardAlpha"/>
<feOffset/>
<feGaussianBlur stdDeviation="0.25"/>
<feComposite in2="hardAlpha" operator="arithmetic" k2="-1" k3="1"/>
<feColorMatrix type="matrix" values="0 0 0 0 1 0 0 0 0 1 0 0 0 0 1 0 0 0 0.3 0"/>
<feBlend mode="normal" in2="shape" result="effect3_innerShadow_3827_3858"/>
<feColorMatrix in="SourceAlpha" type="matrix" values="0 0 0 0 0 0 0 0 0 0 0 0 0 0 0 0 0 0 127 0" result="hardAlpha"/>
<feOffset dy="0.5"/>
<feComposite in2="hardAlpha" operator="arithmetic" k2="-1" k3="1"/>
<feColorMatrix type="matrix" values="0 0 0 0 1 0 0 0 0 1 0 0 0 0 1 0 0 0 0.08 0"/>
<feBlend mode="normal" in2="effect3_innerShadow_3827_3858" result="effect4_innerShadow_3827_3858"/>
</filter>
<filter id="filter1_ddii_3827_3858" x="32" y="112" width="176" height="42" filterUnits="userSpaceOnUse" color-interpolation-filters="sRGB">
<feFlood flood-opacity="0" result="BackgroundImageFix"/>
<feColorMatrix in="SourceAlpha" type="matrix" values="0 0 0 0 0 0 0 0 0 0 0 0 0 0 0 0 0 0 127 0" result="hardAlpha"/>
<feOffset dy="1"/>
<feGaussianBlur stdDeviation="1.5"/>
<feComposite in2="hardAlpha" operator="out"/>
<feColorMatrix type="matrix" values="0 0 0 0 0 0 0 0 0 0 0 0 0 0 0 0 0 0 0.5 0"/>
<feBlend mode="normal" in2="BackgroundImageFix" result="effect1_dropShadow_3827_3858"/>
<feColorMatrix in="SourceAlpha" type="matrix" values="0 0 0 0 0 0 0 0 0 0 0 0 0 0 0 0 0 0 127 0" result="hardAlpha"/>
<feOffset dy="3"/>
<feGaussianBlur stdDeviation="4"/>
<feComposite in2="hardAlpha" operator="out"/>
<feColorMatrix type="matrix" values="0 0 0 0 0 0 0 0 0 0 0 0 0 0 0 0 0 0 0.35 0"/>
<feBlend mode="normal" in2="effect1_dropShadow_3827_3858" result="effect2_dropShadow_3827_3858"/>
<feBlend mode="normal" in="SourceGraphic" in2="effect2_dropShadow_3827_3858" result="shape"/>
<feColorMatrix in="SourceAlpha" type="matrix" values="0 0 0 0 0 0 0 0 0 0 0 0 0 0 0 0 0 0 127 0" result="hardAlpha"/>
<feOffset/>
<feGaussianBlur stdDeviation="0.25"/>
<feComposite in2="hardAlpha" operator="arithmetic" k2="-1" k3="1"/>
<feColorMatrix type="matrix" values="0 0 0 0 1 0 0 0 0 1 0 0 0 0 1 0 0 0 0.3 0"/>
<feBlend mode="normal" in2="shape" result="effect3_innerShadow_3827_3858"/>
<feColorMatrix in="SourceAlpha" type="matrix" values="0 0 0 0 0 0 0 0 0 0 0 0 0 0 0 0 0 0 127 0" result="hardAlpha"/>
<feOffset dy="0.5"/>
<feComposite in2="hardAlpha" operator="arithmetic" k2="-1" k3="1"/>
<feColorMatrix type="matrix" values="0 0 0 0 1 0 0 0 0 1 0 0 0 0 1 0 0 0 0.08 0"/>
<feBlend mode="normal" in2="effect3_innerShadow_3827_3858" result="effect4_innerShadow_3827_3858"/>
</filter>
<filter id="filter2_ddii_3827_3858" x="32" y="146" width="176" height="42" filterUnits="userSpaceOnUse" color-interpolation-filters="sRGB">
<feFlood flood-opacity="0" result="BackgroundImageFix"/>
<feColorMatrix in="SourceAlpha" type="matrix" values="0 0 0 0 0 0 0 0 0 0 0 0 0 0 0 0 0 0 127 0" result="hardAlpha"/>
<feOffset dy="1"/>
<feGaussianBlur stdDeviation="1.5"/>
<feComposite in2="hardAlpha" operator="out"/>
<feColorMatrix type="matrix" values="0 0 0 0 0 0 0 0 0 0 0 0 0 0 0 0 0 0 0.5 0"/>
<feBlend mode="normal" in2="BackgroundImageFix" result="effect1_dropShadow_3827_3858"/>
<feColorMatrix in="SourceAlpha" type="matrix" values="0 0 0 0 0 0 0 0 0 0 0 0 0 0 0 0 0 0 127 0" result="hardAlpha"/>
<feOffset dy="3"/>
<feGaussianBlur stdDeviation="4"/>
<feComposite in2="hardAlpha" operator="out"/>
<feColorMatrix type="matrix" values="0 0 0 0 0 0 0 0 0 0 0 0 0 0 0 0 0 0 0.35 0"/>
<feBlend mode="normal" in2="effect1_dropShadow_3827_3858" result="effect2_dropShadow_3827_3858"/>
<feBlend mode="normal" in="SourceGraphic" in2="effect2_dropShadow_3827_3858" result="shape"/>
<feColorMatrix in="SourceAlpha" type="matrix" values="0 0 0 0 0 0 0 0 0 0 0 0 0 0 0 0 0 0 127 0" result="hardAlpha"/>
<feOffset/>
<feGaussianBlur stdDeviation="0.25"/>
<feComposite in2="hardAlpha" operator="arithmetic" k2="-1" k3="1"/>
<feColorMatrix type="matrix" values="0 0 0 0 1 0 0 0 0 1 0 0 0 0 1 0 0 0 0.3 0"/>
<feBlend mode="normal" in2="shape" result="effect3_innerShadow_3827_3858"/>
<feColorMatrix in="SourceAlpha" type="matrix" values="0 0 0 0 0 0 0 0 0 0 0 0 0 0 0 0 0 0 127 0" result="hardAlpha"/>
<feOffset dy="0.5"/>
<feComposite in2="hardAlpha" operator="arithmetic" k2="-1" k3="1"/>
<feColorMatrix type="matrix" values="0 0 0 0 1 0 0 0 0 1 0 0 0 0 1 0 0 0 0.08 0"/>
<feBlend mode="normal" in2="effect3_innerShadow_3827_3858" result="effect4_innerShadow_3827_3858"/>
</filter>
<filter id="filter3_ddii_3827_3858" x="354" y="27" width="176" height="42" filterUnits="userSpaceOnUse" color-interpolation-filters="sRGB">
<feFlood flood-opacity="0" result="BackgroundImageFix"/>
<feColorMatrix in="SourceAlpha" type="matrix" values="0 0 0 0 0 0 0 0 0 0 0 0 0 0 0 0 0 0 127 0" result="hardAlpha"/>
<feOffset dy="1"/>
<feGaussianBlur stdDeviation="1.5"/>
<feComposite in2="hardAlpha" operator="out"/>
<feColorMatrix type="matrix" values="0 0 0 0 0 0 0 0 0 0 0 0 0 0 0 0 0 0 0.5 0"/>
<feBlend mode="normal" in2="BackgroundImageFix" result="effect1_dropShadow_3827_3858"/>
<feColorMatrix in="SourceAlpha" type="matrix" values="0 0 0 0 0 0 0 0 0 0 0 0 0 0 0 0 0 0 127 0" result="hardAlpha"/>
<feOffset dy="3"/>
<feGaussianBlur stdDeviation="4"/>
<feComposite in2="hardAlpha" operator="out"/>
<feColorMatrix type="matrix" values="0 0 0 0 0 0 0 0 0 0 0 0 0 0 0 0 0 0 0.35 0"/>
<feBlend mode="normal" in2="effect1_dropShadow_3827_3858" result="effect2_dropShadow_3827_3858"/>
<feBlend mode="normal" in="SourceGraphic" in2="effect2_dropShadow_3827_3858" result="shape"/>
<feColorMatrix in="SourceAlpha" type="matrix" values="0 0 0 0 0 0 0 0 0 0 0 0 0 0 0 0 0 0 127 0" result="hardAlpha"/>
<feOffset/>
<feGaussianBlur stdDeviation="0.25"/>
<feComposite in2="hardAlpha" operator="arithmetic" k2="-1" k3="1"/>
<feColorMatrix type="matrix" values="0 0 0 0 1 0 0 0 0 1 0 0 0 0 1 0 0 0 0.3 0"/>
<feBlend mode="normal" in2="shape" result="effect3_innerShadow_3827_3858"/>
<feColorMatrix in="SourceAlpha" type="matrix" values="0 0 0 0 0 0 0 0 0 0 0 0 0 0 0 0 0 0 127 0" result="hardAlpha"/>
<feOffset dy="0.5"/>
<feComposite in2="hardAlpha" operator="arithmetic" k2="-1" k3="1"/>
<feColorMatrix type="matrix" values="0 0 0 0 1 0 0 0 0 1 0 0 0 0 1 0 0 0 0.08 0"/>
<feBlend mode="normal" in2="effect3_innerShadow_3827_3858" result="effect4_innerShadow_3827_3858"/>
</filter>
<filter id="filter4_ddii_3827_3858" x="354" y="61" width="176" height="42" filterUnits="userSpaceOnUse" color-interpolation-filters="sRGB">
<feFlood flood-opacity="0" result="BackgroundImageFix"/>
<feColorMatrix in="SourceAlpha" type="matrix" values="0 0 0 0 0 0 0 0 0 0 0 0 0 0 0 0 0 0 127 0" result="hardAlpha"/>
<feOffset dy="1"/>
<feGaussianBlur stdDeviation="1.5"/>
<feComposite in2="hardAlpha" operator="out"/>
<feColorMatrix type="matrix" values="0 0 0 0 0 0 0 0 0 0 0 0 0 0 0 0 0 0 0.5 0"/>
<feBlend mode="normal" in2="BackgroundImageFix" result="effect1_dropShadow_3827_3858"/>
<feColorMatrix in="SourceAlpha" type="matrix" values="0 0 0 0 0 0 0 0 0 0 0 0 0 0 0 0 0 0 127 0" result="hardAlpha"/>
<feOffset dy="3"/>
<feGaussianBlur stdDeviation="4"/>
<feComposite in2="hardAlpha" operator="out"/>
<feColorMatrix type="matrix" values="0 0 0 0 0 0 0 0 0 0 0 0 0 0 0 0 0 0 0.35 0"/>
<feBlend mode="normal" in2="effect1_dropShadow_3827_3858" result="effect2_dropShadow_3827_3858"/>
<feBlend mode="normal" in="SourceGraphic" in2="effect2_dropShadow_3827_3858" result="shape"/>
<feColorMatrix in="SourceAlpha" type="matrix" values="0 0 0 0 0 0 0 0 0 0 0 0 0 0 0 0 0 0 127 0" result="hardAlpha"/>
<feOffset/>
<feGaussianBlur stdDeviation="0.25"/>
<feComposite in2="hardAlpha" operator="arithmetic" k2="-1" k3="1"/>
<feColorMatrix type="matrix" values="0 0 0 0 1 0 0 0 0 1 0 0 0 0 1 0 0 0 0.3 0"/>
<feBlend mode="normal" in2="shape" result="effect3_innerShadow_3827_3858"/>
<feColorMatrix in="SourceAlpha" type="matrix" values="0 0 0 0 0 0 0 0 0 0 0 0 0 0 0 0 0 0 127 0" result="hardAlpha"/>
<feOffset dy="0.5"/>
<feComposite in2="hardAlpha" operator="arithmetic" k2="-1" k3="1"/>
<feColorMatrix type="matrix" values="0 0 0 0 1 0 0 0 0 1 0 0 0 0 1 0 0 0 0.08 0"/>
<feBlend mode="normal" in2="effect3_innerShadow_3827_3858" result="effect4_innerShadow_3827_3858"/>
</filter>
<filter id="filter5_ddii_3827_3858" x="354" y="95" width="176" height="42" filterUnits="userSpaceOnUse" color-interpolation-filters="sRGB">
<feFlood flood-opacity="0" result="BackgroundImageFix"/>
<feColorMatrix in="SourceAlpha" type="matrix" values="0 0 0 0 0 0 0 0 0 0 0 0 0 0 0 0 0 0 127 0" result="hardAlpha"/>
<feOffset dy="1"/>
<feGaussianBlur stdDeviation="1.5"/>
<feComposite in2="hardAlpha" operator="out"/>
<feColorMatrix type="matrix" values="0 0 0 0 0 0 0 0 0 0 0 0 0 0 0 0 0 0 0.5 0"/>
<feBlend mode="normal" in2="BackgroundImageFix" result="effect1_dropShadow_3827_3858"/>
<feColorMatrix in="SourceAlpha" type="matrix" values="0 0 0 0 0 0 0 0 0 0 0 0 0 0 0 0 0 0 127 0" result="hardAlpha"/>
<feOffset dy="3"/>
<feGaussianBlur stdDeviation="4"/>
<feComposite in2="hardAlpha" operator="out"/>
<feColorMatrix type="matrix" values="0 0 0 0 0 0 0 0 0 0 0 0 0 0 0 0 0 0 0.35 0"/>
<feBlend mode="normal" in2="effect1_dropShadow_3827_3858" result="effect2_dropShadow_3827_3858"/>
<feBlend mode="normal" in="SourceGraphic" in2="effect2_dropShadow_3827_3858" result="shape"/>
<feColorMatrix in="SourceAlpha" type="matrix" values="0 0 0 0 0 0 0 0 0 0 0 0 0 0 0 0 0 0 127 0" result="hardAlpha"/>
<feOffset/>
<feGaussianBlur stdDeviation="0.25"/>
<feComposite in2="hardAlpha" operator="arithmetic" k2="-1" k3="1"/>
<feColorMatrix type="matrix" values="0 0 0 0 1 0 0 0 0 1 0 0 0 0 1 0 0 0 0.3 0"/>
<feBlend mode="normal" in2="shape" result="effect3_innerShadow_3827_3858"/>
<feColorMatrix in="SourceAlpha" type="matrix" values="0 0 0 0 0 0 0 0 0 0 0 0 0 0 0 0 0 0 127 0" result="hardAlpha"/>
<feOffset dy="0.5"/>
<feComposite in2="hardAlpha" operator="arithmetic" k2="-1" k3="1"/>
<feColorMatrix type="matrix" values="0 0 0 0 1 0 0 0 0 1 0 0 0 0 1 0 0 0 0.08 0"/>
<feBlend mode="normal" in2="effect3_innerShadow_3827_3858" result="effect4_innerShadow_3827_3858"/>
</filter>
<filter id="filter6_ddii_3827_3858" x="354" y="163" width="176" height="42" filterUnits="userSpaceOnUse" color-interpolation-filters="sRGB">
<feFlood flood-opacity="0" result="BackgroundImageFix"/>
<feColorMatrix in="SourceAlpha" type="matrix" values="0 0 0 0 0 0 0 0 0 0 0 0 0 0 0 0 0 0 127 0" result="hardAlpha"/>
<feOffset dy="1"/>
<feGaussianBlur stdDeviation="1.5"/>
<feComposite in2="hardAlpha" operator="out"/>
<feColorMatrix type="matrix" values="0 0 0 0 0 0 0 0 0 0 0 0 0 0 0 0 0 0 0.5 0"/>
<feBlend mode="normal" in2="BackgroundImageFix" result="effect1_dropShadow_3827_3858"/>
<feColorMatrix in="SourceAlpha" type="matrix" values="0 0 0 0 0 0 0 0 0 0 0 0 0 0 0 0 0 0 127 0" result="hardAlpha"/>
<feOffset dy="3"/>
<feGaussianBlur stdDeviation="4"/>
<feComposite in2="hardAlpha" operator="out"/>
<feColorMatrix type="matrix" values="0 0 0 0 0 0 0 0 0 0 0 0 0 0 0 0 0 0 0.35 0"/>
<feBlend mode="normal" in2="effect1_dropShadow_3827_3858" result="effect2_dropShadow_3827_3858"/>
<feBlend mode="normal" in="SourceGraphic" in2="effect2_dropShadow_3827_3858" result="shape"/>
<feColorMatrix in="SourceAlpha" type="matrix" values="0 0 0 0 0 0 0 0 0 0 0 0 0 0 0 0 0 0 127 0" result="hardAlpha"/>
<feOffset/>
<feGaussianBlur stdDeviation="0.25"/>
<feComposite in2="hardAlpha" operator="arithmetic" k2="-1" k3="1"/>
<feColorMatrix type="matrix" values="0 0 0 0 1 0 0 0 0 1 0 0 0 0 1 0 0 0 0.3 0"/>
<feBlend mode="normal" in2="shape" result="effect3_innerShadow_3827_3858"/>
<feColorMatrix in="SourceAlpha" type="matrix" values="0 0 0 0 0 0 0 0 0 0 0 0 0 0 0 0 0 0 127 0" result="hardAlpha"/>
<feOffset dy="0.5"/>
<feComposite in2="hardAlpha" operator="arithmetic" k2="-1" k3="1"/>
<feColorMatrix type="matrix" values="0 0 0 0 1 0 0 0 0 1 0 0 0 0 1 0 0 0 0.08 0"/>
<feBlend mode="normal" in2="effect3_innerShadow_3827_3858" result="effect4_innerShadow_3827_3858"/>
</filter>
<filter id="filter7_ddii_3827_3858" x="354" y="197" width="176" height="42" filterUnits="userSpaceOnUse" color-interpolation-filters="sRGB">
<feFlood flood-opacity="0" result="BackgroundImageFix"/>
<feColorMatrix in="SourceAlpha" type="matrix" values="0 0 0 0 0 0 0 0 0 0 0 0 0 0 0 0 0 0 127 0" result="hardAlpha"/>
<feOffset dy="1"/>
<feGaussianBlur stdDeviation="1.5"/>
<feComposite in2="hardAlpha" operator="out"/>
<feColorMatrix type="matrix" values="0 0 0 0 0 0 0 0 0 0 0 0 0 0 0 0 0 0 0.5 0"/>
<feBlend mode="normal" in2="BackgroundImageFix" result="effect1_dropShadow_3827_3858"/>
<feColorMatrix in="SourceAlpha" type="matrix" values="0 0 0 0 0 0 0 0 0 0 0 0 0 0 0 0 0 0 127 0" result="hardAlpha"/>
<feOffset dy="3"/>
<feGaussianBlur stdDeviation="4"/>
<feComposite in2="hardAlpha" operator="out"/>
<feColorMatrix type="matrix" values="0 0 0 0 0 0 0 0 0 0 0 0 0 0 0 0 0 0 0.35 0"/>
<feBlend mode="normal" in2="effect1_dropShadow_3827_3858" result="effect2_dropShadow_3827_3858"/>
<feBlend mode="normal" in="SourceGraphic" in2="effect2_dropShadow_3827_3858" result="shape"/>
<feColorMatrix in="SourceAlpha" type="matrix" values="0 0 0 0 0 0 0 0 0 0 0 0 0 0 0 0 0 0 127 0" result="hardAlpha"/>
<feOffset/>
<feGaussianBlur stdDeviation="0.25"/>
<feComposite in2="hardAlpha" operator="arithmetic" k2="-1" k3="1"/>
<feColorMatrix type="matrix" values="0 0 0 0 1 0 0 0 0 1 0 0 0 0 1 0 0 0 0.3 0"/>
<feBlend mode="normal" in2="shape" result="effect3_innerShadow_3827_3858"/>
<feColorMatrix in="SourceAlpha" type="matrix" values="0 0 0 0 0 0 0 0 0 0 0 0 0 0 0 0 0 0 127 0" result="hardAlpha"/>
<feOffset dy="0.5"/>
<feComposite in2="hardAlpha" operator="arithmetic" k2="-1" k3="1"/>
<feColorMatrix type="matrix" values="0 0 0 0 1 0 0 0 0 1 0 0 0 0 1 0 0 0 0.08 0"/>
<feBlend mode="normal" in2="effect3_innerShadow_3827_3858" result="effect4_innerShadow_3827_3858"/>
</filter>
<linearGradient id="paint0_linear_3827_3858" x1="200" y1="106.002" x2="281.813" y2="106.002" gradientUnits="userSpaceOnUse">
<stop stop-color="#E9FFCC" stop-opacity="0"/>
<stop offset="1" stop-color="#BCFE68"/>
</linearGradient>
<linearGradient id="paint1_linear_3827_3858" x1="200" y1="171.997" x2="282.362" y2="171.997" gradientUnits="userSpaceOnUse">
<stop stop-color="#E9FFCC" stop-opacity="0"/>
<stop offset="1" stop-color="#BCFE68"/>
</linearGradient>
</defs>
</svg>
