<svg width="600" height="260" viewBox="0 0 600 260" fill="none" xmlns="http://www.w3.org/2000/svg">
<g clip-path="url(#clip0_3827_4015)">
<path d="M103.994 1.31836H102.922V-2.45508H103.994V1.31836ZM106.285 1.31836H105.207V-2.45508H106.285V1.31836ZM109.707 1.35938C109.707 0.257812 110.645 -0.480469 112.045 -0.480469C113.369 -0.480469 114.266 0.181641 114.383 1.24219H113.422C113.305 0.685547 112.771 0.345703 112.027 0.345703C111.219 0.345703 110.697 0.720703 110.697 1.30078C110.697 1.78711 111.025 2.0625 111.822 2.23828L112.719 2.44336C113.955 2.72461 114.518 3.26367 114.518 4.18359C114.518 5.35547 113.539 6.11719 112.033 6.11719C110.592 6.11719 109.637 5.44336 109.525 4.35352H110.539C110.686 4.93945 111.248 5.2793 112.068 5.2793C112.936 5.2793 113.486 4.88672 113.486 4.27734C113.486 3.77344 113.176 3.50391 112.367 3.32227L111.424 3.10547C110.275 2.8418 109.707 2.26172 109.707 1.35938ZM119.439 6.11719C117.758 6.11719 116.686 5.02148 116.686 3.30469V2.34375C116.686 0.626953 117.758 -0.46875 119.439 -0.46875C121.121 -0.46875 122.193 0.626953 122.193 2.34375V3.30469C122.193 5.02148 121.121 6.11719 119.439 6.11719ZM119.439 0.410156C118.35 0.410156 117.67 1.18359 117.67 2.43164V3.21094C117.67 4.46484 118.35 5.23242 119.439 5.23242C120.529 5.23242 121.209 4.46484 121.209 3.21094V2.43164C121.209 1.18359 120.529 0.410156 119.439 0.410156ZM129.459 -0.357422V6H128.504V4.88086H128.422C128.082 5.67188 127.355 6.11719 126.389 6.11719C125.006 6.11719 124.256 5.29102 124.256 3.76758V-0.357422H125.252V3.51562C125.252 4.66406 125.721 5.20312 126.711 5.20312C127.76 5.20312 128.463 4.4707 128.463 3.38672V-0.357422H129.459ZM134.023 3.15234V5.20312H135.992V6H131.768V5.20312H133.051V0.439453H131.639V-0.357422H134.012V1.26562H134.141C134.375 0.0878906 135.166 -0.521484 136.391 -0.521484C136.754 -0.521484 137.1 -0.46875 137.311 -0.380859V0.738281C137.018 0.632812 136.607 0.5625 136.262 0.5625C134.855 0.5625 134.023 1.53516 134.023 3.15234ZM144.342 1.62305H143.357C143.234 0.878906 142.613 0.410156 141.793 0.410156C140.686 0.410156 140.07 1.16602 140.07 2.53125V3.10547C140.07 4.4707 140.686 5.2207 141.793 5.2207C142.613 5.2207 143.234 4.75781 143.357 4.03125H144.342C144.184 5.32617 143.217 6.11719 141.811 6.11719C140.082 6.11719 139.074 5.05664 139.074 3.23438V2.40234C139.074 0.580078 140.082 -0.480469 141.811 -0.480469C143.217 -0.480469 144.178 0.316406 144.342 1.62305ZM150.828 4.35938H151.795C151.602 5.4082 150.594 6.11719 149.258 6.11719C147.512 6.11719 146.498 5.06836 146.498 3.25781V2.30273C146.498 0.626953 147.57 -0.474609 149.188 -0.474609C150.84 -0.474609 151.812 0.621094 151.812 2.46094V3.08203H147.482V3.33984C147.482 4.50586 148.174 5.25586 149.258 5.25586C150.061 5.25586 150.652 4.91602 150.828 4.35938ZM149.182 0.380859C148.121 0.380859 147.482 1.10742 147.482 2.32617H150.828C150.828 1.11328 150.207 0.380859 149.182 0.380859ZM159.57 7.82812H153.488V6.9668H159.57V7.82812ZM163.303 6.11133C162.09 6.11133 161.281 5.34961 161.281 4.19531C161.281 3.07031 162.09 2.40234 163.537 2.32617L165.283 2.23828V1.66406C165.283 0.867188 164.797 0.427734 163.912 0.427734C163.18 0.427734 162.664 0.738281 162.5 1.2832H161.521C161.639 0.263672 162.623 -0.433594 163.924 -0.433594C165.418 -0.433594 166.273 0.328125 166.273 1.65234V6.00586H165.324V5.05078H165.225C164.92 5.73047 164.229 6.11133 163.303 6.11133ZM163.59 5.23828C164.551 5.23828 165.283 4.59961 165.283 3.75V3L163.648 3.07617C162.758 3.11719 162.289 3.49805 162.289 4.16016C162.289 4.82812 162.787 5.23828 163.59 5.23828ZM174.014 1.62305H173.029C172.906 0.878906 172.285 0.410156 171.465 0.410156C170.357 0.410156 169.742 1.16602 169.742 2.53125V3.10547C169.742 4.4707 170.357 5.2207 171.465 5.2207C172.285 5.2207 172.906 4.75781 173.029 4.03125H174.014C173.855 5.32617 172.889 6.11719 171.482 6.11719C169.754 6.11719 168.746 5.05664 168.746 3.23438V2.40234C168.746 0.580078 169.754 -0.480469 171.482 -0.480469C172.889 -0.480469 173.85 0.316406 174.014 1.62305ZM181.432 1.62305H180.447C180.324 0.878906 179.703 0.410156 178.883 0.410156C177.775 0.410156 177.16 1.16602 177.16 2.53125V3.10547C177.16 4.4707 177.775 5.2207 178.883 5.2207C179.703 5.2207 180.324 4.75781 180.447 4.03125H181.432C181.273 5.32617 180.307 6.11719 178.9 6.11719C177.172 6.11719 176.164 5.05664 176.164 3.23438V2.40234C176.164 0.580078 177.172 -0.480469 178.9 -0.480469C180.307 -0.480469 181.268 0.316406 181.432 1.62305ZM186.201 6.11719C184.52 6.11719 183.447 5.02148 183.447 3.30469V2.34375C183.447 0.626953 184.52 -0.46875 186.201 -0.46875C187.883 -0.46875 188.955 0.626953 188.955 2.34375V3.30469C188.955 5.02148 187.883 6.11719 186.201 6.11719ZM186.201 0.410156C185.111 0.410156 184.432 1.18359 184.432 2.43164V3.21094C184.432 4.46484 185.111 5.23242 186.201 5.23242C187.291 5.23242 187.971 4.46484 187.971 3.21094V2.43164C187.971 1.18359 187.291 0.410156 186.201 0.410156ZM196.221 -0.357422V6H195.266V4.88086H195.184C194.844 5.67188 194.117 6.11719 193.15 6.11719C191.768 6.11719 191.018 5.29102 191.018 3.76758V-0.357422H192.014V3.51562C192.014 4.66406 192.482 5.20312 193.473 5.20312C194.521 5.20312 195.225 4.4707 195.225 3.38672V-0.357422H196.221ZM198.436 6V-0.357422H199.391V0.761719H199.473C199.812 -0.0292969 200.539 -0.474609 201.506 -0.474609C202.889 -0.474609 203.639 0.351562 203.639 1.875V6H202.643V2.12695C202.643 0.978516 202.174 0.439453 201.184 0.439453C200.135 0.439453 199.432 1.17188 199.432 2.25586V6H198.436ZM207.371 -2.0625H208.355V-0.339844H210.934V0.509766H208.367V4.0957C208.367 4.78711 208.854 5.16211 209.75 5.16211C210.107 5.16211 210.746 5.14453 210.916 5.12695V5.9707C210.758 6 209.984 6.0293 209.68 6.0293C208.104 6.0293 207.371 5.43164 207.371 4.10742V0.509766H205.678V-0.339844H207.371V-2.0625ZM215.264 1.31836H214.191V-2.45508H215.264V1.31836ZM217.555 1.31836H216.477V-2.45508H217.555V1.31836ZM223.291 1.53516C222.711 1.53516 222.23 1.04297 222.23 0.451172C222.23 -0.140625 222.711 -0.632812 223.291 -0.632812C223.871 -0.632812 224.352 -0.140625 224.352 0.451172C224.352 1.04297 223.871 1.53516 223.291 1.53516ZM223.291 6.03516C222.711 6.03516 222.23 5.54883 222.23 4.95117C222.23 4.35938 222.711 3.87305 223.291 3.87305C223.871 3.87305 224.352 4.35938 224.352 4.95117C224.352 5.54883 223.871 6.03516 223.291 6.03516Z" fill="#B1E56C"/>
<path d="M126.248 65.3184H125.176V61.5449H126.248V65.3184ZM128.539 65.3184H127.461V61.5449H128.539V65.3184ZM133.877 70.1055C132.406 70.1055 131.445 69.0449 131.445 67.4102V66.2266C131.445 64.5977 132.406 63.5371 133.877 63.5371C134.797 63.5371 135.477 63.9297 135.752 64.627H135.857V61.1465H136.871V70H135.893V69.0273H135.781C135.453 69.7305 134.785 70.1055 133.877 70.1055ZM134.17 69.1973C135.213 69.1973 135.887 68.4473 135.887 67.2695V66.3555C135.887 65.1836 135.213 64.4336 134.17 64.4336C133.121 64.4336 132.447 65.1836 132.447 66.3555V67.2695C132.447 68.4414 133.121 69.1973 134.17 69.1973ZM139.379 65.3594C139.379 64.2578 140.316 63.5195 141.717 63.5195C143.041 63.5195 143.938 64.1816 144.055 65.2422H143.094C142.977 64.6855 142.443 64.3457 141.699 64.3457C140.891 64.3457 140.369 64.7207 140.369 65.3008C140.369 65.7871 140.697 66.0625 141.494 66.2383L142.391 66.4434C143.627 66.7246 144.189 67.2637 144.189 68.1836C144.189 69.3555 143.211 70.1172 141.705 70.1172C140.264 70.1172 139.309 69.4434 139.197 68.3535H140.211C140.357 68.9395 140.92 69.2793 141.74 69.2793C142.607 69.2793 143.158 68.8867 143.158 68.2773C143.158 67.7734 142.848 67.5039 142.039 67.3223L141.096 67.1055C139.947 66.8418 139.379 66.2617 139.379 65.3594ZM148.027 61.9375H149.012V63.6602H151.59V64.5098H149.023V68.0957C149.023 68.7871 149.51 69.1621 150.406 69.1621C150.764 69.1621 151.402 69.1445 151.572 69.127V69.9707C151.414 70 150.641 70.0293 150.336 70.0293C148.76 70.0293 148.027 69.4316 148.027 68.1074V64.5098H146.334V63.6602H148.027V61.9375ZM159.57 71.8281H153.488V70.9668H159.57V71.8281ZM163.303 70.1113C162.09 70.1113 161.281 69.3496 161.281 68.1953C161.281 67.0703 162.09 66.4023 163.537 66.3262L165.283 66.2383V65.6641C165.283 64.8672 164.797 64.4277 163.912 64.4277C163.18 64.4277 162.664 64.7383 162.5 65.2832H161.521C161.639 64.2637 162.623 63.5664 163.924 63.5664C165.418 63.5664 166.273 64.3281 166.273 65.6523V70.0059H165.324V69.0508H165.225C164.92 69.7305 164.229 70.1113 163.303 70.1113ZM163.59 69.2383C164.551 69.2383 165.283 68.5996 165.283 67.75V67L163.648 67.0762C162.758 67.1172 162.289 67.498 162.289 68.1602C162.289 68.8281 162.787 69.2383 163.59 69.2383ZM174.014 65.623H173.029C172.906 64.8789 172.285 64.4102 171.465 64.4102C170.357 64.4102 169.742 65.166 169.742 66.5312V67.1055C169.742 68.4707 170.357 69.2207 171.465 69.2207C172.285 69.2207 172.906 68.7578 173.029 68.0312H174.014C173.855 69.3262 172.889 70.1172 171.482 70.1172C169.754 70.1172 168.746 69.0566 168.746 67.2344V66.4023C168.746 64.5801 169.754 63.5195 171.482 63.5195C172.889 63.5195 173.85 64.3164 174.014 65.623ZM181.432 65.623H180.447C180.324 64.8789 179.703 64.4102 178.883 64.4102C177.775 64.4102 177.16 65.166 177.16 66.5312V67.1055C177.16 68.4707 177.775 69.2207 178.883 69.2207C179.703 69.2207 180.324 68.7578 180.447 68.0312H181.432C181.273 69.3262 180.307 70.1172 178.9 70.1172C177.172 70.1172 176.164 69.0566 176.164 67.2344V66.4023C176.164 64.5801 177.172 63.5195 178.9 63.5195C180.307 63.5195 181.268 64.3164 181.432 65.623ZM186.201 70.1172C184.52 70.1172 183.447 69.0215 183.447 67.3047V66.3438C183.447 64.627 184.52 63.5312 186.201 63.5312C187.883 63.5312 188.955 64.627 188.955 66.3438V67.3047C188.955 69.0215 187.883 70.1172 186.201 70.1172ZM186.201 64.4102C185.111 64.4102 184.432 65.1836 184.432 66.4316V67.2109C184.432 68.4648 185.111 69.2324 186.201 69.2324C187.291 69.2324 187.971 68.4648 187.971 67.2109V66.4316C187.971 65.1836 187.291 64.4102 186.201 64.4102ZM196.221 63.6426V70H195.266V68.8809H195.184C194.844 69.6719 194.117 70.1172 193.15 70.1172C191.768 70.1172 191.018 69.291 191.018 67.7676V63.6426H192.014V67.5156C192.014 68.6641 192.482 69.2031 193.473 69.2031C194.521 69.2031 195.225 68.4707 195.225 67.3867V63.6426H196.221ZM198.436 70V63.6426H199.391V64.7617H199.473C199.812 63.9707 200.539 63.5254 201.506 63.5254C202.889 63.5254 203.639 64.3516 203.639 65.875V70H202.643V66.127C202.643 64.9785 202.174 64.4395 201.184 64.4395C200.135 64.4395 199.432 65.1719 199.432 66.2559V70H198.436ZM207.371 61.9375H208.355V63.6602H210.934V64.5098H208.367V68.0957C208.367 68.7871 208.854 69.1621 209.75 69.1621C210.107 69.1621 210.746 69.1445 210.916 69.127V69.9707C210.758 70 209.984 70.0293 209.68 70.0293C208.104 70.0293 207.371 69.4316 207.371 68.1074V64.5098H205.678V63.6602H207.371V61.9375ZM215.264 65.3184H214.191V61.5449H215.264V65.3184ZM217.555 65.3184H216.477V61.5449H217.555V65.3184ZM223.291 65.5352C222.711 65.5352 222.23 65.043 222.23 64.4512C222.23 63.8594 222.711 63.3672 223.291 63.3672C223.871 63.3672 224.352 63.8594 224.352 64.4512C224.352 65.043 223.871 65.5352 223.291 65.5352ZM223.291 70.0352C222.711 70.0352 222.23 69.5488 222.23 68.9512C222.23 68.3594 222.711 67.873 223.291 67.873C223.871 67.873 224.352 68.3594 224.352 68.9512C224.352 69.5488 223.871 70.0352 223.291 70.0352Z" fill="#B1E56C"/>
<path d="M163.338 129.318H162.266V125.545H163.338V129.318ZM165.629 129.318H164.551V125.545H165.629V129.318ZM170.721 134.111C169.508 134.111 168.699 133.35 168.699 132.195C168.699 131.07 169.508 130.402 170.955 130.326L172.701 130.238V129.664C172.701 128.867 172.215 128.428 171.33 128.428C170.598 128.428 170.082 128.738 169.918 129.283H168.939C169.057 128.264 170.041 127.566 171.342 127.566C172.836 127.566 173.691 128.328 173.691 129.652V134.006H172.742V133.051H172.643C172.338 133.73 171.646 134.111 170.721 134.111ZM171.008 133.238C171.969 133.238 172.701 132.6 172.701 131.75V131L171.066 131.076C170.176 131.117 169.707 131.498 169.707 132.16C169.707 132.828 170.205 133.238 171.008 133.238ZM181.848 129.318V134H180.951V129.611C180.951 128.838 180.67 128.434 180.137 128.434C179.58 128.434 179.24 128.92 179.24 129.711V134H178.35V129.605C178.35 128.838 178.068 128.434 177.529 128.434C176.967 128.434 176.615 128.92 176.615 129.711V134H175.719V127.643H176.609V128.539H176.715C176.873 127.9 177.33 127.525 177.928 127.525C178.525 127.525 178.947 127.895 179.082 128.521H179.188C179.352 127.912 179.861 127.525 180.5 127.525C181.385 127.525 181.848 128.141 181.848 129.318ZM186.201 134.117C184.52 134.117 183.447 133.021 183.447 131.305V130.344C183.447 128.627 184.52 127.531 186.201 127.531C187.883 127.531 188.955 128.627 188.955 130.344V131.305C188.955 133.021 187.883 134.117 186.201 134.117ZM186.201 128.41C185.111 128.41 184.432 129.184 184.432 130.432V131.211C184.432 132.465 185.111 133.232 186.201 133.232C187.291 133.232 187.971 132.465 187.971 131.211V130.432C187.971 129.184 187.291 128.41 186.201 128.41ZM196.221 127.643V134H195.266V132.881H195.184C194.844 133.672 194.117 134.117 193.15 134.117C191.768 134.117 191.018 133.291 191.018 131.768V127.643H192.014V131.516C192.014 132.664 192.482 133.203 193.473 133.203C194.521 133.203 195.225 132.471 195.225 131.387V127.643H196.221ZM198.436 134V127.643H199.391V128.762H199.473C199.812 127.971 200.539 127.525 201.506 127.525C202.889 127.525 203.639 128.352 203.639 129.875V134H202.643V130.127C202.643 128.979 202.174 128.439 201.184 128.439C200.135 128.439 199.432 129.172 199.432 130.256V134H198.436ZM207.371 125.938H208.355V127.66H210.934V128.51H208.367V132.096C208.367 132.787 208.854 133.162 209.75 133.162C210.107 133.162 210.746 133.145 210.916 133.127V133.971C210.758 134 209.984 134.029 209.68 134.029C208.104 134.029 207.371 133.432 207.371 132.107V128.51H205.678V127.66H207.371V125.938ZM215.264 129.318H214.191V125.545H215.264V129.318ZM217.555 129.318H216.477V125.545H217.555V129.318ZM223.291 129.535C222.711 129.535 222.23 129.043 222.23 128.451C222.23 127.859 222.711 127.367 223.291 127.367C223.871 127.367 224.352 127.859 224.352 128.451C224.352 129.043 223.871 129.535 223.291 129.535ZM223.291 134.035C222.711 134.035 222.23 133.549 222.23 132.951C222.23 132.359 222.711 131.873 223.291 131.873C223.871 131.873 224.352 132.359 224.352 132.951C224.352 133.549 223.871 134.035 223.291 134.035Z" fill="#B1E56C"/>
<path d="M148.502 193.318H147.43V189.545H148.502V193.318ZM150.793 193.318H149.715V189.545H150.793V193.318ZM159.178 193.623H158.193C158.07 192.879 157.449 192.41 156.629 192.41C155.521 192.41 154.906 193.166 154.906 194.531V195.105C154.906 196.471 155.521 197.221 156.629 197.221C157.449 197.221 158.07 196.758 158.193 196.031H159.178C159.02 197.326 158.053 198.117 156.646 198.117C154.918 198.117 153.91 197.057 153.91 195.234V194.402C153.91 192.58 154.918 191.52 156.646 191.52C158.053 191.52 159.014 192.316 159.178 193.623ZM166.549 191.643V198H165.594V196.881H165.512C165.172 197.672 164.445 198.117 163.479 198.117C162.096 198.117 161.346 197.291 161.346 195.768V191.643H162.342V195.516C162.342 196.664 162.811 197.203 163.801 197.203C164.85 197.203 165.553 196.471 165.553 195.387V191.643H166.549ZM171.113 195.152V197.203H173.082V198H168.857V197.203H170.141V192.439H168.729V191.643H171.102V193.266H171.23C171.465 192.088 172.256 191.479 173.48 191.479C173.844 191.479 174.189 191.531 174.4 191.619V192.738C174.107 192.633 173.697 192.562 173.352 192.562C171.945 192.562 171.113 193.535 171.113 195.152ZM178.531 195.152V197.203H180.5V198H176.275V197.203H177.559V192.439H176.146V191.643H178.52V193.266H178.648C178.883 192.088 179.674 191.479 180.898 191.479C181.262 191.479 181.607 191.531 181.818 191.619V192.738C181.525 192.633 181.115 192.562 180.77 192.562C179.363 192.562 178.531 193.535 178.531 195.152ZM187.918 196.359H188.885C188.691 197.408 187.684 198.117 186.348 198.117C184.602 198.117 183.588 197.068 183.588 195.258V194.303C183.588 192.627 184.66 191.525 186.277 191.525C187.93 191.525 188.902 192.621 188.902 194.461V195.082H184.572V195.34C184.572 196.506 185.264 197.256 186.348 197.256C187.15 197.256 187.742 196.916 187.918 196.359ZM186.271 192.381C185.211 192.381 184.572 193.107 184.572 194.326H187.918C187.918 193.113 187.297 192.381 186.271 192.381ZM191.018 198V191.643H191.973V192.762H192.055C192.395 191.971 193.121 191.525 194.088 191.525C195.471 191.525 196.221 192.352 196.221 193.875V198H195.225V194.127C195.225 192.979 194.756 192.439 193.766 192.439C192.717 192.439 192.014 193.172 192.014 194.256V198H191.018ZM203.686 193.623H202.701C202.578 192.879 201.957 192.41 201.137 192.41C200.029 192.41 199.414 193.166 199.414 194.531V195.105C199.414 196.471 200.029 197.221 201.137 197.221C201.957 197.221 202.578 196.758 202.701 196.031H203.686C203.527 197.326 202.561 198.117 201.154 198.117C199.426 198.117 198.418 197.057 198.418 195.234V194.402C198.418 192.58 199.426 191.52 201.154 191.52C202.561 191.52 203.521 192.316 203.686 193.623ZM206.674 200.262C206.527 200.262 206.334 200.256 206.246 200.244V199.371C206.322 199.389 206.504 199.395 206.598 199.395C207.195 199.395 207.523 199.125 207.787 198.387L207.898 198.041L205.561 191.643H206.645L208.426 196.963H208.502L210.277 191.643H211.338L208.941 198.234C208.385 199.799 207.852 200.262 206.674 200.262ZM215.264 193.318H214.191V189.545H215.264V193.318ZM217.555 193.318H216.477V189.545H217.555V193.318ZM223.291 193.535C222.711 193.535 222.23 193.043 222.23 192.451C222.23 191.859 222.711 191.367 223.291 191.367C223.871 191.367 224.352 191.859 224.352 192.451C224.352 193.043 223.871 193.535 223.291 193.535ZM223.291 198.035C222.711 198.035 222.23 197.549 222.23 196.951C222.23 196.359 222.711 195.873 223.291 195.873C223.871 195.873 224.352 196.359 224.352 196.951C224.352 197.549 223.871 198.035 223.291 198.035Z" fill="#B1E56C"/>
<path d="M89.1582 257.318H88.0859V253.545H89.1582V257.318ZM91.4492 257.318H90.3711V253.545H91.4492V257.318ZM96.1016 253.938H97.0859V255.66H99.6641V256.51H97.0977V260.096C97.0977 260.787 97.584 261.162 98.4805 261.162C98.8379 261.162 99.4766 261.145 99.6465 261.127V261.971C99.4883 262 98.7148 262.029 98.4102 262.029C96.834 262.029 96.1016 261.432 96.1016 260.107V256.51H94.4082V255.66H96.1016V253.938ZM104.352 259.152V261.203H106.32V262H102.096V261.203H103.379V256.439H101.967V255.643H104.34V257.266H104.469C104.703 256.088 105.494 255.479 106.719 255.479C107.082 255.479 107.428 255.531 107.639 255.619V256.738C107.346 256.633 106.936 256.562 106.59 256.562C105.184 256.562 104.352 257.535 104.352 259.152ZM111.377 262.111C110.164 262.111 109.355 261.35 109.355 260.195C109.355 259.07 110.164 258.402 111.611 258.326L113.357 258.238V257.664C113.357 256.867 112.871 256.428 111.986 256.428C111.254 256.428 110.738 256.738 110.574 257.283H109.596C109.713 256.264 110.697 255.566 111.998 255.566C113.492 255.566 114.348 256.328 114.348 257.652V262.006H113.398V261.051H113.299C112.994 261.73 112.303 262.111 111.377 262.111ZM111.664 261.238C112.625 261.238 113.357 260.6 113.357 259.75V259L111.723 259.076C110.832 259.117 110.363 259.498 110.363 260.16C110.363 260.828 110.861 261.238 111.664 261.238ZM116.838 262V255.643H117.793V256.762H117.875C118.215 255.971 118.941 255.525 119.908 255.525C121.291 255.525 122.041 256.352 122.041 257.875V262H121.045V258.127C121.045 256.979 120.576 256.439 119.586 256.439C118.537 256.439 117.834 257.172 117.834 258.256V262H116.838ZM124.543 257.359C124.543 256.258 125.48 255.52 126.881 255.52C128.205 255.52 129.102 256.182 129.219 257.242H128.258C128.141 256.686 127.607 256.346 126.863 256.346C126.055 256.346 125.533 256.721 125.533 257.301C125.533 257.787 125.861 258.062 126.658 258.238L127.555 258.443C128.791 258.725 129.354 259.264 129.354 260.184C129.354 261.355 128.375 262.117 126.869 262.117C125.428 262.117 124.473 261.443 124.361 260.354H125.375C125.521 260.939 126.084 261.279 126.904 261.279C127.771 261.279 128.322 260.887 128.322 260.277C128.322 259.773 128.012 259.504 127.203 259.322L126.26 259.105C125.111 258.842 124.543 258.262 124.543 257.359ZM133.631 262.111C132.418 262.111 131.609 261.35 131.609 260.195C131.609 259.07 132.418 258.402 133.865 258.326L135.611 258.238V257.664C135.611 256.867 135.125 256.428 134.24 256.428C133.508 256.428 132.992 256.738 132.828 257.283H131.85C131.967 256.264 132.951 255.566 134.252 255.566C135.746 255.566 136.602 256.328 136.602 257.652V262.006H135.652V261.051H135.553C135.248 261.73 134.557 262.111 133.631 262.111ZM133.918 261.238C134.879 261.238 135.611 260.6 135.611 259.75V259L133.977 259.076C133.086 259.117 132.617 259.498 132.617 260.16C132.617 260.828 133.115 261.238 133.918 261.238ZM144.342 257.623H143.357C143.234 256.879 142.613 256.41 141.793 256.41C140.686 256.41 140.07 257.166 140.07 258.531V259.105C140.07 260.471 140.686 261.221 141.793 261.221C142.613 261.221 143.234 260.758 143.357 260.031H144.342C144.184 261.326 143.217 262.117 141.811 262.117C140.082 262.117 139.074 261.057 139.074 259.234V258.402C139.074 256.58 140.082 255.52 141.811 255.52C143.217 255.52 144.178 256.316 144.342 257.623ZM148.027 253.938H149.012V255.66H151.59V256.51H149.023V260.096C149.023 260.787 149.51 261.162 150.406 261.162C150.764 261.162 151.402 261.145 151.572 261.127V261.971C151.414 262 150.641 262.029 150.336 262.029C148.76 262.029 148.027 261.432 148.027 260.107V256.51H146.334V255.66H148.027V253.938ZM156.641 254.084C156.172 254.084 155.814 253.732 155.814 253.264C155.814 252.801 156.172 252.449 156.641 252.449C157.109 252.449 157.467 252.801 157.467 253.264C157.467 253.732 157.109 254.084 156.641 254.084ZM159.307 262H154.039V261.174H156.219V256.469H154.057V255.643H157.203V261.174H159.307V262ZM163.947 262.117C162.266 262.117 161.193 261.021 161.193 259.305V258.344C161.193 256.627 162.266 255.531 163.947 255.531C165.629 255.531 166.701 256.627 166.701 258.344V259.305C166.701 261.021 165.629 262.117 163.947 262.117ZM163.947 256.41C162.857 256.41 162.178 257.184 162.178 258.432V259.211C162.178 260.465 162.857 261.232 163.947 261.232C165.037 261.232 165.717 260.465 165.717 259.211V258.432C165.717 257.184 165.037 256.41 163.947 256.41ZM168.764 262V255.643H169.719V256.762H169.801C170.141 255.971 170.867 255.525 171.834 255.525C173.217 255.525 173.967 256.352 173.967 257.875V262H172.971V258.127C172.971 256.979 172.502 256.439 171.512 256.439C170.463 256.439 169.76 257.172 169.76 258.256V262H168.764ZM181.824 263.828H175.742V262.967H181.824V263.828ZM185.803 262.105C184.332 262.105 183.371 261.045 183.371 259.41V258.227C183.371 256.598 184.332 255.537 185.803 255.537C186.723 255.537 187.402 255.93 187.678 256.627H187.783V253.146H188.797V262H187.818V261.027H187.707C187.379 261.73 186.711 262.105 185.803 262.105ZM186.096 261.197C187.139 261.197 187.812 260.447 187.812 259.27V258.355C187.812 257.184 187.139 256.434 186.096 256.434C185.047 256.434 184.373 257.184 184.373 258.355V259.27C184.373 260.441 185.047 261.197 186.096 261.197ZM192.975 262.111C191.762 262.111 190.953 261.35 190.953 260.195C190.953 259.07 191.762 258.402 193.209 258.326L194.955 258.238V257.664C194.955 256.867 194.469 256.428 193.584 256.428C192.852 256.428 192.336 256.738 192.172 257.283H191.193C191.311 256.264 192.295 255.566 193.596 255.566C195.09 255.566 195.945 256.328 195.945 257.652V262.006H194.996V261.051H194.896C194.592 261.73 193.9 262.111 192.975 262.111ZM193.262 261.238C194.223 261.238 194.955 260.6 194.955 259.75V259L193.32 259.076C192.43 259.117 191.961 259.498 191.961 260.16C191.961 260.828 192.459 261.238 193.262 261.238ZM199.953 253.938H200.938V255.66H203.516V256.51H200.949V260.096C200.949 260.787 201.436 261.162 202.332 261.162C202.689 261.162 203.328 261.145 203.498 261.127V261.971C203.34 262 202.566 262.029 202.262 262.029C200.686 262.029 199.953 261.432 199.953 260.107V256.51H198.26V255.66H199.953V253.938ZM210.172 260.359H211.139C210.945 261.408 209.938 262.117 208.602 262.117C206.855 262.117 205.842 261.068 205.842 259.258V258.303C205.842 256.627 206.914 255.525 208.531 255.525C210.184 255.525 211.156 256.621 211.156 258.461V259.082H206.826V259.34C206.826 260.506 207.518 261.256 208.602 261.256C209.404 261.256 209.996 260.916 210.172 260.359ZM208.525 256.381C207.465 256.381 206.826 257.107 206.826 258.326H210.172C210.172 257.113 209.551 256.381 208.525 256.381ZM215.264 257.318H214.191V253.545H215.264V257.318ZM217.555 257.318H216.477V253.545H217.555V257.318ZM223.291 257.535C222.711 257.535 222.23 257.043 222.23 256.451C222.23 255.859 222.711 255.367 223.291 255.367C223.871 255.367 224.352 255.859 224.352 256.451C224.352 257.043 223.871 257.535 223.291 257.535ZM223.291 262.035C222.711 262.035 222.23 261.549 222.23 260.951C222.23 260.359 222.711 259.873 223.291 259.873C223.871 259.873 224.352 260.359 224.352 260.951C224.352 261.549 223.871 262.035 223.291 262.035Z" fill="#B1E56C"/>
<path d="M247.667 1.99996C247.667 1.99996 250.334 -3.33337 255 -3.33337C259.667 -3.33337 262.334 1.99996 262.334 1.99996C262.334 1.99996 259.667 7.33329 255 7.33329C250.334 7.33329 247.667 1.99996 247.667 1.99996Z" stroke="#5C625B" stroke-linecap="round" stroke-linejoin="round"/>
<path d="M255 4C256.105 4 257 3.10457 257 2C257 0.895431 256.105 0 255 0C253.895 0 253 0.895431 253 2C253 3.10457 253.895 4 255 4Z" stroke="#5C625B" stroke-linecap="round" stroke-linejoin="round"/>
<path d="M247.667 66C247.667 66 250.334 60.6666 255 60.6666C259.667 60.6666 262.334 66 262.334 66C262.334 66 259.667 71.3333 255 71.3333C250.334 71.3333 247.667 66 247.667 66Z" stroke="#5C625B" stroke-linecap="round" stroke-linejoin="round"/>
<path d="M255 68C256.105 68 257 67.1046 257 66C257 64.8954 256.105 64 255 64C253.895 64 253 64.8954 253 66C253 67.1046 253.895 68 255 68Z" stroke="#5C625B" stroke-linecap="round" stroke-linejoin="round"/>
<g clip-path="url(#clip1_3827_4015)">
<path d="M258.96 133.96C257.821 134.829 256.433 135.31 255 135.333C250.334 135.333 247.667 130 247.667 130C248.496 128.455 249.646 127.104 251.04 126.04M253.6 124.827C254.059 124.719 254.529 124.666 255 124.667C259.667 124.667 262.334 130 262.334 130C261.929 130.757 261.446 131.47 260.894 132.127M256.414 131.413C256.231 131.61 256.01 131.767 255.764 131.877C255.519 131.986 255.254 132.045 254.986 132.05C254.717 132.054 254.45 132.005 254.201 131.904C253.952 131.804 253.726 131.654 253.536 131.464C253.346 131.274 253.197 131.048 253.096 130.799C252.995 130.55 252.946 130.283 252.951 130.015C252.955 129.746 253.014 129.481 253.124 129.236C253.233 128.991 253.39 128.77 253.587 128.587" stroke="#BAF271" stroke-linecap="round" stroke-linejoin="round"/>
<path d="M247.667 122.667L262.334 137.333" stroke="#BAF271" stroke-linecap="round" stroke-linejoin="round"/>
</g>
<path d="M247.667 194C247.667 194 250.334 188.667 255 188.667C259.667 188.667 262.334 194 262.334 194C262.334 194 259.667 199.333 255 199.333C250.334 199.333 247.667 194 247.667 194Z" stroke="#5C625B" stroke-linecap="round" stroke-linejoin="round"/>
<path d="M255 196C256.105 196 257 195.105 257 194C257 192.895 256.105 192 255 192C253.895 192 253 192.895 253 194C253 195.105 253.895 196 255 196Z" stroke="#5C625B" stroke-linecap="round" stroke-linejoin="round"/>
<path d="M247.667 258C247.667 258 250.334 252.667 255 252.667C259.667 252.667 262.334 258 262.334 258C262.334 258 259.667 263.333 255 263.333C250.334 263.333 247.667 258 247.667 258Z" stroke="#5C625B" stroke-linecap="round" stroke-linejoin="round"/>
<path d="M255 260C256.105 260 257 259.105 257 258C257 256.895 256.105 256 255 256C253.895 256 253 256.895 253 258C253 259.105 253.895 260 255 260Z" stroke="#5C625B" stroke-linecap="round" stroke-linejoin="round"/>
<rect x="283" y="-22" width="231" height="48" rx="8" fill="#2F312E"/>
<path d="M306.1 2.31836H305.027V-1.45508H306.1V2.31836ZM308.391 2.31836H307.312V-1.45508H308.391V2.31836ZM311.205 -1.45508H313.573C315.969 -1.45508 317.176 -0.0429688 317.176 2.75781C317.176 5.58203 315.969 7 313.573 7H311.205V-1.45508ZM312.243 -0.505859V6.05078H313.479C315.272 6.05078 316.121 5.00195 316.121 2.76367C316.121 0.548828 315.266 -0.505859 313.479 -0.505859H312.243ZM323.876 6.05078V7H318.884V-1.45508H323.876V-0.505859H319.921V2.23633H323.659V3.14453H319.921V6.05078H323.876ZM326.486 7L330.323 -0.453125V-0.529297H325.736V-1.45508H331.378V-0.5L327.587 7H326.486ZM335.787 7.19336C333.947 7.19336 332.933 5.62305 332.933 2.77539C332.933 -0.0722656 333.947 -1.64258 335.787 -1.64258C337.621 -1.64258 338.64 -0.0722656 338.64 2.77539C338.64 5.62305 337.621 7.19336 335.787 7.19336ZM333.959 2.77539C333.959 3.10938 333.976 3.41992 334 3.70703L337.41 0.859375C337.134 -0.189453 336.584 -0.728516 335.787 -0.728516C334.591 -0.728516 333.959 0.478516 333.959 2.77539ZM335.787 6.2793C336.982 6.2793 337.609 5.06641 337.609 2.77539C337.609 2.43555 337.597 2.125 337.568 1.83203L334.17 4.70312C334.445 5.74023 334.99 6.2793 335.787 6.2793ZM341.021 7L344.859 -0.453125V-0.529297H340.271V-1.45508H345.914V-0.5L342.123 7H341.021ZM350.323 7.19336C348.483 7.19336 347.469 5.62305 347.469 2.77539C347.469 -0.0722656 348.483 -1.64258 350.323 -1.64258C352.157 -1.64258 353.176 -0.0722656 353.176 2.77539C353.176 5.62305 352.157 7.19336 350.323 7.19336ZM348.495 2.77539C348.495 3.10938 348.512 3.41992 348.536 3.70703L351.946 0.859375C351.67 -0.189453 351.12 -0.728516 350.323 -0.728516C349.127 -0.728516 348.495 0.478516 348.495 2.77539ZM350.323 6.2793C351.518 6.2793 352.145 5.06641 352.145 2.77539C352.145 2.43555 352.133 2.125 352.104 1.83203L348.705 4.70312C348.981 5.74023 349.526 6.2793 350.323 6.2793ZM357.591 7.19336C355.751 7.19336 354.737 5.62305 354.737 2.77539C354.737 -0.0722656 355.751 -1.64258 357.591 -1.64258C359.425 -1.64258 360.444 -0.0722656 360.444 2.77539C360.444 5.62305 359.425 7.19336 357.591 7.19336ZM355.763 2.77539C355.763 3.10938 355.78 3.41992 355.804 3.70703L359.214 0.859375C358.938 -0.189453 358.388 -0.728516 357.591 -0.728516C356.395 -0.728516 355.763 0.478516 355.763 2.77539ZM357.591 6.2793C358.786 6.2793 359.413 5.06641 359.413 2.77539C359.413 2.43555 359.401 2.125 359.372 1.83203L355.973 4.70312C356.249 5.74023 356.794 6.2793 357.591 6.2793ZM364.782 7.16992C363.206 7.16992 362.093 6.19727 362.005 4.74414H363.001C363.095 5.62891 363.851 6.23828 364.841 6.23828C365.931 6.23828 366.657 5.4707 366.657 4.32227C366.657 3.16211 365.925 2.37695 364.841 2.37695C364.085 2.37695 363.458 2.72266 363.124 3.32031H362.146L362.573 -1.45508H367.196V-0.523438H363.388L363.154 2.23633H363.247C363.663 1.73242 364.267 1.46875 365.011 1.46875C366.575 1.46875 367.665 2.63477 367.665 4.29883C367.665 6.00977 366.499 7.16992 364.782 7.16992ZM372.127 7.19336C370.287 7.19336 369.273 5.62305 369.273 2.77539C369.273 -0.0722656 370.287 -1.64258 372.127 -1.64258C373.961 -1.64258 374.98 -0.0722656 374.98 2.77539C374.98 5.62305 373.961 7.19336 372.127 7.19336ZM370.298 2.77539C370.298 3.10938 370.316 3.41992 370.339 3.70703L373.75 0.859375C373.474 -0.189453 372.923 -0.728516 372.127 -0.728516C370.931 -0.728516 370.298 0.478516 370.298 2.77539ZM372.127 6.2793C373.322 6.2793 373.949 5.06641 373.949 2.77539C373.949 2.43555 373.937 2.125 373.908 1.83203L370.509 4.70312C370.785 5.74023 371.33 6.2793 372.127 6.2793ZM379.395 7.19336C377.555 7.19336 376.541 5.62305 376.541 2.77539C376.541 -0.0722656 377.555 -1.64258 379.395 -1.64258C381.229 -1.64258 382.248 -0.0722656 382.248 2.77539C382.248 5.62305 381.229 7.19336 379.395 7.19336ZM377.566 2.77539C377.566 3.10938 377.584 3.41992 377.607 3.70703L381.018 0.859375C380.742 -0.189453 380.191 -0.728516 379.395 -0.728516C378.199 -0.728516 377.566 0.478516 377.566 2.77539ZM379.395 6.2793C380.59 6.2793 381.217 5.06641 381.217 2.77539C381.217 2.43555 381.205 2.125 381.176 1.83203L377.777 4.70312C378.053 5.74023 378.598 6.2793 379.395 6.2793ZM386.662 7.19336C384.823 7.19336 383.809 5.62305 383.809 2.77539C383.809 -0.0722656 384.823 -1.64258 386.662 -1.64258C388.496 -1.64258 389.516 -0.0722656 389.516 2.77539C389.516 5.62305 388.496 7.19336 386.662 7.19336ZM384.834 2.77539C384.834 3.10938 384.852 3.41992 384.875 3.70703L388.286 0.859375C388.01 -0.189453 387.459 -0.728516 386.662 -0.728516C385.467 -0.728516 384.834 0.478516 384.834 2.77539ZM386.662 6.2793C387.858 6.2793 388.485 5.06641 388.485 2.77539C388.485 2.43555 388.473 2.125 388.444 1.83203L385.045 4.70312C385.321 5.74023 385.866 6.2793 386.662 6.2793ZM393.93 7.19336C392.091 7.19336 391.077 5.62305 391.077 2.77539C391.077 -0.0722656 392.091 -1.64258 393.93 -1.64258C395.764 -1.64258 396.784 -0.0722656 396.784 2.77539C396.784 5.62305 395.764 7.19336 393.93 7.19336ZM392.102 2.77539C392.102 3.10938 392.12 3.41992 392.143 3.70703L395.554 0.859375C395.278 -0.189453 394.727 -0.728516 393.93 -0.728516C392.735 -0.728516 392.102 0.478516 392.102 2.77539ZM393.93 6.2793C395.126 6.2793 395.753 5.06641 395.753 2.77539C395.753 2.43555 395.741 2.125 395.712 1.83203L392.313 4.70312C392.589 5.74023 393.134 6.2793 393.93 6.2793ZM401.198 7.19336C399.359 7.19336 398.345 5.62305 398.345 2.77539C398.345 -0.0722656 399.359 -1.64258 401.198 -1.64258C403.032 -1.64258 404.052 -0.0722656 404.052 2.77539C404.052 5.62305 403.032 7.19336 401.198 7.19336ZM399.37 2.77539C399.37 3.10938 399.388 3.41992 399.411 3.70703L402.821 0.859375C402.546 -0.189453 401.995 -0.728516 401.198 -0.728516C400.003 -0.728516 399.37 0.478516 399.37 2.77539ZM401.198 6.2793C402.394 6.2793 403.021 5.06641 403.021 2.77539C403.021 2.43555 403.009 2.125 402.98 1.83203L399.581 4.70312C399.857 5.74023 400.402 6.2793 401.198 6.2793ZM408.466 7.19336C406.627 7.19336 405.613 5.62305 405.613 2.77539C405.613 -0.0722656 406.627 -1.64258 408.466 -1.64258C410.3 -1.64258 411.32 -0.0722656 411.32 2.77539C411.32 5.62305 410.3 7.19336 408.466 7.19336ZM406.638 2.77539C406.638 3.10938 406.656 3.41992 406.679 3.70703L410.089 0.859375C409.814 -0.189453 409.263 -0.728516 408.466 -0.728516C407.271 -0.728516 406.638 0.478516 406.638 2.77539ZM408.466 6.2793C409.662 6.2793 410.289 5.06641 410.289 2.77539C410.289 2.43555 410.277 2.125 410.248 1.83203L406.849 4.70312C407.125 5.74023 407.67 6.2793 408.466 6.2793ZM415.734 7.19336C413.895 7.19336 412.881 5.62305 412.881 2.77539C412.881 -0.0722656 413.895 -1.64258 415.734 -1.64258C417.568 -1.64258 418.588 -0.0722656 418.588 2.77539C418.588 5.62305 417.568 7.19336 415.734 7.19336ZM413.906 2.77539C413.906 3.10938 413.924 3.41992 413.947 3.70703L417.357 0.859375C417.082 -0.189453 416.531 -0.728516 415.734 -0.728516C414.539 -0.728516 413.906 0.478516 413.906 2.77539ZM415.734 6.2793C416.93 6.2793 417.557 5.06641 417.557 2.77539C417.557 2.43555 417.545 2.125 417.516 1.83203L414.117 4.70312C414.393 5.74023 414.938 6.2793 415.734 6.2793ZM422.926 7.16992C421.35 7.16992 420.237 6.19727 420.149 4.74414H421.145C421.239 5.62891 421.995 6.23828 422.985 6.23828C424.075 6.23828 424.801 5.4707 424.801 4.32227C424.801 3.16211 424.069 2.37695 422.985 2.37695C422.229 2.37695 421.602 2.72266 421.268 3.32031H420.289L420.717 -1.45508H425.34V-0.523438H421.532L421.297 2.23633H421.391C421.807 1.73242 422.411 1.46875 423.155 1.46875C424.719 1.46875 425.809 2.63477 425.809 4.29883C425.809 6.00977 424.643 7.16992 422.926 7.16992ZM433.458 7H427.563V6.0918H430.059V-0.283203H429.966L427.546 1.28125V0.179688L430.065 -1.45508H431.079V6.0918H433.458V7ZM434.644 1.25781C434.644 -0.417969 435.851 -1.63086 437.521 -1.63086C439.191 -1.63086 440.392 -0.429688 440.392 1.25781C440.392 2.21875 440.052 3.11523 439.22 4.32227C439.144 4.45117 437.392 6.91211 437.327 7H436.144L438.446 3.83008C438.64 3.56641 438.681 3.49023 438.734 3.39648L438.646 3.34961C438.394 3.68945 437.796 3.94141 437.263 3.94141C435.751 3.94141 434.644 2.80469 434.644 1.25781ZM437.515 -0.710938C436.454 -0.710938 435.646 0.121094 435.646 1.20508C435.646 2.29492 436.454 3.12695 437.515 3.12695C438.581 3.12695 439.39 2.29492 439.39 1.20508C439.39 0.121094 438.581 -0.710938 437.515 -0.710938ZM443.769 3.08008V2.21289H444.689C445.638 2.21289 446.3 1.5918 446.3 0.707031C446.3 -0.154297 445.668 -0.722656 444.712 -0.722656C443.763 -0.722656 443.13 -0.166016 443.048 0.742188H442.058C442.158 -0.722656 443.189 -1.63086 444.754 -1.63086C446.265 -1.63086 447.343 -0.722656 447.343 0.560547C447.343 1.58008 446.81 2.30664 445.902 2.5293V2.62305C447.027 2.76953 447.695 3.56055 447.695 4.71484C447.695 6.15039 446.488 7.17578 444.8 7.17578C443.13 7.17578 441.97 6.21484 441.894 4.75586H442.873C442.966 5.6582 443.716 6.24414 444.771 6.24414C445.931 6.24414 446.652 5.64648 446.652 4.69141C446.652 3.70703 445.908 3.08008 444.736 3.08008H443.769ZM452.098 7.1875C450.34 7.1875 449.115 6.17969 449.115 4.73828C449.115 3.68945 449.795 2.83398 450.838 2.58203V2.48828C449.988 2.25391 449.455 1.52734 449.455 0.607422C449.455 -0.710938 450.557 -1.64258 452.098 -1.64258C453.639 -1.64258 454.734 -0.710938 454.734 0.607422C454.734 1.52734 454.213 2.24805 453.352 2.48828V2.58203C454.377 2.79883 455.074 3.67188 455.074 4.73828C455.074 6.17969 453.855 7.1875 452.098 7.1875ZM452.098 2.13672C453.076 2.13672 453.721 1.5625 453.721 0.695312C453.721 -0.166016 453.076 -0.740234 452.098 -0.740234C451.119 -0.740234 450.469 -0.166016 450.469 0.695312C450.469 1.5625 451.119 2.13672 452.098 2.13672ZM452.098 6.29102C453.246 6.29102 454.037 5.62305 454.037 4.65625C454.037 3.68945 453.246 3.02148 452.098 3.02148C450.949 3.02148 450.158 3.68945 450.158 4.65625C450.158 5.62305 450.949 6.29102 452.098 6.29102ZM459.366 7.1875C457.608 7.1875 456.383 6.17969 456.383 4.73828C456.383 3.68945 457.063 2.83398 458.106 2.58203V2.48828C457.256 2.25391 456.723 1.52734 456.723 0.607422C456.723 -0.710938 457.825 -1.64258 459.366 -1.64258C460.907 -1.64258 462.002 -0.710938 462.002 0.607422C462.002 1.52734 461.481 2.24805 460.62 2.48828V2.58203C461.645 2.79883 462.342 3.67188 462.342 4.73828C462.342 6.17969 461.123 7.1875 459.366 7.1875ZM459.366 2.13672C460.344 2.13672 460.989 1.5625 460.989 0.695312C460.989 -0.166016 460.344 -0.740234 459.366 -0.740234C458.387 -0.740234 457.737 -0.166016 457.737 0.695312C457.737 1.5625 458.387 2.13672 459.366 2.13672ZM459.366 6.29102C460.514 6.29102 461.305 5.62305 461.305 4.65625C461.305 3.68945 460.514 3.02148 459.366 3.02148C458.217 3.02148 457.426 3.68945 457.426 4.65625C457.426 5.62305 458.217 6.29102 459.366 6.29102ZM469.505 4.28711C469.505 5.96289 468.298 7.17578 466.622 7.17578C464.958 7.17578 463.757 5.96875 463.757 4.28711C463.757 3.29688 464.091 2.40039 464.899 1.22266C464.975 1.09375 466.733 -1.36719 466.792 -1.45508H467.981L465.673 1.71484C465.415 2.07812 465.438 2.05469 465.397 2.14844L465.485 2.19531C465.737 1.85547 466.346 1.60352 466.886 1.60352C468.391 1.60352 469.505 2.74609 469.505 4.28711ZM466.628 6.25586C467.694 6.25586 468.503 5.42383 468.503 4.33984C468.503 3.25 467.694 2.41797 466.628 2.41797C465.567 2.41797 464.759 3.25 464.759 4.33984C464.759 5.42383 465.567 6.25586 466.628 6.25586ZM473.263 2.31836H472.191V-1.45508H473.263V2.31836ZM475.554 2.31836H474.476V-1.45508H475.554V2.31836Z" fill="#F2A3B3"/>
<rect x="283" y="42" width="231" height="48" rx="8" fill="#2F312E"/>
<path d="M306.1 66.3184H305.027V62.5449H306.1V66.3184ZM308.391 66.3184H307.312V62.5449H308.391V66.3184ZM311.205 62.5449H313.573C315.969 62.5449 317.176 63.957 317.176 66.7578C317.176 69.582 315.969 71 313.573 71H311.205V62.5449ZM312.243 63.4941V70.0508H313.479C315.272 70.0508 316.121 69.002 316.121 66.7637C316.121 64.5488 315.266 63.4941 313.479 63.4941H312.243ZM323.876 70.0508V71H318.884V62.5449H323.876V63.4941H319.921V66.2363H323.659V67.1445H319.921V70.0508H323.876ZM328.542 71.1875C326.784 71.1875 325.56 70.1797 325.56 68.7383C325.56 67.6895 326.239 66.834 327.282 66.582V66.4883C326.433 66.2539 325.9 65.5273 325.9 64.6074C325.9 63.2891 327.001 62.3574 328.542 62.3574C330.083 62.3574 331.179 63.2891 331.179 64.6074C331.179 65.5273 330.657 66.248 329.796 66.4883V66.582C330.821 66.7988 331.519 67.6719 331.519 68.7383C331.519 70.1797 330.3 71.1875 328.542 71.1875ZM328.542 66.1367C329.521 66.1367 330.165 65.5625 330.165 64.6953C330.165 63.834 329.521 63.2598 328.542 63.2598C327.564 63.2598 326.913 63.834 326.913 64.6953C326.913 65.5625 327.564 66.1367 328.542 66.1367ZM328.542 70.291C329.691 70.291 330.482 69.623 330.482 68.6562C330.482 67.6895 329.691 67.0215 328.542 67.0215C327.394 67.0215 326.603 67.6895 326.603 68.6562C326.603 69.623 327.394 70.291 328.542 70.291ZM335.81 71.1875C334.052 71.1875 332.828 70.1797 332.828 68.7383C332.828 67.6895 333.507 66.834 334.55 66.582V66.4883C333.701 66.2539 333.168 65.5273 333.168 64.6074C333.168 63.2891 334.269 62.3574 335.81 62.3574C337.351 62.3574 338.447 63.2891 338.447 64.6074C338.447 65.5273 337.925 66.248 337.064 66.4883V66.582C338.089 66.7988 338.787 67.6719 338.787 68.7383C338.787 70.1797 337.568 71.1875 335.81 71.1875ZM335.81 66.1367C336.789 66.1367 337.433 65.5625 337.433 64.6953C337.433 63.834 336.789 63.2598 335.81 63.2598C334.832 63.2598 334.181 63.834 334.181 64.6953C334.181 65.5625 334.832 66.1367 335.81 66.1367ZM335.81 70.291C336.959 70.291 337.75 69.623 337.75 68.6562C337.75 67.6895 336.959 67.0215 335.81 67.0215C334.662 67.0215 333.871 67.6895 333.871 68.6562C333.871 69.623 334.662 70.291 335.81 70.291ZM341.021 71L344.859 63.5469V63.4707H340.271V62.5449H345.914V63.5L342.123 71H341.021ZM350.323 71.1934C348.483 71.1934 347.469 69.623 347.469 66.7754C347.469 63.9277 348.483 62.3574 350.323 62.3574C352.157 62.3574 353.176 63.9277 353.176 66.7754C353.176 69.623 352.157 71.1934 350.323 71.1934ZM348.495 66.7754C348.495 67.1094 348.512 67.4199 348.536 67.707L351.946 64.8594C351.67 63.8105 351.12 63.2715 350.323 63.2715C349.127 63.2715 348.495 64.4785 348.495 66.7754ZM350.323 70.2793C351.518 70.2793 352.145 69.0664 352.145 66.7754C352.145 66.4355 352.133 66.125 352.104 65.832L348.705 68.7031C348.981 69.7402 349.526 70.2793 350.323 70.2793ZM357.591 71.1934C355.751 71.1934 354.737 69.623 354.737 66.7754C354.737 63.9277 355.751 62.3574 357.591 62.3574C359.425 62.3574 360.444 63.9277 360.444 66.7754C360.444 69.623 359.425 71.1934 357.591 71.1934ZM355.763 66.7754C355.763 67.1094 355.78 67.4199 355.804 67.707L359.214 64.8594C358.938 63.8105 358.388 63.2715 357.591 63.2715C356.395 63.2715 355.763 64.4785 355.763 66.7754ZM357.591 70.2793C358.786 70.2793 359.413 69.0664 359.413 66.7754C359.413 66.4355 359.401 66.125 359.372 65.832L355.973 68.7031C356.249 69.7402 356.794 70.2793 357.591 70.2793ZM364.782 71.1699C363.206 71.1699 362.093 70.1973 362.005 68.7441H363.001C363.095 69.6289 363.851 70.2383 364.841 70.2383C365.931 70.2383 366.657 69.4707 366.657 68.3223C366.657 67.1621 365.925 66.377 364.841 66.377C364.085 66.377 363.458 66.7227 363.124 67.3203H362.146L362.573 62.5449H367.196V63.4766H363.388L363.154 66.2363H363.247C363.663 65.7324 364.267 65.4688 365.011 65.4688C366.575 65.4688 367.665 66.6348 367.665 68.2988C367.665 70.0098 366.499 71.1699 364.782 71.1699ZM372.127 71.1934C370.287 71.1934 369.273 69.623 369.273 66.7754C369.273 63.9277 370.287 62.3574 372.127 62.3574C373.961 62.3574 374.98 63.9277 374.98 66.7754C374.98 69.623 373.961 71.1934 372.127 71.1934ZM370.298 66.7754C370.298 67.1094 370.316 67.4199 370.339 67.707L373.75 64.8594C373.474 63.8105 372.923 63.2715 372.127 63.2715C370.931 63.2715 370.298 64.4785 370.298 66.7754ZM372.127 70.2793C373.322 70.2793 373.949 69.0664 373.949 66.7754C373.949 66.4355 373.937 66.125 373.908 65.832L370.509 68.7031C370.785 69.7402 371.33 70.2793 372.127 70.2793ZM379.395 71.1934C377.555 71.1934 376.541 69.623 376.541 66.7754C376.541 63.9277 377.555 62.3574 379.395 62.3574C381.229 62.3574 382.248 63.9277 382.248 66.7754C382.248 69.623 381.229 71.1934 379.395 71.1934ZM377.566 66.7754C377.566 67.1094 377.584 67.4199 377.607 67.707L381.018 64.8594C380.742 63.8105 380.191 63.2715 379.395 63.2715C378.199 63.2715 377.566 64.4785 377.566 66.7754ZM379.395 70.2793C380.59 70.2793 381.217 69.0664 381.217 66.7754C381.217 66.4355 381.205 66.125 381.176 65.832L377.777 68.7031C378.053 69.7402 378.598 70.2793 379.395 70.2793ZM386.662 71.1934C384.823 71.1934 383.809 69.623 383.809 66.7754C383.809 63.9277 384.823 62.3574 386.662 62.3574C388.496 62.3574 389.516 63.9277 389.516 66.7754C389.516 69.623 388.496 71.1934 386.662 71.1934ZM384.834 66.7754C384.834 67.1094 384.852 67.4199 384.875 67.707L388.286 64.8594C388.01 63.8105 387.459 63.2715 386.662 63.2715C385.467 63.2715 384.834 64.4785 384.834 66.7754ZM386.662 70.2793C387.858 70.2793 388.485 69.0664 388.485 66.7754C388.485 66.4355 388.473 66.125 388.444 65.832L385.045 68.7031C385.321 69.7402 385.866 70.2793 386.662 70.2793ZM393.93 71.1934C392.091 71.1934 391.077 69.623 391.077 66.7754C391.077 63.9277 392.091 62.3574 393.93 62.3574C395.764 62.3574 396.784 63.9277 396.784 66.7754C396.784 69.623 395.764 71.1934 393.93 71.1934ZM392.102 66.7754C392.102 67.1094 392.12 67.4199 392.143 67.707L395.554 64.8594C395.278 63.8105 394.727 63.2715 393.93 63.2715C392.735 63.2715 392.102 64.4785 392.102 66.7754ZM393.93 70.2793C395.126 70.2793 395.753 69.0664 395.753 66.7754C395.753 66.4355 395.741 66.125 395.712 65.832L392.313 68.7031C392.589 69.7402 393.134 70.2793 393.93 70.2793ZM401.198 71.1934C399.359 71.1934 398.345 69.623 398.345 66.7754C398.345 63.9277 399.359 62.3574 401.198 62.3574C403.032 62.3574 404.052 63.9277 404.052 66.7754C404.052 69.623 403.032 71.1934 401.198 71.1934ZM399.37 66.7754C399.37 67.1094 399.388 67.4199 399.411 67.707L402.821 64.8594C402.546 63.8105 401.995 63.2715 401.198 63.2715C400.003 63.2715 399.37 64.4785 399.37 66.7754ZM401.198 70.2793C402.394 70.2793 403.021 69.0664 403.021 66.7754C403.021 66.4355 403.009 66.125 402.98 65.832L399.581 68.7031C399.857 69.7402 400.402 70.2793 401.198 70.2793ZM408.466 71.1934C406.627 71.1934 405.613 69.623 405.613 66.7754C405.613 63.9277 406.627 62.3574 408.466 62.3574C410.3 62.3574 411.32 63.9277 411.32 66.7754C411.32 69.623 410.3 71.1934 408.466 71.1934ZM406.638 66.7754C406.638 67.1094 406.656 67.4199 406.679 67.707L410.089 64.8594C409.814 63.8105 409.263 63.2715 408.466 63.2715C407.271 63.2715 406.638 64.4785 406.638 66.7754ZM408.466 70.2793C409.662 70.2793 410.289 69.0664 410.289 66.7754C410.289 66.4355 410.277 66.125 410.248 65.832L406.849 68.7031C407.125 69.7402 407.67 70.2793 408.466 70.2793ZM415.734 71.1934C413.895 71.1934 412.881 69.623 412.881 66.7754C412.881 63.9277 413.895 62.3574 415.734 62.3574C417.568 62.3574 418.588 63.9277 418.588 66.7754C418.588 69.623 417.568 71.1934 415.734 71.1934ZM413.906 66.7754C413.906 67.1094 413.924 67.4199 413.947 67.707L417.357 64.8594C417.082 63.8105 416.531 63.2715 415.734 63.2715C414.539 63.2715 413.906 64.4785 413.906 66.7754ZM415.734 70.2793C416.93 70.2793 417.557 69.0664 417.557 66.7754C417.557 66.4355 417.545 66.125 417.516 65.832L414.117 68.7031C414.393 69.7402 414.938 70.2793 415.734 70.2793ZM425.897 68.2871C425.897 69.9629 424.69 71.1758 423.014 71.1758C421.35 71.1758 420.149 69.9688 420.149 68.2871C420.149 67.2969 420.483 66.4004 421.291 65.2227C421.368 65.0938 423.125 62.6328 423.184 62.5449H424.373L422.065 65.7148C421.807 66.0781 421.83 66.0547 421.789 66.1484L421.877 66.1953C422.129 65.8555 422.739 65.6035 423.278 65.6035C424.784 65.6035 425.897 66.7461 425.897 68.2871ZM423.02 70.2559C424.086 70.2559 424.895 69.4238 424.895 68.3398C424.895 67.25 424.086 66.418 423.02 66.418C421.959 66.418 421.151 67.25 421.151 68.3398C421.151 69.4238 421.959 70.2559 423.02 70.2559ZM430.27 71.1934C428.43 71.1934 427.417 69.623 427.417 66.7754C427.417 63.9277 428.43 62.3574 430.27 62.3574C432.104 62.3574 433.124 63.9277 433.124 66.7754C433.124 69.623 432.104 71.1934 430.27 71.1934ZM428.442 66.7754C428.442 67.1094 428.46 67.4199 428.483 67.707L431.893 64.8594C431.618 63.8105 431.067 63.2715 430.27 63.2715C429.075 63.2715 428.442 64.4785 428.442 66.7754ZM430.27 70.2793C431.466 70.2793 432.093 69.0664 432.093 66.7754C432.093 66.4355 432.081 66.125 432.052 65.832L428.653 68.7031C428.929 69.7402 429.473 70.2793 430.27 70.2793ZM437.462 71.1699C435.886 71.1699 434.773 70.1973 434.685 68.7441H435.681C435.775 69.6289 436.53 70.2383 437.521 70.2383C438.611 70.2383 439.337 69.4707 439.337 68.3223C439.337 67.1621 438.605 66.377 437.521 66.377C436.765 66.377 436.138 66.7227 435.804 67.3203H434.825L435.253 62.5449H439.876V63.4766H436.068L435.833 66.2363H435.927C436.343 65.7324 436.946 65.4688 437.691 65.4688C439.255 65.4688 440.345 66.6348 440.345 68.2988C440.345 70.0098 439.179 71.1699 437.462 71.1699ZM442.105 64.9238C442.105 63.4355 443.207 62.3691 444.748 62.3691C446.3 62.3691 447.367 63.3301 447.367 64.7422C447.367 65.6211 446.968 66.3242 445.621 67.7949L443.629 69.9629V70.0625H447.502V71H442.152V70.2852L445.011 67.1035C446.084 65.9023 446.341 65.4512 446.341 64.7832C446.341 63.875 445.703 63.2773 444.718 63.2773C443.746 63.2773 443.101 63.9277 443.101 64.9238V64.959H442.105V64.9238ZM452.098 71.1875C450.34 71.1875 449.115 70.1797 449.115 68.7383C449.115 67.6895 449.795 66.834 450.838 66.582V66.4883C449.988 66.2539 449.455 65.5273 449.455 64.6074C449.455 63.2891 450.557 62.3574 452.098 62.3574C453.639 62.3574 454.734 63.2891 454.734 64.6074C454.734 65.5273 454.213 66.248 453.352 66.4883V66.582C454.377 66.7988 455.074 67.6719 455.074 68.7383C455.074 70.1797 453.855 71.1875 452.098 71.1875ZM452.098 66.1367C453.076 66.1367 453.721 65.5625 453.721 64.6953C453.721 63.834 453.076 63.2598 452.098 63.2598C451.119 63.2598 450.469 63.834 450.469 64.6953C450.469 65.5625 451.119 66.1367 452.098 66.1367ZM452.098 70.291C453.246 70.291 454.037 69.623 454.037 68.6562C454.037 67.6895 453.246 67.0215 452.098 67.0215C450.949 67.0215 450.158 67.6895 450.158 68.6562C450.158 69.623 450.949 70.291 452.098 70.291ZM459.366 71.1875C457.608 71.1875 456.383 70.1797 456.383 68.7383C456.383 67.6895 457.063 66.834 458.106 66.582V66.4883C457.256 66.2539 456.723 65.5273 456.723 64.6074C456.723 63.2891 457.825 62.3574 459.366 62.3574C460.907 62.3574 462.002 63.2891 462.002 64.6074C462.002 65.5273 461.481 66.248 460.62 66.4883V66.582C461.645 66.7988 462.342 67.6719 462.342 68.7383C462.342 70.1797 461.123 71.1875 459.366 71.1875ZM459.366 66.1367C460.344 66.1367 460.989 65.5625 460.989 64.6953C460.989 63.834 460.344 63.2598 459.366 63.2598C458.387 63.2598 457.737 63.834 457.737 64.6953C457.737 65.5625 458.387 66.1367 459.366 66.1367ZM459.366 70.291C460.514 70.291 461.305 69.623 461.305 68.6562C461.305 67.6895 460.514 67.0215 459.366 67.0215C458.217 67.0215 457.426 67.6895 457.426 68.6562C457.426 69.623 458.217 70.291 459.366 70.291ZM466.534 71.1699C464.958 71.1699 463.845 70.1973 463.757 68.7441H464.753C464.846 69.6289 465.602 70.2383 466.593 70.2383C467.682 70.2383 468.409 69.4707 468.409 68.3223C468.409 67.1621 467.677 66.377 466.593 66.377C465.837 66.377 465.21 66.7227 464.876 67.3203H463.897L464.325 62.5449H468.948V63.4766H465.139L464.905 66.2363H464.999C465.415 65.7324 466.018 65.4688 466.762 65.4688C468.327 65.4688 469.417 66.6348 469.417 68.2988C469.417 70.0098 468.251 71.1699 466.534 71.1699ZM473.263 66.3184H472.191V62.5449H473.263V66.3184ZM475.554 66.3184H474.476V62.5449H475.554V66.3184Z" fill="#F2A3B3"/>
<g filter="url(#filter0_dd_3827_4015)">
<rect x="283" y="106" width="231" height="48" rx="8" fill="#2F312E"/>
<path d="M306.1 130.318H305.027V126.545H306.1V130.318ZM308.391 130.318H307.312V126.545H308.391V130.318ZM310.819 129.92L311.235 129.164L313.631 130.641L313.561 127.84H314.393L314.323 130.635L316.719 129.164L317.135 129.92L314.692 131.25L317.135 132.58L316.719 133.336L314.323 131.865L314.393 134.666H313.561L313.631 131.865L311.235 133.336L310.819 132.58L313.256 131.25L310.819 129.92ZM318.087 129.92L318.503 129.164L320.899 130.641L320.829 127.84H321.661L321.591 130.635L323.987 129.164L324.403 129.92L321.96 131.25L324.403 132.58L323.987 133.336L321.591 131.865L321.661 134.666H320.829L320.899 131.865L318.503 133.336L318.087 132.58L320.524 131.25L318.087 129.92ZM325.355 129.92L325.771 129.164L328.167 130.641L328.097 127.84H328.929L328.859 130.635L331.255 129.164L331.671 129.92L329.228 131.25L331.671 132.58L331.255 133.336L328.859 131.865L328.929 134.666H328.097L328.167 131.865L325.771 133.336L325.355 132.58L327.792 131.25L325.355 129.92ZM332.623 129.92L333.039 129.164L335.435 130.641L335.365 127.84H336.197L336.127 130.635L338.523 129.164L338.939 129.92L336.496 131.25L338.939 132.58L338.523 133.336L336.127 131.865L336.197 134.666H335.365L335.435 131.865L333.039 133.336L332.623 132.58L335.06 131.25L332.623 129.92ZM339.891 129.92L340.307 129.164L342.703 130.641L342.633 127.84H343.465L343.395 130.635L345.791 129.164L346.207 129.92L343.764 131.25L346.207 132.58L345.791 133.336L343.395 131.865L343.465 134.666H342.633L342.703 131.865L340.307 133.336L339.891 132.58L342.328 131.25L339.891 129.92ZM347.159 129.92L347.575 129.164L349.971 130.641L349.901 127.84H350.733L350.662 130.635L353.059 129.164L353.475 129.92L351.032 131.25L353.475 132.58L353.059 133.336L350.662 131.865L350.733 134.666H349.901L349.971 131.865L347.575 133.336L347.159 132.58L349.596 131.25L347.159 129.92ZM354.427 129.92L354.843 129.164L357.239 130.641L357.169 127.84H358.001L357.93 130.635L360.327 129.164L360.743 129.92L358.3 131.25L360.743 132.58L360.327 133.336L357.93 131.865L358.001 134.666H357.169L357.239 131.865L354.843 133.336L354.427 132.58L356.864 131.25L354.427 129.92ZM361.695 129.92L362.111 129.164L364.507 130.641L364.437 127.84H365.269L365.198 130.635L367.595 129.164L368.011 129.92L365.568 131.25L368.011 132.58L367.595 133.336L365.198 131.865L365.269 134.666H364.437L364.507 131.865L362.111 133.336L361.695 132.58L364.132 131.25L361.695 129.92ZM368.963 129.92L369.379 129.164L371.775 130.641L371.705 127.84H372.537L372.466 130.635L374.863 129.164L375.279 129.92L372.836 131.25L375.279 132.58L374.863 133.336L372.466 131.865L372.537 134.666H371.705L371.775 131.865L369.379 133.336L368.963 132.58L371.4 131.25L368.963 129.92ZM378.779 130.318H377.707V126.545H378.779V130.318ZM381.07 130.318H379.992V126.545H381.07V130.318Z" fill="#F2A3B3"/>
</g>
<rect x="283" y="170" width="231" height="48" rx="8" fill="#2F312E"/>
<path d="M306.1 194.318H305.027V190.545H306.1V194.318ZM308.391 194.318H307.312V190.545H308.391V194.318ZM316.608 198.051V199H311.616V190.545H316.608V191.494H312.653V194.236H316.391V195.145H312.653V198.051H316.608ZM321.245 198.197C322.475 198.197 323.19 197.389 323.19 196V190.545H324.221V196.064C324.221 198.01 323.108 199.176 321.245 199.176C319.382 199.176 318.268 198.01 318.268 196.064V190.545H319.3V196C319.3 197.389 320.014 198.197 321.245 198.197ZM328.835 195.631H326.89V199H325.87V190.545H328.706C330.382 190.545 331.431 191.518 331.431 193.088C331.431 194.195 330.816 195.104 329.855 195.42L331.577 199H330.411L328.835 195.631ZM326.89 191.465V194.758H328.566C329.732 194.758 330.388 194.166 330.388 193.111C330.388 192.062 329.743 191.465 328.612 191.465H326.89ZM335.171 194.318H334.099V190.545H335.171V194.318ZM337.462 194.318H336.384V190.545H337.462V194.318Z" fill="#F2A3B3"/>
<rect x="283" y="234" width="231" height="48" rx="8" fill="#2F312E"/>
<path d="M306.1 258.318H305.027V254.545H306.1V258.318ZM308.391 258.318H307.312V254.545H308.391V258.318ZM311.282 256.924C311.282 255.436 312.383 254.369 313.924 254.369C315.477 254.369 316.543 255.33 316.543 256.742C316.543 257.621 316.145 258.324 314.797 259.795L312.805 261.963V262.062H316.678V263H311.329V262.285L314.188 259.104C315.26 257.902 315.518 257.451 315.518 256.783C315.518 255.875 314.879 255.277 313.895 255.277C312.922 255.277 312.278 255.928 312.278 256.924V256.959H311.282V256.924ZM324.438 263H318.544V262.092H321.04V255.717H320.946L318.526 257.281V256.18L321.046 254.545H322.059V262.092H324.438V263ZM326.937 263.803H325.964L330.083 253.742H331.062L326.937 263.803ZM335.787 263.193C333.947 263.193 332.933 261.623 332.933 258.775C332.933 255.928 333.947 254.357 335.787 254.357C337.621 254.357 338.64 255.928 338.64 258.775C338.64 261.623 337.621 263.193 335.787 263.193ZM333.959 258.775C333.959 259.109 333.976 259.42 334 259.707L337.41 256.859C337.134 255.811 336.584 255.271 335.787 255.271C334.591 255.271 333.959 256.479 333.959 258.775ZM335.787 262.279C336.982 262.279 337.609 261.066 337.609 258.775C337.609 258.436 337.597 258.125 337.568 257.832L334.17 260.703C334.445 261.74 334.99 262.279 335.787 262.279ZM345.949 260.287C345.949 261.963 344.742 263.176 343.066 263.176C341.402 263.176 340.201 261.969 340.201 260.287C340.201 259.297 340.535 258.4 341.344 257.223C341.42 257.094 343.178 254.633 343.236 254.545H344.426L342.117 257.715C341.859 258.078 341.883 258.055 341.842 258.148L341.93 258.195C342.182 257.855 342.791 257.604 343.33 257.604C344.836 257.604 345.949 258.746 345.949 260.287ZM343.072 262.256C344.139 262.256 344.947 261.424 344.947 260.34C344.947 259.25 344.139 258.418 343.072 258.418C342.012 258.418 341.203 259.25 341.203 260.34C341.203 261.424 342.012 262.256 343.072 262.256ZM348.741 263.803H347.768L351.887 253.742H352.866L348.741 263.803ZM354.889 256.924C354.889 255.436 355.991 254.369 357.532 254.369C359.085 254.369 360.151 255.33 360.151 256.742C360.151 257.621 359.753 258.324 358.405 259.795L356.413 261.963V262.062H360.286V263H354.936V262.285L357.796 259.104C358.868 257.902 359.126 257.451 359.126 256.783C359.126 255.875 358.487 255.277 357.503 255.277C356.53 255.277 355.886 255.928 355.886 256.924V256.959H354.889V256.924ZM364.859 263.193C363.019 263.193 362.005 261.623 362.005 258.775C362.005 255.928 363.019 254.357 364.859 254.357C366.693 254.357 367.712 255.928 367.712 258.775C367.712 261.623 366.693 263.193 364.859 263.193ZM363.03 258.775C363.03 259.109 363.048 259.42 363.071 259.707L366.482 256.859C366.206 255.811 365.655 255.271 364.859 255.271C363.663 255.271 363.03 256.479 363.03 258.775ZM364.859 262.279C366.054 262.279 366.681 261.066 366.681 258.775C366.681 258.436 366.669 258.125 366.64 257.832L363.241 260.703C363.517 261.74 364.062 262.279 364.859 262.279ZM369.425 256.924C369.425 255.436 370.527 254.369 372.068 254.369C373.621 254.369 374.687 255.33 374.687 256.742C374.687 257.621 374.289 258.324 372.941 259.795L370.949 261.963V262.062H374.822V263H369.472V262.285L372.332 259.104C373.404 257.902 373.662 257.451 373.662 256.783C373.662 255.875 373.023 255.277 372.039 255.277C371.066 255.277 370.421 255.928 370.421 256.924V256.959H369.425V256.924ZM376.693 256.924C376.693 255.436 377.795 254.369 379.336 254.369C380.889 254.369 381.955 255.33 381.955 256.742C381.955 257.621 381.557 258.324 380.209 259.795L378.217 261.963V262.062H382.09V263H376.74V262.285L379.6 259.104C380.672 257.902 380.93 257.451 380.93 256.783C380.93 255.875 380.291 255.277 379.307 255.277C378.334 255.277 377.689 255.928 377.689 256.924V256.959H376.693V256.924ZM386.047 258.318H384.975V254.545H386.047V258.318ZM388.338 258.318H387.26V254.545H388.338V258.318Z" fill="#F2A3B3"/>
</g>
<defs>
<filter id="filter0_dd_3827_4015" x="280" y="103" width="237" height="54" filterUnits="userSpaceOnUse" color-interpolation-filters="sRGB">
<feFlood flood-opacity="0" result="BackgroundImageFix"/>
<feColorMatrix in="SourceAlpha" type="matrix" values="0 0 0 0 0 0 0 0 0 0 0 0 0 0 0 0 0 0 127 0" result="hardAlpha"/>
<feMorphology radius="3" operator="dilate" in="SourceAlpha" result="effect1_dropShadow_3827_4015"/>
<feOffset/>
<feComposite in2="hardAlpha" operator="out"/>
<feColorMatrix type="matrix" values="0 0 0 0 1 0 0 0 0 0.521569 0 0 0 0 0.670588 0 0 0 1 0"/>
<feBlend mode="normal" in2="BackgroundImageFix" result="effect1_dropShadow_3827_4015"/>
<feColorMatrix in="SourceAlpha" type="matrix" values="0 0 0 0 0 0 0 0 0 0 0 0 0 0 0 0 0 0 127 0" result="hardAlpha"/>
<feMorphology radius="2" operator="dilate" in="SourceAlpha" result="effect2_dropShadow_3827_4015"/>
<feOffset/>
<feComposite in2="hardAlpha" operator="out"/>
<feColorMatrix type="matrix" values="0 0 0 0 0.121569 0 0 0 0 0.121569 0 0 0 0 0.141176 0 0 0 1 0"/>
<feBlend mode="normal" in2="effect1_dropShadow_3827_4015" result="effect2_dropShadow_3827_4015"/>
<feBlend mode="normal" in="SourceGraphic" in2="effect2_dropShadow_3827_4015" result="shape"/>
</filter>
<clipPath id="clip0_3827_4015">
<rect width="600" height="260" fill="white"/>
</clipPath>
<clipPath id="clip1_3827_4015">
<rect width="16" height="16" fill="white" transform="translate(247 122)"/>
</clipPath>
</defs>
</svg>
