<svg width="600" height="260" viewBox="0 0 600 260" fill="none" xmlns="http://www.w3.org/2000/svg">
<path d="M59 52C59 48.6863 61.6863 46 65 46H117C120.314 46 123 48.6863 123 52V88C123 91.3137 120.314 94 117 94H65C61.6863 94 59 91.3137 59 88V52Z" fill="url(#paint0_linear_3827_4085)"/>
<g clip-path="url(#clip0_3827_4085)">
<path d="M87.9998 75C87.7438 75 87.4878 74.902 87.2928 74.707L83.2928 70.707C82.9018 70.316 82.9018 69.684 83.2928 69.293L87.2928 65.293C87.6838 64.902 88.3158 64.902 88.7068 65.293C89.0978 65.684 89.0978 66.316 88.7068 66.707L85.4138 70L88.7068 73.293C89.0978 73.684 89.0978 74.316 88.7068 74.707C88.5118 74.902 88.2558 75 87.9998 75Z" fill="#8CB654"/>
<path d="M93.9998 75C93.7438 75 93.4878 74.902 93.2928 74.707C92.9018 74.316 92.9018 73.684 93.2928 73.293L96.5858 70L93.2928 66.707C92.9018 66.316 92.9018 65.684 93.2928 65.293C93.6838 64.902 94.3158 64.902 94.7068 65.293L98.7068 69.293C99.0978 69.684 99.0978 70.316 98.7068 70.707L94.7068 74.707C94.5118 74.902 94.2558 75 93.9998 75Z" fill="#8CB654"/>
</g>
<path d="M142.14 52.9C144.37 52.9 145.62 54.18 145.62 56.46C145.62 58.73 144.4 60 142.2 60H139.86V52.9H142.14ZM140.96 59H142.14C143.72 59 144.49 58.16 144.49 56.46C144.49 54.74 143.72 53.9 142.14 53.9H140.96V59ZM147.333 52.9H151.963V53.9H148.433V55.95H151.843V56.93H148.433V59H152.043V60H147.333V52.9ZM153.423 52.9H154.593L156.673 58.77L158.743 52.9H159.913L157.353 60H155.983L153.423 52.9ZM161.36 52.9H165.99V53.9H162.46V55.95H165.87V56.93H162.46V59H166.07V60H161.36V52.9ZM167.964 60V52.9H169.064V59H172.514V60H167.964ZM176.921 60.16C174.851 60.16 173.601 58.75 173.601 56.46C173.601 54.15 174.851 52.74 176.921 52.74C179.001 52.74 180.241 54.15 180.241 56.46C180.241 58.75 179.001 60.16 176.921 60.16ZM174.741 56.46C174.741 58.14 175.551 59.16 176.921 59.16C178.291 59.16 179.101 58.14 179.101 56.46C179.101 54.76 178.291 53.74 176.921 53.74C175.551 53.74 174.741 54.76 174.741 56.46ZM184.602 52.9C186.232 52.9 187.192 53.73 187.192 55.11C187.192 56.51 186.232 57.35 184.602 57.35H183.052V60H181.952V52.9H184.602ZM183.052 56.35H184.572C185.552 56.35 186.052 55.93 186.052 55.11C186.052 54.31 185.552 53.9 184.572 53.9H183.052V56.35ZM189.034 52.9H190.524L192.624 58.71L194.724 52.9H196.214V60H195.124V54.91L193.234 59.99H192.014L190.134 54.91V60H189.034V52.9ZM198.294 52.9H202.924V53.9H199.394V55.95H202.804V56.93H199.394V59H203.004V60H198.294V52.9ZM204.809 52.9H206.179L209.409 58.56V52.9H210.509V60H209.079L205.909 54.47V60H204.809V52.9ZM217.552 52.9V53.9H215.382V60H214.282V53.9H212.112V52.9H217.552Z" fill="#1D211C"/>
<path d="M139 71C139 69.8954 139.895 69 141 69H317C318.105 69 319 69.8954 319 71V77C319 78.1046 318.105 79 317 79H141C139.895 79 139 78.1046 139 77V71Z" fill="url(#paint1_linear_3827_4085)"/>
<path d="M139 85C139 83.8954 139.895 83 141 83H223C224.105 83 225 83.8954 225 85V91C225 92.1046 224.105 93 223 93H141C139.895 93 139 92.1046 139 91V85Z" fill="url(#paint2_linear_3827_4085)"/>
<path d="M59 100H541" stroke="url(#paint3_linear_3827_4085)"/>
<path d="M59 112C59 108.686 61.6863 106 65 106H117C120.314 106 123 108.686 123 112V148C123 151.314 120.314 154 117 154H65C61.6863 154 59 151.314 59 148V112Z" fill="url(#paint4_linear_3827_4085)"/>
<g clip-path="url(#clip1_3827_4085)">
<path d="M99 132V130H97C96.9 129.2 96.7 128.5 96.4 127.8L98.4 126.1L97.1 124.6L95.3 126.1C95 125.8 94.7 125.5 94.4 125.2C94.5 123.7 92.8 122 91 122C89.2 122 87.5 123.7 87.5 125.2C87.2 125.5 86.9 125.7 86.6 126.1L84.9 124.6L83.6 126.1L85.6 127.8C85.3 128.5 85.1 129.2 85 130H83V132H85C85.1 133 85.5 134 85.9 134.9L84.3 136.3L85.6 137.8L87.1 136.5C88.1 137.5 89.5 138.1 90.9 138.1C92.3 138.1 93.7 137.5 94.7 136.5L96.2 137.8L97.5 136.3L95.9 134.9C96.6 134 96.9 133 97 132H99Z" fill="#8CB654"/>
</g>
<path d="M140.69 117.64C140.86 118.53 141.48 119.12 142.52 119.12C143.35 119.12 143.9 118.8 143.9 118.16C143.89 117.51 143.33 117.12 142.02 116.79C140.74 116.48 139.71 115.89 139.71 114.74C139.71 113.51 140.71 112.74 142.15 112.74C143.7 112.74 144.74 113.7 144.89 115.05L143.77 115.11C143.65 114.28 143.03 113.74 142.13 113.74C141.38 113.74 140.83 114.13 140.84 114.75C140.85 115.53 141.79 115.75 142.62 115.97C144 116.32 145.03 116.98 145.03 118.08C145.03 119.41 143.82 120.12 142.46 120.12C140.84 120.12 139.68 119.17 139.56 117.71L140.69 117.64ZM151.596 112.9V113.9H149.426V120H148.326V113.9H146.156V112.9H151.596ZM151.646 120L154.206 112.9H155.596L158.156 120H156.986L156.346 118.16H153.456L152.816 120H151.646ZM153.796 117.16H156.006L154.906 113.95L153.796 117.16ZM165.207 120H164.467L164.387 118.88C164.077 119.64 163.217 120.16 162.257 120.16C160.217 120.16 158.997 118.53 158.997 116.46C158.997 114.38 160.217 112.74 162.287 112.74C163.837 112.74 164.857 113.68 165.177 115.13L164.037 115.19C163.817 114.29 163.227 113.74 162.277 113.74C160.777 113.74 160.137 114.99 160.137 116.46C160.137 117.92 160.787 119.16 162.277 119.16C163.407 119.16 164.037 118.37 164.127 117.32H162.277V116.37H165.207V120ZM167.075 112.9H168.175V120H167.075V112.9ZM170.397 112.9H171.767L174.997 118.56V112.9H176.097V120H174.667L171.497 114.47V120H170.397V112.9ZM184.129 120H183.389L183.309 118.88C182.999 119.64 182.139 120.16 181.179 120.16C179.139 120.16 177.919 118.53 177.919 116.46C177.919 114.38 179.139 112.74 181.209 112.74C182.759 112.74 183.779 113.68 184.099 115.13L182.959 115.19C182.739 114.29 182.149 113.74 181.199 113.74C179.699 113.74 179.059 114.99 179.059 116.46C179.059 117.92 179.709 119.16 181.199 119.16C182.329 119.16 182.959 118.37 183.049 117.32H181.199V116.37H184.129V120Z" fill="#1D211C"/>
<path d="M139 131C139 129.895 139.895 129 141 129H365C366.105 129 367 129.895 367 131V137C367 138.105 366.105 139 365 139H141C139.895 139 139 138.105 139 137V131Z" fill="url(#paint5_linear_3827_4085)"/>
<path d="M139 145C139 143.895 139.895 143 141 143H253C254.105 143 255 143.895 255 145V151C255 152.105 254.105 153 253 153H141C139.895 153 139 152.105 139 151V145Z" fill="url(#paint6_linear_3827_4085)"/>
<path d="M59 160H541" stroke="url(#paint7_linear_3827_4085)"/>
<path d="M59 172C59 168.686 61.6863 166 65 166H117C120.314 166 123 168.686 123 172V208C123 211.314 120.314 214 117 214H65C61.6863 214 59 211.314 59 208V172Z" fill="url(#paint8_linear_3827_4085)"/>
<g clip-path="url(#clip2_3827_4085)">
<path d="M86.9002 194.1C86.5146 193.715 85.9918 193.499 85.4467 193.499C84.9017 193.499 84.3789 193.715 83.9932 194.1C83.2932 194.8 83.0462 197.013 83.0042 197.45C82.9973 197.515 83.0034 197.582 83.0221 197.645C83.0407 197.708 83.0717 197.766 83.1131 197.818C83.1545 197.869 83.2056 197.911 83.2635 197.942C83.3213 197.974 83.3848 197.993 83.4502 198H83.5002H83.5472C83.9842 197.958 86.1982 197.71 86.8972 197.011C87.2835 196.625 87.5008 196.102 87.5014 195.556C87.5019 195.01 87.2857 194.486 86.9002 194.1Z" fill="#8CB654"/>
<path d="M99.0003 182.527C99.0043 182.457 98.9936 182.387 98.9688 182.321C98.944 182.256 98.9057 182.196 98.8563 182.146C98.8069 182.095 98.7471 182.056 98.6809 182.031C98.6147 182.005 98.5439 181.995 98.4733 182C95.9833 182.11 93.5643 182.864 91.4523 184.187C90.14 183.678 88.6894 183.653 87.3605 184.117C86.0316 184.581 84.9112 185.502 84.2003 186.717C84.1444 186.812 84.1218 186.924 84.1359 187.033C84.15 187.143 84.2001 187.245 84.2783 187.323L86.3493 189.393C86.0245 189.908 85.7358 190.445 85.4853 191C85.4486 191.091 85.4395 191.191 85.4593 191.287C85.479 191.383 85.5267 191.472 85.5963 191.541L89.4573 195.4C89.5267 195.47 89.6154 195.518 89.712 195.538C89.8086 195.557 89.9089 195.548 90.0003 195.511C90.553 195.26 91.0876 194.972 91.6003 194.647L93.6793 196.726C93.757 196.803 93.8578 196.852 93.9661 196.866C94.0745 196.88 94.1845 196.858 94.2793 196.804C95.5008 196.09 96.4264 194.962 96.8887 193.624C97.3511 192.287 97.3197 190.828 96.8003 189.512C98.1184 187.41 98.8759 185.005 99.0003 182.527ZM92.0003 190.5C91.7036 190.5 91.4136 190.412 91.1669 190.247C90.9202 190.082 90.728 189.848 90.6144 189.574C90.5009 189.3 90.4712 188.998 90.5291 188.707C90.587 188.416 90.7298 188.149 90.9396 187.939C91.1494 187.73 91.4167 187.587 91.7076 187.529C91.9986 187.471 92.3002 187.501 92.5743 187.614C92.8484 187.728 93.0826 187.92 93.2475 188.167C93.4123 188.413 93.5003 188.703 93.5003 189C93.5003 189.398 93.3422 189.779 93.0609 190.061C92.7796 190.342 92.3981 190.5 92.0003 190.5Z" fill="#8CB654"/>
</g>
<path d="M142.51 172.9C144.14 172.9 145.1 173.73 145.1 175.11C145.1 176.51 144.14 177.35 142.51 177.35H140.96V180H139.86V172.9H142.51ZM140.96 176.35H142.48C143.46 176.35 143.96 175.93 143.96 175.11C143.96 174.31 143.46 173.9 142.48 173.9H140.96V176.35ZM149.782 172.9C151.262 172.9 152.242 173.71 152.242 175.04C152.242 175.9 151.692 176.52 151.032 176.71C151.742 176.82 152.052 177.18 152.122 177.93L152.312 180H151.202L151.042 178.07C150.982 177.44 150.592 177.24 149.632 177.24H148.042V180H146.942V172.9H149.782ZM148.042 176.23H149.712C150.602 176.23 151.112 175.82 151.112 175.07C151.112 174.32 150.602 173.9 149.712 173.9H148.042V176.23ZM157.022 180.16C154.952 180.16 153.702 178.75 153.702 176.46C153.702 174.15 154.952 172.74 157.022 172.74C159.102 172.74 160.342 174.15 160.342 176.46C160.342 178.75 159.102 180.16 157.022 180.16ZM154.842 176.46C154.842 178.14 155.652 179.16 157.022 179.16C158.392 179.16 159.202 178.14 159.202 176.46C159.202 174.76 158.392 173.74 157.022 173.74C155.652 173.74 154.842 174.76 154.842 176.46ZM164.333 172.9C166.563 172.9 167.813 174.18 167.813 176.46C167.813 178.73 166.593 180 164.393 180H162.053V172.9H164.333ZM163.153 179H164.333C165.913 179 166.683 178.16 166.683 176.46C166.683 174.74 165.913 173.9 164.333 173.9H163.153V179ZM175.013 177.49C175.013 179.13 173.943 180.16 172.243 180.16C170.543 180.16 169.483 179.13 169.483 177.49V172.89H170.583V177.49C170.583 178.57 171.183 179.16 172.243 179.16C173.303 179.16 173.913 178.57 173.913 177.49V172.89H175.013V177.49ZM182.917 177.59C182.647 179.15 181.637 180.16 179.977 180.16C177.907 180.16 176.687 178.53 176.687 176.46C176.687 174.38 177.907 172.74 179.977 172.74C181.527 172.74 182.557 173.69 182.867 175.17L181.717 175.23C181.507 174.28 180.877 173.74 179.967 173.74C178.467 173.74 177.827 174.99 177.827 176.46C177.827 177.92 178.477 179.16 179.967 179.16C180.927 179.16 181.567 178.57 181.757 177.53L182.917 177.59ZM189.389 172.9V173.9H187.219V180H186.119V173.9H183.949V172.9H189.389ZM191.006 172.9H192.106V180H191.006V172.9ZM197.122 180.16C195.052 180.16 193.802 178.75 193.802 176.46C193.802 174.15 195.052 172.74 197.122 172.74C199.202 172.74 200.442 174.15 200.442 176.46C200.442 178.75 199.202 180.16 197.122 180.16ZM194.942 176.46C194.942 178.14 195.752 179.16 197.122 179.16C198.492 179.16 199.302 178.14 199.302 176.46C199.302 174.76 198.492 173.74 197.122 173.74C195.752 173.74 194.942 174.76 194.942 176.46ZM202.153 172.9H203.523L206.753 178.56V172.9H207.853V180H206.423L203.253 174.47V180H202.153V172.9Z" fill="#1D211C"/>
<path d="M139 191C139 189.895 139.895 189 141 189H337C338.105 189 339 189.895 339 191V197C339 198.105 338.105 199 337 199H141C139.895 199 139 198.105 139 197V191Z" fill="url(#paint9_linear_3827_4085)"/>
<path d="M139 205C139 203.895 139.895 203 141 203H243C244.105 203 245 203.895 245 205V211C245 212.105 244.105 213 243 213H141C139.895 213 139 212.105 139 211V205Z" fill="url(#paint10_linear_3827_4085)"/>
<defs>
<linearGradient id="paint0_linear_3827_4085" x1="59" y1="70" x2="123" y2="70" gradientUnits="userSpaceOnUse">
<stop stop-color="#EDF8DE"/>
<stop offset="1" stop-color="#DAF0BD"/>
</linearGradient>
<linearGradient id="paint1_linear_3827_4085" x1="319" y1="73.7059" x2="139" y2="73.7059" gradientUnits="userSpaceOnUse">
<stop stop-color="#D7DAD7"/>
<stop offset="1" stop-color="#D7DAD7" stop-opacity="0.2"/>
</linearGradient>
<linearGradient id="paint2_linear_3827_4085" x1="225" y1="87.7059" x2="139" y2="87.7059" gradientUnits="userSpaceOnUse">
<stop stop-color="#D7DAD7"/>
<stop offset="1" stop-color="#D7DAD7" stop-opacity="0.2"/>
</linearGradient>
<linearGradient id="paint3_linear_3827_4085" x1="541" y1="101.873" x2="59" y2="100" gradientUnits="userSpaceOnUse">
<stop stop-color="#D7DAD7"/>
<stop offset="1" stop-color="#D7DAD7" stop-opacity="0"/>
</linearGradient>
<linearGradient id="paint4_linear_3827_4085" x1="59" y1="130" x2="123" y2="130" gradientUnits="userSpaceOnUse">
<stop stop-color="#EDF8DE"/>
<stop offset="1" stop-color="#DAF0BD"/>
</linearGradient>
<linearGradient id="paint5_linear_3827_4085" x1="367" y1="133.706" x2="139" y2="133.706" gradientUnits="userSpaceOnUse">
<stop stop-color="#D7DAD7"/>
<stop offset="1" stop-color="#D7DAD7" stop-opacity="0.2"/>
</linearGradient>
<linearGradient id="paint6_linear_3827_4085" x1="255" y1="147.706" x2="139" y2="147.706" gradientUnits="userSpaceOnUse">
<stop stop-color="#D7DAD7"/>
<stop offset="1" stop-color="#D7DAD7" stop-opacity="0.2"/>
</linearGradient>
<linearGradient id="paint7_linear_3827_4085" x1="541" y1="161.873" x2="59" y2="160" gradientUnits="userSpaceOnUse">
<stop stop-color="#D7DAD7"/>
<stop offset="1" stop-color="#D7DAD7" stop-opacity="0"/>
</linearGradient>
<linearGradient id="paint8_linear_3827_4085" x1="59" y1="190" x2="123" y2="190" gradientUnits="userSpaceOnUse">
<stop stop-color="#EDF8DE"/>
<stop offset="1" stop-color="#DAF0BD"/>
</linearGradient>
<linearGradient id="paint9_linear_3827_4085" x1="339" y1="193.706" x2="139" y2="193.706" gradientUnits="userSpaceOnUse">
<stop stop-color="#D7DAD7"/>
<stop offset="1" stop-color="#D7DAD7" stop-opacity="0.2"/>
</linearGradient>
<linearGradient id="paint10_linear_3827_4085" x1="245" y1="207.706" x2="139" y2="207.706" gradientUnits="userSpaceOnUse">
<stop stop-color="#D7DAD7"/>
<stop offset="1" stop-color="#D7DAD7" stop-opacity="0.2"/>
</linearGradient>
<clipPath id="clip0_3827_4085">
<rect width="16" height="16" fill="white" transform="translate(83 62)"/>
</clipPath>
<clipPath id="clip1_3827_4085">
<rect width="16" height="16" fill="white" transform="translate(83 122)"/>
</clipPath>
<clipPath id="clip2_3827_4085">
<rect width="16" height="16" fill="white" transform="translate(83 182)"/>
</clipPath>
</defs>
</svg>
