<svg width="200" height="100" viewBox="0 0 200 100" fill="none" xmlns="http://www.w3.org/2000/svg">
<g clip-path="url(#clip0_3830_6752)">
<rect width="200" height="100" fill="url(#paint0_linear_3830_6752)"/>
<g clip-path="url(#clip1_3830_6752)">
<path d="M65.0028 29.3231L80.2963 38.1528L79.8881 38.8597L64.5947 30.03L65.0028 29.3231ZM135.397 69.9649L120.113 61.141L119.705 61.8479L134.988 70.6719L135.397 69.9649ZM-73.0037 -22.8613L-71.3609 -21.9128L-88.1982 7.25032L-89.8411 6.30184L-90.2492 7.00876L-87.9094 8.35966L-70.2558 -22.2173L-72.5956 -23.5682L-73.0037 -22.8613ZM-30.0142 -91.9063L-32.354 -93.2572L-32.7621 -92.5502L-31.1193 -91.6017L-47.9566 -62.4386L-49.5995 -63.3871L-50.0076 -62.6802L-47.6678 -61.3293L-30.0142 -91.9063ZM272.997 122.864L271.354 121.916L288.192 92.7525L289.834 93.7009L290.243 92.994L287.903 91.6431L270.249 122.22L272.589 123.571L272.997 122.864ZM232.758 192.561L231.115 191.612L247.952 162.449L249.595 163.398L250.003 162.691L247.663 161.34L230.01 191.917L232.349 193.268L232.758 192.561ZM-19.9975 73.3165L-51.4079 81.7329L-51.1975 82.5182L-19.7871 74.1018L-19.9975 73.3165ZM-15.7893 89.0217L-31.4945 93.2299L-31.2841 94.0152L-15.5789 89.807L-15.7893 89.0217ZM215.791 10.979L231.496 6.77078L231.285 5.98552L215.58 10.1937L215.791 10.979ZM219.999 26.6841L251.409 18.2677L251.199 17.4825L219.788 25.8989L219.999 26.6841ZM90.2906 140.974L91.0759 140.764L90.129 137.23L120.754 129.024L121.701 132.558L122.486 132.347L121.539 128.814L125.073 127.867L124.863 127.082L121.329 128.028L120.382 124.495L119.597 124.705L120.544 128.239L89.9186 136.445L88.9718 132.911L88.1865 133.122L89.1334 136.655L85.5997 137.602L85.8101 138.387L89.3438 137.44L90.2906 140.974ZM109.711 -40.9734L108.925 -40.763L109.872 -37.2294L79.247 -29.0234L78.3002 -32.557L77.515 -32.3466L78.4618 -28.813L74.9282 -27.8661L75.1386 -27.0809L78.6722 -28.0277L79.619 -24.494L80.4043 -24.7045L79.4575 -28.2381L110.083 -36.4441L111.029 -32.9104L111.815 -33.1208L110.868 -36.6545L114.401 -37.6013L114.191 -38.3866L110.657 -37.4398L109.711 -40.9734ZM169.451 -6.48246L168.665 -6.27205L169.612 -2.73838L166.079 -1.79154L166.289 -1.00628L169.823 -1.95312L170.77 1.58055L171.555 1.37014L170.608 -2.16353L174.142 -3.11038L173.931 -3.89563L170.398 -2.94879L169.451 -6.48246ZM243.356 49.4622L242.57 49.6726L243.517 53.2062L239.984 54.1531L240.194 54.9384L243.728 53.9915L244.674 57.5252L245.46 57.3148L244.513 53.7811L248.047 52.8343L247.836 52.049L244.302 52.9958L243.356 49.4622ZM-43.3545 50.5385L-42.5692 50.3281L-43.5161 46.7944L-39.9824 45.8476L-40.1928 45.0623L-43.7265 46.0092L-44.6733 42.4755L-45.4586 42.6859L-44.5117 46.2196L-48.0454 47.1664L-47.835 47.9517L-44.3013 47.0048L-43.3545 50.5385ZM30.5505 106.483L31.3358 106.273L30.3889 102.739L33.9226 101.792L33.7122 101.007L30.1785 101.954L29.2317 98.4201L28.4464 98.6305L29.3932 102.164L25.8596 103.111L26.07 103.896L29.6036 102.949L30.5505 106.483ZM50.0919 113.451L49.3066 113.661L49.517 114.446L50.3023 114.236L50.0919 113.451ZM55.8404 103.494L55.0551 103.705L55.2655 104.49L56.0508 104.279L55.8404 103.494ZM45.8837 97.7456L45.0984 97.956L45.3088 98.7413L46.0941 98.5309L45.8837 97.7456ZM61.5888 93.5374L60.8036 93.7478L61.014 94.5331L61.7993 94.3227L61.5888 93.5374ZM53.7363 95.6415L52.951 95.8519L53.1614 96.6372L53.9467 96.4268L53.7363 95.6415ZM47.9878 105.598L47.2025 105.809L47.4129 106.594L48.1982 106.383L47.9878 105.598ZM50.862 100.62L50.0768 100.83L50.2872 101.616L51.0724 101.405L50.862 100.62ZM58.7146 98.5158L57.9293 98.7262L58.1398 99.5114L58.925 99.301L58.7146 98.5158ZM52.9661 108.472L52.1809 108.683L52.3913 109.468L53.1765 109.258L52.9661 108.472ZM149.909 -13.4501L150.695 -13.6605L150.484 -14.4458L149.699 -14.2354L149.909 -13.4501ZM144.161 -3.49344L144.946 -3.70385L144.736 -4.4891L143.95 -4.27869L144.161 -3.49344ZM154.118 2.25506L154.903 2.04465L154.692 1.2594L153.907 1.46981L154.118 2.25506ZM138.412 6.46326L139.198 6.25285L138.987 5.46759L138.202 5.678L138.412 6.46326ZM146.265 4.35916L147.05 4.14875L146.84 3.36349L146.054 3.5739L146.265 4.35916ZM152.013 -5.59754L152.799 -5.80794L152.588 -6.5932L151.803 -6.38279L152.013 -5.59754ZM149.139 -0.619198L149.924 -0.829607L149.714 -1.61486L148.929 -1.40446L149.139 -0.619198ZM141.287 1.48489L142.072 1.27448L141.861 0.489225L141.076 0.699634L141.287 1.48489ZM147.035 -8.47177L147.82 -8.68218L147.61 -9.46743L146.825 -9.25702L147.035 -8.47177ZM36.1776 -92.3887L36.9628 -92.5991L36.7524 -93.3844L35.9672 -93.174L36.1776 -92.3887ZM31.004 -83.4277L30.2187 -83.2173L30.4291 -82.432L31.2144 -82.6425L31.004 -83.4277ZM40.3858 -76.6836L41.171 -76.894L40.9606 -77.6792L40.1754 -77.4688L40.3858 -76.6836ZM25.2555 -73.471L24.4702 -73.2606L24.6806 -72.4754L25.4659 -72.6858L25.2555 -73.471ZM33.1081 -75.5751L32.3228 -75.3647L32.5332 -74.5795L33.3185 -74.7899L33.1081 -75.5751ZM38.2817 -84.5361L39.0669 -84.7465L38.8565 -85.5318L38.0713 -85.3214L38.2817 -84.5361ZM35.4074 -79.5578L36.1927 -79.7682L35.9823 -80.5535L35.197 -80.3431L35.4074 -79.5578ZM27.5548 -77.4537L28.3401 -77.6641L28.1297 -78.4494L27.3444 -78.239L27.5548 -77.4537ZM42.4899 -68.831L43.2751 -69.0414L43.0647 -69.8266L42.2795 -69.6162L42.4899 -68.831ZM27.3595 -65.6184L26.5743 -65.408L26.7847 -64.6228L27.57 -64.8332L27.3595 -65.6184ZM35.2121 -67.7225L34.4269 -67.5121L34.6373 -66.7269L35.4226 -66.9373L35.2121 -67.7225ZM37.5115 -71.7052L38.2968 -71.9156L38.0864 -72.7009L37.3011 -72.4905L37.5115 -71.7052ZM29.6589 -69.6011L30.4442 -69.8115L30.2338 -70.5968L29.4485 -70.3864L29.6589 -69.6011ZM19.5069 -63.5143L18.7217 -63.3039L18.9321 -62.5187L19.7174 -62.7291L19.5069 -63.5143ZM22.3812 -68.4927L21.596 -68.2823L21.8064 -67.497L22.5916 -67.7074L22.3812 -68.4927ZM33.3033 -87.4104L34.0886 -87.6208L33.8782 -88.4061L33.0929 -88.1956L33.3033 -87.4104ZM39.8371 -97.5775L39.6267 -98.3627L38.8414 -98.1523L39.0519 -97.3671L39.8371 -97.5775ZM44.0302 -94.4928L44.8154 -94.7032L44.605 -95.4885L43.8198 -95.2781L44.0302 -94.4928ZM48.2384 -78.7876L49.0236 -78.9981L48.8132 -79.7833L48.028 -79.5729L48.2384 -78.7876ZM46.1343 -86.6402L46.9195 -86.8506L46.7091 -87.6359L45.9239 -87.4255L46.1343 -86.6402ZM41.9261 -102.345L42.7113 -102.556L42.5009 -103.341L41.7157 -103.131L41.9261 -102.345ZM28.8999 -91.2803L28.1146 -91.0699L28.325 -90.2846L29.1103 -90.495L28.8999 -91.2803ZM23.1514 -81.3236L22.3661 -81.1132L22.5765 -80.3279L23.3618 -80.5384L23.1514 -81.3236ZM17.4029 -71.3669L16.6176 -71.1565L16.828 -70.3713L17.6133 -70.5817L17.4029 -71.3669ZM20.2771 -76.3453L19.4919 -76.1349L19.7023 -75.3496L20.4875 -75.56L20.2771 -76.3453ZM11.6544 -61.4103L10.8691 -61.1998L11.0795 -60.4146L11.8648 -60.625L11.6544 -61.4103ZM14.5286 -66.3886L13.7434 -66.1782L13.9538 -65.3929L14.739 -65.6033L14.5286 -66.3886ZM25.4507 -85.3063L26.236 -85.5167L26.0256 -86.302L25.2403 -86.0915L25.4507 -85.3063ZM31.9845 -95.4734L31.7741 -96.2586L30.9888 -96.0482L31.1993 -95.263L31.9845 -95.4734ZM34.0735 -100.241L34.8587 -100.452L34.6483 -101.237L33.8631 -101.027L34.0735 -100.241ZM37.5226 -106.215L36.7373 -106.005L36.9478 -105.22L37.733 -105.43L37.5226 -106.215ZM40.3968 -111.194L39.6116 -110.983L39.822 -110.198L40.6073 -110.408L40.3968 -111.194ZM35.4185 -114.068L34.6333 -113.858L34.8437 -113.072L35.6289 -113.283L35.4185 -114.068ZM38.2927 -119.046L37.5075 -118.836L37.7179 -118.051L38.5032 -118.261L38.2927 -119.046ZM21.0473 -89.1762L20.262 -88.9658L20.4724 -88.1805L21.2577 -88.3909L21.0473 -89.1762ZM15.2988 -79.2195L14.5135 -79.0091L14.7239 -78.2238L15.5092 -78.4343L15.2988 -79.2195ZM9.55029 -69.2628L8.76503 -69.0524L8.97544 -68.2672L9.7607 -68.4776L9.55029 -69.2628ZM12.4245 -74.2412L11.6393 -74.0308L11.8497 -73.2455L12.6349 -73.4559L12.4245 -74.2412ZM3.80178 -59.3062L3.01653 -59.0958L3.22694 -58.3105L4.0122 -58.5209L3.80178 -59.3062ZM6.67602 -64.2845L5.89078 -64.0741L6.10119 -63.2888L6.88643 -63.4992L6.67602 -64.2845ZM18.173 -84.1979L17.3878 -83.9875L17.5982 -83.2022L18.3834 -83.4126L18.173 -84.1979ZM24.1319 -93.3693L23.9215 -94.1545L23.1362 -93.9441L23.3467 -93.1589L24.1319 -93.3693ZM26.7958 -99.1329L26.0105 -98.9225L26.2209 -98.1372L27.0062 -98.3476L26.7958 -99.1329ZM29.67 -104.111L28.8848 -103.901L29.0952 -103.116L29.8804 -103.326L29.67 -104.111ZM32.5442 -109.09L31.759 -108.879L31.9694 -108.094L32.7547 -108.304L32.5442 -109.09ZM43.26 -81.6619L44.0453 -81.8723L43.8349 -82.6576L43.0496 -82.4472L43.26 -81.6619ZM50.3425 -70.935L51.1277 -71.1455L50.9173 -71.9307L50.1321 -71.7203L50.3425 -70.935ZM45.3641 -73.8093L46.1494 -74.0197L45.939 -74.805L45.1537 -74.5946L45.3641 -73.8093ZM41.1559 -89.5145L41.9412 -89.7249L41.7308 -90.5102L40.9455 -90.2997L41.1559 -89.5145ZM163.249 193.385L164.034 193.175L163.824 192.389L163.038 192.6L163.249 193.385ZM168.997 183.428L169.782 183.218L169.572 182.433L168.787 182.643L168.997 183.428ZM159.041 177.68L159.826 177.469L159.615 176.684L158.83 176.895L159.041 177.68ZM174.746 173.472L175.531 173.261L175.321 172.476L174.535 172.686L174.746 173.472ZM166.893 175.576L167.678 175.365L167.468 174.58L166.683 174.791L166.893 175.576ZM161.145 185.532L161.93 185.322L161.719 184.537L160.934 184.747L161.145 185.532ZM164.019 180.554L164.804 180.344L164.594 179.558L163.808 179.769L164.019 180.554ZM171.871 178.45L172.657 178.24L172.446 177.454L171.661 177.665L171.871 178.45ZM156.936 169.827L157.722 169.617L157.511 168.832L156.726 169.042L156.936 169.827ZM172.642 165.619L173.427 165.409L173.216 164.623L172.431 164.834L172.642 165.619ZM164.789 167.723L165.574 167.513L165.364 166.728L164.579 166.938L164.789 167.723ZM161.915 172.702L162.7 172.491L162.49 171.706L161.704 171.916L161.915 172.702ZM169.767 170.597L170.553 170.387L170.342 169.602L169.557 169.812L169.767 170.597ZM180.494 163.515L181.279 163.305L181.069 162.519L180.284 162.73L180.494 163.515ZM177.62 168.493L178.405 168.283L178.195 167.498L177.41 167.708L177.62 168.493ZM166.123 188.407L166.908 188.196L166.698 187.411L165.913 187.621L166.123 188.407ZM160.374 198.363L161.16 198.153L160.949 197.368L160.164 197.578L160.374 198.363ZM155.396 195.489L156.181 195.279L155.971 194.493L155.186 194.704L155.396 195.489ZM151.188 179.784L151.973 179.574L151.763 178.788L150.978 178.999L151.188 179.784ZM153.292 187.637L154.077 187.426L153.867 186.641L153.082 186.851L153.292 187.637ZM157.5 203.342L158.286 203.131L158.075 202.346L157.29 202.556L157.5 203.342ZM171.101 191.281L171.887 191.071L171.676 190.285L170.891 190.496L171.101 191.281ZM176.85 181.324L177.635 181.114L177.425 180.329L176.639 180.539L176.85 181.324ZM182.598 171.368L183.384 171.157L183.173 170.372L182.388 170.582L182.598 171.368ZM179.724 176.346L180.509 176.136L180.299 175.35L179.514 175.561L179.724 176.346ZM188.347 161.411L189.132 161.201L188.922 160.415L188.136 160.626L188.347 161.411ZM185.473 166.389L186.258 166.179L186.047 165.394L185.262 165.604L185.473 166.389ZM173.976 186.303L174.761 186.092L174.55 185.307L173.765 185.517L173.976 186.303ZM168.227 196.259L169.012 196.049L168.802 195.264L168.017 195.474L168.227 196.259ZM165.353 201.238L166.138 201.027L165.928 200.242L165.142 200.452L165.353 201.238ZM162.479 206.216L163.264 206.006L163.053 205.22L162.268 205.431L162.479 206.216ZM159.604 211.194L160.39 210.984L160.179 210.199L159.394 210.409L159.604 211.194ZM164.583 214.069L165.368 213.858L165.158 213.073L164.372 213.283L164.583 214.069ZM161.708 219.047L162.494 218.837L162.283 218.051L161.498 218.262L161.708 219.047ZM178.954 189.177L179.739 188.966L179.529 188.181L178.744 188.392L178.954 189.177ZM184.702 179.22L185.488 179.01L185.277 178.225L184.492 178.435L184.702 179.22ZM190.451 169.264L191.236 169.053L191.026 168.268L190.24 168.478L190.451 169.264ZM187.577 174.242L188.362 174.031L188.152 173.246L187.366 173.457L187.577 174.242ZM196.199 159.307L196.985 159.096L196.774 158.311L195.989 158.522L196.199 159.307ZM193.325 164.285L194.11 164.075L193.9 163.289L193.115 163.5L193.325 164.285ZM181.828 184.199L182.613 183.988L182.403 183.203L181.618 183.413L181.828 184.199ZM176.08 194.155L176.865 193.945L176.654 193.16L175.869 193.37L176.08 194.155ZM173.205 199.134L173.991 198.923L173.78 198.138L172.995 198.348L173.205 199.134ZM170.331 204.112L171.116 203.901L170.906 203.116L170.121 203.327L170.331 204.112ZM167.457 209.09L168.242 208.88L168.032 208.095L167.246 208.305L167.457 209.09ZM156.166 182.658L156.952 182.448L156.741 181.663L155.956 181.873L156.166 182.658ZM149.084 171.931L149.869 171.721L149.659 170.936L148.873 171.146L149.084 171.931ZM154.062 174.806L154.847 174.595L154.637 173.81L153.852 174.02L154.062 174.806ZM158.27 190.511L159.056 190.3L158.845 189.515L158.06 189.726L158.27 190.511ZM138.313 -11.1844L134.779 -10.2376L133.832 -13.7712L133.047 -13.5608L134.204 -9.24194L138.523 -10.3992L138.313 -11.1844ZM61.6885 111.185L65.2222 110.238L66.169 113.772L66.9543 113.562L65.797 109.243L61.4781 110.4L61.6885 111.185ZM406.357 -31.6667L359.634 -19.1474L377.712 48.3221C377.965 49.2644 377.964 50.7375 377.709 51.6725L341.344 187.402C341.091 188.344 340.355 189.619 339.665 190.309L240.303 289.667C239.613 290.357 238.337 291.094 237.403 291.345L169.934 309.423L182.453 356.146L181.668 356.357L160.627 277.831L156.839 263.696L156.835 263.68L156.524 262.518L101.673 277.215C100.731 277.468 99.258 277.467 98.3229 277.212L16.9069 255.397L14.7969 257.511C14.1065 258.201 12.8312 258.938 11.8967 259.189L-1.79817 262.858C-2.74048 263.111 -4.21359 263.11 -5.14864 262.856L-18.8408 259.185C-19.2033 259.089 -19.6204 258.914 -20.0301 258.704L-31.8663 279.205L-32.5732 278.797L-20.7371 258.296C-21.1238 258.046 -21.4834 257.772 -21.7482 257.507L-31.7728 247.484C-32.4628 246.794 -33.2001 245.518 -33.4505 244.584L-37.12 230.889C-37.3725 229.947 -37.3717 228.474 -37.1172 227.539L-36.3414 224.654L-95.9419 165.054C-96.6319 164.363 -97.3692 163.088 -97.6196 162.153L-112.317 107.303L-206.147 132.445L-206.358 131.66L-159.635 119.14L-177.713 51.6707C-177.966 50.7284 -177.965 49.2553 -177.71 48.3203L-141.344 -87.4087C-141.092 -88.3516 -140.356 -89.6261 -139.666 -90.3161L-40.3041 -189.674C-39.6137 -190.364 -38.3384 -191.102 -37.4039 -191.352L30.0655 -209.43L17.5483 -256.145L18.3335 -256.356L43.4774 -162.517L98.3199 -177.212C99.2623 -177.465 100.735 -177.464 101.67 -177.21L183.086 -155.394L185.204 -157.51C185.895 -158.2 187.17 -158.938 188.104 -159.188L201.799 -162.858C202.742 -163.11 204.215 -163.109 205.15 -162.855L218.842 -159.185C219.204 -159.088 219.622 -158.914 220.031 -158.704L231.867 -179.205L232.574 -178.796L220.738 -158.296C221.125 -158.046 221.485 -157.772 221.749 -157.506L231.774 -147.483C232.464 -146.793 233.201 -145.518 233.452 -144.583L237.121 -130.888C237.374 -129.946 237.373 -128.473 237.118 -127.538L236.345 -124.646L295.945 -65.045C296.635 -64.3545 297.37 -63.0871 297.623 -62.1448L312.32 -7.29446L406.158 -32.4384L406.369 -31.6531L406.357 -31.6667ZM-38.5148 128.28C-38.3023 129.073 -37.628 130.239 -37.0523 130.817L19.1806 187.053C19.7662 187.637 20.9212 188.303 21.7195 188.519L98.5378 209.1C99.3361 209.315 100.673 209.311 101.466 209.098L139.481 198.912L129.17 160.434L101.679 167.801C100.736 168.053 99.2632 168.052 98.3281 167.798L42.5552 152.856C42.1927 152.759 41.7756 152.585 41.3659 152.375L37.3247 159.374L46.9827 164.95L46.5745 165.657L36.9165 160.081L31.3693 169.69L30.6623 169.281L36.2096 159.673L26.6014 154.126L27.0096 153.419L36.6178 158.966L40.659 151.967C40.2722 151.717 39.9126 151.443 39.6478 151.177L-1.17899 110.348C-1.86896 109.657 -2.60625 108.382 -2.85664 107.447L-10.2231 79.9555L-48.7008 90.2655L-38.5148 128.28ZM-13.3309 -28.8267L-18.9242 -19.1388L-1.96797 -9.34915C-1.71811 -9.73593 -1.44412 -10.0955 -1.17842 -10.3602L39.6512 -51.1871C40.3416 -51.8771 41.6169 -52.6143 42.5514 -52.8647L70.0433 -60.2312L43.0204 -161.082C42.9438 -160.834 42.845 -160.606 42.7301 -160.407L-33.8571 -27.7537L-19.629 -19.5391L-14.0357 -29.227L-13.3288 -28.8188L-13.3309 -28.8267ZM-59.5154 -41.625L-59.1073 -42.3319L-34.564 -28.1619L42.0232 -160.815C42.1094 -160.964 42.1851 -161.153 42.2508 -161.347L-11.9477 -146.825C-12.7408 -146.612 -13.9068 -145.938 -14.4847 -145.362L-95.3584 -64.4829C-95.9421 -63.8972 -96.6089 -62.7422 -96.8242 -61.9439L-126.431 48.5344C-126.646 49.3327 -126.641 50.6696 -126.429 51.4627L-111.881 105.756L-34.9722 -27.4549L-59.5154 -41.625ZM238.508 -28.2772C238.296 -29.0703 237.621 -30.2362 237.046 -30.8142L180.813 -87.0502C180.227 -87.6339 179.072 -88.3007 178.274 -88.516L101.456 -109.097C100.657 -109.313 99.3203 -109.308 98.5271 -109.095L60.5128 -98.9093L70.8228 -60.4316L98.3148 -67.7981C99.2571 -68.0506 100.73 -68.0497 101.665 -67.7953L157.438 -52.853C157.801 -52.7566 158.218 -52.5822 158.627 -52.3721L162.669 -59.3717L153.011 -64.9477L153.419 -65.6546L163.077 -60.0786L168.624 -69.6868L169.331 -69.2787L163.784 -59.6705L173.392 -54.1232L172.984 -53.4163L163.376 -58.9636L159.334 -51.964C159.721 -51.7142 160.081 -51.4402 160.345 -51.1745L201.172 -10.3448C201.862 -9.65439 202.6 -8.37909 202.85 -7.44465L210.216 20.0473L248.694 9.73721L238.508 -28.2772ZM213.357 128.762L218.915 119.134L201.959 109.344C201.709 109.731 201.435 110.09 201.17 110.355L160.34 151.182C159.65 151.872 158.382 152.607 157.44 152.86L129.948 160.226L156.973 261.085C157.05 260.837 157.148 260.609 157.263 260.409L233.85 127.756L219.622 119.542L214.064 129.17L213.357 128.762ZM130.295 159.291L157.237 152.072C158.03 151.86 159.196 151.185 159.774 150.61L200.604 109.783C200.823 109.564 201.047 109.269 201.262 108.942L169.839 90.7994L130.295 159.291ZM201.67 108.235C201.846 107.885 201.99 107.543 202.07 107.244L217.012 51.4711C217.227 50.6728 217.223 49.3358 217.01 48.5427L209.791 21.6005L170.247 90.0925L201.67 108.235ZM193.151 19.1492L194.519 24.2534L209.439 20.2556L202.073 -7.23635C201.86 -8.02945 201.186 -9.19537 200.61 -9.77334L159.783 -50.603C159.565 -50.8221 159.269 -51.0459 158.942 -51.2613L140.598 -19.4895L139.892 -19.8977L158.235 -51.6694C157.885 -51.845 157.543 -51.9891 157.244 -52.0688L101.471 -67.0111C100.673 -67.2264 99.3361 -67.2217 98.5429 -67.0092L70.8155 -59.5796L-9.08858 78.8183L5.2738 74.9699L3.90614 69.8657L4.69139 69.6553L6.05906 74.7595L20.979 70.7617L16.876 55.4492L17.6613 55.2388L21.7642 70.5513L44.5367 64.4494L41.1155 51.6811C40.863 50.7388 40.8638 49.2657 41.1183 48.3306L48.1731 22.016C48.4254 21.0731 49.1613 19.7986 49.8517 19.1086L69.1134 -0.158382C69.8038 -0.848375 71.0792 -1.58566 72.0136 -1.83605L85.1746 -5.36251L85.385 -4.57726L72.2241 -1.05079C71.4309 -0.838274 70.265 -0.163977 69.687 0.411722L50.4253 19.6787C49.8415 20.2644 49.1748 21.4194 48.9594 22.2177L41.9046 48.5324C41.6892 49.3307 41.694 50.6676 41.9065 51.4607L45.3277 64.2291L60.2477 60.2313L57.9542 51.672C57.7017 50.7297 57.7025 49.2566 57.957 48.3215L62.7555 30.4218C63.0078 29.4789 63.7436 28.2044 64.434 27.5145L77.5364 14.409C78.2268 13.719 79.5021 12.9817 80.4365 12.7314L98.3326 7.93612C99.2749 7.68363 100.748 7.6845 101.683 7.93892L119.583 12.7374C119.945 12.8339 120.362 13.0082 120.772 13.2183L128.4 0.00578037L129.107 0.4139L121.479 13.6264C121.866 13.8763 122.225 14.1503 122.49 14.416L135.596 27.5183C136.286 28.2087 137.023 29.484 137.273 30.4185L139.567 38.9778L178.044 28.6678L173.941 13.3552L174.727 13.1448L178.83 28.4573L193.75 24.4596L192.382 19.3554L193.167 19.145L193.151 19.1492ZM106.972 77.5896L106.341 75.2338C106.08 74.2601 106.275 72.8192 106.773 71.9452L122.391 44.8928C122.897 44.0167 124.05 43.1355 125.024 42.8746L138.766 39.1924L136.472 30.6331C136.26 29.84 135.585 28.674 135.01 28.0961L121.904 14.9938C121.686 14.7746 121.39 14.5508 121.063 14.3354L117.602 20.3294L116.895 19.9212L120.356 13.9273C120.006 13.7518 119.664 13.6076 119.365 13.5279L101.466 8.72941C100.667 8.51408 99.3304 8.51884 98.5373 8.73135L80.6412 13.5266C79.8481 13.7391 78.6822 14.4134 78.1042 14.9891L65.0019 28.0945C64.4182 28.6802 63.7513 29.8352 63.536 30.6335L58.7375 48.5332C58.5222 49.3315 58.527 50.6684 58.7395 51.4616L61.0329 60.0209L74.7749 56.3387C75.5366 56.1346 76.514 55.3846 76.9106 54.6976L92.5293 27.6453C92.9259 26.9582 93.0868 25.7369 92.8827 24.9752L92.2515 22.6194L93.0367 22.409L93.668 24.7647C93.9289 25.7385 93.7342 27.1793 93.2362 28.0534L77.6175 55.1057C77.1117 55.9819 75.9591 56.863 74.9854 57.124L61.2433 60.8061L63.5368 69.3654C63.7493 70.1586 64.4236 71.3245 64.9993 71.9025L78.1047 85.0048C78.3234 85.224 78.619 85.4478 78.946 85.6631L82.4124 79.6592L83.1193 80.0674L79.653 86.0712C80.003 86.2468 80.3446 86.3909 80.6437 86.4707L98.5434 91.2692C99.3417 91.4845 100.679 91.4797 101.472 91.2672L119.368 86.472C120.161 86.2595 121.327 85.5852 121.905 85.0095L135.007 71.904C135.591 71.3184 136.258 70.1634 136.473 69.3651L141.272 51.4654C141.487 50.6671 141.482 49.3301 141.27 48.537L138.976 39.9777L125.234 43.6599C124.472 43.8639 123.495 44.614 123.098 45.301L107.48 72.3533C107.083 73.0403 106.922 74.2617 107.126 75.0234L107.758 77.3792L106.972 77.5896ZM69.6983 -59.2887L42.7561 -52.0695C41.963 -51.857 40.797 -51.1827 40.219 -50.607L-0.610588 -9.78017C-0.829752 -9.56155 -1.05351 -9.26592 -1.26887 -8.93889L30.1544 9.20336L69.6983 -59.2887ZM-1.67701 -8.23197C-1.85254 -7.88195 -1.99669 -7.54035 -2.07644 -7.24124L-17.0187 48.5317C-17.234 49.33 -17.2293 50.667 -17.0168 51.4601L-9.79762 78.4023L29.7463 9.91026L-1.67701 -8.23197ZM-9.44567 79.7472L-2.07923 107.239C-1.86671 108.032 -1.19241 109.198 -0.616722 109.776L40.2101 150.606C40.4287 150.825 40.7244 151.049 41.0514 151.264L59.3948 119.492L60.1017 119.9L41.7583 151.672C42.1083 151.848 42.45 151.992 42.7491 152.072L98.522 167.014C99.3203 167.229 100.657 167.224 101.45 167.012L129.178 159.582L209.082 21.1845L194.72 25.0329L196.087 30.1371L195.302 30.3475L193.934 25.2433L179.014 29.2411L183.117 44.5536L182.332 44.764L178.229 29.4515L155.457 35.5534L158.878 48.3217C159.13 49.264 159.13 50.7371 158.875 51.6721L151.82 77.9868C151.568 78.9297 150.832 80.2042 150.142 80.8942L130.88 100.161C130.189 100.851 128.922 101.586 127.98 101.839L114.819 105.365L114.608 104.58L127.769 101.054C128.562 100.841 129.728 100.167 130.306 99.5911L149.568 80.324C150.152 79.7384 150.819 78.5834 151.034 77.7851L158.089 51.4704C158.304 50.6721 158.299 49.3351 158.087 48.542L154.666 35.7737L139.746 39.7715L142.039 48.3308C142.292 49.2731 142.291 50.7462 142.036 51.6813L137.238 69.581C136.986 70.5239 136.25 71.7983 135.559 72.4883L122.457 85.5937C121.767 86.2837 120.491 87.021 119.557 87.2714L101.661 92.0666C100.718 92.3191 99.2453 92.3183 98.3102 92.0638L80.4106 87.2654C80.0481 87.1689 79.631 86.9945 79.2213 86.7845L71.593 99.997L70.8861 99.5888L78.5144 86.3763C78.1276 86.1265 77.768 85.8525 77.5032 85.5868L64.3978 72.4845C63.7078 71.794 62.9726 70.5266 62.7201 69.5843L60.4267 61.0249L21.949 71.335L26.052 86.6476L25.2667 86.858L21.1637 71.5454L6.2438 75.5432L7.61147 80.6474L6.82621 80.8578L5.45855 75.7536L-9.46138 79.7514L-9.44567 79.7472ZM157.742 261.35L211.941 246.827C212.734 246.615 213.9 245.941 214.478 245.365L295.352 164.486C295.935 163.9 296.602 162.745 296.818 161.947L326.424 51.4684C326.64 50.6701 326.635 49.3332 326.422 48.54L311.875 -5.75276L234.966 127.458L259.509 141.628L259.101 142.335L234.557 128.165L157.97 260.818C157.884 260.967 157.808 261.155 157.742 261.35ZM220.32 -157.594L214.043 -146.722C214.43 -146.472 214.789 -146.198 215.054 -145.932L235.669 -125.315L236.32 -127.753C236.535 -128.552 236.531 -129.888 236.318 -130.682L232.649 -144.376C232.436 -145.17 231.762 -146.336 231.186 -146.914L221.161 -156.936C220.943 -157.155 220.647 -157.379 220.32 -157.594ZM174.283 -114.059C174.495 -113.266 175.169 -112.1 175.745 -111.522L185.77 -101.5C186.355 -100.916 187.51 -100.249 188.309 -100.034L202.001 -96.3634C202.799 -96.1481 204.136 -96.1529 204.929 -96.3654L218.624 -100.035C219.417 -100.247 220.583 -100.922 221.161 -101.497L231.184 -111.522C231.768 -112.108 232.434 -113.263 232.65 -114.061L235.424 -124.407L214.476 -145.357C214.257 -145.576 213.962 -145.799 213.635 -146.015L209.651 -139.115L213.92 -123.182L197.987 -118.913L192.325 -109.105L191.618 -109.514L197.28 -119.321L195.326 -126.616L172.553 -120.514L174.283 -114.059ZM212.928 -146.423C212.578 -146.599 212.236 -146.743 211.937 -146.822L183.321 -154.489L175.747 -146.914C175.164 -146.328 174.497 -145.173 174.281 -144.375L170.611 -130.683C170.396 -129.884 170.401 -128.547 170.613 -127.754L172.343 -121.299L195.115 -127.401L193.011 -135.254L208.944 -139.523L212.928 -146.423ZM205.409 -133.4L208.369 -138.527L194.007 -134.679L197.855 -120.317L200.816 -125.444L201.523 -125.036L198.562 -119.908L212.924 -123.757L209.076 -138.119L206.116 -132.991L205.409 -133.4ZM183.986 -155.147L212.149 -147.603C212.511 -147.506 212.928 -147.332 213.338 -147.122L219.615 -157.995C219.265 -158.17 218.924 -158.314 218.625 -158.394L204.932 -162.064C204.134 -162.28 202.797 -162.275 202.004 -162.063L188.309 -158.393C187.516 -158.18 186.35 -157.506 185.772 -156.93L183.986 -155.147ZM43.6821 -161.722L60.3045 -99.6867L98.3188 -109.873C99.2611 -110.125 100.734 -110.124 101.669 -109.87L178.488 -89.2887C179.43 -89.0364 180.705 -88.3006 181.395 -87.6102L237.628 -31.3741C238.318 -30.6837 239.055 -29.4084 239.305 -28.474L249.491 9.5404L268.338 4.49057L267.286 0.564288L275.923 -1.75021L278.238 6.88762L269.6 9.20211L268.548 5.27583L210.439 20.8461L217.805 48.3381C218.058 49.2804 218.057 50.7535 217.803 51.6885L202.86 107.461C202.764 107.824 202.589 108.241 202.379 108.651L219.336 118.44L224.825 108.932L225.532 109.34L220.043 118.849L234.271 127.063L311.588 -6.85423L296.83 -61.9323C296.617 -62.7254 295.943 -63.8913 295.367 -64.4693L236.1 -123.738L233.448 -113.846C233.196 -112.903 232.46 -111.628 231.77 -110.938L221.747 -100.914C221.057 -100.224 219.781 -99.4864 218.847 -99.236L205.152 -95.5665C204.21 -95.314 202.736 -95.3149 201.801 -95.5693L188.109 -99.2396C187.166 -99.4919 185.892 -100.228 185.202 -100.918L175.177 -110.941C174.487 -111.631 173.75 -112.907 173.5 -113.841L171.77 -120.296L148.605 -114.089L148.394 -114.874L171.56 -121.081L169.83 -127.536C169.577 -128.478 169.578 -129.951 169.833 -130.886L173.503 -144.579C173.755 -145.521 174.491 -146.796 175.182 -147.486L182.423 -154.729L101.461 -176.421C100.663 -176.637 99.3255 -176.632 98.5325 -176.419L43.69 -161.724L43.6821 -161.722ZM277.232 6.30703L275.339 -0.760284L268.271 1.1334L270.165 8.20072L277.232 6.30703ZM-112.523 106.533L-127.22 51.6831C-127.472 50.7408 -127.472 49.2677 -127.217 48.3326L-97.6105 -62.1456C-97.3582 -63.0885 -96.6224 -64.363 -95.932 -65.053L-15.0583 -145.932C-14.3679 -146.622 -13.1004 -147.357 -12.1582 -147.61L42.4331 -162.238C42.4807 -162.688 42.4713 -163.131 42.3766 -163.485L38.5892 -177.62L30.278 -208.637L-37.1914 -190.559C-37.9845 -190.346 -39.1504 -189.672 -39.7284 -189.096L-139.09 -89.7381C-139.674 -89.1524 -140.341 -87.9975 -140.556 -87.1991L-176.922 48.5299C-177.137 49.3282 -177.133 50.6651 -176.92 51.4582L-158.842 118.928L-112.511 106.514L-112.523 106.533ZM-20.3326 257.607L-14.0552 246.734C-14.442 246.485 -14.8016 246.211 -15.0663 245.945L-35.6813 225.327L-36.3346 227.758C-36.5499 228.556 -36.5451 229.893 -36.3326 230.686L-32.6631 244.381C-32.4506 245.174 -31.7763 246.34 -31.2006 246.918L-21.176 256.941C-20.9573 257.16 -20.6617 257.384 -20.3347 257.599L-20.3326 257.607ZM25.7049 214.072C25.4924 213.279 24.8181 212.113 24.2424 211.535L14.2177 201.512C13.6321 200.929 12.4771 200.262 11.6788 200.046L-2.01338 196.376C-2.81171 196.161 -4.14865 196.166 -4.94176 196.378L-18.6367 200.048C-19.4298 200.26 -20.5957 200.934 -21.1737 201.51L-31.1963 211.535C-31.7801 212.12 -32.4469 213.275 -32.6622 214.074L-35.4342 224.428L-14.4862 245.377C-14.2676 245.596 -13.972 245.82 -13.645 246.035L-9.66125 239.135L-13.9305 223.203L2.00244 218.933L7.66471 209.126L8.37163 209.534L2.70937 219.341L4.66408 226.637L27.4366 220.535L25.707 214.08L25.7049 214.072ZM-12.9401 246.436C-12.5901 246.611 -12.2485 246.755 -11.9494 246.835L16.667 254.502L24.2481 246.924C24.8318 246.339 25.4986 245.184 25.714 244.385L29.3842 230.693C29.5996 229.895 29.5948 228.558 29.3823 227.765L27.6527 221.31L4.88022 227.412L6.98432 235.264L-8.94858 239.534L-12.9323 246.434L-12.9401 246.436ZM-5.42111 233.412L-8.38158 238.54L5.98081 234.692L2.13241 220.329L-0.828063 225.457L-1.53498 225.049L1.42549 219.921L-12.9369 223.77L-9.08851 238.132L-6.12803 233.004L-5.42111 233.412ZM16.0017 255.16L-12.1611 247.616C-12.5236 247.519 -12.9406 247.345 -13.3504 247.135L-19.6277 258.007C-19.2777 258.183 -18.9361 258.327 -18.637 258.407L-4.94481 262.077C-4.14649 262.293 -2.80954 262.288 -2.01643 262.075L11.6785 258.406C12.4716 258.193 13.6375 257.519 14.2155 256.943L15.9939 255.162L16.0017 255.16ZM156.313 261.733L139.691 199.697L101.677 209.883C100.734 210.136 99.2612 210.135 98.3261 209.88L21.5079 189.299C20.565 189.047 19.2905 188.311 18.6005 187.621L-37.6324 131.385C-38.3224 130.694 -39.0597 129.419 -39.3101 128.485L-49.496 90.4702L-68.3422 95.52L-67.2901 99.4463L-75.928 101.761L-78.2425 93.123L-69.6046 90.8085L-68.5526 94.7348L-10.4434 79.1645L-17.8099 51.6726C-18.0624 50.7303 -18.0615 49.2572 -17.8071 48.3221L-2.86482 -7.45081C-2.76837 -7.81331 -2.59398 -8.23033 -2.38395 -8.6401L-19.3402 -18.4298L-24.7897 -8.99087L-25.4967 -9.399L-20.0471 -18.8379L-34.2752 -27.0526L-111.592 106.865L-96.8343 161.943C-96.6218 162.736 -95.9475 163.902 -95.3718 164.48L-36.1042 223.749L-33.4548 213.848C-33.2025 212.906 -32.4666 211.631 -31.7762 210.941L-21.7536 200.916C-21.0632 200.226 -19.7879 199.489 -18.8534 199.239L-5.15849 195.569C-4.21617 195.317 -2.74308 195.318 -1.80802 195.572L11.8842 199.242C12.8271 199.495 14.1015 200.23 14.7915 200.921L24.8161 210.944C25.5061 211.634 26.2434 212.909 26.4938 213.844L28.2234 220.299L51.3885 214.091L51.5989 214.877L28.4338 221.084L30.1634 227.539C30.4158 228.481 30.415 229.954 30.1605 230.889L26.4903 244.581C26.238 245.524 25.5021 246.799 24.8117 247.489L17.5623 254.733L98.5246 276.426C99.323 276.641 100.66 276.637 101.453 276.424L156.303 261.727L156.313 261.733ZM-77.2369 93.7036L-75.3432 100.771L-68.2759 98.8773L-70.1695 91.8099L-77.2369 93.7036ZM358.849 -18.937L312.518 -6.52281L327.215 48.3275C327.468 49.2698 327.467 50.7429 327.213 51.678L297.606 162.156C297.354 163.099 296.618 164.374 295.927 165.064L215.054 245.943C214.363 246.633 213.088 247.37 212.154 247.621L157.562 262.248C157.513 262.691 157.53 263.132 157.622 263.478L169.725 308.646L237.195 290.567C237.988 290.355 239.154 289.681 239.732 289.105L339.094 189.747C339.677 189.161 340.344 188.006 340.559 187.208L376.925 51.4787C377.141 50.6804 377.136 49.3434 376.923 48.5503L358.845 -18.9192L358.849 -18.937Z" fill="url(#paint1_linear_3830_6752)"/>
</g>
<g filter="url(#filter0_dd_3830_6752)">
<rect x="76.0005" y="25.9998" width="48" height="48" rx="8" fill="white"/>
</g>
<g clip-path="url(#clip2_3830_6752)">
<path d="M91.5964 37L98.1447 40.7475H101.833L108.405 37L109.718 38.3136L104.261 43.7711C103.9 44.1314 103.186 44.4262 102.675 44.4262H97.3291C96.8181 44.4262 96.1039 44.1314 95.7436 43.7711L90.2828 38.3136L91.5964 37ZM109.718 61.6864L104.261 56.2289C103.9 55.8686 103.186 55.5738 102.675 55.5738H97.3291C96.8181 55.5738 96.1039 55.8686 95.7436 56.2289L90.2861 61.6864L91.5997 63L98.171 59.2525H101.86L108.408 63L109.718 61.6864ZM106.229 45.7398C105.869 46.1002 105.574 46.8143 105.574 47.3253V52.6714C105.574 53.1824 105.869 53.8966 106.229 54.2569L111.687 59.7144L113 58.4008L109.253 51.8295V48.141L113 41.5927L111.687 40.2791L106.229 45.7398ZM88.3141 59.7176L93.7716 54.2602C94.1319 53.8998 94.4267 53.1857 94.4267 52.6747V47.3286C94.4267 46.8176 94.1319 46.1034 93.7716 45.7431L88.3141 40.2823L87.0005 41.5959L90.748 48.1672V51.8557L87.0005 58.4041L88.3141 59.7176Z" fill="#1D211C"/>
</g>
</g>
<defs>
<filter id="filter0_dd_3830_6752" x="73.0005" y="24.9998" width="54" height="56" filterUnits="userSpaceOnUse" color-interpolation-filters="sRGB">
<feFlood flood-opacity="0" result="BackgroundImageFix"/>
<feColorMatrix in="SourceAlpha" type="matrix" values="0 0 0 0 0 0 0 0 0 0 0 0 0 0 0 0 0 0 127 0" result="hardAlpha"/>
<feMorphology radius="1" operator="erode" in="SourceAlpha" result="effect1_dropShadow_3830_6752"/>
<feOffset dy="1"/>
<feGaussianBlur stdDeviation="1.5"/>
<feColorMatrix type="matrix" values="0 0 0 0 0.0627451 0 0 0 0 0.0941176 0 0 0 0 0.156863 0 0 0 0.04 0"/>
<feBlend mode="normal" in2="BackgroundImageFix" result="effect1_dropShadow_3830_6752"/>
<feColorMatrix in="SourceAlpha" type="matrix" values="0 0 0 0 0 0 0 0 0 0 0 0 0 0 0 0 0 0 127 0" result="hardAlpha"/>
<feMorphology radius="2" operator="erode" in="SourceAlpha" result="effect2_dropShadow_3830_6752"/>
<feOffset dy="4"/>
<feGaussianBlur stdDeviation="2.5"/>
<feColorMatrix type="matrix" values="0 0 0 0 0.0627451 0 0 0 0 0.0941176 0 0 0 0 0.156863 0 0 0 0.08 0"/>
<feBlend mode="normal" in2="effect1_dropShadow_3830_6752" result="effect2_dropShadow_3830_6752"/>
<feBlend mode="normal" in="SourceGraphic" in2="effect2_dropShadow_3830_6752" result="shape"/>
</filter>
<linearGradient id="paint0_linear_3830_6752" x1="0" y1="0" x2="21.3862" y2="129.498" gradientUnits="userSpaceOnUse">
<stop stop-color="#FAFAFA"/>
<stop offset="1" stop-color="#EFF1EF"/>
</linearGradient>
<linearGradient id="paint1_linear_3830_6752" x1="-3.19793" y1="-0.355602" x2="134.814" y2="94.139" gradientUnits="userSpaceOnUse">
<stop stop-color="white"/>
<stop offset="1" stop-color="#DFE2DF"/>
</linearGradient>
<clipPath id="clip0_3830_6752">
<rect width="200" height="100" fill="white"/>
</clipPath>
<clipPath id="clip1_3830_6752">
<rect width="634.109" height="634.109" fill="white" transform="translate(-288.31 -174.191) rotate(-15)"/>
</clipPath>
<clipPath id="clip2_3830_6752">
<rect width="26" height="26" fill="white" transform="translate(87.0005 37)"/>
</clipPath>
</defs>
</svg>
