<svg width="600" height="260" viewBox="0 0 600 260" fill="none" xmlns="http://www.w3.org/2000/svg">
<g clip-path="url(#clip0_3827_4354)">
<g filter="url(#filter0_ddii_3827_4354)">
<path d="M372 46.8C372 42.3196 372 40.0794 372.872 38.3681C373.639 36.8628 374.863 35.6389 376.368 34.8719C378.079 34 380.32 34 384.8 34H519.2C523.68 34 525.921 34 527.632 34.8719C529.137 35.6389 530.361 36.8628 531.128 38.3681C532 40.0794 532 42.3196 532 46.8V53.2C532 57.6804 532 59.9206 531.128 61.6319C530.361 63.1372 529.137 64.3611 527.632 65.1281C525.921 66 523.68 66 519.2 66H384.8C380.32 66 378.079 66 376.368 65.1281C374.863 64.3611 373.639 63.1372 372.872 61.6319C372 59.9206 372 57.6804 372 53.2V46.8Z" fill="#2F312E" shape-rendering="crispEdges"/>
<path d="M380 48.4C380 46.1598 380 45.0397 380.436 44.184C380.819 43.4314 381.431 42.8195 382.184 42.436C383.04 42 384.16 42 386.4 42H389.6C391.84 42 392.96 42 393.816 42.436C394.569 42.8195 395.181 43.4314 395.564 44.184C396 45.0397 396 46.1598 396 48.4V51.6C396 53.8402 396 54.9603 395.564 55.816C395.181 56.5686 394.569 57.1805 393.816 57.564C392.96 58 391.84 58 389.6 58H386.4C384.16 58 383.04 58 382.184 57.564C381.431 57.1805 380.819 56.5686 380.436 55.816C380 54.9603 380 53.8402 380 51.6V48.4Z" fill="#BCFE68"/>
<path d="M386.75 53.7495C386.43 53.7495 386.11 53.6271 385.866 53.3833L383.367 50.8836C382.878 50.3949 382.878 49.605 383.367 49.1163C383.855 48.6276 384.645 48.6276 385.134 49.1163L386.75 50.7324L390.866 46.6165C391.355 46.1278 392.145 46.1278 392.633 46.6165C393.122 47.1052 393.122 47.8951 392.633 48.3838L387.634 53.3833C387.39 53.6271 387.07 53.7495 386.75 53.7495Z" fill="#111210"/>
<path d="M409.6 46.9V47.85H407.5V54H406.5V47.85H404.4V46.9H409.6ZM413.996 54.16C412.306 54.16 411.356 52.8 411.356 50.46C411.356 48.1 412.306 46.74 413.996 46.74C415.686 46.74 416.636 48.1 416.636 50.46C416.636 52.8 415.686 54.16 413.996 54.16ZM412.406 50.46C412.406 52.23 412.966 53.21 413.996 53.21C415.026 53.21 415.586 52.23 415.586 50.46C415.586 48.68 415.026 47.69 413.996 47.69C412.966 47.69 412.406 48.68 412.406 50.46ZM421.072 46.9C422.632 46.9 423.582 47.74 423.582 49.09C423.582 50.47 422.632 51.32 421.072 51.32H419.842V54H418.852V46.9H421.072ZM419.842 50.37H421.022C422.022 50.37 422.532 49.93 422.532 49.09C422.532 48.28 422.022 47.85 421.022 47.85H419.842V50.37ZM430.088 46.9V47.85H428.488V53.05H430.138V54H425.838V53.05H427.488V47.85H425.888V46.9H430.088ZM437.674 51.7C437.404 53.22 436.474 54.16 435.124 54.16C433.354 54.16 432.344 52.73 432.344 50.46C432.344 48.17 433.354 46.74 435.124 46.74C436.394 46.74 437.304 47.62 437.624 49.05L436.564 49.12C436.324 48.2 435.814 47.69 435.114 47.69C434.004 47.69 433.384 48.68 433.384 50.46C433.384 52.23 434.004 53.21 435.114 53.21C435.884 53.21 436.414 52.66 436.624 51.64L437.674 51.7ZM449.197 48.51L449.937 46.9H450.487L449.957 48.51H450.477V49.75H449.197V48.51ZM447.457 49.75V48.51L448.197 46.9H448.747L448.217 48.51H448.737V49.75H447.457ZM453.203 54L455.353 46.9H456.593L458.743 54H457.713L457.173 52.14H454.773L454.233 54H453.203ZM455.023 51.26H456.923L455.973 48L455.023 51.26ZM462.749 48.14L462.009 49.75H461.459L461.989 48.14H461.469V46.9H462.749V48.14ZM463.199 49.75L463.729 48.14H463.209V46.9H464.489V48.14L463.749 49.75H463.199Z" fill="#ECEEEC"/>
</g>
<g filter="url(#filter1_ddii_3827_4354)">
<path d="M372 86.8C372 82.3196 372 80.0794 372.872 78.3681C373.639 76.8628 374.863 75.6389 376.368 74.8719C378.079 74 380.32 74 384.8 74H519.2C523.68 74 525.921 74 527.632 74.8719C529.137 75.6389 530.361 76.8628 531.128 78.3681C532 80.0794 532 82.3196 532 86.8V93.2C532 97.6804 532 99.9206 531.128 101.632C530.361 103.137 529.137 104.361 527.632 105.128C525.921 106 523.68 106 519.2 106H384.8C380.32 106 378.079 106 376.368 105.128C374.863 104.361 373.639 103.137 372.872 101.632C372 99.9206 372 97.6804 372 93.2V86.8Z" fill="#2F312E" shape-rendering="crispEdges"/>
<path d="M380 88.4C380 86.1598 380 85.0397 380.436 84.184C380.819 83.4314 381.431 82.8195 382.184 82.436C383.04 82 384.16 82 386.4 82H389.6C391.84 82 392.96 82 393.816 82.436C394.569 82.8195 395.181 83.4314 395.564 84.184C396 85.0397 396 86.1598 396 88.4V91.6C396 93.8402 396 94.9603 395.564 95.816C395.181 96.5686 394.569 97.1805 393.816 97.564C392.96 98 391.84 98 389.6 98H386.4C384.16 98 383.04 98 382.184 97.564C381.431 97.1805 380.819 96.5686 380.436 95.816C380 94.9603 380 93.8402 380 91.6V88.4Z" fill="#BCFE68"/>
<path d="M386.75 93.7495C386.43 93.7495 386.11 93.6271 385.866 93.3833L383.367 90.8836C382.878 90.3949 382.878 89.605 383.367 89.1163C383.855 88.6276 384.645 88.6276 385.134 89.1163L386.75 90.7324L390.866 86.6165C391.355 86.1278 392.145 86.1278 392.633 86.6165C393.122 87.1052 393.122 87.8951 392.633 88.3838L387.634 93.3833C387.39 93.6271 387.07 93.7495 386.75 93.7495Z" fill="#111210"/>
<path d="M409.6 86.9V87.85H407.5V94H406.5V87.85H404.4V86.9H409.6ZM413.996 94.16C412.306 94.16 411.356 92.8 411.356 90.46C411.356 88.1 412.306 86.74 413.996 86.74C415.686 86.74 416.636 88.1 416.636 90.46C416.636 92.8 415.686 94.16 413.996 94.16ZM412.406 90.46C412.406 92.23 412.966 93.21 413.996 93.21C415.026 93.21 415.586 92.23 415.586 90.46C415.586 88.68 415.026 87.69 413.996 87.69C412.966 87.69 412.406 88.68 412.406 90.46ZM421.072 86.9C422.632 86.9 423.582 87.74 423.582 89.09C423.582 90.47 422.632 91.32 421.072 91.32H419.842V94H418.852V86.9H421.072ZM419.842 90.37H421.022C422.022 90.37 422.532 89.93 422.532 89.09C422.532 88.28 422.022 87.85 421.022 87.85H419.842V90.37ZM430.088 86.9V87.85H428.488V93.05H430.138V94H425.838V93.05H427.488V87.85H425.888V86.9H430.088ZM437.674 91.7C437.404 93.22 436.474 94.16 435.124 94.16C433.354 94.16 432.344 92.73 432.344 90.46C432.344 88.17 433.354 86.74 435.124 86.74C436.394 86.74 437.304 87.62 437.624 89.05L436.564 89.12C436.324 88.2 435.814 87.69 435.114 87.69C434.004 87.69 433.384 88.68 433.384 90.46C433.384 92.23 434.004 93.21 435.114 93.21C435.884 93.21 436.414 92.66 436.624 91.64L437.674 91.7ZM449.197 88.51L449.937 86.9H450.487L449.957 88.51H450.477V89.75H449.197V88.51ZM447.457 89.75V88.51L448.197 86.9H448.747L448.217 88.51H448.737V89.75H447.457ZM453.713 94V86.9H455.703C457.353 86.9 458.263 87.6 458.263 88.87C458.263 89.64 457.723 90.21 456.923 90.33C457.943 90.44 458.563 91.05 458.563 91.99C458.563 93.24 457.633 94 456.103 94H453.713ZM454.713 93.05H456.083C456.973 93.05 457.523 92.64 457.523 91.96C457.523 91.26 457.003 90.86 456.083 90.86H454.713V93.05ZM454.713 89.92H455.713C456.683 89.92 457.223 89.55 457.223 88.89C457.223 88.22 456.683 87.85 455.713 87.85H454.713V89.92ZM462.749 88.14L462.009 89.75H461.459L461.989 88.14H461.469V86.9H462.749V88.14ZM463.199 89.75L463.729 88.14H463.209V86.9H464.489V88.14L463.749 89.75H463.199Z" fill="#ECEEEC"/>
</g>
<path d="M384.8 114.5H519.2C521.448 114.5 523.105 114.5 524.414 114.607C525.717 114.714 526.632 114.923 527.405 115.317C528.816 116.037 529.964 117.184 530.683 118.595C531.077 119.368 531.286 120.283 531.393 121.586C531.5 122.895 531.5 124.552 531.5 126.8V133.2C531.5 135.448 531.5 137.105 531.393 138.414C531.286 139.717 531.077 140.632 530.683 141.405C529.964 142.816 528.816 143.963 527.405 144.683C526.632 145.077 525.717 145.286 524.414 145.393C523.105 145.5 521.448 145.5 519.2 145.5H384.8C382.552 145.5 380.895 145.5 379.586 145.393C378.283 145.286 377.368 145.077 376.595 144.683C375.184 143.963 374.037 142.816 373.317 141.405C372.923 140.632 372.714 139.717 372.607 138.414C372.5 137.105 372.5 135.448 372.5 133.2V126.8C372.5 124.552 372.5 122.895 372.607 121.586C372.714 120.283 372.923 119.368 373.317 118.595C374.037 117.184 375.184 116.037 376.595 115.317C377.368 114.923 378.283 114.714 379.586 114.607C380.895 114.5 382.552 114.5 384.8 114.5Z" stroke="#2F312E"/>
<g filter="url(#filter2_i_3827_4354)">
<path d="M386.4 122.5H389.6C390.728 122.5 391.545 122.5 392.186 122.553C392.823 122.605 393.243 122.705 393.589 122.881C394.248 123.217 394.783 123.752 395.119 124.411C395.295 124.757 395.395 125.177 395.447 125.814C395.5 126.455 395.5 127.272 395.5 128.4V131.6C395.5 132.728 395.5 133.545 395.447 134.186C395.395 134.823 395.295 135.243 395.119 135.589C394.783 136.248 394.248 136.783 393.589 137.119C393.243 137.295 392.823 137.395 392.186 137.447C391.545 137.5 390.728 137.5 389.6 137.5H386.4C385.272 137.5 384.455 137.5 383.814 137.447C383.177 137.395 382.757 137.295 382.411 137.119C381.752 136.783 381.217 136.248 380.881 135.589C380.705 135.243 380.605 134.823 380.553 134.186C380.5 133.545 380.5 132.728 380.5 131.6V128.4C380.5 127.272 380.5 126.455 380.553 125.814C380.605 125.177 380.705 124.757 380.881 124.411C381.217 123.752 381.752 123.217 382.411 122.881C382.757 122.705 383.177 122.605 383.814 122.553C384.455 122.5 385.272 122.5 386.4 122.5Z" stroke="#5C625B"/>
</g>
<path d="M407.22 128.51L407.96 126.9H408.51L407.98 128.51H408.5V129.75H407.22V128.51ZM405.48 129.75V128.51L406.22 126.9H406.77L406.24 128.51H406.76V129.75H405.48ZM412.476 131.64C412.646 132.56 413.266 133.17 414.236 133.17C414.996 133.17 415.546 132.82 415.536 132.16C415.536 131.49 414.966 131.09 413.736 130.76C412.606 130.47 411.596 129.88 411.596 128.74C411.596 127.51 412.556 126.74 413.866 126.74C415.286 126.74 416.286 127.69 416.446 129.02L415.406 129.08C415.286 128.24 414.666 127.69 413.846 127.69C413.156 127.69 412.616 128.1 412.626 128.75C412.636 129.54 413.486 129.76 414.326 129.98C415.556 130.32 416.566 130.99 416.566 132.08C416.566 133.41 415.406 134.12 414.176 134.12C412.686 134.12 411.556 133.17 411.446 131.71L412.476 131.64ZM423.402 131.51C423.402 133.15 422.522 134.16 420.992 134.16C419.462 134.16 418.582 133.15 418.582 131.51V126.89H419.582V131.54C419.582 132.61 420.052 133.21 420.992 133.21C421.932 133.21 422.402 132.61 422.402 131.54V126.89H423.402V131.51ZM425.728 134V126.9H427.718C429.368 126.9 430.278 127.6 430.278 128.87C430.278 129.64 429.738 130.21 428.938 130.33C429.958 130.44 430.578 131.05 430.578 131.99C430.578 133.24 429.648 134 428.118 134H425.728ZM426.728 133.05H428.098C428.988 133.05 429.538 132.64 429.538 131.96C429.538 131.26 429.018 130.86 428.098 130.86H426.728V133.05ZM426.728 129.92H427.728C428.698 129.92 429.238 129.55 429.238 128.89C429.238 128.22 428.698 127.85 427.728 127.85H426.728V129.92ZM433.344 131.55C433.354 132.62 433.824 133.21 434.704 133.21C435.644 133.21 436.094 132.61 436.094 131.51V126.9H437.094V131.51C437.094 133.15 436.214 134.16 434.704 134.16C433.264 134.16 432.334 133.13 432.324 131.63L433.344 131.55ZM439.83 126.9H444.36V127.85H440.83V129.97H444.24V130.91H440.83V133.05H444.44V134H439.83V126.9ZM451.667 131.7C451.397 133.22 450.467 134.16 449.117 134.16C447.347 134.16 446.337 132.73 446.337 130.46C446.337 128.17 447.347 126.74 449.117 126.74C450.387 126.74 451.297 127.62 451.617 129.05L450.557 129.12C450.317 128.2 449.807 127.69 449.107 127.69C447.997 127.69 447.377 128.68 447.377 130.46C447.377 132.23 447.997 133.21 449.107 133.21C449.877 133.21 450.407 132.66 450.617 131.64L451.667 131.7ZM458.573 126.9V127.85H456.473V134H455.473V127.85H453.373V126.9H458.573ZM462.749 128.14L462.009 129.75H461.459L461.989 128.14H461.469V126.9H462.749V128.14ZM463.199 129.75L463.729 128.14H463.209V126.9H464.489V128.14L463.749 129.75H463.199Z" fill="#ECEEEC"/>
<g filter="url(#filter3_ddii_3827_4354)">
<path d="M372 166.8C372 162.32 372 160.079 372.872 158.368C373.639 156.863 374.863 155.639 376.368 154.872C378.079 154 380.32 154 384.8 154H519.2C523.68 154 525.921 154 527.632 154.872C529.137 155.639 530.361 156.863 531.128 158.368C532 160.079 532 162.32 532 166.8V173.2C532 177.68 532 179.921 531.128 181.632C530.361 183.137 529.137 184.361 527.632 185.128C525.921 186 523.68 186 519.2 186H384.8C380.32 186 378.079 186 376.368 185.128C374.863 184.361 373.639 183.137 372.872 181.632C372 179.921 372 177.68 372 173.2V166.8Z" fill="#2F312E" shape-rendering="crispEdges"/>
<path d="M380 168.4C380 166.16 380 165.04 380.436 164.184C380.819 163.431 381.431 162.819 382.184 162.436C383.04 162 384.16 162 386.4 162H389.6C391.84 162 392.96 162 393.816 162.436C394.569 162.819 395.181 163.431 395.564 164.184C396 165.04 396 166.16 396 168.4V171.6C396 173.84 396 174.96 395.564 175.816C395.181 176.569 394.569 177.181 393.816 177.564C392.96 178 391.84 178 389.6 178H386.4C384.16 178 383.04 178 382.184 177.564C381.431 177.181 380.819 176.569 380.436 175.816C380 174.96 380 173.84 380 171.6V168.4Z" fill="#BCFE68"/>
<path d="M386.75 173.75C386.43 173.75 386.11 173.627 385.866 173.383L383.367 170.884C382.878 170.395 382.878 169.605 383.367 169.116C383.855 168.628 384.645 168.628 385.134 169.116L386.75 170.732L390.866 166.617C391.355 166.128 392.145 166.128 392.633 166.617C393.122 167.105 393.122 167.895 392.633 168.384L387.634 173.383C387.39 173.627 387.07 173.75 386.75 173.75Z" fill="#111210"/>
<path d="M404.51 166.9H405.51V169.87L408.29 166.9H409.55L406.79 169.94L409.73 174H408.52L406.1 170.66L405.51 171.27V174H404.51V166.9ZM411.226 174L413.376 166.9H414.616L416.766 174H415.736L415.196 172.14H412.796L412.256 174H411.226ZM413.046 171.26H414.946L413.996 168L413.046 171.26ZM418.902 166.9H423.332V167.85H419.912V170.06H423.152V170.99H419.912V174H418.902V166.9ZM425.498 166.9H426.498V169.87L429.278 166.9H430.538L427.778 169.94L430.718 174H429.508L427.088 170.66L426.498 171.27V174H425.498V166.9ZM432.214 174L434.364 166.9H435.604L437.754 174H436.724L436.184 172.14H433.784L433.244 174H432.214ZM434.034 171.26H435.934L434.984 168L434.034 171.26ZM451.667 171.7C451.397 173.22 450.467 174.16 449.117 174.16C447.347 174.16 446.337 172.73 446.337 170.46C446.337 168.17 447.347 166.74 449.117 166.74C450.387 166.74 451.297 167.62 451.617 169.05L450.557 169.12C450.317 168.2 449.807 167.69 449.107 167.69C447.997 167.69 447.377 168.68 447.377 170.46C447.377 172.23 447.997 173.21 449.107 173.21C449.877 173.21 450.407 172.66 450.617 171.64L451.667 171.7ZM455.973 174.16C454.283 174.16 453.333 172.8 453.333 170.46C453.333 168.1 454.283 166.74 455.973 166.74C457.663 166.74 458.613 168.1 458.613 170.46C458.613 172.8 457.663 174.16 455.973 174.16ZM454.383 170.46C454.383 172.23 454.943 173.21 455.973 173.21C457.003 173.21 457.563 172.23 457.563 170.46C457.563 168.68 457.003 167.69 455.973 167.69C454.943 167.69 454.383 168.68 454.383 170.46ZM460.699 166.9H462.009L464.239 172.55V166.9H465.239V174H463.839L461.699 168.56V174H460.699V166.9ZM467.695 166.9H469.005L471.235 172.55V166.9H472.235V174H470.835L468.695 168.56V174H467.695V166.9ZM474.811 166.9H479.341V167.85H475.811V169.97H479.221V170.91H475.811V173.05H479.421V174H474.811V166.9ZM486.647 171.7C486.377 173.22 485.447 174.16 484.097 174.16C482.327 174.16 481.317 172.73 481.317 170.46C481.317 168.17 482.327 166.74 484.097 166.74C485.367 166.74 486.277 167.62 486.597 169.05L485.537 169.12C485.297 168.2 484.787 167.69 484.087 167.69C482.977 167.69 482.357 168.68 482.357 170.46C482.357 172.23 482.977 173.21 484.087 173.21C484.857 173.21 485.387 172.66 485.597 171.64L486.647 171.7ZM493.553 166.9V167.85H491.453V174H490.453V167.85H488.353V166.9H493.553Z" fill="#ECEEEC"/>
</g>
<path d="M384.8 194.5H519.2C521.448 194.5 523.105 194.5 524.414 194.607C525.717 194.714 526.632 194.923 527.405 195.317C528.816 196.037 529.964 197.184 530.683 198.595C531.077 199.368 531.286 200.283 531.393 201.586C531.5 202.895 531.5 204.552 531.5 206.8V213.2C531.5 215.448 531.5 217.105 531.393 218.414C531.286 219.717 531.077 220.632 530.683 221.405C529.964 222.816 528.816 223.963 527.405 224.683C526.632 225.077 525.717 225.286 524.414 225.393C523.105 225.5 521.448 225.5 519.2 225.5H384.8C382.552 225.5 380.895 225.5 379.586 225.393C378.283 225.286 377.368 225.077 376.595 224.683C375.184 223.963 374.037 222.816 373.317 221.405C372.923 220.632 372.714 219.717 372.607 218.414C372.5 217.105 372.5 215.448 372.5 213.2V206.8C372.5 204.552 372.5 202.895 372.607 201.586C372.714 200.283 372.923 199.368 373.317 198.595C374.037 197.184 375.184 196.037 376.595 195.317C377.368 194.923 378.283 194.714 379.586 194.607C380.895 194.5 382.552 194.5 384.8 194.5Z" stroke="#2F312E"/>
<g filter="url(#filter4_i_3827_4354)">
<path d="M386.4 202.5H389.6C390.728 202.5 391.545 202.5 392.186 202.553C392.823 202.605 393.243 202.705 393.589 202.881C394.248 203.217 394.783 203.752 395.119 204.411C395.295 204.757 395.395 205.177 395.447 205.814C395.5 206.455 395.5 207.272 395.5 208.4V211.6C395.5 212.728 395.5 213.545 395.447 214.186C395.395 214.823 395.295 215.243 395.119 215.589C394.783 216.248 394.248 216.783 393.589 217.119C393.243 217.295 392.823 217.395 392.186 217.447C391.545 217.5 390.728 217.5 389.6 217.5H386.4C385.272 217.5 384.455 217.5 383.814 217.447C383.177 217.395 382.757 217.295 382.411 217.119C381.752 216.783 381.217 216.248 380.881 215.589C380.705 215.243 380.605 214.823 380.553 214.186C380.5 213.545 380.5 212.728 380.5 211.6V208.4C380.5 207.272 380.5 206.455 380.553 205.814C380.605 205.177 380.705 204.757 380.881 204.411C381.217 203.752 381.752 203.217 382.411 202.881C382.757 202.705 383.177 202.605 383.814 202.553C384.455 202.5 385.272 202.5 386.4 202.5Z" stroke="#5C625B"/>
</g>
<path d="M409.69 211.7C409.42 213.22 408.49 214.16 407.14 214.16C405.37 214.16 404.36 212.73 404.36 210.46C404.36 208.17 405.37 206.74 407.14 206.74C408.41 206.74 409.32 207.62 409.64 209.05L408.58 209.12C408.34 208.2 407.83 207.69 407.13 207.69C406.02 207.69 405.4 208.68 405.4 210.46C405.4 212.23 406.02 213.21 407.13 213.21C407.9 213.21 408.43 212.66 408.64 211.64L409.69 211.7ZM413.996 214.16C412.306 214.16 411.356 212.8 411.356 210.46C411.356 208.1 412.306 206.74 413.996 206.74C415.686 206.74 416.636 208.1 416.636 210.46C416.636 212.8 415.686 214.16 413.996 214.16ZM412.406 210.46C412.406 212.23 412.966 213.21 413.996 213.21C415.026 213.21 415.586 212.23 415.586 210.46C415.586 208.68 415.026 207.69 413.996 207.69C412.966 207.69 412.406 208.68 412.406 210.46ZM418.722 206.9H420.032L422.262 212.55V206.9H423.262V214H421.862L419.722 208.56V214H418.722V206.9ZM426.468 211.64C426.638 212.56 427.258 213.17 428.228 213.17C428.988 213.17 429.538 212.82 429.528 212.16C429.528 211.49 428.958 211.09 427.728 210.76C426.598 210.47 425.588 209.88 425.588 208.74C425.588 207.51 426.548 206.74 427.858 206.74C429.278 206.74 430.278 207.69 430.438 209.02L429.398 209.08C429.278 208.24 428.658 207.69 427.838 207.69C427.148 207.69 426.608 208.1 426.618 208.75C426.628 209.54 427.478 209.76 428.318 209.98C429.548 210.32 430.558 210.99 430.558 212.08C430.558 213.41 429.398 214.12 428.168 214.12C426.678 214.12 425.548 213.17 425.438 211.71L426.468 211.64ZM437.394 211.51C437.394 213.15 436.514 214.16 434.984 214.16C433.454 214.16 432.574 213.15 432.574 211.51V206.89H433.574V211.54C433.574 212.61 434.044 213.21 434.984 213.21C435.924 213.21 436.394 212.61 436.394 211.54V206.89H437.394V211.51ZM439.56 206.9H441.07L441.98 211.75L442.89 206.9H444.4V214H443.4V208.18L442.38 213.5H441.58L440.56 208.18V214H439.56V206.9ZM446.827 206.9H451.357V207.85H447.827V209.97H451.237V210.91H447.827V213.05H451.437V214H446.827V206.9ZM455.943 206.9C457.443 206.9 458.383 207.73 458.383 209.05C458.383 209.87 457.853 210.51 457.233 210.71C457.903 210.84 458.203 211.21 458.273 211.94L458.463 214H457.453L457.273 212.04C457.223 211.42 456.823 211.21 455.873 211.21H454.663V214H453.673V206.9H455.943ZM454.663 210.26H455.933C456.823 210.26 457.333 209.83 457.333 209.06C457.333 208.3 456.823 207.85 455.933 207.85H454.663V210.26ZM472.545 214H471.895L471.775 213.03C471.455 213.72 470.785 214.16 470.025 214.16C468.365 214.16 467.305 212.72 467.305 210.46C467.305 208.19 468.365 206.74 470.025 206.74C471.265 206.74 472.245 207.65 472.565 209.03L471.525 209.1C471.305 208.25 470.735 207.69 470.035 207.69C468.945 207.69 468.345 208.7 468.345 210.46C468.345 212.21 468.945 213.21 470.035 213.21C470.915 213.21 471.515 212.38 471.585 211.3H470.015V210.38H472.545V214ZM476.931 206.9C478.431 206.9 479.371 207.73 479.371 209.05C479.371 209.87 478.841 210.51 478.221 210.71C478.891 210.84 479.191 211.21 479.261 211.94L479.451 214H478.441L478.261 212.04C478.211 211.42 477.811 211.21 476.861 211.21H475.651V214H474.661V206.9H476.931ZM475.651 210.26H476.921C477.811 210.26 478.321 209.83 478.321 209.06C478.321 208.3 477.811 207.85 476.921 207.85H475.651V210.26ZM483.957 214.16C482.267 214.16 481.317 212.8 481.317 210.46C481.317 208.1 482.267 206.74 483.957 206.74C485.647 206.74 486.597 208.1 486.597 210.46C486.597 212.8 485.647 214.16 483.957 214.16ZM482.367 210.46C482.367 212.23 482.927 213.21 483.957 213.21C484.987 213.21 485.547 212.23 485.547 210.46C485.547 208.68 484.987 207.69 483.957 207.69C482.927 207.69 482.367 208.68 482.367 210.46ZM493.363 211.51C493.363 213.15 492.483 214.16 490.953 214.16C489.423 214.16 488.543 213.15 488.543 211.51V206.89H489.543V211.54C489.543 212.61 490.013 213.21 490.953 213.21C491.893 213.21 492.363 212.61 492.363 211.54V206.89H493.363V211.51ZM498.029 206.9C499.589 206.9 500.539 207.74 500.539 209.09C500.539 210.47 499.589 211.32 498.029 211.32H496.799V214H495.809V206.9H498.029ZM496.799 210.37H497.979C498.979 210.37 499.489 209.93 499.489 209.09C499.489 208.28 498.979 207.85 497.979 207.85H496.799V210.37Z" fill="#ECEEEC"/>
<path d="M384.8 234.5H519.2C521.448 234.5 523.105 234.5 524.414 234.607C525.717 234.714 526.632 234.923 527.405 235.317C528.816 236.037 529.964 237.184 530.683 238.595C531.077 239.368 531.286 240.283 531.393 241.586C531.5 242.895 531.5 244.552 531.5 246.8V253.2C531.5 255.448 531.5 257.105 531.393 258.414C531.286 259.717 531.077 260.632 530.683 261.405C529.964 262.816 528.816 263.963 527.405 264.683C526.632 265.077 525.717 265.286 524.414 265.393C523.105 265.5 521.448 265.5 519.2 265.5H384.8C382.552 265.5 380.895 265.5 379.586 265.393C378.283 265.286 377.368 265.077 376.595 264.683C375.184 263.963 374.037 262.816 373.317 261.405C372.923 260.632 372.714 259.717 372.607 258.414C372.5 257.105 372.5 255.448 372.5 253.2V246.8C372.5 244.552 372.5 242.895 372.607 241.586C372.714 240.283 372.923 239.368 373.317 238.595C374.037 237.184 375.184 236.037 376.595 235.317C377.368 234.923 378.283 234.714 379.586 234.607C380.895 234.5 382.552 234.5 384.8 234.5Z" stroke="#2F312E"/>
</g>
<path d="M372 18.5H532C540.56 18.5 547.5 25.4396 547.5 34V226C547.5 234.56 540.56 241.5 532 241.5H372C363.44 241.5 356.5 234.56 356.5 226V34C356.5 25.4396 363.44 18.5 372 18.5Z" stroke="#2F312E"/>
<path d="M356 72H112" stroke="#2F312E" stroke-width="2"/>
<path d="M306.965 72.5C306.965 75.4455 309.353 77.8333 312.298 77.8333C315.244 77.8333 317.631 75.4455 317.631 72.5C317.631 69.5545 315.244 67.1667 312.298 67.1667C309.353 67.1667 306.965 69.5545 306.965 72.5ZM191 73.5L312.298 73.5L312.298 71.5L191 71.5L191 73.5Z" fill="url(#paint0_linear_3827_4354)"/>
<g filter="url(#filter5_ddii_3827_4354)">
<path d="M52 68.8C52 64.3196 52 62.0794 52.8719 60.3681C53.6389 58.8628 54.8628 57.6389 56.3681 56.8719C58.0794 56 60.3196 56 64.8 56H178.2C182.68 56 184.921 56 186.632 56.8719C188.137 57.6389 189.361 58.8628 190.128 60.3681C191 62.0794 191 64.3196 191 68.8V75.2C191 79.6804 191 81.9206 190.128 83.6319C189.361 85.1372 188.137 86.3611 186.632 87.1281C184.921 88 182.68 88 178.2 88H64.8C60.3196 88 58.0794 88 56.3681 87.1281C54.8628 86.3611 53.6389 85.1372 52.8719 83.6319C52 81.9206 52 79.6804 52 75.2V68.8Z" fill="#2F312E"/>
<path d="M52 68.8C52 64.3196 52 62.0794 52.8719 60.3681C53.6389 58.8628 54.8628 57.6389 56.3681 56.8719C58.0794 56 60.3196 56 64.8 56H84V88H64.8C60.3196 88 58.0794 88 56.3681 87.1281C54.8628 86.3611 53.6389 85.1372 52.8719 83.6319C52 81.9206 52 79.6804 52 75.2V68.8Z" fill="url(#paint1_linear_3827_4354)"/>
<path d="M60 72L70.6667 62L69.3333 69.5L76 72L65.3333 82L66.6667 74.5L60 72Z" fill="url(#paint2_radial_3827_4354)"/>
<path d="M101.58 76H100.93L100.81 75.03C100.49 75.72 99.82 76.16 99.06 76.16C97.4 76.16 96.34 74.72 96.34 72.46C96.34 70.19 97.4 68.74 99.06 68.74C100.3 68.74 101.28 69.65 101.6 71.03L100.56 71.1C100.34 70.25 99.77 69.69 99.07 69.69C97.98 69.69 97.38 70.7 97.38 72.46C97.38 74.21 97.98 75.21 99.07 75.21C99.95 75.21 100.55 74.38 100.62 73.3H99.05V72.38H101.58V76ZM105.966 68.9C107.466 68.9 108.406 69.73 108.406 71.05C108.406 71.87 107.876 72.51 107.256 72.71C107.926 72.84 108.226 73.21 108.296 73.94L108.486 76H107.476L107.296 74.04C107.246 73.42 106.846 73.21 105.896 73.21H104.686V76H103.696V68.9H105.966ZM104.686 72.26H105.956C106.846 72.26 107.356 71.83 107.356 71.06C107.356 70.3 106.846 69.85 105.956 69.85H104.686V72.26ZM112.992 76.16C111.302 76.16 110.352 74.8 110.352 72.46C110.352 70.1 111.302 68.74 112.992 68.74C114.682 68.74 115.632 70.1 115.632 72.46C115.632 74.8 114.682 76.16 112.992 76.16ZM111.402 72.46C111.402 74.23 111.962 75.21 112.992 75.21C114.022 75.21 114.582 74.23 114.582 72.46C114.582 70.68 114.022 69.69 112.992 69.69C111.962 69.69 111.402 70.68 111.402 72.46ZM122.398 73.51C122.398 75.15 121.518 76.16 119.988 76.16C118.458 76.16 117.578 75.15 117.578 73.51V68.89H118.578V73.54C118.578 74.61 119.048 75.21 119.988 75.21C120.928 75.21 121.398 74.61 121.398 73.54V68.89H122.398V73.51ZM127.064 68.9C128.624 68.9 129.574 69.74 129.574 71.09C129.574 72.47 128.624 73.32 127.064 73.32H125.834V76H124.844V68.9H127.064ZM125.834 72.37H127.014C128.014 72.37 128.524 71.93 128.524 71.09C128.524 70.28 128.014 69.85 127.014 69.85H125.834V72.37ZM138.207 76L140.357 68.9H141.597L143.747 76H142.717L142.177 74.14H139.777L139.237 76H138.207ZM140.027 73.26H141.927L140.977 70L140.027 73.26ZM150.663 73.7C150.393 75.22 149.463 76.16 148.113 76.16C146.343 76.16 145.333 74.73 145.333 72.46C145.333 70.17 146.343 68.74 148.113 68.74C149.383 68.74 150.293 69.62 150.613 71.05L149.553 71.12C149.313 70.2 148.803 69.69 148.103 69.69C146.993 69.69 146.373 70.68 146.373 72.46C146.373 74.23 146.993 75.21 148.103 75.21C148.873 75.21 149.403 74.66 149.613 73.64L150.663 73.7ZM157.659 73.7C157.389 75.22 156.459 76.16 155.109 76.16C153.339 76.16 152.329 74.73 152.329 72.46C152.329 70.17 153.339 68.74 155.109 68.74C156.379 68.74 157.289 69.62 157.609 71.05L156.549 71.12C156.309 70.2 155.799 69.69 155.099 69.69C153.989 69.69 153.369 70.68 153.369 72.46C153.369 74.23 153.989 75.21 155.099 75.21C155.869 75.21 156.399 74.66 156.609 73.64L157.659 73.7ZM159.815 68.9H164.345V69.85H160.815V71.97H164.225V72.91H160.815V75.05H164.425V76H159.815V68.9ZM167.441 73.64C167.611 74.56 168.231 75.17 169.201 75.17C169.961 75.17 170.511 74.82 170.501 74.16C170.501 73.49 169.931 73.09 168.701 72.76C167.571 72.47 166.561 71.88 166.561 70.74C166.561 69.51 167.521 68.74 168.831 68.74C170.251 68.74 171.251 69.69 171.411 71.02L170.371 71.08C170.251 70.24 169.631 69.69 168.811 69.69C168.121 69.69 167.581 70.1 167.591 70.75C167.601 71.54 168.451 71.76 169.291 71.98C170.521 72.32 171.531 72.99 171.531 74.08C171.531 75.41 170.371 76.12 169.141 76.12C167.651 76.12 166.521 75.17 166.411 73.71L167.441 73.64ZM174.437 73.64C174.607 74.56 175.227 75.17 176.197 75.17C176.957 75.17 177.507 74.82 177.497 74.16C177.497 73.49 176.927 73.09 175.697 72.76C174.567 72.47 173.557 71.88 173.557 70.74C173.557 69.51 174.517 68.74 175.827 68.74C177.247 68.74 178.247 69.69 178.407 71.02L177.367 71.08C177.247 70.24 176.627 69.69 175.807 69.69C175.117 69.69 174.577 70.1 174.587 70.75C174.597 71.54 175.447 71.76 176.287 71.98C177.517 72.32 178.527 72.99 178.527 74.08C178.527 75.41 177.367 76.12 176.137 76.12C174.647 76.12 173.517 75.17 173.407 73.71L174.437 73.64Z" fill="#ECEEEC"/>
</g>
<g clip-path="url(#clip1_3827_4354)">
<g clip-path="url(#clip2_3827_4354)">
<rect x="52" y="112" width="32" height="32" rx="16" fill="#E4D8FD"/>
<path d="M79.0394 139.674C79.9193 141.354 80.3593 147.474 80.3593 147.474H55.6406C55.6406 147.474 56.0806 141.354 56.9606 139.674C58.2805 137.154 68 133.915 68 133.915C68 133.915 77.7195 137.154 79.0394 139.674Z" fill="url(#paint3_linear_3827_4354)"/>
<path d="M78.2562 132.524L58.7623 130.168C57.8013 125.066 58.9412 121.852 62.1822 120.525C63.6804 115.616 69.5117 116.015 71.1647 116.415C76.7894 117.777 79.1532 123.147 78.2562 132.524Z" fill="#1D211C"/>
<path d="M65.1201 135.355V128.155C62.1177 128.11 62.7033 122.907 65.72 124.495C66.26 124.735 67.6399 124.075 67.16 122.455C70.3998 124.855 74.9144 120.643 75.1995 123.235C75.7605 128.336 74.675 132.529 71.7968 132.529C71.49 132.541 71.1829 132.523 70.8798 132.475V135.355C69.9402 135.915 69.0007 136.195 68.0611 136.195C67.1216 136.195 66.1412 135.915 65.1201 135.355Z" fill="url(#paint4_linear_3827_4354)"/>
<path opacity="0.3" d="M70.88 132.475V133.435C69.08 133.435 67.6801 132.575 66.6802 130.855C67.8801 131.655 69.28 132.195 70.88 132.475Z" fill="#DB6F3D"/>
<path d="M67.9962 136.071C68.8171 136.032 70.88 135.607 70.88 134.69V133.915C71.1001 133.915 71.7302 134.434 72.0543 134.875C73.3353 136.614 71.9144 138.174 70.7555 138.174C69.2932 138.174 68.3242 136.953 68.0002 136.365C67.6762 136.953 66.7071 138.174 65.2449 138.174C64.086 138.174 62.665 136.614 63.9461 134.875C64.2702 134.434 64.9003 133.915 65.1203 133.915V134.69C65.1203 135.607 67.129 136.032 67.9962 136.071Z" fill="white"/>
</g>
</g>
<path d="M51.5 128C51.5 137.113 58.8873 144.5 68 144.5C77.1127 144.5 84.5 137.113 84.5 128C84.5 118.887 77.1127 111.5 68 111.5C58.8873 111.5 51.5 118.887 51.5 128Z" stroke="#181917"/>
<g clip-path="url(#clip3_3827_4354)">
<g clip-path="url(#clip4_3827_4354)">
<rect x="80" y="112" width="32" height="32" rx="16" fill="#E5D5CD"/>
<path d="M99.8993 133.314V134.824C99.8993 136.836 102.793 137.717 102.793 137.717C102.793 137.717 99.4591 140.233 95.9998 140.233C92.5405 140.233 89.207 137.717 89.207 137.717C89.207 137.717 92.123 136.836 92.1002 134.824C92.0775 132.811 92.0927 131.629 92.0775 128.18C90.2746 125.843 90.3904 124.275 91.3762 123.172C94.679 119.477 103.673 120.735 103.673 120.735C103.673 120.735 104.512 129.791 102.604 132.434C101.786 133.566 99.8993 133.314 99.8993 133.314Z" fill="url(#paint5_linear_3827_4354)"/>
<path opacity="0.3" d="M99.8993 133.314C97.1319 133 95.4966 131.805 95.4966 131.805C96.529 133.332 98.1024 134.411 99.8993 134.824V133.314Z" fill="#DB6F3D"/>
<path d="M109.208 141.529C110.405 143.964 111.095 149.58 111.095 149.58H80.9048C80.9048 149.58 81.5944 143.964 82.7917 141.529C83.9889 139.095 90.9807 136.837 90.9807 136.837C92.3283 139.604 99.7242 139.604 101.015 136.836C101.015 136.836 108.01 139.094 109.208 141.529Z" fill="#ECEEEC"/>
<mask id="mask0_3827_4354" style="mask-type:alpha" maskUnits="userSpaceOnUse" x="80" y="136" width="32" height="14">
<path d="M109.208 141.529C110.405 143.964 111.095 149.58 111.095 149.58H80.9048C80.9048 149.58 81.5944 143.964 82.7917 141.529C83.9889 139.095 90.9807 136.837 90.9807 136.837C92.3283 139.604 99.7242 139.604 101.015 136.836C101.015 136.836 108.01 139.094 109.208 141.529Z" fill="#ECEEEC"/>
</mask>
<g mask="url(#mask0_3827_4354)">
<path d="M79.647 147.654V146.648H112.353V147.654H79.647ZM79.647 145.138V144.132H112.353V145.138H79.647ZM79.647 142.623V141.616H112.353V142.623H79.647Z" fill="white" fill-opacity="0.16"/>
</g>
<path d="M93.6292 124.409C93.2292 124.066 92.7431 123.834 92.056 124.191C90.4272 125.037 91.6599 128.282 93.1065 128.282C93.4839 128.282 93.6716 129.468 91.9914 130.295C91.9914 128.974 89.9787 125.704 89.8026 122.726C87.7774 121.972 88.2805 118.954 89.6709 118.954C89.449 116.188 93.8783 114.76 95.5933 116.347C97.3375 114.257 101.74 115.326 102.006 117.139C105.033 115.523 107.024 120.169 104.189 121.972C103.022 122.714 100.294 122.997 96.3547 122.997C95.7601 122.997 95.427 123.144 95.5933 123.88C95.9152 125.304 95.1679 126.202 93.6292 124.409Z" fill="#1D211C"/>
</g>
</g>
<path d="M79.5 128C79.5 137.113 86.8873 144.5 96 144.5C105.113 144.5 112.5 137.113 112.5 128C112.5 118.887 105.113 111.5 96 111.5C86.8873 111.5 79.5 118.887 79.5 128Z" stroke="#181917"/>
<g clip-path="url(#clip5_3827_4354)">
<g clip-path="url(#clip6_3827_4354)">
<rect x="108" y="112" width="32" height="32" rx="16" fill="#B1DBF6"/>
<path d="M114.827 131.093C113.822 127.756 113.202 122.051 117.428 118.149C120.657 115.167 129.381 114.866 132.416 121.369C132.923 122.455 132.23 124.157 130.868 124.095C130.332 124.07 130.001 125.767 129.691 126.82C130.124 131.093 133.987 131.172 135.946 134.438C138.362 138.464 135.389 144.409 128.266 144.409C121.144 144.409 117.061 138.514 114.827 131.093Z" fill="#1D211C"/>
<path d="M112.411 140.817C111.503 142.551 111.049 148.869 111.049 148.869H136.566C136.566 148.869 136.112 142.551 135.203 140.817C133.841 138.216 123.807 134.871 123.807 134.871C123.807 134.871 113.774 138.216 112.411 140.817Z" fill="#33CC82"/>
<path d="M120.834 136.358C120.834 136.358 122.416 137.225 123.87 137.225C125.325 137.225 126.78 136.358 126.78 136.358V133.633C127.093 133.682 127.41 133.701 127.727 133.689C130.698 133.689 131.819 129.36 131.239 124.095C130.868 124.095 130.001 124.095 128.762 122.36C129.072 124.776 125.48 124.404 124.117 122.484C124.798 124.776 123.002 126.324 121.454 125.395C118.418 123.573 117.735 129.127 120.834 129.173V136.358Z" fill="url(#paint6_linear_3827_4354)"/>
<path opacity="0.3" d="M126.78 133.633C125.243 133.35 123.773 132.783 122.444 131.96C122.444 131.96 123.993 134.624 126.78 134.624V133.633Z" fill="#FFB597"/>
<path d="M123.803 137.098C122.908 137.057 120.834 136.619 120.834 135.672V134.871C120.607 134.871 119.957 135.408 119.622 135.862C118.3 137.658 119.766 139.269 120.963 139.269C122.472 139.269 123.473 138.007 123.807 137.401C124.142 138.008 125.142 139.269 126.651 139.269C127.848 139.269 129.315 137.658 127.992 135.862C127.658 135.408 127.007 134.871 126.78 134.871V135.672C126.78 136.619 124.65 137.057 123.803 137.098Z" fill="white"/>
</g>
</g>
<path d="M107.5 128C107.5 137.113 114.887 144.5 124 144.5C133.113 144.5 140.5 137.113 140.5 128C140.5 118.887 133.113 111.5 124 111.5C114.887 111.5 107.5 118.887 107.5 128Z" stroke="#181917"/>
<g clip-path="url(#clip7_3827_4354)">
<g clip-path="url(#clip8_3827_4354)">
<rect x="136" y="112" width="32" height="32" rx="16" fill="#FFC53D"/>
<path d="M158.566 136.624C156.377 138.216 154.188 139.489 151.999 139.489C149.81 139.489 147.621 138.216 145.432 136.624C147.237 136.074 148.152 135.254 148.178 134.164C148.178 133.969 148.177 133.693 148.176 133.175C148.176 133.093 148.175 133.009 148.175 132.922C148.172 131.532 148.166 129.698 148.157 127.836C146.446 125.618 147.075 123.017 147.611 123.082C148.268 123.162 153.964 117.757 155.057 117.48C156.149 117.202 158.925 118.097 159.402 120.59C159.88 123.082 160.08 129.365 158.268 131.873C157.752 132.587 156.941 132.866 155.832 132.711C155.831 133.233 155.827 133.525 155.82 134.116C155.834 135.256 156.75 136.075 158.566 136.624Z" fill="url(#paint7_linear_3827_4354)"/>
<path opacity="0.3" d="M155.82 132.709C153.193 132.411 151.522 131.276 151.522 131.276C151.522 131.276 153.432 133.664 155.82 134.142V132.709Z" fill="#FC9F6A"/>
<path d="M147.283 127.873C146.46 125.895 143.164 121.865 146.006 119.358C146.961 114.701 152.238 115.216 155.761 116.291C158.128 117.013 159.916 118.44 160.298 117.366C162.686 119.358 161.49 121.306 159.916 121.865C158.487 122.373 156.071 122.88 151.963 122.402C151.229 122.317 151.383 124.565 150.991 124.808C150.402 125.172 149.946 122.88 148.333 123.568C146.72 124.257 147.677 127.448 149.409 127.448C150.006 127.448 150.304 129.089 148.692 129.865C147.522 130.44 147.818 129.159 147.283 127.873Z" fill="#1D211C"/>
<path d="M139.463 140.268C138.326 142.579 137.671 147.91 137.671 147.91H166.328C166.328 147.91 165.674 142.579 164.537 140.268C163.401 137.957 156.764 135.814 156.764 135.814C153.097 137.246 150.853 137.246 147.239 135.813C147.239 135.813 140.599 137.957 139.463 140.268Z" fill="#ECEEEC"/>
<path d="M151.164 136.649L150.567 147.634H153.433L152.836 136.649C152.836 136.649 152.278 136.052 152 136.052C151.721 136.052 151.164 136.649 151.164 136.649Z" fill="#BCFE68"/>
<path d="M151.028 138.881L152.905 137.796L152.835 136.649C152.464 136.251 152.185 136.052 151.999 136.052C151.814 136.052 151.535 136.251 151.164 136.649L151.028 138.881H151.028Z" fill="#BAF271"/>
<path d="M152 136.051L153.194 138.202L156.895 135.933L155.82 134.381L152 135.792L148.179 134.381L147.104 135.933L150.805 138.202L152 136.051Z" fill="white"/>
</g>
</g>
<path d="M135.5 128C135.5 137.113 142.887 144.5 152 144.5C161.113 144.5 168.5 137.113 168.5 128C168.5 118.887 161.113 111.5 152 111.5C142.887 111.5 135.5 118.887 135.5 128Z" stroke="#181917"/>
<path d="M163.5 128C163.5 137.113 170.887 144.5 180 144.5C189.113 144.5 196.5 137.113 196.5 128C196.5 118.887 189.113 111.5 180 111.5C170.887 111.5 163.5 118.887 163.5 128Z" fill="#282A27"/>
<path d="M163.5 128C163.5 137.113 170.887 144.5 180 144.5C189.113 144.5 196.5 137.113 196.5 128C196.5 118.887 189.113 111.5 180 111.5C170.887 111.5 163.5 118.887 163.5 128Z" stroke="#181917"/>
<path d="M170.883 127.932H173.175V125.64H174.303V127.932H176.595V129.06H174.303V131.352H173.175V129.06H170.883V127.932ZM178.293 124.884C179.253 124.884 179.685 124.452 179.685 123.48H180.717V132H179.409V125.928H177.609V124.884H178.293ZM187.608 125.46C187.368 124.836 186.828 124.476 186.084 124.476C184.848 124.476 184.128 125.568 183.996 127.452C184.452 126.672 185.196 126.252 186.108 126.252C187.8 126.252 188.952 127.452 188.952 129.18C188.952 131.052 187.644 132.192 185.832 132.192C185.028 132.192 184.248 131.892 183.612 131.22C183.012 130.584 182.724 129.516 182.724 128.22C182.724 125.64 183.612 123.288 186.096 123.288C187.428 123.288 188.544 124.032 188.904 125.376L187.608 125.46ZM184.104 129.18C184.08 130.26 184.812 131.028 185.868 131.028C186.888 131.028 187.608 130.26 187.608 129.18C187.608 128.124 186.912 127.38 185.94 127.38C184.872 127.38 184.116 128.124 184.104 129.18Z" fill="#687066"/>
<defs>
<filter id="filter0_ddii_3827_4354" x="364" y="29" width="176" height="48" filterUnits="userSpaceOnUse" color-interpolation-filters="sRGB">
<feFlood flood-opacity="0" result="BackgroundImageFix"/>
<feColorMatrix in="SourceAlpha" type="matrix" values="0 0 0 0 0 0 0 0 0 0 0 0 0 0 0 0 0 0 127 0" result="hardAlpha"/>
<feOffset dy="1"/>
<feGaussianBlur stdDeviation="1.5"/>
<feComposite in2="hardAlpha" operator="out"/>
<feColorMatrix type="matrix" values="0 0 0 0 0 0 0 0 0 0 0 0 0 0 0 0 0 0 0.5 0"/>
<feBlend mode="normal" in2="BackgroundImageFix" result="effect1_dropShadow_3827_4354"/>
<feColorMatrix in="SourceAlpha" type="matrix" values="0 0 0 0 0 0 0 0 0 0 0 0 0 0 0 0 0 0 127 0" result="hardAlpha"/>
<feOffset dy="3"/>
<feGaussianBlur stdDeviation="4"/>
<feComposite in2="hardAlpha" operator="out"/>
<feColorMatrix type="matrix" values="0 0 0 0 0 0 0 0 0 0 0 0 0 0 0 0 0 0 0.35 0"/>
<feBlend mode="normal" in2="effect1_dropShadow_3827_4354" result="effect2_dropShadow_3827_4354"/>
<feBlend mode="normal" in="SourceGraphic" in2="effect2_dropShadow_3827_4354" result="shape"/>
<feColorMatrix in="SourceAlpha" type="matrix" values="0 0 0 0 0 0 0 0 0 0 0 0 0 0 0 0 0 0 127 0" result="hardAlpha"/>
<feOffset/>
<feGaussianBlur stdDeviation="0.25"/>
<feComposite in2="hardAlpha" operator="arithmetic" k2="-1" k3="1"/>
<feColorMatrix type="matrix" values="0 0 0 0 1 0 0 0 0 1 0 0 0 0 1 0 0 0 0.3 0"/>
<feBlend mode="normal" in2="shape" result="effect3_innerShadow_3827_4354"/>
<feColorMatrix in="SourceAlpha" type="matrix" values="0 0 0 0 0 0 0 0 0 0 0 0 0 0 0 0 0 0 127 0" result="hardAlpha"/>
<feOffset dy="0.5"/>
<feComposite in2="hardAlpha" operator="arithmetic" k2="-1" k3="1"/>
<feColorMatrix type="matrix" values="0 0 0 0 1 0 0 0 0 1 0 0 0 0 1 0 0 0 0.08 0"/>
<feBlend mode="normal" in2="effect3_innerShadow_3827_4354" result="effect4_innerShadow_3827_4354"/>
</filter>
<filter id="filter1_ddii_3827_4354" x="364" y="69" width="176" height="48" filterUnits="userSpaceOnUse" color-interpolation-filters="sRGB">
<feFlood flood-opacity="0" result="BackgroundImageFix"/>
<feColorMatrix in="SourceAlpha" type="matrix" values="0 0 0 0 0 0 0 0 0 0 0 0 0 0 0 0 0 0 127 0" result="hardAlpha"/>
<feOffset dy="1"/>
<feGaussianBlur stdDeviation="1.5"/>
<feComposite in2="hardAlpha" operator="out"/>
<feColorMatrix type="matrix" values="0 0 0 0 0 0 0 0 0 0 0 0 0 0 0 0 0 0 0.5 0"/>
<feBlend mode="normal" in2="BackgroundImageFix" result="effect1_dropShadow_3827_4354"/>
<feColorMatrix in="SourceAlpha" type="matrix" values="0 0 0 0 0 0 0 0 0 0 0 0 0 0 0 0 0 0 127 0" result="hardAlpha"/>
<feOffset dy="3"/>
<feGaussianBlur stdDeviation="4"/>
<feComposite in2="hardAlpha" operator="out"/>
<feColorMatrix type="matrix" values="0 0 0 0 0 0 0 0 0 0 0 0 0 0 0 0 0 0 0.35 0"/>
<feBlend mode="normal" in2="effect1_dropShadow_3827_4354" result="effect2_dropShadow_3827_4354"/>
<feBlend mode="normal" in="SourceGraphic" in2="effect2_dropShadow_3827_4354" result="shape"/>
<feColorMatrix in="SourceAlpha" type="matrix" values="0 0 0 0 0 0 0 0 0 0 0 0 0 0 0 0 0 0 127 0" result="hardAlpha"/>
<feOffset/>
<feGaussianBlur stdDeviation="0.25"/>
<feComposite in2="hardAlpha" operator="arithmetic" k2="-1" k3="1"/>
<feColorMatrix type="matrix" values="0 0 0 0 1 0 0 0 0 1 0 0 0 0 1 0 0 0 0.3 0"/>
<feBlend mode="normal" in2="shape" result="effect3_innerShadow_3827_4354"/>
<feColorMatrix in="SourceAlpha" type="matrix" values="0 0 0 0 0 0 0 0 0 0 0 0 0 0 0 0 0 0 127 0" result="hardAlpha"/>
<feOffset dy="0.5"/>
<feComposite in2="hardAlpha" operator="arithmetic" k2="-1" k3="1"/>
<feColorMatrix type="matrix" values="0 0 0 0 1 0 0 0 0 1 0 0 0 0 1 0 0 0 0.08 0"/>
<feBlend mode="normal" in2="effect3_innerShadow_3827_4354" result="effect4_innerShadow_3827_4354"/>
</filter>
<filter id="filter2_i_3827_4354" x="380" y="122" width="16" height="17.5" filterUnits="userSpaceOnUse" color-interpolation-filters="sRGB">
<feFlood flood-opacity="0" result="BackgroundImageFix"/>
<feBlend mode="normal" in="SourceGraphic" in2="BackgroundImageFix" result="shape"/>
<feColorMatrix in="SourceAlpha" type="matrix" values="0 0 0 0 0 0 0 0 0 0 0 0 0 0 0 0 0 0 127 0" result="hardAlpha"/>
<feOffset dy="1.5"/>
<feGaussianBlur stdDeviation="1"/>
<feComposite in2="hardAlpha" operator="arithmetic" k2="-1" k3="1"/>
<feColorMatrix type="matrix" values="0 0 0 0 0 0 0 0 0 0 0 0 0 0 0 0 0 0 0.133 0"/>
<feBlend mode="normal" in2="shape" result="effect1_innerShadow_3827_4354"/>
</filter>
<filter id="filter3_ddii_3827_4354" x="364" y="149" width="176" height="48" filterUnits="userSpaceOnUse" color-interpolation-filters="sRGB">
<feFlood flood-opacity="0" result="BackgroundImageFix"/>
<feColorMatrix in="SourceAlpha" type="matrix" values="0 0 0 0 0 0 0 0 0 0 0 0 0 0 0 0 0 0 127 0" result="hardAlpha"/>
<feOffset dy="1"/>
<feGaussianBlur stdDeviation="1.5"/>
<feComposite in2="hardAlpha" operator="out"/>
<feColorMatrix type="matrix" values="0 0 0 0 0 0 0 0 0 0 0 0 0 0 0 0 0 0 0.5 0"/>
<feBlend mode="normal" in2="BackgroundImageFix" result="effect1_dropShadow_3827_4354"/>
<feColorMatrix in="SourceAlpha" type="matrix" values="0 0 0 0 0 0 0 0 0 0 0 0 0 0 0 0 0 0 127 0" result="hardAlpha"/>
<feOffset dy="3"/>
<feGaussianBlur stdDeviation="4"/>
<feComposite in2="hardAlpha" operator="out"/>
<feColorMatrix type="matrix" values="0 0 0 0 0 0 0 0 0 0 0 0 0 0 0 0 0 0 0.35 0"/>
<feBlend mode="normal" in2="effect1_dropShadow_3827_4354" result="effect2_dropShadow_3827_4354"/>
<feBlend mode="normal" in="SourceGraphic" in2="effect2_dropShadow_3827_4354" result="shape"/>
<feColorMatrix in="SourceAlpha" type="matrix" values="0 0 0 0 0 0 0 0 0 0 0 0 0 0 0 0 0 0 127 0" result="hardAlpha"/>
<feOffset/>
<feGaussianBlur stdDeviation="0.25"/>
<feComposite in2="hardAlpha" operator="arithmetic" k2="-1" k3="1"/>
<feColorMatrix type="matrix" values="0 0 0 0 1 0 0 0 0 1 0 0 0 0 1 0 0 0 0.3 0"/>
<feBlend mode="normal" in2="shape" result="effect3_innerShadow_3827_4354"/>
<feColorMatrix in="SourceAlpha" type="matrix" values="0 0 0 0 0 0 0 0 0 0 0 0 0 0 0 0 0 0 127 0" result="hardAlpha"/>
<feOffset dy="0.5"/>
<feComposite in2="hardAlpha" operator="arithmetic" k2="-1" k3="1"/>
<feColorMatrix type="matrix" values="0 0 0 0 1 0 0 0 0 1 0 0 0 0 1 0 0 0 0.08 0"/>
<feBlend mode="normal" in2="effect3_innerShadow_3827_4354" result="effect4_innerShadow_3827_4354"/>
</filter>
<filter id="filter4_i_3827_4354" x="380" y="202" width="16" height="17.5" filterUnits="userSpaceOnUse" color-interpolation-filters="sRGB">
<feFlood flood-opacity="0" result="BackgroundImageFix"/>
<feBlend mode="normal" in="SourceGraphic" in2="BackgroundImageFix" result="shape"/>
<feColorMatrix in="SourceAlpha" type="matrix" values="0 0 0 0 0 0 0 0 0 0 0 0 0 0 0 0 0 0 127 0" result="hardAlpha"/>
<feOffset dy="1.5"/>
<feGaussianBlur stdDeviation="1"/>
<feComposite in2="hardAlpha" operator="arithmetic" k2="-1" k3="1"/>
<feColorMatrix type="matrix" values="0 0 0 0 0 0 0 0 0 0 0 0 0 0 0 0 0 0 0.133 0"/>
<feBlend mode="normal" in2="shape" result="effect1_innerShadow_3827_4354"/>
</filter>
<filter id="filter5_ddii_3827_4354" x="44" y="51" width="155" height="48" filterUnits="userSpaceOnUse" color-interpolation-filters="sRGB">
<feFlood flood-opacity="0" result="BackgroundImageFix"/>
<feColorMatrix in="SourceAlpha" type="matrix" values="0 0 0 0 0 0 0 0 0 0 0 0 0 0 0 0 0 0 127 0" result="hardAlpha"/>
<feOffset dy="1"/>
<feGaussianBlur stdDeviation="1.5"/>
<feComposite in2="hardAlpha" operator="out"/>
<feColorMatrix type="matrix" values="0 0 0 0 0 0 0 0 0 0 0 0 0 0 0 0 0 0 0.5 0"/>
<feBlend mode="normal" in2="BackgroundImageFix" result="effect1_dropShadow_3827_4354"/>
<feColorMatrix in="SourceAlpha" type="matrix" values="0 0 0 0 0 0 0 0 0 0 0 0 0 0 0 0 0 0 127 0" result="hardAlpha"/>
<feOffset dy="3"/>
<feGaussianBlur stdDeviation="4"/>
<feComposite in2="hardAlpha" operator="out"/>
<feColorMatrix type="matrix" values="0 0 0 0 0 0 0 0 0 0 0 0 0 0 0 0 0 0 0.35 0"/>
<feBlend mode="normal" in2="effect1_dropShadow_3827_4354" result="effect2_dropShadow_3827_4354"/>
<feBlend mode="normal" in="SourceGraphic" in2="effect2_dropShadow_3827_4354" result="shape"/>
<feColorMatrix in="SourceAlpha" type="matrix" values="0 0 0 0 0 0 0 0 0 0 0 0 0 0 0 0 0 0 127 0" result="hardAlpha"/>
<feOffset/>
<feGaussianBlur stdDeviation="0.25"/>
<feComposite in2="hardAlpha" operator="arithmetic" k2="-1" k3="1"/>
<feColorMatrix type="matrix" values="0 0 0 0 1 0 0 0 0 1 0 0 0 0 1 0 0 0 0.3 0"/>
<feBlend mode="normal" in2="shape" result="effect3_innerShadow_3827_4354"/>
<feColorMatrix in="SourceAlpha" type="matrix" values="0 0 0 0 0 0 0 0 0 0 0 0 0 0 0 0 0 0 127 0" result="hardAlpha"/>
<feOffset dy="0.5"/>
<feComposite in2="hardAlpha" operator="arithmetic" k2="-1" k3="1"/>
<feColorMatrix type="matrix" values="0 0 0 0 1 0 0 0 0 1 0 0 0 0 1 0 0 0 0.08 0"/>
<feBlend mode="normal" in2="effect3_innerShadow_3827_4354" result="effect4_innerShadow_3827_4354"/>
</filter>
<linearGradient id="paint0_linear_3827_4354" x1="312.298" y1="73.4999" x2="179.093" y2="73.4999" gradientUnits="userSpaceOnUse">
<stop stop-color="#BCFE68"/>
<stop offset="1" stop-color="#E9FFCC" stop-opacity="0"/>
</linearGradient>
<linearGradient id="paint1_linear_3827_4354" x1="52" y1="52.6" x2="80.5" y2="93.6" gradientUnits="userSpaceOnUse">
<stop stop-color="#BCFE68"/>
<stop offset="1" stop-color="#A1FE68"/>
</linearGradient>
<radialGradient id="paint2_radial_3827_4354" cx="0" cy="0" r="1" gradientUnits="userSpaceOnUse" gradientTransform="translate(65.8742 57.9946) rotate(90.8706) scale(31.209 54.3104)">
<stop offset="0.460609" stop-color="#687066"/>
<stop offset="0.475764" stop-color="#282A27"/>
</radialGradient>
<linearGradient id="paint3_linear_3827_4354" x1="68" y1="147.474" x2="68" y2="133.915" gradientUnits="userSpaceOnUse">
<stop stop-color="#B59DFF"/>
<stop offset="1" stop-color="#8057FF"/>
</linearGradient>
<linearGradient id="paint4_linear_3827_4354" x1="69.2416" y1="122.357" x2="69.2416" y2="136.195" gradientUnits="userSpaceOnUse">
<stop stop-color="#F4E3D3"/>
<stop offset="1" stop-color="#EB965E"/>
</linearGradient>
<linearGradient id="paint5_linear_3827_4354" x1="96.5319" y1="120.529" x2="96.5319" y2="140.233" gradientUnits="userSpaceOnUse">
<stop stop-color="#F4E3D3"/>
<stop offset="1" stop-color="#EB965E"/>
</linearGradient>
<linearGradient id="paint6_linear_3827_4354" x1="125.102" y1="122.36" x2="125.102" y2="137.225" gradientUnits="userSpaceOnUse">
<stop stop-color="#FFD4B3"/>
<stop offset="1" stop-color="#FFDCC2"/>
</linearGradient>
<linearGradient id="paint7_linear_3827_4354" x1="152.582" y1="117.431" x2="152.582" y2="139.489" gradientUnits="userSpaceOnUse">
<stop stop-color="#F4E3D3"/>
<stop offset="1" stop-color="#F6D8C4"/>
</linearGradient>
<clipPath id="clip0_3827_4354">
<path d="M356 34C356 25.1634 363.163 18 372 18H532C540.837 18 548 25.1634 548 34V226C548 234.837 540.837 242 532 242H372C363.163 242 356 234.837 356 226V34Z" fill="white"/>
</clipPath>
<clipPath id="clip1_3827_4354">
<path d="M52 128C52 119.163 59.1634 112 68 112V112C76.8366 112 84 119.163 84 128V128C84 136.837 76.8366 144 68 144V144C59.1634 144 52 136.837 52 128V128Z" fill="white"/>
</clipPath>
<clipPath id="clip2_3827_4354">
<rect x="52" y="112" width="32" height="32" rx="16" fill="white"/>
</clipPath>
<clipPath id="clip3_3827_4354">
<path d="M80 128C80 119.163 87.1634 112 96 112V112C104.837 112 112 119.163 112 128V128C112 136.837 104.837 144 96 144V144C87.1634 144 80 136.837 80 128V128Z" fill="white"/>
</clipPath>
<clipPath id="clip4_3827_4354">
<rect x="80" y="112" width="32" height="32" rx="16" fill="white"/>
</clipPath>
<clipPath id="clip5_3827_4354">
<path d="M108 128C108 119.163 115.163 112 124 112V112C132.837 112 140 119.163 140 128V128C140 136.837 132.837 144 124 144V144C115.163 144 108 136.837 108 128V128Z" fill="white"/>
</clipPath>
<clipPath id="clip6_3827_4354">
<rect x="108" y="112" width="32" height="32" rx="16" fill="white"/>
</clipPath>
<clipPath id="clip7_3827_4354">
<path d="M136 128C136 119.163 143.163 112 152 112V112C160.837 112 168 119.163 168 128V128C168 136.837 160.837 144 152 144V144C143.163 144 136 136.837 136 128V128Z" fill="white"/>
</clipPath>
<clipPath id="clip8_3827_4354">
<rect x="136" y="112" width="32" height="32" rx="16" fill="white"/>
</clipPath>
</defs>
</svg>
