<svg width="600" height="260" viewBox="0 0 600 260" fill="none" xmlns="http://www.w3.org/2000/svg">
<g clip-path="url(#clip0_3827_4218)">
<g filter="url(#filter0_ddd_3827_4218)">
<path d="M372 46.8C372 42.3196 372 40.0794 372.872 38.3681C373.639 36.8628 374.863 35.6389 376.368 34.8719C378.079 34 380.32 34 384.8 34H519.2C523.68 34 525.921 34 527.632 34.8719C529.137 35.6389 530.361 36.8628 531.128 38.3681C532 40.0794 532 42.3196 532 46.8V53.2C532 57.6804 532 59.9206 531.128 61.6319C530.361 63.1372 529.137 64.3611 527.632 65.1281C525.921 66 523.68 66 519.2 66H384.8C380.32 66 378.079 66 376.368 65.1281C374.863 64.3611 373.639 63.1372 372.872 61.6319C372 59.9206 372 57.6804 372 53.2V46.8Z" fill="white" shape-rendering="crispEdges"/>
<path d="M380 48.4C380 46.1598 380 45.0397 380.436 44.184C380.819 43.4314 381.431 42.8195 382.184 42.436C383.04 42 384.16 42 386.4 42H389.6C391.84 42 392.96 42 393.816 42.436C394.569 42.8195 395.181 43.4314 395.564 44.184C396 45.0397 396 46.1598 396 48.4V51.6C396 53.8402 396 54.9603 395.564 55.816C395.181 56.5686 394.569 57.1805 393.816 57.564C392.96 58 391.84 58 389.6 58H386.4C384.16 58 383.04 58 382.184 57.564C381.431 57.1805 380.819 56.5686 380.436 55.816C380 54.9603 380 53.8402 380 51.6V48.4Z" fill="#8CB654"/>
<path d="M386.75 53.7495C386.43 53.7495 386.11 53.6271 385.866 53.3833L383.367 50.8836C382.878 50.3949 382.878 49.605 383.367 49.1163C383.855 48.6276 384.645 48.6276 385.134 49.1163L386.75 50.7324L390.866 46.6165C391.355 46.1278 392.145 46.1278 392.633 46.6165C393.122 47.1052 393.122 47.8951 392.633 48.3838L387.634 53.3833C387.39 53.6271 387.07 53.7495 386.75 53.7495Z" fill="white"/>
<path d="M409.6 46.9V47.85H407.5V54H406.5V47.85H404.4V46.9H409.6ZM413.996 54.16C412.306 54.16 411.356 52.8 411.356 50.46C411.356 48.1 412.306 46.74 413.996 46.74C415.686 46.74 416.636 48.1 416.636 50.46C416.636 52.8 415.686 54.16 413.996 54.16ZM412.406 50.46C412.406 52.23 412.966 53.21 413.996 53.21C415.026 53.21 415.586 52.23 415.586 50.46C415.586 48.68 415.026 47.69 413.996 47.69C412.966 47.69 412.406 48.68 412.406 50.46ZM421.072 46.9C422.632 46.9 423.582 47.74 423.582 49.09C423.582 50.47 422.632 51.32 421.072 51.32H419.842V54H418.852V46.9H421.072ZM419.842 50.37H421.022C422.022 50.37 422.532 49.93 422.532 49.09C422.532 48.28 422.022 47.85 421.022 47.85H419.842V50.37ZM430.088 46.9V47.85H428.488V53.05H430.138V54H425.838V53.05H427.488V47.85H425.888V46.9H430.088ZM437.674 51.7C437.404 53.22 436.474 54.16 435.124 54.16C433.354 54.16 432.344 52.73 432.344 50.46C432.344 48.17 433.354 46.74 435.124 46.74C436.394 46.74 437.304 47.62 437.624 49.05L436.564 49.12C436.324 48.2 435.814 47.69 435.114 47.69C434.004 47.69 433.384 48.68 433.384 50.46C433.384 52.23 434.004 53.21 435.114 53.21C435.884 53.21 436.414 52.66 436.624 51.64L437.674 51.7ZM449.197 48.51L449.937 46.9H450.487L449.957 48.51H450.477V49.75H449.197V48.51ZM447.457 49.75V48.51L448.197 46.9H448.747L448.217 48.51H448.737V49.75H447.457ZM453.203 54L455.353 46.9H456.593L458.743 54H457.713L457.173 52.14H454.773L454.233 54H453.203ZM455.023 51.26H456.923L455.973 48L455.023 51.26ZM462.749 48.14L462.009 49.75H461.459L461.989 48.14H461.469V46.9H462.749V48.14ZM463.199 49.75L463.729 48.14H463.209V46.9H464.489V48.14L463.749 49.75H463.199Z" fill="#1D211C"/>
</g>
<g filter="url(#filter1_ddd_3827_4218)">
<path d="M372 86.8C372 82.3196 372 80.0794 372.872 78.3681C373.639 76.8628 374.863 75.6389 376.368 74.8719C378.079 74 380.32 74 384.8 74H519.2C523.68 74 525.921 74 527.632 74.8719C529.137 75.6389 530.361 76.8628 531.128 78.3681C532 80.0794 532 82.3196 532 86.8V93.2C532 97.6804 532 99.9206 531.128 101.632C530.361 103.137 529.137 104.361 527.632 105.128C525.921 106 523.68 106 519.2 106H384.8C380.32 106 378.079 106 376.368 105.128C374.863 104.361 373.639 103.137 372.872 101.632C372 99.9206 372 97.6804 372 93.2V86.8Z" fill="white" shape-rendering="crispEdges"/>
<path d="M380 88.4C380 86.1598 380 85.0397 380.436 84.184C380.819 83.4314 381.431 82.8195 382.184 82.436C383.04 82 384.16 82 386.4 82H389.6C391.84 82 392.96 82 393.816 82.436C394.569 82.8195 395.181 83.4314 395.564 84.184C396 85.0397 396 86.1598 396 88.4V91.6C396 93.8402 396 94.9603 395.564 95.816C395.181 96.5686 394.569 97.1805 393.816 97.564C392.96 98 391.84 98 389.6 98H386.4C384.16 98 383.04 98 382.184 97.564C381.431 97.1805 380.819 96.5686 380.436 95.816C380 94.9603 380 93.8402 380 91.6V88.4Z" fill="#8CB654"/>
<path d="M386.75 93.7495C386.43 93.7495 386.11 93.6271 385.866 93.3833L383.367 90.8836C382.878 90.3949 382.878 89.605 383.367 89.1163C383.855 88.6276 384.645 88.6276 385.134 89.1163L386.75 90.7324L390.866 86.6165C391.355 86.1278 392.145 86.1278 392.633 86.6165C393.122 87.1052 393.122 87.8951 392.633 88.3838L387.634 93.3833C387.39 93.6271 387.07 93.7495 386.75 93.7495Z" fill="white"/>
<path d="M409.6 86.9V87.85H407.5V94H406.5V87.85H404.4V86.9H409.6ZM413.996 94.16C412.306 94.16 411.356 92.8 411.356 90.46C411.356 88.1 412.306 86.74 413.996 86.74C415.686 86.74 416.636 88.1 416.636 90.46C416.636 92.8 415.686 94.16 413.996 94.16ZM412.406 90.46C412.406 92.23 412.966 93.21 413.996 93.21C415.026 93.21 415.586 92.23 415.586 90.46C415.586 88.68 415.026 87.69 413.996 87.69C412.966 87.69 412.406 88.68 412.406 90.46ZM421.072 86.9C422.632 86.9 423.582 87.74 423.582 89.09C423.582 90.47 422.632 91.32 421.072 91.32H419.842V94H418.852V86.9H421.072ZM419.842 90.37H421.022C422.022 90.37 422.532 89.93 422.532 89.09C422.532 88.28 422.022 87.85 421.022 87.85H419.842V90.37ZM430.088 86.9V87.85H428.488V93.05H430.138V94H425.838V93.05H427.488V87.85H425.888V86.9H430.088ZM437.674 91.7C437.404 93.22 436.474 94.16 435.124 94.16C433.354 94.16 432.344 92.73 432.344 90.46C432.344 88.17 433.354 86.74 435.124 86.74C436.394 86.74 437.304 87.62 437.624 89.05L436.564 89.12C436.324 88.2 435.814 87.69 435.114 87.69C434.004 87.69 433.384 88.68 433.384 90.46C433.384 92.23 434.004 93.21 435.114 93.21C435.884 93.21 436.414 92.66 436.624 91.64L437.674 91.7ZM449.197 88.51L449.937 86.9H450.487L449.957 88.51H450.477V89.75H449.197V88.51ZM447.457 89.75V88.51L448.197 86.9H448.747L448.217 88.51H448.737V89.75H447.457ZM453.713 94V86.9H455.703C457.353 86.9 458.263 87.6 458.263 88.87C458.263 89.64 457.723 90.21 456.923 90.33C457.943 90.44 458.563 91.05 458.563 91.99C458.563 93.24 457.633 94 456.103 94H453.713ZM454.713 93.05H456.083C456.973 93.05 457.523 92.64 457.523 91.96C457.523 91.26 457.003 90.86 456.083 90.86H454.713V93.05ZM454.713 89.92H455.713C456.683 89.92 457.223 89.55 457.223 88.89C457.223 88.22 456.683 87.85 455.713 87.85H454.713V89.92ZM462.749 88.14L462.009 89.75H461.459L461.989 88.14H461.469V86.9H462.749V88.14ZM463.199 89.75L463.729 88.14H463.209V86.9H464.489V88.14L463.749 89.75H463.199Z" fill="#1D211C"/>
</g>
<path d="M384.8 114.5H519.2C521.448 114.5 523.105 114.5 524.414 114.607C525.717 114.714 526.632 114.923 527.405 115.317C528.816 116.037 529.964 117.184 530.683 118.595C531.077 119.368 531.286 120.283 531.393 121.586C531.5 122.895 531.5 124.552 531.5 126.8V133.2C531.5 135.448 531.5 137.105 531.393 138.414C531.286 139.717 531.077 140.632 530.683 141.405C529.964 142.816 528.816 143.963 527.405 144.683C526.632 145.077 525.717 145.286 524.414 145.393C523.105 145.5 521.448 145.5 519.2 145.5H384.8C382.552 145.5 380.895 145.5 379.586 145.393C378.283 145.286 377.368 145.077 376.595 144.683C375.184 143.963 374.037 142.816 373.317 141.405C372.923 140.632 372.714 139.717 372.607 138.414C372.5 137.105 372.5 135.448 372.5 133.2V126.8C372.5 124.552 372.5 122.895 372.607 121.586C372.714 120.283 372.923 119.368 373.317 118.595C374.037 117.184 375.184 116.037 376.595 115.317C377.368 114.923 378.283 114.714 379.586 114.607C380.895 114.5 382.552 114.5 384.8 114.5Z" stroke="#DFE2DF"/>
<g filter="url(#filter2_i_3827_4218)">
<path d="M380 128.4C380 126.16 380 125.04 380.436 124.184C380.819 123.431 381.431 122.819 382.184 122.436C383.04 122 384.16 122 386.4 122H389.6C391.84 122 392.96 122 393.816 122.436C394.569 122.819 395.181 123.431 395.564 124.184C396 125.04 396 126.16 396 128.4V131.6C396 133.84 396 134.96 395.564 135.816C395.181 136.569 394.569 137.181 393.816 137.564C392.96 138 391.84 138 389.6 138H386.4C384.16 138 383.04 138 382.184 137.564C381.431 137.181 380.819 136.569 380.436 135.816C380 134.96 380 133.84 380 131.6V128.4Z" fill="white"/>
<path d="M386.4 122.5H389.6C390.728 122.5 391.545 122.5 392.186 122.553C392.823 122.605 393.243 122.705 393.589 122.881C394.248 123.217 394.783 123.752 395.119 124.411C395.295 124.757 395.395 125.177 395.447 125.814C395.5 126.455 395.5 127.272 395.5 128.4V131.6C395.5 132.728 395.5 133.545 395.447 134.186C395.395 134.823 395.295 135.243 395.119 135.589C394.783 136.248 394.248 136.783 393.589 137.119C393.243 137.295 392.823 137.395 392.186 137.447C391.545 137.5 390.728 137.5 389.6 137.5H386.4C385.272 137.5 384.455 137.5 383.814 137.447C383.177 137.395 382.757 137.295 382.411 137.119C381.752 136.783 381.217 136.248 380.881 135.589C380.705 135.243 380.605 134.823 380.553 134.186C380.5 133.545 380.5 132.728 380.5 131.6V128.4C380.5 127.272 380.5 126.455 380.553 125.814C380.605 125.177 380.705 124.757 380.881 124.411C381.217 123.752 381.752 123.217 382.411 122.881C382.757 122.705 383.177 122.605 383.814 122.553C384.455 122.5 385.272 122.5 386.4 122.5Z" stroke="#B9BCB8"/>
</g>
<path d="M407.22 128.51L407.96 126.9H408.51L407.98 128.51H408.5V129.75H407.22V128.51ZM405.48 129.75V128.51L406.22 126.9H406.77L406.24 128.51H406.76V129.75H405.48ZM412.476 131.64C412.646 132.56 413.266 133.17 414.236 133.17C414.996 133.17 415.546 132.82 415.536 132.16C415.536 131.49 414.966 131.09 413.736 130.76C412.606 130.47 411.596 129.88 411.596 128.74C411.596 127.51 412.556 126.74 413.866 126.74C415.286 126.74 416.286 127.69 416.446 129.02L415.406 129.08C415.286 128.24 414.666 127.69 413.846 127.69C413.156 127.69 412.616 128.1 412.626 128.75C412.636 129.54 413.486 129.76 414.326 129.98C415.556 130.32 416.566 130.99 416.566 132.08C416.566 133.41 415.406 134.12 414.176 134.12C412.686 134.12 411.556 133.17 411.446 131.71L412.476 131.64ZM423.402 131.51C423.402 133.15 422.522 134.16 420.992 134.16C419.462 134.16 418.582 133.15 418.582 131.51V126.89H419.582V131.54C419.582 132.61 420.052 133.21 420.992 133.21C421.932 133.21 422.402 132.61 422.402 131.54V126.89H423.402V131.51ZM425.728 134V126.9H427.718C429.368 126.9 430.278 127.6 430.278 128.87C430.278 129.64 429.738 130.21 428.938 130.33C429.958 130.44 430.578 131.05 430.578 131.99C430.578 133.24 429.648 134 428.118 134H425.728ZM426.728 133.05H428.098C428.988 133.05 429.538 132.64 429.538 131.96C429.538 131.26 429.018 130.86 428.098 130.86H426.728V133.05ZM426.728 129.92H427.728C428.698 129.92 429.238 129.55 429.238 128.89C429.238 128.22 428.698 127.85 427.728 127.85H426.728V129.92ZM433.344 131.55C433.354 132.62 433.824 133.21 434.704 133.21C435.644 133.21 436.094 132.61 436.094 131.51V126.9H437.094V131.51C437.094 133.15 436.214 134.16 434.704 134.16C433.264 134.16 432.334 133.13 432.324 131.63L433.344 131.55ZM439.83 126.9H444.36V127.85H440.83V129.97H444.24V130.91H440.83V133.05H444.44V134H439.83V126.9ZM451.667 131.7C451.397 133.22 450.467 134.16 449.117 134.16C447.347 134.16 446.337 132.73 446.337 130.46C446.337 128.17 447.347 126.74 449.117 126.74C450.387 126.74 451.297 127.62 451.617 129.05L450.557 129.12C450.317 128.2 449.807 127.69 449.107 127.69C447.997 127.69 447.377 128.68 447.377 130.46C447.377 132.23 447.997 133.21 449.107 133.21C449.877 133.21 450.407 132.66 450.617 131.64L451.667 131.7ZM458.573 126.9V127.85H456.473V134H455.473V127.85H453.373V126.9H458.573ZM462.749 128.14L462.009 129.75H461.459L461.989 128.14H461.469V126.9H462.749V128.14ZM463.199 129.75L463.729 128.14H463.209V126.9H464.489V128.14L463.749 129.75H463.199Z" fill="#1D211C"/>
<g filter="url(#filter3_ddd_3827_4218)">
<path d="M372 166.8C372 162.32 372 160.079 372.872 158.368C373.639 156.863 374.863 155.639 376.368 154.872C378.079 154 380.32 154 384.8 154H519.2C523.68 154 525.921 154 527.632 154.872C529.137 155.639 530.361 156.863 531.128 158.368C532 160.079 532 162.32 532 166.8V173.2C532 177.68 532 179.921 531.128 181.632C530.361 183.137 529.137 184.361 527.632 185.128C525.921 186 523.68 186 519.2 186H384.8C380.32 186 378.079 186 376.368 185.128C374.863 184.361 373.639 183.137 372.872 181.632C372 179.921 372 177.68 372 173.2V166.8Z" fill="white" shape-rendering="crispEdges"/>
<path d="M380 168.4C380 166.16 380 165.04 380.436 164.184C380.819 163.431 381.431 162.819 382.184 162.436C383.04 162 384.16 162 386.4 162H389.6C391.84 162 392.96 162 393.816 162.436C394.569 162.819 395.181 163.431 395.564 164.184C396 165.04 396 166.16 396 168.4V171.6C396 173.84 396 174.96 395.564 175.816C395.181 176.569 394.569 177.181 393.816 177.564C392.96 178 391.84 178 389.6 178H386.4C384.16 178 383.04 178 382.184 177.564C381.431 177.181 380.819 176.569 380.436 175.816C380 174.96 380 173.84 380 171.6V168.4Z" fill="#8CB654"/>
<path d="M386.75 173.75C386.43 173.75 386.11 173.627 385.866 173.383L383.367 170.884C382.878 170.395 382.878 169.605 383.367 169.116C383.855 168.628 384.645 168.628 385.134 169.116L386.75 170.732L390.866 166.617C391.355 166.128 392.145 166.128 392.633 166.617C393.122 167.105 393.122 167.895 392.633 168.384L387.634 173.383C387.39 173.627 387.07 173.75 386.75 173.75Z" fill="white"/>
<path d="M404.51 166.9H405.51V169.87L408.29 166.9H409.55L406.79 169.94L409.73 174H408.52L406.1 170.66L405.51 171.27V174H404.51V166.9ZM411.226 174L413.376 166.9H414.616L416.766 174H415.736L415.196 172.14H412.796L412.256 174H411.226ZM413.046 171.26H414.946L413.996 168L413.046 171.26ZM418.902 166.9H423.332V167.85H419.912V170.06H423.152V170.99H419.912V174H418.902V166.9ZM425.498 166.9H426.498V169.87L429.278 166.9H430.538L427.778 169.94L430.718 174H429.508L427.088 170.66L426.498 171.27V174H425.498V166.9ZM432.214 174L434.364 166.9H435.604L437.754 174H436.724L436.184 172.14H433.784L433.244 174H432.214ZM434.034 171.26H435.934L434.984 168L434.034 171.26ZM451.667 171.7C451.397 173.22 450.467 174.16 449.117 174.16C447.347 174.16 446.337 172.73 446.337 170.46C446.337 168.17 447.347 166.74 449.117 166.74C450.387 166.74 451.297 167.62 451.617 169.05L450.557 169.12C450.317 168.2 449.807 167.69 449.107 167.69C447.997 167.69 447.377 168.68 447.377 170.46C447.377 172.23 447.997 173.21 449.107 173.21C449.877 173.21 450.407 172.66 450.617 171.64L451.667 171.7ZM455.973 174.16C454.283 174.16 453.333 172.8 453.333 170.46C453.333 168.1 454.283 166.74 455.973 166.74C457.663 166.74 458.613 168.1 458.613 170.46C458.613 172.8 457.663 174.16 455.973 174.16ZM454.383 170.46C454.383 172.23 454.943 173.21 455.973 173.21C457.003 173.21 457.563 172.23 457.563 170.46C457.563 168.68 457.003 167.69 455.973 167.69C454.943 167.69 454.383 168.68 454.383 170.46ZM460.699 166.9H462.009L464.239 172.55V166.9H465.239V174H463.839L461.699 168.56V174H460.699V166.9ZM467.695 166.9H469.005L471.235 172.55V166.9H472.235V174H470.835L468.695 168.56V174H467.695V166.9ZM474.811 166.9H479.341V167.85H475.811V169.97H479.221V170.91H475.811V173.05H479.421V174H474.811V166.9ZM486.647 171.7C486.377 173.22 485.447 174.16 484.097 174.16C482.327 174.16 481.317 172.73 481.317 170.46C481.317 168.17 482.327 166.74 484.097 166.74C485.367 166.74 486.277 167.62 486.597 169.05L485.537 169.12C485.297 168.2 484.787 167.69 484.087 167.69C482.977 167.69 482.357 168.68 482.357 170.46C482.357 172.23 482.977 173.21 484.087 173.21C484.857 173.21 485.387 172.66 485.597 171.64L486.647 171.7ZM493.553 166.9V167.85H491.453V174H490.453V167.85H488.353V166.9H493.553Z" fill="#1D211C"/>
</g>
<path d="M384.8 194.5H519.2C521.448 194.5 523.105 194.5 524.414 194.607C525.717 194.714 526.632 194.923 527.405 195.317C528.816 196.037 529.964 197.184 530.683 198.595C531.077 199.368 531.286 200.283 531.393 201.586C531.5 202.895 531.5 204.552 531.5 206.8V213.2C531.5 215.448 531.5 217.105 531.393 218.414C531.286 219.717 531.077 220.632 530.683 221.405C529.964 222.816 528.816 223.963 527.405 224.683C526.632 225.077 525.717 225.286 524.414 225.393C523.105 225.5 521.448 225.5 519.2 225.5H384.8C382.552 225.5 380.895 225.5 379.586 225.393C378.283 225.286 377.368 225.077 376.595 224.683C375.184 223.963 374.037 222.816 373.317 221.405C372.923 220.632 372.714 219.717 372.607 218.414C372.5 217.105 372.5 215.448 372.5 213.2V206.8C372.5 204.552 372.5 202.895 372.607 201.586C372.714 200.283 372.923 199.368 373.317 198.595C374.037 197.184 375.184 196.037 376.595 195.317C377.368 194.923 378.283 194.714 379.586 194.607C380.895 194.5 382.552 194.5 384.8 194.5Z" stroke="#DFE2DF"/>
<g filter="url(#filter4_i_3827_4218)">
<path d="M380 208.4C380 206.16 380 205.04 380.436 204.184C380.819 203.431 381.431 202.819 382.184 202.436C383.04 202 384.16 202 386.4 202H389.6C391.84 202 392.96 202 393.816 202.436C394.569 202.819 395.181 203.431 395.564 204.184C396 205.04 396 206.16 396 208.4V211.6C396 213.84 396 214.96 395.564 215.816C395.181 216.569 394.569 217.181 393.816 217.564C392.96 218 391.84 218 389.6 218H386.4C384.16 218 383.04 218 382.184 217.564C381.431 217.181 380.819 216.569 380.436 215.816C380 214.96 380 213.84 380 211.6V208.4Z" fill="white"/>
<path d="M386.4 202.5H389.6C390.728 202.5 391.545 202.5 392.186 202.553C392.823 202.605 393.243 202.705 393.589 202.881C394.248 203.217 394.783 203.752 395.119 204.411C395.295 204.757 395.395 205.177 395.447 205.814C395.5 206.455 395.5 207.272 395.5 208.4V211.6C395.5 212.728 395.5 213.545 395.447 214.186C395.395 214.823 395.295 215.243 395.119 215.589C394.783 216.248 394.248 216.783 393.589 217.119C393.243 217.295 392.823 217.395 392.186 217.447C391.545 217.5 390.728 217.5 389.6 217.5H386.4C385.272 217.5 384.455 217.5 383.814 217.447C383.177 217.395 382.757 217.295 382.411 217.119C381.752 216.783 381.217 216.248 380.881 215.589C380.705 215.243 380.605 214.823 380.553 214.186C380.5 213.545 380.5 212.728 380.5 211.6V208.4C380.5 207.272 380.5 206.455 380.553 205.814C380.605 205.177 380.705 204.757 380.881 204.411C381.217 203.752 381.752 203.217 382.411 202.881C382.757 202.705 383.177 202.605 383.814 202.553C384.455 202.5 385.272 202.5 386.4 202.5Z" stroke="#B9BCB8"/>
</g>
<path d="M409.69 211.7C409.42 213.22 408.49 214.16 407.14 214.16C405.37 214.16 404.36 212.73 404.36 210.46C404.36 208.17 405.37 206.74 407.14 206.74C408.41 206.74 409.32 207.62 409.64 209.05L408.58 209.12C408.34 208.2 407.83 207.69 407.13 207.69C406.02 207.69 405.4 208.68 405.4 210.46C405.4 212.23 406.02 213.21 407.13 213.21C407.9 213.21 408.43 212.66 408.64 211.64L409.69 211.7ZM413.996 214.16C412.306 214.16 411.356 212.8 411.356 210.46C411.356 208.1 412.306 206.74 413.996 206.74C415.686 206.74 416.636 208.1 416.636 210.46C416.636 212.8 415.686 214.16 413.996 214.16ZM412.406 210.46C412.406 212.23 412.966 213.21 413.996 213.21C415.026 213.21 415.586 212.23 415.586 210.46C415.586 208.68 415.026 207.69 413.996 207.69C412.966 207.69 412.406 208.68 412.406 210.46ZM418.722 206.9H420.032L422.262 212.55V206.9H423.262V214H421.862L419.722 208.56V214H418.722V206.9ZM426.468 211.64C426.638 212.56 427.258 213.17 428.228 213.17C428.988 213.17 429.538 212.82 429.528 212.16C429.528 211.49 428.958 211.09 427.728 210.76C426.598 210.47 425.588 209.88 425.588 208.74C425.588 207.51 426.548 206.74 427.858 206.74C429.278 206.74 430.278 207.69 430.438 209.02L429.398 209.08C429.278 208.24 428.658 207.69 427.838 207.69C427.148 207.69 426.608 208.1 426.618 208.75C426.628 209.54 427.478 209.76 428.318 209.98C429.548 210.32 430.558 210.99 430.558 212.08C430.558 213.41 429.398 214.12 428.168 214.12C426.678 214.12 425.548 213.17 425.438 211.71L426.468 211.64ZM437.394 211.51C437.394 213.15 436.514 214.16 434.984 214.16C433.454 214.16 432.574 213.15 432.574 211.51V206.89H433.574V211.54C433.574 212.61 434.044 213.21 434.984 213.21C435.924 213.21 436.394 212.61 436.394 211.54V206.89H437.394V211.51ZM439.56 206.9H441.07L441.98 211.75L442.89 206.9H444.4V214H443.4V208.18L442.38 213.5H441.58L440.56 208.18V214H439.56V206.9ZM446.827 206.9H451.357V207.85H447.827V209.97H451.237V210.91H447.827V213.05H451.437V214H446.827V206.9ZM455.943 206.9C457.443 206.9 458.383 207.73 458.383 209.05C458.383 209.87 457.853 210.51 457.233 210.71C457.903 210.84 458.203 211.21 458.273 211.94L458.463 214H457.453L457.273 212.04C457.223 211.42 456.823 211.21 455.873 211.21H454.663V214H453.673V206.9H455.943ZM454.663 210.26H455.933C456.823 210.26 457.333 209.83 457.333 209.06C457.333 208.3 456.823 207.85 455.933 207.85H454.663V210.26ZM472.545 214H471.895L471.775 213.03C471.455 213.72 470.785 214.16 470.025 214.16C468.365 214.16 467.305 212.72 467.305 210.46C467.305 208.19 468.365 206.74 470.025 206.74C471.265 206.74 472.245 207.65 472.565 209.03L471.525 209.1C471.305 208.25 470.735 207.69 470.035 207.69C468.945 207.69 468.345 208.7 468.345 210.46C468.345 212.21 468.945 213.21 470.035 213.21C470.915 213.21 471.515 212.38 471.585 211.3H470.015V210.38H472.545V214ZM476.931 206.9C478.431 206.9 479.371 207.73 479.371 209.05C479.371 209.87 478.841 210.51 478.221 210.71C478.891 210.84 479.191 211.21 479.261 211.94L479.451 214H478.441L478.261 212.04C478.211 211.42 477.811 211.21 476.861 211.21H475.651V214H474.661V206.9H476.931ZM475.651 210.26H476.921C477.811 210.26 478.321 209.83 478.321 209.06C478.321 208.3 477.811 207.85 476.921 207.85H475.651V210.26ZM483.957 214.16C482.267 214.16 481.317 212.8 481.317 210.46C481.317 208.1 482.267 206.74 483.957 206.74C485.647 206.74 486.597 208.1 486.597 210.46C486.597 212.8 485.647 214.16 483.957 214.16ZM482.367 210.46C482.367 212.23 482.927 213.21 483.957 213.21C484.987 213.21 485.547 212.23 485.547 210.46C485.547 208.68 484.987 207.69 483.957 207.69C482.927 207.69 482.367 208.68 482.367 210.46ZM493.363 211.51C493.363 213.15 492.483 214.16 490.953 214.16C489.423 214.16 488.543 213.15 488.543 211.51V206.89H489.543V211.54C489.543 212.61 490.013 213.21 490.953 213.21C491.893 213.21 492.363 212.61 492.363 211.54V206.89H493.363V211.51ZM498.029 206.9C499.589 206.9 500.539 207.74 500.539 209.09C500.539 210.47 499.589 211.32 498.029 211.32H496.799V214H495.809V206.9H498.029ZM496.799 210.37H497.979C498.979 210.37 499.489 209.93 499.489 209.09C499.489 208.28 498.979 207.85 497.979 207.85H496.799V210.37Z" fill="#1D211C"/>
<path d="M384.8 234.5H519.2C521.448 234.5 523.105 234.5 524.414 234.607C525.717 234.714 526.632 234.923 527.405 235.317C528.816 236.037 529.964 237.184 530.683 238.595C531.077 239.368 531.286 240.283 531.393 241.586C531.5 242.895 531.5 244.552 531.5 246.8V253.2C531.5 255.448 531.5 257.105 531.393 258.414C531.286 259.717 531.077 260.632 530.683 261.405C529.964 262.816 528.816 263.963 527.405 264.683C526.632 265.077 525.717 265.286 524.414 265.393C523.105 265.5 521.448 265.5 519.2 265.5H384.8C382.552 265.5 380.895 265.5 379.586 265.393C378.283 265.286 377.368 265.077 376.595 264.683C375.184 263.963 374.037 262.816 373.317 261.405C372.923 260.632 372.714 259.717 372.607 258.414C372.5 257.105 372.5 255.448 372.5 253.2V246.8C372.5 244.552 372.5 242.895 372.607 241.586C372.714 240.283 372.923 239.368 373.317 238.595C374.037 237.184 375.184 236.037 376.595 235.317C377.368 234.923 378.283 234.714 379.586 234.607C380.895 234.5 382.552 234.5 384.8 234.5Z" stroke="#DFE2DF"/>
</g>
<path d="M372 18.5H532C540.56 18.5 547.5 25.4396 547.5 34V226C547.5 234.56 540.56 241.5 532 241.5H372C363.44 241.5 356.5 234.56 356.5 226V34C356.5 25.4396 363.44 18.5 372 18.5Z" stroke="#DFE2DF"/>
<path d="M356 71.5H112" stroke="#DFE2DF" stroke-width="2"/>
<path d="M306.965 71.5C306.965 74.4455 309.353 76.8333 312.298 76.8333C315.244 76.8333 317.631 74.4455 317.631 71.5C317.631 68.5545 315.244 66.1667 312.298 66.1667C309.353 66.1667 306.965 68.5545 306.965 71.5ZM191 72.5L312.298 72.5L312.298 70.5L191 70.5L191 72.5Z" fill="url(#paint0_linear_3827_4218)"/>
<g filter="url(#filter5_ddd_3827_4218)">
<g clip-path="url(#clip1_3827_4218)">
<path d="M52 68.3C52 63.8196 52 61.5794 52.8719 59.8681C53.6389 58.3628 54.8628 57.1389 56.3681 56.3719C58.0794 55.5 60.3196 55.5 64.8 55.5H178.2C182.68 55.5 184.921 55.5 186.632 56.3719C188.137 57.1389 189.361 58.3628 190.128 59.8681C191 61.5794 191 63.8196 191 68.3V74.7C191 79.1804 191 81.4206 190.128 83.1319C189.361 84.6372 188.137 85.8611 186.632 86.6281C184.921 87.5 182.68 87.5 178.2 87.5H64.8C60.3196 87.5 58.0794 87.5 56.3681 86.6281C54.8628 85.8611 53.6389 84.6372 52.8719 83.1319C52 81.4206 52 79.1804 52 74.7V68.3Z" fill="white"/>
<path d="M52 68.3C52 63.8196 52 61.5794 52.8719 59.8681C53.6389 58.3628 54.8628 57.1389 56.3681 56.3719C58.0794 55.5 60.3196 55.5 64.8 55.5H84V87.5H64.8C60.3196 87.5 58.0794 87.5 56.3681 86.6281C54.8628 85.8611 53.6389 84.6372 52.8719 83.1319C52 81.4206 52 79.1804 52 74.7V68.3Z" fill="url(#paint1_linear_3827_4218)"/>
<path d="M60 71.5L70.6667 61.5L69.3333 69L76 71.5L65.3333 81.5L66.6667 74L60 71.5Z" fill="url(#paint2_radial_3827_4218)"/>
<path d="M101.58 75.5H100.93L100.81 74.53C100.49 75.22 99.82 75.66 99.06 75.66C97.4 75.66 96.34 74.22 96.34 71.96C96.34 69.69 97.4 68.24 99.06 68.24C100.3 68.24 101.28 69.15 101.6 70.53L100.56 70.6C100.34 69.75 99.77 69.19 99.07 69.19C97.98 69.19 97.38 70.2 97.38 71.96C97.38 73.71 97.98 74.71 99.07 74.71C99.95 74.71 100.55 73.88 100.62 72.8H99.05V71.88H101.58V75.5ZM105.966 68.4C107.466 68.4 108.406 69.23 108.406 70.55C108.406 71.37 107.876 72.01 107.256 72.21C107.926 72.34 108.226 72.71 108.296 73.44L108.486 75.5H107.476L107.296 73.54C107.246 72.92 106.846 72.71 105.896 72.71H104.686V75.5H103.696V68.4H105.966ZM104.686 71.76H105.956C106.846 71.76 107.356 71.33 107.356 70.56C107.356 69.8 106.846 69.35 105.956 69.35H104.686V71.76ZM112.992 75.66C111.302 75.66 110.352 74.3 110.352 71.96C110.352 69.6 111.302 68.24 112.992 68.24C114.682 68.24 115.632 69.6 115.632 71.96C115.632 74.3 114.682 75.66 112.992 75.66ZM111.402 71.96C111.402 73.73 111.962 74.71 112.992 74.71C114.022 74.71 114.582 73.73 114.582 71.96C114.582 70.18 114.022 69.19 112.992 69.19C111.962 69.19 111.402 70.18 111.402 71.96ZM122.398 73.01C122.398 74.65 121.518 75.66 119.988 75.66C118.458 75.66 117.578 74.65 117.578 73.01V68.39H118.578V73.04C118.578 74.11 119.048 74.71 119.988 74.71C120.928 74.71 121.398 74.11 121.398 73.04V68.39H122.398V73.01ZM127.064 68.4C128.624 68.4 129.574 69.24 129.574 70.59C129.574 71.97 128.624 72.82 127.064 72.82H125.834V75.5H124.844V68.4H127.064ZM125.834 71.87H127.014C128.014 71.87 128.524 71.43 128.524 70.59C128.524 69.78 128.014 69.35 127.014 69.35H125.834V71.87ZM138.207 75.5L140.357 68.4H141.597L143.747 75.5H142.717L142.177 73.64H139.777L139.237 75.5H138.207ZM140.027 72.76H141.927L140.977 69.5L140.027 72.76ZM150.663 73.2C150.393 74.72 149.463 75.66 148.113 75.66C146.343 75.66 145.333 74.23 145.333 71.96C145.333 69.67 146.343 68.24 148.113 68.24C149.383 68.24 150.293 69.12 150.613 70.55L149.553 70.62C149.313 69.7 148.803 69.19 148.103 69.19C146.993 69.19 146.373 70.18 146.373 71.96C146.373 73.73 146.993 74.71 148.103 74.71C148.873 74.71 149.403 74.16 149.613 73.14L150.663 73.2ZM157.659 73.2C157.389 74.72 156.459 75.66 155.109 75.66C153.339 75.66 152.329 74.23 152.329 71.96C152.329 69.67 153.339 68.24 155.109 68.24C156.379 68.24 157.289 69.12 157.609 70.55L156.549 70.62C156.309 69.7 155.799 69.19 155.099 69.19C153.989 69.19 153.369 70.18 153.369 71.96C153.369 73.73 153.989 74.71 155.099 74.71C155.869 74.71 156.399 74.16 156.609 73.14L157.659 73.2ZM159.815 68.4H164.345V69.35H160.815V71.47H164.225V72.41H160.815V74.55H164.425V75.5H159.815V68.4ZM167.441 73.14C167.611 74.06 168.231 74.67 169.201 74.67C169.961 74.67 170.511 74.32 170.501 73.66C170.501 72.99 169.931 72.59 168.701 72.26C167.571 71.97 166.561 71.38 166.561 70.24C166.561 69.01 167.521 68.24 168.831 68.24C170.251 68.24 171.251 69.19 171.411 70.52L170.371 70.58C170.251 69.74 169.631 69.19 168.811 69.19C168.121 69.19 167.581 69.6 167.591 70.25C167.601 71.04 168.451 71.26 169.291 71.48C170.521 71.82 171.531 72.49 171.531 73.58C171.531 74.91 170.371 75.62 169.141 75.62C167.651 75.62 166.521 74.67 166.411 73.21L167.441 73.14ZM174.437 73.14C174.607 74.06 175.227 74.67 176.197 74.67C176.957 74.67 177.507 74.32 177.497 73.66C177.497 72.99 176.927 72.59 175.697 72.26C174.567 71.97 173.557 71.38 173.557 70.24C173.557 69.01 174.517 68.24 175.827 68.24C177.247 68.24 178.247 69.19 178.407 70.52L177.367 70.58C177.247 69.74 176.627 69.19 175.807 69.19C175.117 69.19 174.577 69.6 174.587 70.25C174.597 71.04 175.447 71.26 176.287 71.48C177.517 71.82 178.527 72.49 178.527 73.58C178.527 74.91 177.367 75.62 176.137 75.62C174.647 75.62 173.517 74.67 173.407 73.21L174.437 73.14Z" fill="#1D211C"/>
</g>
</g>
<g clip-path="url(#clip2_3827_4218)">
<g clip-path="url(#clip3_3827_4218)">
<rect x="52" y="111.5" width="32" height="32" rx="16" fill="#E4D8FD"/>
<path d="M79.0394 139.174C79.9193 140.854 80.3593 146.974 80.3593 146.974H55.6406C55.6406 146.974 56.0806 140.854 56.9606 139.174C58.2805 136.654 68 133.415 68 133.415C68 133.415 77.7195 136.654 79.0394 139.174Z" fill="url(#paint3_linear_3827_4218)"/>
<path d="M78.2562 132.024L58.7623 129.668C57.8013 124.566 58.9412 121.352 62.1822 120.025C63.6804 115.116 69.5117 115.515 71.1647 115.915C76.7894 117.277 79.1532 122.647 78.2562 132.024Z" fill="url(#paint4_linear_3827_4218)"/>
<path d="M65.1201 134.855V127.655C62.1177 127.61 62.7033 122.407 65.72 123.995C66.26 124.235 67.6399 123.575 67.16 121.955C70.3998 124.355 74.9144 120.143 75.1995 122.735C75.7605 127.836 74.675 132.029 71.7968 132.029C71.49 132.041 71.1829 132.023 70.8798 131.975V134.855C69.9402 135.415 69.0007 135.695 68.0611 135.695C67.1216 135.695 66.1412 135.415 65.1201 134.855Z" fill="url(#paint5_linear_3827_4218)"/>
<path opacity="0.3" d="M70.88 131.975V132.935C69.08 132.935 67.6801 132.075 66.6802 130.355C67.8801 131.155 69.28 131.695 70.88 131.975Z" fill="#DB6F3D"/>
<path d="M67.9962 135.571C68.8171 135.532 70.88 135.107 70.88 134.19V133.415C71.1001 133.415 71.7302 133.934 72.0543 134.375C73.3353 136.114 71.9144 137.674 70.7555 137.674C69.2932 137.674 68.3242 136.453 68.0002 135.865C67.6762 136.453 66.7071 137.674 65.2449 137.674C64.086 137.674 62.665 136.114 63.9461 134.375C64.2702 133.934 64.9003 133.415 65.1203 133.415V134.19C65.1203 135.107 67.129 135.532 67.9962 135.571Z" fill="white"/>
</g>
</g>
<path d="M51.5 127.5C51.5 136.613 58.8873 144 68 144C77.1127 144 84.5 136.613 84.5 127.5C84.5 118.387 77.1127 111 68 111C58.8873 111 51.5 118.387 51.5 127.5Z" stroke="white"/>
<g clip-path="url(#clip4_3827_4218)">
<g clip-path="url(#clip5_3827_4218)">
<rect x="80" y="111.5" width="32" height="32" rx="16" fill="#E5D5CD"/>
<path d="M99.8993 132.814V134.324C99.8993 136.336 102.793 137.217 102.793 137.217C102.793 137.217 99.4591 139.733 95.9998 139.733C92.5405 139.733 89.207 137.217 89.207 137.217C89.207 137.217 92.123 136.336 92.1002 134.324C92.0775 132.311 92.0927 131.129 92.0775 127.68C90.2746 125.343 90.3904 123.775 91.3762 122.672C94.679 118.977 103.673 120.235 103.673 120.235C103.673 120.235 104.512 129.291 102.604 131.934C101.786 133.066 99.8993 132.814 99.8993 132.814Z" fill="url(#paint6_linear_3827_4218)"/>
<path opacity="0.3" d="M99.8993 132.814C97.1319 132.5 95.4966 131.305 95.4966 131.305C96.529 132.832 98.1024 133.911 99.8993 134.324V132.814Z" fill="#DB6F3D"/>
<path d="M109.208 141.029C110.405 143.464 111.095 149.08 111.095 149.08H80.9048C80.9048 149.08 81.5944 143.464 82.7917 141.029C83.9889 138.595 90.9807 136.337 90.9807 136.337C92.3283 139.104 99.7242 139.104 101.015 136.336C101.015 136.336 108.01 138.594 109.208 141.029Z" fill="#1D211C"/>
<mask id="mask0_3827_4218" style="mask-type:alpha" maskUnits="userSpaceOnUse" x="80" y="136" width="32" height="14">
<path d="M109.208 141.029C110.405 143.464 111.095 149.08 111.095 149.08H80.9048C80.9048 149.08 81.5944 143.464 82.7917 141.029C83.9889 138.595 90.9807 136.337 90.9807 136.337C92.3283 139.104 99.7242 139.104 101.015 136.336C101.015 136.336 108.01 138.594 109.208 141.029Z" fill="#1D211C"/>
</mask>
<g mask="url(#mask0_3827_4218)">
<path d="M79.647 147.154V146.148H112.353V147.154H79.647ZM79.647 144.638V143.632H112.353V144.638H79.647ZM79.647 142.123V141.116H112.353V142.123H79.647Z" fill="white" fill-opacity="0.16"/>
</g>
<path d="M93.6292 123.909C93.2292 123.566 92.7431 123.334 92.056 123.691C90.4272 124.537 91.6599 127.782 93.1065 127.782C93.4839 127.782 93.6716 128.968 91.9914 129.795C91.9914 128.474 89.9787 125.204 89.8026 122.226C87.7774 121.472 88.2805 118.454 89.6709 118.454C89.449 115.688 93.8783 114.26 95.5933 115.847C97.3375 113.757 101.74 114.826 102.006 116.639C105.033 115.023 107.024 119.669 104.189 121.472C103.022 122.214 100.294 122.497 96.3547 122.497C95.7601 122.497 95.427 122.644 95.5933 123.38C95.9152 124.804 95.1679 125.702 93.6292 123.909Z" fill="url(#paint7_linear_3827_4218)"/>
</g>
</g>
<path d="M79.5 127.5C79.5 136.613 86.8873 144 96 144C105.113 144 112.5 136.613 112.5 127.5C112.5 118.387 105.113 111 96 111C86.8873 111 79.5 118.387 79.5 127.5Z" stroke="white"/>
<g clip-path="url(#clip6_3827_4218)">
<g clip-path="url(#clip7_3827_4218)">
<rect x="108" y="111.5" width="32" height="32" rx="16" fill="#B1DBF6"/>
<path d="M114.827 130.593C113.822 127.256 113.202 121.551 117.428 117.649C120.657 114.667 129.381 114.366 132.416 120.869C132.923 121.955 132.23 123.657 130.868 123.595C130.332 123.57 130.001 125.267 129.691 126.32C130.124 130.593 133.987 130.672 135.946 133.938C138.362 137.964 135.389 143.909 128.266 143.909C121.144 143.909 117.061 138.014 114.827 130.593Z" fill="url(#paint8_linear_3827_4218)"/>
<path d="M112.411 140.317C111.503 142.051 111.049 148.369 111.049 148.369H136.566C136.566 148.369 136.112 142.051 135.203 140.317C133.841 137.716 123.807 134.371 123.807 134.371C123.807 134.371 113.774 137.716 112.411 140.317Z" fill="#067A6F"/>
<path d="M120.834 135.858C120.834 135.858 122.416 136.725 123.87 136.725C125.325 136.725 126.78 135.858 126.78 135.858V133.133C127.093 133.182 127.41 133.201 127.727 133.189C130.698 133.189 131.819 128.86 131.239 123.595C130.868 123.595 130.001 123.595 128.762 121.86C129.072 124.276 125.48 123.904 124.117 121.984C124.798 124.276 123.002 125.824 121.454 124.895C118.418 123.073 117.735 128.627 120.834 128.673V135.858Z" fill="url(#paint9_linear_3827_4218)"/>
<path opacity="0.3" d="M126.78 133.133C125.243 132.85 123.773 132.283 122.444 131.46C122.444 131.46 123.993 134.124 126.78 134.124V133.133Z" fill="#FFB597"/>
<path d="M123.803 136.598C122.908 136.557 120.834 136.119 120.834 135.172V134.371C120.607 134.371 119.957 134.908 119.622 135.362C118.3 137.158 119.766 138.769 120.963 138.769C122.472 138.769 123.473 137.507 123.807 136.901C124.142 137.508 125.142 138.769 126.651 138.769C127.848 138.769 129.315 137.158 127.992 135.362C127.658 134.908 127.007 134.371 126.78 134.371V135.172C126.78 136.119 124.65 136.557 123.803 136.598Z" fill="white"/>
</g>
</g>
<path d="M107.5 127.5C107.5 136.613 114.887 144 124 144C133.113 144 140.5 136.613 140.5 127.5C140.5 118.387 133.113 111 124 111C114.887 111 107.5 118.387 107.5 127.5Z" stroke="white"/>
<g clip-path="url(#clip8_3827_4218)">
<g clip-path="url(#clip9_3827_4218)">
<rect x="136" y="111.5" width="32" height="32" rx="16" fill="#FFC53D"/>
<path d="M158.566 136.124C156.377 137.716 154.188 138.989 151.999 138.989C149.81 138.989 147.621 137.716 145.432 136.124C147.237 135.574 148.152 134.754 148.178 133.664C148.178 133.469 148.177 133.193 148.176 132.675C148.176 132.593 148.175 132.509 148.175 132.422C148.172 131.032 148.166 129.198 148.157 127.336C146.446 125.118 147.075 122.517 147.611 122.582C148.268 122.662 153.964 117.257 155.057 116.98C156.149 116.702 158.925 117.597 159.402 120.09C159.88 122.582 160.08 128.865 158.268 131.373C157.752 132.087 156.941 132.366 155.832 132.211C155.831 132.733 155.827 133.025 155.82 133.616C155.834 134.756 156.75 135.575 158.566 136.124Z" fill="url(#paint10_linear_3827_4218)"/>
<path opacity="0.3" d="M155.82 132.209C153.193 131.911 151.522 130.776 151.522 130.776C151.522 130.776 153.432 133.164 155.82 133.642V132.209Z" fill="#FC9F6A"/>
<path d="M147.283 127.373C146.46 125.395 143.164 121.365 146.006 118.858C146.961 114.201 152.238 114.716 155.761 115.791C158.128 116.513 159.916 117.94 160.298 116.866C162.686 118.858 161.49 120.806 159.916 121.365C158.487 121.873 156.071 122.38 151.963 121.902C151.229 121.817 151.383 124.065 150.991 124.308C150.402 124.672 149.946 122.38 148.333 123.068C146.72 123.757 147.677 126.948 149.409 126.948C150.006 126.948 150.304 128.589 148.692 129.365C147.522 129.94 147.818 128.659 147.283 127.373Z" fill="url(#paint11_linear_3827_4218)"/>
<path d="M139.463 139.768C138.326 142.079 137.671 147.41 137.671 147.41H166.328C166.328 147.41 165.674 142.079 164.537 139.768C163.401 137.457 156.764 135.314 156.764 135.314C153.097 136.746 150.853 136.746 147.239 135.313C147.239 135.313 140.599 137.457 139.463 139.768Z" fill="#1D211C"/>
<path d="M151.164 136.149L150.567 147.134H153.433L152.836 136.149C152.836 136.149 152.278 135.552 152 135.552C151.721 135.552 151.164 136.149 151.164 136.149Z" fill="#BCFE68"/>
<path d="M151.028 138.381L152.905 137.296L152.835 136.149C152.464 135.751 152.185 135.552 151.999 135.552C151.814 135.552 151.535 135.751 151.164 136.149L151.028 138.381H151.028Z" fill="#A3E64C"/>
<path d="M152 135.551L153.194 137.702L156.895 135.433L155.82 133.881L152 135.292L148.179 133.881L147.104 135.433L150.805 137.702L152 135.551Z" fill="white"/>
</g>
</g>
<path d="M135.5 127.5C135.5 136.613 142.887 144 152 144C161.113 144 168.5 136.613 168.5 127.5C168.5 118.387 161.113 111 152 111C142.887 111 135.5 118.387 135.5 127.5Z" stroke="white"/>
<path d="M163.5 127.5C163.5 136.613 170.887 144 180 144C189.113 144 196.5 136.613 196.5 127.5C196.5 118.387 189.113 111 180 111C170.887 111 163.5 118.387 163.5 127.5Z" fill="#F8FAF8"/>
<path d="M163.5 127.5C163.5 136.613 170.887 144 180 144C189.113 144 196.5 136.613 196.5 127.5C196.5 118.387 189.113 111 180 111C170.887 111 163.5 118.387 163.5 127.5Z" stroke="white"/>
<path d="M170.883 127.432H173.175V125.14H174.303V127.432H176.595V128.56H174.303V130.852H173.175V128.56H170.883V127.432ZM178.293 124.384C179.253 124.384 179.685 123.952 179.685 122.98H180.717V131.5H179.409V125.428H177.609V124.384H178.293ZM187.608 124.96C187.368 124.336 186.828 123.976 186.084 123.976C184.848 123.976 184.128 125.068 183.996 126.952C184.452 126.172 185.196 125.752 186.108 125.752C187.8 125.752 188.952 126.952 188.952 128.68C188.952 130.552 187.644 131.692 185.832 131.692C185.028 131.692 184.248 131.392 183.612 130.72C183.012 130.084 182.724 129.016 182.724 127.72C182.724 125.14 183.612 122.788 186.096 122.788C187.428 122.788 188.544 123.532 188.904 124.876L187.608 124.96ZM184.104 128.68C184.08 129.76 184.812 130.528 185.868 130.528C186.888 130.528 187.608 129.76 187.608 128.68C187.608 127.624 186.912 126.88 185.94 126.88C184.872 126.88 184.116 127.624 184.104 128.68Z" fill="#898E87"/>
<defs>
<filter id="filter0_ddd_3827_4218" x="364" y="29" width="176" height="48" filterUnits="userSpaceOnUse" color-interpolation-filters="sRGB">
<feFlood flood-opacity="0" result="BackgroundImageFix"/>
<feColorMatrix in="SourceAlpha" type="matrix" values="0 0 0 0 0 0 0 0 0 0 0 0 0 0 0 0 0 0 127 0" result="hardAlpha"/>
<feOffset dy="1"/>
<feGaussianBlur stdDeviation="1.5"/>
<feColorMatrix type="matrix" values="0 0 0 0 0 0 0 0 0 0 0 0 0 0 0 0 0 0 0.1 0"/>
<feBlend mode="normal" in2="BackgroundImageFix" result="effect1_dropShadow_3827_4218"/>
<feColorMatrix in="SourceAlpha" type="matrix" values="0 0 0 0 0 0 0 0 0 0 0 0 0 0 0 0 0 0 127 0" result="hardAlpha"/>
<feOffset dy="3"/>
<feGaussianBlur stdDeviation="4"/>
<feComposite in2="hardAlpha" operator="out"/>
<feColorMatrix type="matrix" values="0 0 0 0 0 0 0 0 0 0 0 0 0 0 0 0 0 0 0.1 0"/>
<feBlend mode="normal" in2="effect1_dropShadow_3827_4218" result="effect2_dropShadow_3827_4218"/>
<feColorMatrix in="SourceAlpha" type="matrix" values="0 0 0 0 0 0 0 0 0 0 0 0 0 0 0 0 0 0 127 0" result="hardAlpha"/>
<feOffset/>
<feGaussianBlur stdDeviation="0.25"/>
<feComposite in2="hardAlpha" operator="out"/>
<feColorMatrix type="matrix" values="0 0 0 0 0 0 0 0 0 0 0 0 0 0 0 0 0 0 0.18 0"/>
<feBlend mode="normal" in2="effect2_dropShadow_3827_4218" result="effect3_dropShadow_3827_4218"/>
<feBlend mode="normal" in="SourceGraphic" in2="effect3_dropShadow_3827_4218" result="shape"/>
</filter>
<filter id="filter1_ddd_3827_4218" x="364" y="69" width="176" height="48" filterUnits="userSpaceOnUse" color-interpolation-filters="sRGB">
<feFlood flood-opacity="0" result="BackgroundImageFix"/>
<feColorMatrix in="SourceAlpha" type="matrix" values="0 0 0 0 0 0 0 0 0 0 0 0 0 0 0 0 0 0 127 0" result="hardAlpha"/>
<feOffset dy="1"/>
<feGaussianBlur stdDeviation="1.5"/>
<feColorMatrix type="matrix" values="0 0 0 0 0 0 0 0 0 0 0 0 0 0 0 0 0 0 0.1 0"/>
<feBlend mode="normal" in2="BackgroundImageFix" result="effect1_dropShadow_3827_4218"/>
<feColorMatrix in="SourceAlpha" type="matrix" values="0 0 0 0 0 0 0 0 0 0 0 0 0 0 0 0 0 0 127 0" result="hardAlpha"/>
<feOffset dy="3"/>
<feGaussianBlur stdDeviation="4"/>
<feComposite in2="hardAlpha" operator="out"/>
<feColorMatrix type="matrix" values="0 0 0 0 0 0 0 0 0 0 0 0 0 0 0 0 0 0 0.1 0"/>
<feBlend mode="normal" in2="effect1_dropShadow_3827_4218" result="effect2_dropShadow_3827_4218"/>
<feColorMatrix in="SourceAlpha" type="matrix" values="0 0 0 0 0 0 0 0 0 0 0 0 0 0 0 0 0 0 127 0" result="hardAlpha"/>
<feOffset/>
<feGaussianBlur stdDeviation="0.25"/>
<feComposite in2="hardAlpha" operator="out"/>
<feColorMatrix type="matrix" values="0 0 0 0 0 0 0 0 0 0 0 0 0 0 0 0 0 0 0.18 0"/>
<feBlend mode="normal" in2="effect2_dropShadow_3827_4218" result="effect3_dropShadow_3827_4218"/>
<feBlend mode="normal" in="SourceGraphic" in2="effect3_dropShadow_3827_4218" result="shape"/>
</filter>
<filter id="filter2_i_3827_4218" x="380" y="122" width="16" height="17.5" filterUnits="userSpaceOnUse" color-interpolation-filters="sRGB">
<feFlood flood-opacity="0" result="BackgroundImageFix"/>
<feBlend mode="normal" in="SourceGraphic" in2="BackgroundImageFix" result="shape"/>
<feColorMatrix in="SourceAlpha" type="matrix" values="0 0 0 0 0 0 0 0 0 0 0 0 0 0 0 0 0 0 127 0" result="hardAlpha"/>
<feOffset dy="1.5"/>
<feGaussianBlur stdDeviation="1"/>
<feComposite in2="hardAlpha" operator="arithmetic" k2="-1" k3="1"/>
<feColorMatrix type="matrix" values="0 0 0 0 0 0 0 0 0 0 0 0 0 0 0 0 0 0 0.133 0"/>
<feBlend mode="normal" in2="shape" result="effect1_innerShadow_3827_4218"/>
</filter>
<filter id="filter3_ddd_3827_4218" x="364" y="149" width="176" height="48" filterUnits="userSpaceOnUse" color-interpolation-filters="sRGB">
<feFlood flood-opacity="0" result="BackgroundImageFix"/>
<feColorMatrix in="SourceAlpha" type="matrix" values="0 0 0 0 0 0 0 0 0 0 0 0 0 0 0 0 0 0 127 0" result="hardAlpha"/>
<feOffset dy="1"/>
<feGaussianBlur stdDeviation="1.5"/>
<feColorMatrix type="matrix" values="0 0 0 0 0 0 0 0 0 0 0 0 0 0 0 0 0 0 0.1 0"/>
<feBlend mode="normal" in2="BackgroundImageFix" result="effect1_dropShadow_3827_4218"/>
<feColorMatrix in="SourceAlpha" type="matrix" values="0 0 0 0 0 0 0 0 0 0 0 0 0 0 0 0 0 0 127 0" result="hardAlpha"/>
<feOffset dy="3"/>
<feGaussianBlur stdDeviation="4"/>
<feComposite in2="hardAlpha" operator="out"/>
<feColorMatrix type="matrix" values="0 0 0 0 0 0 0 0 0 0 0 0 0 0 0 0 0 0 0.1 0"/>
<feBlend mode="normal" in2="effect1_dropShadow_3827_4218" result="effect2_dropShadow_3827_4218"/>
<feColorMatrix in="SourceAlpha" type="matrix" values="0 0 0 0 0 0 0 0 0 0 0 0 0 0 0 0 0 0 127 0" result="hardAlpha"/>
<feOffset/>
<feGaussianBlur stdDeviation="0.25"/>
<feComposite in2="hardAlpha" operator="out"/>
<feColorMatrix type="matrix" values="0 0 0 0 0 0 0 0 0 0 0 0 0 0 0 0 0 0 0.18 0"/>
<feBlend mode="normal" in2="effect2_dropShadow_3827_4218" result="effect3_dropShadow_3827_4218"/>
<feBlend mode="normal" in="SourceGraphic" in2="effect3_dropShadow_3827_4218" result="shape"/>
</filter>
<filter id="filter4_i_3827_4218" x="380" y="202" width="16" height="17.5" filterUnits="userSpaceOnUse" color-interpolation-filters="sRGB">
<feFlood flood-opacity="0" result="BackgroundImageFix"/>
<feBlend mode="normal" in="SourceGraphic" in2="BackgroundImageFix" result="shape"/>
<feColorMatrix in="SourceAlpha" type="matrix" values="0 0 0 0 0 0 0 0 0 0 0 0 0 0 0 0 0 0 127 0" result="hardAlpha"/>
<feOffset dy="1.5"/>
<feGaussianBlur stdDeviation="1"/>
<feComposite in2="hardAlpha" operator="arithmetic" k2="-1" k3="1"/>
<feColorMatrix type="matrix" values="0 0 0 0 0 0 0 0 0 0 0 0 0 0 0 0 0 0 0.133 0"/>
<feBlend mode="normal" in2="shape" result="effect1_innerShadow_3827_4218"/>
</filter>
<filter id="filter5_ddd_3827_4218" x="44" y="50.5" width="155" height="48" filterUnits="userSpaceOnUse" color-interpolation-filters="sRGB">
<feFlood flood-opacity="0" result="BackgroundImageFix"/>
<feColorMatrix in="SourceAlpha" type="matrix" values="0 0 0 0 0 0 0 0 0 0 0 0 0 0 0 0 0 0 127 0" result="hardAlpha"/>
<feOffset dy="1"/>
<feGaussianBlur stdDeviation="1.5"/>
<feColorMatrix type="matrix" values="0 0 0 0 0 0 0 0 0 0 0 0 0 0 0 0 0 0 0.1 0"/>
<feBlend mode="normal" in2="BackgroundImageFix" result="effect1_dropShadow_3827_4218"/>
<feColorMatrix in="SourceAlpha" type="matrix" values="0 0 0 0 0 0 0 0 0 0 0 0 0 0 0 0 0 0 127 0" result="hardAlpha"/>
<feOffset dy="3"/>
<feGaussianBlur stdDeviation="4"/>
<feComposite in2="hardAlpha" operator="out"/>
<feColorMatrix type="matrix" values="0 0 0 0 0 0 0 0 0 0 0 0 0 0 0 0 0 0 0.1 0"/>
<feBlend mode="normal" in2="effect1_dropShadow_3827_4218" result="effect2_dropShadow_3827_4218"/>
<feColorMatrix in="SourceAlpha" type="matrix" values="0 0 0 0 0 0 0 0 0 0 0 0 0 0 0 0 0 0 127 0" result="hardAlpha"/>
<feOffset/>
<feGaussianBlur stdDeviation="0.25"/>
<feComposite in2="hardAlpha" operator="out"/>
<feColorMatrix type="matrix" values="0 0 0 0 0 0 0 0 0 0 0 0 0 0 0 0 0 0 0.18 0"/>
<feBlend mode="normal" in2="effect2_dropShadow_3827_4218" result="effect3_dropShadow_3827_4218"/>
<feBlend mode="normal" in="SourceGraphic" in2="effect3_dropShadow_3827_4218" result="shape"/>
</filter>
<linearGradient id="paint0_linear_3827_4218" x1="312.298" y1="72.4999" x2="179.093" y2="72.4999" gradientUnits="userSpaceOnUse">
<stop offset="0.005" stop-color="#7DA549"/>
<stop offset="0.45" stop-color="#A3E64C"/>
<stop offset="1" stop-color="#E9FFCC" stop-opacity="0"/>
</linearGradient>
<linearGradient id="paint1_linear_3827_4218" x1="52" y1="52.1" x2="80.5" y2="93.1" gradientUnits="userSpaceOnUse">
<stop stop-color="#BCFE68"/>
<stop offset="1" stop-color="#A1FE68"/>
</linearGradient>
<radialGradient id="paint2_radial_3827_4218" cx="0" cy="0" r="1" gradientUnits="userSpaceOnUse" gradientTransform="translate(65.8742 57.4946) rotate(90.8706) scale(31.209 54.3104)">
<stop offset="0.460609" stop-color="#114F59"/>
<stop offset="0.475764" stop-color="#072024"/>
</radialGradient>
<linearGradient id="paint3_linear_3827_4218" x1="68" y1="146.974" x2="68" y2="133.415" gradientUnits="userSpaceOnUse">
<stop stop-color="#B59DFF"/>
<stop offset="1" stop-color="#8057FF"/>
</linearGradient>
<linearGradient id="paint4_linear_3827_4218" x1="68.4369" y1="115.696" x2="68.4369" y2="132.024" gradientUnits="userSpaceOnUse">
<stop stop-color="#1D211C"/>
<stop offset="1" stop-color="#1D211C"/>
</linearGradient>
<linearGradient id="paint5_linear_3827_4218" x1="69.2416" y1="121.857" x2="69.2416" y2="135.695" gradientUnits="userSpaceOnUse">
<stop stop-color="#F4E3D3"/>
<stop offset="1" stop-color="#EB965E"/>
</linearGradient>
<linearGradient id="paint6_linear_3827_4218" x1="96.5319" y1="120.029" x2="96.5319" y2="139.733" gradientUnits="userSpaceOnUse">
<stop stop-color="#F4E3D3"/>
<stop offset="1" stop-color="#EB965E"/>
</linearGradient>
<linearGradient id="paint7_linear_3827_4218" x1="97.004" y1="114.7" x2="97.004" y2="129.795" gradientUnits="userSpaceOnUse">
<stop stop-color="#1D211C"/>
<stop offset="1" stop-color="#1D211C"/>
</linearGradient>
<linearGradient id="paint8_linear_3827_4218" x1="125.432" y1="115.616" x2="125.432" y2="143.909" gradientUnits="userSpaceOnUse">
<stop stop-color="#1D211C"/>
<stop offset="1" stop-color="#1D211C"/>
</linearGradient>
<linearGradient id="paint9_linear_3827_4218" x1="125.102" y1="121.86" x2="125.102" y2="136.725" gradientUnits="userSpaceOnUse">
<stop stop-color="#FFD4B3"/>
<stop offset="1" stop-color="#FFDCC2"/>
</linearGradient>
<linearGradient id="paint10_linear_3827_4218" x1="152.582" y1="116.931" x2="152.582" y2="138.989" gradientUnits="userSpaceOnUse">
<stop stop-color="#F4E3D3"/>
<stop offset="1" stop-color="#F6D8C4"/>
</linearGradient>
<linearGradient id="paint11_linear_3827_4218" x1="153.26" y1="115.061" x2="153.26" y2="129.507" gradientUnits="userSpaceOnUse">
<stop stop-color="#1D211C"/>
<stop offset="1" stop-color="#1D211C"/>
</linearGradient>
<clipPath id="clip0_3827_4218">
<path d="M356 34C356 25.1634 363.163 18 372 18H532C540.837 18 548 25.1634 548 34V226C548 234.837 540.837 242 532 242H372C363.163 242 356 234.837 356 226V34Z" fill="white"/>
</clipPath>
<clipPath id="clip1_3827_4218">
<path d="M52 68.3C52 63.8196 52 61.5794 52.8719 59.8681C53.6389 58.3628 54.8628 57.1389 56.3681 56.3719C58.0794 55.5 60.3196 55.5 64.8 55.5H178.2C182.68 55.5 184.921 55.5 186.632 56.3719C188.137 57.1389 189.361 58.3628 190.128 59.8681C191 61.5794 191 63.8196 191 68.3V74.7C191 79.1804 191 81.4206 190.128 83.1319C189.361 84.6372 188.137 85.8611 186.632 86.6281C184.921 87.5 182.68 87.5 178.2 87.5H64.8C60.3196 87.5 58.0794 87.5 56.3681 86.6281C54.8628 85.8611 53.6389 84.6372 52.8719 83.1319C52 81.4206 52 79.1804 52 74.7V68.3Z" fill="white"/>
</clipPath>
<clipPath id="clip2_3827_4218">
<path d="M52 127.5C52 118.663 59.1634 111.5 68 111.5V111.5C76.8366 111.5 84 118.663 84 127.5V127.5C84 136.337 76.8366 143.5 68 143.5V143.5C59.1634 143.5 52 136.337 52 127.5V127.5Z" fill="white"/>
</clipPath>
<clipPath id="clip3_3827_4218">
<rect x="52" y="111.5" width="32" height="32" rx="16" fill="white"/>
</clipPath>
<clipPath id="clip4_3827_4218">
<path d="M80 127.5C80 118.663 87.1634 111.5 96 111.5V111.5C104.837 111.5 112 118.663 112 127.5V127.5C112 136.337 104.837 143.5 96 143.5V143.5C87.1634 143.5 80 136.337 80 127.5V127.5Z" fill="white"/>
</clipPath>
<clipPath id="clip5_3827_4218">
<rect x="80" y="111.5" width="32" height="32" rx="16" fill="white"/>
</clipPath>
<clipPath id="clip6_3827_4218">
<path d="M108 127.5C108 118.663 115.163 111.5 124 111.5V111.5C132.837 111.5 140 118.663 140 127.5V127.5C140 136.337 132.837 143.5 124 143.5V143.5C115.163 143.5 108 136.337 108 127.5V127.5Z" fill="white"/>
</clipPath>
<clipPath id="clip7_3827_4218">
<rect x="108" y="111.5" width="32" height="32" rx="16" fill="white"/>
</clipPath>
<clipPath id="clip8_3827_4218">
<path d="M136 127.5C136 118.663 143.163 111.5 152 111.5V111.5C160.837 111.5 168 118.663 168 127.5V127.5C168 136.337 160.837 143.5 152 143.5V143.5C143.163 143.5 136 136.337 136 127.5V127.5Z" fill="white"/>
</clipPath>
<clipPath id="clip9_3827_4218">
<rect x="136" y="111.5" width="32" height="32" rx="16" fill="white"/>
</clipPath>
</defs>
</svg>
