<svg width="400" height="100" viewBox="0 0 400 100" fill="none" xmlns="http://www.w3.org/2000/svg">
<g clip-path="url(#clip0_3813_2094)">
<g clip-path="url(#clip1_3813_2094)">
<path d="M66.3129 29.3231L81.6063 38.1528L81.1982 38.8597L65.9047 30.03L66.3129 29.3231ZM136.707 69.9649L121.423 61.141L121.015 61.8479L136.298 70.6719L136.707 69.9649ZM-71.6937 -22.8613L-70.0508 -21.9128L-86.8881 7.25033L-88.531 6.30183L-88.9391 7.00875L-86.5993 8.35965L-68.9457 -22.2173L-71.2855 -23.5682L-71.6937 -22.8613ZM-28.7041 -91.9063L-31.044 -93.2572L-31.4521 -92.5502L-29.8092 -91.6017L-46.6466 -62.4386L-48.2894 -63.3871L-48.6976 -62.6802L-46.3578 -61.3293L-28.7041 -91.9063ZM274.307 122.864L272.664 121.916L289.502 92.7525L291.144 93.7009L291.553 92.994L289.213 91.6431L271.559 122.22L273.899 123.571L274.307 122.864ZM234.068 192.561L232.425 191.612L249.262 162.449L250.905 163.398L251.313 162.691L248.973 161.34L231.32 191.917L233.66 193.268L234.068 192.561ZM-18.6875 73.3165L-50.0978 81.7329L-49.8874 82.5182L-18.4771 74.1018L-18.6875 73.3165ZM-14.4793 89.0217L-30.1845 93.2299L-29.9741 94.0152L-14.2689 89.807L-14.4793 89.0217ZM217.101 10.979L232.806 6.77077L232.595 5.98551L216.89 10.1937L217.101 10.979ZM221.309 26.6841L252.719 18.2678L252.509 17.4825L221.098 25.8989L221.309 26.6841ZM91.6007 140.974L92.3859 140.764L91.4391 137.23L122.064 129.024L123.011 132.558L123.796 132.347L122.849 128.814L126.383 127.867L126.173 127.082L122.639 128.028L121.692 124.495L120.907 124.705L121.854 128.239L91.2287 136.445L90.2818 132.911L89.4966 133.122L90.4434 136.655L86.9097 137.602L87.1201 138.387L90.6538 137.44L91.6007 140.974ZM111.021 -40.9734L110.235 -40.763L111.182 -37.2294L80.5571 -29.0234L79.6103 -32.557L78.825 -32.3466L79.7719 -28.813L76.2382 -27.8661L76.4486 -27.0809L79.9823 -28.0277L80.9291 -24.494L81.7144 -24.7045L80.7675 -28.2381L111.393 -36.4441L112.339 -32.9104L113.125 -33.1208L112.178 -36.6545L115.712 -37.6013L115.501 -38.3866L111.967 -37.4398L111.021 -40.9734ZM170.761 -6.48246L169.975 -6.27205L170.922 -2.73839L167.389 -1.79155L167.599 -1.00629L171.133 -1.95313L172.08 1.58053L172.865 1.37012L171.918 -2.16354L175.452 -3.11038L175.241 -3.89564L171.708 -2.9488L170.761 -6.48246ZM244.666 49.4622L243.88 49.6726L244.827 53.2062L241.294 54.1531L241.504 54.9383L245.038 53.9915L245.985 57.5252L246.77 57.3148L245.823 53.7811L249.357 52.8343L249.146 52.049L245.613 52.9958L244.666 49.4622ZM-42.0444 50.5385L-41.2592 50.3281L-42.206 46.7944L-38.6723 45.8476L-38.8827 45.0623L-42.4164 46.0092L-43.3633 42.4755L-44.1485 42.6859L-43.2017 46.2196L-46.7353 47.1664L-46.5249 47.9517L-42.9913 47.0048L-42.0444 50.5385ZM31.8606 106.483L32.6458 106.273L31.699 102.739L35.2326 101.792L35.0222 101.007L31.4886 101.954L30.5417 98.4201L29.7565 98.6305L30.7033 102.164L27.1696 103.111L27.3801 103.896L30.9137 102.949L31.8606 106.483ZM51.4019 113.451L50.6167 113.661L50.8271 114.446L51.6123 114.236L51.4019 113.451ZM57.1504 103.494L56.3652 103.705L56.5756 104.49L57.3608 104.279L57.1504 103.494ZM47.1937 97.7456L46.4085 97.956L46.6189 98.7413L47.4042 98.5309L47.1937 97.7456ZM62.8989 93.5374L62.1137 93.7478L62.3241 94.5331L63.1093 94.3227L62.8989 93.5374ZM55.0463 95.6415L54.2611 95.8519L54.4715 96.6372L55.2567 96.4268L55.0463 95.6415ZM49.2978 105.598L48.5126 105.809L48.723 106.594L49.5082 106.383L49.2978 105.598ZM52.1721 100.62L51.3868 100.83L51.5972 101.616L52.3825 101.405L52.1721 100.62ZM60.0247 98.5158L59.2394 98.7262L59.4498 99.5114L60.2351 99.301L60.0247 98.5158ZM54.2762 108.472L53.4909 108.683L53.7013 109.468L54.4866 109.258L54.2762 108.472ZM151.219 -13.4501L152.005 -13.6605L151.794 -14.4458L151.009 -14.2354L151.219 -13.4501ZM145.471 -3.49343L146.256 -3.70384L146.046 -4.4891L145.26 -4.27869L145.471 -3.49343ZM155.428 2.25506L156.213 2.04465L156.002 1.25939L155.217 1.4698L155.428 2.25506ZM139.722 6.46325L140.508 6.25284L140.297 5.46758L139.512 5.67799L139.722 6.46325ZM147.575 4.35915L148.36 4.14874L148.15 3.36349L147.365 3.57389L147.575 4.35915ZM153.323 -5.59753L154.109 -5.80794L153.898 -6.5932L153.113 -6.38279L153.323 -5.59753ZM150.449 -0.619188L151.234 -0.829597L151.024 -1.61486L150.239 -1.40445L150.449 -0.619188ZM142.597 1.48491L143.382 1.2745L143.171 0.489238L142.386 0.699648L142.597 1.48491ZM148.345 -8.47178L149.13 -8.68219L148.92 -9.46744L148.135 -9.25704L148.345 -8.47178ZM37.4877 -92.3887L38.2729 -92.5991L38.0625 -93.3844L37.2772 -93.174L37.4877 -92.3887ZM32.314 -83.4277L31.5288 -83.2173L31.7392 -82.432L32.5244 -82.6425L32.314 -83.4277ZM41.6958 -76.6835L42.4811 -76.894L42.2707 -77.6792L41.4854 -77.4688L41.6958 -76.6835ZM26.5655 -73.471L25.7803 -73.2606L25.9907 -72.4754L26.7759 -72.6858L26.5655 -73.471ZM34.4181 -75.5751L33.6328 -75.3647L33.8433 -74.5795L34.6285 -74.7899L34.4181 -75.5751ZM39.5917 -84.5361L40.377 -84.7465L40.1666 -85.5318L39.3813 -85.3214L39.5917 -84.5361ZM36.7175 -79.5578L37.5028 -79.7682L37.2924 -80.5535L36.5071 -80.3431L36.7175 -79.5578ZM28.8649 -77.4537L29.6502 -77.6641L29.4398 -78.4494L28.6545 -78.239L28.8649 -77.4537ZM43.7999 -68.831L44.5852 -69.0414L44.3748 -69.8266L43.5895 -69.6162L43.7999 -68.831ZM28.6696 -65.6184L27.8844 -65.408L28.0948 -64.6228L28.88 -64.8332L28.6696 -65.6184ZM36.5222 -67.7225L35.7369 -67.5121L35.9474 -66.7269L36.7326 -66.9373L36.5222 -67.7225ZM38.8216 -71.7052L39.6069 -71.9156L39.3964 -72.7009L38.6112 -72.4905L38.8216 -71.7052ZM30.969 -69.6011L31.7543 -69.8115L31.5439 -70.5968L30.7586 -70.3864L30.969 -69.6011ZM20.817 -63.5143L20.0318 -63.3039L20.2422 -62.5187L21.0274 -62.7291L20.817 -63.5143ZM23.6913 -68.4927L22.906 -68.2823L23.1164 -67.497L23.9017 -67.7074L23.6913 -68.4927ZM34.6134 -87.4104L35.3987 -87.6208L35.1883 -88.4061L34.403 -88.1956L34.6134 -87.4104ZM41.1472 -97.5775L40.9368 -98.3627L40.1515 -98.1523L40.3619 -97.3671L41.1472 -97.5775ZM45.3402 -94.4928L46.1255 -94.7032L45.9151 -95.4885L45.1298 -95.2781L45.3402 -94.4928ZM49.5484 -78.7876L50.3337 -78.9981L50.1233 -79.7833L49.338 -79.5729L49.5484 -78.7876ZM47.4443 -86.6402L48.2296 -86.8506L48.0192 -87.6359L47.2339 -87.4255L47.4443 -86.6402ZM43.2361 -102.345L44.0214 -102.556L43.811 -103.341L43.0257 -103.131L43.2361 -102.345ZM30.2099 -91.2803L29.4247 -91.0699L29.6351 -90.2846L30.4203 -90.495L30.2099 -91.2803ZM24.4614 -81.3236L23.6762 -81.1132L23.8866 -80.3279L24.6718 -80.5384L24.4614 -81.3236ZM18.7129 -71.3669L17.9277 -71.1565L18.1381 -70.3713L18.9233 -70.5817L18.7129 -71.3669ZM21.5872 -76.3453L20.8019 -76.1349L21.0123 -75.3496L21.7976 -75.56L21.5872 -76.3453ZM12.9644 -61.4102L12.1792 -61.1998L12.3896 -60.4146L13.1748 -60.625L12.9644 -61.4102ZM15.8387 -66.3886L15.0534 -66.1782L15.2638 -65.3929L16.0491 -65.6033L15.8387 -66.3886ZM26.7608 -85.3063L27.5461 -85.5167L27.3357 -86.302L26.5504 -86.0915L26.7608 -85.3063ZM33.2946 -95.4734L33.0842 -96.2586L32.2989 -96.0482L32.5093 -95.263L33.2946 -95.4734ZM35.3836 -100.241L36.1688 -100.452L35.9584 -101.237L35.1732 -101.027L35.3836 -100.241ZM38.8327 -106.215L38.0474 -106.005L38.2578 -105.22L39.0431 -105.43L38.8327 -106.215ZM41.7069 -111.194L40.9216 -110.983L41.1321 -110.198L41.9173 -110.408L41.7069 -111.194ZM36.7286 -114.068L35.9433 -113.858L36.1537 -113.072L36.939 -113.283L36.7286 -114.068ZM39.6028 -119.046L38.8175 -118.836L39.028 -118.051L39.8132 -118.261L39.6028 -119.046ZM22.3573 -89.1762L21.5721 -88.9658L21.7825 -88.1805L22.5677 -88.3909L22.3573 -89.1762ZM16.6088 -79.2195L15.8236 -79.0091L16.034 -78.2239L16.8192 -78.4343L16.6088 -79.2195ZM10.8603 -69.2628L10.0751 -69.0524L10.2855 -68.2672L11.0707 -68.4776L10.8603 -69.2628ZM13.7346 -74.2412L12.9493 -74.0308L13.1597 -73.2455L13.945 -73.4559L13.7346 -74.2412ZM5.11185 -59.3062L4.32659 -59.0957L4.537 -58.3105L5.32226 -58.5209L5.11185 -59.3062ZM7.98609 -64.2845L7.20083 -64.0741L7.41124 -63.2888L8.1965 -63.4992L7.98609 -64.2845ZM19.4831 -84.1979L18.6978 -83.9875L18.9082 -83.2022L19.6935 -83.4126L19.4831 -84.1979ZM25.442 -93.3693L25.2316 -94.1545L24.4463 -93.9441L24.6567 -93.1589L25.442 -93.3693ZM28.1058 -99.1329L27.3206 -98.9225L27.531 -98.1372L28.3162 -98.3476L28.1058 -99.1329ZM30.9801 -104.111L30.1948 -103.901L30.4052 -103.116L31.1905 -103.326L30.9801 -104.111ZM33.8543 -109.09L33.0691 -108.879L33.2795 -108.094L34.0647 -108.304L33.8543 -109.09ZM44.5701 -81.6619L45.3554 -81.8723L45.1449 -82.6576L44.3597 -82.4471L44.5701 -81.6619ZM51.6525 -70.9351L52.4378 -71.1455L52.2274 -71.9307L51.4421 -71.7203L51.6525 -70.9351ZM46.6742 -73.8093L47.4594 -74.0197L47.249 -74.805L46.4638 -74.5946L46.6742 -73.8093ZM42.466 -89.5145L43.2513 -89.7249L43.0408 -90.5101L42.2556 -90.2997L42.466 -89.5145ZM164.559 193.385L165.344 193.175L165.134 192.389L164.348 192.6L164.559 193.385ZM170.307 183.428L171.093 183.218L170.882 182.433L170.097 182.643L170.307 183.428ZM160.351 177.68L161.136 177.469L160.925 176.684L160.14 176.895L160.351 177.68ZM176.056 173.472L176.841 173.261L176.631 172.476L175.845 172.686L176.056 173.472ZM168.203 175.576L168.988 175.365L168.778 174.58L167.993 174.791L168.203 175.576ZM162.455 185.532L163.24 185.322L163.03 184.537L162.244 184.747L162.455 185.532ZM165.329 180.554L166.114 180.344L165.904 179.558L165.119 179.769L165.329 180.554ZM173.182 178.45L173.967 178.24L173.756 177.454L172.971 177.665L173.182 178.45ZM158.247 169.827L159.032 169.617L158.821 168.832L158.036 169.042L158.247 169.827ZM173.952 165.619L174.737 165.409L174.527 164.623L173.741 164.834L173.952 165.619ZM166.099 167.723L166.884 167.513L166.674 166.728L165.889 166.938L166.099 167.723ZM163.225 172.702L164.01 172.491L163.8 171.706L163.014 171.916L163.225 172.702ZM171.077 170.597L171.863 170.387L171.652 169.602L170.867 169.812L171.077 170.597ZM181.804 163.515L182.59 163.305L182.379 162.519L181.594 162.73L181.804 163.515ZM178.93 168.493L179.715 168.283L179.505 167.498L178.72 167.708L178.93 168.493ZM167.433 188.407L168.218 188.196L168.008 187.411L167.223 187.621L167.433 188.407ZM161.685 198.363L162.47 198.153L162.259 197.368L161.474 197.578L161.685 198.363ZM156.706 195.489L157.491 195.279L157.281 194.493L156.496 194.704L156.706 195.489ZM152.498 179.784L153.283 179.574L153.073 178.788L152.288 178.999L152.498 179.784ZM154.602 187.637L155.387 187.426L155.177 186.641L154.392 186.851L154.602 187.637ZM158.81 203.342L159.596 203.131L159.385 202.346L158.6 202.556L158.81 203.342ZM172.411 191.281L173.197 191.071L172.986 190.285L172.201 190.496L172.411 191.281ZM178.16 181.324L178.945 181.114L178.735 180.329L177.949 180.539L178.16 181.324ZM183.908 171.368L184.694 171.157L184.483 170.372L183.698 170.582L183.908 171.368ZM181.034 176.346L181.819 176.136L181.609 175.35L180.824 175.561L181.034 176.346ZM189.657 161.411L190.442 161.201L190.232 160.415L189.446 160.626L189.657 161.411ZM186.783 166.389L187.568 166.179L187.357 165.394L186.572 165.604L186.783 166.389ZM175.286 186.303L176.071 186.092L175.86 185.307L175.075 185.517L175.286 186.303ZM169.537 196.259L170.322 196.049L170.112 195.264L169.327 195.474L169.537 196.259ZM166.663 201.238L167.448 201.027L167.238 200.242L166.452 200.452L166.663 201.238ZM163.789 206.216L164.574 206.006L164.363 205.22L163.578 205.431L163.789 206.216ZM160.914 211.194L161.7 210.984L161.489 210.199L160.704 210.409L160.914 211.194ZM165.893 214.069L166.678 213.858L166.468 213.073L165.682 213.283L165.893 214.069ZM163.018 219.047L163.804 218.837L163.593 218.051L162.808 218.262L163.018 219.047ZM180.264 189.177L181.049 188.966L180.839 188.181L180.054 188.392L180.264 189.177ZM186.012 179.22L186.798 179.01L186.587 178.225L185.802 178.435L186.012 179.22ZM191.761 169.264L192.546 169.053L192.336 168.268L191.551 168.478L191.761 169.264ZM188.887 174.242L189.672 174.031L189.462 173.246L188.676 173.457L188.887 174.242ZM197.509 159.307L198.295 159.096L198.084 158.311L197.299 158.522L197.509 159.307ZM194.635 164.285L195.42 164.075L195.21 163.29L194.425 163.5L194.635 164.285ZM183.138 184.199L183.923 183.988L183.713 183.203L182.928 183.413L183.138 184.199ZM177.39 194.155L178.175 193.945L177.965 193.16L177.179 193.37L177.39 194.155ZM174.515 199.134L175.301 198.923L175.09 198.138L174.305 198.348L174.515 199.134ZM171.641 204.112L172.426 203.901L172.216 203.116L171.431 203.327L171.641 204.112ZM168.767 209.09L169.552 208.88L169.342 208.095L168.557 208.305L168.767 209.09ZM157.476 182.658L158.262 182.448L158.051 181.663L157.266 181.873L157.476 182.658ZM150.394 171.931L151.179 171.721L150.969 170.936L150.184 171.146L150.394 171.931ZM155.372 174.806L156.158 174.595L155.947 173.81L155.162 174.02L155.372 174.806ZM159.58 190.511L160.366 190.3L160.155 189.515L159.37 189.726L159.58 190.511ZM139.623 -11.1844L136.089 -10.2376L135.142 -13.7713L134.357 -13.5609L135.514 -9.24193L139.833 -10.3992L139.623 -11.1844ZM62.9986 111.185L66.5323 110.238L67.4791 113.772L68.2644 113.562L67.1071 109.243L62.7882 110.4L62.9986 111.185ZM407.667 -31.6667L360.944 -19.1474L379.022 48.3221C379.275 49.2644 379.274 50.7375 379.019 51.6725L342.654 187.402C342.401 188.344 341.665 189.619 340.975 190.309L241.613 289.667C240.923 290.357 239.648 291.094 238.713 291.345L171.244 309.423L183.763 356.146L182.978 356.356L161.937 277.831L158.149 263.696L158.145 263.68L157.834 262.518L102.983 277.215C102.041 277.468 100.568 277.467 99.633 277.212L18.217 255.397L16.107 257.511C15.4166 258.201 14.1413 258.938 13.2068 259.189L-0.488116 262.858C-1.43043 263.111 -2.90352 263.11 -3.83858 262.856L-17.5308 259.185C-17.8933 259.089 -18.3103 258.914 -18.7201 258.704L-30.5562 279.205L-31.2631 278.797L-19.427 258.296C-19.8138 258.046 -20.1733 257.772 -20.4381 257.507L-30.4628 247.484C-31.1527 246.794 -31.89 245.518 -32.1404 244.584L-35.8099 230.889C-36.0624 229.947 -36.0616 228.474 -35.8072 227.539L-35.0314 224.654L-94.6319 165.054C-95.3218 164.363 -96.0591 163.088 -96.3095 162.153L-111.007 107.303L-204.837 132.445L-205.048 131.66L-158.325 119.14L-176.403 51.6708C-176.656 50.7284 -176.655 49.2553 -176.4 48.3203L-140.034 -87.4087C-139.782 -88.3516 -139.046 -89.6261 -138.356 -90.3161L-38.994 -189.674C-38.3036 -190.364 -37.0283 -191.102 -36.0939 -191.352L31.3756 -209.43L18.8583 -256.145L19.6436 -256.356L44.7875 -162.517L99.63 -177.212C100.572 -177.465 102.045 -177.464 102.98 -177.21L184.396 -155.394L186.514 -157.511C187.205 -158.2 188.48 -158.938 189.415 -159.188L203.109 -162.858C204.052 -163.11 205.525 -163.109 206.46 -162.855L220.152 -159.185C220.515 -159.088 220.932 -158.914 221.341 -158.704L233.178 -179.205L233.884 -178.796L222.048 -158.296C222.435 -158.046 222.795 -157.772 223.059 -157.506L233.084 -147.483C233.774 -146.793 234.511 -145.518 234.762 -144.583L238.431 -130.888C238.684 -129.946 238.683 -128.473 238.428 -127.538L237.655 -124.646L297.255 -65.045C297.945 -64.3546 298.68 -63.0871 298.933 -62.1448L313.63 -7.29447L407.468 -32.4384L407.679 -31.6531L407.667 -31.6667ZM-37.2048 128.28C-36.9923 129.073 -36.318 130.239 -35.7423 130.817L20.4906 187.053C21.0763 187.637 22.2312 188.303 23.0296 188.519L99.8478 209.1C100.646 209.315 101.983 209.311 102.776 209.098L140.791 198.912L130.481 160.434L102.989 167.801C102.046 168.053 100.573 168.052 99.6382 167.798L43.8653 152.856C43.5028 152.759 43.0857 152.585 42.6759 152.375L38.6347 159.374L48.2927 164.951L47.8846 165.657L38.2266 160.081L32.6793 169.69L31.9724 169.281L37.5197 159.673L27.9115 154.126L28.3196 153.419L37.9278 158.966L41.969 151.967C41.5822 151.717 41.2227 151.443 40.9579 151.177L0.131078 110.348C-0.558903 109.657 -1.29619 108.382 -1.54658 107.447L-8.91302 79.9555L-47.3907 90.2656L-37.2048 128.28ZM-12.0208 -28.8267L-17.6141 -19.1388L-0.657902 -9.34915C-0.408049 -9.73592 -0.134063 -10.0955 0.131647 -10.3603L40.9613 -51.1871C41.6517 -51.8771 42.927 -52.6143 43.8615 -52.8647L71.3534 -60.2312L44.3305 -161.082C44.2538 -160.834 44.1551 -160.606 44.0401 -160.407L-32.547 -27.7537L-18.3189 -19.5391L-12.7257 -29.227L-12.0187 -28.8188L-12.0208 -28.8267ZM-58.2053 -41.625L-57.7972 -42.3319L-33.254 -28.1619L43.3332 -160.815C43.4194 -160.964 43.4952 -161.153 43.5609 -161.347L-10.6377 -146.825C-11.4308 -146.612 -12.5967 -145.938 -13.1747 -145.362L-94.0483 -64.4829C-94.632 -63.8972 -95.2989 -62.7422 -95.5142 -61.9439L-125.121 48.5344C-125.336 49.3327 -125.331 50.6696 -125.119 51.4627L-110.571 105.756L-33.6621 -27.4549L-58.2053 -41.625ZM239.818 -28.2772C239.606 -29.0703 238.931 -30.2362 238.356 -30.8142L182.123 -87.0502C181.537 -87.6339 180.382 -88.3007 179.584 -88.5161L102.766 -109.097C101.967 -109.313 100.63 -109.308 99.8372 -109.095L61.8228 -98.9093L72.1329 -60.4316L99.6248 -67.7981C100.567 -68.0506 102.04 -68.0497 102.975 -67.7953L158.748 -52.853C159.111 -52.7566 159.528 -52.5822 159.937 -52.3721L163.979 -59.3717L154.321 -64.9477L154.729 -65.6547L164.387 -60.0786L169.934 -69.6868L170.641 -69.2787L165.094 -59.6705L174.702 -54.1232L174.294 -53.4163L164.686 -58.9635L160.644 -51.964C161.031 -51.7141 161.391 -51.4402 161.656 -51.1745L202.482 -10.3448C203.172 -9.65439 203.91 -8.3791 204.16 -7.44464L211.526 20.0473L250.004 9.73722L239.818 -28.2772ZM214.667 128.762L220.225 119.134L203.269 109.344C203.019 109.731 202.745 110.09 202.48 110.355L161.65 151.182C160.96 151.872 159.692 152.607 158.75 152.86L131.258 160.226L158.283 261.085C158.36 260.837 158.458 260.609 158.573 260.409L235.161 127.756L220.932 119.542L215.374 129.17L214.667 128.762ZM131.605 159.291L158.547 152.072C159.34 151.86 160.506 151.185 161.084 150.61L201.914 109.783C202.133 109.564 202.357 109.269 202.572 108.942L171.149 90.7994L131.605 159.291ZM202.98 108.235C203.156 107.885 203.3 107.543 203.38 107.244L218.322 51.4711C218.537 50.6728 218.533 49.3358 218.32 48.5427L211.101 21.6005L171.557 90.0925L202.98 108.235ZM194.461 19.1492L195.829 24.2534L210.749 20.2556L203.383 -7.23633C203.17 -8.02945 202.496 -9.19537 201.92 -9.77334L161.093 -50.603C160.875 -50.8221 160.579 -51.0459 160.252 -51.2613L141.909 -19.4895L141.202 -19.8976L159.545 -51.6694C159.195 -51.845 158.853 -51.9891 158.554 -52.0688L102.781 -67.0111C101.983 -67.2264 100.646 -67.2217 99.853 -67.0092L72.1255 -59.5796L-7.77852 78.8183L6.58386 74.9699L5.21619 69.8657L6.00145 69.6553L7.36911 74.7595L22.289 70.7617L18.186 55.4492L18.9713 55.2388L23.0743 70.5513L45.8468 64.4494L42.4255 51.6811C42.173 50.7388 42.1739 49.2657 42.4283 48.3306L49.4832 22.016C49.7355 21.0731 50.4713 19.7986 51.1617 19.1086L70.4235 -0.158389C71.1139 -0.84837 72.3892 -1.58567 73.3237 -1.83605L86.4846 -5.36252L86.695 -4.57726L73.5341 -1.05079C72.741 -0.838281 71.575 -0.163968 70.9971 0.411718L51.7353 19.6787C51.1516 20.2644 50.4848 21.4193 50.2695 22.2177L43.2146 48.5324C42.9993 49.3307 43.004 50.6676 43.2166 51.4607L46.6378 64.2291L61.5577 60.2313L59.2643 51.672C59.0118 50.7297 59.0126 49.2566 59.267 48.3215L64.0655 30.4218C64.3179 29.4789 65.0537 28.2044 65.7441 27.5145L78.8464 14.409C79.5369 13.719 80.8122 12.9818 81.7466 12.7314L99.6427 7.93613C100.585 7.68364 102.058 7.6845 102.993 7.93893L120.893 12.7374C121.255 12.8338 121.672 13.0083 122.082 13.2183L129.71 0.00577728L130.417 0.413915L122.789 13.6264C123.176 13.8763 123.535 14.1503 123.8 14.416L136.906 27.5183C137.596 28.2087 138.333 29.484 138.583 30.4185L140.877 38.9778L179.354 28.6678L175.251 13.3552L176.037 13.1448L180.14 28.4573L195.06 24.4596L193.692 19.3554L194.477 19.145L194.461 19.1492ZM108.282 77.5896L107.651 75.2338C107.39 74.2601 107.585 72.8193 108.083 71.9452L123.702 44.8928C124.207 44.0167 125.36 43.1355 126.334 42.8746L140.076 39.1924L137.782 30.6331C137.57 29.84 136.895 28.6741 136.32 28.0961L123.214 14.9938C122.996 14.7746 122.7 14.5508 122.373 14.3354L118.912 20.3294L118.206 19.9212L121.666 13.9273C121.316 13.7518 120.974 13.6076 120.675 13.5279L102.776 8.72941C101.977 8.51409 100.64 8.51884 99.8473 8.73136L81.9513 13.5266C81.1582 13.7391 79.9922 14.4134 79.4143 14.9891L66.3119 28.0945C65.7282 28.6802 65.0614 29.8352 64.846 30.6335L60.0476 48.5332C59.8323 49.3315 59.837 50.6684 60.0495 51.4616L62.343 60.0209L76.085 56.3387C76.8467 56.1346 77.824 55.3846 78.2207 54.6976L93.8393 27.6453C94.236 26.9583 94.3969 25.7369 94.1928 24.9752L93.5615 22.6194L94.3468 22.409L94.978 24.7647C95.2389 25.7385 95.0443 27.1793 94.5463 28.0534L78.9276 55.1057C78.4217 55.9819 77.2691 56.8631 76.2954 57.124L62.5534 60.8061L64.8469 69.3654C65.0594 70.1586 65.7337 71.3245 66.3094 71.9025L79.4148 85.0048C79.6334 85.224 79.9291 85.4478 80.2561 85.6631L83.7224 79.6592L84.4294 80.0674L80.963 86.0713C81.313 86.2468 81.6547 86.3909 81.9538 86.4707L99.8534 91.2692C100.652 91.4845 101.989 91.4797 102.782 91.2672L120.678 86.472C121.471 86.2595 122.637 85.5852 123.215 85.0095L136.317 71.904C136.901 71.3184 137.568 70.1634 137.783 69.3651L142.582 51.4654C142.797 50.6671 142.792 49.3301 142.58 48.537L140.286 39.9777L126.544 43.6599C125.782 43.864 124.805 44.614 124.408 45.301L108.79 72.3533C108.393 73.0403 108.232 74.2617 108.436 75.0234L109.068 77.3792L108.282 77.5896ZM71.0084 -59.2887L44.0661 -52.0695C43.273 -51.857 42.1071 -51.1827 41.5291 -50.607L0.699471 -9.78018C0.480313 -9.56155 0.256546 -9.26592 0.0411842 -8.93889L31.4645 9.20335L71.0084 -59.2887ZM-0.366954 -8.23198C-0.542489 -7.88195 -0.686624 -7.54035 -0.766388 -7.24124L-15.7086 48.5317C-15.924 49.33 -15.9192 50.667 -15.7067 51.4601L-8.48756 78.4023L31.0563 9.91027L-0.366954 -8.23198ZM-8.13561 79.7472L-0.769169 107.239C-0.556656 108.032 0.117651 109.198 0.693336 109.776L41.5202 150.606C41.7388 150.825 42.0344 151.049 42.3615 151.264L60.7049 119.492L61.4118 119.9L43.0684 151.672C43.4184 151.848 43.76 151.992 44.0591 152.072L99.832 167.014C100.63 167.229 101.967 167.224 102.76 167.012L130.488 159.582L210.392 21.1845L196.03 25.0329L197.397 30.1371L196.612 30.3475L195.244 25.2433L180.324 29.2411L184.427 44.5536L183.642 44.764L179.539 29.4515L156.767 35.5533L160.188 48.3217C160.44 49.264 160.44 50.7371 160.185 51.6721L153.13 77.9868C152.878 78.9297 152.142 80.2042 151.452 80.8942L132.19 100.161C131.5 100.851 130.232 101.586 129.29 101.839L116.129 105.365L115.918 104.58L129.079 101.054C129.872 100.841 131.038 100.167 131.616 99.5911L150.878 80.324C151.462 79.7384 152.129 78.5834 152.344 77.7851L159.399 51.4704C159.614 50.6721 159.609 49.3351 159.397 48.542L155.976 35.7737L141.056 39.7715L143.349 48.3308C143.602 49.2731 143.601 50.7462 143.346 51.6813L138.548 69.581C138.296 70.5239 137.56 71.7983 136.869 72.4883L123.767 85.5937C123.077 86.2837 121.801 87.021 120.867 87.2714L102.971 92.0666C102.028 92.3191 100.555 92.3183 99.6203 92.0638L81.7206 87.2654C81.3581 87.1689 80.9411 86.9945 80.5313 86.7845L72.903 99.997L72.1961 99.5889L79.8244 86.3763C79.4376 86.1265 79.078 85.8525 78.8133 85.5868L65.7078 72.4845C65.0179 71.794 64.2827 70.5266 64.0302 69.5843L61.7367 61.025L23.259 71.335L27.362 86.6476L26.5768 86.858L22.4738 71.5454L7.55386 75.5432L8.92152 80.6474L8.13626 80.8578L6.7686 75.7536L-8.15132 79.7514L-8.13561 79.7472ZM159.053 261.35L213.251 246.827C214.044 246.615 215.21 245.941 215.788 245.365L296.662 164.486C297.245 163.9 297.912 162.745 298.128 161.947L327.734 51.4684C327.95 50.6701 327.945 49.3332 327.732 48.5401L313.185 -5.75275L236.276 127.458L260.819 141.628L260.411 142.335L235.867 128.165L159.28 260.818C159.194 260.967 159.118 261.155 159.053 261.35ZM221.63 -157.594L215.353 -146.722C215.74 -146.472 216.099 -146.198 216.364 -145.932L236.979 -125.315L237.63 -127.753C237.845 -128.552 237.841 -129.888 237.628 -130.682L233.959 -144.376C233.746 -145.17 233.072 -146.336 232.496 -146.914L222.471 -156.936C222.253 -157.155 221.957 -157.379 221.63 -157.594ZM175.593 -114.059C175.805 -113.266 176.48 -112.1 177.055 -111.522L187.08 -101.5C187.666 -100.916 188.821 -100.249 189.619 -100.034L203.311 -96.3634C204.109 -96.1481 205.446 -96.1529 206.239 -96.3654L219.934 -100.035C220.727 -100.247 221.893 -100.922 222.471 -101.497L232.494 -111.522C233.078 -112.108 233.745 -113.263 233.96 -114.061L236.734 -124.407L215.786 -145.357C215.567 -145.576 215.272 -145.799 214.945 -146.015L210.961 -139.115L215.23 -123.182L199.297 -118.913L193.635 -109.105L192.928 -109.514L198.59 -119.321L196.636 -126.616L173.863 -120.514L175.593 -114.059ZM214.238 -146.423C213.888 -146.598 213.546 -146.743 213.247 -146.822L184.631 -154.489L177.057 -146.914C176.474 -146.328 175.807 -145.173 175.592 -144.375L171.921 -130.683C171.706 -129.884 171.711 -128.547 171.923 -127.754L173.653 -121.299L196.425 -127.401L194.321 -135.254L210.254 -139.523L214.238 -146.423ZM206.719 -133.4L209.679 -138.527L195.317 -134.679L199.165 -120.317L202.126 -125.444L202.833 -125.036L199.872 -119.908L214.235 -123.757L210.386 -138.119L207.426 -132.991L206.719 -133.4ZM185.296 -155.147L213.459 -147.603C213.821 -147.506 214.238 -147.332 214.648 -147.122L220.925 -157.995C220.575 -158.17 220.234 -158.314 219.935 -158.394L206.242 -162.064C205.444 -162.28 204.107 -162.275 203.314 -162.063L189.619 -158.393C188.826 -158.18 187.66 -157.506 187.082 -156.93L185.296 -155.147ZM44.9922 -161.722L61.6145 -99.6867L99.6289 -109.873C100.571 -110.125 102.044 -110.124 102.979 -109.87L179.798 -89.2887C180.741 -89.0364 182.015 -88.3006 182.705 -87.6102L238.938 -31.3742C239.628 -30.6837 240.365 -29.4084 240.616 -28.474L250.801 9.5404L269.648 4.49057L268.596 0.564277L277.233 -1.75023L279.548 6.88762L270.91 9.20212L269.858 5.27583L211.749 20.8461L219.115 48.3381C219.368 49.2804 219.367 50.7535 219.113 51.6885L204.17 107.461C204.074 107.824 203.899 108.241 203.689 108.651L220.646 118.44L226.135 108.932L226.842 109.34L221.353 118.849L235.581 127.063L312.898 -6.85422L298.14 -61.9323C297.927 -62.7254 297.253 -63.8913 296.677 -64.4693L237.41 -123.738L234.758 -113.846C234.506 -112.903 233.77 -111.628 233.08 -110.938L223.057 -100.914C222.367 -100.224 221.091 -99.4864 220.157 -99.236L206.462 -95.5665C205.52 -95.314 204.046 -95.3149 203.111 -95.5693L189.419 -99.2396C188.476 -99.4919 187.202 -100.228 186.512 -100.918L176.487 -110.941C175.797 -111.631 175.06 -112.907 174.81 -113.841L173.08 -120.296L149.915 -114.089L149.704 -114.874L172.87 -121.081L171.14 -127.536C170.888 -128.478 170.888 -129.951 171.143 -130.886L174.813 -144.579C175.065 -145.521 175.801 -146.796 176.492 -147.486L183.733 -154.729L102.771 -176.421C101.973 -176.637 100.636 -176.632 99.8425 -176.419L45 -161.724L44.9922 -161.722ZM278.542 6.30704L276.649 -0.760289L269.581 1.1334L271.475 8.20073L278.542 6.30704ZM-111.213 106.533L-125.91 51.6831C-126.162 50.7408 -126.162 49.2677 -125.907 48.3326L-96.3005 -62.1456C-96.0481 -63.0885 -95.3123 -64.363 -94.6219 -65.053L-13.7483 -145.932C-13.0578 -146.622 -11.7904 -147.357 -10.8481 -147.61L43.7431 -162.238C43.7908 -162.688 43.7813 -163.131 43.6866 -163.485L39.8993 -177.62L31.5881 -208.637L-35.8814 -190.559C-36.6745 -190.346 -37.8404 -189.672 -38.4184 -189.096L-137.78 -89.7381C-138.364 -89.1524 -139.031 -87.9975 -139.246 -87.1991L-175.612 48.5298C-175.827 49.3282 -175.822 50.6651 -175.61 51.4582L-157.532 118.928L-111.201 106.514L-111.213 106.533ZM-19.0225 257.607L-12.7451 246.734C-13.1319 246.485 -13.4915 246.211 -13.7563 245.945L-34.3713 225.327L-35.0245 227.758C-35.2398 228.556 -35.2351 229.893 -35.0226 230.686L-31.353 244.381C-31.1405 245.174 -30.4662 246.34 -29.8905 246.918L-19.8659 256.941C-19.6473 257.16 -19.3516 257.384 -19.0246 257.599L-19.0225 257.607ZM27.015 214.072C26.8025 213.279 26.1281 212.113 25.5524 211.535L15.5278 201.512C14.9422 200.929 13.7872 200.262 12.9888 200.046L-0.703323 196.376C-1.50166 196.161 -2.83859 196.166 -3.6317 196.378L-17.3266 200.048C-18.1197 200.26 -19.2857 200.934 -19.8636 201.51L-29.8863 211.535C-30.47 212.12 -31.1368 213.275 -31.3521 214.074L-34.1241 224.428L-13.1762 245.377C-12.9575 245.596 -12.6619 245.82 -12.3349 246.035L-8.35119 239.135L-12.6204 223.203L3.3125 218.933L8.97477 209.126L9.68169 209.534L4.01942 219.341L5.97414 226.637L28.7466 220.535L27.0171 214.08L27.015 214.072ZM-11.6301 246.436C-11.2801 246.611 -10.9384 246.755 -10.6393 246.835L17.9771 254.502L25.5582 246.924C26.1419 246.339 26.8087 245.184 27.024 244.385L30.6943 230.693C30.9096 229.895 30.9049 228.558 30.6924 227.765L28.9628 221.31L6.19029 227.412L8.29438 235.264L-7.63851 239.534L-11.6222 246.434L-11.6301 246.436ZM-4.11105 233.412L-7.07153 238.54L7.29087 234.692L3.44247 220.329L0.481992 225.457L-0.224931 225.049L2.73555 219.921L-11.6268 223.77L-7.77845 238.132L-4.81797 233.004L-4.11105 233.412ZM17.3118 255.16L-10.851 247.616C-11.2135 247.519 -11.6306 247.345 -12.0403 247.135L-18.3177 258.007C-17.9677 258.183 -17.6261 258.327 -17.3269 258.407L-3.63476 262.077C-2.83643 262.292 -1.49948 262.288 -0.706373 262.075L12.9885 258.406C13.7817 258.193 14.9476 257.519 15.5256 256.943L17.3039 255.162L17.3118 255.16ZM157.623 261.733L141.001 199.697L102.987 209.883C102.044 210.136 100.571 210.135 99.6362 209.88L22.8179 189.299C21.875 189.047 20.6005 188.311 19.9106 187.621L-36.3223 131.385C-37.0123 130.694 -37.7496 129.419 -38 128.485L-48.1859 90.4702L-67.0321 95.52L-65.9801 99.4463L-74.6179 101.761L-76.9324 93.123L-68.2946 90.8085L-67.2425 94.7348L-9.13338 79.1645L-16.4998 51.6726C-16.7523 50.7303 -16.7515 49.2572 -16.497 48.3221L-1.55476 -7.45081C-1.45832 -7.81331 -1.28392 -8.23034 -1.07389 -8.64011L-18.0301 -18.4298L-23.4797 -8.99087L-24.1866 -9.39901L-18.737 -18.838L-32.9651 -27.0525L-110.282 106.865L-95.5243 161.943C-95.3118 162.736 -94.6374 163.902 -94.0617 164.48L-34.7942 223.749L-32.1447 213.848C-31.8924 212.906 -31.1566 211.631 -30.4662 210.941L-20.4435 200.916C-19.7531 200.226 -18.4778 199.489 -17.5433 199.239L-3.84843 195.569C-2.90612 195.317 -1.43302 195.318 -0.497961 195.572L13.1942 199.242C14.1371 199.495 15.4116 200.23 16.1016 200.921L26.1262 210.944C26.8162 211.634 27.5535 212.909 27.8039 213.844L29.5334 220.299L52.6986 214.091L52.909 214.877L29.7438 221.084L31.4734 227.539C31.7259 228.481 31.725 229.954 31.4706 230.889L27.8003 244.581C27.548 245.524 26.8122 246.799 26.1218 247.489L18.8723 254.733L99.8347 276.426C100.633 276.641 101.97 276.637 102.763 276.424L157.613 261.727L157.623 261.733ZM-75.9268 93.7036L-74.0331 100.771L-66.9658 98.8772L-68.8595 91.8099L-75.9268 93.7036ZM360.159 -18.937L313.828 -6.5228L328.525 48.3275C328.778 49.2698 328.777 50.7429 328.523 51.678L298.916 162.156C298.664 163.099 297.928 164.374 297.237 165.064L216.364 245.943C215.673 246.633 214.398 247.37 213.464 247.621L158.872 262.248C158.823 262.691 158.84 263.132 158.933 263.478L171.035 308.646L238.505 290.567C239.298 290.355 240.464 289.681 241.042 289.105L340.404 189.747C340.987 189.161 341.654 188.006 341.869 187.208L378.235 51.4787C378.451 50.6803 378.446 49.3434 378.233 48.5503L360.155 -18.9192L360.159 -18.937Z" fill="url(#paint0_linear_3813_2094)"/>
</g>
<g filter="url(#filter0_dd_3813_2094)">
<rect x="72" y="33.0295" width="48" height="48" rx="8" transform="rotate(-15 72 33.0295)" fill="white"/>
</g>
<path fill-rule="evenodd" clip-rule="evenodd" d="M105.756 49.6579L111.886 48.0153L111.884 48.005L111.47 46.4622L105.34 48.1048C105.258 48.1268 105.054 48.1044 104.975 48.0593L101.285 45.9285C101.219 45.8908 101.085 45.7174 101.063 45.6352L99.4201 39.5051L97.8773 39.9185L99.5226 46.0588C99.6522 46.5422 100.046 47.0651 100.489 47.3211L104.18 49.4519C104.61 49.7004 105.263 49.7902 105.756 49.6579ZM103.379 60.4916L104.912 60.081L103.269 53.9509C103.139 53.4675 102.746 52.9446 102.302 52.6886L98.6117 50.5578C98.1814 50.3094 97.529 50.2196 97.0353 50.3519L90.9052 51.9944L91.3186 53.5372L97.4589 51.8919C97.5412 51.8699 97.7456 51.8923 97.8239 51.9374L101.515 54.0683C101.58 54.1059 101.714 54.2793 101.736 54.3616L103.379 60.4916Z" fill="url(#paint1_linear_3813_2094)"/>
</g>
<defs>
<filter id="filter0_dd_3813_2094" x="70.7959" y="21.4021" width="61.1958" height="63.196" filterUnits="userSpaceOnUse" color-interpolation-filters="sRGB">
<feFlood flood-opacity="0" result="BackgroundImageFix"/>
<feColorMatrix in="SourceAlpha" type="matrix" values="0 0 0 0 0 0 0 0 0 0 0 0 0 0 0 0 0 0 127 0" result="hardAlpha"/>
<feMorphology radius="1" operator="erode" in="SourceAlpha" result="effect1_dropShadow_3813_2094"/>
<feOffset dy="1"/>
<feGaussianBlur stdDeviation="1.5"/>
<feColorMatrix type="matrix" values="0 0 0 0 0.0627451 0 0 0 0 0.0941176 0 0 0 0 0.156863 0 0 0 0.04 0"/>
<feBlend mode="normal" in2="BackgroundImageFix" result="effect1_dropShadow_3813_2094"/>
<feColorMatrix in="SourceAlpha" type="matrix" values="0 0 0 0 0 0 0 0 0 0 0 0 0 0 0 0 0 0 127 0" result="hardAlpha"/>
<feMorphology radius="2" operator="erode" in="SourceAlpha" result="effect2_dropShadow_3813_2094"/>
<feOffset dy="4"/>
<feGaussianBlur stdDeviation="2.5"/>
<feColorMatrix type="matrix" values="0 0 0 0 0.0627451 0 0 0 0 0.0941176 0 0 0 0 0.156863 0 0 0 0.08 0"/>
<feBlend mode="normal" in2="effect1_dropShadow_3813_2094" result="effect2_dropShadow_3813_2094"/>
<feBlend mode="normal" in="SourceGraphic" in2="effect2_dropShadow_3813_2094" result="shape"/>
</filter>
<linearGradient id="paint0_linear_3813_2094" x1="373.311" y1="20" x2="58.3105" y2="79" gradientUnits="userSpaceOnUse">
<stop stop-color="white"/>
<stop offset="1" stop-color="#E1E1E3"/>
</linearGradient>
<linearGradient id="paint1_linear_3813_2094" x1="87.7676" y1="40.2849" x2="113.15" y2="61.7318" gradientUnits="userSpaceOnUse">
<stop stop-color="#CE91FF"/>
<stop offset="1" stop-color="#9370FF"/>
</linearGradient>
<clipPath id="clip0_3813_2094">
<rect width="400" height="100" fill="white"/>
</clipPath>
<clipPath id="clip1_3813_2094">
<rect width="634.109" height="634.109" fill="white" transform="translate(-287 -174.191) rotate(-15)"/>
</clipPath>
</defs>
</svg>
