<svg width="600" height="260" viewBox="0 0 600 260" fill="none" xmlns="http://www.w3.org/2000/svg">
<g clip-path="url(#clip0_3827_4813)">
<g clip-path="url(#clip1_3827_4813)">
<path d="M158.761 259.799V0.12607" stroke="#2F312E" stroke-width="0.402109" stroke-linecap="square" stroke-linejoin="round"/>
<path d="M137.121 259.799V0.12607" stroke="#2F312E" stroke-width="0.402109" stroke-linecap="square" stroke-linejoin="round"/>
<path d="M115.482 259.799V0.12607" stroke="#2F312E" stroke-width="0.402109" stroke-linecap="square" stroke-linejoin="round"/>
<path d="M93.8427 259.799V0.12607" stroke="#2F312E" stroke-width="0.402109" stroke-linecap="square" stroke-linejoin="round"/>
<path d="M72.2025 259.799V0.12607" stroke="#2F312E" stroke-width="0.402109" stroke-linecap="square" stroke-linejoin="round"/>
<path d="M50.5643 259.799V0.12607" stroke="#2F312E" stroke-width="0.402109" stroke-linecap="square" stroke-linejoin="round"/>
<path d="M28.9242 259.799V0.12607" stroke="#2F312E" stroke-width="0.402109" stroke-linecap="square" stroke-linejoin="round"/>
<path d="M7.28553 259.799V0.12607" stroke="#2F312E" stroke-width="0.402109" stroke-linecap="square" stroke-linejoin="round"/>
<path d="M-100.912 259.799H158.761" stroke="#2F312E" stroke-width="0.402109" stroke-linecap="round" stroke-linejoin="round"/>
<path d="M-100.912 238.159H158.762" stroke="#2F312E" stroke-width="0.402109" stroke-linecap="round" stroke-linejoin="round"/>
<path d="M-100.912 216.52H158.762" stroke="#2F312E" stroke-width="0.402109" stroke-linecap="round" stroke-linejoin="round"/>
<path d="M-100.912 194.88H158.762" stroke="#2F312E" stroke-width="0.402109" stroke-linecap="round" stroke-linejoin="round"/>
<path d="M-100.912 173.242H158.762" stroke="#2F312E" stroke-width="0.402109" stroke-linecap="round" stroke-linejoin="round"/>
<path d="M-100.912 151.602H158.762" stroke="#2F312E" stroke-width="0.402109" stroke-linecap="round" stroke-linejoin="round"/>
<path d="M-100.912 129.963H158.762" stroke="#2F312E" stroke-width="0.402109" stroke-linecap="round" stroke-linejoin="round"/>
<path d="M-100.912 108.323H158.762" stroke="#2F312E" stroke-width="0.402109" stroke-linecap="round" stroke-linejoin="round"/>
<path d="M-100.912 86.6842H158.762" stroke="#2F312E" stroke-width="0.402109" stroke-linecap="round" stroke-linejoin="round"/>
<path d="M-100.912 65.0448H158.762" stroke="#2F312E" stroke-width="0.402109" stroke-linecap="round" stroke-linejoin="round"/>
<path d="M-100.912 43.4044H158.762" stroke="#2F312E" stroke-width="0.402109" stroke-linecap="round" stroke-linejoin="round"/>
<path d="M-100.912 21.766H158.762" stroke="#2F312E" stroke-width="0.402109" stroke-linecap="round" stroke-linejoin="round"/>
<path d="M418.635 259.799V0.125826" stroke="#2F312E" stroke-width="0.402109" stroke-linecap="round" stroke-linejoin="round"/>
<path d="M396.995 259.799V0.125826" stroke="#2F312E" stroke-width="0.402109" stroke-linecap="round" stroke-linejoin="round"/>
<path d="M375.356 259.799V0.125826" stroke="#2F312E" stroke-width="0.402109" stroke-linecap="round" stroke-linejoin="round"/>
<path d="M353.717 259.799V0.125826" stroke="#2F312E" stroke-width="0.402109" stroke-linecap="round" stroke-linejoin="round"/>
<path d="M332.076 259.799V0.125826" stroke="#2F312E" stroke-width="0.402109" stroke-linecap="round" stroke-linejoin="round"/>
<path d="M310.438 259.799V0.125826" stroke="#2F312E" stroke-width="0.402109" stroke-linecap="round" stroke-linejoin="round"/>
<path d="M288.798 259.799V0.125826" stroke="#2F312E" stroke-width="0.402109" stroke-linecap="square" stroke-linejoin="round"/>
<path d="M267.159 259.799V0.125826" stroke="#2F312E" stroke-width="0.402109" stroke-linecap="square" stroke-linejoin="round"/>
<path d="M245.518 259.799V0.12607" stroke="#2F312E" stroke-width="0.402109" stroke-linecap="square" stroke-linejoin="round"/>
<path d="M223.88 259.799V0.12607" stroke="#2F312E" stroke-width="0.402109" stroke-linecap="square" stroke-linejoin="round"/>
<path d="M202.24 259.799V0.12607" stroke="#2F312E" stroke-width="0.402109" stroke-linecap="square" stroke-linejoin="round"/>
<path d="M180.601 259.799V0.125826" stroke="#2F312E" stroke-width="0.402109" stroke-linecap="square" stroke-linejoin="round"/>
<path d="M158.962 259.799H418.635" stroke="#2F312E" stroke-width="0.402109" stroke-linecap="round" stroke-linejoin="round"/>
<path d="M158.962 238.159H418.635" stroke="#2F312E" stroke-width="0.402109" stroke-linecap="round" stroke-linejoin="round"/>
<path d="M158.962 216.52H418.635" stroke="#2F312E" stroke-width="0.402109" stroke-linecap="round" stroke-linejoin="round"/>
<path d="M158.962 194.88H418.635" stroke="#2F312E" stroke-width="0.402109" stroke-linecap="round" stroke-linejoin="round"/>
<path d="M158.962 173.242H418.635" stroke="#2F312E" stroke-width="0.402109" stroke-linecap="round" stroke-linejoin="round"/>
<path d="M158.962 151.602H418.635" stroke="#2F312E" stroke-width="0.402109" stroke-linecap="round" stroke-linejoin="round"/>
<path d="M158.962 129.963H418.635" stroke="#2F312E" stroke-width="0.402109" stroke-linecap="round" stroke-linejoin="round"/>
<path d="M158.962 108.323H418.635" stroke="#2F312E" stroke-width="0.402109" stroke-linecap="round" stroke-linejoin="round"/>
<path d="M158.962 86.6842H418.635" stroke="#2F312E" stroke-width="0.402109" stroke-linecap="round" stroke-linejoin="round"/>
<path d="M158.962 65.0448H418.635" stroke="#2F312E" stroke-width="0.402109" stroke-linecap="round" stroke-linejoin="round"/>
<path d="M158.962 43.4044H418.635" stroke="#2F312E" stroke-width="0.402109" stroke-linecap="round" stroke-linejoin="round"/>
<path d="M158.962 21.766H418.635" stroke="#2F312E" stroke-width="0.402109" stroke-linecap="round" stroke-linejoin="round"/>
<path d="M591.951 259.799V0.125826" stroke="#2F312E" stroke-width="0.402109" stroke-linecap="round" stroke-linejoin="round"/>
<path d="M570.313 259.799V0.125826" stroke="#2F312E" stroke-width="0.402109" stroke-linecap="round" stroke-linejoin="round"/>
<path d="M548.673 259.799V0.125826" stroke="#2F312E" stroke-width="0.402109" stroke-linecap="square" stroke-linejoin="round"/>
<path d="M527.034 259.799V0.125826" stroke="#2F312E" stroke-width="0.402109" stroke-linecap="square" stroke-linejoin="round"/>
<path d="M505.393 259.799V0.12607" stroke="#2F312E" stroke-width="0.402109" stroke-linecap="square" stroke-linejoin="round"/>
<path d="M483.755 259.799V0.12607" stroke="#2F312E" stroke-width="0.402109" stroke-linecap="square" stroke-linejoin="round"/>
<path d="M462.115 259.799V0.12607" stroke="#2F312E" stroke-width="0.402109" stroke-linecap="square" stroke-linejoin="round"/>
<path d="M440.476 259.799V0.125826" stroke="#2F312E" stroke-width="0.402109" stroke-linecap="square" stroke-linejoin="round"/>
<path d="M418.837 259.799H678.51" stroke="#2F312E" stroke-width="0.402109" stroke-linecap="round" stroke-linejoin="round"/>
<path d="M418.837 238.159H678.51" stroke="#2F312E" stroke-width="0.402109" stroke-linecap="round" stroke-linejoin="round"/>
<path d="M418.837 216.52H678.51" stroke="#2F312E" stroke-width="0.402109" stroke-linecap="round" stroke-linejoin="round"/>
<path d="M418.837 194.88H678.51" stroke="#2F312E" stroke-width="0.402109" stroke-linecap="round" stroke-linejoin="round"/>
<path d="M418.837 173.242H678.51" stroke="#2F312E" stroke-width="0.402109" stroke-linecap="round" stroke-linejoin="round"/>
<path d="M418.837 151.602H678.51" stroke="#2F312E" stroke-width="0.402109" stroke-linecap="round" stroke-linejoin="round"/>
<path d="M418.837 129.963H678.51" stroke="#2F312E" stroke-width="0.402109" stroke-linecap="round" stroke-linejoin="round"/>
<path d="M418.837 108.323H678.51" stroke="#2F312E" stroke-width="0.402109" stroke-linecap="round" stroke-linejoin="round"/>
<path d="M418.837 86.6842H678.51" stroke="#2F312E" stroke-width="0.402109" stroke-linecap="round" stroke-linejoin="round"/>
<path d="M418.837 65.0448H678.51" stroke="#2F312E" stroke-width="0.402109" stroke-linecap="round" stroke-linejoin="round"/>
<path d="M418.837 43.4044H678.51" stroke="#2F312E" stroke-width="0.402109" stroke-linecap="round" stroke-linejoin="round"/>
<path d="M418.837 21.766H678.51" stroke="#2F312E" stroke-width="0.402109" stroke-linecap="round" stroke-linejoin="round"/>
</g>
<rect width="600" height="260" fill="url(#paint0_radial_3827_4813)"/>
<g filter="url(#filter0_ddii_3827_4813)">
<rect x="116.108" y="151.826" width="43.3236" height="43.3236" rx="8" transform="rotate(90 116.108 151.826)" fill="#2F312E" shape-rendering="crispEdges"/>
<g clip-path="url(#clip2_3827_4813)">
<g clip-path="url(#clip3_3827_4813)">
<path d="M99.2771 178.047C99.4044 176.987 99.3662 176.832 100.155 177.003L100.356 177.021C100.963 177.048 101.757 176.923 102.231 176.707C103.235 176.241 103.83 175.463 102.84 175.668C100.583 176.134 100.419 175.369 100.419 175.369C102.804 171.83 103.801 167.338 102.94 166.238C100.593 163.238 96.5294 164.657 96.4615 164.695L96.4396 164.698C95.9943 164.605 95.5021 164.55 94.9318 164.542C93.9099 164.527 93.1349 164.81 92.5459 165.256C92.5459 165.256 85.2982 162.27 85.6349 169.012C85.7068 170.446 87.6896 179.871 90.0568 177.02C90.9232 175.977 91.7591 175.097 91.7591 175.097C92.1732 175.373 92.6709 175.513 93.1919 175.463L93.2326 175.428C93.2205 175.563 93.2261 175.699 93.249 175.833C92.6396 176.514 92.8193 176.634 91.6005 176.884C90.3677 177.138 91.0927 177.591 91.5646 177.709C92.138 177.853 93.4646 178.056 94.3615 176.802L94.3255 176.945C94.5646 177.136 94.5482 178.32 94.5834 179.165C94.6185 180.01 94.674 180.8 94.8466 181.265C95.0193 181.73 95.2216 182.929 96.8232 182.593C98.1615 182.306 99.1849 181.893 99.2787 178.054" fill="black"/>
<path d="M99.2771 178.047C99.4044 176.987 99.3662 176.832 100.155 177.003L100.356 177.021C100.963 177.048 101.757 176.923 102.231 176.707C103.235 176.241 103.83 175.463 102.84 175.668C100.583 176.134 100.419 175.369 100.419 175.369C102.804 171.83 103.801 167.338 102.94 166.238C100.593 163.238 96.5294 164.657 96.4615 164.695L96.4396 164.698C95.9943 164.605 95.5021 164.55 94.9318 164.542C93.9099 164.527 93.1349 164.81 92.5459 165.256C92.5459 165.256 85.2982 162.27 85.6349 169.012C85.7068 170.446 87.6896 179.871 90.0568 177.02C90.9232 175.977 91.7591 175.097 91.7591 175.097C92.1732 175.373 92.6709 175.513 93.1919 175.463L93.2326 175.428C93.2205 175.563 93.2261 175.699 93.249 175.833C92.6396 176.514 92.8193 176.634 91.6005 176.884C90.3677 177.138 91.0927 177.591 91.5646 177.709C92.138 177.853 93.4646 178.056 94.3615 176.802L94.3255 176.945C94.5646 177.136 94.5482 178.32 94.5834 179.165C94.6185 180.01 94.674 180.8 94.8466 181.265C95.0193 181.73 95.2216 182.929 96.8232 182.593C98.1615 182.306 99.1849 181.893 99.2787 178.054" stroke="black" stroke-width="1.67891"/>
<path d="M102.833 175.675C100.576 176.141 100.412 175.376 100.412 175.376C102.797 171.837 103.794 167.345 102.934 166.245C100.587 163.245 96.5233 164.665 96.4554 164.702L96.4335 164.706C95.9372 164.606 95.4326 164.553 94.9265 164.548C93.9046 164.533 93.1296 164.816 92.5405 165.263C92.5405 165.263 85.2921 162.277 85.6296 169.018C85.7015 170.452 87.6843 179.877 90.0515 177.026C90.9233 175.977 91.7593 175.097 91.7593 175.097C92.1733 175.373 92.671 175.513 93.1921 175.463L93.2327 175.428C93.2208 175.563 93.2263 175.699 93.2491 175.833C92.6398 176.514 92.8194 176.634 91.6007 176.884C90.3679 177.138 91.0929 177.591 91.5648 177.709C92.1382 177.853 93.4648 178.056 94.3616 176.802L94.3257 176.945C94.5648 177.136 94.7319 178.189 94.7038 179.144C94.6757 180.098 94.6569 180.753 94.8444 181.266C95.0319 181.778 95.2194 182.93 96.821 182.594C98.1593 182.307 98.8522 181.563 98.9499 180.323C99.0187 179.442 99.1733 179.572 99.1843 178.784L99.3093 178.411C99.4523 177.216 99.3327 176.831 100.157 177.01L100.358 177.028C100.965 177.056 101.759 176.931 102.225 176.714C103.229 176.248 103.824 175.47 102.834 175.675H102.833Z" fill="#336791"/>
<path d="M94.4577 176.353C94.3952 178.576 94.4733 180.815 94.6905 181.353C94.9077 181.89 95.3741 182.954 96.9765 182.612C98.3147 182.325 98.8022 181.77 99.0132 180.544L99.5077 176.624M92.5374 165.206C92.5374 165.206 85.2843 162.241 85.6218 168.982C85.6936 170.417 87.6765 179.842 90.0437 176.99C90.9077 175.949 91.689 175.134 91.689 175.134M96.4546 164.665C96.2046 164.743 100.489 163.099 102.925 166.21C103.784 167.31 102.788 171.802 100.403 175.341" stroke="white" stroke-width="0.559375" stroke-linecap="round" stroke-linejoin="round"/>
<path d="M100.404 175.339C100.404 175.339 100.56 176.105 102.826 175.637C103.816 175.433 103.219 176.211 102.216 176.676C101.393 177.059 99.546 177.157 99.5155 176.63C99.4374 175.266 100.487 175.68 100.412 175.339C100.343 175.031 99.8726 174.73 99.5632 173.976C99.2921 173.32 95.8444 168.281 100.519 169.029C100.691 168.994 99.3007 164.576 94.9257 164.512C90.5507 164.447 90.689 169.89 90.689 169.89" stroke="white" stroke-width="0.559375" stroke-linecap="round" stroke-linejoin="bevel"/>
<path d="M93.2337 175.806C92.6243 176.488 92.804 176.607 91.5852 176.858C90.3524 177.112 91.0774 177.564 91.5493 177.683C92.1227 177.827 93.4493 178.03 94.3462 176.774C94.6196 176.392 94.3446 175.782 93.9696 175.628C93.7883 175.553 93.5462 175.459 93.2352 175.807L93.2337 175.806Z" stroke="white" stroke-width="0.559375" stroke-linejoin="round"/>
<path d="M93.1937 175.794C93.1312 175.394 93.325 174.918 93.532 174.36C93.8429 173.524 94.5601 172.688 93.9867 170.034C93.5593 168.058 90.6898 169.623 90.6898 169.891C90.6898 170.159 90.8195 171.25 90.6429 172.519C90.4109 174.177 91.6976 175.579 93.1789 175.436" stroke="white" stroke-width="0.559375" stroke-linecap="round" stroke-linejoin="round"/>
<path d="M92.5109 169.851C92.4977 169.942 92.6789 170.187 92.9141 170.219C93.1492 170.252 93.35 170.062 93.3633 169.969C93.3766 169.877 93.1953 169.777 92.9602 169.744C92.725 169.712 92.5227 169.76 92.5109 169.851Z" fill="white" stroke="white" stroke-width="0.186719"/>
<path d="M99.6703 169.664C99.6828 169.756 99.5023 170 99.2671 170.033C99.032 170.066 98.8296 169.875 98.8179 169.783C98.8062 169.691 98.9859 169.591 99.221 169.558C99.4562 169.525 99.6585 169.574 99.6703 169.664Z" fill="white" stroke="white" stroke-width="0.0929688"/>
<path d="M100.511 169.031C100.55 169.749 100.356 170.238 100.331 171.002C100.295 172.113 100.861 173.385 100.008 174.659" stroke="white" stroke-width="0.559375" stroke-linecap="round" stroke-linejoin="round"/>
</g>
</g>
</g>
<g filter="url(#filter1_ddii_3827_4813)">
<rect x="72.8301" y="43.1892" width="43.3236" height="43.3236" rx="8" transform="rotate(90 72.8301 43.1892)" fill="#2F312E" shape-rendering="crispEdges"/>
<g clip-path="url(#clip4_3827_4813)">
<g clip-path="url(#clip5_3827_4813)">
<path fill-rule="evenodd" clip-rule="evenodd" d="M59.5909 70.4297C58.5031 70.3994 57.6592 70.5109 56.9519 70.8084C56.7483 70.8902 56.4215 70.8902 56.3946 71.1465C56.5035 71.2541 56.5166 71.4301 56.612 71.5792C56.7751 71.8497 57.0611 72.2142 57.3193 72.4033L58.1897 73.0253C58.7202 73.3495 59.3186 73.5388 59.8354 73.8633C60.1347 74.0527 60.4338 74.2959 60.7332 74.4989C60.8856 74.6071 60.978 74.7831 61.1685 74.8504V74.8095C61.0734 74.6883 61.046 74.5126 60.9512 74.3768L60.5427 73.9851C60.1485 73.4579 59.6585 72.998 59.1281 72.6199C58.6927 72.3224 57.7409 71.917 57.5641 71.4171L57.5373 71.3868C57.8361 71.3565 58.1897 71.2513 58.4757 71.1701C58.9384 71.049 59.3598 71.0756 59.8354 70.9541L60.4887 70.7648V70.6436C60.2439 70.4003 60.0671 70.0758 59.8088 69.8461C59.1153 69.2514 58.3531 68.67 57.5641 68.1834C57.1425 67.9131 56.5983 67.7371 56.1495 67.5078C55.9858 67.4266 55.7142 67.386 55.6191 67.2508C55.3736 66.9539 55.238 66.5616 55.0612 66.2098L53.946 63.8578C53.7011 63.3306 53.5512 62.8034 53.2524 62.3169C51.8512 60.0188 50.3275 58.6266 47.988 57.2611C47.4849 56.9772 46.8865 56.8551 46.2502 56.7066L45.2301 56.6521C45.0122 56.5576 44.7948 56.3007 44.6042 56.1789C43.829 55.6923 41.8293 54.6379 41.2577 56.0274C40.8904 56.906 41.8019 57.771 42.1113 58.2173C42.343 58.5281 42.6418 58.8796 42.8055 59.231C42.897 59.4607 42.9275 59.7043 43.0229 59.9476C43.2403 60.5423 43.4445 61.2049 43.7302 61.7594C43.8826 62.0433 44.0427 62.3411 44.2332 62.5977C44.3421 62.7492 44.5326 62.814 44.5731 63.0573C44.3826 63.3279 44.3695 63.733 44.2607 64.0714C43.7707 65.599 43.9613 67.4914 44.6548 68.616C44.8728 68.9539 45.3865 69.6977 46.0835 69.4135C46.6956 69.1702 46.559 68.3997 46.7359 67.7238C46.777 67.5617 46.7496 67.4535 46.831 67.3451V67.3754L47.3889 68.4973C47.8105 69.1596 48.5453 69.8492 49.1571 70.3091C49.4833 70.5524 49.7418 70.9717 50.1498 71.1201V71.0792H50.1229C50.0412 70.9581 49.9187 70.9035 49.8098 70.809C49.565 70.5657 49.2931 70.2682 49.1025 69.9979C48.5315 69.2411 48.0285 68.4028 47.5794 67.5378C47.3615 67.1187 47.1709 66.6591 46.9947 66.2401C46.9124 66.0777 46.9124 65.8341 46.7767 65.7535C46.5725 66.0504 46.2737 66.308 46.1234 66.6728C45.8649 67.2539 45.838 67.9704 45.7429 68.7139C45.688 68.7275 45.7124 68.7139 45.688 68.7442C45.2533 68.6363 45.1033 68.1898 44.9402 67.8116C44.5323 66.8518 44.464 65.3109 44.8176 64.2023C44.9128 63.9184 45.3213 63.0261 45.1582 62.7559C45.0759 62.499 44.8045 62.3505 44.6545 62.1475C44.4777 61.8906 44.2878 61.5664 44.1652 61.2825C43.839 60.5251 43.6759 59.6873 43.322 58.9302C43.1583 58.5787 42.8729 58.2136 42.6415 57.8895C42.383 57.5244 42.0979 57.2675 41.8937 56.8351C41.8257 56.6836 41.7306 56.4431 41.8394 56.2807C41.8662 56.1725 41.9211 56.1292 42.0293 56.1049C42.2062 55.9534 42.7098 56.1455 42.8866 56.2261C43.3897 56.4291 43.8113 56.6182 44.2329 56.9018C44.4235 57.0369 44.6277 57.2938 44.8725 57.3617H45.1585C45.5938 57.4562 46.0831 57.392 46.4908 57.5132C47.2118 57.7434 47.8645 58.0809 48.4498 58.4463C50.2315 59.5683 51.7009 61.1634 52.6936 63.0698C52.8567 63.3806 52.9247 63.6645 53.0746 63.989C53.3606 64.6516 53.7143 65.3272 53.9993 65.9765C54.2853 66.6119 54.5572 67.2611 54.9651 67.7883C55.1694 68.0722 55.9852 68.2207 56.3523 68.3694C56.6245 68.4906 57.0458 68.5997 57.2913 68.7481C57.7534 69.032 58.2159 69.3565 58.651 69.6674C58.8683 69.8292 59.5488 70.1673 59.5893 70.4369L59.5909 70.4297ZM45.7194 58.6827C45.5315 58.681 45.3442 58.7037 45.1621 58.7502V58.7805H45.189C45.2978 58.9968 45.4884 59.1456 45.6243 59.335L45.9374 59.9839L45.9642 59.9536C46.1548 59.8185 46.2502 59.6022 46.2502 59.278C46.1685 59.1835 46.1551 59.0886 46.0871 58.9941C46.0054 58.859 45.8286 58.7911 45.7194 58.6833V58.6827Z" fill="white"/>
</g>
</g>
</g>
<g filter="url(#filter2_ddii_3827_4813)">
<rect x="462.541" y="43.4949" width="43.3236" height="43.3236" rx="8" transform="rotate(90 462.541 43.4949)" fill="#2F312E" shape-rendering="crispEdges"/>
<g clip-path="url(#clip6_3827_4813)">
<path d="M443.954 64.4934L439.949 65.8013L436.464 67.3392L435.489 67.5965C435.241 67.8327 434.981 68.0719 434.699 68.3141C434.39 68.5804 434.103 68.8227 433.882 68.9982C433.636 69.192 433.273 69.5553 433.088 69.7853C432.813 70.1304 432.595 70.4967 432.501 70.7783C432.335 71.287 432.416 71.8016 432.737 72.2769C433.149 72.8824 433.969 73.5 434.926 73.9208C435.413 74.1358 436.234 74.4112 436.851 74.5656C437.878 74.826 439.864 75.1075 440.957 75.1499C441.178 75.159 441.474 75.159 441.486 75.1499C441.511 75.1348 441.68 74.8109 441.877 74.4082C442.549 73.0368 443.033 71.7501 443.297 70.6512C443.454 69.9852 443.578 69.0982 443.66 68.0477C443.681 67.754 443.69 66.7701 443.672 66.4371C443.645 65.8922 443.596 65.4502 443.521 65.0172C443.509 64.9537 443.506 64.8961 443.512 64.8931C443.524 64.884 443.56 64.8719 444.054 64.7296L443.954 64.4935V64.4934H443.954V64.4934ZM443.04 65.0293C443.076 65.0293 443.173 65.9587 443.197 66.546C443.203 66.6702 443.2 66.7519 443.194 66.7519C443.17 66.7519 442.682 66.4643 442.334 66.2464C442.031 66.0556 441.456 65.6741 441.365 65.6015C441.335 65.5803 441.338 65.5773 441.586 65.4925C442.007 65.3502 443.006 65.0293 443.04 65.0293ZM440.999 65.7014C441.026 65.7014 441.096 65.7407 441.262 65.8437C441.886 66.2342 442.734 66.7065 443.097 66.8639C443.209 66.9124 443.221 66.8942 442.964 67.0698C442.413 67.4452 441.726 67.8145 440.884 68.1869C440.736 68.2535 440.612 68.3049 440.608 68.3049C440.602 68.3049 440.621 68.2293 440.645 68.1385C440.848 67.3846 440.963 66.6217 440.969 66.0102C440.972 65.7074 440.972 65.7074 440.999 65.6984C440.993 65.7014 440.996 65.7014 440.999 65.7014ZM440.578 65.8618C440.596 65.88 440.584 66.5581 440.56 66.7428C440.506 67.1848 440.421 67.5965 440.282 68.0598C440.248 68.1717 440.218 68.2656 440.212 68.2716C440.2 68.2867 439.785 67.8811 439.649 67.7237C439.413 67.4512 439.228 67.1787 439.092 66.9123C439.022 66.7761 438.913 66.5097 438.922 66.5006C438.971 66.4673 440.566 65.8497 440.578 65.8618ZM438.598 66.6399C438.601 66.6399 438.604 66.6399 438.607 66.6429C438.613 66.6489 438.635 66.6974 438.653 66.7519C438.75 67.0153 438.968 67.4028 439.155 67.651C439.361 67.9235 439.631 68.2141 439.855 68.4048C439.927 68.4654 439.994 68.5229 440.003 68.532C440.021 68.5502 440.027 68.5471 439.534 68.7348C438.962 68.9528 438.338 69.1708 437.623 69.4008C437.453 69.4558 437.282 69.5114 437.112 69.5673C437.085 69.5764 437.094 69.5613 437.172 69.4372C437.527 68.8832 438.065 67.7963 438.368 67.0274C438.42 66.8941 438.471 66.761 438.48 66.7307C438.492 66.6883 438.507 66.6732 438.547 66.6519C438.568 66.6459 438.589 66.6399 438.598 66.6399ZM437.993 66.8911C438.002 66.8972 437.848 67.2211 437.696 67.5178C437.402 68.09 437.082 68.6531 436.652 69.3373C436.579 69.4553 436.509 69.5644 436.5 69.5765C436.485 69.5977 436.479 69.5916 436.431 69.4978C436.328 69.2949 436.243 69.0345 436.198 68.7954C436.152 68.5592 436.161 68.1475 436.213 67.8932C436.252 67.7055 436.249 67.7086 436.34 67.6631C436.727 67.4664 437.981 66.879 437.993 66.8911ZM443.215 67.1031V67.2302C443.215 67.9053 443.142 68.8317 443.036 69.5069C443.018 69.6249 443.003 69.7217 443 69.7248C443 69.7248 442.912 69.7006 442.809 69.6703C442.355 69.528 441.862 69.3191 441.417 69.0739C441.123 68.9135 440.696 68.6501 440.708 68.6379C440.711 68.6349 440.839 68.5683 440.987 68.4896C441.58 68.1808 442.149 67.8478 442.643 67.5178C442.828 67.3937 443.106 67.1939 443.167 67.1394L443.215 67.1031ZM435.707 67.9991C435.719 67.9991 435.716 68.0234 435.698 68.1323C435.686 68.2111 435.671 68.3564 435.665 68.4563C435.641 68.8983 435.713 69.2253 435.931 69.6733C435.992 69.7974 436.04 69.9004 436.037 69.9034C436.016 69.9215 434.012 70.5089 433.382 70.6814C433.194 70.7329 433.031 70.7783 433.019 70.7813C432.998 70.7874 432.995 70.7844 433.004 70.7328C433.073 70.2879 433.412 69.7066 433.885 69.2161C434.199 68.8892 434.451 68.6985 434.881 68.4532C435.189 68.2777 435.665 68.0143 435.701 68.0022C435.701 67.9991 435.704 67.9991 435.707 67.9991ZM440.43 68.8438C440.433 68.8408 440.506 68.8802 440.593 68.9316C441.241 69.307 442.143 69.6552 442.912 69.8338L442.982 69.8489L442.885 69.9034C442.482 70.1274 441.159 70.6784 439.806 71.184C439.609 71.2566 439.416 71.3293 439.379 71.3444C439.343 71.3595 439.31 71.3686 439.31 71.3656C439.31 71.3626 439.364 71.2566 439.434 71.1264C439.812 70.418 440.194 69.5552 440.387 68.9558C440.412 68.8983 440.427 68.8468 440.43 68.8438ZM439.949 69.0012C439.952 69.0043 439.927 69.0678 439.897 69.1405C439.634 69.7793 439.289 70.4756 438.847 71.2567C438.735 71.4565 438.641 71.617 438.638 71.617C438.635 71.617 438.544 71.5624 438.435 71.4958C437.793 71.1023 437.224 70.6179 436.851 70.1486L436.797 70.082L437.072 70.0063C438.059 69.7369 438.898 69.4463 439.731 69.0891C439.849 69.0406 439.946 69.0012 439.949 69.0012ZM442.94 70.0457C442.94 70.0457 442.943 70.0487 442.94 70.0457C442.943 70.1153 442.788 70.739 442.661 71.19C442.555 71.5684 442.464 71.8652 442.298 72.3889C442.225 72.619 442.162 72.8097 442.159 72.8097C442.155 72.8097 442.137 72.8067 442.119 72.8006C441.22 72.6371 440.415 72.4101 439.658 72.1073C439.446 72.0225 439.143 71.8863 439.125 71.8712C439.119 71.8651 439.301 71.7804 439.531 71.6804C440.908 71.078 442.337 70.3938 442.828 70.1002C442.885 70.0638 442.93 70.0457 442.94 70.0457ZM436.034 70.2818C436.04 70.2879 435.656 70.8419 435.117 71.5957C434.929 71.8591 434.711 72.1679 434.629 72.2829C434.548 72.398 434.424 72.5796 434.354 72.6886L434.227 72.8854L434.09 72.7704C433.93 72.6371 433.652 72.3526 433.527 72.1951C433.267 71.8712 433.091 71.5291 433.022 71.2173C432.989 71.072 432.989 70.9993 433.019 70.9903C433.064 70.9782 433.872 70.7874 434.629 70.6118C435.05 70.515 435.538 70.3999 435.713 70.3575C435.889 70.3151 436.031 70.2818 436.034 70.2818ZM436.422 70.4302L436.518 70.5392C436.954 71.0266 437.399 71.3869 437.938 71.7017C438.035 71.7562 438.108 71.8046 438.102 71.8077C438.081 71.8228 436.231 72.4797 435.374 72.7764C434.893 72.9459 434.496 73.0821 434.493 73.0821C434.49 73.0821 434.463 73.064 434.433 73.0428L434.378 73.0034L434.466 72.8763C434.75 72.4646 435.108 72.0135 435.886 71.075L436.422 70.4302ZM438.837 72.1588C438.84 72.1558 438.974 72.2042 439.137 72.2648C439.531 72.4131 439.843 72.507 440.26 72.6129C440.775 72.7431 441.52 72.8703 441.959 72.9066C442.025 72.9126 442.062 72.9187 442.05 72.9278C442.028 72.9399 441.583 73.0883 441.256 73.1912C440.736 73.3546 439.146 73.8239 437.851 74.1963C437.611 74.2659 437.405 74.3234 437.393 74.3264C437.363 74.3325 437.263 74.3052 437.263 74.2931C437.263 74.2871 437.336 74.1933 437.424 74.0903C437.86 73.5696 438.293 72.9883 438.653 72.4374C438.753 72.2859 438.837 72.1618 438.837 72.1588ZM438.305 72.174C438.308 72.177 438.093 72.5221 437.717 73.1155C437.557 73.3667 437.378 73.6513 437.315 73.7512C437.254 73.8481 437.163 73.9995 437.112 74.0842L437.024 74.2386L436.979 74.2265C436.87 74.1962 436.104 73.9268 435.901 73.8451C435.65 73.7451 435.389 73.6241 435.195 73.5211C434.953 73.391 434.651 73.1972 434.675 73.1912C434.681 73.1881 435.096 73.0761 435.595 72.9399C436.921 72.5796 437.657 72.3707 438.138 72.2194C438.226 72.1921 438.302 72.1709 438.305 72.174ZM442.074 73.0579H442.077C442.089 73.0882 441.598 74.4506 441.42 74.8804C441.38 74.9773 441.365 75.0016 441.344 74.9985C441.293 74.9955 440.581 74.8956 440.148 74.832C439.395 74.717 438.129 74.4959 437.811 74.4233L437.739 74.4082L438.19 74.3052C439.158 74.0872 439.625 73.9692 440.097 73.8239C440.693 73.6422 441.284 73.4151 441.88 73.1366C441.974 73.0942 442.053 73.061 442.074 73.0579Z" fill="url(#paint1_linear_3827_4813)"/>
<path d="M439.825 55.1569C439.758 55.1479 438.683 55.5354 437.99 55.8169C437.055 56.1984 436.328 56.5617 435.88 56.8765C435.714 56.9946 435.505 57.2034 435.471 57.2852C435.459 57.3154 435.453 57.3518 435.453 57.3881L435.859 57.7726L436.825 58.0814L439.122 58.4931L441.75 58.9442L441.777 58.7172C441.768 58.7172 441.762 58.7141 441.753 58.7141L441.408 58.6596L441.338 58.5355C440.981 57.9058 440.588 57.1247 440.358 56.5979C440.179 56.1892 440.009 55.717 439.916 55.3779C439.864 55.1721 439.858 55.16 439.825 55.1569V55.1569H439.825V55.1569ZM439.776 55.3113H439.779C439.782 55.3143 439.794 55.3991 439.807 55.499C439.858 55.9229 439.952 56.3315 440.1 56.7735C440.212 57.1066 440.212 57.0884 440.082 57.049C439.773 56.9643 438.39 56.7251 437.388 56.5859C437.227 56.5647 437.091 56.5435 437.091 56.5405C437.079 56.5284 437.814 56.1439 438.138 55.9925C438.553 55.8018 439.691 55.3265 439.776 55.3113ZM436.858 56.6676L436.976 56.7069C437.618 56.9249 439.231 57.2337 440.121 57.3064C440.221 57.3155 440.306 57.3246 440.309 57.3246C440.312 57.3276 440.227 57.373 440.118 57.4244C439.688 57.6394 439.216 57.9028 438.889 58.1056C438.792 58.1661 438.705 58.2146 438.692 58.2146C438.68 58.2146 438.617 58.2025 438.55 58.1934L438.429 58.1752L438.126 57.8785C437.594 57.3609 437.176 56.9613 437.015 56.8099L436.858 56.6676ZM436.737 56.7614L437.164 57.2943C437.397 57.5879 437.633 57.8755 437.684 57.9391C437.736 58.0027 437.778 58.0542 437.775 58.0572C437.763 58.0663 437.158 57.9482 436.837 57.8755C436.507 57.7998 436.37 57.7635 436.168 57.7L436.001 57.6454V57.603C436.004 57.4002 436.261 57.0975 436.697 56.7887L436.737 56.7614ZM440.364 57.488C440.376 57.488 440.391 57.5153 440.427 57.597C440.53 57.824 440.851 58.4356 440.93 58.5536C440.954 58.593 440.996 58.5961 440.569 58.5264C439.543 58.3599 439.213 58.3054 439.213 58.2994C439.213 58.2964 439.243 58.2752 439.283 58.254C439.601 58.0784 439.922 57.8544 440.206 57.6152C440.276 57.5576 440.339 57.5032 440.351 57.4941C440.354 57.488 440.361 57.485 440.364 57.488Z" fill="url(#paint2_linear_3827_4813)"/>
<path d="M435.492 57.2427C435.492 57.2427 435.425 57.3487 435.489 57.5061C435.528 57.603 435.643 57.721 435.773 57.8421C435.773 57.8421 437.121 59.156 437.284 59.3437C438.029 60.2035 438.353 61.0512 438.383 62.2198C438.401 62.9705 438.259 63.6305 437.905 64.3965C437.275 65.7709 435.946 67.2876 433.896 68.9709L434.196 68.871C434.39 68.7256 434.653 68.5713 435.271 68.2322C436.697 67.4511 438.301 66.7336 440.269 65.9949C443.103 64.9292 447.762 63.6819 450.414 63.2763L450.689 63.2339L450.647 63.1673C450.405 62.7919 450.238 62.5588 450.039 62.3106C449.457 61.59 448.752 61.0058 447.889 60.5214C446.702 59.8584 445.167 59.3407 443.224 58.9562C442.858 58.8835 442.052 58.7443 441.398 58.6444C440.012 58.4295 439.116 58.2811 438.129 58.1116C437.775 58.051 437.245 57.9602 436.894 57.8846C436.712 57.8452 436.364 57.7634 436.091 57.6696C435.873 57.5848 435.559 57.5 435.492 57.2427ZM436.273 57.9996C436.276 57.9966 436.324 58.0147 436.388 58.0359C436.503 58.0752 436.651 58.1206 436.827 58.1691C436.96 58.2056 437.093 58.241 437.227 58.275C437.408 58.3204 437.56 58.3628 437.563 58.3628C437.584 58.384 437.89 59.3618 437.993 59.7372C438.032 59.8795 438.062 60.0006 438.059 60.0006C438.056 60.0037 438.023 59.9522 437.984 59.8826C437.629 59.2589 437.069 58.6262 436.421 58.1176C436.337 58.0571 436.273 58.0026 436.273 57.9996ZM437.763 58.4113C437.778 58.4113 437.844 58.4204 437.926 58.4385C438.441 58.5536 439.364 58.7291 439.954 58.8291C440.054 58.8442 440.133 58.8624 440.133 58.8684C440.133 58.8745 440.097 58.8956 440.051 58.9199C439.951 58.9713 439.549 59.2105 439.415 59.3013C439.079 59.5253 438.777 59.7675 438.559 59.9855C438.471 60.0733 438.395 60.146 438.395 60.146C438.395 60.146 438.377 60.0945 438.362 60.0309C438.253 59.6101 438.026 58.9864 437.82 58.5475C437.787 58.4779 437.759 58.4143 437.759 58.4083C437.759 58.4143 437.759 58.4113 437.763 58.4113ZM440.384 58.9108C440.402 58.9168 440.433 59.0198 440.493 59.2468C440.605 59.6858 440.657 60.1762 440.639 60.6334C440.632 60.7605 440.626 60.8786 440.62 60.8938L440.611 60.924L440.454 60.8726C440.13 60.7696 439.603 60.6152 439.152 60.4881C438.895 60.4184 438.686 60.3549 438.686 60.3488C438.686 60.3306 439.061 59.9552 439.222 59.813C439.527 59.5435 440.357 58.9017 440.384 58.9108ZM440.593 58.941C440.602 58.932 441.846 59.1469 442.413 59.2559C442.833 59.3376 443.445 59.4648 443.481 59.48C443.499 59.486 443.436 59.5223 443.233 59.6131C442.434 59.9734 441.84 60.2973 441.25 60.6909C441.096 60.7938 440.965 60.8786 440.962 60.8786C440.959 60.8786 440.956 60.7908 440.956 60.6848C440.956 60.1097 440.841 59.5284 440.629 59.038C440.608 58.9895 440.59 58.9441 440.593 58.941ZM443.811 59.5768C443.82 59.5859 443.781 59.8311 443.745 59.9764C443.636 60.4275 443.342 61.0966 442.982 61.7263C442.918 61.8383 442.861 61.9291 442.855 61.9321C442.849 61.9352 442.767 61.8897 442.673 61.8352C442.322 61.6294 441.922 61.4356 441.486 61.254C441.365 61.2025 441.259 61.1601 441.256 61.1541C441.235 61.1359 442.21 60.4911 442.724 60.1823C443.133 59.9341 443.799 59.5647 443.811 59.5768ZM444.041 59.6131C444.069 59.6131 444.62 59.7645 444.907 59.8493C445.619 60.0612 446.436 60.3609 446.969 60.6031L447.19 60.703L447.035 60.7393C445.734 61.039 444.62 61.3842 443.545 61.8201C443.457 61.8565 443.378 61.8867 443.372 61.8867C443.366 61.8867 443.396 61.8171 443.436 61.7323C443.76 61.0451 443.969 60.3276 444.02 59.7161C444.023 59.6585 444.032 59.6131 444.041 59.6131ZM438.556 60.8726C438.565 60.8635 438.986 60.9634 439.213 61.0269C439.558 61.1238 440.29 61.369 440.29 61.3872C440.29 61.3902 440.209 61.4598 440.112 61.5446C439.715 61.8746 439.334 62.2227 438.877 62.6647C438.74 62.795 438.625 62.9009 438.619 62.9009C438.613 62.9009 438.61 62.8827 438.613 62.8585C438.683 62.3499 438.668 61.696 438.571 61.033C438.562 60.9482 438.553 60.8756 438.556 60.8726ZM447.399 60.8817C447.405 60.8877 447.205 61.2025 447.078 61.3811C446.896 61.6415 446.63 61.9867 446.027 62.7435C445.709 63.1431 445.352 63.5942 445.234 63.7456C445.113 63.8969 445.013 64.024 445.01 64.024C445.007 64.024 444.968 63.9696 444.925 63.903C444.586 63.3944 444.181 62.9493 443.699 62.5497C443.608 62.474 443.509 62.3923 443.475 62.3681C443.442 62.3438 443.415 62.3196 443.415 62.3166C443.415 62.3076 443.929 62.0865 444.32 61.9291C445.004 61.6506 445.936 61.3176 446.636 61.1026C447.002 60.9876 447.393 60.8756 447.399 60.8817ZM447.632 60.9422C447.644 60.9392 447.717 60.9755 447.804 61.0269C448.54 61.4477 449.261 61.9896 449.83 62.5467C449.99 62.7041 450.387 63.1159 450.381 63.1189C450.381 63.1189 450.241 63.131 450.078 63.1431C448.803 63.24 447.172 63.5094 445.603 63.8878C445.498 63.912 445.404 63.9332 445.398 63.9332C445.392 63.9332 445.51 63.8151 445.658 63.6729C446.578 62.7859 446.999 62.2258 447.496 61.2267C447.565 61.0784 447.626 60.9513 447.632 60.9422C447.629 60.9422 447.629 60.9422 447.632 60.9422ZM440.89 61.6325C440.932 61.6415 441.326 61.8262 441.622 61.9745C441.895 62.1107 442.304 62.3287 442.325 62.3469C442.328 62.3499 442.182 62.4256 442.004 62.5134C441.435 62.798 440.947 63.0674 440.439 63.3762C440.293 63.464 440.172 63.5367 440.169 63.5367C440.157 63.5367 440.16 63.5245 440.242 63.3762C440.514 62.8797 440.732 62.2863 440.857 61.7081C440.869 61.6627 440.881 61.6325 440.89 61.6325ZM440.496 61.7051C440.505 61.7142 440.402 62.0865 440.339 62.2894C440.215 62.6738 440.006 63.1552 439.803 63.5185C439.754 63.6032 439.682 63.7273 439.643 63.797L439.567 63.9181L439.397 63.7546C439.201 63.5639 439.04 63.4458 438.834 63.3398C438.752 63.2975 438.689 63.2611 438.689 63.2551C438.689 63.2309 439.207 62.7616 439.603 62.4226C439.888 62.1773 440.487 61.696 440.496 61.7051ZM442.903 62.6951L443.051 62.7919C443.39 63.0129 443.79 63.3066 444.096 63.5639C444.268 63.7061 444.601 64.0059 444.668 64.0786L444.704 64.1179L444.459 64.1876C443.073 64.572 442.001 64.9141 440.751 65.3743C440.611 65.4257 440.493 65.4681 440.484 65.4681C440.466 65.4681 440.451 65.4832 440.763 65.1956C441.562 64.46 442.27 63.6486 442.797 62.8585L442.903 62.6951ZM442.27 62.8525C442.276 62.8585 441.862 63.4428 441.613 63.7728C441.317 64.1663 440.79 64.8263 440.427 65.2562C440.275 65.4348 440.145 65.5831 440.139 65.5862C440.13 65.5892 440.127 65.5438 440.127 65.4742C440.127 65.1078 440.033 64.7173 439.87 64.3843C439.8 64.245 439.788 64.2117 439.803 64.1966C439.861 64.1451 440.741 63.6426 441.298 63.3429C441.674 63.1431 442.261 62.8464 442.27 62.8525ZM438.444 63.791C438.453 63.791 438.522 63.8273 438.601 63.8697C438.795 63.9756 438.967 64.0937 439.122 64.2209C439.128 64.2269 439.049 64.2905 438.946 64.3661C438.659 64.572 438.223 64.902 437.968 65.1049C437.702 65.3168 437.693 65.3228 437.723 65.2774C437.923 64.9716 438.023 64.7991 438.129 64.5781C438.223 64.3813 438.317 64.1482 438.383 63.9454C438.407 63.8576 438.438 63.791 438.444 63.791ZM439.464 64.5902C439.479 64.5872 439.497 64.6144 439.579 64.7355C439.751 64.9928 439.885 65.338 439.918 65.6165L439.924 65.6771L439.509 65.8375C438.768 66.1251 438.083 66.4097 437.62 66.6216C437.49 66.6821 437.263 66.7911 437.115 66.8638C436.966 66.9394 436.845 66.997 436.845 66.994C436.845 66.9909 436.939 66.9213 437.054 66.8365C437.959 66.1796 438.743 65.459 439.331 64.7385C439.394 64.6628 439.452 64.5932 439.458 64.5902L439.464 64.5902ZM438.995 64.7052C439.007 64.7173 438.662 65.1079 438.426 65.347C437.841 65.9434 437.263 66.4097 436.545 66.8638C436.455 66.9213 436.373 66.9728 436.364 66.9788C436.343 66.9909 436.37 66.9607 436.685 66.6185C436.885 66.4036 437.036 66.222 437.208 65.998C437.324 65.8496 437.345 65.8284 437.511 65.7103C437.956 65.3894 438.983 64.6931 438.995 64.7052Z" fill="url(#paint3_radial_3827_4813)"/>
</g>
</g>
<g filter="url(#filter3_ddii_3827_4813)">
<rect x="527.661" y="173.487" width="43.3236" height="43.3236" rx="8" transform="rotate(90 527.661 173.487)" fill="#2F312E" shape-rendering="crispEdges"/>
<g clip-path="url(#clip7_3827_4813)">
<g clip-path="url(#clip8_3827_4813)">
<g clip-path="url(#clip9_3827_4813)">
<path d="M510.312 202.618C510.312 204.024 511.437 205.149 512.843 205.149H515.968V202.024C515.968 200.618 514.843 199.493 513.437 199.493H512.874C510.655 199.493 508.843 197.68 508.843 195.461V194.836C508.843 193.43 507.718 192.305 506.312 192.305H505.687C503.468 192.305 501.655 190.493 501.655 188.274V187.68C501.687 186.274 500.53 185.149 499.124 185.149H495.999V188.274C495.999 189.68 497.124 190.805 498.53 190.805H499.124C501.343 190.805 503.155 192.618 503.155 194.836V195.43C503.155 196.836 504.28 197.961 505.687 197.961H506.312C508.53 197.961 510.343 199.774 510.343 201.993V202.618H510.312Z" fill="url(#paint4_linear_3827_4813)"/>
<path d="M515.999 194.836C515.999 193.43 514.874 192.305 513.468 192.305H512.874C510.655 192.305 508.843 190.493 508.843 188.274V187.68C508.812 186.274 507.687 185.149 506.28 185.149H503.155V188.305C503.187 189.68 504.312 190.805 505.687 190.805H506.312C508.53 190.805 510.343 192.618 510.343 194.836V195.43C510.343 196.836 511.468 197.961 512.874 197.961H515.999V194.836Z" fill="url(#paint5_linear_3827_4813)"/>
<path d="M515.999 187.68C515.999 186.336 514.905 185.211 513.562 185.149H510.28V188.305C510.312 189.68 511.437 190.805 512.812 190.805H515.999V187.68Z" fill="url(#paint6_linear_3827_4813)"/>
<path d="M495.999 195.461C495.999 196.868 497.124 197.993 498.53 197.993H499.124C501.343 197.993 503.155 199.805 503.155 202.024V202.618C503.155 204.024 504.28 205.149 505.687 205.149H508.812V201.993C508.78 200.618 507.655 199.493 506.28 199.493H505.687C503.468 199.493 501.655 197.68 501.655 195.461V194.868C501.655 193.461 500.53 192.336 499.124 192.336H495.999V195.461Z" fill="url(#paint7_linear_3827_4813)"/>
<path d="M495.999 202.618C495.999 203.961 497.093 205.086 498.437 205.149H501.718V201.993C501.687 200.618 500.562 199.493 499.187 199.493H495.999V202.618Z" fill="url(#paint8_linear_3827_4813)"/>
</g>
</g>
</g>
</g>
<path d="M72.7266 65.2195H202.172V108.744H244.733" stroke="url(#paint9_linear_3827_4813)" stroke-width="1.35386" stroke-linecap="round" stroke-linejoin="round"/>
<path d="M244.341 151.32H202.617V173.606H115.964" stroke="url(#paint10_linear_3827_4813)" stroke-width="1.35386" stroke-linecap="round" stroke-linejoin="round"/>
<path d="M331.677 108.584H375.117V65.4907H418.834" stroke="url(#paint11_linear_3827_4813)" stroke-width="1.35386" stroke-linecap="round" stroke-linejoin="round"/>
<path d="M332.024 152.371H375.539V195.464H484.239" stroke="url(#paint12_linear_3827_4813)" stroke-width="1.35386" stroke-linecap="round" stroke-linejoin="round"/>
<path d="M333.206 130.218H483.897V108.832H527.165" stroke="url(#paint13_linear_3827_4813)" stroke-width="1.35386" stroke-linecap="round" stroke-linejoin="round"/>
<path d="M159.435 109.052H180.868V130.203H245.165" stroke="url(#paint14_linear_3827_4813)" stroke-width="1.35386" stroke-linecap="round" stroke-linejoin="round"/>
<g filter="url(#filter4_ddii_3827_4813)">
<rect x="116.108" y="86.5125" width="43.3236" height="43.3236" rx="8" fill="#2F312E" shape-rendering="crispEdges"/>
<g clip-path="url(#clip10_3827_4813)">
<g clip-path="url(#clip11_3827_4813)">
<g clip-path="url(#clip12_3827_4813)">
<path d="M132.253 115.925L128.253 108.997C128.1 108.731 128.019 108.429 128.019 108.121C128.019 107.813 128.1 107.511 128.253 107.245L132.253 100.317C132.407 100.051 132.628 99.8299 132.894 99.6761C133.161 99.5223 133.463 99.4414 133.77 99.4414H141.769C142.077 99.4414 142.379 99.5224 142.645 99.6762C142.912 99.8299 143.133 100.051 143.287 100.317L147.286 107.245C147.44 107.511 147.521 107.813 147.521 108.121C147.521 108.429 147.44 108.731 147.286 108.997L143.287 115.925C143.133 116.191 142.912 116.412 142.645 116.566C142.379 116.72 142.077 116.801 141.769 116.801H133.77C133.463 116.801 133.161 116.72 132.894 116.566C132.628 116.412 132.407 116.191 132.253 115.924V115.925Z" fill="url(#paint15_linear_3827_4813)"/>
<path opacity="0.07" d="M146.185 111.547L140.303 105.664L137.77 104.987L135.495 105.832L134.616 108.121L135.323 110.67L141.56 116.908L142.884 116.849L146.185 111.547Z" fill="black"/>
<path d="M137.77 104.587C135.818 104.587 134.236 106.169 134.236 108.121C134.236 110.073 135.818 111.655 137.77 111.655C139.722 111.655 141.304 110.073 141.304 108.121C141.304 106.169 139.722 104.587 137.77 104.587ZM137.77 110.802C136.289 110.802 135.088 109.602 135.088 108.121C135.088 106.64 136.289 105.439 137.77 105.439C139.251 105.439 140.451 106.64 140.451 108.121C140.451 109.602 139.251 110.802 137.77 110.802" fill="white"/>
<path d="M136.092 107.985V109.083C136.255 109.362 136.484 109.597 136.76 109.765V107.985H136.092ZM137.416 107.059V110.016C137.529 110.037 137.645 110.05 137.764 110.05C137.873 110.05 137.979 110.038 138.083 110.021V107.059H137.416ZM138.801 108.441V109.746C139.081 109.568 139.31 109.321 139.468 109.03V108.441L138.801 108.441ZM140.313 110.298L139.947 110.664C139.916 110.695 139.898 110.738 139.898 110.781C139.898 110.825 139.916 110.868 139.947 110.899L141.336 112.287C141.367 112.318 141.409 112.335 141.453 112.335C141.497 112.335 141.539 112.318 141.57 112.287L141.936 111.921C141.967 111.89 141.984 111.848 141.984 111.804C141.984 111.76 141.967 111.718 141.936 111.687L140.547 110.298C140.516 110.267 140.474 110.25 140.43 110.25C140.386 110.25 140.344 110.267 140.313 110.298Z" fill="white"/>
</g>
</g>
</g>
</g>
<g filter="url(#filter5_ddii_3827_4813)">
<rect x="527.17" y="86.5125" width="43.3236" height="43.3236" rx="8" fill="#2F312E" shape-rendering="crispEdges"/>
<g clip-path="url(#clip13_3827_4813)">
<g clip-path="url(#clip14_3827_4813)">
<path d="M558.832 108.656C558.832 106.982 557.792 105.512 556.228 104.945C556.296 104.591 556.33 104.232 556.33 103.872C556.33 100.747 553.794 98.2166 550.683 98.2166C548.858 98.2166 547.166 99.0872 546.101 100.558C545.576 100.151 544.931 99.9315 544.267 99.9328C542.611 99.9328 541.267 101.277 541.267 102.933C541.267 103.297 541.335 103.652 541.453 103.981C540.688 104.258 540.026 104.764 539.557 105.429C539.089 106.094 538.835 106.888 538.832 107.702C538.831 108.515 539.081 109.309 539.548 109.975C540.016 110.641 540.678 111.146 541.444 111.421C541.376 111.775 541.342 112.134 541.343 112.495C541.344 113.99 541.939 115.423 542.996 116.48C544.053 117.537 545.486 118.131 546.981 118.133C548.806 118.133 550.497 117.253 551.554 115.783C552.079 116.197 552.72 116.425 553.388 116.425C555.045 116.425 556.388 115.082 556.388 113.425C556.388 113.062 556.321 112.707 556.202 112.377C556.968 112.101 557.632 111.596 558.102 110.93C558.572 110.265 558.827 109.471 558.832 108.657" fill="white"/>
<path d="M546.694 106.796L551.072 108.791L555.485 104.92C555.55 104.6 555.581 104.274 555.578 103.948C555.576 102.639 555.055 101.384 554.13 100.459C553.205 99.5335 551.95 99.0128 550.641 99.011C549.84 99.0117 549.051 99.2075 548.343 99.5816C547.634 99.9557 547.028 100.497 546.575 101.158L545.84 104.97L546.694 106.796Z" fill="#FED10A"/>
<path d="M542.163 111.429C542.098 111.754 542.066 112.085 542.07 112.417C542.07 115.149 544.293 117.362 547.023 117.362C547.83 117.362 548.624 117.165 549.337 116.788C550.05 116.411 550.661 115.865 551.115 115.199L551.841 111.403L550.87 109.544L546.474 107.541L542.163 111.429Z" fill="#24BBB1"/>
<path d="M542.137 103.855L545.137 104.565L545.796 101.159C545.39 100.847 544.884 100.678 544.359 100.678C543.732 100.679 543.131 100.928 542.687 101.372C542.244 101.815 541.994 102.416 541.993 103.043C541.993 103.322 542.043 103.601 542.137 103.854" fill="#EF5098"/>
<path d="M541.875 104.573C540.54 105.013 539.602 106.298 539.602 107.709C539.602 109.088 540.455 110.313 541.732 110.803L545.941 106.999L545.172 105.351L541.875 104.573Z" fill="#17A8E0"/>
<path d="M551.876 115.2C552.286 115.514 552.788 115.686 553.305 115.69C553.932 115.689 554.534 115.44 554.978 114.996C555.422 114.552 555.671 113.95 555.672 113.323C555.672 113.043 555.623 112.765 555.528 112.503L552.535 111.801L551.876 115.2Z" fill="#93C83E"/>
<path d="M552.484 111.014L555.781 111.783C556.441 111.562 557.015 111.14 557.423 110.576C557.831 110.012 558.051 109.335 558.055 108.639C558.054 107.969 557.85 107.316 557.469 106.765C557.089 106.214 556.55 105.791 555.925 105.553L551.613 109.332L552.484 111.014Z" fill="#0779A1"/>
</g>
</g>
</g>
<g filter="url(#filter6_ddii_3827_4813)">
<rect x="245.812" y="86.8181" width="86.6471" height="86.6471" rx="16" fill="#2F312E"/>
<rect x="246.312" y="87.3181" width="85.6471" height="85.6471" rx="15.5" stroke="#2F312E"/>
<g clip-path="url(#clip15_3827_4813)">
<path d="M295.696 132.184C294.994 132.184 294.3 132.335 293.661 132.625C293.022 132.915 292.453 133.338 291.99 133.866L289.668 132.222C289.915 131.543 290.057 130.815 290.057 130.052C290.055 129.324 289.928 128.602 289.681 127.917L291.999 126.291C292.461 126.816 293.03 127.238 293.667 127.527C294.305 127.816 294.997 127.965 295.697 127.966C297.007 127.963 298.263 127.442 299.189 126.515C300.115 125.589 300.637 124.333 300.639 123.023C300.637 121.713 300.115 120.458 299.189 119.531C298.263 118.605 297.007 118.084 295.697 118.081C294.387 118.084 293.131 118.605 292.205 119.531C291.279 120.458 290.757 121.713 290.755 123.023C290.755 123.511 290.828 123.971 290.961 124.427L288.643 126.055C287.674 124.854 286.279 124.014 284.691 123.757L284.691 120.961C285.799 120.726 286.794 120.117 287.508 119.237C288.223 118.357 288.613 117.259 288.615 116.125C288.612 114.816 288.089 113.561 287.163 112.636C286.236 111.711 284.981 111.19 283.672 111.188C282.362 111.19 281.106 111.712 280.18 112.638C279.254 113.564 278.732 114.82 278.73 116.13C278.73 118.476 280.373 120.439 282.568 120.943L282.568 123.786C279.573 124.298 277.289 126.911 277.289 130.053C277.289 133.21 279.596 135.834 282.612 136.341L282.612 139.33C280.396 139.804 278.731 141.794 278.731 144.154C278.733 145.463 279.255 146.719 280.181 147.645C281.107 148.571 282.362 149.093 283.672 149.096C284.982 149.093 286.237 148.572 287.164 147.646C288.09 146.719 288.612 145.464 288.614 144.154C288.614 141.793 286.95 139.818 284.733 139.33L284.733 136.341C286.291 136.08 287.659 135.256 288.619 134.082L290.956 135.737C290.822 136.188 290.754 136.656 290.754 137.126C290.756 138.436 291.278 139.692 292.204 140.618C293.13 141.545 294.386 142.066 295.696 142.069C297.006 142.066 298.261 141.545 299.188 140.618C300.114 139.692 300.636 138.436 300.638 137.126C300.636 135.816 300.114 134.561 299.188 133.634C298.261 132.708 297.006 132.187 295.696 132.184ZM295.696 120.629C297.017 120.629 298.091 121.705 298.091 123.026C298.091 124.347 297.017 125.421 295.696 125.421C294.375 125.421 293.301 124.347 293.301 123.026C293.301 121.705 294.375 120.629 295.696 120.629ZM281.277 116.13C281.277 114.809 282.351 113.735 283.673 113.735C284.995 113.735 286.068 114.809 286.068 116.13C286.068 117.451 284.994 118.525 283.673 118.525C282.352 118.525 281.277 117.451 281.277 116.13ZM286.067 144.156C286.067 145.477 284.993 146.551 283.672 146.551C282.351 146.551 281.275 145.477 281.275 144.156C281.275 142.835 282.35 141.761 283.672 141.761C284.994 141.761 286.067 142.835 286.067 144.156ZM283.671 133.397C281.827 133.397 280.33 131.899 280.33 130.057C280.33 128.214 281.829 126.716 283.671 126.716C285.513 126.716 287.011 128.214 287.011 130.057C287.011 131.899 285.513 133.397 283.671 133.397ZM295.695 139.524C294.374 139.524 293.299 138.448 293.299 137.128C293.299 135.807 294.374 134.732 295.695 134.732C297.016 134.732 298.09 135.807 298.09 137.128C298.09 138.448 297.016 139.524 295.695 139.524Z" fill="#ECEEEC"/>
</g>
</g>
</g>
<defs>
<filter id="filter0_ddii_3827_4813" x="60.7847" y="144.826" width="67.3237" height="67.3235" filterUnits="userSpaceOnUse" color-interpolation-filters="sRGB">
<feFlood flood-opacity="0" result="BackgroundImageFix"/>
<feColorMatrix in="SourceAlpha" type="matrix" values="0 0 0 0 0 0 0 0 0 0 0 0 0 0 0 0 0 0 127 0" result="hardAlpha"/>
<feOffset dy="1"/>
<feGaussianBlur stdDeviation="1.5"/>
<feComposite in2="hardAlpha" operator="out"/>
<feColorMatrix type="matrix" values="0 0 0 0 0 0 0 0 0 0 0 0 0 0 0 0 0 0 0.5 0"/>
<feBlend mode="normal" in2="BackgroundImageFix" result="effect1_dropShadow_3827_4813"/>
<feColorMatrix in="SourceAlpha" type="matrix" values="0 0 0 0 0 0 0 0 0 0 0 0 0 0 0 0 0 0 127 0" result="hardAlpha"/>
<feOffset dy="5"/>
<feGaussianBlur stdDeviation="6"/>
<feComposite in2="hardAlpha" operator="out"/>
<feColorMatrix type="matrix" values="0 0 0 0 0 0 0 0 0 0 0 0 0 0 0 0 0 0 0.35 0"/>
<feBlend mode="normal" in2="effect1_dropShadow_3827_4813" result="effect2_dropShadow_3827_4813"/>
<feBlend mode="normal" in="SourceGraphic" in2="effect2_dropShadow_3827_4813" result="shape"/>
<feColorMatrix in="SourceAlpha" type="matrix" values="0 0 0 0 0 0 0 0 0 0 0 0 0 0 0 0 0 0 127 0" result="hardAlpha"/>
<feOffset/>
<feGaussianBlur stdDeviation="0.25"/>
<feComposite in2="hardAlpha" operator="arithmetic" k2="-1" k3="1"/>
<feColorMatrix type="matrix" values="0 0 0 0 1 0 0 0 0 1 0 0 0 0 1 0 0 0 0.3 0"/>
<feBlend mode="normal" in2="shape" result="effect3_innerShadow_3827_4813"/>
<feColorMatrix in="SourceAlpha" type="matrix" values="0 0 0 0 0 0 0 0 0 0 0 0 0 0 0 0 0 0 127 0" result="hardAlpha"/>
<feOffset dy="0.5"/>
<feComposite in2="hardAlpha" operator="arithmetic" k2="-1" k3="1"/>
<feColorMatrix type="matrix" values="0 0 0 0 1 0 0 0 0 1 0 0 0 0 1 0 0 0 0.08 0"/>
<feBlend mode="normal" in2="effect3_innerShadow_3827_4813" result="effect4_innerShadow_3827_4813"/>
</filter>
<filter id="filter1_ddii_3827_4813" x="17.5063" y="36.1892" width="67.3237" height="67.3235" filterUnits="userSpaceOnUse" color-interpolation-filters="sRGB">
<feFlood flood-opacity="0" result="BackgroundImageFix"/>
<feColorMatrix in="SourceAlpha" type="matrix" values="0 0 0 0 0 0 0 0 0 0 0 0 0 0 0 0 0 0 127 0" result="hardAlpha"/>
<feOffset dy="1"/>
<feGaussianBlur stdDeviation="1.5"/>
<feComposite in2="hardAlpha" operator="out"/>
<feColorMatrix type="matrix" values="0 0 0 0 0 0 0 0 0 0 0 0 0 0 0 0 0 0 0.5 0"/>
<feBlend mode="normal" in2="BackgroundImageFix" result="effect1_dropShadow_3827_4813"/>
<feColorMatrix in="SourceAlpha" type="matrix" values="0 0 0 0 0 0 0 0 0 0 0 0 0 0 0 0 0 0 127 0" result="hardAlpha"/>
<feOffset dy="5"/>
<feGaussianBlur stdDeviation="6"/>
<feComposite in2="hardAlpha" operator="out"/>
<feColorMatrix type="matrix" values="0 0 0 0 0 0 0 0 0 0 0 0 0 0 0 0 0 0 0.35 0"/>
<feBlend mode="normal" in2="effect1_dropShadow_3827_4813" result="effect2_dropShadow_3827_4813"/>
<feBlend mode="normal" in="SourceGraphic" in2="effect2_dropShadow_3827_4813" result="shape"/>
<feColorMatrix in="SourceAlpha" type="matrix" values="0 0 0 0 0 0 0 0 0 0 0 0 0 0 0 0 0 0 127 0" result="hardAlpha"/>
<feOffset/>
<feGaussianBlur stdDeviation="0.25"/>
<feComposite in2="hardAlpha" operator="arithmetic" k2="-1" k3="1"/>
<feColorMatrix type="matrix" values="0 0 0 0 1 0 0 0 0 1 0 0 0 0 1 0 0 0 0.3 0"/>
<feBlend mode="normal" in2="shape" result="effect3_innerShadow_3827_4813"/>
<feColorMatrix in="SourceAlpha" type="matrix" values="0 0 0 0 0 0 0 0 0 0 0 0 0 0 0 0 0 0 127 0" result="hardAlpha"/>
<feOffset dy="0.5"/>
<feComposite in2="hardAlpha" operator="arithmetic" k2="-1" k3="1"/>
<feColorMatrix type="matrix" values="0 0 0 0 1 0 0 0 0 1 0 0 0 0 1 0 0 0 0.08 0"/>
<feBlend mode="normal" in2="effect3_innerShadow_3827_4813" result="effect4_innerShadow_3827_4813"/>
</filter>
<filter id="filter2_ddii_3827_4813" x="407.218" y="36.4949" width="67.3232" height="67.3235" filterUnits="userSpaceOnUse" color-interpolation-filters="sRGB">
<feFlood flood-opacity="0" result="BackgroundImageFix"/>
<feColorMatrix in="SourceAlpha" type="matrix" values="0 0 0 0 0 0 0 0 0 0 0 0 0 0 0 0 0 0 127 0" result="hardAlpha"/>
<feOffset dy="1"/>
<feGaussianBlur stdDeviation="1.5"/>
<feComposite in2="hardAlpha" operator="out"/>
<feColorMatrix type="matrix" values="0 0 0 0 0 0 0 0 0 0 0 0 0 0 0 0 0 0 0.5 0"/>
<feBlend mode="normal" in2="BackgroundImageFix" result="effect1_dropShadow_3827_4813"/>
<feColorMatrix in="SourceAlpha" type="matrix" values="0 0 0 0 0 0 0 0 0 0 0 0 0 0 0 0 0 0 127 0" result="hardAlpha"/>
<feOffset dy="5"/>
<feGaussianBlur stdDeviation="6"/>
<feComposite in2="hardAlpha" operator="out"/>
<feColorMatrix type="matrix" values="0 0 0 0 0 0 0 0 0 0 0 0 0 0 0 0 0 0 0.35 0"/>
<feBlend mode="normal" in2="effect1_dropShadow_3827_4813" result="effect2_dropShadow_3827_4813"/>
<feBlend mode="normal" in="SourceGraphic" in2="effect2_dropShadow_3827_4813" result="shape"/>
<feColorMatrix in="SourceAlpha" type="matrix" values="0 0 0 0 0 0 0 0 0 0 0 0 0 0 0 0 0 0 127 0" result="hardAlpha"/>
<feOffset/>
<feGaussianBlur stdDeviation="0.25"/>
<feComposite in2="hardAlpha" operator="arithmetic" k2="-1" k3="1"/>
<feColorMatrix type="matrix" values="0 0 0 0 1 0 0 0 0 1 0 0 0 0 1 0 0 0 0.3 0"/>
<feBlend mode="normal" in2="shape" result="effect3_innerShadow_3827_4813"/>
<feColorMatrix in="SourceAlpha" type="matrix" values="0 0 0 0 0 0 0 0 0 0 0 0 0 0 0 0 0 0 127 0" result="hardAlpha"/>
<feOffset dy="0.5"/>
<feComposite in2="hardAlpha" operator="arithmetic" k2="-1" k3="1"/>
<feColorMatrix type="matrix" values="0 0 0 0 1 0 0 0 0 1 0 0 0 0 1 0 0 0 0.08 0"/>
<feBlend mode="normal" in2="effect3_innerShadow_3827_4813" result="effect4_innerShadow_3827_4813"/>
</filter>
<filter id="filter3_ddii_3827_4813" x="472.338" y="166.487" width="67.3232" height="67.3235" filterUnits="userSpaceOnUse" color-interpolation-filters="sRGB">
<feFlood flood-opacity="0" result="BackgroundImageFix"/>
<feColorMatrix in="SourceAlpha" type="matrix" values="0 0 0 0 0 0 0 0 0 0 0 0 0 0 0 0 0 0 127 0" result="hardAlpha"/>
<feOffset dy="1"/>
<feGaussianBlur stdDeviation="1.5"/>
<feComposite in2="hardAlpha" operator="out"/>
<feColorMatrix type="matrix" values="0 0 0 0 0 0 0 0 0 0 0 0 0 0 0 0 0 0 0.5 0"/>
<feBlend mode="normal" in2="BackgroundImageFix" result="effect1_dropShadow_3827_4813"/>
<feColorMatrix in="SourceAlpha" type="matrix" values="0 0 0 0 0 0 0 0 0 0 0 0 0 0 0 0 0 0 127 0" result="hardAlpha"/>
<feOffset dy="5"/>
<feGaussianBlur stdDeviation="6"/>
<feComposite in2="hardAlpha" operator="out"/>
<feColorMatrix type="matrix" values="0 0 0 0 0 0 0 0 0 0 0 0 0 0 0 0 0 0 0.35 0"/>
<feBlend mode="normal" in2="effect1_dropShadow_3827_4813" result="effect2_dropShadow_3827_4813"/>
<feBlend mode="normal" in="SourceGraphic" in2="effect2_dropShadow_3827_4813" result="shape"/>
<feColorMatrix in="SourceAlpha" type="matrix" values="0 0 0 0 0 0 0 0 0 0 0 0 0 0 0 0 0 0 127 0" result="hardAlpha"/>
<feOffset/>
<feGaussianBlur stdDeviation="0.25"/>
<feComposite in2="hardAlpha" operator="arithmetic" k2="-1" k3="1"/>
<feColorMatrix type="matrix" values="0 0 0 0 1 0 0 0 0 1 0 0 0 0 1 0 0 0 0.3 0"/>
<feBlend mode="normal" in2="shape" result="effect3_innerShadow_3827_4813"/>
<feColorMatrix in="SourceAlpha" type="matrix" values="0 0 0 0 0 0 0 0 0 0 0 0 0 0 0 0 0 0 127 0" result="hardAlpha"/>
<feOffset dy="0.5"/>
<feComposite in2="hardAlpha" operator="arithmetic" k2="-1" k3="1"/>
<feColorMatrix type="matrix" values="0 0 0 0 1 0 0 0 0 1 0 0 0 0 1 0 0 0 0.08 0"/>
<feBlend mode="normal" in2="effect3_innerShadow_3827_4813" result="effect4_innerShadow_3827_4813"/>
</filter>
<filter id="filter4_ddii_3827_4813" x="104.108" y="79.5125" width="67.3237" height="67.3235" filterUnits="userSpaceOnUse" color-interpolation-filters="sRGB">
<feFlood flood-opacity="0" result="BackgroundImageFix"/>
<feColorMatrix in="SourceAlpha" type="matrix" values="0 0 0 0 0 0 0 0 0 0 0 0 0 0 0 0 0 0 127 0" result="hardAlpha"/>
<feOffset dy="1"/>
<feGaussianBlur stdDeviation="1.5"/>
<feComposite in2="hardAlpha" operator="out"/>
<feColorMatrix type="matrix" values="0 0 0 0 0 0 0 0 0 0 0 0 0 0 0 0 0 0 0.5 0"/>
<feBlend mode="normal" in2="BackgroundImageFix" result="effect1_dropShadow_3827_4813"/>
<feColorMatrix in="SourceAlpha" type="matrix" values="0 0 0 0 0 0 0 0 0 0 0 0 0 0 0 0 0 0 127 0" result="hardAlpha"/>
<feOffset dy="5"/>
<feGaussianBlur stdDeviation="6"/>
<feComposite in2="hardAlpha" operator="out"/>
<feColorMatrix type="matrix" values="0 0 0 0 0 0 0 0 0 0 0 0 0 0 0 0 0 0 0.35 0"/>
<feBlend mode="normal" in2="effect1_dropShadow_3827_4813" result="effect2_dropShadow_3827_4813"/>
<feBlend mode="normal" in="SourceGraphic" in2="effect2_dropShadow_3827_4813" result="shape"/>
<feColorMatrix in="SourceAlpha" type="matrix" values="0 0 0 0 0 0 0 0 0 0 0 0 0 0 0 0 0 0 127 0" result="hardAlpha"/>
<feOffset/>
<feGaussianBlur stdDeviation="0.25"/>
<feComposite in2="hardAlpha" operator="arithmetic" k2="-1" k3="1"/>
<feColorMatrix type="matrix" values="0 0 0 0 1 0 0 0 0 1 0 0 0 0 1 0 0 0 0.3 0"/>
<feBlend mode="normal" in2="shape" result="effect3_innerShadow_3827_4813"/>
<feColorMatrix in="SourceAlpha" type="matrix" values="0 0 0 0 0 0 0 0 0 0 0 0 0 0 0 0 0 0 127 0" result="hardAlpha"/>
<feOffset dy="0.5"/>
<feComposite in2="hardAlpha" operator="arithmetic" k2="-1" k3="1"/>
<feColorMatrix type="matrix" values="0 0 0 0 1 0 0 0 0 1 0 0 0 0 1 0 0 0 0.08 0"/>
<feBlend mode="normal" in2="effect3_innerShadow_3827_4813" result="effect4_innerShadow_3827_4813"/>
</filter>
<filter id="filter5_ddii_3827_4813" x="515.17" y="79.5125" width="67.3232" height="67.3235" filterUnits="userSpaceOnUse" color-interpolation-filters="sRGB">
<feFlood flood-opacity="0" result="BackgroundImageFix"/>
<feColorMatrix in="SourceAlpha" type="matrix" values="0 0 0 0 0 0 0 0 0 0 0 0 0 0 0 0 0 0 127 0" result="hardAlpha"/>
<feOffset dy="1"/>
<feGaussianBlur stdDeviation="1.5"/>
<feComposite in2="hardAlpha" operator="out"/>
<feColorMatrix type="matrix" values="0 0 0 0 0 0 0 0 0 0 0 0 0 0 0 0 0 0 0.5 0"/>
<feBlend mode="normal" in2="BackgroundImageFix" result="effect1_dropShadow_3827_4813"/>
<feColorMatrix in="SourceAlpha" type="matrix" values="0 0 0 0 0 0 0 0 0 0 0 0 0 0 0 0 0 0 127 0" result="hardAlpha"/>
<feOffset dy="5"/>
<feGaussianBlur stdDeviation="6"/>
<feComposite in2="hardAlpha" operator="out"/>
<feColorMatrix type="matrix" values="0 0 0 0 0 0 0 0 0 0 0 0 0 0 0 0 0 0 0.35 0"/>
<feBlend mode="normal" in2="effect1_dropShadow_3827_4813" result="effect2_dropShadow_3827_4813"/>
<feBlend mode="normal" in="SourceGraphic" in2="effect2_dropShadow_3827_4813" result="shape"/>
<feColorMatrix in="SourceAlpha" type="matrix" values="0 0 0 0 0 0 0 0 0 0 0 0 0 0 0 0 0 0 127 0" result="hardAlpha"/>
<feOffset/>
<feGaussianBlur stdDeviation="0.25"/>
<feComposite in2="hardAlpha" operator="arithmetic" k2="-1" k3="1"/>
<feColorMatrix type="matrix" values="0 0 0 0 1 0 0 0 0 1 0 0 0 0 1 0 0 0 0.3 0"/>
<feBlend mode="normal" in2="shape" result="effect3_innerShadow_3827_4813"/>
<feColorMatrix in="SourceAlpha" type="matrix" values="0 0 0 0 0 0 0 0 0 0 0 0 0 0 0 0 0 0 127 0" result="hardAlpha"/>
<feOffset dy="0.5"/>
<feComposite in2="hardAlpha" operator="arithmetic" k2="-1" k3="1"/>
<feColorMatrix type="matrix" values="0 0 0 0 1 0 0 0 0 1 0 0 0 0 1 0 0 0 0.08 0"/>
<feBlend mode="normal" in2="effect3_innerShadow_3827_4813" result="effect4_innerShadow_3827_4813"/>
</filter>
<filter id="filter6_ddii_3827_4813" x="233.812" y="79.8181" width="110.647" height="110.647" filterUnits="userSpaceOnUse" color-interpolation-filters="sRGB">
<feFlood flood-opacity="0" result="BackgroundImageFix"/>
<feColorMatrix in="SourceAlpha" type="matrix" values="0 0 0 0 0 0 0 0 0 0 0 0 0 0 0 0 0 0 127 0" result="hardAlpha"/>
<feOffset dy="1"/>
<feGaussianBlur stdDeviation="1.5"/>
<feComposite in2="hardAlpha" operator="out"/>
<feColorMatrix type="matrix" values="0 0 0 0 0 0 0 0 0 0 0 0 0 0 0 0 0 0 0.5 0"/>
<feBlend mode="normal" in2="BackgroundImageFix" result="effect1_dropShadow_3827_4813"/>
<feColorMatrix in="SourceAlpha" type="matrix" values="0 0 0 0 0 0 0 0 0 0 0 0 0 0 0 0 0 0 127 0" result="hardAlpha"/>
<feOffset dy="5"/>
<feGaussianBlur stdDeviation="6"/>
<feComposite in2="hardAlpha" operator="out"/>
<feColorMatrix type="matrix" values="0 0 0 0 0 0 0 0 0 0 0 0 0 0 0 0 0 0 0.35 0"/>
<feBlend mode="normal" in2="effect1_dropShadow_3827_4813" result="effect2_dropShadow_3827_4813"/>
<feBlend mode="normal" in="SourceGraphic" in2="effect2_dropShadow_3827_4813" result="shape"/>
<feColorMatrix in="SourceAlpha" type="matrix" values="0 0 0 0 0 0 0 0 0 0 0 0 0 0 0 0 0 0 127 0" result="hardAlpha"/>
<feOffset/>
<feGaussianBlur stdDeviation="0.25"/>
<feComposite in2="hardAlpha" operator="arithmetic" k2="-1" k3="1"/>
<feColorMatrix type="matrix" values="0 0 0 0 1 0 0 0 0 1 0 0 0 0 1 0 0 0 0.3 0"/>
<feBlend mode="normal" in2="shape" result="effect3_innerShadow_3827_4813"/>
<feColorMatrix in="SourceAlpha" type="matrix" values="0 0 0 0 0 0 0 0 0 0 0 0 0 0 0 0 0 0 127 0" result="hardAlpha"/>
<feOffset dy="0.5"/>
<feComposite in2="hardAlpha" operator="arithmetic" k2="-1" k3="1"/>
<feColorMatrix type="matrix" values="0 0 0 0 1 0 0 0 0 1 0 0 0 0 1 0 0 0 0.08 0"/>
<feBlend mode="normal" in2="effect3_innerShadow_3827_4813" result="effect4_innerShadow_3827_4813"/>
</filter>
<radialGradient id="paint0_radial_3827_4813" cx="0" cy="0" r="1" gradientUnits="userSpaceOnUse" gradientTransform="translate(300 130) rotate(180) scale(300 300)">
<stop stop-opacity="0"/>
<stop offset="1" stop-color="#2F312E"/>
</radialGradient>
<linearGradient id="paint1_linear_3827_4813" x1="435.43" y1="73.1783" x2="436.879" y2="72.3226" gradientUnits="userSpaceOnUse">
<stop stop-color="#AFB5AD"/>
<stop offset="1" stop-color="#ECEEEC"/>
</linearGradient>
<linearGradient id="paint2_linear_3827_4813" x1="435.464" y1="57.0446" x2="436.629" y2="57.0446" gradientUnits="userSpaceOnUse">
<stop stop-color="#AFB5AD"/>
<stop offset="1" stop-color="#ECEEEC"/>
</linearGradient>
<radialGradient id="paint3_radial_3827_4813" cx="0" cy="0" r="1" gradientUnits="userSpaceOnUse" gradientTransform="translate(441.344 62.3891) rotate(-171.457) scale(1.50244 3.00563)">
<stop stop-color="#EE352C"/>
<stop offset="1" stop-color="#A91D22"/>
</radialGradient>
<linearGradient id="paint4_linear_3827_4813" x1="499.015" y1="188.162" x2="513.416" y2="202.562" gradientUnits="userSpaceOnUse">
<stop stop-color="#91D443"/>
<stop offset="1" stop-color="#48BFE0"/>
</linearGradient>
<linearGradient id="paint5_linear_3827_4813" x1="502.595" y1="184.581" x2="516.996" y2="198.982" gradientUnits="userSpaceOnUse">
<stop stop-color="#91D443"/>
<stop offset="1" stop-color="#48BFE0"/>
</linearGradient>
<linearGradient id="paint6_linear_3827_4813" x1="506.164" y1="181.012" x2="520.565" y2="195.413" gradientUnits="userSpaceOnUse">
<stop stop-color="#91D443"/>
<stop offset="1" stop-color="#48BFE0"/>
</linearGradient>
<linearGradient id="paint7_linear_3827_4813" x1="495.43" y1="191.744" x2="509.831" y2="206.145" gradientUnits="userSpaceOnUse">
<stop stop-color="#91D443"/>
<stop offset="1" stop-color="#48BFE0"/>
</linearGradient>
<linearGradient id="paint8_linear_3827_4813" x1="491.861" y1="195.313" x2="506.262" y2="209.714" gradientUnits="userSpaceOnUse">
<stop stop-color="#91D443"/>
<stop offset="1" stop-color="#48BFE0"/>
</linearGradient>
<linearGradient id="paint9_linear_3827_4813" x1="244.733" y1="108.741" x2="55.8413" y2="108.741" gradientUnits="userSpaceOnUse">
<stop stop-color="#BCFE68"/>
<stop offset="1" stop-color="#E9FFCC" stop-opacity="0"/>
</linearGradient>
<linearGradient id="paint10_linear_3827_4813" x1="244.341" y1="173.604" x2="103.362" y2="173.604" gradientUnits="userSpaceOnUse">
<stop stop-color="#BCFE68"/>
<stop offset="1" stop-color="#E9FFCC" stop-opacity="0"/>
</linearGradient>
<linearGradient id="paint11_linear_3827_4813" x1="418.834" y1="108.58" x2="323.121" y2="108.58" gradientUnits="userSpaceOnUse">
<stop stop-color="#E9FFCC" stop-opacity="0"/>
<stop offset="1" stop-color="#BCFE68"/>
</linearGradient>
<linearGradient id="paint12_linear_3827_4813" x1="484.239" y1="195.46" x2="317.082" y2="195.46" gradientUnits="userSpaceOnUse">
<stop stop-color="#E9FFCC" stop-opacity="0"/>
<stop offset="1" stop-color="#BCFE68"/>
</linearGradient>
<linearGradient id="paint13_linear_3827_4813" x1="527.165" y1="130.216" x2="314.166" y2="130.216" gradientUnits="userSpaceOnUse">
<stop stop-color="#E9FFCC" stop-opacity="0"/>
<stop offset="1" stop-color="#BCFE68"/>
</linearGradient>
<linearGradient id="paint14_linear_3827_4813" x1="245.165" y1="130.201" x2="151.019" y2="130.201" gradientUnits="userSpaceOnUse">
<stop stop-color="#BCFE68"/>
<stop offset="1" stop-color="#E9FFCC" stop-opacity="0"/>
</linearGradient>
<linearGradient id="paint15_linear_3827_4813" x1="137.77" y1="99.4416" x2="137.77" y2="116.774" gradientUnits="userSpaceOnUse">
<stop stop-color="#4387FD"/>
<stop offset="1" stop-color="#4683EA"/>
</linearGradient>
<clipPath id="clip0_3827_4813">
<rect width="600" height="260" fill="white"/>
</clipPath>
<clipPath id="clip1_3827_4813">
<rect width="779.824" height="260" fill="white" transform="matrix(1 0 0 -1 -100.912 260)"/>
</clipPath>
<clipPath id="clip2_3827_4813">
<rect width="20" height="20" fill="white" transform="translate(84.4468 163.488)"/>
</clipPath>
<clipPath id="clip3_3827_4813">
<rect width="20" height="20" fill="white" transform="translate(84.4468 163.488)"/>
</clipPath>
<clipPath id="clip4_3827_4813">
<rect width="20" height="20" fill="white" transform="translate(41.1685 54.8508)"/>
</clipPath>
<clipPath id="clip5_3827_4813">
<rect width="20" height="20" fill="white" transform="translate(41.1685 54.8511)"/>
</clipPath>
<clipPath id="clip6_3827_4813">
<rect width="20" height="20" fill="white" transform="translate(430.879 55.1565)"/>
</clipPath>
<clipPath id="clip7_3827_4813">
<rect width="20" height="20" fill="white" transform="translate(495.999 185.149)"/>
</clipPath>
<clipPath id="clip8_3827_4813">
<rect width="20" height="20" fill="white" transform="translate(495.999 185.149)"/>
</clipPath>
<clipPath id="clip9_3827_4813">
<rect width="20" height="20" fill="white" transform="translate(495.999 185.149)"/>
</clipPath>
<clipPath id="clip10_3827_4813">
<rect width="20" height="20" fill="white" transform="translate(127.77 98.1743)"/>
</clipPath>
<clipPath id="clip11_3827_4813">
<rect width="20" height="20" fill="white" transform="translate(127.77 98.1743)"/>
</clipPath>
<clipPath id="clip12_3827_4813">
<rect width="20" height="20" fill="white" transform="translate(127.77 98.1743)"/>
</clipPath>
<clipPath id="clip13_3827_4813">
<rect width="20" height="20" fill="white" transform="translate(538.832 98.1743)"/>
</clipPath>
<clipPath id="clip14_3827_4813">
<rect width="20" height="20" fill="white" transform="translate(538.832 98.1743)"/>
</clipPath>
<clipPath id="clip15_3827_4813">
<rect width="37.9081" height="37.9081" fill="white" transform="translate(270.182 111.188)"/>
</clipPath>
</defs>
</svg>
