<svg width="600" height="260" viewBox="0 0 600 260" fill="none" xmlns="http://www.w3.org/2000/svg">
<g clip-path="url(#clip0_3827_5110)">
<path d="M439.791 69L443.375 59.06H445.601L449.185 69H447.267L446.455 66.662H442.521L441.709 69H439.791ZM443.067 65.08H445.909L444.481 60.908L443.067 65.08ZM450.498 59.06H452.318V67.054C452.318 67.404 452.5 67.586 452.836 67.586H453.41V69H452.36C451.254 69 450.498 68.314 450.498 67.138V59.06ZM454.886 59.06H456.706V67.054C456.706 67.404 456.888 67.586 457.224 67.586H457.798V69H456.748C455.642 69 454.886 68.314 454.886 67.138V59.06ZM462.584 61.58H464.404V69H462.584V61.58ZM462.556 60.544V59.06H464.432V60.544H462.556ZM470.684 63.946C470.558 63.218 469.886 62.77 469.186 62.77C468.5 62.77 467.954 63.134 467.968 63.722C467.982 64.324 468.724 64.59 469.452 64.716C471.468 65.052 472.602 65.584 472.602 67.012C472.602 68.482 471.174 69.168 469.438 69.168C467.408 69.168 466.036 68.216 465.924 66.648L467.758 66.55C467.898 67.32 468.472 67.796 469.41 67.796C469.998 67.796 470.74 67.572 470.74 66.97C470.726 66.256 469.914 66.144 469.158 65.976C467.338 65.612 466.092 65.15 466.092 63.75C466.092 62.294 467.31 61.398 469.284 61.398C471.034 61.398 472.28 62.35 472.518 63.862L470.684 63.946ZM480.328 68.636C478.396 68.636 477.094 67.208 477.094 65.094C477.094 62.896 478.396 61.412 480.314 61.412C481.28 61.412 482.092 61.902 482.47 62.714V61.58H484.248V68.16C484.248 70.134 482.778 71.268 480.678 71.268C478.984 71.268 477.696 70.428 477.29 69.154L479.152 69.028C479.39 69.574 479.936 69.91 480.692 69.91C481.784 69.91 482.428 69.392 482.428 68.398V67.46C482.064 68.188 481.252 68.636 480.328 68.636ZM478.956 65.08C478.956 66.438 479.656 67.292 480.72 67.292C481.798 67.292 482.47 66.438 482.484 65.08C482.498 63.708 481.812 62.854 480.72 62.854C479.628 62.854 478.956 63.708 478.956 65.08ZM489.485 69.168C487.273 69.168 485.817 67.642 485.817 65.29C485.817 62.938 487.273 61.412 489.485 61.412C491.697 61.412 493.153 62.938 493.153 65.29C493.153 67.642 491.697 69.168 489.485 69.168ZM487.679 65.29C487.679 66.816 488.337 67.698 489.485 67.698C490.633 67.698 491.291 66.816 491.291 65.29C491.291 63.764 490.633 62.882 489.485 62.882C488.337 62.882 487.679 63.764 487.679 65.29ZM498.002 69.168C495.79 69.168 494.334 67.642 494.334 65.29C494.334 62.938 495.79 61.412 498.002 61.412C500.214 61.412 501.67 62.938 501.67 65.29C501.67 67.642 500.214 69.168 498.002 69.168ZM496.196 65.29C496.196 66.816 496.854 67.698 498.002 67.698C499.15 67.698 499.808 66.816 499.808 65.29C499.808 63.764 499.15 62.882 498.002 62.882C496.854 62.882 496.196 63.764 496.196 65.29ZM510.02 59.06V69H508.298L508.256 67.95C507.85 68.706 506.996 69.168 505.988 69.168C504.056 69.168 502.852 67.67 502.852 65.29C502.852 62.91 504.056 61.412 505.988 61.412C506.94 61.412 507.78 61.846 508.2 62.574V59.06H510.02ZM504.714 65.29C504.714 66.76 505.428 67.712 506.52 67.712C507.626 67.712 508.326 66.76 508.326 65.29C508.326 63.778 507.612 62.826 506.52 62.826C505.414 62.826 504.714 63.778 504.714 65.29Z" fill="#1D211C"/>
<rect x="520" y="48" width="32" height="32" rx="16" fill="#29A383"/>
<path fill-rule="evenodd" clip-rule="evenodd" d="M529.707 63.2929C529.317 62.9024 528.683 62.9024 528.293 63.2929C527.902 63.6834 527.902 64.3166 528.293 64.7071L533.293 69.7071C533.698 70.1122 534.36 70.0948 534.743 69.669L543.743 59.669C544.113 59.2585 544.079 58.6262 543.669 58.2567C543.258 57.8873 542.626 57.9205 542.257 58.331L533.962 67.5476L529.707 63.2929Z" fill="white"/>
<path d="M49.032 53.48H50.82L53.34 60.452L55.86 53.48H57.648V62H56.34V55.892L54.072 61.988H52.608L50.352 55.892V62H49.032V53.48ZM58.9811 58.82C58.9811 56.792 60.1811 55.496 62.0171 55.496C63.5291 55.496 64.8251 56.504 64.8971 58.772V59.192H60.3491C60.4211 60.356 61.0211 61.04 62.0171 61.04C62.6411 61.04 63.2051 60.68 63.4691 60.08L64.8131 60.176C64.4291 61.388 63.3131 62.144 62.0171 62.144C60.1811 62.144 58.9811 60.848 58.9811 58.82ZM60.3611 58.22H63.5411C63.3851 57.02 62.7251 56.6 62.0171 56.6C61.0931 56.6 60.5051 57.2 60.3611 58.22ZM70.0335 57.644C69.9015 56.972 69.2655 56.576 68.6175 56.576C67.9695 56.576 67.4535 56.9 67.4655 57.452C67.4775 58.028 68.2095 58.256 68.8575 58.376C70.4415 58.664 71.4615 59.096 71.4615 60.344C71.4615 61.592 70.2015 62.144 68.8575 62.144C67.2255 62.144 66.0615 61.328 65.9655 59.996L67.2975 59.912C67.4175 60.62 67.9695 61.064 68.8455 61.064C69.3975 61.064 70.1175 60.872 70.1175 60.284C70.1175 59.6 69.3135 59.528 68.6295 59.372C67.2855 59.084 66.1215 58.724 66.1215 57.5C66.1215 56.252 67.1295 55.496 68.7135 55.496C70.0935 55.496 71.1495 56.3 71.3655 57.572L70.0335 57.644ZM76.5843 57.644C76.4523 56.972 75.8163 56.576 75.1683 56.576C74.5203 56.576 74.0043 56.9 74.0163 57.452C74.0283 58.028 74.7603 58.256 75.4083 58.376C76.9923 58.664 78.0123 59.096 78.0123 60.344C78.0123 61.592 76.7523 62.144 75.4083 62.144C73.7763 62.144 72.6123 61.328 72.5163 59.996L73.8483 59.912C73.9683 60.62 74.5203 61.064 75.3963 61.064C75.9483 61.064 76.6683 60.872 76.6683 60.284C76.6683 59.6 75.8643 59.528 75.1803 59.372C73.8363 59.084 72.6723 58.724 72.6723 57.5C72.6723 56.252 73.6803 55.496 75.2643 55.496C76.6443 55.496 77.7003 56.3 77.9163 57.572L76.5843 57.644ZM79.2454 57.548C79.4974 56.264 80.5054 55.496 81.9694 55.496C83.7094 55.496 84.6574 56.456 84.6574 58.196V60.56C84.6574 60.872 84.7894 60.98 85.0414 60.98H85.3054V62H84.8974C84.3214 62.012 83.5294 61.916 83.4694 61.028C83.1934 61.628 82.4854 62.144 81.4294 62.144C80.1574 62.144 79.1374 61.46 79.1374 60.332C79.1374 59.06 80.0854 58.688 81.5494 58.4L83.3614 58.052C83.3494 57.032 82.8934 56.552 81.9694 56.552C81.2374 56.552 80.7574 56.924 80.5774 57.632L79.2454 57.548ZM80.4814 60.308C80.4814 60.764 80.8774 61.148 81.7054 61.148C82.6534 61.148 83.3854 60.464 83.3854 59.096V59.036L82.0414 59.276C81.1774 59.432 80.4814 59.504 80.4814 60.308ZM88.906 61.676C87.262 61.676 86.11 60.428 86.11 58.616C86.11 56.768 87.25 55.496 88.894 55.496C89.746 55.496 90.454 55.916 90.754 56.624V55.64H92.002V61.328C92.002 63.008 90.802 63.944 89.062 63.944C87.67 63.944 86.614 63.224 86.29 62.108L87.622 62.024C87.85 62.552 88.354 62.864 89.074 62.864C90.106 62.864 90.706 62.42 90.706 61.556V60.632C90.406 61.268 89.698 61.676 88.906 61.676ZM87.454 58.604C87.454 59.84 88.09 60.608 89.11 60.608C90.094 60.608 90.73 59.84 90.742 58.604C90.766 57.38 90.13 56.612 89.11 56.612C88.09 56.612 87.454 57.38 87.454 58.604ZM93.446 58.82C93.446 56.792 94.646 55.496 96.482 55.496C97.994 55.496 99.29 56.504 99.362 58.772V59.192H94.814C94.886 60.356 95.486 61.04 96.482 61.04C97.106 61.04 97.67 60.68 97.934 60.08L99.278 60.176C98.894 61.388 97.778 62.144 96.482 62.144C94.646 62.144 93.446 60.848 93.446 58.82ZM94.826 58.22H98.006C97.85 57.02 97.19 56.6 96.482 56.6C95.558 56.6 94.97 57.2 94.826 58.22ZM104.498 57.644C104.366 56.972 103.73 56.576 103.082 56.576C102.434 56.576 101.918 56.9 101.93 57.452C101.942 58.028 102.674 58.256 103.322 58.376C104.906 58.664 105.926 59.096 105.926 60.344C105.926 61.592 104.666 62.144 103.322 62.144C101.69 62.144 100.526 61.328 100.43 59.996L101.762 59.912C101.882 60.62 102.434 61.064 103.31 61.064C103.862 61.064 104.582 60.872 104.582 60.284C104.582 59.6 103.778 59.528 103.094 59.372C101.75 59.084 100.586 58.724 100.586 57.5C100.586 56.252 101.594 55.496 103.178 55.496C104.558 55.496 105.614 56.3 105.83 57.572L104.498 57.644ZM110.271 55.64H111.567V62H110.271V55.64ZM110.247 54.704V53.48H111.591V54.704H110.247ZM113.201 55.64H114.365L114.401 56.732C114.737 55.868 115.469 55.496 116.333 55.496C117.773 55.496 118.505 56.516 118.505 57.908V62H117.209V58.304C117.209 57.188 116.873 56.588 115.997 56.588C115.073 56.588 114.497 57.188 114.497 58.304V62H113.201V55.64ZM122.764 63.32L126.304 53H127.576L124.024 63.32H122.764ZM135.787 57.644C135.655 56.972 135.019 56.576 134.371 56.576C133.723 56.576 133.207 56.9 133.219 57.452C133.231 58.028 133.963 58.256 134.611 58.376C136.195 58.664 137.215 59.096 137.215 60.344C137.215 61.592 135.955 62.144 134.611 62.144C132.979 62.144 131.815 61.328 131.719 59.996L133.051 59.912C133.171 60.62 133.723 61.064 134.599 61.064C135.151 61.064 135.871 60.872 135.871 60.284C135.871 59.6 135.067 59.528 134.383 59.372C133.039 59.084 131.875 58.724 131.875 57.5C131.875 56.252 132.883 55.496 134.467 55.496C135.847 55.496 136.903 56.3 137.119 57.572L135.787 57.644ZM138.27 58.82C138.27 56.792 139.47 55.496 141.306 55.496C142.818 55.496 144.114 56.504 144.186 58.772V59.192H139.638C139.71 60.356 140.31 61.04 141.306 61.04C141.93 61.04 142.494 60.68 142.758 60.08L144.102 60.176C143.718 61.388 142.602 62.144 141.306 62.144C139.47 62.144 138.27 60.848 138.27 58.82ZM139.65 58.22H142.83C142.674 57.02 142.014 56.6 141.306 56.6C140.382 56.6 139.794 57.2 139.65 58.22ZM149.755 57.872C149.635 57.08 149.011 56.612 148.291 56.612C147.211 56.612 146.599 57.44 146.599 58.82C146.599 60.2 147.211 61.028 148.291 61.028C149.047 61.028 149.659 60.536 149.791 59.66L151.147 59.732C150.955 61.22 149.755 62.144 148.291 62.144C146.455 62.144 145.255 60.848 145.255 58.82C145.255 56.792 146.455 55.496 148.291 55.496C149.707 55.496 150.931 56.372 151.099 57.8L149.755 57.872ZM155.123 62.144C153.287 62.144 152.087 60.848 152.087 58.82C152.087 56.792 153.287 55.496 155.123 55.496C156.959 55.496 158.159 56.792 158.159 58.82C158.159 60.848 156.959 62.144 155.123 62.144ZM153.431 58.82C153.431 60.2 154.043 61.028 155.123 61.028C156.203 61.028 156.815 60.2 156.815 58.82C156.815 57.44 156.203 56.612 155.123 56.612C154.043 56.612 153.431 57.44 153.431 58.82ZM159.513 55.64H160.677L160.713 56.732C161.049 55.868 161.781 55.496 162.645 55.496C164.085 55.496 164.817 56.516 164.817 57.908V62H163.521V58.304C163.521 57.188 163.185 56.588 162.309 56.588C161.385 56.588 160.809 57.188 160.809 58.304V62H159.513V55.64ZM171.983 53.48V62H170.783L170.747 61.1C170.387 61.748 169.643 62.144 168.767 62.144C167.111 62.144 166.079 60.86 166.079 58.82C166.079 56.78 167.111 55.496 168.767 55.496C169.607 55.496 170.327 55.868 170.687 56.48V53.48H171.983ZM167.411 58.82C167.411 60.176 168.083 61.028 169.103 61.028C170.135 61.028 170.783 60.176 170.783 58.82C170.783 57.44 170.135 56.576 169.103 56.576C168.071 56.576 167.411 57.44 167.411 58.82Z" fill="#1D211C"/>
<path d="M53.5341 74.3636V86H51.7727V76.125H51.7045L48.9205 77.9432V76.2614L51.8239 74.3636H53.5341ZM60.5943 86.1591C60.0754 86.1515 59.564 86.0568 59.0602 85.875C58.5602 85.6932 58.1057 85.3902 57.6966 84.9659C57.2875 84.5417 56.9598 83.9716 56.7136 83.2557C56.4712 82.5398 56.35 81.6458 56.35 80.5739C56.35 79.5587 56.4504 78.6572 56.6511 77.8693C56.8557 77.0814 57.1492 76.4167 57.5318 75.875C57.9144 75.3295 58.3765 74.9148 58.9182 74.6307C59.4598 74.3466 60.0678 74.2045 60.742 74.2045C61.4352 74.2045 62.0508 74.3409 62.5886 74.6136C63.1265 74.8864 63.5621 75.2633 63.8955 75.7443C64.2326 76.2254 64.4466 76.7727 64.5375 77.3864H62.8045C62.6871 76.9015 62.4542 76.5057 62.1057 76.1989C61.7572 75.892 61.3027 75.7386 60.742 75.7386C59.8898 75.7386 59.225 76.1098 58.7477 76.8523C58.2742 77.5947 58.0356 78.6269 58.0318 79.9489H58.117C58.3178 79.6193 58.564 79.339 58.8557 79.108C59.1511 78.8731 59.4807 78.6932 59.8443 78.5682C60.2117 78.4394 60.5981 78.375 61.0034 78.375C61.6777 78.375 62.2875 78.5398 62.833 78.8693C63.3822 79.1951 63.8197 79.6458 64.1455 80.2216C64.4712 80.7973 64.6341 81.4564 64.6341 82.1989C64.6341 82.9413 64.4655 83.6136 64.1284 84.2159C63.7951 84.8182 63.3254 85.2955 62.7193 85.6477C62.1133 85.9962 61.4049 86.1667 60.5943 86.1591ZM60.5886 84.6818C61.0356 84.6818 61.4352 84.572 61.7875 84.3523C62.1398 84.1326 62.4182 83.8371 62.6227 83.4659C62.8273 83.0947 62.9295 82.6799 62.9295 82.2216C62.9295 81.7746 62.8292 81.3674 62.6284 81C62.4314 80.6326 62.1587 80.3409 61.8102 80.125C61.4655 79.9091 61.0716 79.8011 60.6284 79.8011C60.2913 79.8011 59.9788 79.8655 59.6909 79.9943C59.4068 80.1231 59.1568 80.3011 58.9409 80.5284C58.725 80.7557 58.5545 81.017 58.4295 81.3125C58.3083 81.6042 58.2477 81.9129 58.2477 82.2386C58.2477 82.6742 58.3481 83.0777 58.5489 83.4489C58.7534 83.8201 59.0318 84.1193 59.3841 84.3466C59.7402 84.5701 60.1417 84.6818 60.5886 84.6818ZM70.6048 86.1591C69.8245 86.1591 69.1276 86.0246 68.5139 85.7557C67.9041 85.4867 67.4211 85.1136 67.0651 84.6364C66.7128 84.1553 66.5234 83.5985 66.4969 82.9659H68.281C68.3037 83.3106 68.4192 83.6098 68.6276 83.8636C68.8397 84.1136 69.1162 84.3068 69.4571 84.4432C69.798 84.5795 70.1768 84.6477 70.5935 84.6477C71.0518 84.6477 71.4571 84.5682 71.8094 84.4091C72.1654 84.25 72.4438 84.0284 72.6446 83.7443C72.8454 83.4564 72.9457 83.125 72.9457 82.75C72.9457 82.3598 72.8454 82.017 72.6446 81.7216C72.4476 81.4223 72.1579 81.1875 71.7753 81.017C71.3965 80.8466 70.9382 80.7614 70.4003 80.7614H69.4173V79.3295H70.4003C70.8321 79.3295 71.2109 79.2519 71.5366 79.0966C71.8662 78.9413 72.1238 78.7254 72.3094 78.4489C72.495 78.1686 72.5878 77.8409 72.5878 77.4659C72.5878 77.1061 72.5063 76.7936 72.3435 76.5284C72.1844 76.2595 71.9571 76.0492 71.6616 75.8977C71.37 75.7462 71.0253 75.6705 70.6276 75.6705C70.2488 75.6705 69.8946 75.7405 69.5651 75.8807C69.2393 76.017 68.9741 76.214 68.7696 76.4716C68.5651 76.7254 68.4552 77.0303 68.4401 77.3864H66.7412C66.7601 76.7576 66.9457 76.2045 67.298 75.7273C67.6541 75.25 68.1238 74.8769 68.7071 74.608C69.2904 74.339 69.9382 74.2045 70.6503 74.2045C71.3965 74.2045 72.0404 74.3504 72.5821 74.642C73.1276 74.9299 73.548 75.3144 73.8435 75.7955C74.1427 76.2765 74.2904 76.803 74.2866 77.375C74.2904 78.0265 74.1086 78.5795 73.7412 79.0341C73.3776 79.4886 72.8927 79.7936 72.2866 79.9489V80.0398C73.0594 80.1572 73.6579 80.464 74.0821 80.9602C74.5101 81.4564 74.7223 82.072 74.7185 82.8068C74.7223 83.447 74.5442 84.0208 74.1844 84.5284C73.8283 85.036 73.3416 85.4356 72.7241 85.7273C72.1067 86.0152 71.4003 86.1591 70.6048 86.1591Z" fill="#5B7C2F"/>
<path d="M552 132.999C552.552 132.999 553 132.551 553 131.999C553 131.446 552.552 130.999 552 130.999V132.999ZM-0.143914 138.32C5.9413 139.205 19.5677 140.997 24.952 140.997V138.997C19.7445 138.997 6.2801 137.233 0.143914 136.341L-0.143914 138.32ZM24.952 140.997C28.5566 140.997 31.6863 139.366 34.0823 137.841C34.6856 137.457 35.2499 137.074 35.7655 136.722C36.2864 136.365 36.748 136.047 37.1685 135.774C37.5909 135.5 37.9383 135.295 38.2243 135.16C38.5261 135.017 38.668 134.998 38.7011 134.998V132.998C38.225 132.998 37.7621 133.166 37.3698 133.352C36.9615 133.545 36.5252 133.808 36.0804 134.096C35.6336 134.386 35.1444 134.724 34.6369 135.07C34.1241 135.421 33.5823 135.788 33.0081 136.154C30.6937 137.627 27.9674 138.997 24.952 138.997V140.997ZM38.7011 134.998C38.5373 134.998 38.5436 134.905 38.7355 135.111C38.9073 135.294 39.117 135.601 39.3612 136.043C39.8489 136.927 40.35 138.118 40.9024 139.394C41.4386 140.633 42.0231 141.95 42.6489 142.96C42.9619 143.465 43.3161 143.945 43.7197 144.309C44.1208 144.67 44.6602 144.996 45.321 144.996V142.996C45.3453 142.996 45.2641 143.008 45.0586 142.823C44.8554 142.64 44.6169 142.339 44.349 141.907C43.8131 141.042 43.2837 139.86 42.7378 138.599C42.2082 137.376 41.6589 136.068 41.1123 135.077C40.8393 134.582 40.5357 134.108 40.1964 133.745C39.877 133.403 39.3741 132.998 38.7011 132.998V134.998ZM45.321 144.996C45.9582 144.996 46.5142 144.69 46.9462 144.362C47.3929 144.023 47.8266 143.568 48.2381 143.073C49.0601 142.085 49.9199 140.784 50.7378 139.549C51.5749 138.285 52.3701 137.086 53.1075 136.2C53.4758 135.757 53.798 135.432 54.0714 135.224C54.3595 135.005 54.4877 134.998 54.4871 134.998V132.998C53.85 132.998 53.2939 133.303 52.8619 133.631C52.4152 133.97 51.9815 134.426 51.57 134.921C50.748 135.909 49.8882 137.209 49.0703 138.445C48.2332 139.709 47.438 140.907 46.7006 141.794C46.3323 142.236 46.0101 142.562 45.7368 142.77C45.4486 142.988 45.3204 142.996 45.321 142.996V144.996ZM54.4871 134.998C54.6776 134.998 54.9314 135.095 55.3213 135.57C55.7203 136.056 56.0797 136.707 56.5555 137.508C57.0005 138.257 57.538 139.116 58.2362 139.782C58.9602 140.474 59.896 140.997 61.107 140.997V138.997C60.5357 138.997 60.0711 138.769 59.6176 138.336C59.1382 137.878 58.7208 137.237 58.2748 136.486C57.8594 135.787 57.3913 134.939 56.8674 134.301C56.3343 133.651 55.5697 132.998 54.4871 132.998V134.998ZM61.107 140.997C62.2956 140.997 63.3004 140.493 64.1389 139.855C64.9671 139.226 65.7115 138.405 66.3729 137.663C67.0629 136.889 67.6578 136.207 68.2629 135.704C68.8642 135.204 69.3408 134.998 69.7638 134.998V132.998C68.6592 132.998 67.7354 133.542 66.9841 134.166C66.2365 134.788 65.5266 135.606 64.8799 136.332C64.2045 137.09 63.5804 137.768 62.9287 138.263C62.2873 138.751 61.7007 138.997 61.107 138.997V140.997ZM69.7638 134.998C69.7587 134.998 69.785 134.998 69.8511 135.014C69.9153 135.029 70.0016 135.057 70.1123 135.1C70.3355 135.188 70.6175 135.328 70.9587 135.524C71.6408 135.916 72.4852 136.489 73.4527 137.199C75.3857 138.619 77.7196 140.517 80.0811 142.438C82.4299 144.349 84.8064 146.283 86.788 147.738C87.7778 148.465 88.6919 149.089 89.4698 149.536C89.8586 149.759 90.2321 149.949 90.5772 150.085C90.9073 150.216 91.285 150.328 91.6605 150.328V148.328C91.6656 148.328 91.6394 148.328 91.5733 148.312C91.5091 148.296 91.4227 148.269 91.3121 148.225C91.0888 148.137 90.8069 147.998 90.4657 147.802C89.7835 147.41 88.9392 146.837 87.9717 146.126C86.0387 144.707 83.7048 142.808 81.3433 140.887C78.9945 138.976 76.618 137.042 74.6363 135.587C73.6465 134.86 72.7325 134.236 71.9546 133.789C71.5657 133.566 71.1922 133.376 70.8471 133.24C70.5171 133.11 70.1394 132.998 69.7638 132.998V134.998ZM91.6605 150.328C92.6039 150.328 93.231 149.585 93.6016 149.011C94.0189 148.365 94.3899 147.496 94.7281 146.536C95.4085 144.604 96.0406 142.054 96.6426 139.565C97.252 137.047 97.8307 134.592 98.4138 132.76C98.707 131.839 98.9831 131.136 99.2381 130.679C99.3664 130.449 99.4619 130.333 99.5126 130.285C99.5631 130.238 99.487 130.333 99.2989 130.333V128.333C98.7925 128.333 98.4021 128.584 98.1415 128.829C97.8812 129.074 97.6689 129.387 97.4919 129.704C97.1362 130.341 96.8116 131.2 96.508 132.153C95.8977 134.071 95.2988 136.615 94.6987 139.095C94.0913 141.605 93.4822 144.053 92.8418 145.871C92.5196 146.786 92.2103 147.479 91.9215 147.926C91.5859 148.446 91.4809 148.328 91.6605 148.328V150.328ZM99.2989 130.333C99.3444 130.333 99.4547 130.349 99.6528 130.49C99.8547 130.634 100.092 130.869 100.366 131.21C100.925 131.903 101.487 132.831 102.147 133.869C102.781 134.864 103.499 135.946 104.312 136.779C105.12 137.607 106.159 138.331 107.446 138.331V136.331C106.952 136.331 106.4 136.055 105.743 135.382C105.092 134.716 104.473 133.798 103.834 132.794C103.222 131.832 102.574 130.761 101.923 129.954C101.593 129.545 101.226 129.156 100.815 128.862C100.4 128.566 99.8899 128.333 99.2989 128.333V130.333ZM107.446 138.331C108.513 138.331 109.326 138.076 110.011 137.669C110.652 137.287 111.161 136.774 111.567 136.395C111.997 135.993 112.383 135.664 112.891 135.421C113.391 135.181 114.067 134.998 115.085 134.998V132.998C113.811 132.998 112.833 133.231 112.027 133.617C111.231 133.998 110.662 134.503 110.201 134.934C109.715 135.388 109.397 135.707 108.988 135.95C108.622 136.168 108.163 136.331 107.446 136.331V138.331ZM115.085 134.998C115.3 134.998 115.65 135.116 116.158 135.572C116.654 136.019 117.195 136.694 117.776 137.571C118.94 139.325 120.136 141.682 121.388 144.119C122.622 146.521 123.91 149.001 125.221 150.879C125.877 151.819 126.571 152.655 127.304 153.265C128.034 153.871 128.891 154.327 129.852 154.327V152.327C129.541 152.327 129.125 152.178 128.583 151.727C128.046 151.28 127.47 150.606 126.861 149.734C125.642 147.988 124.416 145.636 123.167 143.205C121.937 140.811 120.683 138.335 119.443 136.465C118.823 135.53 118.174 134.695 117.495 134.085C116.827 133.484 116.015 132.998 115.085 132.998V134.998ZM129.852 154.327C131.759 154.327 132.897 152.806 133.608 151.268C134.344 149.679 134.841 147.617 135.282 145.722C135.738 143.76 136.131 141.994 136.645 140.783C136.904 140.174 137.142 139.835 137.329 139.679C137.449 139.58 137.522 139.559 137.689 139.614L138.311 137.713C137.46 137.435 136.674 137.622 136.049 138.142C135.493 138.606 135.102 139.299 134.804 140.002C134.204 141.414 133.769 143.398 133.334 145.269C132.884 147.206 132.427 149.059 131.793 150.428C131.137 151.847 130.492 152.327 129.852 152.327V154.327ZM137.689 139.614C138.591 139.909 139.749 140.523 141.087 141.332C142.417 142.135 143.839 143.076 145.29 144.005C146.724 144.922 148.178 145.821 149.509 146.492C150.804 147.145 152.132 147.662 153.277 147.662V145.662C152.639 145.662 151.675 145.345 150.409 144.706C149.178 144.086 147.799 143.236 146.368 142.32C144.955 141.416 143.481 140.441 142.121 139.62C140.771 138.804 139.446 138.084 138.311 137.713L137.689 139.614ZM153.277 147.662C153.483 147.662 153.944 147.78 154.719 148.141C155.454 148.483 156.347 148.982 157.365 149.599C159.403 150.835 161.844 152.484 164.373 154.16C166.885 155.825 169.478 157.512 171.768 158.783C172.914 159.419 174.004 159.962 174.987 160.349C175.952 160.729 176.895 160.992 177.72 160.992V158.992C177.271 158.992 176.607 158.838 175.72 158.488C174.851 158.146 173.845 157.648 172.739 157.034C170.526 155.806 167.994 154.161 165.478 152.493C162.978 150.836 160.485 149.153 158.402 147.889C157.36 147.257 156.395 146.715 155.564 146.328C154.774 145.96 153.962 145.662 153.277 145.662V147.662ZM177.72 160.992C179.644 160.992 180.745 159.448 181.409 157.883C182.094 156.268 182.525 154.162 182.903 152.181C183.293 150.14 183.628 148.232 184.109 146.816C184.349 146.109 184.597 145.617 184.843 145.316C185.069 145.04 185.23 144.996 185.358 144.996V142.996C184.468 142.996 183.785 143.451 183.295 144.049C182.825 144.624 182.484 145.381 182.215 146.173C181.677 147.757 181.312 149.848 180.938 151.806C180.553 153.824 180.156 155.717 179.568 157.101C178.959 158.536 178.341 158.992 177.72 158.992V160.992ZM185.358 144.996C185.599 144.996 186.086 145.135 186.865 145.56C187.606 145.966 188.489 146.559 189.479 147.297C191.459 148.772 193.771 150.747 196.1 152.751C198.413 154.743 200.746 156.764 202.722 158.285C203.71 159.045 204.635 159.7 205.442 160.169C206.201 160.609 207.026 160.992 207.764 160.992V158.992C207.61 158.992 207.195 158.874 206.447 158.44C205.749 158.034 204.903 157.439 203.942 156.7C202.02 155.221 199.737 153.243 197.404 151.236C195.086 149.241 192.72 147.217 190.674 145.693C189.651 144.931 188.683 144.275 187.824 143.805C187.001 143.356 186.135 142.996 185.358 142.996V144.996ZM207.764 160.992C208.419 160.992 208.887 160.597 209.177 160.244C209.474 159.882 209.714 159.41 209.918 158.906C210.33 157.889 210.69 156.488 211.019 154.881C211.68 151.653 212.257 147.366 212.829 143.129C213.403 138.868 213.971 134.658 214.616 131.512C214.939 129.932 215.271 128.677 215.611 127.836C215.783 127.41 215.934 127.151 216.045 127.016C216.163 126.871 216.121 127 215.911 127V125C215.256 125 214.788 125.394 214.498 125.748C214.201 126.11 213.961 126.582 213.757 127.086C213.346 128.103 212.985 129.504 212.656 131.111C211.995 134.338 211.418 138.626 210.847 142.862C210.272 147.123 209.704 151.334 209.06 154.48C208.736 156.06 208.405 157.314 208.064 158.156C207.892 158.582 207.742 158.84 207.63 158.976C207.512 159.12 207.554 158.992 207.764 158.992V160.992ZM215.911 127C215.618 127 215.564 126.794 215.7 127C215.815 127.175 215.961 127.498 216.119 128.012C216.431 129.026 216.713 130.523 216.974 132.387C217.495 136.104 217.906 141.068 218.353 146.084C218.797 151.074 219.278 156.116 219.939 159.913C220.268 161.804 220.652 163.448 221.122 164.639C221.355 165.23 221.635 165.775 221.986 166.188C222.34 166.605 222.86 166.99 223.55 166.99V164.99C223.667 164.99 223.654 165.063 223.51 164.893C223.363 164.721 223.18 164.406 222.982 163.905C222.589 162.909 222.233 161.428 221.909 159.57C221.265 155.869 220.791 150.913 220.345 145.906C219.901 140.924 219.484 135.891 218.955 132.11C218.691 130.225 218.392 128.598 218.031 127.424C217.853 126.845 217.64 126.309 217.369 125.898C217.119 125.519 216.65 125 215.911 125V127ZM223.55 166.99C224.646 166.99 225.388 166.235 225.864 165.445C226.348 164.64 226.713 163.559 227.01 162.369C227.608 159.978 228.014 156.807 228.424 153.708C228.84 150.566 229.262 147.491 229.886 145.16C230.199 143.992 230.545 143.083 230.925 142.467C231.31 141.841 231.624 141.681 231.827 141.655L231.568 139.671C230.497 139.812 229.745 140.568 229.222 141.418C228.692 142.278 228.286 143.405 227.955 144.643C227.29 147.124 226.853 150.339 226.441 153.445C226.024 156.595 225.634 159.63 225.07 161.884C224.787 163.016 224.479 163.867 224.15 164.413C223.812 164.974 223.599 164.99 223.55 164.99V166.99ZM231.827 141.655C232.081 141.621 232.297 141.687 232.561 141.976C232.862 142.307 233.164 142.878 233.447 143.72C234.009 145.397 234.364 147.736 234.718 150.218C235.063 152.644 235.407 155.206 235.963 157.153C236.241 158.123 236.596 159.033 237.089 159.718C237.597 160.423 238.334 160.992 239.336 160.992V158.992C239.192 158.992 238.99 158.935 238.712 158.549C238.42 158.144 238.142 157.496 237.886 156.603C237.377 154.821 237.052 152.426 236.698 149.936C236.351 147.503 235.974 144.969 235.343 143.084C235.028 142.145 234.618 141.264 234.038 140.628C233.421 139.951 232.587 139.538 231.568 139.671L231.827 141.655ZM239.336 160.992C240.358 160.992 241.235 160.296 241.919 159.552C242.647 158.762 243.378 157.674 244.099 156.433C245.546 153.944 247.062 150.647 248.522 147.406C249.995 144.138 251.41 140.928 252.68 138.527C253.316 137.324 253.892 136.372 254.394 135.733C254.646 135.413 254.852 135.207 255.009 135.089C255.174 134.965 255.203 134.998 255.122 134.998V132.998C254.595 132.998 254.147 133.234 253.806 133.491C253.457 133.754 253.129 134.106 252.822 134.497C252.206 135.279 251.564 136.358 250.912 137.592C249.604 140.065 248.155 143.354 246.699 146.584C245.231 149.841 243.756 153.043 242.37 155.428C241.675 156.623 241.03 157.566 240.448 158.197C239.824 158.875 239.459 158.992 239.336 158.992V160.992ZM255.122 134.998C254.981 134.998 255.014 134.937 255.274 135.151C255.499 135.337 255.789 135.642 256.14 136.082C256.84 136.959 257.685 138.242 258.642 139.826C260.555 142.992 262.83 147.211 265.195 151.479C267.549 155.724 269.989 160.012 272.199 163.243C273.302 164.855 274.373 166.243 275.372 167.237C275.871 167.735 276.377 168.159 276.883 168.464C277.383 168.766 277.948 168.99 278.546 168.99V166.99C278.444 166.99 278.241 166.948 277.915 166.751C277.595 166.558 277.217 166.252 276.783 165.821C275.916 164.956 274.927 163.688 273.85 162.114C271.7 158.971 269.302 154.761 266.945 150.509C264.6 146.278 262.292 142 260.354 138.792C259.386 137.19 258.487 135.817 257.703 134.835C257.313 134.346 256.925 133.921 256.547 133.609C256.204 133.325 255.708 132.998 255.122 132.998V134.998ZM278.546 168.99C279.827 168.99 280.673 168.012 281.217 167.004C281.786 165.951 282.226 164.515 282.586 162.895C283.309 159.639 283.775 155.33 284.188 151.091C284.604 146.817 284.966 142.615 285.477 139.469C285.733 137.89 286.017 136.647 286.337 135.819C286.498 135.401 286.644 135.156 286.751 135.032C286.85 134.916 286.829 134.998 286.694 134.998V132.998C286.049 132.998 285.563 133.346 285.234 133.728C284.913 134.101 284.669 134.587 284.471 135.098C284.073 136.129 283.764 137.542 283.503 139.149C282.979 142.377 282.609 146.673 282.198 150.897C281.783 155.156 281.326 159.344 280.633 162.461C280.285 164.028 279.893 165.248 279.458 166.054C278.997 166.905 278.666 166.99 278.546 166.99V168.99ZM286.694 134.998C286.64 134.998 286.688 134.974 286.857 135.109C287.024 135.242 287.238 135.474 287.491 135.834C287.998 136.553 288.555 137.626 289.152 138.983C290.342 141.687 291.601 145.31 292.878 148.989C294.147 152.641 295.434 156.35 296.663 159.145C297.276 160.537 297.896 161.755 298.519 162.64C298.83 163.082 299.17 163.48 299.542 163.777C299.912 164.071 300.389 164.324 300.952 164.324V162.324C301.006 162.324 300.958 162.348 300.789 162.213C300.622 162.08 300.408 161.848 300.154 161.488C299.648 160.769 299.091 159.696 298.494 158.339C297.304 155.635 296.045 152.012 294.768 148.333C293.499 144.681 292.212 140.972 290.983 138.178C290.37 136.785 289.749 135.567 289.126 134.682C288.815 134.241 288.476 133.842 288.104 133.545C287.734 133.251 287.257 132.998 286.694 132.998V134.998ZM300.952 164.324C302.07 164.324 302.761 163.417 303.168 162.644C303.612 161.801 303.965 160.66 304.265 159.388C304.867 156.83 305.319 153.441 305.762 150.127C306.21 146.776 306.65 143.5 307.224 141.059C307.514 139.832 307.821 138.89 308.144 138.276C308.505 137.59 308.69 137.664 308.59 137.664V135.664C307.472 135.664 306.782 136.571 306.375 137.344C305.931 138.187 305.577 139.328 305.278 140.6C304.675 143.158 304.223 146.547 303.78 149.862C303.332 153.212 302.893 156.488 302.318 158.929C302.029 160.156 301.721 161.098 301.398 161.713C301.037 162.398 300.852 162.324 300.952 162.324V164.324ZM308.59 137.664C309.147 137.664 309.716 137.994 310.347 138.829C310.975 139.66 311.523 140.809 312.065 142.06C312.583 143.258 313.111 144.59 313.658 145.583C313.935 146.084 314.255 146.573 314.637 146.947C315.024 147.325 315.555 147.662 316.229 147.662V145.662C316.266 145.662 316.208 145.686 316.036 145.517C315.859 145.344 315.65 145.052 315.41 144.616C314.923 143.735 314.464 142.567 313.9 141.265C313.36 140.017 312.73 138.666 311.942 137.623C311.157 136.584 310.07 135.664 308.59 135.664V137.664ZM316.229 147.662C317.276 147.662 318.095 147.044 318.706 146.428C319.321 145.806 319.918 144.98 320.461 144.269C321.034 143.52 321.577 142.854 322.163 142.373C322.734 141.903 323.281 141.663 323.867 141.663V139.663C322.671 139.663 321.69 140.173 320.893 140.828C320.11 141.471 319.444 142.305 318.871 143.055C318.268 143.845 317.783 144.518 317.285 145.021C316.781 145.529 316.454 145.662 316.229 145.662V147.662ZM323.867 141.663C323.733 141.663 323.734 141.597 323.893 141.74C324.04 141.874 324.236 142.112 324.473 142.486C324.944 143.23 325.471 144.334 326.047 145.722C327.196 148.494 328.454 152.18 329.801 155.915C331.136 159.618 332.557 163.364 334.008 166.15C334.731 167.538 335.493 168.75 336.296 169.605C337.076 170.435 338.08 171.123 339.262 170.982L339.026 168.996C338.807 169.022 338.395 168.918 337.754 168.236C337.137 167.578 336.475 166.556 335.782 165.226C334.401 162.576 333.021 158.949 331.682 155.237C330.356 151.557 329.068 147.786 327.894 144.956C327.308 143.543 326.729 142.309 326.162 141.415C325.88 140.97 325.573 140.564 325.237 140.259C324.911 139.964 324.447 139.663 323.867 139.663V141.663ZM339.262 170.982C340.438 170.842 341.301 169.909 341.94 168.902C342.61 167.848 343.211 166.431 343.772 164.832C344.894 161.63 345.943 157.427 347.047 153.337C348.164 149.205 349.338 145.182 350.721 142.198C351.413 140.705 352.129 139.537 352.868 138.756C353.601 137.982 354.279 137.664 354.93 137.664V135.664C353.543 135.664 352.376 136.367 351.416 137.381C350.462 138.389 349.639 139.778 348.906 141.357C347.441 144.517 346.228 148.7 345.117 152.816C343.993 156.975 342.974 161.06 341.884 164.17C341.339 165.726 340.798 166.97 340.252 167.83C339.676 168.737 339.251 168.969 339.026 168.996L339.262 170.982ZM354.93 137.664C356.587 137.664 358.027 138.5 359.378 139.949C360.739 141.409 361.913 143.391 363.023 145.467C364.105 147.489 365.152 149.658 366.192 151.266C366.718 152.079 367.285 152.82 367.913 153.365C368.545 153.915 369.31 154.327 370.207 154.327V152.327C369.957 152.327 369.641 152.218 369.225 151.856C368.804 151.49 368.356 150.929 367.872 150.18C366.891 148.664 365.933 146.667 364.787 144.524C363.669 142.434 362.393 140.25 360.841 138.586C359.28 136.911 357.347 135.664 354.93 135.664V137.664ZM370.207 154.327C371.47 154.327 373.025 154.055 374.68 153.688C376.34 153.321 378.202 152.834 380.055 152.382C383.839 151.458 387.615 150.677 390.467 150.988L390.684 149C387.426 148.645 383.308 149.529 379.581 150.439C377.679 150.903 375.881 151.374 374.247 151.736C372.607 152.099 371.235 152.327 370.207 152.327V154.327ZM390.467 150.988C392.653 151.227 394.193 149.524 395.275 147.664C396.401 145.729 397.321 143.134 398.145 140.644C398.987 138.101 399.727 135.677 400.513 133.903C400.907 133.014 401.274 132.378 401.614 131.996C401.951 131.615 402.104 131.649 402.126 131.652L402.449 129.679C401.453 129.516 400.667 130.049 400.118 130.668C399.57 131.286 399.102 132.15 398.684 133.093C397.847 134.985 397.059 137.559 396.246 140.015C395.416 142.524 394.553 144.928 393.546 146.659C392.496 148.464 391.554 149.095 390.684 149L390.467 150.988ZM402.126 131.652C402.087 131.646 402.136 131.635 402.267 131.778C402.398 131.923 402.558 132.167 402.734 132.541C403.084 133.29 403.414 134.381 403.723 135.749C404.34 138.477 404.828 142.073 405.307 145.709C405.782 149.315 406.248 152.965 406.823 155.708C407.109 157.073 407.434 158.28 407.828 159.165C408.024 159.605 408.263 160.027 408.568 160.353C408.88 160.686 409.334 160.992 409.926 160.992V158.992C410.072 158.992 410.109 159.073 410.027 158.986C409.939 158.892 409.809 158.697 409.655 158.352C409.351 157.668 409.06 156.63 408.781 155.298C408.225 152.647 407.769 149.09 407.289 145.448C406.814 141.836 406.315 138.142 405.674 135.308C405.355 133.897 404.988 132.639 404.545 131.693C404.324 131.22 404.063 130.78 403.745 130.431C403.426 130.081 402.998 129.768 402.449 129.679L402.126 131.652ZM409.926 160.992C410.483 160.992 410.93 160.727 411.255 160.428C411.576 160.132 411.844 159.745 412.074 159.334C412.534 158.511 412.953 157.389 413.347 156.124C414.139 153.587 414.915 150.203 415.734 146.903C416.563 143.564 417.439 140.3 418.441 137.88C418.943 136.665 419.452 135.729 419.958 135.112C420.472 134.486 420.862 134.332 421.129 134.332V132.332C419.996 132.332 419.097 133.01 418.413 133.842C417.722 134.683 417.125 135.83 416.593 137.115C415.526 139.693 414.619 143.094 413.793 146.421C412.958 149.785 412.206 153.066 411.438 155.528C411.053 156.762 410.684 157.723 410.328 158.358C410.15 158.676 410.004 158.862 409.901 158.956C409.802 159.048 409.815 158.992 409.926 158.992V160.992ZM421.129 134.332C421.377 134.332 421.72 134.465 422.164 135.069C422.61 135.675 423.038 136.602 423.453 137.82C424.281 140.251 424.951 143.509 425.69 146.876C426.419 150.193 427.215 153.615 428.298 156.211C428.839 157.509 429.481 158.674 430.277 159.528C431.088 160.398 432.108 160.992 433.351 160.992V158.992C432.811 158.992 432.288 158.752 431.74 158.164C431.177 157.56 430.645 156.642 430.144 155.441C429.142 153.038 428.379 149.795 427.644 146.447C426.919 143.149 426.22 139.742 425.346 137.175C424.909 135.893 424.403 134.737 423.776 133.885C423.148 133.032 422.282 132.332 421.129 132.332V134.332ZM433.351 160.992C434.606 160.992 435.695 160.344 436.609 159.444C437.525 158.543 438.358 157.3 439.123 155.885C440.656 153.054 442.031 149.315 443.273 145.649C444.529 141.941 445.64 138.331 446.674 135.602C447.191 134.239 447.665 133.162 448.098 132.44C448.315 132.076 448.494 131.851 448.627 131.727C448.767 131.598 448.761 131.666 448.627 131.666V129.666C448.048 129.666 447.589 129.962 447.266 130.262C446.937 130.568 446.645 130.973 446.382 131.412C445.854 132.293 445.329 133.507 444.804 134.893C443.754 137.663 442.605 141.385 441.378 145.008C440.137 148.673 438.808 152.266 437.364 154.933C436.642 156.268 435.92 157.316 435.206 158.019C434.491 158.723 433.877 158.992 433.351 158.992V160.992ZM448.627 131.666C448.71 131.666 448.817 131.686 448.989 131.887C449.183 132.114 449.388 132.499 449.596 133.076C450.016 134.244 450.311 135.784 450.709 137.476C451.089 139.091 451.563 140.842 452.355 142.15C452.759 142.816 453.277 143.423 453.961 143.834C454.663 144.255 455.476 144.43 456.384 144.322L456.148 142.336C455.655 142.395 455.291 142.299 454.99 142.119C454.671 141.928 454.362 141.603 454.066 141.113C453.458 140.11 453.04 138.652 452.656 137.018C452.29 135.461 451.949 133.711 451.478 132.4C451.24 131.738 450.936 131.087 450.509 130.587C450.06 130.062 449.436 129.666 448.627 129.666V131.666ZM456.384 144.322C458.094 144.119 459.685 143.076 461.106 141.818C462.544 140.545 463.939 138.93 465.24 137.393C466.564 135.83 467.778 134.362 468.916 133.273C469.481 132.732 469.994 132.317 470.457 132.042C470.923 131.765 471.277 131.666 471.542 131.666V129.666C470.789 129.666 470.077 129.941 469.435 130.323C468.79 130.706 468.153 131.234 467.533 131.828C466.299 133.009 465 134.582 463.714 136.101C462.405 137.647 461.095 139.156 459.78 140.32C458.448 141.5 457.238 142.206 456.148 142.336L456.384 144.322ZM471.542 131.666C471.467 131.666 471.467 131.623 471.558 131.712C471.661 131.812 471.806 132.011 471.973 132.358C472.305 133.052 472.618 134.104 472.912 135.46C473.498 138.158 473.954 141.772 474.434 145.458C474.909 149.109 475.409 152.832 476.084 155.643C476.42 157.041 476.816 158.288 477.311 159.206C477.772 160.061 478.52 160.992 479.69 160.992V158.992C479.684 158.992 479.676 158.991 479.659 158.984C479.639 158.976 479.599 158.955 479.541 158.905C479.418 158.799 479.256 158.598 479.071 158.257C478.701 157.571 478.353 156.527 478.029 155.176C477.383 152.488 476.896 148.879 476.417 145.199C475.942 141.554 475.475 137.836 474.867 135.036C474.564 133.642 474.213 132.403 473.776 131.493C473.558 131.038 473.291 130.607 472.952 130.277C472.601 129.937 472.127 129.666 471.542 129.666V131.666ZM479.69 160.992C480.587 160.992 481.352 160.58 481.983 160.028C482.609 159.481 483.171 158.738 483.686 157.922C484.711 156.3 485.701 154.14 486.699 152.1C487.72 150.012 488.76 148.021 489.925 146.555C491.1 145.076 492.244 144.329 493.439 144.329V142.329C491.325 142.329 489.667 143.665 488.36 145.31C487.042 146.968 485.918 149.143 484.902 151.221C483.863 153.346 482.944 155.352 481.995 156.854C481.524 157.6 481.083 158.159 480.667 158.523C480.255 158.882 479.939 158.992 479.69 158.992V160.992ZM493.439 144.329C496.915 144.329 498.737 143.621 500.096 142.872C501.463 142.119 501.918 141.663 503.114 141.663V139.663C501.255 139.663 500.183 140.54 499.131 141.12C498.071 141.704 496.583 142.329 493.439 142.329V144.329ZM503.114 141.663C503.515 141.663 503.916 141.849 504.413 142.323C504.929 142.816 505.407 143.478 506.012 144.269C507.123 145.723 508.672 147.662 511.262 147.662V145.662C509.778 145.662 508.781 144.6 507.601 143.055C507.059 142.346 506.456 141.509 505.794 140.877C505.113 140.227 504.241 139.663 503.114 139.663V141.663ZM511.262 147.662C512.104 147.662 512.843 147.251 513.453 146.742C514.071 146.226 514.659 145.524 515.218 144.744C516.333 143.188 517.463 141.128 518.565 139.15C519.686 137.137 520.782 135.202 521.869 133.769C522.412 133.054 522.92 132.508 523.392 132.147C523.865 131.785 524.228 131.666 524.502 131.666V129.666C523.63 129.666 522.847 130.046 522.177 130.559C521.504 131.073 520.871 131.776 520.276 132.56C519.088 134.127 517.924 136.191 516.817 138.177C515.691 140.198 514.625 142.138 513.592 143.58C513.076 144.3 512.602 144.847 512.172 145.206C511.734 145.572 511.439 145.662 511.262 145.662V147.662ZM524.502 131.666C525.105 131.666 525.703 132.061 526.367 133.161C527.022 134.246 527.561 135.726 528.145 137.338C528.707 138.892 529.313 140.578 530.09 141.867C530.859 143.141 531.979 144.329 533.668 144.329V142.329C533.065 142.329 532.467 141.934 531.803 140.834C531.148 139.748 530.608 138.269 530.025 136.657C529.463 135.103 528.857 133.416 528.079 132.128C527.311 130.853 526.19 129.666 524.502 129.666V131.666ZM533.668 144.329C535.166 144.329 536.736 143.432 538.196 142.366C539.697 141.271 541.318 139.814 542.919 138.417C544.544 136.999 546.165 135.627 547.744 134.609C549.339 133.581 550.763 132.999 552 132.999V130.999C550.182 130.999 548.36 131.832 546.66 132.929C544.945 134.035 543.224 135.496 541.604 136.91C539.958 138.346 538.428 139.722 537.017 140.751C535.565 141.81 534.461 142.329 533.668 142.329V144.329Z" fill="url(#paint0_linear_3827_5110)"/>
<path d="M1.152 208.884C2.112 208.884 2.544 208.452 2.544 207.48H3.576V216H2.268V209.928H0.468V208.884H1.152ZM10.467 209.46C10.227 208.836 9.687 208.476 8.943 208.476C7.707 208.476 6.987 209.568 6.855 211.452C7.311 210.672 8.055 210.252 8.967 210.252C10.659 210.252 11.811 211.452 11.811 213.18C11.811 215.052 10.503 216.192 8.691 216.192C7.887 216.192 7.107 215.892 6.471 215.22C5.871 214.584 5.583 213.516 5.583 212.22C5.583 209.64 6.471 207.288 8.955 207.288C10.287 207.288 11.403 208.032 11.763 209.376L10.467 209.46ZM6.963 213.18C6.939 214.26 7.671 215.028 8.727 215.028C9.747 215.028 10.467 214.26 10.467 213.18C10.467 212.124 9.771 211.38 8.799 211.38C7.731 211.38 6.975 212.124 6.963 213.18ZM13.5359 214.524H15.0599V216H13.5359V214.524ZM13.5359 211.884V210.408H15.0599V211.884H13.5359ZM20.1581 216.192C18.0101 216.192 16.6901 214.464 16.6901 211.752C16.6901 209.028 18.0101 207.288 20.1581 207.288C22.3061 207.288 23.6261 209.028 23.6261 211.752C23.6261 214.464 22.3061 216.192 20.1581 216.192ZM18.0581 211.752C18.0581 213.84 18.8021 214.992 20.1581 214.992C21.5141 214.992 22.2581 213.84 22.2581 211.752C22.2581 209.652 21.5141 208.488 20.1581 208.488C18.8021 208.488 18.0581 209.652 18.0581 211.752ZM28.3144 216.192C26.1664 216.192 24.8464 214.464 24.8464 211.752C24.8464 209.028 26.1664 207.288 28.3144 207.288C30.4624 207.288 31.7824 209.028 31.7824 211.752C31.7824 214.464 30.4624 216.192 28.3144 216.192ZM26.2144 211.752C26.2144 213.84 26.9584 214.992 28.3144 214.992C29.6704 214.992 30.4144 213.84 30.4144 211.752C30.4144 209.652 29.6704 208.488 28.3144 208.488C26.9584 208.488 26.2144 209.652 26.2144 211.752Z" fill="url(#paint1_linear_3827_5110)"/>
<path d="M65.402 208.884C66.362 208.884 66.794 208.452 66.794 207.48H67.826V216H66.518V209.928H64.718V208.884H65.402ZM74.717 209.46C74.477 208.836 73.937 208.476 73.193 208.476C71.957 208.476 71.237 209.568 71.105 211.452C71.561 210.672 72.305 210.252 73.217 210.252C74.909 210.252 76.061 211.452 76.061 213.18C76.061 215.052 74.753 216.192 72.941 216.192C72.137 216.192 71.357 215.892 70.721 215.22C70.121 214.584 69.833 213.516 69.833 212.22C69.833 209.64 70.721 207.288 73.205 207.288C74.537 207.288 75.653 208.032 76.013 209.376L74.717 209.46ZM71.213 213.18C71.189 214.26 71.921 215.028 72.977 215.028C73.997 215.028 74.717 214.26 74.717 213.18C74.717 212.124 74.021 211.38 73.049 211.38C71.981 211.38 71.225 212.124 71.213 213.18ZM77.7859 214.524H79.3099V216H77.7859V214.524ZM77.7859 211.884V210.408H79.3099V211.884H77.7859ZM84.4081 216.192C82.2601 216.192 80.9401 214.464 80.9401 211.752C80.9401 209.028 82.2601 207.288 84.4081 207.288C86.5561 207.288 87.8761 209.028 87.8761 211.752C87.8761 214.464 86.5561 216.192 84.4081 216.192ZM82.3081 211.752C82.3081 213.84 83.0521 214.992 84.4081 214.992C85.7641 214.992 86.5081 213.84 86.5081 211.752C86.5081 209.652 85.7641 208.488 84.4081 208.488C83.0521 208.488 82.3081 209.652 82.3081 211.752ZM92.5644 216.192C90.4164 216.192 89.0964 214.464 89.0964 211.752C89.0964 209.028 90.4164 207.288 92.5644 207.288C94.7124 207.288 96.0324 209.028 96.0324 211.752C96.0324 214.464 94.7124 216.192 92.5644 216.192ZM90.4644 211.752C90.4644 213.84 91.2084 214.992 92.5644 214.992C93.9204 214.992 94.6644 213.84 94.6644 211.752C94.6644 209.652 93.9204 208.488 92.5644 208.488C91.2084 208.488 90.4644 209.652 90.4644 211.752Z" fill="#898E87"/>
<path d="M129.652 208.884C130.612 208.884 131.044 208.452 131.044 207.48H132.076V216H130.768V209.928H128.968V208.884H129.652ZM133.82 207.48H139.952V208.596C138.296 210.672 137.156 213.18 137.192 216H135.836C135.836 213.3 136.904 210.78 138.584 208.68H133.82V207.48ZM141.45 214.524H142.974V216H141.45V214.524ZM141.45 211.884V210.408H142.974V211.884H141.45ZM148.072 216.192C145.924 216.192 144.604 214.464 144.604 211.752C144.604 209.028 145.924 207.288 148.072 207.288C150.22 207.288 151.54 209.028 151.54 211.752C151.54 214.464 150.22 216.192 148.072 216.192ZM145.972 211.752C145.972 213.84 146.716 214.992 148.072 214.992C149.428 214.992 150.172 213.84 150.172 211.752C150.172 209.652 149.428 208.488 148.072 208.488C146.716 208.488 145.972 209.652 145.972 211.752ZM156.228 216.192C154.08 216.192 152.76 214.464 152.76 211.752C152.76 209.028 154.08 207.288 156.228 207.288C158.376 207.288 159.696 209.028 159.696 211.752C159.696 214.464 158.376 216.192 156.228 216.192ZM154.128 211.752C154.128 213.84 154.872 214.992 156.228 214.992C157.584 214.992 158.328 213.84 158.328 211.752C158.328 209.652 157.584 208.488 156.228 208.488C154.872 208.488 154.128 209.652 154.128 211.752Z" fill="#898E87"/>
<path d="M192.902 208.884C193.862 208.884 194.294 208.452 194.294 207.48H195.326V216H194.018V209.928H192.218V208.884H192.902ZM200.381 216.192C198.425 216.192 197.093 215.22 197.093 213.66C197.093 212.592 197.729 211.764 198.797 211.38C197.969 211.056 197.501 210.492 197.501 209.628C197.501 208.272 198.677 207.288 200.381 207.288C202.085 207.288 203.261 208.272 203.261 209.628C203.261 210.492 202.781 211.056 201.953 211.38C203.033 211.776 203.669 212.604 203.669 213.66C203.669 215.22 202.325 216.192 200.381 216.192ZM198.449 213.516C198.449 214.416 199.205 214.992 200.381 214.992C201.545 214.992 202.301 214.416 202.301 213.516C202.301 212.616 201.545 212.04 200.381 212.04C199.205 212.04 198.449 212.616 198.449 213.516ZM198.857 209.688C198.857 210.432 199.433 210.888 200.381 210.888C201.317 210.888 201.893 210.432 201.893 209.688C201.893 208.956 201.317 208.488 200.381 208.488C199.433 208.488 198.857 208.956 198.857 209.688ZM205.157 214.524H206.681V216H205.157V214.524ZM205.157 211.884V210.408H206.681V211.884H205.157ZM211.779 216.192C209.631 216.192 208.311 214.464 208.311 211.752C208.311 209.028 209.631 207.288 211.779 207.288C213.927 207.288 215.247 209.028 215.247 211.752C215.247 214.464 213.927 216.192 211.779 216.192ZM209.679 211.752C209.679 213.84 210.423 214.992 211.779 214.992C213.135 214.992 213.879 213.84 213.879 211.752C213.879 209.652 213.135 208.488 211.779 208.488C210.423 208.488 209.679 209.652 209.679 211.752ZM219.935 216.192C217.787 216.192 216.467 214.464 216.467 211.752C216.467 209.028 217.787 207.288 219.935 207.288C222.083 207.288 223.403 209.028 223.403 211.752C223.403 214.464 222.083 216.192 219.935 216.192ZM217.835 211.752C217.835 213.84 218.579 214.992 219.935 214.992C221.291 214.992 222.035 213.84 222.035 211.752C222.035 209.652 221.291 208.488 219.935 208.488C218.579 208.488 217.835 209.652 217.835 211.752Z" fill="#898E87"/>
<path d="M257.152 208.884C258.112 208.884 258.544 208.452 258.544 207.48H259.576V216H258.268V209.928H256.468V208.884H257.152ZM264.631 216.192C262.675 216.192 261.343 215.22 261.343 213.66C261.343 212.592 261.979 211.764 263.047 211.38C262.219 211.056 261.751 210.492 261.751 209.628C261.751 208.272 262.927 207.288 264.631 207.288C266.335 207.288 267.511 208.272 267.511 209.628C267.511 210.492 267.031 211.056 266.203 211.38C267.283 211.776 267.919 212.604 267.919 213.66C267.919 215.22 266.575 216.192 264.631 216.192ZM262.699 213.516C262.699 214.416 263.455 214.992 264.631 214.992C265.795 214.992 266.551 214.416 266.551 213.516C266.551 212.616 265.795 212.04 264.631 212.04C263.455 212.04 262.699 212.616 262.699 213.516ZM263.107 209.688C263.107 210.432 263.683 210.888 264.631 210.888C265.567 210.888 266.143 210.432 266.143 209.688C266.143 208.956 265.567 208.488 264.631 208.488C263.683 208.488 263.107 208.956 263.107 209.688ZM269.407 214.524H270.931V216H269.407V214.524ZM269.407 211.884V210.408H270.931V211.884H269.407ZM276.029 216.192C273.881 216.192 272.561 214.464 272.561 211.752C272.561 209.028 273.881 207.288 276.029 207.288C278.177 207.288 279.497 209.028 279.497 211.752C279.497 214.464 278.177 216.192 276.029 216.192ZM273.929 211.752C273.929 213.84 274.673 214.992 276.029 214.992C277.385 214.992 278.129 213.84 278.129 211.752C278.129 209.652 277.385 208.488 276.029 208.488C274.673 208.488 273.929 209.652 273.929 211.752ZM284.185 216.192C282.037 216.192 280.717 214.464 280.717 211.752C280.717 209.028 282.037 207.288 284.185 207.288C286.333 207.288 287.653 209.028 287.653 211.752C287.653 214.464 286.333 216.192 284.185 216.192ZM282.085 211.752C282.085 213.84 282.829 214.992 284.185 214.992C285.541 214.992 286.285 213.84 286.285 211.752C286.285 209.652 285.541 208.488 284.185 208.488C282.829 208.488 282.085 209.652 282.085 211.752Z" fill="#898E87"/>
<path d="M321.402 208.884C322.362 208.884 322.794 208.452 322.794 207.48H323.826V216H322.518V209.928H320.718V208.884H321.402ZM325.833 210.324C325.833 208.44 327.141 207.288 328.941 207.288C329.745 207.288 330.549 207.588 331.185 208.272C331.773 208.92 332.073 209.988 332.073 211.308C332.073 213.876 331.221 216.192 328.737 216.192C327.405 216.192 326.361 215.508 325.941 214.26L327.261 214.164C327.525 214.704 328.053 215.004 328.713 215.004C329.961 215.004 330.681 213.936 330.801 212.088C330.369 212.832 329.637 213.276 328.665 213.276C326.997 213.276 325.833 212.076 325.833 210.324ZM327.177 210.324C327.177 211.38 327.849 212.148 328.845 212.148C329.913 212.148 330.657 211.38 330.669 210.324C330.693 209.244 329.973 208.452 328.917 208.452C327.885 208.452 327.177 209.244 327.177 210.324ZM333.809 214.524H335.333V216H333.809V214.524ZM333.809 211.884V210.408H335.333V211.884H333.809ZM340.432 216.192C338.284 216.192 336.964 214.464 336.964 211.752C336.964 209.028 338.284 207.288 340.432 207.288C342.58 207.288 343.9 209.028 343.9 211.752C343.9 214.464 342.58 216.192 340.432 216.192ZM338.332 211.752C338.332 213.84 339.076 214.992 340.432 214.992C341.788 214.992 342.532 213.84 342.532 211.752C342.532 209.652 341.788 208.488 340.432 208.488C339.076 208.488 338.332 209.652 338.332 211.752ZM348.588 216.192C346.44 216.192 345.12 214.464 345.12 211.752C345.12 209.028 346.44 207.288 348.588 207.288C350.736 207.288 352.056 209.028 352.056 211.752C352.056 214.464 350.736 216.192 348.588 216.192ZM346.488 211.752C346.488 213.84 347.232 214.992 348.588 214.992C349.944 214.992 350.688 213.84 350.688 211.752C350.688 209.652 349.944 208.488 348.588 208.488C347.232 208.488 346.488 209.652 346.488 211.752Z" fill="#898E87"/>
<path d="M385.34 210.084C385.532 208.476 386.708 207.288 388.472 207.288C390.104 207.288 391.304 208.344 391.304 209.772C391.304 211.044 390.296 211.848 389.048 212.604C388.484 212.928 386.864 213.996 386.828 214.8H391.352V216H385.208C385.208 213.444 386.912 212.448 388.448 211.512C389.312 210.96 389.936 210.384 389.936 209.76C389.936 209.016 389.336 208.488 388.472 208.488C387.536 208.488 386.9 209.088 386.696 210.168L385.34 210.084ZM396.139 216.192C393.991 216.192 392.671 214.464 392.671 211.752C392.671 209.028 393.991 207.288 396.139 207.288C398.287 207.288 399.607 209.028 399.607 211.752C399.607 214.464 398.287 216.192 396.139 216.192ZM394.039 211.752C394.039 213.84 394.783 214.992 396.139 214.992C397.495 214.992 398.239 213.84 398.239 211.752C398.239 209.652 397.495 208.488 396.139 208.488C394.783 208.488 394.039 209.652 394.039 211.752ZM401.247 214.524H402.771V216H401.247V214.524ZM401.247 211.884V210.408H402.771V211.884H401.247ZM407.869 216.192C405.721 216.192 404.401 214.464 404.401 211.752C404.401 209.028 405.721 207.288 407.869 207.288C410.017 207.288 411.337 209.028 411.337 211.752C411.337 214.464 410.017 216.192 407.869 216.192ZM405.769 211.752C405.769 213.84 406.513 214.992 407.869 214.992C409.225 214.992 409.969 213.84 409.969 211.752C409.969 209.652 409.225 208.488 407.869 208.488C406.513 208.488 405.769 209.652 405.769 211.752ZM416.025 216.192C413.877 216.192 412.557 214.464 412.557 211.752C412.557 209.028 413.877 207.288 416.025 207.288C418.173 207.288 419.493 209.028 419.493 211.752C419.493 214.464 418.173 216.192 416.025 216.192ZM413.925 211.752C413.925 213.84 414.669 214.992 416.025 214.992C417.381 214.992 418.125 213.84 418.125 211.752C418.125 209.652 417.381 208.488 416.025 208.488C414.669 208.488 413.925 209.652 413.925 211.752Z" fill="#898E87"/>
<path d="M452.59 210.084C452.782 208.476 453.958 207.288 455.722 207.288C457.354 207.288 458.554 208.344 458.554 209.772C458.554 211.044 457.546 211.848 456.298 212.604C455.734 212.928 454.114 213.996 454.078 214.8H458.602V216H452.458C452.458 213.444 454.162 212.448 455.698 211.512C456.562 210.96 457.186 210.384 457.186 209.76C457.186 209.016 456.586 208.488 455.722 208.488C454.786 208.488 454.15 209.088 453.946 210.168L452.59 210.084ZM460.461 208.884C461.421 208.884 461.853 208.452 461.853 207.48H462.885V216H461.577V209.928H459.777V208.884H460.461ZM465.216 214.524H466.74V216H465.216V214.524ZM465.216 211.884V210.408H466.74V211.884H465.216ZM471.838 216.192C469.69 216.192 468.37 214.464 468.37 211.752C468.37 209.028 469.69 207.288 471.838 207.288C473.986 207.288 475.306 209.028 475.306 211.752C475.306 214.464 473.986 216.192 471.838 216.192ZM469.738 211.752C469.738 213.84 470.482 214.992 471.838 214.992C473.194 214.992 473.938 213.84 473.938 211.752C473.938 209.652 473.194 208.488 471.838 208.488C470.482 208.488 469.738 209.652 469.738 211.752ZM479.994 216.192C477.846 216.192 476.526 214.464 476.526 211.752C476.526 209.028 477.846 207.288 479.994 207.288C482.142 207.288 483.462 209.028 483.462 211.752C483.462 214.464 482.142 216.192 479.994 216.192ZM477.894 211.752C477.894 213.84 478.638 214.992 479.994 214.992C481.35 214.992 482.094 213.84 482.094 211.752C482.094 209.652 481.35 208.488 479.994 208.488C478.638 208.488 477.894 209.652 477.894 211.752Z" fill="#898E87"/>
<path d="M516.84 210.084C517.032 208.476 518.208 207.288 519.972 207.288C521.604 207.288 522.804 208.344 522.804 209.772C522.804 211.044 521.796 211.848 520.548 212.604C519.984 212.928 518.364 213.996 518.328 214.8H522.852V216H516.708C516.708 213.444 518.412 212.448 519.948 211.512C520.812 210.96 521.436 210.384 521.436 209.76C521.436 209.016 520.836 208.488 519.972 208.488C519.036 208.488 518.4 209.088 518.196 210.168L516.84 210.084ZM524.399 210.084C524.591 208.476 525.767 207.288 527.531 207.288C529.163 207.288 530.363 208.344 530.363 209.772C530.363 211.044 529.355 211.848 528.107 212.604C527.543 212.928 525.923 213.996 525.887 214.8H530.411V216H524.267C524.267 213.444 525.971 212.448 527.507 211.512C528.371 210.96 528.995 210.384 528.995 209.76C528.995 209.016 528.395 208.488 527.531 208.488C526.595 208.488 525.959 209.088 525.755 210.168L524.399 210.084ZM532.149 214.524H533.673V216H532.149V214.524ZM532.149 211.884V210.408H533.673V211.884H532.149ZM538.771 216.192C536.623 216.192 535.303 214.464 535.303 211.752C535.303 209.028 536.623 207.288 538.771 207.288C540.919 207.288 542.239 209.028 542.239 211.752C542.239 214.464 540.919 216.192 538.771 216.192ZM536.671 211.752C536.671 213.84 537.415 214.992 538.771 214.992C540.127 214.992 540.871 213.84 540.871 211.752C540.871 209.652 540.127 208.488 538.771 208.488C537.415 208.488 536.671 209.652 536.671 211.752ZM546.928 216.192C544.78 216.192 543.46 214.464 543.46 211.752C543.46 209.028 544.78 207.288 546.928 207.288C549.076 207.288 550.396 209.028 550.396 211.752C550.396 214.464 549.076 216.192 546.928 216.192ZM544.828 211.752C544.828 213.84 545.572 214.992 546.928 214.992C548.284 214.992 549.028 213.84 549.028 211.752C549.028 209.652 548.284 208.488 546.928 208.488C545.572 208.488 544.828 209.652 544.828 211.752Z" fill="#898E87"/>
<path d="M552 191L48 191" stroke="#DFE2DF" stroke-width="2"/>
<path d="M48 191H0" stroke="url(#paint2_linear_3827_5110)" stroke-width="2"/>
</g>
<defs>
<linearGradient id="paint0_linear_3827_5110" x1="552" y1="169.997" x2="-54.1877" y2="169.996" gradientUnits="userSpaceOnUse">
<stop offset="0.005" stop-color="#7DA549"/>
<stop offset="0.45" stop-color="#A3E64C"/>
<stop offset="1" stop-color="#E9FFCC" stop-opacity="0"/>
</linearGradient>
<linearGradient id="paint1_linear_3827_5110" x1="0" y1="212" x2="49" y2="212" gradientUnits="userSpaceOnUse">
<stop stop-color="#898E87" stop-opacity="0"/>
<stop offset="1" stop-color="#898E87"/>
</linearGradient>
<linearGradient id="paint2_linear_3827_5110" x1="0" y1="191" x2="48" y2="191" gradientUnits="userSpaceOnUse">
<stop stop-color="#D7DAD7" stop-opacity="0.26"/>
<stop offset="1" stop-color="#D7DAD7"/>
</linearGradient>
<clipPath id="clip0_3827_5110">
<rect width="600" height="260" fill="white"/>
</clipPath>
</defs>
</svg>
