<svg width="600" height="260" viewBox="0 0 600 260" fill="none" xmlns="http://www.w3.org/2000/svg">
<g clip-path="url(#clip0_3827_5392)">
<path d="M479.183 203.199C479.049 202.376 479.013 201.358 479.003 200.003L479.503 200C479.5 199.514 479.5 198.983 479.5 198.4V196.2H479V191.8H479.5V189.6C479.5 189.017 479.5 188.486 479.503 188L479.003 187.997C479.013 186.642 479.049 185.624 479.183 184.801L479.677 184.882C479.768 184.328 479.902 183.89 480.099 183.503C480.231 183.245 480.382 182.999 480.55 182.767L480.146 182.473C480.516 181.964 480.964 181.516 481.473 181.146L481.767 181.55C481.999 181.382 482.245 181.231 482.503 181.099C482.89 180.902 483.328 180.768 483.882 180.677L483.801 180.183C484.624 180.049 485.642 180.013 486.997 180.003L487 180.503C487.486 180.5 488.017 180.5 488.6 180.5H490.55V180H494.45V180.5H498.35V180H502.25V180.5H506.15V180H510.05V180.5H513.95V180H517.85V180.5H521.75V180H525.65V180.5H529.55V180H533.45V180.5H537.35V180H541.25V180.5H545.15V180H549.05V180.5H552.95V180H556.85V180.5H560.75V180H564.65V180.5H568.55V180H572.45V180.5H574.4C574.983 180.5 575.514 180.5 576 180.503L576.003 180.003C577.358 180.013 578.376 180.049 579.199 180.183L579.118 180.677C579.672 180.768 580.11 180.902 580.497 181.099C580.755 181.231 581.001 181.382 581.233 181.55L581.527 181.146C582.036 181.516 582.484 181.964 582.854 182.473L582.45 182.767C582.618 182.999 582.769 183.245 582.901 183.503C583.098 183.89 583.232 184.328 583.323 184.882L583.817 184.801C583.951 185.624 583.987 186.642 583.997 187.997L583.497 188C583.5 188.486 583.5 189.017 583.5 189.6V191.8H584V196.2H583.5V198.4C583.5 198.983 583.5 199.514 583.497 200L583.997 200.003C583.987 201.358 583.951 202.376 583.817 203.199L583.323 203.118C583.232 203.672 583.098 204.11 582.901 204.497C582.769 204.755 582.618 205.001 582.45 205.233L582.854 205.527C582.484 206.036 582.036 206.484 581.527 206.854L581.233 206.45C581.001 206.618 580.755 206.769 580.497 206.901C580.11 207.098 579.672 207.232 579.118 207.323L579.199 207.817C578.376 207.951 577.358 207.987 576.003 207.997L576 207.497C575.514 207.5 574.983 207.5 574.4 207.5H572.45V208H568.55V207.5H564.65V208H560.75V207.5H556.85V208H552.95V207.5H549.05V208H545.15V207.5H541.25V208H537.35V207.5H533.45V208H529.55V207.5H525.65V208H521.75V207.5H517.85V208H513.95V207.5H510.05V208H506.15V207.5H502.25V208H498.35V207.5H494.45V208H490.55V207.5H488.6C488.017 207.5 487.486 207.5 487 207.497L486.997 207.997C485.642 207.987 484.624 207.951 483.801 207.817L483.882 207.323C483.328 207.232 482.89 207.098 482.503 206.901C482.245 206.769 481.999 206.618 481.767 206.45L481.473 206.854C480.964 206.484 480.516 206.036 480.146 205.527L480.55 205.233C480.382 205.001 480.231 204.755 480.099 204.497C479.902 204.11 479.768 203.672 479.677 203.118L479.183 203.199Z" stroke="#2F312E" stroke-dasharray="4 4"/>
<path d="M492.064 195.06C492.076 196.308 492.616 196.992 493.576 196.992C494.572 196.992 495.124 196.272 495.124 195V189.48H496.444V195C496.444 196.944 495.316 198.192 493.564 198.192C491.908 198.192 490.744 196.932 490.732 195.156L492.064 195.06ZM499.329 195.168C499.533 196.236 500.277 196.944 501.525 196.944C502.521 196.944 503.181 196.56 503.181 195.792C503.169 195.012 502.497 194.544 500.925 194.148C499.389 193.776 498.153 193.068 498.153 191.688C498.153 190.212 499.353 189.288 501.081 189.288C502.941 189.288 504.189 190.44 504.369 192.06L503.025 192.132C502.881 191.136 502.137 190.488 501.057 190.488C500.157 190.488 499.497 190.956 499.509 191.7C499.521 192.636 500.649 192.9 501.645 193.164C503.301 193.584 504.537 194.376 504.537 195.696C504.537 197.292 503.085 198.144 501.453 198.144C499.509 198.144 498.117 197.004 497.973 195.252L499.329 195.168ZM509.747 198.192C507.263 198.192 505.763 196.5 505.763 193.752C505.763 190.98 507.263 189.288 509.747 189.288C512.243 189.288 513.731 190.98 513.731 193.752C513.731 196.5 512.243 198.192 509.747 198.192ZM507.131 193.752C507.131 195.768 508.103 196.992 509.747 196.992C511.391 196.992 512.363 195.768 512.363 193.752C512.363 191.712 511.391 190.488 509.747 190.488C508.103 190.488 507.131 191.712 507.131 193.752ZM515.184 189.48H516.828L520.704 196.272V189.48H522.024V198H520.308L516.504 191.364V198H515.184V189.48ZM528.005 195.168C528.209 196.236 528.953 196.944 530.201 196.944C531.197 196.944 531.857 196.56 531.857 195.792C531.845 195.012 531.173 194.544 529.601 194.148C528.065 193.776 526.829 193.068 526.829 191.688C526.829 190.212 528.029 189.288 529.757 189.288C531.617 189.288 532.865 190.44 533.045 192.06L531.701 192.132C531.557 191.136 530.813 190.488 529.733 190.488C528.833 190.488 528.173 190.956 528.185 191.7C528.197 192.636 529.325 192.9 530.321 193.164C531.977 193.584 533.213 194.376 533.213 195.696C533.213 197.292 531.761 198.144 530.129 198.144C528.185 198.144 526.793 197.004 526.649 195.252L528.005 195.168ZM538.915 193.872C538.795 193.08 538.171 192.612 537.451 192.612C536.371 192.612 535.759 193.44 535.759 194.82C535.759 196.2 536.371 197.028 537.451 197.028C538.207 197.028 538.819 196.536 538.951 195.66L540.307 195.732C540.115 197.22 538.915 198.144 537.451 198.144C535.615 198.144 534.415 196.848 534.415 194.82C534.415 192.792 535.615 191.496 537.451 191.496C538.867 191.496 540.091 192.372 540.259 193.8L538.915 193.872ZM541.548 189.48H542.844V192.492C543.216 191.784 543.936 191.496 544.704 191.496C546.132 191.496 546.852 192.552 546.852 193.908V198H545.556V194.364C545.556 193.248 545.22 192.648 544.344 192.648C543.42 192.648 542.844 193.248 542.844 194.364V198H541.548V189.48ZM548.114 194.82C548.114 192.792 549.314 191.496 551.15 191.496C552.662 191.496 553.958 192.504 554.03 194.772V195.192H549.482C549.554 196.356 550.154 197.04 551.15 197.04C551.774 197.04 552.338 196.68 552.602 196.08L553.946 196.176C553.562 197.388 552.446 198.144 551.15 198.144C549.314 198.144 548.114 196.848 548.114 194.82ZM549.494 194.22H552.674C552.518 193.02 551.858 192.6 551.15 192.6C550.226 192.6 549.638 193.2 549.494 194.22ZM555.4 191.64H556.564L556.612 192.672C556.912 191.928 557.56 191.496 558.412 191.496C559.324 191.496 559.984 191.976 560.26 192.816C560.548 191.952 561.208 191.496 562.168 191.496C563.452 191.496 564.22 192.36 564.22 193.908V198H562.936V194.304C562.936 193.188 562.54 192.588 561.82 192.588C560.92 192.588 560.428 193.2 560.428 194.304V198H559.204V194.304C559.204 193.2 558.796 192.588 558.088 192.588C557.2 192.588 556.696 193.212 556.696 194.304V198H555.4V191.64ZM565.753 193.548C566.005 192.264 567.013 191.496 568.477 191.496C570.217 191.496 571.165 192.456 571.165 194.196V196.56C571.165 196.872 571.297 196.98 571.549 196.98H571.813V198H571.405C570.829 198.012 570.037 197.916 569.977 197.028C569.701 197.628 568.993 198.144 567.937 198.144C566.665 198.144 565.645 197.46 565.645 196.332C565.645 195.06 566.593 194.688 568.057 194.4L569.869 194.052C569.857 193.032 569.401 192.552 568.477 192.552C567.745 192.552 567.265 192.924 567.085 193.632L565.753 193.548ZM566.989 196.308C566.989 196.764 567.385 197.148 568.213 197.148C569.161 197.148 569.893 196.464 569.893 195.096V195.036L568.549 195.276C567.685 195.432 566.989 195.504 566.989 196.308Z" fill="#ECEEEC"/>
<path d="M529.183 167.199C529.049 166.376 529.013 165.358 529.003 164.003L529.503 164C529.5 163.514 529.5 162.983 529.5 162.4V160.2H529V155.8H529.5V153.6C529.5 153.017 529.5 152.486 529.503 152L529.003 151.997C529.013 150.642 529.049 149.624 529.183 148.801L529.677 148.882C529.768 148.328 529.902 147.89 530.099 147.503C530.231 147.245 530.382 146.999 530.55 146.767L530.146 146.473C530.516 145.964 530.964 145.516 531.473 145.146L531.767 145.55C531.999 145.382 532.245 145.231 532.503 145.099C532.89 144.902 533.328 144.768 533.882 144.677L533.801 144.183C534.624 144.049 535.642 144.013 536.997 144.003L537 144.503C537.486 144.5 538.017 144.5 538.6 144.5H540.838V144H545.312V144.5H549.788V144H554.263V144.5H558.738V144H563.213V144.5H567.688V144H572.163V144.5H574.4C574.983 144.5 575.514 144.5 576 144.503L576.003 144.003C577.358 144.013 578.376 144.049 579.199 144.183L579.118 144.677C579.672 144.768 580.11 144.902 580.497 145.099C580.755 145.231 581.001 145.382 581.233 145.55L581.527 145.146C582.036 145.516 582.484 145.964 582.854 146.473L582.45 146.767C582.618 146.999 582.769 147.245 582.901 147.503C583.098 147.89 583.232 148.328 583.323 148.882L583.817 148.801C583.951 149.624 583.987 150.642 583.997 151.997L583.497 152C583.5 152.486 583.5 153.017 583.5 153.6V155.8H584V160.2H583.5V162.4C583.5 162.983 583.5 163.514 583.497 164L583.997 164.003C583.987 165.358 583.951 166.376 583.817 167.199L583.323 167.118C583.232 167.672 583.098 168.11 582.901 168.497C582.769 168.755 582.618 169.001 582.45 169.233L582.854 169.527C582.484 170.036 582.036 170.484 581.527 170.854L581.233 170.45C581.001 170.618 580.755 170.769 580.497 170.901C580.11 171.098 579.672 171.232 579.118 171.323L579.199 171.817C578.376 171.951 577.358 171.987 576.003 171.997L576 171.497C575.514 171.5 574.983 171.5 574.4 171.5H572.162V172H567.688V171.5H563.213V172H558.737V171.5H554.262V172H549.787V171.5H545.312V172H540.837V171.5H538.6C538.017 171.5 537.486 171.5 537 171.497L536.997 171.997C535.642 171.987 534.624 171.951 533.801 171.817L533.882 171.323C533.328 171.232 532.89 171.098 532.503 170.901C532.245 170.769 531.999 170.618 531.767 170.45L531.473 170.854C530.964 170.484 530.516 170.036 530.146 169.527L530.55 169.233C530.382 169.001 530.231 168.755 530.099 168.497C529.902 168.11 529.768 167.672 529.677 167.118L529.183 167.199Z" stroke="#2F312E" stroke-dasharray="4 4"/>
<path d="M540.264 162L543.336 153.48H545.004L548.076 162H546.672L545.904 159.792H542.436L541.668 162H540.264ZM542.844 158.592H545.496L544.176 154.74L542.844 158.592ZM547.647 153.48H549.051L551.547 160.524L554.031 153.48H555.435L552.363 162H550.719L547.647 153.48ZM559.979 153.48C561.755 153.48 562.931 154.452 562.931 156.048C562.931 157.08 562.271 157.824 561.479 158.052C562.331 158.184 562.703 158.616 562.787 159.516L563.015 162H561.683L561.491 159.684C561.419 158.928 560.951 158.688 559.799 158.688H557.891V162H556.571V153.48H559.979ZM557.891 157.476H559.895C560.963 157.476 561.575 156.984 561.575 156.084C561.575 155.184 560.963 154.68 559.895 154.68H557.891V157.476ZM568.067 162.192C565.583 162.192 564.083 160.5 564.083 157.752C564.083 154.98 565.583 153.288 568.067 153.288C570.563 153.288 572.051 154.98 572.051 157.752C572.051 160.5 570.563 162.192 568.067 162.192ZM565.451 157.752C565.451 159.768 566.423 160.992 568.067 160.992C569.711 160.992 570.683 159.768 570.683 157.752C570.683 155.712 569.711 154.488 568.067 154.488C566.423 154.488 565.451 155.712 565.451 157.752Z" fill="#ECEEEC"/>
<path d="M512.183 239.199C512.049 238.376 512.013 237.358 512.003 236.003L512.503 236C512.5 235.514 512.5 234.983 512.5 234.4V232.2H512V227.8H512.5V225.6C512.5 225.017 512.5 224.486 512.503 224L512.003 223.997C512.013 222.642 512.049 221.624 512.183 220.801L512.677 220.882C512.768 220.328 512.902 219.89 513.099 219.503C513.231 219.245 513.382 218.999 513.55 218.767L513.146 218.473C513.516 217.964 513.964 217.516 514.473 217.146L514.767 217.55C514.999 217.382 515.245 217.231 515.503 217.099C515.89 216.902 516.328 216.768 516.882 216.677L516.801 216.183C517.624 216.049 518.642 216.013 519.997 216.003L520 216.503C520.486 216.5 521.017 216.5 521.6 216.5H523.486V216H527.257V216.5H531.029V216H534.8V216.5H538.571V216H542.343V216.5H546.114V216H549.886V216.5H553.657V216H557.429V216.5H561.2V216H564.971V216.5H568.743V216H572.514V216.5H574.4C574.983 216.5 575.514 216.5 576 216.503L576.003 216.003C577.358 216.013 578.376 216.049 579.199 216.183L579.118 216.677C579.672 216.768 580.11 216.902 580.497 217.099C580.755 217.231 581.001 217.382 581.233 217.55L581.527 217.146C582.036 217.516 582.484 217.964 582.854 218.473L582.45 218.767C582.618 218.999 582.769 219.245 582.901 219.503C583.098 219.89 583.232 220.328 583.323 220.882L583.817 220.801C583.951 221.624 583.987 222.642 583.997 223.997L583.497 224C583.5 224.486 583.5 225.017 583.5 225.6V227.8H584V232.2H583.5V234.4C583.5 234.983 583.5 235.514 583.497 236L583.997 236.003C583.987 237.358 583.951 238.376 583.817 239.199L583.323 239.118C583.232 239.672 583.098 240.11 582.901 240.497C582.769 240.755 582.618 241.001 582.45 241.233L582.854 241.527C582.484 242.036 582.036 242.484 581.527 242.854L581.233 242.45C581.001 242.618 580.755 242.769 580.497 242.901C580.11 243.098 579.672 243.232 579.118 243.323L579.199 243.817C578.376 243.951 577.358 243.987 576.003 243.997L576 243.497C575.514 243.5 574.983 243.5 574.4 243.5H572.514V244H568.743V243.5H564.971V244H561.2V243.5H557.429V244H553.657V243.5H549.886V244H546.114V243.5H542.343V244H538.571V243.5H534.8V244H531.029V243.5H527.257V244H523.486V243.5H521.6C521.017 243.5 520.486 243.5 520 243.497L519.997 243.997C518.642 243.987 517.624 243.951 516.801 243.817L516.882 243.323C516.328 243.232 515.89 243.098 515.503 242.901C515.245 242.769 514.999 242.618 514.767 242.45L514.473 242.854C513.964 242.484 513.516 242.036 513.146 241.527L513.55 241.233C513.382 241.001 513.231 240.755 513.099 240.497C512.902 240.11 512.768 239.672 512.677 239.118L512.183 239.199Z" stroke="#2F312E" stroke-dasharray="4 4"/>
<path d="M527.212 225.48C529.168 225.48 530.32 226.476 530.32 228.132C530.32 229.812 529.168 230.82 527.212 230.82H525.352V234H524.032V225.48H527.212ZM525.352 229.62H527.176C528.352 229.62 528.952 229.116 528.952 228.132C528.952 227.172 528.352 226.68 527.176 226.68H525.352V229.62ZM531.693 227.64H532.881L532.917 228.816C533.133 228.012 533.613 227.64 534.429 227.64H535.029V228.696H534.417C533.421 228.696 532.989 229.236 532.989 230.292V234H531.693V227.64ZM538.658 234.144C536.822 234.144 535.622 232.848 535.622 230.82C535.622 228.792 536.822 227.496 538.658 227.496C540.494 227.496 541.694 228.792 541.694 230.82C541.694 232.848 540.494 234.144 538.658 234.144ZM536.966 230.82C536.966 232.2 537.578 233.028 538.658 233.028C539.738 233.028 540.35 232.2 540.35 230.82C540.35 229.44 539.738 228.612 538.658 228.612C537.578 228.612 536.966 229.44 536.966 230.82ZM543.427 226.2H544.723V227.64H546.415V228.696H544.723V232.164C544.723 232.68 544.975 232.944 545.455 232.944H546.403V234H545.335C544.099 234 543.427 233.364 543.427 232.164V228.696H542.467V227.64H543.427V226.2ZM550.236 234.144C548.4 234.144 547.2 232.848 547.2 230.82C547.2 228.792 548.4 227.496 550.236 227.496C552.072 227.496 553.272 228.792 553.272 230.82C553.272 232.848 552.072 234.144 550.236 234.144ZM548.544 230.82C548.544 232.2 549.156 233.028 550.236 233.028C551.316 233.028 551.928 232.2 551.928 230.82C551.928 229.44 551.316 228.612 550.236 228.612C549.156 228.612 548.544 229.44 548.544 230.82ZM554.486 225.48H555.782V228.48C556.142 227.868 556.862 227.496 557.702 227.496C559.358 227.496 560.39 228.78 560.39 230.82C560.39 232.86 559.358 234.144 557.702 234.144C556.826 234.144 556.082 233.748 555.722 233.1L555.686 234H554.486V225.48ZM555.686 230.82C555.686 232.176 556.334 233.028 557.366 233.028C558.386 233.028 559.058 232.176 559.058 230.82C559.058 229.44 558.398 228.576 557.366 228.576C556.334 228.576 555.686 229.44 555.686 230.82ZM566.925 234H565.725L565.713 232.98C565.377 233.796 564.645 234.144 563.829 234.144C562.425 234.144 561.693 233.124 561.693 231.732V227.64H562.989V231.336C562.989 232.452 563.313 233.052 564.165 233.052C565.065 233.052 565.641 232.452 565.641 231.336V227.64H566.925V234ZM569.173 227.364C569.173 226.188 569.761 225.48 571.069 225.48H572.149V226.536H571.153C570.757 226.536 570.469 226.848 570.469 227.364V227.724H572.065V228.792H570.469V234H569.173V228.792H568.297V227.724H569.173V227.364Z" fill="#ECEEEC"/>
<path d="M0 48H600" stroke="url(#paint0_linear_3827_5392)"/>
<path d="M27.648 29.12C26.8 29.12 26.124 28.896 25.62 28.448C25.116 28 24.864 27.384 24.864 26.6H25.944C25.944 27.088 26.1 27.472 26.412 27.752C26.724 28.024 27.136 28.16 27.648 28.16C28.144 28.16 28.54 28.016 28.836 27.728C29.132 27.44 29.28 27.064 29.28 26.6C29.28 26.248 29.184 25.944 28.992 25.688C28.808 25.424 28.54 25.244 28.188 25.148L26.856 24.776C26.304 24.616 25.868 24.332 25.548 23.924C25.236 23.508 25.08 23.02 25.08 22.46C25.08 21.996 25.184 21.588 25.392 21.236C25.6 20.884 25.892 20.612 26.268 20.42C26.644 20.22 27.076 20.12 27.564 20.12C28.06 20.12 28.496 20.22 28.872 20.42C29.256 20.612 29.556 20.884 29.772 21.236C29.988 21.58 30.096 21.98 30.096 22.436H29.016C29.016 22.036 28.88 21.712 28.608 21.464C28.336 21.208 27.988 21.08 27.564 21.08C27.14 21.08 26.796 21.208 26.532 21.464C26.268 21.712 26.136 22.036 26.136 22.436C26.136 22.756 26.22 23.032 26.388 23.264C26.564 23.488 26.808 23.644 27.12 23.732L28.488 24.116C29.072 24.276 29.524 24.58 29.844 25.028C30.172 25.468 30.336 25.992 30.336 26.6C30.336 27.368 30.092 27.98 29.604 28.436C29.116 28.892 28.464 29.12 27.648 29.12ZM34.8913 29.12C34.0913 29.12 33.4513 28.896 32.9713 28.448C32.4913 28 32.2513 27.384 32.2513 26.6V24.8C32.2513 24.016 32.4913 23.4 32.9713 22.952C33.4513 22.504 34.0913 22.28 34.8913 22.28C35.6513 22.28 36.2633 22.484 36.7273 22.892C37.1993 23.3 37.4473 23.856 37.4713 24.56H36.3913C36.3673 24.136 36.2233 23.812 35.9593 23.588C35.6953 23.356 35.3393 23.24 34.8913 23.24C34.4193 23.24 34.0393 23.376 33.7513 23.648C33.4713 23.912 33.3313 24.292 33.3313 24.788V26.6C33.3313 27.096 33.4713 27.48 33.7513 27.752C34.0393 28.024 34.4193 28.16 34.8913 28.16C35.3393 28.16 35.6953 28.044 35.9593 27.812C36.2233 27.58 36.3673 27.256 36.3913 26.84H37.4713C37.4473 27.544 37.1993 28.1 36.7273 28.508C36.2633 28.916 35.6513 29.12 34.8913 29.12ZM39.4946 29V20.24H40.5746V23.66H40.5866C40.6426 23.22 40.8226 22.88 41.1266 22.64C41.4306 22.4 41.8346 22.28 42.3386 22.28C43.0026 22.28 43.5306 22.484 43.9226 22.892C44.3146 23.3 44.5106 23.856 44.5106 24.56V29H43.4306V24.74C43.4306 24.244 43.3026 23.864 43.0466 23.6C42.7986 23.328 42.4586 23.192 42.0266 23.192C41.5786 23.192 41.2226 23.332 40.9586 23.612C40.7026 23.892 40.5746 24.288 40.5746 24.8V29H39.4946ZM49.1859 29.12C48.4099 29.12 47.7819 28.888 47.3019 28.424C46.8299 27.952 46.5939 27.304 46.5939 26.48V24.92C46.5939 24.096 46.8299 23.452 47.3019 22.988C47.7819 22.516 48.4099 22.28 49.1859 22.28C49.7059 22.28 50.1579 22.384 50.5419 22.592C50.9339 22.8 51.2379 23.092 51.4539 23.468C51.6699 23.844 51.7779 24.288 51.7779 24.8V25.976H47.6499V26.6C47.6499 27.088 47.7899 27.476 48.0699 27.764C48.3499 28.044 48.7219 28.184 49.1859 28.184C49.5859 28.184 49.9139 28.108 50.1699 27.956C50.4339 27.796 50.5939 27.584 50.6499 27.32H51.7299C51.6579 27.872 51.3899 28.312 50.9259 28.64C50.4619 28.96 49.8819 29.12 49.1859 29.12ZM47.6499 25.136H50.7219V24.8C50.7219 24.28 50.5859 23.88 50.3139 23.6C50.0499 23.312 49.6739 23.168 49.1859 23.168C48.6979 23.168 48.3179 23.312 48.0459 23.6C47.7819 23.88 47.6499 24.28 47.6499 24.8V25.136ZM53.5013 29V22.4H54.4373V23.276H54.4613C54.5013 22.98 54.6173 22.74 54.8093 22.556C55.0093 22.372 55.2613 22.28 55.5653 22.28C55.8533 22.28 56.0973 22.364 56.2973 22.532C56.4973 22.7 56.6413 22.928 56.7293 23.216H56.7413C56.7973 22.928 56.9213 22.7 57.1133 22.532C57.3133 22.364 57.5653 22.28 57.8693 22.28C58.2933 22.28 58.6293 22.44 58.8773 22.76C59.1333 23.072 59.2613 23.48 59.2613 23.984V29H58.2533V23.972C58.2533 23.708 58.1893 23.5 58.0613 23.348C57.9333 23.188 57.7573 23.108 57.5333 23.108C57.3173 23.108 57.1453 23.184 57.0173 23.336C56.8893 23.488 56.8253 23.696 56.8253 23.96V29H55.9373V23.972C55.9373 23.708 55.8733 23.5 55.7453 23.348C55.6173 23.188 55.4453 23.108 55.2293 23.108C55.0053 23.108 54.8293 23.184 54.7013 23.336C54.5733 23.488 54.5093 23.696 54.5093 23.96V29H53.5013ZM63.0006 29.12C62.3206 29.12 61.7806 28.932 61.3806 28.556C60.9806 28.172 60.7806 27.672 60.7806 27.056C60.7806 26.648 60.8726 26.292 61.0566 25.988C61.2406 25.684 61.4966 25.448 61.8246 25.28C62.1526 25.104 62.5286 25.016 62.9526 25.016H64.9926V24.5C64.9926 23.644 64.5246 23.216 63.5886 23.216C63.1726 23.216 62.8366 23.292 62.5806 23.444C62.3246 23.596 62.1886 23.808 62.1726 24.08H61.0926C61.1326 23.56 61.3726 23.132 61.8126 22.796C62.2606 22.452 62.8526 22.28 63.5886 22.28C64.3886 22.28 65.0006 22.472 65.4246 22.856C65.8566 23.24 66.0726 23.776 66.0726 24.464V29H65.0046V27.8H64.9806C64.9166 28.208 64.7126 28.532 64.3686 28.772C64.0246 29.004 63.5686 29.12 63.0006 29.12ZM63.2646 28.208C63.7926 28.208 64.2126 28.08 64.5246 27.824C64.8366 27.568 64.9926 27.22 64.9926 26.78V25.856H63.0726C62.7206 25.856 62.4326 25.964 62.2086 26.18C61.9926 26.388 61.8846 26.668 61.8846 27.02C61.8846 27.388 62.0046 27.68 62.2446 27.896C62.4926 28.104 62.8326 28.208 63.2646 28.208ZM75.6272 29V28.016H77.4152V21.224H75.6272V20.24H80.3072V21.224H78.5192V28.016H80.3072V29H75.6272ZM82.6665 29V20.24H84.9345C85.5025 20.24 85.9905 20.348 86.3985 20.564C86.8145 20.78 87.1345 21.084 87.3585 21.476C87.5905 21.868 87.7065 22.332 87.7065 22.868V26.36C87.7065 26.896 87.5905 27.364 87.3585 27.764C87.1345 28.156 86.8145 28.46 86.3985 28.676C85.9905 28.892 85.5025 29 84.9345 29H82.6665ZM83.7465 28.04H84.9345C85.4625 28.04 85.8745 27.892 86.1705 27.596C86.4745 27.3 86.6265 26.888 86.6265 26.36V22.868C86.6265 22.348 86.4745 21.94 86.1705 21.644C85.8745 21.348 85.4625 21.2 84.9345 21.2H83.7465V28.04ZM92.3578 24.056C92.0298 24.056 91.7818 23.976 91.6138 23.816C91.4458 23.656 91.3618 23.44 91.3618 23.168C91.3618 22.896 91.4458 22.68 91.6138 22.52C91.7818 22.36 92.0298 22.28 92.3578 22.28C92.6858 22.28 92.9338 22.36 93.1018 22.52C93.2698 22.68 93.3538 22.896 93.3538 23.168C93.3538 23.44 93.2698 23.656 93.1018 23.816C92.9338 23.976 92.6858 24.056 92.3578 24.056ZM92.3578 29.12C92.0298 29.12 91.7818 29.04 91.6138 28.88C91.4458 28.72 91.3618 28.504 91.3618 28.232C91.3618 27.96 91.4458 27.744 91.6138 27.584C91.7818 27.424 92.0298 27.344 92.3578 27.344C92.6858 27.344 92.9338 27.424 93.1018 27.584C93.2698 27.744 93.3538 27.96 93.3538 28.232C93.3538 28.504 93.2698 28.72 93.1018 28.88C92.9338 29.04 92.6858 29.12 92.3578 29.12Z" fill="#AFB5AD"/>
<path d="M24.58 82.14H26.74V77.75H24.97V77H25.84C26.6 77 26.93 76.67 26.93 75.9H27.62V82.14H29.6V83H24.58V82.14Z" fill="#898E87"/>
<path d="M24.65 94.02C24.84 92.71 25.77 91.74 27.19 91.74C28.49 91.74 29.45 92.6 29.45 93.76C29.45 94.8 28.63 95.5 27.56 96.16C27.03 96.47 25.64 97.43 25.61 98.14H29.51V99H24.52C24.52 96.85 26.06 96.08 27.25 95.32C27.98 94.85 28.53 94.31 28.53 93.76C28.53 93.08 27.98 92.6 27.19 92.6C26.34 92.6 25.76 93.13 25.57 94.08L24.65 94.02Z" fill="#898E87"/>
<path d="M26.94 110.8C27.6 110.81 28.35 110.51 28.35 109.59C28.35 108.98 27.84 108.6 26.94 108.6C26.21 108.6 25.69 108.95 25.6 109.51L24.68 109.45C24.81 108.45 25.75 107.74 26.94 107.74C28.31 107.74 29.27 108.5 29.27 109.59C29.27 110.39 28.85 110.91 28.01 111.16C29 111.45 29.51 112.13 29.51 113.05C29.51 114.29 28.48 115.16 26.94 115.16C25.52 115.16 24.49 114.34 24.43 113.17L25.34 113.11C25.42 113.97 26.25 114.3 26.94 114.3C27.96 114.3 28.6 113.79 28.6 112.98C28.6 112.14 27.96 111.63 26.94 111.65L26.4 111.66V110.79L26.94 110.8Z" fill="#898E87"/>
<path d="M28.87 123.9V128.69H29.68V129.55H28.87V131H27.99V129.55H24.32V128.69L27.93 123.9H28.87ZM25.4 128.69H27.99V125.25L25.4 128.69Z" fill="#898E87"/>
<path d="M29.08 139.9V140.76H26.02L25.73 142.91C26.06 142.5 26.68 142.29 27.22 142.29C28.49 142.29 29.46 143.3 29.46 144.72C29.46 146.15 28.45 147.16 27.02 147.16C25.76 147.16 24.7 146.28 24.6 145.17L25.52 145.11C25.64 145.85 26.25 146.3 27.12 146.3C27.95 146.3 28.54 145.65 28.54 144.72C28.54 143.76 27.89 143.14 26.99 143.14C26.44 143.14 25.86 143.44 25.67 143.9H24.72L25.27 139.9H29.08Z" fill="#898E87"/>
<path d="M28.61 157.49C28.4 156.92 27.91 156.6 27.25 156.6C26.2 156.6 25.56 157.51 25.42 159.15C25.81 158.51 26.44 158.16 27.2 158.16C28.61 158.16 29.56 159.18 29.56 160.64C29.56 162.19 28.52 163.16 27.05 163.16C26.43 163.16 25.8 162.94 25.28 162.41C24.77 161.88 24.52 160.98 24.52 159.87C24.52 157.74 25.2 155.74 27.25 155.74C28.33 155.74 29.21 156.33 29.53 157.42L28.61 157.49ZM25.48 160.64C25.46 161.61 26.12 162.3 27.07 162.3C27.99 162.3 28.64 161.61 28.64 160.64C28.64 159.69 28.02 159.02 27.14 159.02C26.18 159.02 25.49 159.69 25.48 160.64Z" fill="#898E87"/>
<path d="M24.6 171.9H29.65V172.72C28.23 174.55 27.22 176.68 27.22 179H26.3C26.3 176.68 27.25 174.58 28.68 172.76H24.6V171.9Z" fill="#898E87"/>
<path d="M27 195.16C25.57 195.16 24.48 194.35 24.48 193.05C24.48 192.17 24.99 191.49 25.84 191.15C25.19 190.87 24.82 190.41 24.82 189.69C24.82 188.57 25.78 187.74 27 187.74C28.23 187.74 29.18 188.57 29.18 189.69C29.18 190.41 28.8 190.87 28.16 191.15C29.01 191.5 29.52 192.18 29.52 193.05C29.52 194.35 28.43 195.16 27 195.16ZM25.4 192.98C25.4 193.76 26.06 194.3 27 194.3C27.94 194.3 28.6 193.76 28.6 192.98C28.6 192.2 27.94 191.66 27 191.66C26.06 191.66 25.4 192.2 25.4 192.98ZM25.74 189.69C25.74 190.33 26.26 190.78 27 190.78C27.74 190.78 28.26 190.33 28.26 189.69C28.26 189.05 27.74 188.6 27 188.6C26.26 188.6 25.74 189.05 25.74 189.69Z" fill="#898E87"/>
<path d="M25.39 209.41C25.6 209.98 26.09 210.3 26.75 210.3C27.8 210.3 28.44 209.39 28.58 207.75C28.19 208.39 27.56 208.74 26.8 208.74C25.39 208.74 24.44 207.72 24.44 206.26C24.44 204.71 25.48 203.74 26.95 203.74C27.57 203.74 28.2 203.96 28.72 204.49C29.23 205.02 29.48 205.92 29.48 207.03C29.48 209.16 28.8 211.16 26.75 211.16C25.67 211.16 24.79 210.57 24.47 209.48L25.39 209.41ZM25.36 206.26C25.36 207.21 25.98 207.88 26.86 207.88C27.82 207.88 28.51 207.21 28.52 206.26C28.54 205.29 27.88 204.6 26.93 204.6C26.01 204.6 25.36 205.29 25.36 206.26Z" fill="#898E87"/>
<path d="M24.58 226.14H26.74V221.75H24.97V221H25.84C26.6 221 26.93 220.67 26.93 219.9H27.62V226.14H29.6V227H24.58V226.14ZM32.9961 227.16C31.4461 227.16 30.4761 225.73 30.4761 223.46C30.4761 221.17 31.4461 219.74 32.9961 219.74C34.5461 219.74 35.5161 221.17 35.5161 223.46C35.5161 225.73 34.5461 227.16 32.9961 227.16ZM31.3961 223.46C31.3961 224.11 31.4861 224.67 31.6361 225.11L33.9161 221.02C33.6661 220.75 33.3561 220.6 32.9961 220.6C32.0161 220.6 31.3961 221.7 31.3961 223.46ZM32.0661 225.87C32.3161 226.15 32.6361 226.3 32.9961 226.3C33.9761 226.3 34.5961 225.2 34.5961 223.46C34.5961 222.79 34.5061 222.22 34.3461 221.77L32.0661 225.87Z" fill="#898E87"/>
<rect x="100.659" y="17" width="16" height="16" rx="2.28571" fill="#212917"/>
<path d="M110.741 21.9V22.76H107.681L107.391 24.91C107.721 24.5 108.341 24.29 108.881 24.29C110.151 24.29 111.121 25.3 111.121 26.72C111.121 28.15 110.111 29.16 108.681 29.16C107.421 29.16 106.361 28.28 106.261 27.17L107.181 27.11C107.301 27.85 107.911 28.3 108.781 28.3C109.611 28.3 110.201 27.65 110.201 26.72C110.201 25.76 109.551 25.14 108.651 25.14C108.101 25.14 107.521 25.44 107.331 25.9H106.381L106.931 21.9H110.741Z" fill="#B1E56C"/>
<path fill-rule="evenodd" clip-rule="evenodd" d="M60 74H56V84H60V74ZM146 90H60V100H146V90ZM60 106H222V116H60V106ZM304 122H60V132H304V122ZM60 138H100V148H60V138ZM156 154H60V164H156V154ZM84.7697 170H152.77V180H84.7697V170ZM127.582 186H95.5824V196H127.582V186ZM95.5824 202H143.582V212H95.5824V202ZM138.075 218H95.5824V228H138.075V218Z" fill="url(#paint1_linear_3827_5392)"/>
</g>
<defs>
<linearGradient id="paint0_linear_3827_5392" x1="0" y1="48" x2="600" y2="48" gradientUnits="userSpaceOnUse">
<stop stop-color="#5C625B"/>
<stop offset="1" stop-color="#5C625B" stop-opacity="0"/>
</linearGradient>
<linearGradient id="paint1_linear_3827_5392" x1="304" y1="146.471" x2="56" y2="146.471" gradientUnits="userSpaceOnUse">
<stop stop-color="#767D74"/>
<stop offset="1" stop-color="#767D74" stop-opacity="0.2"/>
</linearGradient>
<clipPath id="clip0_3827_5392">
<rect width="600" height="260" fill="white"/>
</clipPath>
</defs>
</svg>
