<svg width="600" height="260" viewBox="0 0 600 260" fill="none" xmlns="http://www.w3.org/2000/svg">
<path d="M63.596 57.644C63.464 56.972 62.828 56.576 62.18 56.576C61.532 56.576 61.016 56.9 61.028 57.452C61.04 58.028 61.772 58.256 62.42 58.376C64.004 58.664 65.024 59.096 65.024 60.344C65.024 61.592 63.764 62.144 62.42 62.144C60.788 62.144 59.624 61.328 59.528 59.996L60.86 59.912C60.98 60.62 61.532 61.064 62.408 61.064C62.96 61.064 63.68 60.872 63.68 60.284C63.68 59.6 62.876 59.528 62.192 59.372C60.848 59.084 59.684 58.724 59.684 57.5C59.684 56.252 60.692 55.496 62.276 55.496C63.656 55.496 64.712 56.3 64.928 57.572L63.596 57.644ZM66.2571 57.548C66.5091 56.264 67.5171 55.496 68.9811 55.496C70.7211 55.496 71.6691 56.456 71.6691 58.196V60.56C71.6691 60.872 71.8011 60.98 72.0531 60.98H72.3171V62H71.9091C71.3331 62.012 70.5411 61.916 70.4811 61.028C70.2051 61.628 69.4971 62.144 68.4411 62.144C67.1691 62.144 66.1491 61.46 66.1491 60.332C66.1491 59.06 67.0971 58.688 68.5611 58.4L70.3731 58.052C70.3611 57.032 69.9051 56.552 68.9811 56.552C68.2491 56.552 67.7691 56.924 67.5891 57.632L66.2571 57.548ZM67.4931 60.308C67.4931 60.764 67.8891 61.148 68.7171 61.148C69.6651 61.148 70.3971 60.464 70.3971 59.096V59.036L69.0531 59.276C68.1891 59.432 67.4931 59.504 67.4931 60.308ZM73.5992 53.48H74.8952V60.524C74.8952 60.8 75.0272 60.944 75.3152 60.944H75.8312V62H75.0272C74.1752 62 73.5992 61.448 73.5992 60.572V53.48ZM76.7077 58.82C76.7077 56.792 77.9077 55.496 79.7437 55.496C81.2557 55.496 82.5517 56.504 82.6237 58.772V59.192H78.0757C78.1477 60.356 78.7477 61.04 79.7437 61.04C80.3677 61.04 80.9317 60.68 81.1957 60.08L82.5397 60.176C82.1557 61.388 81.0397 62.144 79.7437 62.144C77.9077 62.144 76.7077 60.848 76.7077 58.82ZM78.0877 58.22H81.2677C81.1117 57.02 80.4517 56.6 79.7437 56.6C78.8197 56.6 78.2317 57.2 78.0877 58.22ZM87.7601 57.644C87.6281 56.972 86.9921 56.576 86.3441 56.576C85.6961 56.576 85.1801 56.9 85.1921 57.452C85.2041 58.028 85.9361 58.256 86.5841 58.376C88.1681 58.664 89.1881 59.096 89.1881 60.344C89.1881 61.592 87.9281 62.144 86.5841 62.144C84.9521 62.144 83.7881 61.328 83.6921 59.996L85.0241 59.912C85.1441 60.62 85.6961 61.064 86.5721 61.064C87.1241 61.064 87.8441 60.872 87.8441 60.284C87.8441 59.6 87.0401 59.528 86.3561 59.372C85.0121 59.084 83.8481 58.724 83.8481 57.5C83.8481 56.252 84.8561 55.496 86.4401 55.496C87.8201 55.496 88.8761 56.3 89.0921 57.572L87.7601 57.644ZM90.2428 57.932H94.2748V59.06H90.2428V57.932ZM95.7125 63.8V55.64H96.9125L96.9485 56.588C97.2965 55.88 97.9685 55.496 98.8805 55.496C100.753 55.496 101.617 57.032 101.617 58.82C101.617 60.608 100.753 62.144 98.8805 62.144C98.0165 62.144 97.3685 61.796 97.0085 61.136V63.8H95.7125ZM96.8885 58.82C96.8885 59.948 97.3925 61.028 98.5685 61.028C99.7685 61.028 100.261 59.96 100.261 58.82C100.261 57.68 99.7565 56.612 98.5685 56.612C97.3925 56.612 96.8885 57.692 96.8885 58.82ZM102.676 58.82C102.676 56.792 103.876 55.496 105.712 55.496C107.224 55.496 108.52 56.504 108.592 58.772V59.192H104.044C104.116 60.356 104.716 61.04 105.712 61.04C106.336 61.04 106.9 60.68 107.164 60.08L108.508 60.176C108.124 61.388 107.008 62.144 105.712 62.144C103.876 62.144 102.676 60.848 102.676 58.82ZM104.056 58.22H107.236C107.08 57.02 106.42 56.6 105.712 56.6C104.788 56.6 104.2 57.2 104.056 58.22ZM109.963 55.64H111.151L111.187 56.816C111.403 56.012 111.883 55.64 112.699 55.64H113.299V56.696H112.687C111.691 56.696 111.259 57.236 111.259 58.292V62H109.963V55.64ZM115.263 55.364C115.263 54.188 115.851 53.48 117.159 53.48H118.239V54.536H117.243C116.847 54.536 116.559 54.848 116.559 55.364V55.724H118.155V56.792H116.559V62H115.263V56.792H114.387V55.724H115.263V55.364ZM121.919 62.144C120.083 62.144 118.883 60.848 118.883 58.82C118.883 56.792 120.083 55.496 121.919 55.496C123.755 55.496 124.955 56.792 124.955 58.82C124.955 60.848 123.755 62.144 121.919 62.144ZM120.227 58.82C120.227 60.2 120.839 61.028 121.919 61.028C122.999 61.028 123.611 60.2 123.611 58.82C123.611 57.44 122.999 56.612 121.919 56.612C120.839 56.612 120.227 57.44 120.227 58.82ZM126.31 55.64H127.498L127.534 56.816C127.75 56.012 128.23 55.64 129.046 55.64H129.646V56.696H129.034C128.038 56.696 127.606 57.236 127.606 58.292V62H126.31V55.64ZM130.763 55.64H131.927L131.975 56.672C132.275 55.928 132.923 55.496 133.775 55.496C134.687 55.496 135.347 55.976 135.623 56.816C135.911 55.952 136.571 55.496 137.531 55.496C138.815 55.496 139.583 56.36 139.583 57.908V62H138.299V58.304C138.299 57.188 137.903 56.588 137.183 56.588C136.283 56.588 135.791 57.2 135.791 58.304V62H134.567V58.304C134.567 57.2 134.159 56.588 133.451 56.588C132.563 56.588 132.059 57.212 132.059 58.304V62H130.763V55.64ZM141.116 57.548C141.368 56.264 142.376 55.496 143.84 55.496C145.58 55.496 146.528 56.456 146.528 58.196V60.56C146.528 60.872 146.66 60.98 146.912 60.98H147.176V62H146.768C146.192 62.012 145.4 61.916 145.34 61.028C145.064 61.628 144.356 62.144 143.3 62.144C142.028 62.144 141.008 61.46 141.008 60.332C141.008 59.06 141.956 58.688 143.42 58.4L145.232 58.052C145.22 57.032 144.764 56.552 143.84 56.552C143.108 56.552 142.628 56.924 142.448 57.632L141.116 57.548ZM142.352 60.308C142.352 60.764 142.748 61.148 143.576 61.148C144.524 61.148 145.256 60.464 145.256 59.096V59.036L143.912 59.276C143.048 59.432 142.352 59.504 142.352 60.308ZM148.377 55.64H149.541L149.577 56.732C149.913 55.868 150.645 55.496 151.509 55.496C152.949 55.496 153.681 56.516 153.681 57.908V62H152.385V58.304C152.385 57.188 152.049 56.588 151.173 56.588C150.249 56.588 149.673 57.188 149.673 58.304V62H148.377V55.64ZM159.442 57.872C159.322 57.08 158.698 56.612 157.978 56.612C156.898 56.612 156.286 57.44 156.286 58.82C156.286 60.2 156.898 61.028 157.978 61.028C158.734 61.028 159.346 60.536 159.478 59.66L160.834 59.732C160.642 61.22 159.442 62.144 157.978 62.144C156.142 62.144 154.942 60.848 154.942 58.82C154.942 56.792 156.142 55.496 157.978 55.496C159.394 55.496 160.618 56.372 160.786 57.8L159.442 57.872ZM161.774 58.82C161.774 56.792 162.974 55.496 164.81 55.496C166.322 55.496 167.618 56.504 167.69 58.772V59.192H163.142C163.214 60.356 163.814 61.04 164.81 61.04C165.434 61.04 165.998 60.68 166.262 60.08L167.606 60.176C167.222 61.388 166.106 62.144 164.81 62.144C162.974 62.144 161.774 60.848 161.774 58.82ZM163.154 58.22H166.334C166.178 57.02 165.518 56.6 164.81 56.6C163.886 56.6 163.298 57.2 163.154 58.22ZM168.758 57.932H172.79V59.06H168.758V57.932ZM173.964 57.548C174.216 56.264 175.224 55.496 176.688 55.496C178.428 55.496 179.376 56.456 179.376 58.196V60.56C179.376 60.872 179.508 60.98 179.76 60.98H180.024V62H179.616C179.04 62.012 178.248 61.916 178.188 61.028C177.912 61.628 177.204 62.144 176.148 62.144C174.876 62.144 173.856 61.46 173.856 60.332C173.856 59.06 174.804 58.688 176.268 58.4L178.08 58.052C178.068 57.032 177.612 56.552 176.688 56.552C175.956 56.552 175.476 56.924 175.296 57.632L173.964 57.548ZM175.2 60.308C175.2 60.764 175.596 61.148 176.424 61.148C177.372 61.148 178.104 60.464 178.104 59.096V59.036L176.76 59.276C175.896 59.432 175.2 59.504 175.2 60.308ZM181.224 55.64H182.388L182.424 56.732C182.76 55.868 183.492 55.496 184.356 55.496C185.796 55.496 186.528 56.516 186.528 57.908V62H185.232V58.304C185.232 57.188 184.896 56.588 184.02 56.588C183.096 56.588 182.52 57.188 182.52 58.304V62H181.224V55.64ZM188.062 57.548C188.314 56.264 189.322 55.496 190.786 55.496C192.526 55.496 193.474 56.456 193.474 58.196V60.56C193.474 60.872 193.606 60.98 193.858 60.98H194.122V62H193.714C193.138 62.012 192.346 61.916 192.286 61.028C192.01 61.628 191.302 62.144 190.246 62.144C188.974 62.144 187.954 61.46 187.954 60.332C187.954 59.06 188.902 58.688 190.366 58.4L192.178 58.052C192.166 57.032 191.71 56.552 190.786 56.552C190.054 56.552 189.574 56.924 189.394 57.632L188.062 57.548ZM189.298 60.308C189.298 60.764 189.694 61.148 190.522 61.148C191.47 61.148 192.202 60.464 192.202 59.096V59.036L190.858 59.276C189.994 59.432 189.298 59.504 189.298 60.308ZM195.404 53.48H196.7V60.524C196.7 60.8 196.832 60.944 197.12 60.944H197.636V62H196.832C195.98 62 195.404 61.448 195.404 60.572V53.48ZM198.002 55.64H199.31L201.098 60.632L202.838 55.64H204.134L201.59 62.744C201.326 63.464 200.846 63.8 200.054 63.8H199.106V62.756H199.862C200.198 62.756 200.378 62.636 200.498 62.336L200.702 61.808H200.306L198.002 55.64ZM205.955 54.2H207.251V55.64H208.943V56.696H207.251V60.164C207.251 60.68 207.503 60.944 207.983 60.944H208.931V62H207.863C206.627 62 205.955 61.364 205.955 60.164V56.696H204.995V55.64H205.955V54.2ZM210.263 55.64H211.559V62H210.263V55.64ZM210.239 54.704V53.48H211.583V54.704H210.239ZM217.473 57.872C217.353 57.08 216.729 56.612 216.009 56.612C214.929 56.612 214.317 57.44 214.317 58.82C214.317 60.2 214.929 61.028 216.009 61.028C216.765 61.028 217.377 60.536 217.509 59.66L218.865 59.732C218.673 61.22 217.473 62.144 216.009 62.144C214.173 62.144 212.973 60.848 212.973 58.82C212.973 56.792 214.173 55.496 216.009 55.496C217.425 55.496 218.649 56.372 218.817 57.8L217.473 57.872ZM223.873 57.644C223.741 56.972 223.105 56.576 222.457 56.576C221.809 56.576 221.293 56.9 221.305 57.452C221.317 58.028 222.049 58.256 222.697 58.376C224.281 58.664 225.301 59.096 225.301 60.344C225.301 61.592 224.041 62.144 222.697 62.144C221.065 62.144 219.901 61.328 219.805 59.996L221.137 59.912C221.257 60.62 221.809 61.064 222.685 61.064C223.237 61.064 223.957 60.872 223.957 60.284C223.957 59.6 223.153 59.528 222.469 59.372C221.125 59.084 219.961 58.724 219.961 57.5C219.961 56.252 220.969 55.496 222.553 55.496C223.933 55.496 224.989 56.3 225.205 57.572L223.873 57.644ZM226.356 57.932H230.388V59.06H226.356V57.932ZM231.826 55.64H233.014L233.05 56.816C233.266 56.012 233.746 55.64 234.562 55.64H235.162V56.696H234.55C233.554 56.696 233.122 57.236 233.122 58.292V62H231.826V55.64ZM235.755 58.82C235.755 56.792 236.955 55.496 238.791 55.496C240.303 55.496 241.599 56.504 241.671 58.772V59.192H237.123C237.195 60.356 237.795 61.04 238.791 61.04C239.415 61.04 239.979 60.68 240.243 60.08L241.587 60.176C241.203 61.388 240.087 62.144 238.791 62.144C236.955 62.144 235.755 60.848 235.755 58.82ZM237.135 58.22H240.315C240.159 57.02 239.499 56.6 238.791 56.6C237.867 56.6 237.279 57.2 237.135 58.22ZM243.041 63.8V55.64H244.241L244.277 56.588C244.625 55.88 245.297 55.496 246.209 55.496C248.081 55.496 248.945 57.032 248.945 58.82C248.945 60.608 248.081 62.144 246.209 62.144C245.345 62.144 244.697 61.796 244.337 61.136V63.8H243.041ZM244.217 58.82C244.217 59.948 244.721 61.028 245.897 61.028C247.097 61.028 247.589 59.96 247.589 58.82C247.589 57.68 247.085 56.612 245.897 56.612C244.721 56.612 244.217 57.692 244.217 58.82ZM253.041 62.144C251.205 62.144 250.005 60.848 250.005 58.82C250.005 56.792 251.205 55.496 253.041 55.496C254.877 55.496 256.077 56.792 256.077 58.82C256.077 60.848 254.877 62.144 253.041 62.144ZM251.349 58.82C251.349 60.2 251.961 61.028 253.041 61.028C254.121 61.028 254.733 60.2 254.733 58.82C254.733 57.44 254.121 56.612 253.041 56.612C251.961 56.612 251.349 57.44 251.349 58.82ZM257.431 55.64H258.619L258.655 56.816C258.871 56.012 259.351 55.64 260.167 55.64H260.767V56.696H260.155C259.159 56.696 258.727 57.236 258.727 58.292V62H257.431V55.64ZM262.708 54.2H264.004V55.64H265.696V56.696H264.004V60.164C264.004 60.68 264.256 60.944 264.736 60.944H265.684V62H264.616C263.38 62 262.708 61.364 262.708 60.164V56.696H261.748V55.64H262.708V54.2Z" fill="#1D211C"/>
<path d="M59.25 82C59.25 76.6152 63.6152 72.25 69 72.25H213C218.385 72.25 222.75 76.6152 222.75 82C222.75 87.3848 218.385 91.75 213 91.75H69C63.6152 91.75 59.25 87.3848 59.25 82Z" fill="white"/>
<path d="M59.25 82C59.25 76.6152 63.6152 72.25 69 72.25H213C218.385 72.25 222.75 76.6152 222.75 82C222.75 87.3848 218.385 91.75 213 91.75H69C63.6152 91.75 59.25 87.3848 59.25 82Z" stroke="#DFE2DF" stroke-width="0.5"/>
<path d="M67 82C67 80.3431 68.3431 79 70 79C71.6569 79 73 80.3431 73 82C73 83.6569 71.6569 85 70 85C68.3431 85 67 83.6569 67 82Z" fill="#33CC82"/>
<path d="M84.052 81.776C83.92 80.96 83.236 80.48 82.48 80.48C81.316 80.48 80.644 81.356 80.644 82.82C80.644 84.284 81.316 85.16 82.48 85.16C83.272 85.16 83.956 84.644 84.1 83.744L85.192 83.816C84.988 85.256 83.824 86.144 82.48 86.144C80.716 86.144 79.564 84.848 79.564 82.82C79.564 80.792 80.716 79.496 82.48 79.496C83.776 79.496 84.964 80.336 85.132 81.704L84.052 81.776ZM86.1968 82.016H90.1808V82.976H86.1968V82.016ZM96.9702 77.48V86H96.0342L95.9982 85.112C95.6502 85.748 94.8822 86.144 93.9942 86.144C92.3382 86.144 91.3062 84.86 91.3062 82.82C91.3062 80.78 92.3382 79.496 93.9942 79.496C94.8462 79.496 95.5902 79.868 95.9382 80.456V77.48H96.9702ZM92.3862 82.82C92.3862 84.26 93.0942 85.16 94.2102 85.16C95.3262 85.16 96.0342 84.26 96.0342 82.82C96.0342 81.356 95.3262 80.432 94.2102 80.432C93.0942 80.432 92.3862 81.356 92.3862 82.82ZM98.5978 81.512C98.8498 80.276 99.8458 79.496 101.202 79.496C102.846 79.496 103.77 80.456 103.77 82.16V84.704C103.77 84.968 103.89 85.088 104.154 85.088H104.418V86H103.974C103.326 86 102.75 85.796 102.75 85.028C102.486 85.604 101.79 86.144 100.782 86.144C99.5218 86.144 98.4898 85.472 98.4898 84.332C98.4898 83.012 99.4738 82.688 100.89 82.412L102.738 82.052C102.726 80.996 102.222 80.48 101.202 80.48C100.41 80.48 99.8818 80.876 99.6898 81.596L98.5978 81.512ZM99.5698 84.332C99.5698 84.824 99.9898 85.232 100.914 85.232C101.946 85.232 102.762 84.512 102.762 83.024V82.964L101.274 83.228C100.338 83.396 99.5698 83.444 99.5698 84.332ZM105.826 78.2H106.858V79.64H108.562V80.552H106.858V84.296C106.858 84.824 107.11 85.088 107.614 85.088H108.538V86H107.614C106.462 86 105.826 85.388 105.826 84.296V80.552H104.902V79.64H105.826V78.2ZM109.684 81.512C109.936 80.276 110.932 79.496 112.288 79.496C113.932 79.496 114.856 80.456 114.856 82.16V84.704C114.856 84.968 114.976 85.088 115.24 85.088H115.504V86H115.06C114.412 86 113.836 85.796 113.836 85.028C113.572 85.604 112.876 86.144 111.868 86.144C110.608 86.144 109.576 85.472 109.576 84.332C109.576 83.012 110.56 82.688 111.976 82.412L113.824 82.052C113.812 80.996 113.308 80.48 112.288 80.48C111.496 80.48 110.968 80.876 110.776 81.596L109.684 81.512ZM110.656 84.332C110.656 84.824 111.076 85.232 112 85.232C113.032 85.232 113.848 84.512 113.848 83.024V82.964L112.36 83.228C111.424 83.396 110.656 83.444 110.656 84.332ZM116.49 82.016H120.474V82.976H116.49V82.016ZM126.087 81.776C125.955 80.96 125.271 80.48 124.515 80.48C123.351 80.48 122.679 81.356 122.679 82.82C122.679 84.284 123.351 85.16 124.515 85.16C125.307 85.16 125.991 84.644 126.135 83.744L127.227 83.816C127.023 85.256 125.859 86.144 124.515 86.144C122.751 86.144 121.599 84.848 121.599 82.82C121.599 80.792 122.751 79.496 124.515 79.496C125.811 79.496 126.999 80.336 127.167 81.704L126.087 81.776ZM128.628 77.48H129.66V84.704C129.66 84.968 129.78 85.088 130.044 85.088H130.596V86H129.876C129.132 86 128.628 85.496 128.628 84.752V77.48ZM131.75 81.512C132.002 80.276 132.998 79.496 134.354 79.496C135.998 79.496 136.922 80.456 136.922 82.16V84.704C136.922 84.968 137.042 85.088 137.306 85.088H137.57V86H137.126C136.478 86 135.902 85.796 135.902 85.028C135.638 85.604 134.942 86.144 133.934 86.144C132.674 86.144 131.642 85.472 131.642 84.332C131.642 83.012 132.626 82.688 134.042 82.412L135.89 82.052C135.878 80.996 135.374 80.48 134.354 80.48C133.562 80.48 133.034 80.876 132.842 81.596L131.75 81.512ZM132.722 84.332C132.722 84.824 133.142 85.232 134.066 85.232C135.098 85.232 135.914 84.512 135.914 83.024V82.964L134.426 83.228C133.49 83.396 132.722 83.444 132.722 84.332ZM142.483 81.608C142.339 80.9 141.631 80.48 140.935 80.48C140.239 80.48 139.675 80.828 139.675 81.428C139.675 82.052 140.503 82.304 141.175 82.436C142.615 82.712 143.683 83.108 143.683 84.38C143.683 85.616 142.399 86.144 141.199 86.144C139.687 86.144 138.535 85.316 138.439 83.996L139.519 83.924C139.651 84.68 140.251 85.16 141.199 85.16C141.799 85.16 142.603 84.968 142.603 84.32C142.603 83.564 141.715 83.492 140.995 83.324C139.843 83.06 138.595 82.736 138.595 81.488C138.595 80.264 139.579 79.496 141.043 79.496C142.315 79.496 143.359 80.3 143.563 81.536L142.483 81.608ZM148.858 81.608C148.714 80.9 148.006 80.48 147.31 80.48C146.614 80.48 146.05 80.828 146.05 81.428C146.05 82.052 146.878 82.304 147.55 82.436C148.99 82.712 150.058 83.108 150.058 84.38C150.058 85.616 148.774 86.144 147.574 86.144C146.062 86.144 144.91 85.316 144.814 83.996L145.894 83.924C146.026 84.68 146.626 85.16 147.574 85.16C148.174 85.16 148.978 84.968 148.978 84.32C148.978 83.564 148.09 83.492 147.37 83.324C146.218 83.06 144.97 82.736 144.97 81.488C144.97 80.264 145.954 79.496 147.418 79.496C148.69 79.496 149.734 80.3 149.938 81.536L148.858 81.608ZM151.351 79.64H152.383V86H151.351V79.64ZM151.327 78.644V77.48H152.407V78.644H151.327ZM154.916 79.244C154.916 78.176 155.456 77.48 156.644 77.48H157.628V78.392H156.644C156.236 78.392 155.948 78.716 155.948 79.244V79.64H157.544V80.552H155.948V86H154.916V80.552H154.064V79.64H154.916V79.244ZM159.068 78.644V77.48H160.148V78.644H159.068ZM159.092 86V79.64H160.124V86H159.092ZM166.13 81.776C165.998 80.96 165.314 80.48 164.558 80.48C163.394 80.48 162.722 81.356 162.722 82.82C162.722 84.284 163.394 85.16 164.558 85.16C165.35 85.16 166.034 84.644 166.178 83.744L167.27 83.816C167.066 85.256 165.902 86.144 164.558 86.144C162.794 86.144 161.642 84.848 161.642 82.82C161.642 80.792 162.794 79.496 164.558 79.496C165.854 79.496 167.042 80.336 167.21 81.704L166.13 81.776ZM168.442 81.512C168.694 80.276 169.69 79.496 171.046 79.496C172.69 79.496 173.614 80.456 173.614 82.16V84.704C173.614 84.968 173.734 85.088 173.998 85.088H174.262V86H173.818C173.17 86 172.594 85.796 172.594 85.028C172.33 85.604 171.634 86.144 170.626 86.144C169.366 86.144 168.334 85.472 168.334 84.332C168.334 83.012 169.318 82.688 170.734 82.412L172.582 82.052C172.57 80.996 172.066 80.48 171.046 80.48C170.254 80.48 169.726 80.876 169.534 81.596L168.442 81.512ZM169.414 84.332C169.414 84.824 169.834 85.232 170.758 85.232C171.79 85.232 172.606 84.512 172.606 83.024V82.964L171.118 83.228C170.182 83.396 169.414 83.444 169.414 84.332ZM175.67 78.2H176.702V79.64H178.406V80.552H176.702V84.296C176.702 84.824 176.954 85.088 177.458 85.088H178.382V86H177.458C176.306 86 175.67 85.388 175.67 84.296V80.552H174.746V79.64H175.67V78.2ZM179.815 79.64H180.847V86H179.815V79.64ZM179.791 78.644V77.48H180.871V78.644H179.791ZM185.289 86.144C183.525 86.144 182.373 84.848 182.373 82.82C182.373 80.792 183.525 79.496 185.289 79.496C187.053 79.496 188.205 80.792 188.205 82.82C188.205 84.848 187.053 86.144 185.289 86.144ZM183.453 82.82C183.453 84.284 184.125 85.16 185.289 85.16C186.453 85.16 187.125 84.284 187.125 82.82C187.125 81.356 186.453 80.48 185.289 80.48C184.125 80.48 183.453 81.356 183.453 82.82ZM189.671 79.64H190.607L190.643 80.732C190.967 79.88 191.711 79.496 192.587 79.496C194.039 79.496 194.735 80.564 194.735 81.908V86H193.703V82.196C193.703 81.032 193.319 80.408 192.371 80.408C191.363 80.408 190.703 81.032 190.703 82.196V86H189.671V79.64Z" fill="#1D211C"/>
<path d="M207.052 81.776C206.92 80.96 206.236 80.48 205.48 80.48C204.316 80.48 203.644 81.356 203.644 82.82C203.644 84.284 204.316 85.16 205.48 85.16C206.272 85.16 206.956 84.644 207.1 83.744L208.192 83.816C207.988 85.256 206.824 86.144 205.48 86.144C203.716 86.144 202.564 84.848 202.564 82.82C202.564 80.792 203.716 79.496 205.48 79.496C206.776 79.496 207.964 80.336 208.132 81.704L207.052 81.776ZM209.509 80.024C209.737 78.452 210.853 77.288 212.557 77.288C214.117 77.288 215.269 78.32 215.269 79.712C215.269 80.96 214.285 81.8 213.001 82.592C212.365 82.964 210.697 84.116 210.661 84.968H215.341V86H209.353C209.353 83.42 211.201 82.496 212.629 81.584C213.505 81.02 214.165 80.372 214.165 79.712C214.165 78.896 213.505 78.32 212.557 78.32C211.537 78.32 210.841 78.956 210.613 80.096L209.509 80.024Z" fill="#60655F"/>
<path d="M227.25 82C227.25 76.6152 231.615 72.25 237 72.25H320C325.385 72.25 329.75 76.6152 329.75 82C329.75 87.3848 325.385 91.75 320 91.75H237C231.615 91.75 227.25 87.3848 227.25 82Z" fill="white"/>
<path d="M227.25 82C227.25 76.6152 231.615 72.25 237 72.25H320C325.385 72.25 329.75 76.6152 329.75 82C329.75 87.3848 325.385 91.75 320 91.75H237C231.615 91.75 227.25 87.3848 227.25 82Z" stroke="#DFE2DF" stroke-width="0.5"/>
<path d="M235 82C235 80.3431 236.343 79 238 79C239.657 79 241 80.3431 241 82C241 83.6569 239.657 85 238 85C236.343 85 235 83.6569 235 82Z" fill="#A18072"/>
<path d="M253.228 77.48V86H252.292L252.256 85.112C251.908 85.748 251.14 86.144 250.252 86.144C248.596 86.144 247.564 84.86 247.564 82.82C247.564 80.78 248.596 79.496 250.252 79.496C251.104 79.496 251.848 79.868 252.196 80.456V77.48H253.228ZM248.644 82.82C248.644 84.26 249.352 85.16 250.468 85.16C251.584 85.16 252.292 84.26 252.292 82.82C252.292 81.356 251.584 80.432 250.468 80.432C249.352 80.432 248.644 81.356 248.644 82.82ZM257.664 86.144C255.9 86.144 254.748 84.848 254.748 82.82C254.748 80.792 255.9 79.496 257.664 79.496C259.428 79.496 260.58 80.792 260.58 82.82C260.58 84.848 259.428 86.144 257.664 86.144ZM255.828 82.82C255.828 84.284 256.5 85.16 257.664 85.16C258.828 85.16 259.5 84.284 259.5 82.82C259.5 81.356 258.828 80.48 257.664 80.48C256.5 80.48 255.828 81.356 255.828 82.82ZM262.046 79.64H262.982L263.018 80.696C263.318 79.928 263.966 79.496 264.842 79.496C265.766 79.496 266.426 79.976 266.702 80.816C266.978 79.964 267.638 79.496 268.634 79.496C269.918 79.496 270.662 80.372 270.662 81.908V86H269.63V82.196C269.63 81.056 269.186 80.408 268.418 80.408C267.434 80.408 266.87 81.056 266.87 82.196V86H265.838V82.196C265.838 81.08 265.382 80.408 264.626 80.408C263.654 80.408 263.078 81.08 263.078 82.196V86H262.046V79.64ZM272.293 81.512C272.545 80.276 273.541 79.496 274.897 79.496C276.541 79.496 277.465 80.456 277.465 82.16V84.704C277.465 84.968 277.585 85.088 277.849 85.088H278.113V86H277.669C277.021 86 276.445 85.796 276.445 85.028C276.181 85.604 275.485 86.144 274.477 86.144C273.217 86.144 272.185 85.472 272.185 84.332C272.185 83.012 273.169 82.688 274.585 82.412L276.433 82.052C276.421 80.996 275.917 80.48 274.897 80.48C274.105 80.48 273.577 80.876 273.385 81.596L272.293 81.512ZM273.265 84.332C273.265 84.824 273.685 85.232 274.609 85.232C275.641 85.232 276.457 84.512 276.457 83.024V82.964L274.969 83.228C274.033 83.396 273.265 83.444 273.265 84.332ZM279.495 79.64H280.527V86H279.495V79.64ZM279.471 78.644V77.48H280.551V78.644H279.471ZM282.273 79.64H283.209L283.245 80.732C283.569 79.88 284.312 79.496 285.189 79.496C286.641 79.496 287.337 80.564 287.337 81.908V86H286.305V82.196C286.305 81.032 285.921 80.408 284.973 80.408C283.965 80.408 283.305 81.032 283.305 82.196V86H282.273V79.64Z" fill="#1D211C"/>
<path d="M295.96 79.64H296.872L296.908 80.78C297.112 80 297.58 79.64 298.408 79.64H299.032V80.552H298.408C297.436 80.552 296.992 81.116 296.992 82.208V86H295.96V79.64ZM299.677 82.82C299.677 80.792 300.829 79.496 302.593 79.496C303.985 79.496 305.245 80.396 305.353 82.676L305.365 83.144H300.769C300.865 84.416 301.513 85.16 302.593 85.16C303.265 85.16 303.877 84.776 304.165 84.116L305.269 84.2C304.897 85.4 303.817 86.144 302.593 86.144C300.829 86.144 299.677 84.848 299.677 82.82ZM300.793 82.232H304.237C304.057 80.912 303.349 80.48 302.593 80.48C301.597 80.48 300.961 81.128 300.793 82.232ZM307.154 78.2H308.186V79.64H309.89V80.552H308.186V84.296C308.186 84.824 308.438 85.088 308.942 85.088H309.866V86H308.942C307.79 86 307.154 85.388 307.154 84.296V80.552H306.23V79.64H307.154V78.2ZM311.012 81.512C311.264 80.276 312.26 79.496 313.616 79.496C315.26 79.496 316.184 80.456 316.184 82.16V84.704C316.184 84.968 316.304 85.088 316.568 85.088H316.832V86H316.388C315.74 86 315.164 85.796 315.164 85.028C314.9 85.604 314.204 86.144 313.196 86.144C311.936 86.144 310.904 85.472 310.904 84.332C310.904 83.012 311.888 82.688 313.304 82.412L315.152 82.052C315.14 80.996 314.636 80.48 313.616 80.48C312.824 80.48 312.296 80.876 312.104 81.596L311.012 81.512ZM311.984 84.332C311.984 84.824 312.404 85.232 313.328 85.232C314.36 85.232 315.176 84.512 315.176 83.024V82.964L313.688 83.228C312.752 83.396 311.984 83.444 311.984 84.332ZM318.214 79.64H319.246V86H318.214V79.64ZM318.19 78.644V77.48H319.27V78.644H318.19ZM321.167 77.48H322.199V84.704C322.199 84.968 322.319 85.088 322.583 85.088H323.135V86H322.415C321.671 86 321.167 85.496 321.167 84.752V77.48Z" fill="#60655F"/>
<g clip-path="url(#clip0_3827_5487)">
<path d="M487.5 75L480 78.5V84H543.5V62L536.5 66.5L525 64.5L520 60L512 71L502 67L494 81L487.5 75Z" fill="url(#paint0_linear_3827_5487)" fill-opacity="0.2"/>
<path d="M480 78.5L486.231 75.5924C486.993 75.2367 487.896 75.3959 488.491 75.9906L492.454 79.954C493.443 80.9429 495.115 80.6375 495.691 79.3629L500.693 68.2879C501.141 67.2949 502.302 66.8436 503.303 67.2728L510.471 70.3447C511.357 70.7244 512.388 70.418 512.923 69.6158L518.579 61.1313C519.301 60.0487 520.848 59.9326 521.723 60.8954L524.539 63.9925C524.838 64.3214 525.238 64.5414 525.676 64.6175L535.732 66.3664C536.226 66.4523 536.734 66.3495 537.156 66.0783L543.5 62" stroke="#1FD8A4" stroke-width="2"/>
</g>
<path d="M59 100H541" stroke="#DFE2DF"/>
<path d="M64.028 117.872C63.908 117.08 63.284 116.612 62.564 116.612C61.484 116.612 60.872 117.44 60.872 118.82C60.872 120.2 61.484 121.028 62.564 121.028C63.32 121.028 63.932 120.536 64.064 119.66L65.42 119.732C65.228 121.22 64.028 122.144 62.564 122.144C60.728 122.144 59.528 120.848 59.528 118.82C59.528 116.792 60.728 115.496 62.564 115.496C63.98 115.496 65.204 116.372 65.372 117.8L64.028 117.872ZM71.8351 122H70.6351L70.6231 120.98C70.2871 121.796 69.5551 122.144 68.7391 122.144C67.3351 122.144 66.6031 121.124 66.6031 119.732V115.64H67.8991V119.336C67.8991 120.452 68.2231 121.052 69.0751 121.052C69.9751 121.052 70.5511 120.452 70.5511 119.336V115.64H71.8351V122ZM77.3421 117.644C77.2101 116.972 76.5741 116.576 75.9261 116.576C75.2781 116.576 74.7621 116.9 74.7741 117.452C74.7861 118.028 75.5181 118.256 76.1661 118.376C77.7501 118.664 78.7701 119.096 78.7701 120.344C78.7701 121.592 77.5101 122.144 76.1661 122.144C74.5341 122.144 73.3701 121.328 73.2741 119.996L74.6061 119.912C74.7261 120.62 75.2781 121.064 76.1541 121.064C76.7061 121.064 77.4261 120.872 77.4261 120.284C77.4261 119.6 76.6221 119.528 75.9381 119.372C74.5941 119.084 73.4301 118.724 73.4301 117.5C73.4301 116.252 74.4381 115.496 76.0221 115.496C77.4021 115.496 78.4581 116.3 78.6741 117.572L77.3421 117.644ZM80.5053 114.2H81.8013V115.64H83.4933V116.696H81.8013V120.164C81.8013 120.68 82.0533 120.944 82.5333 120.944H83.4813V122H82.4133C81.1773 122 80.5053 121.364 80.5053 120.164V116.696H79.5453V115.64H80.5053V114.2ZM87.314 122.144C85.478 122.144 84.278 120.848 84.278 118.82C84.278 116.792 85.478 115.496 87.314 115.496C89.15 115.496 90.35 116.792 90.35 118.82C90.35 120.848 89.15 122.144 87.314 122.144ZM85.622 118.82C85.622 120.2 86.234 121.028 87.314 121.028C88.394 121.028 89.006 120.2 89.006 118.82C89.006 117.44 88.394 116.612 87.314 116.612C86.234 116.612 85.622 117.44 85.622 118.82ZM91.7047 115.64H92.8687L92.9167 116.672C93.2167 115.928 93.8647 115.496 94.7167 115.496C95.6287 115.496 96.2887 115.976 96.5647 116.816C96.8527 115.952 97.5127 115.496 98.4727 115.496C99.7567 115.496 100.525 116.36 100.525 117.908V122H99.2407V118.304C99.2407 117.188 98.8447 116.588 98.1247 116.588C97.2247 116.588 96.7327 117.2 96.7327 118.304V122H95.5087V118.304C95.5087 117.2 95.1007 116.588 94.3927 116.588C93.5047 116.588 93.0007 117.212 93.0007 118.304V122H91.7047V115.64ZM101.786 118.82C101.786 116.792 102.986 115.496 104.822 115.496C106.334 115.496 107.63 116.504 107.702 118.772V119.192H103.154C103.226 120.356 103.826 121.04 104.822 121.04C105.446 121.04 106.01 120.68 106.274 120.08L107.618 120.176C107.234 121.388 106.118 122.144 104.822 122.144C102.986 122.144 101.786 120.848 101.786 118.82ZM103.166 118.22H106.346C106.19 117.02 105.53 116.6 104.822 116.6C103.898 116.6 103.31 117.2 103.166 118.22ZM109.072 115.64H110.26L110.296 116.816C110.512 116.012 110.992 115.64 111.808 115.64H112.408V116.696H111.796C110.8 116.696 110.368 117.236 110.368 118.292V122H109.072V115.64ZM113.481 117.932H117.513V119.06H113.481V117.932ZM119.587 115.364C119.587 114.188 120.175 113.48 121.483 113.48H122.563V114.536H121.567C121.171 114.536 120.883 114.848 120.883 115.364V115.724H122.479V116.792H120.883V122H119.587V116.792H118.711V115.724H119.587V115.364ZM123.208 118.82C123.208 116.792 124.408 115.496 126.244 115.496C127.756 115.496 129.052 116.504 129.124 118.772V119.192H124.576C124.648 120.356 125.248 121.04 126.244 121.04C126.868 121.04 127.432 120.68 127.696 120.08L129.04 120.176C128.656 121.388 127.54 122.144 126.244 122.144C124.408 122.144 123.208 120.848 123.208 118.82ZM124.588 118.22H127.768C127.612 117.02 126.952 116.6 126.244 116.6C125.32 116.6 124.732 117.2 124.588 118.22ZM130.192 118.82C130.192 116.792 131.392 115.496 133.228 115.496C134.74 115.496 136.036 116.504 136.108 118.772V119.192H131.56C131.632 120.356 132.232 121.04 133.228 121.04C133.852 121.04 134.416 120.68 134.68 120.08L136.024 120.176C135.64 121.388 134.524 122.144 133.228 122.144C131.392 122.144 130.192 120.848 130.192 118.82ZM131.572 118.22H134.752C134.596 117.02 133.936 116.6 133.228 116.6C132.304 116.6 131.716 117.2 131.572 118.22ZM143.08 113.48V122H141.88L141.844 121.1C141.484 121.748 140.74 122.144 139.864 122.144C138.208 122.144 137.176 120.86 137.176 118.82C137.176 116.78 138.208 115.496 139.864 115.496C140.704 115.496 141.424 115.868 141.784 116.48V113.48H143.08ZM138.508 118.82C138.508 120.176 139.18 121.028 140.2 121.028C141.232 121.028 141.88 120.176 141.88 118.82C141.88 117.44 141.232 116.576 140.2 116.576C139.168 116.576 138.508 117.44 138.508 118.82ZM144.533 113.48H145.829V116.48C146.189 115.868 146.909 115.496 147.749 115.496C149.405 115.496 150.437 116.78 150.437 118.82C150.437 120.86 149.405 122.144 147.749 122.144C146.873 122.144 146.129 121.748 145.769 121.1L145.733 122H144.533V113.48ZM145.733 118.82C145.733 120.176 146.381 121.028 147.413 121.028C148.433 121.028 149.105 120.176 149.105 118.82C149.105 117.44 148.445 116.576 147.413 116.576C146.381 116.576 145.733 117.44 145.733 118.82ZM151.675 117.548C151.927 116.264 152.935 115.496 154.399 115.496C156.139 115.496 157.087 116.456 157.087 118.196V120.56C157.087 120.872 157.219 120.98 157.471 120.98H157.735V122H157.327C156.751 122.012 155.959 121.916 155.899 121.028C155.623 121.628 154.915 122.144 153.859 122.144C152.587 122.144 151.567 121.46 151.567 120.332C151.567 119.06 152.515 118.688 153.979 118.4L155.791 118.052C155.779 117.032 155.323 116.552 154.399 116.552C153.667 116.552 153.187 116.924 153.007 117.632L151.675 117.548ZM152.911 120.308C152.911 120.764 153.307 121.148 154.135 121.148C155.083 121.148 155.815 120.464 155.815 119.096V119.036L154.471 119.276C153.607 119.432 152.911 119.504 152.911 120.308ZM163.04 117.872C162.92 117.08 162.296 116.612 161.576 116.612C160.496 116.612 159.884 117.44 159.884 118.82C159.884 120.2 160.496 121.028 161.576 121.028C162.332 121.028 162.944 120.536 163.076 119.66L164.432 119.732C164.24 121.22 163.04 122.144 161.576 122.144C159.74 122.144 158.54 120.848 158.54 118.82C158.54 116.792 159.74 115.496 161.576 115.496C162.992 115.496 164.216 116.372 164.384 117.8L163.04 117.872ZM165.673 113.48H166.969V118.76L169.765 115.64H171.409L168.925 118.304L171.529 122H170.017L168.073 119.12L166.969 120.32V122H165.673V113.48ZM172.626 117.932H176.658V119.06H172.626V117.932ZM181.791 117.644C181.659 116.972 181.023 116.576 180.375 116.576C179.727 116.576 179.211 116.9 179.223 117.452C179.235 118.028 179.967 118.256 180.615 118.376C182.199 118.664 183.219 119.096 183.219 120.344C183.219 121.592 181.959 122.144 180.615 122.144C178.983 122.144 177.819 121.328 177.723 119.996L179.055 119.912C179.175 120.62 179.727 121.064 180.603 121.064C181.155 121.064 181.875 120.872 181.875 120.284C181.875 119.6 181.071 119.528 180.387 119.372C179.043 119.084 177.879 118.724 177.879 117.5C177.879 116.252 178.887 115.496 180.471 115.496C181.851 115.496 182.907 116.3 183.123 117.572L181.791 117.644ZM189.749 122H188.549L188.537 120.98C188.201 121.796 187.469 122.144 186.653 122.144C185.249 122.144 184.517 121.124 184.517 119.732V115.64H185.813V119.336C185.813 120.452 186.137 121.052 186.989 121.052C187.889 121.052 188.465 120.452 188.465 119.336V115.64H189.749V122ZM191.56 115.64H192.748L192.784 116.816C193 116.012 193.48 115.64 194.296 115.64H194.896V116.696H194.284C193.288 116.696 192.856 117.236 192.856 118.292V122H191.56V115.64ZM201.921 115.64L199.593 122H198.033L195.705 115.64H197.061L198.813 120.68L200.565 115.64H201.921ZM202.391 118.82C202.391 116.792 203.591 115.496 205.427 115.496C206.939 115.496 208.235 116.504 208.307 118.772V119.192H203.759C203.831 120.356 204.431 121.04 205.427 121.04C206.051 121.04 206.615 120.68 206.879 120.08L208.223 120.176C207.839 121.388 206.723 122.144 205.427 122.144C203.591 122.144 202.391 120.848 202.391 118.82ZM203.771 118.22H206.951C206.795 117.02 206.135 116.6 205.427 116.6C204.503 116.6 203.915 117.2 203.771 118.22ZM208.795 115.64H210.103L211.891 120.632L213.631 115.64H214.927L212.383 122.744C212.119 123.464 211.639 123.8 210.847 123.8H209.899V122.756H210.655C210.991 122.756 211.171 122.636 211.291 122.336L211.495 121.808H211.099L208.795 115.64ZM215.716 117.932H219.748V119.06H215.716V117.932ZM221.185 115.64H222.373L222.409 116.816C222.625 116.012 223.105 115.64 223.921 115.64H224.521V116.696H223.909C222.913 116.696 222.481 117.236 222.481 118.292V122H221.185V115.64ZM225.114 118.82C225.114 116.792 226.314 115.496 228.15 115.496C229.662 115.496 230.958 116.504 231.03 118.772V119.192H226.482C226.554 120.356 227.154 121.04 228.15 121.04C228.774 121.04 229.338 120.68 229.602 120.08L230.946 120.176C230.562 121.388 229.446 122.144 228.15 122.144C226.314 122.144 225.114 120.848 225.114 118.82ZM226.494 118.22H229.674C229.518 117.02 228.858 116.6 228.15 116.6C227.226 116.6 226.638 117.2 226.494 118.22ZM236.166 117.644C236.034 116.972 235.398 116.576 234.75 116.576C234.102 116.576 233.586 116.9 233.598 117.452C233.61 118.028 234.342 118.256 234.99 118.376C236.574 118.664 237.594 119.096 237.594 120.344C237.594 121.592 236.334 122.144 234.99 122.144C233.358 122.144 232.194 121.328 232.098 119.996L233.43 119.912C233.55 120.62 234.102 121.064 234.978 121.064C235.53 121.064 236.25 120.872 236.25 120.284C236.25 119.6 235.446 119.528 234.762 119.372C233.418 119.084 232.254 118.724 232.254 117.5C232.254 116.252 233.262 115.496 234.846 115.496C236.226 115.496 237.282 116.3 237.498 117.572L236.166 117.644ZM244.124 122H242.924L242.912 120.98C242.576 121.796 241.844 122.144 241.028 122.144C239.624 122.144 238.892 121.124 238.892 119.732V115.64H240.188V119.336C240.188 120.452 240.512 121.052 241.364 121.052C242.264 121.052 242.84 120.452 242.84 119.336V115.64H244.124V122ZM245.935 113.48H247.231V120.524C247.231 120.8 247.363 120.944 247.651 120.944H248.167V122H247.363C246.511 122 245.935 121.448 245.935 120.572V113.48ZM249.619 114.2H250.915V115.64H252.607V116.696H250.915V120.164C250.915 120.68 251.167 120.944 251.647 120.944H252.595V122H251.527C250.291 122 249.619 121.364 249.619 120.164V116.696H248.659V115.64H249.619V114.2ZM257.459 117.644C257.327 116.972 256.691 116.576 256.043 116.576C255.395 116.576 254.879 116.9 254.891 117.452C254.903 118.028 255.635 118.256 256.283 118.376C257.867 118.664 258.887 119.096 258.887 120.344C258.887 121.592 257.627 122.144 256.283 122.144C254.651 122.144 253.487 121.328 253.391 119.996L254.723 119.912C254.843 120.62 255.395 121.064 256.271 121.064C256.823 121.064 257.543 120.872 257.543 120.284C257.543 119.6 256.739 119.528 256.055 119.372C254.711 119.084 253.547 118.724 253.547 117.5C253.547 116.252 254.555 115.496 256.139 115.496C257.519 115.496 258.575 116.3 258.791 117.572L257.459 117.644Z" fill="#1D211C"/>
<path d="M59.25 142C59.25 136.615 63.6152 132.25 69 132.25H169C174.385 132.25 178.75 136.615 178.75 142C178.75 147.385 174.385 151.75 169 151.75H69C63.6152 151.75 59.25 147.385 59.25 142Z" fill="white"/>
<path d="M59.25 142C59.25 136.615 63.6152 132.25 69 132.25H169C174.385 132.25 178.75 136.615 178.75 142C178.75 147.385 174.385 151.75 169 151.75H69C63.6152 151.75 59.25 147.385 59.25 142Z" stroke="#DFE2DF" stroke-width="0.5"/>
<path d="M67 142C67 140.343 68.3431 139 70 139C71.6569 139 73 140.343 73 142C73 143.657 71.6569 145 70 145C68.3431 145 67 143.657 67 142Z" fill="#F76808"/>
<path d="M79.96 139.64H80.872L80.908 140.78C81.112 140 81.58 139.64 82.408 139.64H83.032V140.552H82.408C81.436 140.552 80.992 141.116 80.992 142.208V146H79.96V139.64ZM83.6773 142.82C83.6773 140.792 84.8293 139.496 86.5933 139.496C87.9853 139.496 89.2453 140.396 89.3533 142.676L89.3653 143.144H84.7693C84.8653 144.416 85.5133 145.16 86.5933 145.16C87.2653 145.16 87.8773 144.776 88.1653 144.116L89.2693 144.2C88.8973 145.4 87.8173 146.144 86.5933 146.144C84.8293 146.144 83.6773 144.848 83.6773 142.82ZM84.7933 142.232H88.2373C88.0573 140.912 87.3493 140.48 86.5933 140.48C85.5973 140.48 84.9613 141.128 84.7933 142.232ZM90.835 147.8V139.64H91.771L91.807 140.564C92.155 139.88 92.827 139.496 93.751 139.496C95.659 139.496 96.499 141.08 96.499 142.82C96.499 144.56 95.659 146.144 93.751 146.144C92.875 146.144 92.215 145.808 91.867 145.148V147.8H90.835ZM91.747 142.82C91.747 143.996 92.275 145.16 93.571 145.16C94.879 145.16 95.395 144.008 95.395 142.82C95.395 141.632 94.879 140.48 93.571 140.48C92.275 140.48 91.747 141.644 91.747 142.82ZM98.0186 137.48H99.0506V144.704C99.0506 144.968 99.1706 145.088 99.4346 145.088H99.9866V146H99.2666C98.5226 146 98.0186 145.496 98.0186 144.752V137.48ZM101.429 139.64H102.461V146H101.429V139.64ZM101.405 138.644V137.48H102.485V138.644H101.405ZM108.474 141.776C108.342 140.96 107.658 140.48 106.902 140.48C105.738 140.48 105.066 141.356 105.066 142.82C105.066 144.284 105.738 145.16 106.902 145.16C107.694 145.16 108.378 144.644 108.522 143.744L109.614 143.816C109.41 145.256 108.246 146.144 106.902 146.144C105.138 146.144 103.986 144.848 103.986 142.82C103.986 140.792 105.138 139.496 106.902 139.496C108.198 139.496 109.386 140.336 109.554 141.704L108.474 141.776ZM110.785 141.512C111.037 140.276 112.033 139.496 113.389 139.496C115.033 139.496 115.957 140.456 115.957 142.16V144.704C115.957 144.968 116.077 145.088 116.341 145.088H116.605V146H116.161C115.513 146 114.937 145.796 114.937 145.028C114.673 145.604 113.977 146.144 112.969 146.144C111.709 146.144 110.677 145.472 110.677 144.332C110.677 143.012 111.661 142.688 113.077 142.412L114.925 142.052C114.913 140.996 114.409 140.48 113.389 140.48C112.597 140.48 112.069 140.876 111.877 141.596L110.785 141.512ZM111.757 144.332C111.757 144.824 112.177 145.232 113.101 145.232C114.133 145.232 114.949 144.512 114.949 143.024V142.964L113.461 143.228C112.525 143.396 111.757 143.444 111.757 144.332ZM118.014 138.2H119.046V139.64H120.75V140.552H119.046V144.296C119.046 144.824 119.298 145.088 119.802 145.088H120.726V146H119.802C118.65 146 118.014 145.388 118.014 144.296V140.552H117.09V139.64H118.014V138.2ZM122.159 139.64H123.191V146H122.159V139.64ZM122.135 138.644V137.48H123.215V138.644H122.135ZM127.632 146.144C125.868 146.144 124.716 144.848 124.716 142.82C124.716 140.792 125.868 139.496 127.632 139.496C129.396 139.496 130.548 140.792 130.548 142.82C130.548 144.848 129.396 146.144 127.632 146.144ZM125.796 142.82C125.796 144.284 126.468 145.16 127.632 145.16C128.796 145.16 129.468 144.284 129.468 142.82C129.468 141.356 128.796 140.48 127.632 140.48C126.468 140.48 125.796 141.356 125.796 142.82ZM132.015 139.64H132.951L132.987 140.732C133.311 139.88 134.055 139.496 134.931 139.496C136.383 139.496 137.079 140.564 137.079 141.908V146H136.047V142.196C136.047 141.032 135.663 140.408 134.715 140.408C133.707 140.408 133.047 141.032 133.047 142.196V146H132.015V139.64Z" fill="#1D211C"/>
<path d="M145.96 139.64H146.896L146.932 140.732C147.256 139.88 148 139.496 148.876 139.496C150.328 139.496 151.024 140.564 151.024 141.908V146H149.992V142.196C149.992 141.032 149.608 140.408 148.66 140.408C147.652 140.408 146.992 141.032 146.992 142.196V146H145.96V139.64ZM155.289 146.144C153.525 146.144 152.373 144.848 152.373 142.82C152.373 140.792 153.525 139.496 155.289 139.496C157.053 139.496 158.205 140.792 158.205 142.82C158.205 144.848 157.053 146.144 155.289 146.144ZM153.453 142.82C153.453 144.284 154.125 145.16 155.289 145.16C156.453 145.16 157.125 144.284 157.125 142.82C157.125 141.356 156.453 140.48 155.289 140.48C154.125 140.48 153.453 141.356 153.453 142.82ZM159.671 139.64H160.607L160.643 140.732C160.967 139.88 161.711 139.496 162.587 139.496C164.039 139.496 164.735 140.564 164.735 141.908V146H163.703V142.196C163.703 141.032 163.319 140.408 162.371 140.408C161.363 140.408 160.703 141.032 160.703 142.196V146H159.671V139.64ZM166.084 142.82C166.084 140.792 167.236 139.496 169 139.496C170.392 139.496 171.652 140.396 171.76 142.676L171.772 143.144H167.176C167.272 144.416 167.92 145.16 169 145.16C169.672 145.16 170.284 144.776 170.572 144.116L171.676 144.2C171.304 145.4 170.224 146.144 169 146.144C167.236 146.144 166.084 144.848 166.084 142.82ZM167.2 142.232H170.644C170.464 140.912 169.756 140.48 169 140.48C168.004 140.48 167.368 141.128 167.2 142.232Z" fill="#60655F"/>
<g clip-path="url(#clip1_3827_5487)">
<path d="M480 130L485.916 125.661C486.796 125.016 488.029 125.195 488.69 126.062L493.478 132.346C494.393 133.547 496.259 133.339 496.887 131.965L502.166 120.419C502.781 119.073 504.595 118.838 505.532 119.984L511.534 127.319C512.104 128.017 513.071 128.246 513.894 127.88L519.799 125.256C520.758 124.83 521.882 125.217 522.376 126.142L528.278 137.208C528.895 138.366 530.442 138.626 531.403 137.733L535.201 134.206C535.942 133.518 537.081 133.492 537.854 134.145L543 138.5" stroke="#FF5A78" stroke-width="2"/>
<path d="M487.5 124.5L480 130V144H543V138.5L536.5 133L529.5 138.5L521.5 124.5L512.5 128.5L504 119L495.5 133.5L487.5 124.5Z" fill="url(#paint1_linear_3827_5487)" fill-opacity="0.2"/>
</g>
<path d="M59 160H541" stroke="#DFE2DF"/>
<path d="M59.9 175.64H61.196V182H59.9V175.64ZM59.876 174.704V173.48H61.22V174.704H59.876ZM62.8297 175.64H63.9937L64.0297 176.732C64.3657 175.868 65.0977 175.496 65.9617 175.496C67.4017 175.496 68.1337 176.516 68.1337 177.908V182H66.8377V178.304C66.8377 177.188 66.5017 176.588 65.6257 176.588C64.7017 176.588 64.1257 177.188 64.1257 178.304V182H62.8297V175.64ZM75.2769 175.64L72.9489 182H71.3889L69.0609 175.64H70.4169L72.1689 180.68L73.9209 175.64H75.2769ZM75.7468 178.82C75.7468 176.792 76.9468 175.496 78.7828 175.496C80.2948 175.496 81.5908 176.504 81.6628 178.772V179.192H77.1148C77.1868 180.356 77.7868 181.04 78.7828 181.04C79.4068 181.04 79.9708 180.68 80.2348 180.08L81.5788 180.176C81.1948 181.388 80.0788 182.144 78.7828 182.144C76.9468 182.144 75.7468 180.848 75.7468 178.82ZM77.1268 178.22H80.3068C80.1508 177.02 79.4908 176.6 78.7828 176.6C77.8588 176.6 77.2708 177.2 77.1268 178.22ZM83.0328 175.64H84.1968L84.2328 176.732C84.5688 175.868 85.3008 175.496 86.1648 175.496C87.6048 175.496 88.3368 176.516 88.3368 177.908V182H87.0408V178.304C87.0408 177.188 86.7048 176.588 85.8288 176.588C84.9048 176.588 84.3288 177.188 84.3288 178.304V182H83.0328V175.64ZM90.5248 174.2H91.8208V175.64H93.5128V176.696H91.8208V180.164C91.8208 180.68 92.0728 180.944 92.5528 180.944H93.5008V182H92.4328C91.1968 182 90.5248 181.364 90.5248 180.164V176.696H89.5648V175.64H90.5248V174.2ZM97.3335 182.144C95.4975 182.144 94.2975 180.848 94.2975 178.82C94.2975 176.792 95.4975 175.496 97.3335 175.496C99.1695 175.496 100.37 176.792 100.37 178.82C100.37 180.848 99.1695 182.144 97.3335 182.144ZM95.6415 178.82C95.6415 180.2 96.2535 181.028 97.3335 181.028C98.4135 181.028 99.0255 180.2 99.0255 178.82C99.0255 177.44 98.4135 176.612 97.3335 176.612C96.2535 176.612 95.6415 177.44 95.6415 178.82ZM101.724 175.64H102.912L102.948 176.816C103.164 176.012 103.644 175.64 104.46 175.64H105.06V176.696H104.448C103.452 176.696 103.02 177.236 103.02 178.292V182H101.724V175.64ZM105.869 175.64H107.177L108.965 180.632L110.705 175.64H112.001L109.457 182.744C109.193 183.464 108.713 183.8 107.921 183.8H106.973V182.756H107.729C108.065 182.756 108.245 182.636 108.365 182.336L108.569 181.808H108.173L105.869 175.64ZM112.79 177.932H116.822V179.06H112.79V177.932ZM118.259 175.64H119.423L119.471 176.672C119.771 175.928 120.419 175.496 121.271 175.496C122.183 175.496 122.843 175.976 123.119 176.816C123.407 175.952 124.067 175.496 125.027 175.496C126.311 175.496 127.079 176.36 127.079 177.908V182H125.795V178.304C125.795 177.188 125.399 176.588 124.679 176.588C123.779 176.588 123.287 177.2 123.287 178.304V182H122.063V178.304C122.063 177.2 121.655 176.588 120.947 176.588C120.059 176.588 119.555 177.212 119.555 178.304V182H118.259V175.64ZM128.613 177.548C128.865 176.264 129.873 175.496 131.337 175.496C133.077 175.496 134.025 176.456 134.025 178.196V180.56C134.025 180.872 134.157 180.98 134.409 180.98H134.673V182H134.265C133.689 182.012 132.897 181.916 132.837 181.028C132.561 181.628 131.853 182.144 130.797 182.144C129.525 182.144 128.505 181.46 128.505 180.332C128.505 179.06 129.453 178.688 130.917 178.4L132.729 178.052C132.717 177.032 132.261 176.552 131.337 176.552C130.605 176.552 130.125 176.924 129.945 177.632L128.613 177.548ZM129.849 180.308C129.849 180.764 130.245 181.148 131.073 181.148C132.021 181.148 132.753 180.464 132.753 179.096V179.036L131.409 179.276C130.545 179.432 129.849 179.504 129.849 180.308ZM135.873 175.64H137.037L137.073 176.732C137.409 175.868 138.141 175.496 139.005 175.496C140.445 175.496 141.177 176.516 141.177 177.908V182H139.881V178.304C139.881 177.188 139.545 176.588 138.669 176.588C137.745 176.588 137.169 177.188 137.169 178.304V182H135.873V175.64ZM142.71 177.548C142.962 176.264 143.97 175.496 145.434 175.496C147.174 175.496 148.122 176.456 148.122 178.196V180.56C148.122 180.872 148.254 180.98 148.506 180.98H148.77V182H148.362C147.786 182.012 146.994 181.916 146.934 181.028C146.658 181.628 145.95 182.144 144.894 182.144C143.622 182.144 142.602 181.46 142.602 180.332C142.602 179.06 143.55 178.688 145.014 178.4L146.826 178.052C146.814 177.032 146.358 176.552 145.434 176.552C144.702 176.552 144.222 176.924 144.042 177.632L142.71 177.548ZM143.946 180.308C143.946 180.764 144.342 181.148 145.17 181.148C146.118 181.148 146.85 180.464 146.85 179.096V179.036L145.506 179.276C144.642 179.432 143.946 179.504 143.946 180.308ZM152.371 181.676C150.727 181.676 149.575 180.428 149.575 178.616C149.575 176.768 150.715 175.496 152.359 175.496C153.211 175.496 153.919 175.916 154.219 176.624V175.64H155.467V181.328C155.467 183.008 154.267 183.944 152.527 183.944C151.135 183.944 150.079 183.224 149.755 182.108L151.087 182.024C151.315 182.552 151.819 182.864 152.539 182.864C153.571 182.864 154.171 182.42 154.171 181.556V180.632C153.871 181.268 153.163 181.676 152.371 181.676ZM150.919 178.604C150.919 179.84 151.555 180.608 152.575 180.608C153.559 180.608 154.195 179.84 154.207 178.604C154.231 177.38 153.595 176.612 152.575 176.612C151.555 176.612 150.919 177.38 150.919 178.604ZM156.911 178.82C156.911 176.792 158.111 175.496 159.947 175.496C161.459 175.496 162.755 176.504 162.827 178.772V179.192H158.279C158.351 180.356 158.951 181.04 159.947 181.04C160.571 181.04 161.135 180.68 161.399 180.08L162.743 180.176C162.359 181.388 161.243 182.144 159.947 182.144C158.111 182.144 156.911 180.848 156.911 178.82ZM158.291 178.22H161.471C161.315 177.02 160.655 176.6 159.947 176.6C159.023 176.6 158.435 177.2 158.291 178.22ZM164.197 175.64H165.361L165.409 176.672C165.709 175.928 166.357 175.496 167.209 175.496C168.121 175.496 168.781 175.976 169.057 176.816C169.345 175.952 170.005 175.496 170.965 175.496C172.249 175.496 173.017 176.36 173.017 177.908V182H171.733V178.304C171.733 177.188 171.337 176.588 170.617 176.588C169.717 176.588 169.225 177.2 169.225 178.304V182H168.001V178.304C168.001 177.2 167.593 176.588 166.885 176.588C165.997 176.588 165.493 177.212 165.493 178.304V182H164.197V175.64ZM174.278 178.82C174.278 176.792 175.478 175.496 177.314 175.496C178.826 175.496 180.122 176.504 180.194 178.772V179.192H175.646C175.718 180.356 176.318 181.04 177.314 181.04C177.938 181.04 178.502 180.68 178.766 180.08L180.11 180.176C179.726 181.388 178.61 182.144 177.314 182.144C175.478 182.144 174.278 180.848 174.278 178.82ZM175.658 178.22H178.838C178.682 177.02 178.022 176.6 177.314 176.6C176.39 176.6 175.802 177.2 175.658 178.22ZM181.564 175.64H182.728L182.764 176.732C183.1 175.868 183.832 175.496 184.696 175.496C186.136 175.496 186.868 176.516 186.868 177.908V182H185.572V178.304C185.572 177.188 185.236 176.588 184.36 176.588C183.436 176.588 182.86 177.188 182.86 178.304V182H181.564V175.64ZM189.056 174.2H190.352V175.64H192.044V176.696H190.352V180.164C190.352 180.68 190.604 180.944 191.084 180.944H192.032V182H190.964C189.728 182 189.056 181.364 189.056 180.164V176.696H188.096V175.64H189.056V174.2ZM192.993 177.932H197.025V179.06H192.993V177.932ZM202.159 177.644C202.027 176.972 201.391 176.576 200.743 176.576C200.095 176.576 199.579 176.9 199.591 177.452C199.603 178.028 200.335 178.256 200.983 178.376C202.567 178.664 203.587 179.096 203.587 180.344C203.587 181.592 202.327 182.144 200.983 182.144C199.351 182.144 198.187 181.328 198.091 179.996L199.423 179.912C199.543 180.62 200.095 181.064 200.971 181.064C201.523 181.064 202.243 180.872 202.243 180.284C202.243 179.6 201.439 179.528 200.755 179.372C199.411 179.084 198.247 178.724 198.247 177.5C198.247 176.252 199.255 175.496 200.839 175.496C202.219 175.496 203.275 176.3 203.491 177.572L202.159 177.644ZM204.061 175.64H205.369L207.157 180.632L208.897 175.64H210.193L207.649 182.744C207.385 183.464 206.905 183.8 206.113 183.8H205.165V182.756H205.921C206.257 182.756 206.437 182.636 206.557 182.336L206.761 181.808H206.365L204.061 175.64ZM214.733 177.644C214.601 176.972 213.965 176.576 213.317 176.576C212.669 176.576 212.153 176.9 212.165 177.452C212.177 178.028 212.909 178.256 213.557 178.376C215.141 178.664 216.161 179.096 216.161 180.344C216.161 181.592 214.901 182.144 213.557 182.144C211.925 182.144 210.761 181.328 210.665 179.996L211.997 179.912C212.117 180.62 212.669 181.064 213.545 181.064C214.097 181.064 214.817 180.872 214.817 180.284C214.817 179.6 214.013 179.528 213.329 179.372C211.985 179.084 210.821 178.724 210.821 177.5C210.821 176.252 211.829 175.496 213.413 175.496C214.793 175.496 215.849 176.3 216.065 177.572L214.733 177.644ZM217.896 174.2H219.192V175.64H220.884V176.696H219.192V180.164C219.192 180.68 219.444 180.944 219.924 180.944H220.872V182H219.804C218.568 182 217.896 181.364 217.896 180.164V176.696H216.936V175.64H217.896V174.2ZM221.669 178.82C221.669 176.792 222.869 175.496 224.705 175.496C226.217 175.496 227.513 176.504 227.585 178.772V179.192H223.037C223.109 180.356 223.709 181.04 224.705 181.04C225.329 181.04 225.893 180.68 226.157 180.08L227.501 180.176C227.117 181.388 226.001 182.144 224.705 182.144C222.869 182.144 221.669 180.848 221.669 178.82ZM223.049 178.22H226.229C226.073 177.02 225.413 176.6 224.705 176.6C223.781 176.6 223.193 177.2 223.049 178.22ZM228.955 175.64H230.119L230.167 176.672C230.467 175.928 231.115 175.496 231.967 175.496C232.879 175.496 233.539 175.976 233.815 176.816C234.103 175.952 234.763 175.496 235.723 175.496C237.007 175.496 237.775 176.36 237.775 177.908V182H236.491V178.304C236.491 177.188 236.095 176.588 235.375 176.588C234.475 176.588 233.983 177.2 233.983 178.304V182H232.759V178.304C232.759 177.2 232.351 176.588 231.643 176.588C230.755 176.588 230.251 177.212 230.251 178.304V182H228.955V175.64ZM239.2 177.932H243.232V179.06H239.2V177.932ZM248.366 177.644C248.234 176.972 247.598 176.576 246.95 176.576C246.302 176.576 245.786 176.9 245.798 177.452C245.81 178.028 246.542 178.256 247.19 178.376C248.774 178.664 249.794 179.096 249.794 180.344C249.794 181.592 248.534 182.144 247.19 182.144C245.558 182.144 244.394 181.328 244.298 179.996L245.63 179.912C245.75 180.62 246.302 181.064 247.178 181.064C247.73 181.064 248.45 180.872 248.45 180.284C248.45 179.6 247.646 179.528 246.962 179.372C245.618 179.084 244.454 178.724 244.454 177.5C244.454 176.252 245.462 175.496 247.046 175.496C248.426 175.496 249.482 176.3 249.698 177.572L248.366 177.644ZM251.529 174.2H252.825V175.64H254.517V176.696H252.825V180.164C252.825 180.68 253.077 180.944 253.557 180.944H254.505V182H253.437C252.201 182 251.529 181.364 251.529 180.164V176.696H250.569V175.64H251.529V174.2ZM255.574 177.548C255.826 176.264 256.834 175.496 258.298 175.496C260.038 175.496 260.986 176.456 260.986 178.196V180.56C260.986 180.872 261.118 180.98 261.37 180.98H261.634V182H261.226C260.65 182.012 259.858 181.916 259.798 181.028C259.522 181.628 258.814 182.144 257.758 182.144C256.486 182.144 255.466 181.46 255.466 180.332C255.466 179.06 256.414 178.688 257.878 178.4L259.69 178.052C259.678 177.032 259.222 176.552 258.298 176.552C257.566 176.552 257.086 176.924 256.906 177.632L255.574 177.548ZM256.81 180.308C256.81 180.764 257.206 181.148 258.034 181.148C258.982 181.148 259.714 180.464 259.714 179.096V179.036L258.37 179.276C257.506 179.432 256.81 179.504 256.81 180.308ZM263.013 174.2H264.309V175.64H266.001V176.696H264.309V180.164C264.309 180.68 264.561 180.944 265.041 180.944H265.989V182H264.921C263.685 182 263.013 181.364 263.013 180.164V176.696H262.053V175.64H263.013V174.2ZM272.554 182H271.354L271.342 180.98C271.006 181.796 270.274 182.144 269.458 182.144C268.054 182.144 267.322 181.124 267.322 179.732V175.64H268.618V179.336C268.618 180.452 268.942 181.052 269.794 181.052C270.694 181.052 271.27 180.452 271.27 179.336V175.64H272.554V182ZM278.061 177.644C277.929 176.972 277.293 176.576 276.645 176.576C275.997 176.576 275.481 176.9 275.493 177.452C275.505 178.028 276.237 178.256 276.885 178.376C278.469 178.664 279.489 179.096 279.489 180.344C279.489 181.592 278.229 182.144 276.885 182.144C275.253 182.144 274.089 181.328 273.993 179.996L275.325 179.912C275.445 180.62 275.997 181.064 276.873 181.064C277.425 181.064 278.145 180.872 278.145 180.284C278.145 179.6 277.341 179.528 276.657 179.372C275.313 179.084 274.149 178.724 274.149 177.5C274.149 176.252 275.157 175.496 276.741 175.496C278.121 175.496 279.177 176.3 279.393 177.572L278.061 177.644Z" fill="#1D211C"/>
<path d="M59.25 202C59.25 196.615 63.6152 192.25 69 192.25H210C215.385 192.25 219.75 196.615 219.75 202C219.75 207.385 215.385 211.75 210 211.75H69C63.6152 211.75 59.25 207.385 59.25 202Z" fill="white"/>
<path d="M59.25 202C59.25 196.615 63.6152 192.25 69 192.25H210C215.385 192.25 219.75 196.615 219.75 202C219.75 207.385 215.385 211.75 210 211.75H69C63.6152 211.75 59.25 207.385 59.25 202Z" stroke="#DFE2DF" stroke-width="0.5"/>
<path d="M67 202C67 200.343 68.3431 199 70 199C71.6569 199 73 200.343 73 202C73 203.657 71.6569 205 70 205C68.3431 205 67 203.657 67 202Z" fill="#FFC53D"/>
<path d="M84.052 201.776C83.92 200.96 83.236 200.48 82.48 200.48C81.316 200.48 80.644 201.356 80.644 202.82C80.644 204.284 81.316 205.16 82.48 205.16C83.272 205.16 83.956 204.644 84.1 203.744L85.192 203.816C84.988 205.256 83.824 206.144 82.48 206.144C80.716 206.144 79.564 204.848 79.564 202.82C79.564 200.792 80.716 199.496 82.48 199.496C83.776 199.496 84.964 200.336 85.132 201.704L84.052 201.776ZM86.1968 202.016H90.1808V202.976H86.1968V202.016ZM96.9702 197.48V206H96.0342L95.9982 205.112C95.6502 205.748 94.8822 206.144 93.9942 206.144C92.3382 206.144 91.3062 204.86 91.3062 202.82C91.3062 200.78 92.3382 199.496 93.9942 199.496C94.8462 199.496 95.5902 199.868 95.9382 200.456V197.48H96.9702ZM92.3862 202.82C92.3862 204.26 93.0942 205.16 94.2102 205.16C95.3262 205.16 96.0342 204.26 96.0342 202.82C96.0342 201.356 95.3262 200.432 94.2102 200.432C93.0942 200.432 92.3862 201.356 92.3862 202.82ZM98.5978 201.512C98.8498 200.276 99.8458 199.496 101.202 199.496C102.846 199.496 103.77 200.456 103.77 202.16V204.704C103.77 204.968 103.89 205.088 104.154 205.088H104.418V206H103.974C103.326 206 102.75 205.796 102.75 205.028C102.486 205.604 101.79 206.144 100.782 206.144C99.5218 206.144 98.4898 205.472 98.4898 204.332C98.4898 203.012 99.4738 202.688 100.89 202.412L102.738 202.052C102.726 200.996 102.222 200.48 101.202 200.48C100.41 200.48 99.8818 200.876 99.6898 201.596L98.5978 201.512ZM99.5698 204.332C99.5698 204.824 99.9898 205.232 100.914 205.232C101.946 205.232 102.762 204.512 102.762 203.024V202.964L101.274 203.228C100.338 203.396 99.5698 203.444 99.5698 204.332ZM105.826 198.2H106.858V199.64H108.562V200.552H106.858V204.296C106.858 204.824 107.11 205.088 107.614 205.088H108.538V206H107.614C106.462 206 105.826 205.388 105.826 204.296V200.552H104.902V199.64H105.826V198.2ZM109.684 201.512C109.936 200.276 110.932 199.496 112.288 199.496C113.932 199.496 114.856 200.456 114.856 202.16V204.704C114.856 204.968 114.976 205.088 115.24 205.088H115.504V206H115.06C114.412 206 113.836 205.796 113.836 205.028C113.572 205.604 112.876 206.144 111.868 206.144C110.608 206.144 109.576 205.472 109.576 204.332C109.576 203.012 110.56 202.688 111.976 202.412L113.824 202.052C113.812 200.996 113.308 200.48 112.288 200.48C111.496 200.48 110.968 200.876 110.776 201.596L109.684 201.512ZM110.656 204.332C110.656 204.824 111.076 205.232 112 205.232C113.032 205.232 113.848 204.512 113.848 203.024V202.964L112.36 203.228C111.424 203.396 110.656 203.444 110.656 204.332ZM116.49 202.016H120.474V202.976H116.49V202.016ZM126.087 201.776C125.955 200.96 125.271 200.48 124.515 200.48C123.351 200.48 122.679 201.356 122.679 202.82C122.679 204.284 123.351 205.16 124.515 205.16C125.307 205.16 125.991 204.644 126.135 203.744L127.227 203.816C127.023 205.256 125.859 206.144 124.515 206.144C122.751 206.144 121.599 204.848 121.599 202.82C121.599 200.792 122.751 199.496 124.515 199.496C125.811 199.496 126.999 200.336 127.167 201.704L126.087 201.776ZM128.628 197.48H129.66V204.704C129.66 204.968 129.78 205.088 130.044 205.088H130.596V206H129.876C129.132 206 128.628 205.496 128.628 204.752V197.48ZM131.75 201.512C132.002 200.276 132.998 199.496 134.354 199.496C135.998 199.496 136.922 200.456 136.922 202.16V204.704C136.922 204.968 137.042 205.088 137.306 205.088H137.57V206H137.126C136.478 206 135.902 205.796 135.902 205.028C135.638 205.604 134.942 206.144 133.934 206.144C132.674 206.144 131.642 205.472 131.642 204.332C131.642 203.012 132.626 202.688 134.042 202.412L135.89 202.052C135.878 200.996 135.374 200.48 134.354 200.48C133.562 200.48 133.034 200.876 132.842 201.596L131.75 201.512ZM132.722 204.332C132.722 204.824 133.142 205.232 134.066 205.232C135.098 205.232 135.914 204.512 135.914 203.024V202.964L134.426 203.228C133.49 203.396 132.722 203.444 132.722 204.332ZM142.483 201.608C142.339 200.9 141.631 200.48 140.935 200.48C140.239 200.48 139.675 200.828 139.675 201.428C139.675 202.052 140.503 202.304 141.175 202.436C142.615 202.712 143.683 203.108 143.683 204.38C143.683 205.616 142.399 206.144 141.199 206.144C139.687 206.144 138.535 205.316 138.439 203.996L139.519 203.924C139.651 204.68 140.251 205.16 141.199 205.16C141.799 205.16 142.603 204.968 142.603 204.32C142.603 203.564 141.715 203.492 140.995 203.324C139.843 203.06 138.595 202.736 138.595 201.488C138.595 200.264 139.579 199.496 141.043 199.496C142.315 199.496 143.359 200.3 143.563 201.536L142.483 201.608ZM148.858 201.608C148.714 200.9 148.006 200.48 147.31 200.48C146.614 200.48 146.05 200.828 146.05 201.428C146.05 202.052 146.878 202.304 147.55 202.436C148.99 202.712 150.058 203.108 150.058 204.38C150.058 205.616 148.774 206.144 147.574 206.144C146.062 206.144 144.91 205.316 144.814 203.996L145.894 203.924C146.026 204.68 146.626 205.16 147.574 205.16C148.174 205.16 148.978 204.968 148.978 204.32C148.978 203.564 148.09 203.492 147.37 203.324C146.218 203.06 144.97 202.736 144.97 201.488C144.97 200.264 145.954 199.496 147.418 199.496C148.69 199.496 149.734 200.3 149.938 201.536L148.858 201.608ZM151.351 199.64H152.383V206H151.351V199.64ZM151.327 198.644V197.48H152.407V198.644H151.327ZM154.916 199.244C154.916 198.176 155.456 197.48 156.644 197.48H157.628V198.392H156.644C156.236 198.392 155.948 198.716 155.948 199.244V199.64H157.544V200.552H155.948V206H154.916V200.552H154.064V199.64H154.916V199.244ZM159.068 198.644V197.48H160.148V198.644H159.068ZM159.092 206V199.64H160.124V206H159.092ZM166.13 201.776C165.998 200.96 165.314 200.48 164.558 200.48C163.394 200.48 162.722 201.356 162.722 202.82C162.722 204.284 163.394 205.16 164.558 205.16C165.35 205.16 166.034 204.644 166.178 203.744L167.27 203.816C167.066 205.256 165.902 206.144 164.558 206.144C162.794 206.144 161.642 204.848 161.642 202.82C161.642 200.792 162.794 199.496 164.558 199.496C165.854 199.496 167.042 200.336 167.21 201.704L166.13 201.776ZM168.442 201.512C168.694 200.276 169.69 199.496 171.046 199.496C172.69 199.496 173.614 200.456 173.614 202.16V204.704C173.614 204.968 173.734 205.088 173.998 205.088H174.262V206H173.818C173.17 206 172.594 205.796 172.594 205.028C172.33 205.604 171.634 206.144 170.626 206.144C169.366 206.144 168.334 205.472 168.334 204.332C168.334 203.012 169.318 202.688 170.734 202.412L172.582 202.052C172.57 200.996 172.066 200.48 171.046 200.48C170.254 200.48 169.726 200.876 169.534 201.596L168.442 201.512ZM169.414 204.332C169.414 204.824 169.834 205.232 170.758 205.232C171.79 205.232 172.606 204.512 172.606 203.024V202.964L171.118 203.228C170.182 203.396 169.414 203.444 169.414 204.332ZM175.67 198.2H176.702V199.64H178.406V200.552H176.702V204.296C176.702 204.824 176.954 205.088 177.458 205.088H178.382V206H177.458C176.306 206 175.67 205.388 175.67 204.296V200.552H174.746V199.64H175.67V198.2ZM179.815 199.64H180.847V206H179.815V199.64ZM179.791 198.644V197.48H180.871V198.644H179.791ZM185.289 206.144C183.525 206.144 182.373 204.848 182.373 202.82C182.373 200.792 183.525 199.496 185.289 199.496C187.053 199.496 188.205 200.792 188.205 202.82C188.205 204.848 187.053 206.144 185.289 206.144ZM183.453 202.82C183.453 204.284 184.125 205.16 185.289 205.16C186.453 205.16 187.125 204.284 187.125 202.82C187.125 201.356 186.453 200.48 185.289 200.48C184.125 200.48 183.453 201.356 183.453 202.82ZM189.671 199.64H190.607L190.643 200.732C190.967 199.88 191.711 199.496 192.587 199.496C194.039 199.496 194.735 200.564 194.735 201.908V206H193.703V202.196C193.703 201.032 193.319 200.408 192.371 200.408C191.363 200.408 190.703 201.032 190.703 202.196V206H189.671V199.64Z" fill="#1D211C"/>
<path d="M207.052 201.776C206.92 200.96 206.236 200.48 205.48 200.48C204.316 200.48 203.644 201.356 203.644 202.82C203.644 204.284 204.316 205.16 205.48 205.16C206.272 205.16 206.956 204.644 207.1 203.744L208.192 203.816C207.988 205.256 206.824 206.144 205.48 206.144C203.716 206.144 202.564 204.848 202.564 202.82C202.564 200.792 203.716 199.496 205.48 199.496C206.776 199.496 207.964 200.336 208.132 201.704L207.052 201.776ZM209.797 198.8C210.709 198.8 211.105 198.404 211.105 197.48H211.933V206H210.877V199.7H209.113V198.8H209.797Z" fill="#60655F"/>
<g clip-path="url(#clip2_3827_5487)">
<path d="M487.5 195L480 198.5V204H543.5V182L536.5 186.5L525 184.5L520 180L512 191L502 187L494 201L487.5 195Z" fill="url(#paint2_linear_3827_5487)" fill-opacity="0.2"/>
<path d="M480 198.5L486.231 195.592C486.993 195.237 487.896 195.396 488.491 195.991L492.454 199.954C493.443 200.943 495.115 200.637 495.691 199.363L500.693 188.288C501.141 187.295 502.302 186.844 503.303 187.273L510.471 190.345C511.357 190.724 512.388 190.418 512.923 189.616L518.579 181.131C519.301 180.049 520.848 179.933 521.723 180.895L524.539 183.992C524.838 184.321 525.238 184.541 525.676 184.618L535.732 186.366C536.226 186.452 536.734 186.349 537.156 186.078L543.5 182" stroke="#1FD8A4" stroke-width="2"/>
</g>
<defs>
<linearGradient id="paint0_linear_3827_5487" x1="511.75" y1="59" x2="511.75" y2="84" gradientUnits="userSpaceOnUse">
<stop stop-color="#1FD8A4"/>
<stop offset="1" stop-color="#1FD8A4" stop-opacity="0"/>
</linearGradient>
<linearGradient id="paint1_linear_3827_5487" x1="511.5" y1="116.229" x2="511.5" y2="144" gradientUnits="userSpaceOnUse">
<stop stop-color="#FF5A78"/>
<stop offset="1" stop-color="#FF5A78" stop-opacity="0"/>
</linearGradient>
<linearGradient id="paint2_linear_3827_5487" x1="511.75" y1="179" x2="511.75" y2="204" gradientUnits="userSpaceOnUse">
<stop stop-color="#1FD8A4"/>
<stop offset="1" stop-color="#1FD8A4" stop-opacity="0"/>
</linearGradient>
<clipPath id="clip0_3827_5487">
<rect width="60" height="28" fill="white" transform="translate(481 56)"/>
</clipPath>
<clipPath id="clip1_3827_5487">
<rect width="60" height="28" fill="white" transform="translate(481 116)"/>
</clipPath>
<clipPath id="clip2_3827_5487">
<rect width="60" height="28" fill="white" transform="translate(481 176)"/>
</clipPath>
</defs>
</svg>
